<svg width="111" height="115" viewBox="0 0 111 115" fill="none" xmlns="http://www.w3.org/2000/svg">
<g clip-path="url(#clip0)">
<path d="M44.3806 80.1169C48.8915 80.1169 52.5482 76.8559 52.5482 72.8334C52.5482 68.8109 48.8915 65.55 44.3806 65.55C39.8697 65.55 36.2129 68.8109 36.2129 72.8334C36.2129 76.8559 39.8697 80.1169 44.3806 80.1169Z" fill="#FAFAFA"/>
<path d="M93.3856 76.475V72.8334C93.3856 70.8259 91.5531 69.1918 89.3019 69.1918V21.85C89.3019 9.80122 78.3108 0 64.7992 0C51.2877 0 40.2966 9.80122 40.2966 21.85V40.0584H38.2547C23.6185 40.0584 11.71 50.6775 11.71 63.7293V69.1918H5.58436C4.4559 69.1916 3.5426 70.006 3.5426 71.0125V78.2959C3.5426 79.3023 4.4559 80.1168 5.58455 80.1168H11.7102C11.7102 84.1336 15.3732 87.4002 19.8778 87.4002H44.3804C53.3875 87.4002 60.7155 80.8655 60.7155 72.8335C60.7155 67.4665 57.4068 62.8203 52.5479 60.2934V21.85C52.5479 15.8256 58.0434 10.925 64.7992 10.925C71.5551 10.925 77.0506 15.8256 77.0506 21.85V69.1916C74.7994 69.1916 72.9668 70.8257 72.9668 72.8332V76.475C68.4622 76.475 64.7992 79.7414 64.7992 83.7584V85.5793C64.7992 86.5857 65.7125 87.4002 66.8412 87.4002H99.5114C100.64 87.4002 101.553 86.5857 101.553 85.5793V83.7584C101.553 79.7414 97.8902 76.475 93.3856 76.475ZM56.6317 72.8334C56.6317 78.8578 51.1361 83.7584 44.3803 83.7584C37.6244 83.7584 32.129 78.8578 32.129 72.8334C32.129 66.8089 37.6244 61.9084 44.3803 61.9084C51.1361 61.9084 56.6317 66.8089 56.6317 72.8334Z" fill="#FAFAFA"/>
<path d="M18.7698 103.912C18.7805 103.976 18.7858 104.04 18.7858 104.104C18.7965 104.157 18.8018 104.221 18.8018 104.296C18.8018 104.424 18.7645 104.541 18.6898 104.648C18.6578 104.701 18.6151 104.755 18.5618 104.808C18.5085 104.851 18.4445 104.888 18.3698 104.92C18.1031 105.069 17.8205 105.123 17.5218 105.08C17.3725 105.037 17.2391 104.968 17.1218 104.872C17.1005 104.851 17.0845 104.84 17.0738 104.84C17.0631 104.829 17.0525 104.813 17.0418 104.792C17.0311 104.781 17.0205 104.771 17.0098 104.76C16.9991 104.739 16.9831 104.723 16.9618 104.712C16.9085 104.659 16.8658 104.611 16.8338 104.568C16.8018 104.515 16.7698 104.461 16.7378 104.408C16.7165 104.355 16.6898 104.307 16.6578 104.264C16.6365 104.211 16.6098 104.157 16.5778 104.104C16.5565 104.061 16.5351 104.024 16.5138 103.992C16.4925 103.949 16.4765 103.907 16.4658 103.864C16.4231 103.768 16.3965 103.683 16.3858 103.608L16.0498 102.824C15.3138 102.824 14.5778 102.829 13.8418 102.84C13.1165 102.84 12.3858 102.835 11.6498 102.824L11.3138 103.608C11.2925 103.651 11.2765 103.693 11.2658 103.736C11.2658 103.779 11.2551 103.821 11.2338 103.864C11.2125 103.907 11.1911 103.949 11.1698 103.992C11.1591 104.024 11.1431 104.061 11.1218 104.104C11.0898 104.157 11.0578 104.211 11.0258 104.264C11.0045 104.307 10.9778 104.355 10.9458 104.408C10.9245 104.461 10.8978 104.515 10.8658 104.568C10.8338 104.611 10.7911 104.659 10.7378 104.712C10.7165 104.723 10.7005 104.739 10.6898 104.76C10.6791 104.771 10.6685 104.781 10.6578 104.792C10.6471 104.813 10.6365 104.829 10.6258 104.84C10.6151 104.84 10.5991 104.851 10.5778 104.872C10.4605 104.968 10.3271 105.037 10.1778 105.08C9.87915 105.123 9.59648 105.069 9.32981 104.92C9.25515 104.888 9.19115 104.851 9.13781 104.808C9.08448 104.755 9.04181 104.701 9.00981 104.648C8.93515 104.541 8.89781 104.424 8.89781 104.296C8.89781 104.221 8.89781 104.157 8.89781 104.104C8.90848 104.04 8.91915 103.976 8.92981 103.912C8.95115 103.816 8.97781 103.72 9.00981 103.624C9.04181 103.528 9.05781 103.48 9.05781 103.48L12.3858 95.288L12.4818 95.032C12.5031 94.968 12.5298 94.9093 12.5618 94.856C12.5938 94.8027 12.6205 94.7387 12.6418 94.664C12.6951 94.5253 12.7538 94.4027 12.8178 94.296C12.8498 94.232 12.8871 94.1733 12.9298 94.12C12.9725 94.0667 13.0151 94.0133 13.0578 93.96C13.1218 93.8747 13.2125 93.8053 13.3298 93.752C13.4791 93.6987 13.6498 93.672 13.8418 93.672C14.0445 93.672 14.2205 93.6987 14.3698 93.752C14.4871 93.8053 14.5778 93.8747 14.6418 93.96C14.7165 94.056 14.7965 94.168 14.8818 94.296C14.9458 94.4027 15.0045 94.5253 15.0578 94.664C15.0791 94.7387 15.1058 94.8027 15.1378 94.856C15.1698 94.9093 15.1965 94.968 15.2178 95.032L15.3138 95.288L18.6418 103.48C18.6418 103.48 18.6578 103.528 18.6898 103.624C18.7218 103.72 18.7485 103.816 18.7698 103.912ZM14.9778 99.992C14.8391 99.6827 14.6951 99.3627 14.5458 99.032C14.4071 98.7013 14.2578 98.3653 14.0978 98.024C14.0551 97.928 14.0125 97.832 13.9698 97.736C13.9271 97.6293 13.8845 97.528 13.8418 97.432C13.8098 97.528 13.7725 97.6293 13.7298 97.736C13.6871 97.832 13.6445 97.928 13.6018 98.024C13.4418 98.3653 13.2871 98.7013 13.1378 99.032C12.9991 99.3627 12.8605 99.6827 12.7218 99.992L12.4338 100.696H15.2658L14.9778 99.992ZM28.3733 100.344C28.4266 100.493 28.464 100.664 28.4853 100.856C28.5173 101.037 28.5333 101.224 28.5333 101.416C28.5333 101.608 28.5173 101.8 28.4853 101.992C28.464 102.173 28.432 102.333 28.3893 102.472C28.2186 103.069 27.8773 103.571 27.3653 103.976C26.8533 104.371 26.2666 104.659 25.6053 104.84C24.9546 105.021 24.2773 105.085 23.5733 105.032C22.88 104.979 22.2613 104.803 21.7173 104.504C21.376 104.312 21.0826 104.077 20.8373 103.8C20.592 103.523 20.384 103.213 20.2133 102.872C20.1493 102.755 20.1066 102.621 20.0853 102.472C20.0746 102.312 20.0906 102.163 20.1333 102.024C20.176 101.875 20.2453 101.747 20.3413 101.64C20.4373 101.523 20.5706 101.443 20.7413 101.4C20.848 101.379 20.9653 101.368 21.0933 101.368C21.232 101.368 21.3653 101.389 21.4933 101.432C21.6213 101.464 21.7386 101.523 21.8453 101.608C21.952 101.683 22.0373 101.789 22.1013 101.928C22.2186 102.152 22.384 102.36 22.5973 102.552C22.8213 102.733 23.056 102.883 23.3013 103C23.6533 103.117 24.0053 103.165 24.3573 103.144C24.72 103.123 25.0453 103.043 25.3333 102.904C25.632 102.765 25.872 102.579 26.0533 102.344C26.2346 102.099 26.3253 101.821 26.3253 101.512C26.3253 101.256 26.288 101.048 26.2133 100.888C26.1386 100.717 26.032 100.579 25.8933 100.472C25.7653 100.355 25.6053 100.259 25.4133 100.184C25.232 100.109 25.0293 100.045 24.8053 99.992C24.5493 99.9387 24.288 99.9013 24.0213 99.88C23.7653 99.8587 23.504 99.832 23.2373 99.8C22.9706 99.768 22.7093 99.7253 22.4533 99.672C22.1973 99.6187 21.9466 99.5387 21.7013 99.432C21.2106 99.2293 20.8373 98.92 20.5813 98.504C20.3253 98.088 20.1706 97.64 20.1173 97.16C20.0746 96.68 20.1333 96.2053 20.2933 95.736C20.4533 95.256 20.7093 94.8453 21.0613 94.504C21.4026 94.1947 21.808 93.976 22.2773 93.848C22.7573 93.7093 23.2853 93.6293 23.8613 93.608C24.1813 93.5973 24.5013 93.608 24.8213 93.64C25.152 93.672 25.4666 93.7253 25.7653 93.8C26.0746 93.8747 26.3573 93.9707 26.6133 94.088C26.88 94.2053 27.1093 94.344 27.3013 94.504C27.44 94.6107 27.5786 94.7547 27.7173 94.936C27.856 95.1067 27.9626 95.2933 28.0373 95.496C28.112 95.688 28.1333 95.8747 28.1013 96.056C28.08 96.2373 27.968 96.392 27.7653 96.52C27.5946 96.6267 27.4293 96.6747 27.2693 96.664C27.12 96.6427 26.976 96.5947 26.8373 96.52C26.6986 96.4347 26.5653 96.3387 26.4373 96.232C26.3093 96.1253 26.192 96.0293 26.0853 95.944C25.7973 95.7307 25.44 95.5867 25.0133 95.512C24.5866 95.4373 24.1866 95.4213 23.8133 95.464C23.5786 95.496 23.36 95.5493 23.1573 95.624C22.9546 95.6987 22.7786 95.8 22.6293 95.928C22.4906 96.056 22.3786 96.216 22.2933 96.408C22.2186 96.5893 22.192 96.7973 22.2133 97.032C22.224 97.2027 22.272 97.3467 22.3573 97.464C22.4533 97.5813 22.5653 97.6773 22.6933 97.752C22.832 97.8267 22.9813 97.8853 23.1413 97.928C23.3013 97.9707 23.4613 98.0027 23.6213 98.024C24.1013 98.088 24.5813 98.136 25.0613 98.168C25.5413 98.2 26.0106 98.3067 26.4693 98.488C26.9386 98.6693 27.3386 98.9147 27.6693 99.224C28 99.5333 28.2346 99.9067 28.3733 100.344ZM37.0602 94.68C37.4655 95.0533 37.7642 95.5013 37.9562 96.024C38.1482 96.536 38.2229 97.048 38.1802 97.56C38.1375 98.0507 37.9829 98.504 37.7162 98.92C37.4495 99.3253 37.0442 99.6347 36.5002 99.848C36.0735 100.029 35.6522 100.157 35.2362 100.232C34.8202 100.307 34.3615 100.365 33.8602 100.408C33.6362 100.429 33.4442 100.445 33.2842 100.456C33.1349 100.456 32.9589 100.461 32.7562 100.472C32.7135 100.472 32.6389 100.472 32.5322 100.472C32.4362 100.472 32.3669 100.477 32.3242 100.488V103.8C32.2922 104.003 32.2495 104.211 32.1962 104.424C32.1535 104.637 32.0309 104.803 31.8282 104.92C31.7109 104.984 31.5669 105.021 31.3962 105.032C31.2255 105.043 31.0709 105.037 30.9322 105.016C30.7829 104.995 30.6549 104.957 30.5482 104.904C30.4522 104.84 30.3722 104.733 30.3082 104.584C30.2655 104.488 30.2229 104.381 30.1802 104.264C30.1482 104.136 30.1322 103.981 30.1322 103.8V94.952C30.1322 94.8773 30.1375 94.808 30.1482 94.744C30.1589 94.68 30.1695 94.616 30.1802 94.552C30.2015 94.4987 30.2175 94.44 30.2282 94.376C30.2389 94.312 30.2549 94.2533 30.2762 94.2C30.2975 94.1467 30.3189 94.0987 30.3402 94.056C30.3722 94.0133 30.4095 93.976 30.4522 93.944C30.5055 93.8907 30.5855 93.8427 30.6922 93.8C30.8095 93.7573 30.9802 93.736 31.2042 93.736H31.2362C31.5669 93.7147 31.9349 93.6987 32.3402 93.688C32.7455 93.6667 33.0815 93.672 33.3482 93.704C33.4975 93.7253 33.6362 93.7413 33.7642 93.752C33.8922 93.752 34.0149 93.7573 34.1322 93.768C34.2602 93.7787 34.3882 93.7893 34.5162 93.8C34.6442 93.8107 34.7722 93.8267 34.9002 93.848C35.0069 93.8693 35.1029 93.8853 35.1882 93.896C35.2842 93.9067 35.3802 93.9227 35.4762 93.944C35.5615 93.9653 35.6522 93.9867 35.7482 94.008C35.8549 94.0293 35.9509 94.0667 36.0362 94.12C36.2602 94.184 36.4469 94.264 36.5962 94.36C36.7455 94.456 36.9002 94.5627 37.0602 94.68ZM36.1002 97.32C36.1109 97.064 36.0575 96.84 35.9402 96.648C35.8335 96.456 35.6789 96.296 35.4762 96.168C35.2735 96.04 35.0442 95.9387 34.7882 95.864C34.5322 95.7893 34.2762 95.736 34.0202 95.704C33.9562 95.704 33.8655 95.704 33.7482 95.704C33.6415 95.6933 33.5242 95.688 33.3962 95.688C33.2682 95.6773 33.1455 95.672 33.0282 95.672C32.9215 95.6613 32.8362 95.656 32.7722 95.656C32.7189 95.6453 32.6549 95.64 32.5802 95.64C32.5055 95.64 32.4202 95.64 32.3242 95.64C32.3349 95.9707 32.3402 96.2907 32.3402 96.6C32.3402 96.8987 32.3402 97.224 32.3402 97.576C32.3295 97.768 32.3242 97.96 32.3242 98.152C32.3242 98.344 32.3242 98.5307 32.3242 98.712L33.3162 98.696C33.5722 98.696 33.8549 98.68 34.1642 98.648C34.4735 98.616 34.7669 98.552 35.0442 98.456C35.3215 98.36 35.5562 98.2213 35.7482 98.04C35.9509 97.8587 36.0682 97.6187 36.1002 97.32ZM39.9876 103.304L40.0036 102.04L40.0196 99.688C40.0302 99.3467 40.0356 98.9947 40.0356 98.632C40.0356 98.2693 40.0356 97.896 40.0356 97.512C40.0356 97.128 40.0356 96.7867 40.0356 96.488C40.0356 96.1893 40.0462 95.8533 40.0676 95.48V95.416C40.0782 95.3093 40.0836 95.2027 40.0836 95.096C40.0942 94.9787 40.0996 94.8613 40.0996 94.744C40.1102 94.552 40.1689 94.344 40.2756 94.12C40.3502 93.9707 40.4622 93.8427 40.6116 93.736C40.7822 93.6507 40.9476 93.608 41.1076 93.608C41.1929 93.608 41.2676 93.6133 41.3316 93.624C41.4062 93.624 41.4756 93.6293 41.5396 93.64C41.6782 93.6613 41.8009 93.7253 41.9076 93.832C41.9716 93.8853 42.0302 93.9707 42.0836 94.088C42.1049 94.152 42.1209 94.216 42.1316 94.28C42.1529 94.3333 42.1689 94.392 42.1796 94.456C42.1902 94.5307 42.1956 94.6 42.1956 94.664C42.2062 94.728 42.2116 94.792 42.2116 94.856C42.2116 94.9307 42.2062 95 42.1956 95.064C42.1956 95.1173 42.1956 95.176 42.1956 95.24V95.512L42.0996 103.816V103.976C42.0996 104.008 42.0942 104.051 42.0836 104.104C42.0836 104.147 42.0782 104.2 42.0676 104.264C42.0462 104.317 42.0249 104.376 42.0036 104.44C41.9929 104.493 41.9769 104.552 41.9556 104.616C41.9236 104.669 41.8862 104.723 41.8436 104.776C41.8116 104.819 41.7689 104.861 41.7156 104.904C41.6302 104.989 41.4916 105.048 41.2996 105.08C41.0116 105.144 40.7396 105.117 40.4836 105C40.3556 104.915 40.2649 104.808 40.2116 104.68C40.1796 104.648 40.1636 104.616 40.1636 104.584C40.1529 104.563 40.1422 104.547 40.1316 104.536C40.1209 104.525 40.1102 104.509 40.0996 104.488C40.0782 104.435 40.0622 104.381 40.0516 104.328C40.0409 104.264 40.0356 104.2 40.0356 104.136C40.0249 104.083 40.0142 104.029 40.0036 103.976C40.0036 103.923 39.9982 103.869 39.9876 103.816C39.9769 103.731 39.9769 103.64 39.9876 103.544V103.304ZM52.2319 104.296C52.2426 104.403 52.2319 104.504 52.1999 104.6C52.1786 104.664 52.1466 104.717 52.1039 104.76C52.0719 104.803 52.0293 104.845 51.9759 104.888C51.8799 104.952 51.7626 105.011 51.6239 105.064C51.5386 105.085 51.4533 105.101 51.3679 105.112C51.2933 105.133 51.2133 105.133 51.1279 105.112C50.9573 105.101 50.8079 105.037 50.6799 104.92C50.4986 104.771 50.3493 104.605 50.2319 104.424C50.1786 104.339 50.1199 104.243 50.0559 104.136C49.9919 104.029 49.9333 103.917 49.8799 103.8L48.1039 100.424C48.0186 100.424 47.9333 100.429 47.8479 100.44C47.7626 100.44 47.6773 100.445 47.5919 100.456C47.3679 100.477 47.1546 100.483 46.9519 100.472C46.7599 100.461 46.5573 100.461 46.3439 100.472H46.0399V103.368C46.0399 103.453 46.0346 103.533 46.0239 103.608C46.0239 103.683 46.0239 103.763 46.0239 103.848C46.0239 103.901 46.0186 103.971 46.0079 104.056C46.0079 104.141 46.0026 104.221 45.9919 104.296C45.9706 104.413 45.9226 104.536 45.8479 104.664C45.7733 104.781 45.6719 104.883 45.5439 104.968C45.3199 105.107 45.0479 105.144 44.7279 105.08C44.5893 105.048 44.4559 104.995 44.3279 104.92C44.2853 104.888 44.2479 104.851 44.2159 104.808C44.1839 104.755 44.1573 104.701 44.1359 104.648C44.1146 104.595 44.0933 104.541 44.0719 104.488C44.0613 104.424 44.0453 104.365 44.0239 104.312C43.9919 104.205 43.9759 104.104 43.9759 104.008V94.92C43.9759 94.856 43.9759 94.792 43.9759 94.728C43.9866 94.6533 43.9973 94.5893 44.0079 94.536C44.0186 94.4187 44.0559 94.3013 44.1199 94.184C44.1519 94.056 44.2053 93.9653 44.2799 93.912C44.3439 93.848 44.4399 93.7947 44.5679 93.752C44.7066 93.6987 44.9039 93.6773 45.1599 93.688C45.6399 93.6987 46.1146 93.704 46.5839 93.704C47.0533 93.704 47.5226 93.7147 47.9919 93.736C48.3013 93.7573 48.6266 93.7947 48.9679 93.848C49.3199 93.8907 49.6453 93.9707 49.9439 94.088C50.1359 94.1627 50.3119 94.2373 50.4719 94.312C50.6746 94.4293 50.8346 94.5413 50.9519 94.648C51.3253 94.9893 51.6079 95.4 51.7999 95.88C51.9919 96.36 52.0879 96.8453 52.0879 97.336C52.0879 97.912 51.9493 98.44 51.6719 98.92C51.4053 99.4 50.9733 99.7573 50.3759 99.992C50.3546 100.013 50.3226 100.029 50.2799 100.04C50.2479 100.04 50.2213 100.045 50.1999 100.056L51.6719 103.016L51.8159 103.272C51.8373 103.315 51.8639 103.363 51.8959 103.416C51.9279 103.469 51.9546 103.523 51.9759 103.576C52.0079 103.629 52.0346 103.688 52.0559 103.752C52.0879 103.816 52.1199 103.875 52.1519 103.928C52.1839 104.077 52.2106 104.2 52.2319 104.296ZM48.2319 98.6C48.4239 98.6 48.6053 98.568 48.7759 98.504C48.9573 98.4293 49.1173 98.3333 49.2559 98.216C49.4053 98.0987 49.5279 97.9653 49.6239 97.816C49.7199 97.656 49.7733 97.4853 49.7839 97.304C49.8266 96.7707 49.6879 96.376 49.3679 96.12C49.0479 95.8533 48.6266 95.7093 48.1039 95.688C47.7946 95.6667 47.4533 95.656 47.0799 95.656C46.7173 95.656 46.3706 95.656 46.0399 95.656C46.0506 96.0933 46.0506 96.5413 46.0399 97C46.0399 97.448 46.0399 97.9813 46.0399 98.6H48.2319ZM63.3948 103.912C63.4055 103.976 63.4108 104.04 63.4108 104.104C63.4215 104.157 63.4268 104.221 63.4268 104.296C63.4268 104.424 63.3895 104.541 63.3148 104.648C63.2828 104.701 63.2401 104.755 63.1868 104.808C63.1335 104.851 63.0695 104.888 62.9948 104.92C62.7281 105.069 62.4455 105.123 62.1468 105.08C61.9975 105.037 61.8641 104.968 61.7468 104.872C61.7255 104.851 61.7095 104.84 61.6988 104.84C61.6881 104.829 61.6775 104.813 61.6668 104.792C61.6561 104.781 61.6455 104.771 61.6348 104.76C61.6241 104.739 61.6081 104.723 61.5868 104.712C61.5335 104.659 61.4908 104.611 61.4588 104.568C61.4268 104.515 61.3948 104.461 61.3628 104.408C61.3415 104.355 61.3148 104.307 61.2828 104.264C61.2615 104.211 61.2348 104.157 61.2028 104.104C61.1815 104.061 61.1601 104.024 61.1388 103.992C61.1175 103.949 61.1015 103.907 61.0908 103.864C61.0481 103.768 61.0215 103.683 61.0108 103.608L60.6748 102.824C59.9388 102.824 59.2028 102.829 58.4668 102.84C57.7415 102.84 57.0108 102.835 56.2748 102.824L55.9388 103.608C55.9175 103.651 55.9015 103.693 55.8908 103.736C55.8908 103.779 55.8801 103.821 55.8588 103.864C55.8375 103.907 55.8161 103.949 55.7948 103.992C55.7841 104.024 55.7681 104.061 55.7468 104.104C55.7148 104.157 55.6828 104.211 55.6508 104.264C55.6295 104.307 55.6028 104.355 55.5708 104.408C55.5495 104.461 55.5228 104.515 55.4908 104.568C55.4588 104.611 55.4161 104.659 55.3628 104.712C55.3415 104.723 55.3255 104.739 55.3148 104.76C55.3041 104.771 55.2935 104.781 55.2828 104.792C55.2721 104.813 55.2615 104.829 55.2508 104.84C55.2401 104.84 55.2241 104.851 55.2028 104.872C55.0855 104.968 54.9521 105.037 54.8028 105.08C54.5041 105.123 54.2215 105.069 53.9548 104.92C53.8801 104.888 53.8161 104.851 53.7628 104.808C53.7095 104.755 53.6668 104.701 53.6348 104.648C53.5601 104.541 53.5228 104.424 53.5228 104.296C53.5228 104.221 53.5228 104.157 53.5228 104.104C53.5335 104.04 53.5441 103.976 53.5548 103.912C53.5761 103.816 53.6028 103.72 53.6348 103.624C53.6668 103.528 53.6828 103.48 53.6828 103.48L57.0108 95.288L57.1068 95.032C57.1281 94.968 57.1548 94.9093 57.1868 94.856C57.2188 94.8027 57.2455 94.7387 57.2668 94.664C57.3201 94.5253 57.3788 94.4027 57.4428 94.296C57.4748 94.232 57.5121 94.1733 57.5548 94.12C57.5975 94.0667 57.6401 94.0133 57.6828 93.96C57.7468 93.8747 57.8375 93.8053 57.9548 93.752C58.1041 93.6987 58.2748 93.672 58.4668 93.672C58.6695 93.672 58.8455 93.6987 58.9948 93.752C59.1121 93.8053 59.2028 93.8747 59.2668 93.96C59.3415 94.056 59.4215 94.168 59.5068 94.296C59.5708 94.4027 59.6295 94.5253 59.6828 94.664C59.7041 94.7387 59.7308 94.8027 59.7628 94.856C59.7948 94.9093 59.8215 94.968 59.8428 95.032L59.9388 95.288L63.2668 103.48C63.2668 103.48 63.2828 103.528 63.3148 103.624C63.3468 103.72 63.3735 103.816 63.3948 103.912ZM59.6028 99.992C59.4641 99.6827 59.3201 99.3627 59.1708 99.032C59.0321 98.7013 58.8828 98.3653 58.7228 98.024C58.6801 97.928 58.6375 97.832 58.5948 97.736C58.5521 97.6293 58.5095 97.528 58.4668 97.432C58.4348 97.528 58.3975 97.6293 58.3548 97.736C58.3121 97.832 58.2695 97.928 58.2268 98.024C58.0668 98.3653 57.9121 98.7013 57.7628 99.032C57.6241 99.3627 57.4855 99.6827 57.3468 99.992L57.0588 100.696H59.8908L59.6028 99.992ZM71.4642 94.168C71.5815 94.3067 71.6402 94.4507 71.6402 94.6C71.6402 94.664 71.6349 94.7333 71.6242 94.808C71.6242 94.872 71.6189 94.9307 71.6082 94.984C71.5762 95.1013 71.5069 95.2133 71.4002 95.32C71.3149 95.384 71.1975 95.432 71.0482 95.464C70.9735 95.4853 70.8989 95.5013 70.8242 95.512C70.7495 95.5227 70.6695 95.5387 70.5842 95.56C70.5095 95.5707 70.4349 95.576 70.3602 95.576C70.2855 95.576 70.2055 95.576 70.1202 95.576H69.3042C69.1122 95.5867 68.9202 95.592 68.7282 95.592C68.5469 95.592 68.3655 95.592 68.1842 95.592C68.1949 95.9227 68.2002 96.28 68.2002 96.664C68.2002 97.0373 68.1949 97.4747 68.1842 97.976C68.1842 98.4773 68.1789 99.0587 68.1682 99.72C68.1682 100.381 68.1682 101.149 68.1682 102.024V103.24C68.1682 103.347 68.1735 103.427 68.1842 103.48C68.1842 103.523 68.1842 103.565 68.1842 103.608C68.1842 103.64 68.1789 103.683 68.1682 103.736C68.1469 103.832 68.1309 103.944 68.1202 104.072C68.1202 104.125 68.1149 104.179 68.1042 104.232C68.0935 104.275 68.0775 104.323 68.0562 104.376C68.0135 104.419 67.9922 104.451 67.9922 104.472L67.9442 104.568C67.8909 104.675 67.7895 104.776 67.6402 104.872C67.4055 104.989 67.1442 105.016 66.8562 104.952C66.6749 104.931 66.5362 104.883 66.4402 104.808C66.3442 104.712 66.2749 104.616 66.2322 104.52C66.1682 104.403 66.1309 104.291 66.1202 104.184C66.0882 104.088 66.0722 103.987 66.0722 103.88V95.656C66.0082 95.656 65.8749 95.656 65.6722 95.656C65.4695 95.656 65.2509 95.656 65.0162 95.656C64.7922 95.6453 64.5789 95.6347 64.3762 95.624C64.1735 95.6133 64.0349 95.6027 63.9602 95.592C63.8962 95.5813 63.7949 95.5653 63.6562 95.544C63.5282 95.5227 63.4215 95.5013 63.3362 95.48C63.1122 95.416 62.9362 95.3147 62.8082 95.176C62.6909 95.0373 62.6322 94.8827 62.6322 94.712C62.6322 94.648 62.6322 94.584 62.6322 94.52C62.6322 94.456 62.6429 94.3973 62.6642 94.344C62.6962 94.216 62.7815 94.1093 62.9202 94.024C62.9629 93.992 63.0269 93.9547 63.1122 93.912C63.2082 93.8587 63.2989 93.8213 63.3842 93.8C63.5122 93.7573 63.6722 93.7253 63.8642 93.704C63.9495 93.6933 64.0349 93.688 64.1202 93.688C64.2055 93.688 64.2962 93.688 64.3922 93.688C64.7655 93.688 65.1175 93.688 65.4482 93.688C65.7895 93.688 66.1469 93.6827 66.5202 93.672C67.1389 93.6613 67.7522 93.6613 68.3602 93.672C68.9789 93.672 69.5922 93.6827 70.2002 93.704C70.3389 93.7147 70.4722 93.7307 70.6002 93.752C70.7282 93.7733 70.8562 93.8107 70.9842 93.864C71.0802 93.896 71.1709 93.9387 71.2562 93.992C71.3415 94.0347 71.4109 94.0933 71.4642 94.168ZM75.1054 95.592L75.0734 98.104H75.7134C76.1508 98.0933 76.5401 98.088 76.8814 98.088C77.2228 98.088 77.6014 98.0933 78.0174 98.104H78.0974C78.2254 98.104 78.3481 98.1093 78.4654 98.12C78.5934 98.12 78.7161 98.12 78.8334 98.12C78.9614 98.1307 79.0841 98.152 79.2014 98.184C79.3188 98.2053 79.4361 98.232 79.5534 98.264C79.7348 98.328 79.8841 98.424 80.0014 98.552C80.1081 98.6907 80.1614 98.8453 80.1614 99.016C80.1614 99.0693 80.1614 99.1333 80.1614 99.208C80.1614 99.272 80.1508 99.3307 80.1294 99.384C80.1081 99.5013 80.0388 99.608 79.9214 99.704C79.8681 99.7787 79.7668 99.832 79.6174 99.864C79.4788 99.9067 79.3401 99.9333 79.2014 99.944C79.0521 99.976 78.9028 99.992 78.7534 99.992H78.0014L75.0414 100.008L75.0094 103.144L78.1934 103.176H78.9454C79.0308 103.176 79.1108 103.176 79.1854 103.176C79.2601 103.176 79.3294 103.181 79.3934 103.192C79.4788 103.213 79.5534 103.229 79.6174 103.24C79.6921 103.24 79.7614 103.251 79.8254 103.272C79.9534 103.315 80.0601 103.373 80.1454 103.448C80.2521 103.555 80.3214 103.667 80.3534 103.784C80.3641 103.837 80.3694 103.896 80.3694 103.96C80.3801 104.013 80.3801 104.072 80.3694 104.136C80.3694 104.307 80.3161 104.461 80.2094 104.6C80.0814 104.749 79.9321 104.845 79.7614 104.888C79.5374 104.984 79.2921 105.032 79.0254 105.032C78.9081 105.043 78.7854 105.048 78.6574 105.048C78.5294 105.048 78.4068 105.053 78.2894 105.064H78.1934C77.3614 105.085 76.4974 105.085 75.6014 105.064C75.3881 105.064 75.2174 105.059 75.0894 105.048C74.9614 105.048 74.8441 105.048 74.7374 105.048C74.6414 105.048 74.5401 105.048 74.4334 105.048C74.3268 105.048 74.1881 105.048 74.0174 105.048C73.7721 105.069 73.5694 105.027 73.4094 104.92C73.2921 104.845 73.2014 104.744 73.1374 104.616C73.1054 104.584 73.0894 104.552 73.0894 104.52C73.0788 104.499 73.0681 104.483 73.0574 104.472C73.0468 104.461 73.0361 104.445 73.0254 104.424C73.0041 104.371 72.9881 104.317 72.9774 104.264C72.9668 104.2 72.9614 104.141 72.9614 104.088C72.9508 104.035 72.9401 103.981 72.9294 103.928C72.9294 103.875 72.9241 103.821 72.9134 103.768V103.512C72.9134 103.469 72.9134 103.427 72.9134 103.384C72.9241 103.341 72.9294 103.299 72.9294 103.256V102.008L72.9614 99.704V97.576C72.9614 97.192 72.9614 96.8507 72.9614 96.552C72.9721 96.2533 72.9828 95.928 72.9934 95.576V95.496C73.0041 95.3787 73.0094 95.272 73.0094 95.176C73.0201 95.0693 73.0254 94.9627 73.0254 94.856C73.0361 94.6427 73.0948 94.4347 73.2014 94.232C73.2441 94.1467 73.2868 94.072 73.3294 94.008C73.3828 93.944 73.4521 93.8907 73.5374 93.848C73.6974 93.752 73.8628 93.704 74.0334 93.704C74.1188 93.704 74.1828 93.7093 74.2254 93.72V93.704C74.4174 93.704 74.5721 93.704 74.6894 93.704C74.8068 93.704 74.9188 93.704 75.0254 93.704C75.1428 93.704 75.2654 93.704 75.3934 93.704C75.5214 93.6933 75.6974 93.688 75.9214 93.688C76.3481 93.6773 76.7534 93.672 77.1374 93.672C77.5214 93.672 77.9161 93.6773 78.3214 93.688H78.3854C78.5028 93.6987 78.6254 93.704 78.7534 93.704C78.8814 93.704 79.0041 93.7093 79.1214 93.72C79.2388 93.72 79.3561 93.736 79.4734 93.768C79.5908 93.7893 79.7081 93.8213 79.8254 93.864C80.0068 93.9173 80.1561 94.008 80.2734 94.136C80.3694 94.2853 80.4174 94.4347 80.4174 94.584C80.4174 94.648 80.4174 94.712 80.4174 94.776C80.4174 94.8293 80.4068 94.8827 80.3854 94.936C80.3748 95.0427 80.3108 95.1547 80.1934 95.272C80.1508 95.2933 80.1028 95.32 80.0494 95.352C80.0068 95.384 79.9534 95.4107 79.8894 95.432C79.8254 95.4533 79.7561 95.4693 79.6814 95.48C79.6174 95.48 79.5534 95.4853 79.4894 95.496C79.4041 95.5173 79.3241 95.528 79.2494 95.528C79.1854 95.528 79.1108 95.528 79.0254 95.528H78.3054L75.1054 95.544V95.592ZM90.4307 94.552C90.4947 95.064 90.532 95.6613 90.5427 96.344C90.5534 97.016 90.5427 97.6987 90.5107 98.392C90.4894 99.0747 90.4414 99.7253 90.3667 100.344C90.292 100.952 90.2014 101.443 90.0947 101.816C90.02 102.04 89.9294 102.275 89.8227 102.52C89.7267 102.755 89.62 102.968 89.5027 103.16C89.332 103.448 89.124 103.704 88.8787 103.928C88.6334 104.141 88.3614 104.328 88.0627 104.488C87.7747 104.637 87.4654 104.755 87.1347 104.84C86.8147 104.925 86.4947 104.973 86.1747 104.984C85.6094 105.005 85.0707 104.925 84.5587 104.744C84.0574 104.552 83.5934 104.253 83.1667 103.848C82.8467 103.539 82.5907 103.208 82.3987 102.856C82.2067 102.504 82.0574 102.136 81.9507 101.752C81.844 101.357 81.7747 100.952 81.7427 100.536C81.7214 100.12 81.7107 99.6933 81.7107 99.256C81.7107 99.0533 81.7054 98.8027 81.6947 98.504C81.6947 98.1947 81.6947 97.88 81.6947 97.56C81.6947 97.2293 81.6947 96.9093 81.6947 96.6C81.6947 96.2907 81.7 96.0293 81.7107 95.816C81.7107 95.6773 81.7107 95.528 81.7107 95.368C81.7107 95.1973 81.716 95.032 81.7267 94.872C81.748 94.7013 81.78 94.5413 81.8227 94.392C81.8654 94.232 81.9294 94.088 82.0147 93.96C82.1107 93.8213 82.244 93.72 82.4147 93.656C82.5854 93.592 82.7614 93.56 82.9427 93.56C83.1347 93.56 83.316 93.5973 83.4867 93.672C83.6574 93.7467 83.796 93.8533 83.9027 93.992C83.956 94.0773 83.9934 94.1627 84.0147 94.248C84.036 94.3333 84.052 94.4293 84.0627 94.536C84.084 94.888 84.0947 95.288 84.0947 95.736C84.1054 96.184 84.1054 96.6213 84.0947 97.048C84.0947 97.464 84.0894 97.848 84.0787 98.2C84.068 98.552 84.0627 98.8133 84.0627 98.984C84.0627 99.624 84.0947 100.205 84.1587 100.728C84.2227 101.24 84.372 101.667 84.6067 102.008C84.82 102.317 85.0707 102.515 85.3587 102.6C85.6467 102.685 85.9347 102.712 86.2227 102.68C86.4894 102.648 86.756 102.552 87.0227 102.392C87.3 102.221 87.5187 101.976 87.6787 101.656C87.7427 101.539 87.796 101.405 87.8387 101.256C87.8814 101.107 87.9134 100.968 87.9347 100.84C87.9774 100.435 88.0147 99.9653 88.0467 99.432C88.0787 98.888 88.1054 98.3333 88.1267 97.768C88.148 97.2027 88.1587 96.648 88.1587 96.104C88.1587 95.56 88.1534 95.0693 88.1427 94.632C88.164 94.44 88.2227 94.264 88.3187 94.104C88.404 93.9653 88.5267 93.8427 88.6867 93.736C88.8467 93.6293 89.0654 93.576 89.3427 93.576C89.5667 93.5867 89.748 93.6453 89.8867 93.752C90.0254 93.848 90.1374 93.9547 90.2227 94.072C90.3187 94.2107 90.388 94.3707 90.4307 94.552ZM100.091 104.296C100.102 104.403 100.091 104.504 100.059 104.6C100.038 104.664 100.006 104.717 99.9633 104.76C99.9313 104.803 99.8886 104.845 99.8353 104.888C99.7393 104.952 99.622 105.011 99.4833 105.064C99.398 105.085 99.3126 105.101 99.2273 105.112C99.1526 105.133 99.0726 105.133 98.9873 105.112C98.8166 105.101 98.6673 105.037 98.5393 104.92C98.358 104.771 98.2086 104.605 98.0913 104.424C98.038 104.339 97.9793 104.243 97.9153 104.136C97.8513 104.029 97.7926 103.917 97.7393 103.8L95.9633 100.424C95.878 100.424 95.7926 100.429 95.7073 100.44C95.622 100.44 95.5366 100.445 95.4513 100.456C95.2273 100.477 95.014 100.483 94.8113 100.472C94.6193 100.461 94.4166 100.461 94.2033 100.472H93.8993V103.368C93.8993 103.453 93.894 103.533 93.8833 103.608C93.8833 103.683 93.8833 103.763 93.8833 103.848C93.8833 103.901 93.878 103.971 93.8673 104.056C93.8673 104.141 93.862 104.221 93.8513 104.296C93.83 104.413 93.782 104.536 93.7073 104.664C93.6326 104.781 93.5313 104.883 93.4033 104.968C93.1793 105.107 92.9073 105.144 92.5873 105.08C92.4486 105.048 92.3153 104.995 92.1873 104.92C92.1446 104.888 92.1073 104.851 92.0753 104.808C92.0433 104.755 92.0166 104.701 91.9953 104.648C91.974 104.595 91.9526 104.541 91.9313 104.488C91.9206 104.424 91.9046 104.365 91.8833 104.312C91.8513 104.205 91.8353 104.104 91.8353 104.008V94.92C91.8353 94.856 91.8353 94.792 91.8353 94.728C91.846 94.6533 91.8566 94.5893 91.8673 94.536C91.878 94.4187 91.9153 94.3013 91.9793 94.184C92.0113 94.056 92.0646 93.9653 92.1393 93.912C92.2033 93.848 92.2993 93.7947 92.4273 93.752C92.566 93.6987 92.7633 93.6773 93.0193 93.688C93.4993 93.6987 93.974 93.704 94.4433 93.704C94.9126 93.704 95.382 93.7147 95.8513 93.736C96.1606 93.7573 96.486 93.7947 96.8273 93.848C97.1793 93.8907 97.5046 93.9707 97.8033 94.088C97.9953 94.1627 98.1713 94.2373 98.3313 94.312C98.534 94.4293 98.694 94.5413 98.8113 94.648C99.1846 94.9893 99.4673 95.4 99.6593 95.88C99.8513 96.36 99.9473 96.8453 99.9473 97.336C99.9473 97.912 99.8086 98.44 99.5313 98.92C99.2646 99.4 98.8326 99.7573 98.2353 99.992C98.214 100.013 98.182 100.029 98.1393 100.04C98.1073 100.04 98.0806 100.045 98.0593 100.056L99.5313 103.016L99.6753 103.272C99.6966 103.315 99.7233 103.363 99.7553 103.416C99.7873 103.469 99.814 103.523 99.8353 103.576C99.8673 103.629 99.894 103.688 99.9153 103.752C99.9473 103.816 99.9793 103.875 100.011 103.928C100.043 104.077 100.07 104.2 100.091 104.296ZM96.0913 98.6C96.2833 98.6 96.4646 98.568 96.6353 98.504C96.8166 98.4293 96.9766 98.3333 97.1153 98.216C97.2646 98.0987 97.3873 97.9653 97.4833 97.816C97.5793 97.656 97.6326 97.4853 97.6433 97.304C97.686 96.7707 97.5473 96.376 97.2273 96.12C96.9073 95.8533 96.486 95.7093 95.9633 95.688C95.654 95.6667 95.3126 95.656 94.9393 95.656C94.5766 95.656 94.23 95.656 93.8993 95.656C93.91 96.0933 93.91 96.5413 93.8993 97C93.8993 97.448 93.8993 97.9813 93.8993 98.6H96.0913Z" fill="white"/>
</g>
<defs>
<clipPath id="clip0">
<rect width="111" height="115" fill="white"/>
</clipPath>
</defs>
</svg>
