<svg width="94" height="125" viewBox="0 0 94 125" fill="none" xmlns="http://www.w3.org/2000/svg">
<g clip-path="url(#clip0)">
<path d="M37.5835 87.0835C41.4035 87.0835 44.5002 83.539 44.5002 79.1667C44.5002 74.7944 41.4035 71.25 37.5835 71.25C33.7635 71.25 30.6667 74.7944 30.6667 79.1667C30.6667 83.539 33.7635 87.0835 37.5835 87.0835Z" fill="#FAFAFA"/>
<path d="M79.0833 83.125V79.1667C79.0833 76.9847 77.5314 75.2085 75.625 75.2085V23.75C75.625 10.6535 66.3172 0 54.875 0C43.4328 0 34.125 10.6535 34.125 23.75V43.5417H32.3958C20.0012 43.5417 9.91656 55.0842 9.91656 69.271V75.2085H4.72906C3.77342 75.2083 3 76.0935 3 77.1875V85.1042C3 86.1982 3.77342 87.0835 4.72922 87.0835H9.91672C9.91672 91.4496 13.0187 95.0002 16.8334 95.0002H37.5834C45.211 95.0002 51.4167 87.8973 51.4167 79.1669C51.4167 73.3331 48.6147 68.2829 44.5 65.5363V23.75C44.5 17.2017 49.1538 11.875 54.875 11.875C60.5962 11.875 65.25 17.2017 65.25 23.75V75.2083C63.3436 75.2083 61.7917 76.9845 61.7917 79.1665V83.125C57.977 83.125 54.875 86.6754 54.875 91.0417V93.021C54.875 94.1149 55.6484 95.0002 56.6042 95.0002H84.2709C85.2267 95.0002 86.0002 94.1149 86.0002 93.021V91.0417C86 86.6754 82.898 83.125 79.0833 83.125ZM47.9583 79.1667C47.9583 85.715 43.3044 91.0417 37.5833 91.0417C31.8621 91.0417 27.2083 85.715 27.2083 79.1667C27.2083 72.6184 31.8621 67.2917 37.5833 67.2917C43.3044 67.2917 47.9583 72.6184 47.9583 79.1667Z" fill="#FAFAFA"/>
</g>
<path d="M11.2698 112.912C11.2805 112.976 11.2858 113.04 11.2858 113.104C11.2965 113.157 11.3018 113.221 11.3018 113.296C11.3018 113.424 11.2645 113.541 11.1898 113.648C11.1578 113.701 11.1151 113.755 11.0618 113.808C11.0085 113.851 10.9445 113.888 10.8698 113.92C10.6031 114.069 10.3205 114.123 10.0218 114.08C9.87248 114.037 9.73915 113.968 9.62181 113.872C9.60048 113.851 9.58448 113.84 9.57381 113.84C9.56315 113.829 9.55248 113.813 9.54181 113.792C9.53115 113.781 9.52048 113.771 9.50981 113.76C9.49915 113.739 9.48315 113.723 9.46181 113.712C9.40848 113.659 9.36581 113.611 9.33381 113.568C9.30181 113.515 9.26981 113.461 9.23781 113.408C9.21648 113.355 9.18981 113.307 9.15781 113.264C9.13648 113.211 9.10981 113.157 9.07781 113.104C9.05648 113.061 9.03515 113.024 9.01381 112.992C8.99248 112.949 8.97648 112.907 8.96581 112.864C8.92315 112.768 8.89648 112.683 8.88581 112.608L8.54981 111.824C7.81381 111.824 7.07781 111.829 6.34181 111.84C5.61648 111.84 4.88581 111.835 4.14981 111.824L3.81381 112.608C3.79248 112.651 3.77648 112.693 3.76581 112.736C3.76581 112.779 3.75515 112.821 3.73381 112.864C3.71248 112.907 3.69115 112.949 3.66981 112.992C3.65915 113.024 3.64315 113.061 3.62181 113.104C3.58981 113.157 3.55781 113.211 3.52581 113.264C3.50448 113.307 3.47781 113.355 3.44581 113.408C3.42448 113.461 3.39781 113.515 3.36581 113.568C3.33381 113.611 3.29115 113.659 3.23781 113.712C3.21648 113.723 3.20048 113.739 3.18981 113.76C3.17915 113.771 3.16848 113.781 3.15781 113.792C3.14715 113.813 3.13648 113.829 3.12581 113.84C3.11515 113.84 3.09915 113.851 3.07781 113.872C2.96048 113.968 2.82715 114.037 2.67781 114.08C2.37915 114.123 2.09648 114.069 1.82981 113.92C1.75515 113.888 1.69115 113.851 1.63781 113.808C1.58448 113.755 1.54181 113.701 1.50981 113.648C1.43515 113.541 1.39781 113.424 1.39781 113.296C1.39781 113.221 1.39781 113.157 1.39781 113.104C1.40848 113.04 1.41915 112.976 1.42981 112.912C1.45115 112.816 1.47781 112.72 1.50981 112.624C1.54181 112.528 1.55781 112.48 1.55781 112.48L4.88581 104.288L4.98181 104.032C5.00315 103.968 5.02981 103.909 5.06181 103.856C5.09381 103.803 5.12048 103.739 5.14181 103.664C5.19515 103.525 5.25381 103.403 5.31781 103.296C5.34981 103.232 5.38715 103.173 5.42981 103.12C5.47248 103.067 5.51515 103.013 5.55781 102.96C5.62181 102.875 5.71248 102.805 5.82981 102.752C5.97915 102.699 6.14981 102.672 6.34181 102.672C6.54448 102.672 6.72048 102.699 6.86981 102.752C6.98715 102.805 7.07781 102.875 7.14181 102.96C7.21648 103.056 7.29648 103.168 7.38181 103.296C7.44581 103.403 7.50448 103.525 7.55781 103.664C7.57915 103.739 7.60581 103.803 7.63781 103.856C7.66981 103.909 7.69648 103.968 7.71781 104.032L7.81381 104.288L11.1418 112.48C11.1418 112.48 11.1578 112.528 11.1898 112.624C11.2218 112.72 11.2485 112.816 11.2698 112.912ZM7.47781 108.992C7.33915 108.683 7.19515 108.363 7.04581 108.032C6.90715 107.701 6.75781 107.365 6.59781 107.024C6.55515 106.928 6.51248 106.832 6.46981 106.736C6.42715 106.629 6.38448 106.528 6.34181 106.432C6.30981 106.528 6.27248 106.629 6.22981 106.736C6.18715 106.832 6.14448 106.928 6.10181 107.024C5.94181 107.365 5.78715 107.701 5.63781 108.032C5.49915 108.363 5.36048 108.683 5.22181 108.992L4.93381 109.696H7.76581L7.47781 108.992ZM20.8733 109.344C20.9266 109.493 20.964 109.664 20.9853 109.856C21.0173 110.037 21.0333 110.224 21.0333 110.416C21.0333 110.608 21.0173 110.8 20.9853 110.992C20.964 111.173 20.932 111.333 20.8893 111.472C20.7186 112.069 20.3773 112.571 19.8653 112.976C19.3533 113.371 18.7666 113.659 18.1053 113.84C17.4546 114.021 16.7773 114.085 16.0733 114.032C15.38 113.979 14.7613 113.803 14.2173 113.504C13.876 113.312 13.5826 113.077 13.3373 112.8C13.092 112.523 12.884 112.213 12.7133 111.872C12.6493 111.755 12.6066 111.621 12.5853 111.472C12.5746 111.312 12.5906 111.163 12.6333 111.024C12.676 110.875 12.7453 110.747 12.8413 110.64C12.9373 110.523 13.0706 110.443 13.2413 110.4C13.348 110.379 13.4653 110.368 13.5933 110.368C13.732 110.368 13.8653 110.389 13.9933 110.432C14.1213 110.464 14.2386 110.523 14.3453 110.608C14.452 110.683 14.5373 110.789 14.6013 110.928C14.7186 111.152 14.884 111.36 15.0973 111.552C15.3213 111.733 15.556 111.883 15.8013 112C16.1533 112.117 16.5053 112.165 16.8573 112.144C17.22 112.123 17.5453 112.043 17.8333 111.904C18.132 111.765 18.372 111.579 18.5533 111.344C18.7346 111.099 18.8253 110.821 18.8253 110.512C18.8253 110.256 18.788 110.048 18.7133 109.888C18.6386 109.717 18.532 109.579 18.3933 109.472C18.2653 109.355 18.1053 109.259 17.9133 109.184C17.732 109.109 17.5293 109.045 17.3053 108.992C17.0493 108.939 16.788 108.901 16.5213 108.88C16.2653 108.859 16.004 108.832 15.7373 108.8C15.4706 108.768 15.2093 108.725 14.9533 108.672C14.6973 108.619 14.4466 108.539 14.2013 108.432C13.7106 108.229 13.3373 107.92 13.0813 107.504C12.8253 107.088 12.6706 106.64 12.6173 106.16C12.5746 105.68 12.6333 105.205 12.7933 104.736C12.9533 104.256 13.2093 103.845 13.5613 103.504C13.9026 103.195 14.308 102.976 14.7773 102.848C15.2573 102.709 15.7853 102.629 16.3613 102.608C16.6813 102.597 17.0013 102.608 17.3213 102.64C17.652 102.672 17.9666 102.725 18.2653 102.8C18.5746 102.875 18.8573 102.971 19.1133 103.088C19.38 103.205 19.6093 103.344 19.8013 103.504C19.94 103.611 20.0786 103.755 20.2173 103.936C20.356 104.107 20.4626 104.293 20.5373 104.496C20.612 104.688 20.6333 104.875 20.6013 105.056C20.58 105.237 20.468 105.392 20.2653 105.52C20.0946 105.627 19.9293 105.675 19.7693 105.664C19.62 105.643 19.476 105.595 19.3373 105.52C19.1986 105.435 19.0653 105.339 18.9373 105.232C18.8093 105.125 18.692 105.029 18.5853 104.944C18.2973 104.731 17.94 104.587 17.5133 104.512C17.0866 104.437 16.6866 104.421 16.3133 104.464C16.0786 104.496 15.86 104.549 15.6573 104.624C15.4546 104.699 15.2786 104.8 15.1293 104.928C14.9906 105.056 14.8786 105.216 14.7933 105.408C14.7186 105.589 14.692 105.797 14.7133 106.032C14.724 106.203 14.772 106.347 14.8573 106.464C14.9533 106.581 15.0653 106.677 15.1933 106.752C15.332 106.827 15.4813 106.885 15.6413 106.928C15.8013 106.971 15.9613 107.003 16.1213 107.024C16.6013 107.088 17.0813 107.136 17.5613 107.168C18.0413 107.2 18.5106 107.307 18.9693 107.488C19.4386 107.669 19.8386 107.915 20.1693 108.224C20.5 108.533 20.7346 108.907 20.8733 109.344ZM29.5602 103.68C29.9655 104.053 30.2642 104.501 30.4562 105.024C30.6482 105.536 30.7229 106.048 30.6802 106.56C30.6375 107.051 30.4829 107.504 30.2162 107.92C29.9495 108.325 29.5442 108.635 29.0002 108.848C28.5735 109.029 28.1522 109.157 27.7362 109.232C27.3202 109.307 26.8615 109.365 26.3602 109.408C26.1362 109.429 25.9442 109.445 25.7842 109.456C25.6349 109.456 25.4589 109.461 25.2562 109.472C25.2135 109.472 25.1389 109.472 25.0322 109.472C24.9362 109.472 24.8669 109.477 24.8242 109.488V112.8C24.7922 113.003 24.7495 113.211 24.6962 113.424C24.6535 113.637 24.5309 113.803 24.3282 113.92C24.2109 113.984 24.0669 114.021 23.8962 114.032C23.7255 114.043 23.5709 114.037 23.4322 114.016C23.2829 113.995 23.1549 113.957 23.0482 113.904C22.9522 113.84 22.8722 113.733 22.8082 113.584C22.7655 113.488 22.7229 113.381 22.6802 113.264C22.6482 113.136 22.6322 112.981 22.6322 112.8V103.952C22.6322 103.877 22.6375 103.808 22.6482 103.744C22.6589 103.68 22.6695 103.616 22.6802 103.552C22.7015 103.499 22.7175 103.44 22.7282 103.376C22.7389 103.312 22.7549 103.253 22.7762 103.2C22.7975 103.147 22.8189 103.099 22.8402 103.056C22.8722 103.013 22.9095 102.976 22.9522 102.944C23.0055 102.891 23.0855 102.843 23.1922 102.8C23.3095 102.757 23.4802 102.736 23.7042 102.736H23.7362C24.0669 102.715 24.4349 102.699 24.8402 102.688C25.2455 102.667 25.5815 102.672 25.8482 102.704C25.9975 102.725 26.1362 102.741 26.2642 102.752C26.3922 102.752 26.5149 102.757 26.6322 102.768C26.7602 102.779 26.8882 102.789 27.0162 102.8C27.1442 102.811 27.2722 102.827 27.4002 102.848C27.5069 102.869 27.6029 102.885 27.6882 102.896C27.7842 102.907 27.8802 102.923 27.9762 102.944C28.0615 102.965 28.1522 102.987 28.2482 103.008C28.3549 103.029 28.4509 103.067 28.5362 103.12C28.7602 103.184 28.9469 103.264 29.0962 103.36C29.2455 103.456 29.4002 103.563 29.5602 103.68ZM28.6002 106.32C28.6109 106.064 28.5575 105.84 28.4402 105.648C28.3335 105.456 28.1789 105.296 27.9762 105.168C27.7735 105.04 27.5442 104.939 27.2882 104.864C27.0322 104.789 26.7762 104.736 26.5202 104.704C26.4562 104.704 26.3655 104.704 26.2482 104.704C26.1415 104.693 26.0242 104.688 25.8962 104.688C25.7682 104.677 25.6455 104.672 25.5282 104.672C25.4215 104.661 25.3362 104.656 25.2722 104.656C25.2189 104.645 25.1549 104.64 25.0802 104.64C25.0055 104.64 24.9202 104.64 24.8242 104.64C24.8349 104.971 24.8402 105.291 24.8402 105.6C24.8402 105.899 24.8402 106.224 24.8402 106.576C24.8295 106.768 24.8242 106.96 24.8242 107.152C24.8242 107.344 24.8242 107.531 24.8242 107.712L25.8162 107.696C26.0722 107.696 26.3549 107.68 26.6642 107.648C26.9735 107.616 27.2669 107.552 27.5442 107.456C27.8215 107.36 28.0562 107.221 28.2482 107.04C28.4509 106.859 28.5682 106.619 28.6002 106.32ZM32.4876 112.304L32.5036 111.04L32.5196 108.688C32.5302 108.347 32.5356 107.995 32.5356 107.632C32.5356 107.269 32.5356 106.896 32.5356 106.512C32.5356 106.128 32.5356 105.787 32.5356 105.488C32.5356 105.189 32.5462 104.853 32.5676 104.48V104.416C32.5782 104.309 32.5836 104.203 32.5836 104.096C32.5942 103.979 32.5996 103.861 32.5996 103.744C32.6102 103.552 32.6689 103.344 32.7756 103.12C32.8502 102.971 32.9622 102.843 33.1116 102.736C33.2822 102.651 33.4476 102.608 33.6076 102.608C33.6929 102.608 33.7676 102.613 33.8316 102.624C33.9062 102.624 33.9756 102.629 34.0396 102.64C34.1782 102.661 34.3009 102.725 34.4076 102.832C34.4716 102.885 34.5302 102.971 34.5836 103.088C34.6049 103.152 34.6209 103.216 34.6316 103.28C34.6529 103.333 34.6689 103.392 34.6796 103.456C34.6902 103.531 34.6956 103.6 34.6956 103.664C34.7062 103.728 34.7116 103.792 34.7116 103.856C34.7116 103.931 34.7062 104 34.6956 104.064C34.6956 104.117 34.6956 104.176 34.6956 104.24V104.512L34.5996 112.816V112.976C34.5996 113.008 34.5942 113.051 34.5836 113.104C34.5836 113.147 34.5782 113.2 34.5676 113.264C34.5462 113.317 34.5249 113.376 34.5036 113.44C34.4929 113.493 34.4769 113.552 34.4556 113.616C34.4236 113.669 34.3862 113.723 34.3436 113.776C34.3116 113.819 34.2689 113.861 34.2156 113.904C34.1302 113.989 33.9916 114.048 33.7996 114.08C33.5116 114.144 33.2396 114.117 32.9836 114C32.8556 113.915 32.7649 113.808 32.7116 113.68C32.6796 113.648 32.6636 113.616 32.6636 113.584C32.6529 113.563 32.6422 113.547 32.6316 113.536C32.6209 113.525 32.6102 113.509 32.5996 113.488C32.5782 113.435 32.5622 113.381 32.5516 113.328C32.5409 113.264 32.5356 113.2 32.5356 113.136C32.5249 113.083 32.5142 113.029 32.5036 112.976C32.5036 112.923 32.4982 112.869 32.4876 112.816C32.4769 112.731 32.4769 112.64 32.4876 112.544V112.304ZM44.7319 113.296C44.7426 113.403 44.7319 113.504 44.6999 113.6C44.6786 113.664 44.6466 113.717 44.6039 113.76C44.5719 113.803 44.5293 113.845 44.4759 113.888C44.3799 113.952 44.2626 114.011 44.1239 114.064C44.0386 114.085 43.9533 114.101 43.8679 114.112C43.7933 114.133 43.7133 114.133 43.6279 114.112C43.4573 114.101 43.3079 114.037 43.1799 113.92C42.9986 113.771 42.8493 113.605 42.7319 113.424C42.6786 113.339 42.6199 113.243 42.5559 113.136C42.4919 113.029 42.4333 112.917 42.3799 112.8L40.6039 109.424C40.5186 109.424 40.4333 109.429 40.3479 109.44C40.2626 109.44 40.1773 109.445 40.0919 109.456C39.8679 109.477 39.6546 109.483 39.4519 109.472C39.2599 109.461 39.0573 109.461 38.8439 109.472H38.5399V112.368C38.5399 112.453 38.5346 112.533 38.5239 112.608C38.5239 112.683 38.5239 112.763 38.5239 112.848C38.5239 112.901 38.5186 112.971 38.5079 113.056C38.5079 113.141 38.5026 113.221 38.4919 113.296C38.4706 113.413 38.4226 113.536 38.3479 113.664C38.2733 113.781 38.1719 113.883 38.0439 113.968C37.8199 114.107 37.5479 114.144 37.2279 114.08C37.0893 114.048 36.9559 113.995 36.8279 113.92C36.7853 113.888 36.7479 113.851 36.7159 113.808C36.6839 113.755 36.6573 113.701 36.6359 113.648C36.6146 113.595 36.5933 113.541 36.5719 113.488C36.5613 113.424 36.5453 113.365 36.5239 113.312C36.4919 113.205 36.4759 113.104 36.4759 113.008V103.92C36.4759 103.856 36.4759 103.792 36.4759 103.728C36.4866 103.653 36.4973 103.589 36.5079 103.536C36.5186 103.419 36.5559 103.301 36.6199 103.184C36.6519 103.056 36.7053 102.965 36.7799 102.912C36.8439 102.848 36.9399 102.795 37.0679 102.752C37.2066 102.699 37.4039 102.677 37.6599 102.688C38.1399 102.699 38.6146 102.704 39.0839 102.704C39.5533 102.704 40.0226 102.715 40.4919 102.736C40.8013 102.757 41.1266 102.795 41.4679 102.848C41.8199 102.891 42.1453 102.971 42.4439 103.088C42.6359 103.163 42.8119 103.237 42.9719 103.312C43.1746 103.429 43.3346 103.541 43.4519 103.648C43.8253 103.989 44.1079 104.4 44.2999 104.88C44.4919 105.36 44.5879 105.845 44.5879 106.336C44.5879 106.912 44.4493 107.44 44.1719 107.92C43.9053 108.4 43.4733 108.757 42.8759 108.992C42.8546 109.013 42.8226 109.029 42.7799 109.04C42.7479 109.04 42.7213 109.045 42.6999 109.056L44.1719 112.016L44.3159 112.272C44.3373 112.315 44.3639 112.363 44.3959 112.416C44.4279 112.469 44.4546 112.523 44.4759 112.576C44.5079 112.629 44.5346 112.688 44.5559 112.752C44.5879 112.816 44.6199 112.875 44.6519 112.928C44.6839 113.077 44.7106 113.2 44.7319 113.296ZM40.7319 107.6C40.9239 107.6 41.1053 107.568 41.2759 107.504C41.4573 107.429 41.6173 107.333 41.7559 107.216C41.9053 107.099 42.0279 106.965 42.1239 106.816C42.2199 106.656 42.2733 106.485 42.2839 106.304C42.3266 105.771 42.1879 105.376 41.8679 105.12C41.5479 104.853 41.1266 104.709 40.6039 104.688C40.2946 104.667 39.9533 104.656 39.5799 104.656C39.2173 104.656 38.8706 104.656 38.5399 104.656C38.5506 105.093 38.5506 105.541 38.5399 106C38.5399 106.448 38.5399 106.981 38.5399 107.6H40.7319ZM55.8948 112.912C55.9055 112.976 55.9108 113.04 55.9108 113.104C55.9215 113.157 55.9268 113.221 55.9268 113.296C55.9268 113.424 55.8895 113.541 55.8148 113.648C55.7828 113.701 55.7401 113.755 55.6868 113.808C55.6335 113.851 55.5695 113.888 55.4948 113.92C55.2281 114.069 54.9455 114.123 54.6468 114.08C54.4975 114.037 54.3641 113.968 54.2468 113.872C54.2255 113.851 54.2095 113.84 54.1988 113.84C54.1881 113.829 54.1775 113.813 54.1668 113.792C54.1561 113.781 54.1455 113.771 54.1348 113.76C54.1241 113.739 54.1081 113.723 54.0868 113.712C54.0335 113.659 53.9908 113.611 53.9588 113.568C53.9268 113.515 53.8948 113.461 53.8628 113.408C53.8415 113.355 53.8148 113.307 53.7828 113.264C53.7615 113.211 53.7348 113.157 53.7028 113.104C53.6815 113.061 53.6601 113.024 53.6388 112.992C53.6175 112.949 53.6015 112.907 53.5908 112.864C53.5481 112.768 53.5215 112.683 53.5108 112.608L53.1748 111.824C52.4388 111.824 51.7028 111.829 50.9668 111.84C50.2415 111.84 49.5108 111.835 48.7748 111.824L48.4388 112.608C48.4175 112.651 48.4015 112.693 48.3908 112.736C48.3908 112.779 48.3801 112.821 48.3588 112.864C48.3375 112.907 48.3161 112.949 48.2948 112.992C48.2841 113.024 48.2681 113.061 48.2468 113.104C48.2148 113.157 48.1828 113.211 48.1508 113.264C48.1295 113.307 48.1028 113.355 48.0708 113.408C48.0495 113.461 48.0228 113.515 47.9908 113.568C47.9588 113.611 47.9161 113.659 47.8628 113.712C47.8415 113.723 47.8255 113.739 47.8148 113.76C47.8041 113.771 47.7935 113.781 47.7828 113.792C47.7721 113.813 47.7615 113.829 47.7508 113.84C47.7401 113.84 47.7241 113.851 47.7028 113.872C47.5855 113.968 47.4521 114.037 47.3028 114.08C47.0041 114.123 46.7215 114.069 46.4548 113.92C46.3801 113.888 46.3161 113.851 46.2628 113.808C46.2095 113.755 46.1668 113.701 46.1348 113.648C46.0601 113.541 46.0228 113.424 46.0228 113.296C46.0228 113.221 46.0228 113.157 46.0228 113.104C46.0335 113.04 46.0441 112.976 46.0548 112.912C46.0761 112.816 46.1028 112.72 46.1348 112.624C46.1668 112.528 46.1828 112.48 46.1828 112.48L49.5108 104.288L49.6068 104.032C49.6281 103.968 49.6548 103.909 49.6868 103.856C49.7188 103.803 49.7455 103.739 49.7668 103.664C49.8201 103.525 49.8788 103.403 49.9428 103.296C49.9748 103.232 50.0121 103.173 50.0548 103.12C50.0975 103.067 50.1401 103.013 50.1828 102.96C50.2468 102.875 50.3375 102.805 50.4548 102.752C50.6041 102.699 50.7748 102.672 50.9668 102.672C51.1695 102.672 51.3455 102.699 51.4948 102.752C51.6121 102.805 51.7028 102.875 51.7668 102.96C51.8415 103.056 51.9215 103.168 52.0068 103.296C52.0708 103.403 52.1295 103.525 52.1828 103.664C52.2041 103.739 52.2308 103.803 52.2628 103.856C52.2948 103.909 52.3215 103.968 52.3428 104.032L52.4388 104.288L55.7668 112.48C55.7668 112.48 55.7828 112.528 55.8148 112.624C55.8468 112.72 55.8735 112.816 55.8948 112.912ZM52.1028 108.992C51.9641 108.683 51.8201 108.363 51.6708 108.032C51.5321 107.701 51.3828 107.365 51.2228 107.024C51.1801 106.928 51.1375 106.832 51.0948 106.736C51.0521 106.629 51.0095 106.528 50.9668 106.432C50.9348 106.528 50.8975 106.629 50.8548 106.736C50.8121 106.832 50.7695 106.928 50.7268 107.024C50.5668 107.365 50.4121 107.701 50.2628 108.032C50.1241 108.363 49.9855 108.683 49.8468 108.992L49.5588 109.696H52.3908L52.1028 108.992ZM63.9642 103.168C64.0815 103.307 64.1402 103.451 64.1402 103.6C64.1402 103.664 64.1349 103.733 64.1242 103.808C64.1242 103.872 64.1189 103.931 64.1082 103.984C64.0762 104.101 64.0069 104.213 63.9002 104.32C63.8149 104.384 63.6975 104.432 63.5482 104.464C63.4735 104.485 63.3989 104.501 63.3242 104.512C63.2495 104.523 63.1695 104.539 63.0842 104.56C63.0095 104.571 62.9349 104.576 62.8602 104.576C62.7855 104.576 62.7055 104.576 62.6202 104.576H61.8042C61.6122 104.587 61.4202 104.592 61.2282 104.592C61.0469 104.592 60.8655 104.592 60.6842 104.592C60.6949 104.923 60.7002 105.28 60.7002 105.664C60.7002 106.037 60.6949 106.475 60.6842 106.976C60.6842 107.477 60.6789 108.059 60.6682 108.72C60.6682 109.381 60.6682 110.149 60.6682 111.024V112.24C60.6682 112.347 60.6735 112.427 60.6842 112.48C60.6842 112.523 60.6842 112.565 60.6842 112.608C60.6842 112.64 60.6789 112.683 60.6682 112.736C60.6469 112.832 60.6309 112.944 60.6202 113.072C60.6202 113.125 60.6149 113.179 60.6042 113.232C60.5935 113.275 60.5775 113.323 60.5562 113.376C60.5135 113.419 60.4922 113.451 60.4922 113.472L60.4442 113.568C60.3909 113.675 60.2895 113.776 60.1402 113.872C59.9055 113.989 59.6442 114.016 59.3562 113.952C59.1749 113.931 59.0362 113.883 58.9402 113.808C58.8442 113.712 58.7749 113.616 58.7322 113.52C58.6682 113.403 58.6309 113.291 58.6202 113.184C58.5882 113.088 58.5722 112.987 58.5722 112.88V104.656C58.5082 104.656 58.3749 104.656 58.1722 104.656C57.9695 104.656 57.7509 104.656 57.5162 104.656C57.2922 104.645 57.0789 104.635 56.8762 104.624C56.6735 104.613 56.5349 104.603 56.4602 104.592C56.3962 104.581 56.2949 104.565 56.1562 104.544C56.0282 104.523 55.9215 104.501 55.8362 104.48C55.6122 104.416 55.4362 104.315 55.3082 104.176C55.1909 104.037 55.1322 103.883 55.1322 103.712C55.1322 103.648 55.1322 103.584 55.1322 103.52C55.1322 103.456 55.1429 103.397 55.1642 103.344C55.1962 103.216 55.2815 103.109 55.4202 103.024C55.4629 102.992 55.5269 102.955 55.6122 102.912C55.7082 102.859 55.7989 102.821 55.8842 102.8C56.0122 102.757 56.1722 102.725 56.3642 102.704C56.4495 102.693 56.5349 102.688 56.6202 102.688C56.7055 102.688 56.7962 102.688 56.8922 102.688C57.2655 102.688 57.6175 102.688 57.9482 102.688C58.2895 102.688 58.6469 102.683 59.0202 102.672C59.6389 102.661 60.2522 102.661 60.8602 102.672C61.4789 102.672 62.0922 102.683 62.7002 102.704C62.8389 102.715 62.9722 102.731 63.1002 102.752C63.2282 102.773 63.3562 102.811 63.4842 102.864C63.5802 102.896 63.6709 102.939 63.7562 102.992C63.8415 103.035 63.9109 103.093 63.9642 103.168ZM67.6054 104.592L67.5734 107.104H68.2134C68.6508 107.093 69.0401 107.088 69.3814 107.088C69.7228 107.088 70.1014 107.093 70.5174 107.104H70.5974C70.7254 107.104 70.8481 107.109 70.9654 107.12C71.0934 107.12 71.2161 107.12 71.3334 107.12C71.4614 107.131 71.5841 107.152 71.7014 107.184C71.8188 107.205 71.9361 107.232 72.0534 107.264C72.2348 107.328 72.3841 107.424 72.5014 107.552C72.6081 107.691 72.6614 107.845 72.6614 108.016C72.6614 108.069 72.6614 108.133 72.6614 108.208C72.6614 108.272 72.6508 108.331 72.6294 108.384C72.6081 108.501 72.5388 108.608 72.4214 108.704C72.3681 108.779 72.2668 108.832 72.1174 108.864C71.9788 108.907 71.8401 108.933 71.7014 108.944C71.5521 108.976 71.4028 108.992 71.2534 108.992H70.5014L67.5414 109.008L67.5094 112.144L70.6934 112.176H71.4454C71.5308 112.176 71.6108 112.176 71.6854 112.176C71.7601 112.176 71.8294 112.181 71.8934 112.192C71.9788 112.213 72.0534 112.229 72.1174 112.24C72.1921 112.24 72.2614 112.251 72.3254 112.272C72.4534 112.315 72.5601 112.373 72.6454 112.448C72.7521 112.555 72.8214 112.667 72.8534 112.784C72.8641 112.837 72.8694 112.896 72.8694 112.96C72.8801 113.013 72.8801 113.072 72.8694 113.136C72.8694 113.307 72.8161 113.461 72.7094 113.6C72.5814 113.749 72.4321 113.845 72.2614 113.888C72.0374 113.984 71.7921 114.032 71.5254 114.032C71.4081 114.043 71.2854 114.048 71.1574 114.048C71.0294 114.048 70.9068 114.053 70.7894 114.064H70.6934C69.8614 114.085 68.9974 114.085 68.1014 114.064C67.8881 114.064 67.7174 114.059 67.5894 114.048C67.4614 114.048 67.3441 114.048 67.2374 114.048C67.1414 114.048 67.0401 114.048 66.9334 114.048C66.8268 114.048 66.6881 114.048 66.5174 114.048C66.2721 114.069 66.0694 114.027 65.9094 113.92C65.7921 113.845 65.7014 113.744 65.6374 113.616C65.6054 113.584 65.5894 113.552 65.5894 113.52C65.5788 113.499 65.5681 113.483 65.5574 113.472C65.5468 113.461 65.5361 113.445 65.5254 113.424C65.5041 113.371 65.4881 113.317 65.4774 113.264C65.4668 113.2 65.4614 113.141 65.4614 113.088C65.4508 113.035 65.4401 112.981 65.4294 112.928C65.4294 112.875 65.4241 112.821 65.4134 112.768V112.512C65.4134 112.469 65.4134 112.427 65.4134 112.384C65.4241 112.341 65.4294 112.299 65.4294 112.256V111.008L65.4614 108.704V106.576C65.4614 106.192 65.4614 105.851 65.4614 105.552C65.4721 105.253 65.4828 104.928 65.4934 104.576V104.496C65.5041 104.379 65.5094 104.272 65.5094 104.176C65.5201 104.069 65.5254 103.963 65.5254 103.856C65.5361 103.643 65.5948 103.435 65.7014 103.232C65.7441 103.147 65.7868 103.072 65.8294 103.008C65.8828 102.944 65.9521 102.891 66.0374 102.848C66.1974 102.752 66.3628 102.704 66.5334 102.704C66.6188 102.704 66.6828 102.709 66.7254 102.72V102.704C66.9174 102.704 67.0721 102.704 67.1894 102.704C67.3068 102.704 67.4188 102.704 67.5254 102.704C67.6428 102.704 67.7654 102.704 67.8934 102.704C68.0214 102.693 68.1974 102.688 68.4214 102.688C68.8481 102.677 69.2534 102.672 69.6374 102.672C70.0214 102.672 70.4161 102.677 70.8214 102.688H70.8854C71.0028 102.699 71.1254 102.704 71.2534 102.704C71.3814 102.704 71.5041 102.709 71.6214 102.72C71.7388 102.72 71.8561 102.736 71.9734 102.768C72.0908 102.789 72.2081 102.821 72.3254 102.864C72.5068 102.917 72.6561 103.008 72.7734 103.136C72.8694 103.285 72.9174 103.435 72.9174 103.584C72.9174 103.648 72.9174 103.712 72.9174 103.776C72.9174 103.829 72.9068 103.883 72.8854 103.936C72.8748 104.043 72.8108 104.155 72.6934 104.272C72.6508 104.293 72.6028 104.32 72.5494 104.352C72.5068 104.384 72.4534 104.411 72.3894 104.432C72.3254 104.453 72.2561 104.469 72.1814 104.48C72.1174 104.48 72.0534 104.485 71.9894 104.496C71.9041 104.517 71.8241 104.528 71.7494 104.528C71.6854 104.528 71.6108 104.528 71.5254 104.528H70.8054L67.6054 104.544V104.592ZM82.9307 103.552C82.9947 104.064 83.032 104.661 83.0427 105.344C83.0534 106.016 83.0427 106.699 83.0107 107.392C82.9894 108.075 82.9414 108.725 82.8667 109.344C82.792 109.952 82.7014 110.443 82.5947 110.816C82.52 111.04 82.4294 111.275 82.3227 111.52C82.2267 111.755 82.12 111.968 82.0027 112.16C81.832 112.448 81.624 112.704 81.3787 112.928C81.1334 113.141 80.8614 113.328 80.5627 113.488C80.2747 113.637 79.9654 113.755 79.6347 113.84C79.3147 113.925 78.9947 113.973 78.6747 113.984C78.1094 114.005 77.5707 113.925 77.0587 113.744C76.5574 113.552 76.0934 113.253 75.6667 112.848C75.3467 112.539 75.0907 112.208 74.8987 111.856C74.7067 111.504 74.5574 111.136 74.4507 110.752C74.344 110.357 74.2747 109.952 74.2427 109.536C74.2214 109.12 74.2107 108.693 74.2107 108.256C74.2107 108.053 74.2054 107.803 74.1947 107.504C74.1947 107.195 74.1947 106.88 74.1947 106.56C74.1947 106.229 74.1947 105.909 74.1947 105.6C74.1947 105.291 74.2 105.029 74.2107 104.816C74.2107 104.677 74.2107 104.528 74.2107 104.368C74.2107 104.197 74.216 104.032 74.2267 103.872C74.248 103.701 74.28 103.541 74.3227 103.392C74.3654 103.232 74.4294 103.088 74.5147 102.96C74.6107 102.821 74.744 102.72 74.9147 102.656C75.0854 102.592 75.2614 102.56 75.4427 102.56C75.6347 102.56 75.816 102.597 75.9867 102.672C76.1574 102.747 76.296 102.853 76.4027 102.992C76.456 103.077 76.4934 103.163 76.5147 103.248C76.536 103.333 76.552 103.429 76.5627 103.536C76.584 103.888 76.5947 104.288 76.5947 104.736C76.6054 105.184 76.6054 105.621 76.5947 106.048C76.5947 106.464 76.5894 106.848 76.5787 107.2C76.568 107.552 76.5627 107.813 76.5627 107.984C76.5627 108.624 76.5947 109.205 76.6587 109.728C76.7227 110.24 76.872 110.667 77.1067 111.008C77.32 111.317 77.5707 111.515 77.8587 111.6C78.1467 111.685 78.4347 111.712 78.7227 111.68C78.9894 111.648 79.256 111.552 79.5227 111.392C79.8 111.221 80.0187 110.976 80.1787 110.656C80.2427 110.539 80.296 110.405 80.3387 110.256C80.3814 110.107 80.4134 109.968 80.4347 109.84C80.4774 109.435 80.5147 108.965 80.5467 108.432C80.5787 107.888 80.6054 107.333 80.6267 106.768C80.648 106.203 80.6587 105.648 80.6587 105.104C80.6587 104.56 80.6534 104.069 80.6427 103.632C80.664 103.44 80.7227 103.264 80.8187 103.104C80.904 102.965 81.0267 102.843 81.1867 102.736C81.3467 102.629 81.5654 102.576 81.8427 102.576C82.0667 102.587 82.248 102.645 82.3867 102.752C82.5254 102.848 82.6374 102.955 82.7227 103.072C82.8187 103.211 82.888 103.371 82.9307 103.552ZM92.5913 113.296C92.602 113.403 92.5913 113.504 92.5593 113.6C92.538 113.664 92.506 113.717 92.4633 113.76C92.4313 113.803 92.3886 113.845 92.3353 113.888C92.2393 113.952 92.122 114.011 91.9833 114.064C91.898 114.085 91.8126 114.101 91.7273 114.112C91.6526 114.133 91.5726 114.133 91.4873 114.112C91.3166 114.101 91.1673 114.037 91.0393 113.92C90.858 113.771 90.7086 113.605 90.5913 113.424C90.538 113.339 90.4793 113.243 90.4153 113.136C90.3513 113.029 90.2926 112.917 90.2393 112.8L88.4633 109.424C88.378 109.424 88.2926 109.429 88.2073 109.44C88.122 109.44 88.0366 109.445 87.9513 109.456C87.7273 109.477 87.514 109.483 87.3113 109.472C87.1193 109.461 86.9166 109.461 86.7033 109.472H86.3993V112.368C86.3993 112.453 86.394 112.533 86.3833 112.608C86.3833 112.683 86.3833 112.763 86.3833 112.848C86.3833 112.901 86.378 112.971 86.3673 113.056C86.3673 113.141 86.362 113.221 86.3513 113.296C86.33 113.413 86.282 113.536 86.2073 113.664C86.1326 113.781 86.0313 113.883 85.9033 113.968C85.6793 114.107 85.4073 114.144 85.0873 114.08C84.9486 114.048 84.8153 113.995 84.6873 113.92C84.6446 113.888 84.6073 113.851 84.5753 113.808C84.5433 113.755 84.5166 113.701 84.4953 113.648C84.474 113.595 84.4526 113.541 84.4313 113.488C84.4206 113.424 84.4046 113.365 84.3833 113.312C84.3513 113.205 84.3353 113.104 84.3353 113.008V103.92C84.3353 103.856 84.3353 103.792 84.3353 103.728C84.346 103.653 84.3566 103.589 84.3673 103.536C84.378 103.419 84.4153 103.301 84.4793 103.184C84.5113 103.056 84.5646 102.965 84.6393 102.912C84.7033 102.848 84.7993 102.795 84.9273 102.752C85.066 102.699 85.2633 102.677 85.5193 102.688C85.9993 102.699 86.474 102.704 86.9433 102.704C87.4126 102.704 87.882 102.715 88.3513 102.736C88.6606 102.757 88.986 102.795 89.3273 102.848C89.6793 102.891 90.0046 102.971 90.3033 103.088C90.4953 103.163 90.6713 103.237 90.8313 103.312C91.034 103.429 91.194 103.541 91.3113 103.648C91.6846 103.989 91.9673 104.4 92.1593 104.88C92.3513 105.36 92.4473 105.845 92.4473 106.336C92.4473 106.912 92.3086 107.44 92.0313 107.92C91.7646 108.4 91.3326 108.757 90.7353 108.992C90.714 109.013 90.682 109.029 90.6393 109.04C90.6073 109.04 90.5806 109.045 90.5593 109.056L92.0313 112.016L92.1753 112.272C92.1966 112.315 92.2233 112.363 92.2553 112.416C92.2873 112.469 92.314 112.523 92.3353 112.576C92.3673 112.629 92.394 112.688 92.4153 112.752C92.4473 112.816 92.4793 112.875 92.5113 112.928C92.5433 113.077 92.57 113.2 92.5913 113.296ZM88.5913 107.6C88.7833 107.6 88.9646 107.568 89.1353 107.504C89.3166 107.429 89.4766 107.333 89.6153 107.216C89.7646 107.099 89.8873 106.965 89.9833 106.816C90.0793 106.656 90.1326 106.485 90.1433 106.304C90.186 105.771 90.0473 105.376 89.7273 105.12C89.4073 104.853 88.986 104.709 88.4633 104.688C88.154 104.667 87.8126 104.656 87.4393 104.656C87.0766 104.656 86.73 104.656 86.3993 104.656C86.41 105.093 86.41 105.541 86.3993 106C86.3993 106.448 86.3993 106.981 86.3993 107.6H88.5913Z" fill="#FAFAFA"/>
<defs>
<clipPath id="clip0">
<rect width="83" height="95" fill="white" transform="translate(3)"/>
</clipPath>
</defs>
</svg>
