<svg width="111" height="115" viewBox="0 0 111 115" fill="none" xmlns="http://www.w3.org/2000/svg">
<g clip-path="url(#clip0)">
<path d="M23.8477 57.4288L23.8487 57.5127L23.851 62.6497H87.1488L87.1523 57.4368C87.3112 51.5029 90.9321 46.5754 95.9961 44.6791C93.3295 34.8852 84.6495 27.7036 74.3428 27.7036H36.6572C26.3508 27.7036 17.6704 34.8849 15.0039 44.6791C20.0679 46.5747 23.6888 51.5012 23.8477 57.4288Z" fill="#FAFAFA"/>
<path d="M100.634 47.5369C95.0072 47.5369 90.4313 52.1829 90.2764 57.9741L90.2724 66.3436H20.7269L20.7233 57.9741C20.5684 52.1829 15.9923 47.5369 10.3652 47.5369C4.64063 47.5369 0 52.3451 0 58.2762C0 64.207 4.64063 69.0146 10.3652 69.0146C10.5485 69.0146 10.7158 69.0093 10.8965 68.9996C10.8965 68.9996 10.9025 74.9664 10.9025 75.075C10.9025 79.8976 14.6759 83.8064 19.3302 83.8064H21.1864V86.3265C21.1864 86.8623 21.6061 87.297 22.1232 87.297H28.3572C28.8743 87.297 29.294 86.8623 29.294 86.3265V83.8064H81.7052V86.3265C81.7052 86.8623 82.1249 87.297 82.6419 87.297H88.876C89.3931 87.297 89.8128 86.8623 89.8128 86.3265V83.8064H91.6641C96.319 83.8064 100.092 79.8976 100.092 75.075C100.092 75.0314 100.089 74.9882 100.088 74.9446V68.9999C100.269 69.0097 100.451 69.0149 100.634 69.0149C106.358 69.0149 110.999 64.2074 110.999 58.2765C111 52.3451 106.359 47.5369 100.634 47.5369Z" fill="#FAFAFA"/>
<path d="M36.4329 101.312C36.5715 101.621 36.5769 101.925 36.4489 102.224C36.3209 102.512 36.1182 102.779 35.8409 103.024C35.5635 103.269 35.2435 103.483 34.8809 103.664C34.5289 103.845 34.1929 103.973 33.8729 104.048C33.5209 104.123 33.1475 104.155 32.7529 104.144C32.3689 104.144 31.9795 104.096 31.5849 104C31.2009 103.915 30.8222 103.787 30.4489 103.616C30.0862 103.435 29.7502 103.216 29.4409 102.96C29.0675 102.651 28.7742 102.283 28.5609 101.856C28.3582 101.419 28.2089 100.955 28.1129 100.464C28.0169 99.9733 27.9635 99.4827 27.9529 98.992C27.9529 98.4907 27.9689 98.0213 28.0009 97.584C28.0329 97.1893 28.1129 96.7787 28.2409 96.352C28.3689 95.9253 28.5449 95.5093 28.7689 95.104C29.0035 94.688 29.2809 94.304 29.6009 93.952C29.9315 93.6 30.3155 93.3013 30.7529 93.056C31.0835 92.864 31.4515 92.736 31.8569 92.672C32.2729 92.5973 32.6889 92.5813 33.1049 92.624C33.5315 92.656 33.9315 92.7467 34.3049 92.896C34.6889 93.0347 35.0142 93.2267 35.2809 93.472C35.4515 93.6213 35.6275 93.8293 35.8089 94.096C36.0009 94.3627 36.1395 94.6347 36.2249 94.912C36.3102 95.1893 36.3102 95.4507 36.2249 95.696C36.1502 95.9307 35.9369 96.0907 35.5849 96.176C35.4355 96.2187 35.3022 96.2293 35.1849 96.208C35.0675 96.176 34.9609 96.128 34.8649 96.064C34.7689 95.9893 34.6782 95.904 34.5929 95.808C34.5075 95.712 34.4275 95.616 34.3529 95.52C34.0969 95.2107 33.7982 95.0027 33.4569 94.896C33.1155 94.7787 32.7742 94.752 32.4329 94.816C32.1022 94.8693 31.7875 95.008 31.4889 95.232C31.2009 95.4453 30.9769 95.7227 30.8169 96.064C30.6462 96.4267 30.5075 96.8267 30.4009 97.264C30.3049 97.6907 30.2515 98.128 30.2409 98.576C30.2302 99.0133 30.2675 99.44 30.3529 99.856C30.4489 100.272 30.6089 100.64 30.8329 100.96C31.0035 101.216 31.2115 101.424 31.4569 101.584C31.7129 101.744 31.9849 101.856 32.2729 101.92C32.5609 101.984 32.8489 101.995 33.1369 101.952C33.4355 101.909 33.7235 101.813 34.0009 101.664C34.0862 101.621 34.1769 101.563 34.2729 101.488C34.3795 101.403 34.4862 101.317 34.5929 101.232C34.6995 101.147 34.8062 101.067 34.9129 100.992C35.0302 100.917 35.1529 100.864 35.2809 100.832C35.4729 100.768 35.6809 100.773 35.9049 100.848C36.1395 100.923 36.3155 101.077 36.4329 101.312ZM47.6995 102.912C47.7102 102.976 47.7155 103.04 47.7155 103.104C47.7262 103.157 47.7315 103.221 47.7315 103.296C47.7315 103.424 47.6942 103.541 47.6195 103.648C47.5875 103.701 47.5448 103.755 47.4915 103.808C47.4382 103.851 47.3742 103.888 47.2995 103.92C47.0328 104.069 46.7502 104.123 46.4515 104.08C46.3022 104.037 46.1688 103.968 46.0515 103.872C46.0302 103.851 46.0142 103.84 46.0035 103.84C45.9928 103.829 45.9822 103.813 45.9715 103.792C45.9608 103.781 45.9502 103.771 45.9395 103.76C45.9288 103.739 45.9128 103.723 45.8915 103.712C45.8382 103.659 45.7955 103.611 45.7635 103.568C45.7315 103.515 45.6995 103.461 45.6675 103.408C45.6462 103.355 45.6195 103.307 45.5875 103.264C45.5662 103.211 45.5395 103.157 45.5075 103.104C45.4862 103.061 45.4648 103.024 45.4435 102.992C45.4222 102.949 45.4062 102.907 45.3955 102.864C45.3528 102.768 45.3262 102.683 45.3155 102.608L44.9795 101.824C44.2435 101.824 43.5075 101.829 42.7715 101.84C42.0462 101.84 41.3155 101.835 40.5795 101.824L40.2435 102.608C40.2222 102.651 40.2062 102.693 40.1955 102.736C40.1955 102.779 40.1848 102.821 40.1635 102.864C40.1422 102.907 40.1208 102.949 40.0995 102.992C40.0888 103.024 40.0728 103.061 40.0515 103.104C40.0195 103.157 39.9875 103.211 39.9555 103.264C39.9342 103.307 39.9075 103.355 39.8755 103.408C39.8542 103.461 39.8275 103.515 39.7955 103.568C39.7635 103.611 39.7208 103.659 39.6675 103.712C39.6462 103.723 39.6302 103.739 39.6195 103.76C39.6088 103.771 39.5982 103.781 39.5875 103.792C39.5768 103.813 39.5662 103.829 39.5555 103.84C39.5448 103.84 39.5288 103.851 39.5075 103.872C39.3902 103.968 39.2568 104.037 39.1075 104.08C38.8088 104.123 38.5262 104.069 38.2595 103.92C38.1848 103.888 38.1208 103.851 38.0675 103.808C38.0142 103.755 37.9715 103.701 37.9395 103.648C37.8648 103.541 37.8275 103.424 37.8275 103.296C37.8275 103.221 37.8275 103.157 37.8275 103.104C37.8382 103.04 37.8488 102.976 37.8595 102.912C37.8808 102.816 37.9075 102.72 37.9395 102.624C37.9715 102.528 37.9875 102.48 37.9875 102.48L41.3155 94.288L41.4115 94.032C41.4328 93.968 41.4595 93.9093 41.4915 93.856C41.5235 93.8027 41.5502 93.7387 41.5715 93.664C41.6248 93.5253 41.6835 93.4027 41.7475 93.296C41.7795 93.232 41.8168 93.1733 41.8595 93.12C41.9022 93.0667 41.9448 93.0133 41.9875 92.96C42.0515 92.8747 42.1422 92.8053 42.2595 92.752C42.4088 92.6987 42.5795 92.672 42.7715 92.672C42.9742 92.672 43.1502 92.6987 43.2995 92.752C43.4168 92.8053 43.5075 92.8747 43.5715 92.96C43.6462 93.056 43.7262 93.168 43.8115 93.296C43.8755 93.4027 43.9342 93.5253 43.9875 93.664C44.0088 93.7387 44.0355 93.8027 44.0675 93.856C44.0995 93.9093 44.1262 93.968 44.1475 94.032L44.2435 94.288L47.5715 102.48C47.5715 102.48 47.5875 102.528 47.6195 102.624C47.6515 102.72 47.6782 102.816 47.6995 102.912ZM43.9075 98.992C43.7688 98.6827 43.6248 98.3627 43.4755 98.032C43.3368 97.7013 43.1875 97.3653 43.0275 97.024C42.9848 96.928 42.9422 96.832 42.8995 96.736C42.8568 96.6293 42.8142 96.528 42.7715 96.432C42.7395 96.528 42.7022 96.6293 42.6595 96.736C42.6168 96.832 42.5742 96.928 42.5315 97.024C42.3715 97.3653 42.2168 97.7013 42.0675 98.032C41.9288 98.3627 41.7902 98.6827 41.6515 98.992L41.3635 99.696H44.1955L43.9075 98.992ZM57.719 102.784C57.7083 102.965 57.6817 103.157 57.639 103.36C57.607 103.563 57.5057 103.728 57.335 103.856C57.207 103.963 57.063 104.027 56.903 104.048C56.743 104.069 56.583 104.059 56.423 104.016C56.2737 103.984 56.1297 103.931 55.991 103.856C55.8523 103.771 55.7403 103.669 55.655 103.552C55.2923 103.104 54.9563 102.645 54.647 102.176C54.3483 101.696 54.0443 101.216 53.735 100.736L52.391 98.704C52.2097 98.416 52.0177 98.096 51.815 97.744C51.6123 97.3813 51.4043 97.0453 51.191 96.736L51.143 102.848V102.992C51.143 103.163 51.111 103.333 51.047 103.504C50.9937 103.664 50.8977 103.803 50.759 103.92C50.6523 104.005 50.5137 104.064 50.343 104.096C50.0763 104.149 49.8523 104.133 49.671 104.048C49.5003 103.963 49.3617 103.845 49.255 103.696C49.159 103.547 49.0897 103.376 49.047 103.184C49.015 102.981 49.0097 102.784 49.031 102.592V102.32L49.063 101.072L49.079 98.752C49.0897 98.4107 49.095 98.064 49.095 97.712C49.095 97.3493 49.095 96.9813 49.095 96.608C49.0843 96.1493 49.0843 95.664 49.095 95.152C49.1163 94.64 49.1377 94.16 49.159 93.712C49.1803 93.4667 49.239 93.2587 49.335 93.088C49.3777 92.9387 49.4897 92.8107 49.671 92.704C49.7883 92.6293 49.9377 92.5813 50.119 92.56C50.311 92.5387 50.4763 92.544 50.615 92.576C50.6683 92.5973 50.7217 92.624 50.775 92.656C50.8283 92.6773 50.8817 92.704 50.935 92.736C50.9883 92.7787 51.0363 92.8213 51.079 92.864C51.1323 92.9067 51.1803 92.9547 51.223 93.008C51.2763 93.0613 51.3243 93.12 51.367 93.184C51.4097 93.2373 51.4523 93.2907 51.495 93.344C51.527 93.408 51.559 93.4667 51.591 93.52C51.623 93.5733 51.6603 93.6267 51.703 93.68L51.879 93.936L55.575 99.76V98.704C55.575 98.3627 55.5697 98.016 55.559 97.664C55.559 97.3013 55.5537 96.928 55.543 96.544C55.543 96.096 55.543 95.616 55.543 95.104C55.5537 94.592 55.5697 94.112 55.591 93.664C55.591 93.4827 55.6443 93.2747 55.751 93.04C55.8043 92.9013 55.895 92.7893 56.023 92.704C56.151 92.6187 56.295 92.56 56.455 92.528C56.615 92.496 56.775 92.496 56.935 92.528C57.095 92.56 57.2337 92.624 57.351 92.72C57.383 92.752 57.415 92.7893 57.447 92.832C57.479 92.8747 57.5057 92.9227 57.527 92.976C57.5803 93.1147 57.6123 93.2373 57.623 93.344C57.655 93.4933 57.671 93.6267 57.671 93.744C57.671 95.0773 57.671 96.4373 57.671 97.824C57.6817 99.2107 57.6923 100.571 57.703 101.904C57.703 102.053 57.7083 102.203 57.719 102.352C57.7297 102.491 57.7297 102.635 57.719 102.784ZM68.887 102.912C68.8977 102.976 68.903 103.04 68.903 103.104C68.9137 103.157 68.919 103.221 68.919 103.296C68.919 103.424 68.8817 103.541 68.807 103.648C68.775 103.701 68.7323 103.755 68.679 103.808C68.6257 103.851 68.5617 103.888 68.487 103.92C68.2203 104.069 67.9377 104.123 67.639 104.08C67.4897 104.037 67.3563 103.968 67.239 103.872C67.2177 103.851 67.2017 103.84 67.191 103.84C67.1803 103.829 67.1697 103.813 67.159 103.792C67.1483 103.781 67.1377 103.771 67.127 103.76C67.1163 103.739 67.1003 103.723 67.079 103.712C67.0257 103.659 66.983 103.611 66.951 103.568C66.919 103.515 66.887 103.461 66.855 103.408C66.8337 103.355 66.807 103.307 66.775 103.264C66.7537 103.211 66.727 103.157 66.695 103.104C66.6737 103.061 66.6523 103.024 66.631 102.992C66.6097 102.949 66.5937 102.907 66.583 102.864C66.5403 102.768 66.5137 102.683 66.503 102.608L66.167 101.824C65.431 101.824 64.695 101.829 63.959 101.84C63.2337 101.84 62.503 101.835 61.767 101.824L61.431 102.608C61.4097 102.651 61.3937 102.693 61.383 102.736C61.383 102.779 61.3723 102.821 61.351 102.864C61.3297 102.907 61.3083 102.949 61.287 102.992C61.2763 103.024 61.2603 103.061 61.239 103.104C61.207 103.157 61.175 103.211 61.143 103.264C61.1217 103.307 61.095 103.355 61.063 103.408C61.0417 103.461 61.015 103.515 60.983 103.568C60.951 103.611 60.9083 103.659 60.855 103.712C60.8337 103.723 60.8177 103.739 60.807 103.76C60.7963 103.771 60.7857 103.781 60.775 103.792C60.7643 103.813 60.7537 103.829 60.743 103.84C60.7323 103.84 60.7163 103.851 60.695 103.872C60.5777 103.968 60.4443 104.037 60.295 104.08C59.9963 104.123 59.7137 104.069 59.447 103.92C59.3723 103.888 59.3083 103.851 59.255 103.808C59.2017 103.755 59.159 103.701 59.127 103.648C59.0523 103.541 59.015 103.424 59.015 103.296C59.015 103.221 59.015 103.157 59.015 103.104C59.0257 103.04 59.0363 102.976 59.047 102.912C59.0683 102.816 59.095 102.72 59.127 102.624C59.159 102.528 59.175 102.48 59.175 102.48L62.503 94.288L62.599 94.032C62.6203 93.968 62.647 93.9093 62.679 93.856C62.711 93.8027 62.7377 93.7387 62.759 93.664C62.8123 93.5253 62.871 93.4027 62.935 93.296C62.967 93.232 63.0043 93.1733 63.047 93.12C63.0897 93.0667 63.1323 93.0133 63.175 92.96C63.239 92.8747 63.3297 92.8053 63.447 92.752C63.5963 92.6987 63.767 92.672 63.959 92.672C64.1617 92.672 64.3377 92.6987 64.487 92.752C64.6043 92.8053 64.695 92.8747 64.759 92.96C64.8337 93.056 64.9137 93.168 64.999 93.296C65.063 93.4027 65.1217 93.5253 65.175 93.664C65.1963 93.7387 65.223 93.8027 65.255 93.856C65.287 93.9093 65.3137 93.968 65.335 94.032L65.431 94.288L68.759 102.48C68.759 102.48 68.775 102.528 68.807 102.624C68.839 102.72 68.8657 102.816 68.887 102.912ZM65.095 98.992C64.9563 98.6827 64.8123 98.3627 64.663 98.032C64.5243 97.7013 64.375 97.3653 64.215 97.024C64.1723 96.928 64.1297 96.832 64.087 96.736C64.0443 96.6293 64.0017 96.528 63.959 96.432C63.927 96.528 63.8897 96.6293 63.847 96.736C63.8043 96.832 63.7617 96.928 63.719 97.024C63.559 97.3653 63.4043 97.7013 63.255 98.032C63.1163 98.3627 62.9777 98.6827 62.839 98.992L62.551 99.696H65.383L65.095 98.992ZM77.1305 93.68C77.5358 94.0533 77.8345 94.5013 78.0265 95.024C78.2185 95.536 78.2932 96.048 78.2505 96.56C78.2078 97.0507 78.0532 97.504 77.7865 97.92C77.5198 98.3253 77.1145 98.6347 76.5705 98.848C76.1438 99.0293 75.7225 99.1573 75.3065 99.232C74.8905 99.3067 74.4318 99.3653 73.9305 99.408C73.7065 99.4293 73.5145 99.4453 73.3545 99.456C73.2052 99.456 73.0292 99.4613 72.8265 99.472C72.7838 99.472 72.7092 99.472 72.6025 99.472C72.5065 99.472 72.4372 99.4773 72.3945 99.488V102.8C72.3625 103.003 72.3198 103.211 72.2665 103.424C72.2238 103.637 72.1012 103.803 71.8985 103.92C71.7812 103.984 71.6372 104.021 71.4665 104.032C71.2958 104.043 71.1412 104.037 71.0025 104.016C70.8532 103.995 70.7252 103.957 70.6185 103.904C70.5225 103.84 70.4425 103.733 70.3785 103.584C70.3358 103.488 70.2932 103.381 70.2505 103.264C70.2185 103.136 70.2025 102.981 70.2025 102.8V93.952C70.2025 93.8773 70.2078 93.808 70.2185 93.744C70.2292 93.68 70.2398 93.616 70.2505 93.552C70.2718 93.4987 70.2878 93.44 70.2985 93.376C70.3092 93.312 70.3252 93.2533 70.3465 93.2C70.3678 93.1467 70.3892 93.0987 70.4105 93.056C70.4425 93.0133 70.4798 92.976 70.5225 92.944C70.5758 92.8907 70.6558 92.8427 70.7625 92.8C70.8798 92.7573 71.0505 92.736 71.2745 92.736H71.3065C71.6372 92.7147 72.0052 92.6987 72.4105 92.688C72.8158 92.6667 73.1518 92.672 73.4185 92.704C73.5678 92.7253 73.7065 92.7413 73.8345 92.752C73.9625 92.752 74.0852 92.7573 74.2025 92.768C74.3305 92.7787 74.4585 92.7893 74.5865 92.8C74.7145 92.8107 74.8425 92.8267 74.9705 92.848C75.0772 92.8693 75.1732 92.8853 75.2585 92.896C75.3545 92.9067 75.4505 92.9227 75.5465 92.944C75.6318 92.9653 75.7225 92.9867 75.8185 93.008C75.9252 93.0293 76.0212 93.0667 76.1065 93.12C76.3305 93.184 76.5172 93.264 76.6665 93.36C76.8158 93.456 76.9705 93.5627 77.1305 93.68ZM76.1705 96.32C76.1812 96.064 76.1278 95.84 76.0105 95.648C75.9038 95.456 75.7492 95.296 75.5465 95.168C75.3438 95.04 75.1145 94.9387 74.8585 94.864C74.6025 94.7893 74.3465 94.736 74.0905 94.704C74.0265 94.704 73.9358 94.704 73.8185 94.704C73.7118 94.6933 73.5945 94.688 73.4665 94.688C73.3385 94.6773 73.2158 94.672 73.0985 94.672C72.9918 94.6613 72.9065 94.656 72.8425 94.656C72.7892 94.6453 72.7252 94.64 72.6505 94.64C72.5758 94.64 72.4905 94.64 72.3945 94.64C72.4052 94.9707 72.4105 95.2907 72.4105 95.6C72.4105 95.8987 72.4105 96.224 72.4105 96.576C72.3998 96.768 72.3945 96.96 72.3945 97.152C72.3945 97.344 72.3945 97.5307 72.3945 97.712L73.3865 97.696C73.6425 97.696 73.9252 97.68 74.2345 97.648C74.5438 97.616 74.8372 97.552 75.1145 97.456C75.3918 97.36 75.6265 97.2213 75.8185 97.04C76.0212 96.8587 76.1385 96.6187 76.1705 96.32ZM81.7539 94.592L81.7219 97.104H82.3619C82.7992 97.0933 83.1885 97.088 83.5299 97.088C83.8712 97.088 84.2499 97.0933 84.6659 97.104H84.7459C84.8739 97.104 84.9965 97.1093 85.1139 97.12C85.2419 97.12 85.3645 97.12 85.4819 97.12C85.6099 97.1307 85.7325 97.152 85.8499 97.184C85.9672 97.2053 86.0845 97.232 86.2019 97.264C86.3832 97.328 86.5325 97.424 86.6499 97.552C86.7565 97.6907 86.8099 97.8453 86.8099 98.016C86.8099 98.0693 86.8099 98.1333 86.8099 98.208C86.8099 98.272 86.7992 98.3307 86.7779 98.384C86.7565 98.5013 86.6872 98.608 86.5699 98.704C86.5165 98.7787 86.4152 98.832 86.2659 98.864C86.1272 98.9067 85.9885 98.9333 85.8499 98.944C85.7005 98.976 85.5512 98.992 85.4019 98.992H84.6499L81.6899 99.008L81.6579 102.144L84.8419 102.176H85.5939C85.6792 102.176 85.7592 102.176 85.8339 102.176C85.9085 102.176 85.9779 102.181 86.0419 102.192C86.1272 102.213 86.2019 102.229 86.2659 102.24C86.3405 102.24 86.4099 102.251 86.4739 102.272C86.6019 102.315 86.7085 102.373 86.7939 102.448C86.9005 102.555 86.9699 102.667 87.0019 102.784C87.0125 102.837 87.0179 102.896 87.0179 102.96C87.0285 103.013 87.0285 103.072 87.0179 103.136C87.0179 103.307 86.9645 103.461 86.8579 103.6C86.7299 103.749 86.5805 103.845 86.4099 103.888C86.1859 103.984 85.9405 104.032 85.6739 104.032C85.5565 104.043 85.4339 104.048 85.3059 104.048C85.1779 104.048 85.0552 104.053 84.9379 104.064H84.8419C84.0099 104.085 83.1459 104.085 82.2499 104.064C82.0365 104.064 81.8659 104.059 81.7379 104.048C81.6099 104.048 81.4925 104.048 81.3859 104.048C81.2899 104.048 81.1885 104.048 81.0819 104.048C80.9752 104.048 80.8365 104.048 80.6659 104.048C80.4205 104.069 80.2179 104.027 80.0579 103.92C79.9405 103.845 79.8499 103.744 79.7859 103.616C79.7539 103.584 79.7379 103.552 79.7379 103.52C79.7272 103.499 79.7165 103.483 79.7059 103.472C79.6952 103.461 79.6845 103.445 79.6739 103.424C79.6525 103.371 79.6365 103.317 79.6259 103.264C79.6152 103.2 79.6099 103.141 79.6099 103.088C79.5992 103.035 79.5885 102.981 79.5779 102.928C79.5779 102.875 79.5725 102.821 79.5619 102.768V102.512C79.5619 102.469 79.5619 102.427 79.5619 102.384C79.5725 102.341 79.5779 102.299 79.5779 102.256V101.008L79.6099 98.704V96.576C79.6099 96.192 79.6099 95.8507 79.6099 95.552C79.6205 95.2533 79.6312 94.928 79.6419 94.576V94.496C79.6525 94.3787 79.6579 94.272 79.6579 94.176C79.6685 94.0693 79.6739 93.9627 79.6739 93.856C79.6845 93.6427 79.7432 93.4347 79.8499 93.232C79.8925 93.1467 79.9352 93.072 79.9779 93.008C80.0312 92.944 80.1005 92.8907 80.1859 92.848C80.3459 92.752 80.5112 92.704 80.6819 92.704C80.7672 92.704 80.8312 92.7093 80.8739 92.72V92.704C81.0659 92.704 81.2205 92.704 81.3379 92.704C81.4552 92.704 81.5672 92.704 81.6739 92.704C81.7912 92.704 81.9139 92.704 82.0419 92.704C82.1699 92.6933 82.3459 92.688 82.5699 92.688C82.9965 92.6773 83.4019 92.672 83.7859 92.672C84.1699 92.672 84.5645 92.6773 84.9699 92.688H85.0339C85.1512 92.6987 85.2739 92.704 85.4019 92.704C85.5299 92.704 85.6525 92.7093 85.7699 92.72C85.8872 92.72 86.0045 92.736 86.1219 92.768C86.2392 92.7893 86.3565 92.8213 86.4739 92.864C86.6552 92.9173 86.8045 93.008 86.9219 93.136C87.0179 93.2853 87.0659 93.4347 87.0659 93.584C87.0659 93.648 87.0659 93.712 87.0659 93.776C87.0659 93.8293 87.0552 93.8827 87.0339 93.936C87.0232 94.0427 86.9592 94.1547 86.8419 94.272C86.7992 94.2933 86.7512 94.32 86.6979 94.352C86.6552 94.384 86.6019 94.4107 86.5379 94.432C86.4739 94.4533 86.4045 94.4693 86.3299 94.48C86.2659 94.48 86.2019 94.4853 86.1379 94.496C86.0525 94.5173 85.9725 94.528 85.8979 94.528C85.8339 94.528 85.7592 94.528 85.6739 94.528H84.9539L81.7539 94.544V94.592Z" fill="white"/>
</g>
<defs>
<clipPath id="clip0">
<rect width="111" height="115" fill="white"/>
</clipPath>
</defs>
</svg>
