<svg width="83" height="95" viewBox="0 0 83 95" fill="none" xmlns="http://www.w3.org/2000/svg">
<g clip-path="url(#clip0)">
<path d="M17.8321 47.4411L17.8329 47.5104L17.8346 51.754H65.1654L65.168 47.4477C65.2868 42.5458 67.9943 38.4752 71.7809 36.9087C69.787 28.8181 63.2965 22.8855 55.5897 22.8855H27.4104C19.7038 22.8855 13.2131 28.8179 11.2192 36.9087C15.0058 38.4747 17.7133 42.5444 17.8321 47.4411Z" fill="#FAFAFA"/>
<path d="M75.2492 39.2695C71.0414 39.2695 67.6198 43.1075 67.504 47.8916L67.501 54.8055H15.4985L15.4958 47.8916C15.38 43.1075 11.9582 39.2695 7.75055 39.2695C3.47002 39.2695 0 43.2415 0 48.1411C0 53.0405 3.47002 57.012 7.75055 57.012C7.88758 57.012 8.01272 57.0076 8.14784 56.9996C8.14784 56.9996 8.1523 61.9287 8.1523 62.0184C8.1523 66.0023 10.9739 69.2313 14.4541 69.2313H15.8421V71.3131C15.8421 71.7557 16.1559 72.1148 16.5426 72.1148H21.204C21.5907 72.1148 21.9045 71.7557 21.9045 71.3131V69.2313H61.0949V71.3131C61.0949 71.7557 61.4087 72.1148 61.7953 72.1148H66.4568C66.8435 72.1148 67.1573 71.7557 67.1573 71.3131V69.2313H68.5416C72.0223 69.2313 74.8434 66.0023 74.8434 62.0184C74.8434 61.9824 74.8413 61.9467 74.8409 61.9107V56.9998C74.9762 57.0079 75.112 57.0122 75.249 57.0122C79.5293 57.0122 82.9996 53.0408 82.9996 48.1414C83 43.2415 79.5298 39.2695 75.2492 39.2695Z" fill="#FAFAFA"/>
<path d="M24.4329 90.312C24.5715 90.6213 24.5769 90.9253 24.4489 91.224C24.3209 91.512 24.1182 91.7787 23.8409 92.024C23.5635 92.2693 23.2435 92.4827 22.8809 92.664C22.5289 92.8453 22.1929 92.9733 21.8729 93.048C21.5209 93.1227 21.1475 93.1547 20.7529 93.144C20.3689 93.144 19.9795 93.096 19.5849 93C19.2009 92.9147 18.8222 92.7867 18.4489 92.616C18.0862 92.4347 17.7502 92.216 17.4409 91.96C17.0675 91.6507 16.7742 91.2827 16.5609 90.856C16.3582 90.4187 16.2089 89.9547 16.1129 89.464C16.0169 88.9733 15.9635 88.4827 15.9529 87.992C15.9529 87.4907 15.9689 87.0213 16.0009 86.584C16.0329 86.1893 16.1129 85.7787 16.2409 85.352C16.3689 84.9253 16.5449 84.5093 16.7689 84.104C17.0035 83.688 17.2809 83.304 17.6009 82.952C17.9315 82.6 18.3155 82.3013 18.7529 82.056C19.0835 81.864 19.4515 81.736 19.8569 81.672C20.2729 81.5973 20.6889 81.5813 21.1049 81.624C21.5315 81.656 21.9315 81.7467 22.3049 81.896C22.6889 82.0347 23.0142 82.2267 23.2809 82.472C23.4515 82.6213 23.6275 82.8293 23.8089 83.096C24.0009 83.3627 24.1395 83.6347 24.2249 83.912C24.3102 84.1893 24.3102 84.4507 24.2249 84.696C24.1502 84.9307 23.9369 85.0907 23.5849 85.176C23.4355 85.2187 23.3022 85.2293 23.1849 85.208C23.0675 85.176 22.9609 85.128 22.8649 85.064C22.7689 84.9893 22.6782 84.904 22.5929 84.808C22.5075 84.712 22.4275 84.616 22.3529 84.52C22.0969 84.2107 21.7982 84.0027 21.4569 83.896C21.1155 83.7787 20.7742 83.752 20.4329 83.816C20.1022 83.8693 19.7875 84.008 19.4889 84.232C19.2009 84.4453 18.9769 84.7227 18.8169 85.064C18.6462 85.4267 18.5075 85.8267 18.4009 86.264C18.3049 86.6907 18.2515 87.128 18.2409 87.576C18.2302 88.0133 18.2675 88.44 18.3529 88.856C18.4489 89.272 18.6089 89.64 18.8329 89.96C19.0035 90.216 19.2115 90.424 19.4569 90.584C19.7129 90.744 19.9849 90.856 20.2729 90.92C20.5609 90.984 20.8489 90.9947 21.1369 90.952C21.4355 90.9093 21.7235 90.8133 22.0009 90.664C22.0862 90.6213 22.1769 90.5627 22.2729 90.488C22.3795 90.4027 22.4862 90.3173 22.5929 90.232C22.6995 90.1467 22.8062 90.0667 22.9129 89.992C23.0302 89.9173 23.1529 89.864 23.2809 89.832C23.4729 89.768 23.6809 89.7733 23.9049 89.848C24.1395 89.9227 24.3155 90.0773 24.4329 90.312ZM35.6995 91.912C35.7102 91.976 35.7155 92.04 35.7155 92.104C35.7262 92.1573 35.7315 92.2213 35.7315 92.296C35.7315 92.424 35.6942 92.5413 35.6195 92.648C35.5875 92.7013 35.5448 92.7547 35.4915 92.808C35.4382 92.8507 35.3742 92.888 35.2995 92.92C35.0328 93.0693 34.7502 93.1227 34.4515 93.08C34.3022 93.0373 34.1688 92.968 34.0515 92.872C34.0302 92.8507 34.0142 92.84 34.0035 92.84C33.9928 92.8293 33.9822 92.8133 33.9715 92.792C33.9608 92.7813 33.9502 92.7707 33.9395 92.76C33.9288 92.7387 33.9128 92.7227 33.8915 92.712C33.8382 92.6587 33.7955 92.6107 33.7635 92.568C33.7315 92.5147 33.6995 92.4613 33.6675 92.408C33.6462 92.3547 33.6195 92.3067 33.5875 92.264C33.5662 92.2107 33.5395 92.1573 33.5075 92.104C33.4862 92.0613 33.4648 92.024 33.4435 91.992C33.4222 91.9493 33.4062 91.9067 33.3955 91.864C33.3528 91.768 33.3262 91.6827 33.3155 91.608L32.9795 90.824C32.2435 90.824 31.5075 90.8293 30.7715 90.84C30.0462 90.84 29.3155 90.8347 28.5795 90.824L28.2435 91.608C28.2222 91.6507 28.2062 91.6933 28.1955 91.736C28.1955 91.7787 28.1848 91.8213 28.1635 91.864C28.1422 91.9067 28.1208 91.9493 28.0995 91.992C28.0888 92.024 28.0728 92.0613 28.0515 92.104C28.0195 92.1573 27.9875 92.2107 27.9555 92.264C27.9342 92.3067 27.9075 92.3547 27.8755 92.408C27.8542 92.4613 27.8275 92.5147 27.7955 92.568C27.7635 92.6107 27.7208 92.6587 27.6675 92.712C27.6462 92.7227 27.6302 92.7387 27.6195 92.76C27.6088 92.7707 27.5982 92.7813 27.5875 92.792C27.5768 92.8133 27.5662 92.8293 27.5555 92.84C27.5448 92.84 27.5288 92.8507 27.5075 92.872C27.3902 92.968 27.2568 93.0373 27.1075 93.08C26.8088 93.1227 26.5262 93.0693 26.2595 92.92C26.1848 92.888 26.1208 92.8507 26.0675 92.808C26.0142 92.7547 25.9715 92.7013 25.9395 92.648C25.8648 92.5413 25.8275 92.424 25.8275 92.296C25.8275 92.2213 25.8275 92.1573 25.8275 92.104C25.8382 92.04 25.8488 91.976 25.8595 91.912C25.8808 91.816 25.9075 91.72 25.9395 91.624C25.9715 91.528 25.9875 91.48 25.9875 91.48L29.3155 83.288L29.4115 83.032C29.4328 82.968 29.4595 82.9093 29.4915 82.856C29.5235 82.8027 29.5502 82.7387 29.5715 82.664C29.6248 82.5253 29.6835 82.4027 29.7475 82.296C29.7795 82.232 29.8168 82.1733 29.8595 82.12C29.9022 82.0667 29.9448 82.0133 29.9875 81.96C30.0515 81.8747 30.1422 81.8053 30.2595 81.752C30.4088 81.6987 30.5795 81.672 30.7715 81.672C30.9742 81.672 31.1502 81.6987 31.2995 81.752C31.4168 81.8053 31.5075 81.8747 31.5715 81.96C31.6462 82.056 31.7262 82.168 31.8115 82.296C31.8755 82.4027 31.9342 82.5253 31.9875 82.664C32.0088 82.7387 32.0355 82.8027 32.0675 82.856C32.0995 82.9093 32.1262 82.968 32.1475 83.032L32.2435 83.288L35.5715 91.48C35.5715 91.48 35.5875 91.528 35.6195 91.624C35.6515 91.72 35.6782 91.816 35.6995 91.912ZM31.9075 87.992C31.7688 87.6827 31.6248 87.3627 31.4755 87.032C31.3368 86.7013 31.1875 86.3653 31.0275 86.024C30.9848 85.928 30.9422 85.832 30.8995 85.736C30.8568 85.6293 30.8142 85.528 30.7715 85.432C30.7395 85.528 30.7022 85.6293 30.6595 85.736C30.6168 85.832 30.5742 85.928 30.5315 86.024C30.3715 86.3653 30.2168 86.7013 30.0675 87.032C29.9288 87.3627 29.7902 87.6827 29.6515 87.992L29.3635 88.696H32.1955L31.9075 87.992ZM45.719 91.784C45.7083 91.9653 45.6817 92.1573 45.639 92.36C45.607 92.5627 45.5057 92.728 45.335 92.856C45.207 92.9627 45.063 93.0267 44.903 93.048C44.743 93.0693 44.583 93.0587 44.423 93.016C44.2737 92.984 44.1297 92.9307 43.991 92.856C43.8523 92.7707 43.7403 92.6693 43.655 92.552C43.2923 92.104 42.9563 91.6453 42.647 91.176C42.3483 90.696 42.0443 90.216 41.735 89.736L40.391 87.704C40.2097 87.416 40.0177 87.096 39.815 86.744C39.6123 86.3813 39.4043 86.0453 39.191 85.736L39.143 91.848V91.992C39.143 92.1627 39.111 92.3333 39.047 92.504C38.9937 92.664 38.8977 92.8027 38.759 92.92C38.6523 93.0053 38.5137 93.064 38.343 93.096C38.0763 93.1493 37.8523 93.1333 37.671 93.048C37.5003 92.9627 37.3617 92.8453 37.255 92.696C37.159 92.5467 37.0897 92.376 37.047 92.184C37.015 91.9813 37.0097 91.784 37.031 91.592V91.32L37.063 90.072L37.079 87.752C37.0897 87.4107 37.095 87.064 37.095 86.712C37.095 86.3493 37.095 85.9813 37.095 85.608C37.0843 85.1493 37.0843 84.664 37.095 84.152C37.1163 83.64 37.1377 83.16 37.159 82.712C37.1803 82.4667 37.239 82.2587 37.335 82.088C37.3777 81.9387 37.4897 81.8107 37.671 81.704C37.7883 81.6293 37.9377 81.5813 38.119 81.56C38.311 81.5387 38.4763 81.544 38.615 81.576C38.6683 81.5973 38.7217 81.624 38.775 81.656C38.8283 81.6773 38.8817 81.704 38.935 81.736C38.9883 81.7787 39.0363 81.8213 39.079 81.864C39.1323 81.9067 39.1803 81.9547 39.223 82.008C39.2763 82.0613 39.3243 82.12 39.367 82.184C39.4097 82.2373 39.4523 82.2907 39.495 82.344C39.527 82.408 39.559 82.4667 39.591 82.52C39.623 82.5733 39.6603 82.6267 39.703 82.68L39.879 82.936L43.575 88.76V87.704C43.575 87.3627 43.5697 87.016 43.559 86.664C43.559 86.3013 43.5537 85.928 43.543 85.544C43.543 85.096 43.543 84.616 43.543 84.104C43.5537 83.592 43.5697 83.112 43.591 82.664C43.591 82.4827 43.6443 82.2747 43.751 82.04C43.8043 81.9013 43.895 81.7893 44.023 81.704C44.151 81.6187 44.295 81.56 44.455 81.528C44.615 81.496 44.775 81.496 44.935 81.528C45.095 81.56 45.2337 81.624 45.351 81.72C45.383 81.752 45.415 81.7893 45.447 81.832C45.479 81.8747 45.5057 81.9227 45.527 81.976C45.5803 82.1147 45.6123 82.2373 45.623 82.344C45.655 82.4933 45.671 82.6267 45.671 82.744C45.671 84.0773 45.671 85.4373 45.671 86.824C45.6817 88.2107 45.6923 89.5707 45.703 90.904C45.703 91.0533 45.7083 91.2027 45.719 91.352C45.7297 91.4907 45.7297 91.6347 45.719 91.784ZM56.887 91.912C56.8977 91.976 56.903 92.04 56.903 92.104C56.9137 92.1573 56.919 92.2213 56.919 92.296C56.919 92.424 56.8817 92.5413 56.807 92.648C56.775 92.7013 56.7323 92.7547 56.679 92.808C56.6257 92.8507 56.5617 92.888 56.487 92.92C56.2203 93.0693 55.9377 93.1227 55.639 93.08C55.4897 93.0373 55.3563 92.968 55.239 92.872C55.2177 92.8507 55.2017 92.84 55.191 92.84C55.1803 92.8293 55.1697 92.8133 55.159 92.792C55.1483 92.7813 55.1377 92.7707 55.127 92.76C55.1163 92.7387 55.1003 92.7227 55.079 92.712C55.0257 92.6587 54.983 92.6107 54.951 92.568C54.919 92.5147 54.887 92.4613 54.855 92.408C54.8337 92.3547 54.807 92.3067 54.775 92.264C54.7537 92.2107 54.727 92.1573 54.695 92.104C54.6737 92.0613 54.6523 92.024 54.631 91.992C54.6097 91.9493 54.5937 91.9067 54.583 91.864C54.5403 91.768 54.5137 91.6827 54.503 91.608L54.167 90.824C53.431 90.824 52.695 90.8293 51.959 90.84C51.2337 90.84 50.503 90.8347 49.767 90.824L49.431 91.608C49.4097 91.6507 49.3937 91.6933 49.383 91.736C49.383 91.7787 49.3723 91.8213 49.351 91.864C49.3297 91.9067 49.3083 91.9493 49.287 91.992C49.2763 92.024 49.2603 92.0613 49.239 92.104C49.207 92.1573 49.175 92.2107 49.143 92.264C49.1217 92.3067 49.095 92.3547 49.063 92.408C49.0417 92.4613 49.015 92.5147 48.983 92.568C48.951 92.6107 48.9083 92.6587 48.855 92.712C48.8337 92.7227 48.8177 92.7387 48.807 92.76C48.7963 92.7707 48.7857 92.7813 48.775 92.792C48.7643 92.8133 48.7537 92.8293 48.743 92.84C48.7323 92.84 48.7163 92.8507 48.695 92.872C48.5777 92.968 48.4443 93.0373 48.295 93.08C47.9963 93.1227 47.7137 93.0693 47.447 92.92C47.3723 92.888 47.3083 92.8507 47.255 92.808C47.2017 92.7547 47.159 92.7013 47.127 92.648C47.0523 92.5413 47.015 92.424 47.015 92.296C47.015 92.2213 47.015 92.1573 47.015 92.104C47.0257 92.04 47.0363 91.976 47.047 91.912C47.0683 91.816 47.095 91.72 47.127 91.624C47.159 91.528 47.175 91.48 47.175 91.48L50.503 83.288L50.599 83.032C50.6203 82.968 50.647 82.9093 50.679 82.856C50.711 82.8027 50.7377 82.7387 50.759 82.664C50.8123 82.5253 50.871 82.4027 50.935 82.296C50.967 82.232 51.0043 82.1733 51.047 82.12C51.0897 82.0667 51.1323 82.0133 51.175 81.96C51.239 81.8747 51.3297 81.8053 51.447 81.752C51.5963 81.6987 51.767 81.672 51.959 81.672C52.1617 81.672 52.3377 81.6987 52.487 81.752C52.6043 81.8053 52.695 81.8747 52.759 81.96C52.8337 82.056 52.9137 82.168 52.999 82.296C53.063 82.4027 53.1217 82.5253 53.175 82.664C53.1963 82.7387 53.223 82.8027 53.255 82.856C53.287 82.9093 53.3137 82.968 53.335 83.032L53.431 83.288L56.759 91.48C56.759 91.48 56.775 91.528 56.807 91.624C56.839 91.72 56.8657 91.816 56.887 91.912ZM53.095 87.992C52.9563 87.6827 52.8123 87.3627 52.663 87.032C52.5243 86.7013 52.375 86.3653 52.215 86.024C52.1723 85.928 52.1297 85.832 52.087 85.736C52.0443 85.6293 52.0017 85.528 51.959 85.432C51.927 85.528 51.8897 85.6293 51.847 85.736C51.8043 85.832 51.7617 85.928 51.719 86.024C51.559 86.3653 51.4043 86.7013 51.255 87.032C51.1163 87.3627 50.9777 87.6827 50.839 87.992L50.551 88.696H53.383L53.095 87.992ZM65.1305 82.68C65.5358 83.0533 65.8345 83.5013 66.0265 84.024C66.2185 84.536 66.2932 85.048 66.2505 85.56C66.2078 86.0507 66.0532 86.504 65.7865 86.92C65.5198 87.3253 65.1145 87.6347 64.5705 87.848C64.1438 88.0293 63.7225 88.1573 63.3065 88.232C62.8905 88.3067 62.4318 88.3653 61.9305 88.408C61.7065 88.4293 61.5145 88.4453 61.3545 88.456C61.2052 88.456 61.0292 88.4613 60.8265 88.472C60.7838 88.472 60.7092 88.472 60.6025 88.472C60.5065 88.472 60.4372 88.4773 60.3945 88.488V91.8C60.3625 92.0027 60.3198 92.2107 60.2665 92.424C60.2238 92.6373 60.1012 92.8027 59.8985 92.92C59.7812 92.984 59.6372 93.0213 59.4665 93.032C59.2958 93.0427 59.1412 93.0373 59.0025 93.016C58.8532 92.9947 58.7252 92.9573 58.6185 92.904C58.5225 92.84 58.4425 92.7333 58.3785 92.584C58.3358 92.488 58.2932 92.3813 58.2505 92.264C58.2185 92.136 58.2025 91.9813 58.2025 91.8V82.952C58.2025 82.8773 58.2078 82.808 58.2185 82.744C58.2292 82.68 58.2398 82.616 58.2505 82.552C58.2718 82.4987 58.2878 82.44 58.2985 82.376C58.3092 82.312 58.3252 82.2533 58.3465 82.2C58.3678 82.1467 58.3892 82.0987 58.4105 82.056C58.4425 82.0133 58.4798 81.976 58.5225 81.944C58.5758 81.8907 58.6558 81.8427 58.7625 81.8C58.8798 81.7573 59.0505 81.736 59.2745 81.736H59.3065C59.6372 81.7147 60.0052 81.6987 60.4105 81.688C60.8158 81.6667 61.1518 81.672 61.4185 81.704C61.5678 81.7253 61.7065 81.7413 61.8345 81.752C61.9625 81.752 62.0852 81.7573 62.2025 81.768C62.3305 81.7787 62.4585 81.7893 62.5865 81.8C62.7145 81.8107 62.8425 81.8267 62.9705 81.848C63.0772 81.8693 63.1732 81.8853 63.2585 81.896C63.3545 81.9067 63.4505 81.9227 63.5465 81.944C63.6318 81.9653 63.7225 81.9867 63.8185 82.008C63.9252 82.0293 64.0212 82.0667 64.1065 82.12C64.3305 82.184 64.5172 82.264 64.6665 82.36C64.8158 82.456 64.9705 82.5627 65.1305 82.68ZM64.1705 85.32C64.1812 85.064 64.1278 84.84 64.0105 84.648C63.9038 84.456 63.7492 84.296 63.5465 84.168C63.3438 84.04 63.1145 83.9387 62.8585 83.864C62.6025 83.7893 62.3465 83.736 62.0905 83.704C62.0265 83.704 61.9358 83.704 61.8185 83.704C61.7118 83.6933 61.5945 83.688 61.4665 83.688C61.3385 83.6773 61.2158 83.672 61.0985 83.672C60.9918 83.6613 60.9065 83.656 60.8425 83.656C60.7892 83.6453 60.7252 83.64 60.6505 83.64C60.5758 83.64 60.4905 83.64 60.3945 83.64C60.4052 83.9707 60.4105 84.2907 60.4105 84.6C60.4105 84.8987 60.4105 85.224 60.4105 85.576C60.3998 85.768 60.3945 85.96 60.3945 86.152C60.3945 86.344 60.3945 86.5307 60.3945 86.712L61.3865 86.696C61.6425 86.696 61.9252 86.68 62.2345 86.648C62.5438 86.616 62.8372 86.552 63.1145 86.456C63.3918 86.36 63.6265 86.2213 63.8185 86.04C64.0212 85.8587 64.1385 85.6187 64.1705 85.32ZM69.7539 83.592L69.7219 86.104H70.3619C70.7992 86.0933 71.1885 86.088 71.5299 86.088C71.8712 86.088 72.2499 86.0933 72.6659 86.104H72.7459C72.8739 86.104 72.9965 86.1093 73.1139 86.12C73.2419 86.12 73.3645 86.12 73.4819 86.12C73.6099 86.1307 73.7325 86.152 73.8499 86.184C73.9672 86.2053 74.0845 86.232 74.2019 86.264C74.3832 86.328 74.5325 86.424 74.6499 86.552C74.7565 86.6907 74.8099 86.8453 74.8099 87.016C74.8099 87.0693 74.8099 87.1333 74.8099 87.208C74.8099 87.272 74.7992 87.3307 74.7779 87.384C74.7565 87.5013 74.6872 87.608 74.5699 87.704C74.5165 87.7787 74.4152 87.832 74.2659 87.864C74.1272 87.9067 73.9885 87.9333 73.8499 87.944C73.7005 87.976 73.5512 87.992 73.4019 87.992H72.6499L69.6899 88.008L69.6579 91.144L72.8419 91.176H73.5939C73.6792 91.176 73.7592 91.176 73.8339 91.176C73.9085 91.176 73.9779 91.1813 74.0419 91.192C74.1272 91.2133 74.2019 91.2293 74.2659 91.24C74.3405 91.24 74.4099 91.2507 74.4739 91.272C74.6019 91.3147 74.7085 91.3733 74.7939 91.448C74.9005 91.5547 74.9699 91.6667 75.0019 91.784C75.0125 91.8373 75.0179 91.896 75.0179 91.96C75.0285 92.0133 75.0285 92.072 75.0179 92.136C75.0179 92.3067 74.9645 92.4613 74.8579 92.6C74.7299 92.7493 74.5805 92.8453 74.4099 92.888C74.1859 92.984 73.9405 93.032 73.6739 93.032C73.5565 93.0427 73.4339 93.048 73.3059 93.048C73.1779 93.048 73.0552 93.0533 72.9379 93.064H72.8419C72.0099 93.0853 71.1459 93.0853 70.2499 93.064C70.0365 93.064 69.8659 93.0587 69.7379 93.048C69.6099 93.048 69.4925 93.048 69.3859 93.048C69.2899 93.048 69.1885 93.048 69.0819 93.048C68.9752 93.048 68.8365 93.048 68.6659 93.048C68.4205 93.0693 68.2179 93.0267 68.0579 92.92C67.9405 92.8453 67.8499 92.744 67.7859 92.616C67.7539 92.584 67.7379 92.552 67.7379 92.52C67.7272 92.4987 67.7165 92.4827 67.7059 92.472C67.6952 92.4613 67.6845 92.4453 67.6739 92.424C67.6525 92.3707 67.6365 92.3173 67.6259 92.264C67.6152 92.2 67.6099 92.1413 67.6099 92.088C67.5992 92.0347 67.5885 91.9813 67.5779 91.928C67.5779 91.8747 67.5725 91.8213 67.5619 91.768V91.512C67.5619 91.4693 67.5619 91.4267 67.5619 91.384C67.5725 91.3413 67.5779 91.2987 67.5779 91.256V90.008L67.6099 87.704V85.576C67.6099 85.192 67.6099 84.8507 67.6099 84.552C67.6205 84.2533 67.6312 83.928 67.6419 83.576V83.496C67.6525 83.3787 67.6579 83.272 67.6579 83.176C67.6685 83.0693 67.6739 82.9627 67.6739 82.856C67.6845 82.6427 67.7432 82.4347 67.8499 82.232C67.8925 82.1467 67.9352 82.072 67.9779 82.008C68.0312 81.944 68.1005 81.8907 68.1859 81.848C68.3459 81.752 68.5112 81.704 68.6819 81.704C68.7672 81.704 68.8312 81.7093 68.8739 81.72V81.704C69.0659 81.704 69.2205 81.704 69.3379 81.704C69.4552 81.704 69.5672 81.704 69.6739 81.704C69.7912 81.704 69.9139 81.704 70.0419 81.704C70.1699 81.6933 70.3459 81.688 70.5699 81.688C70.9965 81.6773 71.4019 81.672 71.7859 81.672C72.1699 81.672 72.5645 81.6773 72.9699 81.688H73.0339C73.1512 81.6987 73.2739 81.704 73.4019 81.704C73.5299 81.704 73.6525 81.7093 73.7699 81.72C73.8872 81.72 74.0045 81.736 74.1219 81.768C74.2392 81.7893 74.3565 81.8213 74.4739 81.864C74.6552 81.9173 74.8045 82.008 74.9219 82.136C75.0179 82.2853 75.0659 82.4347 75.0659 82.584C75.0659 82.648 75.0659 82.712 75.0659 82.776C75.0659 82.8293 75.0552 82.8827 75.0339 82.936C75.0232 83.0427 74.9592 83.1547 74.8419 83.272C74.7992 83.2933 74.7512 83.32 74.6979 83.352C74.6552 83.384 74.6019 83.4107 74.5379 83.432C74.4739 83.4533 74.4045 83.4693 74.3299 83.48C74.2659 83.48 74.2019 83.4853 74.1379 83.496C74.0525 83.5173 73.9725 83.528 73.8979 83.528C73.8339 83.528 73.7592 83.528 73.6739 83.528H72.9539L69.7539 83.544V83.592Z" fill="#FAFAFA"/>
</g>
<defs>
<clipPath id="clip0">
<rect width="83" height="95" fill="white"/>
</clipPath>
</defs>
</svg>
