<svg width="111" height="115" viewBox="0 0 111 115" fill="none" xmlns="http://www.w3.org/2000/svg">
<g clip-path="url(#clip0)">
<path d="M56.806 37.6969C44.5506 37.6969 34.5779 46.0737 34.5779 56.3676V75.0383H44.1382C42.087 72.7523 40.9288 69.9694 40.9288 67.0366C40.9288 64.6949 41.6606 62.3924 43.0468 60.3762L54.0554 44.365C55.1903 42.7137 58.4216 42.7137 59.5565 44.365L70.5651 60.3762C72.587 63.3197 73.1824 66.8073 72.2489 70.1935C71.7513 71.993 70.6593 73.5891 69.338 75.0383H79.034V56.3676C79.034 46.0737 69.0613 37.6969 56.806 37.6969Z" fill="#FAFAFA"/>
<path d="M65.0638 63.0435L56.8058 51.0332L48.5478 63.0435C47.7166 64.2495 47.2795 65.6301 47.2795 67.0366C47.2795 67.9707 47.5249 68.8651 47.8893 69.7201C48.081 69.2634 48.2582 68.8007 48.5478 68.378L54.0552 60.3685C55.1902 58.7171 58.4215 58.7171 59.5564 60.3685L65.0607 68.3729C65.3494 68.7949 65.5256 69.2555 65.7174 69.7104C65.8201 69.4648 65.9922 69.241 66.0624 68.9876C66.7911 66.3411 65.923 64.294 65.0638 63.0435Z" fill="#FAFAFA"/>
<path d="M8.96265 26.8502V75.0383H28.2269V56.3677C28.2269 43.1305 41.0466 32.3625 56.8059 32.3625C72.5651 32.3625 85.3849 43.1305 85.3849 56.3677V75.0383H104.649V26.8502H8.96265Z" fill="#FAFAFA"/>
<path d="M59.5561 71.0348L56.8058 67.0339L54.052 71.04C53.776 71.4412 53.6304 71.9022 53.6304 72.3711C53.6304 73.8288 55.03 75.008 56.7587 75.0305C56.818 75.0308 56.8793 75.0161 56.939 75.0155C58.6259 74.9533 59.981 73.803 59.981 72.3711C59.981 71.9022 59.8353 71.4412 59.5561 71.0348Z" fill="#FAFAFA"/>
<path d="M104.649 80.3728H8.96269C5.4551 80.3728 2.61182 82.7611 2.61182 85.7073V88.3745C2.61182 89.8476 4.03357 91.0417 5.78725 91.0417H107.825C109.578 91.0417 111 89.8476 111 88.3745V85.7073C111 82.7611 108.157 80.3728 104.649 80.3728Z" fill="#FAFAFA"/>
<path d="M104.649 10.8468H84.1723L78.699 1.47427C78.1595 0.570433 77.0619 0 75.8585 0H37.7534C36.55 0 35.4524 0.570433 34.9128 1.47427L29.4396 10.8468H8.96269C5.4551 10.8468 2.61182 13.235 2.61182 16.1813V18.8485C2.61182 20.3215 4.03357 21.5157 5.78725 21.5157H107.825C109.578 21.5157 111 20.3215 111 18.8485V16.1813C111 13.235 108.157 10.8468 104.649 10.8468Z" fill="#FAFAFA"/>
<path d="M30.7219 106.312C30.8606 106.621 30.8659 106.925 30.7379 107.224C30.6099 107.512 30.4073 107.779 30.1299 108.024C29.8526 108.269 29.5326 108.483 29.1699 108.664C28.8179 108.845 28.4819 108.973 28.1619 109.048C27.8099 109.123 27.4366 109.155 27.0419 109.144C26.6579 109.144 26.2686 109.096 25.8739 109C25.4899 108.915 25.1113 108.787 24.7379 108.616C24.3753 108.435 24.0393 108.216 23.7299 107.96C23.3566 107.651 23.0633 107.283 22.8499 106.856C22.6473 106.419 22.4979 105.955 22.4019 105.464C22.3059 104.973 22.2526 104.483 22.2419 103.992C22.2419 103.491 22.2579 103.021 22.2899 102.584C22.3219 102.189 22.4019 101.779 22.5299 101.352C22.6579 100.925 22.8339 100.509 23.0579 100.104C23.2926 99.688 23.5699 99.304 23.8899 98.952C24.2206 98.6 24.6046 98.3013 25.0419 98.056C25.3726 97.864 25.7406 97.736 26.1459 97.672C26.5619 97.5973 26.9779 97.5813 27.3939 97.624C27.8206 97.656 28.2206 97.7467 28.5939 97.896C28.9779 98.0347 29.3033 98.2267 29.5699 98.472C29.7406 98.6213 29.9166 98.8293 30.0979 99.096C30.2899 99.3627 30.4286 99.6347 30.5139 99.912C30.5993 100.189 30.5993 100.451 30.5139 100.696C30.4393 100.931 30.2259 101.091 29.8739 101.176C29.7246 101.219 29.5913 101.229 29.4739 101.208C29.3566 101.176 29.2499 101.128 29.1539 101.064C29.0579 100.989 28.9673 100.904 28.8819 100.808C28.7966 100.712 28.7166 100.616 28.6419 100.52C28.3859 100.211 28.0873 100.003 27.7459 99.896C27.4046 99.7787 27.0633 99.752 26.7219 99.816C26.3913 99.8693 26.0766 100.008 25.7779 100.232C25.4899 100.445 25.2659 100.723 25.1059 101.064C24.9353 101.427 24.7966 101.827 24.6899 102.264C24.5939 102.691 24.5406 103.128 24.5299 103.576C24.5193 104.013 24.5566 104.44 24.6419 104.856C24.7379 105.272 24.8979 105.64 25.1219 105.96C25.2926 106.216 25.5006 106.424 25.7459 106.584C26.0019 106.744 26.2739 106.856 26.5619 106.92C26.8499 106.984 27.1379 106.995 27.4259 106.952C27.7246 106.909 28.0126 106.813 28.2899 106.664C28.3753 106.621 28.4659 106.563 28.5619 106.488C28.6686 106.403 28.7753 106.317 28.8819 106.232C28.9886 106.147 29.0953 106.067 29.2019 105.992C29.3193 105.917 29.4419 105.864 29.5699 105.832C29.7619 105.768 29.9699 105.773 30.1939 105.848C30.4286 105.923 30.6046 106.077 30.7219 106.312ZM40.5646 98.456C40.5752 98.5307 40.5806 98.6 40.5806 98.664C40.5806 98.728 40.5806 98.792 40.5806 98.856V99.512L40.4846 107.816V107.976C40.4846 108.04 40.4686 108.136 40.4366 108.264C40.4259 108.317 40.4099 108.376 40.3886 108.44C40.3672 108.493 40.3459 108.552 40.3246 108.616C40.2712 108.744 40.1966 108.84 40.1006 108.904C40.0152 108.989 39.8766 109.048 39.6846 109.08C39.3859 109.144 39.1139 109.117 38.8686 109C38.7299 108.915 38.6339 108.808 38.5806 108.68C38.5592 108.659 38.5379 108.627 38.5166 108.584C38.5166 108.563 38.5059 108.531 38.4846 108.488C38.4632 108.435 38.4472 108.381 38.4366 108.328C38.4259 108.264 38.4152 108.2 38.4046 108.136C38.4046 108.083 38.3992 108.029 38.3886 107.976C38.3886 107.923 38.3832 107.869 38.3726 107.816C38.3512 107.763 38.3406 107.72 38.3406 107.688C38.3406 107.645 38.3406 107.597 38.3406 107.544C38.3619 107.501 38.3726 107.421 38.3726 107.304L38.3886 106.04L38.4046 104.024H37.5406L34.2926 104.04L34.2606 107.816V107.976C34.2606 108.04 34.2446 108.136 34.2126 108.264C34.2019 108.317 34.1859 108.376 34.1646 108.44C34.1432 108.493 34.1219 108.552 34.1006 108.616C34.0472 108.744 33.9726 108.84 33.8766 108.904C33.7912 108.989 33.6526 109.048 33.4606 109.08C33.1619 109.144 32.8899 109.117 32.6446 109C32.5379 108.936 32.4366 108.829 32.3406 108.68C32.3192 108.637 32.3086 108.605 32.3086 108.584L32.2606 108.488C32.2392 108.435 32.2232 108.381 32.2126 108.328C32.2019 108.264 32.1912 108.2 32.1806 108.136C32.1806 108.083 32.1752 108.029 32.1646 107.976C32.1539 107.923 32.1432 107.869 32.1326 107.816C32.1219 107.731 32.1219 107.64 32.1326 107.544V107.304L32.1486 106.04L32.1806 103.688C32.1912 103.347 32.1966 102.995 32.1966 102.632C32.1966 102.269 32.1966 101.896 32.1966 101.512C32.1859 101.128 32.1806 100.787 32.1806 100.488C32.1912 100.189 32.2072 99.8533 32.2286 99.48V99.416C32.2392 99.3093 32.2446 99.2027 32.2446 99.096C32.2446 98.9787 32.2499 98.8613 32.2606 98.744C32.2712 98.6373 32.2872 98.536 32.3086 98.44C32.3406 98.3333 32.3832 98.2267 32.4366 98.12C32.4686 98.0347 32.5112 97.9653 32.5646 97.912C32.6179 97.848 32.6819 97.7893 32.7566 97.736C32.9272 97.6507 33.0979 97.608 33.2686 97.608C33.3539 97.608 33.4286 97.6133 33.4926 97.624C33.5566 97.624 33.6206 97.6293 33.6846 97.64C33.8126 97.6507 33.9352 97.7147 34.0526 97.832C34.1379 97.9067 34.1966 97.992 34.2286 98.088C34.2819 98.2267 34.3139 98.3493 34.3246 98.456C34.3352 98.5307 34.3406 98.6 34.3406 98.664C34.3406 98.728 34.3406 98.792 34.3406 98.856V99.512L34.3086 102.152C34.3939 102.152 34.4899 102.152 34.5966 102.152C34.7139 102.152 34.8472 102.147 34.9966 102.136C35.5512 102.136 36.1006 102.141 36.6446 102.152C37.1992 102.163 37.7806 102.168 38.3886 102.168H38.4046C38.4046 101.688 38.4046 101.229 38.4046 100.792C38.4152 100.355 38.4312 99.896 38.4526 99.416C38.4526 99.3093 38.4526 99.2027 38.4526 99.096C38.4632 98.9787 38.4739 98.8613 38.4846 98.744C38.4952 98.6373 38.5112 98.536 38.5326 98.44C38.5646 98.3333 38.6072 98.2267 38.6606 98.12C38.6819 98.0347 38.7192 97.9653 38.7726 97.912C38.8366 97.848 38.9112 97.7893 38.9966 97.736C39.1459 97.6507 39.3112 97.608 39.4926 97.608C39.5779 97.608 39.6526 97.6133 39.7166 97.624C39.7912 97.624 39.8552 97.6293 39.9086 97.64C40.0579 97.6613 40.1806 97.7253 40.2766 97.832C40.3619 97.8853 40.4206 97.9707 40.4526 98.088C40.4739 98.152 40.4899 98.216 40.5006 98.28C40.5219 98.3333 40.5432 98.392 40.5646 98.456ZM44.0586 99.592L44.0266 102.104H44.6666C45.1039 102.093 45.4932 102.088 45.8346 102.088C46.1759 102.088 46.5546 102.093 46.9706 102.104H47.0506C47.1786 102.104 47.3012 102.109 47.4186 102.12C47.5466 102.12 47.6692 102.12 47.7866 102.12C47.9146 102.131 48.0372 102.152 48.1546 102.184C48.2719 102.205 48.3892 102.232 48.5066 102.264C48.6879 102.328 48.8372 102.424 48.9546 102.552C49.0612 102.691 49.1146 102.845 49.1146 103.016C49.1146 103.069 49.1146 103.133 49.1146 103.208C49.1146 103.272 49.1039 103.331 49.0826 103.384C49.0612 103.501 48.9919 103.608 48.8746 103.704C48.8212 103.779 48.7199 103.832 48.5706 103.864C48.4319 103.907 48.2932 103.933 48.1546 103.944C48.0052 103.976 47.8559 103.992 47.7066 103.992H46.9546L43.9946 104.008L43.9626 107.144L47.1466 107.176H47.8986C47.9839 107.176 48.0639 107.176 48.1386 107.176C48.2132 107.176 48.2826 107.181 48.3466 107.192C48.4319 107.213 48.5066 107.229 48.5706 107.24C48.6452 107.24 48.7146 107.251 48.7786 107.272C48.9066 107.315 49.0132 107.373 49.0986 107.448C49.2052 107.555 49.2746 107.667 49.3066 107.784C49.3172 107.837 49.3226 107.896 49.3226 107.96C49.3332 108.013 49.3332 108.072 49.3226 108.136C49.3226 108.307 49.2692 108.461 49.1626 108.6C49.0346 108.749 48.8852 108.845 48.7146 108.888C48.4906 108.984 48.2452 109.032 47.9786 109.032C47.8612 109.043 47.7386 109.048 47.6106 109.048C47.4826 109.048 47.3599 109.053 47.2426 109.064H47.1466C46.3146 109.085 45.4506 109.085 44.5546 109.064C44.3412 109.064 44.1706 109.059 44.0426 109.048C43.9146 109.048 43.7972 109.048 43.6906 109.048C43.5946 109.048 43.4932 109.048 43.3866 109.048C43.2799 109.048 43.1412 109.048 42.9706 109.048C42.7252 109.069 42.5226 109.027 42.3626 108.92C42.2452 108.845 42.1546 108.744 42.0906 108.616C42.0586 108.584 42.0426 108.552 42.0426 108.52C42.0319 108.499 42.0212 108.483 42.0106 108.472C41.9999 108.461 41.9892 108.445 41.9786 108.424C41.9572 108.371 41.9412 108.317 41.9306 108.264C41.9199 108.2 41.9146 108.141 41.9146 108.088C41.9039 108.035 41.8932 107.981 41.8826 107.928C41.8826 107.875 41.8772 107.821 41.8666 107.768V107.512C41.8666 107.469 41.8666 107.427 41.8666 107.384C41.8772 107.341 41.8826 107.299 41.8826 107.256V106.008L41.9146 103.704V101.576C41.9146 101.192 41.9146 100.851 41.9146 100.552C41.9252 100.253 41.9359 99.928 41.9466 99.576V99.496C41.9572 99.3787 41.9626 99.272 41.9626 99.176C41.9732 99.0693 41.9786 98.9627 41.9786 98.856C41.9892 98.6427 42.0479 98.4347 42.1546 98.232C42.1972 98.1467 42.2399 98.072 42.2826 98.008C42.3359 97.944 42.4052 97.8907 42.4906 97.848C42.6506 97.752 42.8159 97.704 42.9866 97.704C43.0719 97.704 43.1359 97.7093 43.1786 97.72V97.704C43.3706 97.704 43.5252 97.704 43.6426 97.704C43.7599 97.704 43.8719 97.704 43.9786 97.704C44.0959 97.704 44.2186 97.704 44.3466 97.704C44.4746 97.6933 44.6506 97.688 44.8746 97.688C45.3012 97.6773 45.7066 97.672 46.0906 97.672C46.4746 97.672 46.8692 97.6773 47.2746 97.688H47.3386C47.4559 97.6987 47.5786 97.704 47.7066 97.704C47.8346 97.704 47.9572 97.7093 48.0746 97.72C48.1919 97.72 48.3092 97.736 48.4266 97.768C48.5439 97.7893 48.6612 97.8213 48.7786 97.864C48.9599 97.9173 49.1092 98.008 49.2266 98.136C49.3226 98.2853 49.3706 98.4347 49.3706 98.584C49.3706 98.648 49.3706 98.712 49.3706 98.776C49.3706 98.8293 49.3599 98.8827 49.3386 98.936C49.3279 99.0427 49.2639 99.1547 49.1466 99.272C49.1039 99.2933 49.0559 99.32 49.0026 99.352C48.9599 99.384 48.9066 99.4107 48.8426 99.432C48.7786 99.4533 48.7092 99.4693 48.6346 99.48C48.5706 99.48 48.5066 99.4853 48.4426 99.496C48.3572 99.5173 48.2772 99.528 48.2026 99.528C48.1386 99.528 48.0639 99.528 47.9786 99.528H47.2586L44.0586 99.544V99.592ZM60.3918 107.848C60.3811 107.976 60.3651 108.109 60.3438 108.248C60.3225 108.387 60.2851 108.515 60.2318 108.632C60.1785 108.76 60.1091 108.856 60.0238 108.92C59.9065 109.027 59.7678 109.085 59.6078 109.096C59.4585 109.149 59.3145 109.165 59.1758 109.144C59.0371 109.123 58.9091 109.085 58.7918 109.032C58.6425 108.936 58.5305 108.824 58.4558 108.696C58.3918 108.557 58.3438 108.413 58.3118 108.264C58.2798 108.115 58.2638 107.96 58.2638 107.8C58.2638 107.64 58.2638 107.491 58.2638 107.352V106.104L58.2478 103.656C58.2478 103.485 58.2478 103.352 58.2478 103.256C58.2478 103.16 58.2478 103.075 58.2478 103C58.2478 102.915 58.2425 102.824 58.2318 102.728C58.2318 102.621 58.2318 102.472 58.2318 102.28C58.2318 102.248 58.2318 102.195 58.2318 102.12C58.2425 102.035 58.2371 101.816 58.2158 101.464C57.7998 102.157 57.4531 102.717 57.1758 103.144C56.9091 103.56 56.6798 103.885 56.4878 104.12C56.3065 104.344 56.1465 104.499 56.0078 104.584C55.8691 104.659 55.7251 104.701 55.5758 104.712C55.4905 104.723 55.4051 104.707 55.3198 104.664C55.2345 104.621 55.1491 104.568 55.0638 104.504C54.9891 104.44 54.9145 104.376 54.8398 104.312C54.7758 104.237 54.7225 104.168 54.6798 104.104C54.4238 103.784 54.1358 103.4 53.8158 102.952C53.4958 102.504 53.1651 101.96 52.8238 101.32C52.8238 101.331 52.8185 101.507 52.8078 101.848C52.8078 102.189 52.8078 102.616 52.8078 103.128C52.8078 103.629 52.8025 104.173 52.7918 104.76C52.7918 105.336 52.7865 105.875 52.7758 106.376C52.7758 106.877 52.7705 107.299 52.7598 107.64C52.7491 107.971 52.7385 108.136 52.7278 108.136C52.7278 108.317 52.6851 108.488 52.5998 108.648C52.5145 108.797 52.3971 108.92 52.2478 109.016C52.1091 109.112 51.9438 109.165 51.7518 109.176C51.5598 109.187 51.3518 109.133 51.1278 109.016C50.9891 108.931 50.8825 108.808 50.8078 108.648C50.7438 108.488 50.7011 108.339 50.6798 108.2C50.6691 108.051 50.6585 107.907 50.6478 107.768C50.6478 107.629 50.6478 107.485 50.6478 107.336L50.6638 106.088L50.6798 103.624V101.48C50.6798 100.552 50.7118 99.64 50.7758 98.744C50.7758 98.6267 50.7865 98.52 50.8078 98.424C50.8398 98.3173 50.8771 98.216 50.9198 98.12C51.0051 97.9493 51.1171 97.8213 51.2558 97.736C51.4158 97.64 51.5865 97.592 51.7678 97.592C51.8425 97.592 51.9118 97.5973 51.9758 97.608C52.0505 97.608 52.1198 97.6133 52.1838 97.624C52.3971 97.6667 52.5785 97.7947 52.7278 98.008C52.8878 98.2107 53.0371 98.3867 53.1758 98.536C53.2611 98.632 53.3518 98.7493 53.4478 98.888C53.5438 99.0267 53.6398 99.1707 53.7358 99.32C53.8318 99.4693 53.9225 99.6133 54.0078 99.752C54.0931 99.8907 54.1678 100.013 54.2318 100.12C54.5091 100.568 54.7545 100.979 54.9678 101.352C55.1918 101.725 55.3998 102.045 55.5918 102.312C55.6238 102.28 55.6611 102.237 55.7038 102.184C55.7465 102.12 55.7891 102.056 55.8318 101.992C55.8851 101.917 55.9278 101.848 55.9598 101.784C56.0025 101.72 56.0345 101.667 56.0558 101.624C56.1625 101.453 56.2691 101.288 56.3758 101.128C56.4825 100.957 56.5945 100.781 56.7118 100.6C56.8398 100.408 56.9678 100.2 57.0958 99.976C57.2345 99.752 57.3945 99.496 57.5758 99.208C57.6505 99.08 57.7465 98.9253 57.8638 98.744C57.9811 98.5627 58.1145 98.3867 58.2638 98.216C58.4131 98.0453 58.5678 97.9013 58.7278 97.784C58.8985 97.656 59.0691 97.592 59.2398 97.592C59.3251 97.592 59.3998 97.5973 59.4638 97.608C59.5278 97.608 59.5918 97.6133 59.6558 97.624C59.7838 97.6347 59.9065 97.6933 60.0238 97.8C60.1091 97.8853 60.1731 97.976 60.2158 98.072C60.2585 98.2107 60.2851 98.328 60.2958 98.424C60.3065 98.4987 60.3118 98.568 60.3118 98.632C60.3225 98.696 60.3278 98.76 60.3278 98.824C60.3278 99.4213 60.3331 100.013 60.3438 100.6C60.3545 101.187 60.3598 101.779 60.3598 102.376C60.3598 103.101 60.3598 103.848 60.3598 104.616C60.3705 105.384 60.3758 106.131 60.3758 106.856C60.3758 107.005 60.3811 107.165 60.3918 107.336C60.4025 107.507 60.4025 107.677 60.3918 107.848ZM62.1907 107.304L62.2067 106.04L62.2227 103.688C62.2334 103.347 62.2387 102.995 62.2387 102.632C62.2387 102.269 62.2387 101.896 62.2387 101.512C62.2387 101.128 62.2387 100.787 62.2387 100.488C62.2387 100.189 62.2494 99.8533 62.2707 99.48V99.416C62.2814 99.3093 62.2867 99.2027 62.2867 99.096C62.2974 98.9787 62.3027 98.8613 62.3027 98.744C62.3134 98.552 62.372 98.344 62.4787 98.12C62.5534 97.9707 62.6654 97.8427 62.8147 97.736C62.9854 97.6507 63.1507 97.608 63.3107 97.608C63.396 97.608 63.4707 97.6133 63.5347 97.624C63.6094 97.624 63.6787 97.6293 63.7427 97.64C63.8814 97.6613 64.004 97.7253 64.1107 97.832C64.1747 97.8853 64.2334 97.9707 64.2867 98.088C64.308 98.152 64.324 98.216 64.3347 98.28C64.356 98.3333 64.372 98.392 64.3827 98.456C64.3934 98.5307 64.3987 98.6 64.3987 98.664C64.4094 98.728 64.4147 98.792 64.4147 98.856C64.4147 98.9307 64.4094 99 64.3987 99.064C64.3987 99.1173 64.3987 99.176 64.3987 99.24V99.512L64.3027 107.816V107.976C64.3027 108.008 64.2974 108.051 64.2867 108.104C64.2867 108.147 64.2814 108.2 64.2707 108.264C64.2494 108.317 64.228 108.376 64.2067 108.44C64.196 108.493 64.18 108.552 64.1587 108.616C64.1267 108.669 64.0894 108.723 64.0467 108.776C64.0147 108.819 63.972 108.861 63.9187 108.904C63.8334 108.989 63.6947 109.048 63.5027 109.08C63.2147 109.144 62.9427 109.117 62.6867 109C62.5587 108.915 62.468 108.808 62.4147 108.68C62.3827 108.648 62.3667 108.616 62.3667 108.584C62.356 108.563 62.3454 108.547 62.3347 108.536C62.324 108.525 62.3134 108.509 62.3027 108.488C62.2814 108.435 62.2654 108.381 62.2547 108.328C62.244 108.264 62.2387 108.2 62.2387 108.136C62.228 108.083 62.2174 108.029 62.2067 107.976C62.2067 107.923 62.2014 107.869 62.1907 107.816C62.18 107.731 62.18 107.64 62.1907 107.544V107.304ZM74.8831 107.784C74.8724 107.965 74.8457 108.157 74.8031 108.36C74.7711 108.563 74.6697 108.728 74.4991 108.856C74.3711 108.963 74.2271 109.027 74.0671 109.048C73.9071 109.069 73.7471 109.059 73.5871 109.016C73.4377 108.984 73.2937 108.931 73.1551 108.856C73.0164 108.771 72.9044 108.669 72.8191 108.552C72.4564 108.104 72.1204 107.645 71.8111 107.176C71.5124 106.696 71.2084 106.216 70.8991 105.736L69.5551 103.704C69.3737 103.416 69.1817 103.096 68.9791 102.744C68.7764 102.381 68.5684 102.045 68.3551 101.736L68.3071 107.848V107.992C68.3071 108.163 68.2751 108.333 68.2111 108.504C68.1577 108.664 68.0617 108.803 67.9231 108.92C67.8164 109.005 67.6777 109.064 67.5071 109.096C67.2404 109.149 67.0164 109.133 66.8351 109.048C66.6644 108.963 66.5257 108.845 66.4191 108.696C66.3231 108.547 66.2537 108.376 66.2111 108.184C66.1791 107.981 66.1737 107.784 66.1951 107.592V107.32L66.2271 106.072L66.2431 103.752C66.2537 103.411 66.2591 103.064 66.2591 102.712C66.2591 102.349 66.2591 101.981 66.2591 101.608C66.2484 101.149 66.2484 100.664 66.2591 100.152C66.2804 99.64 66.3017 99.16 66.3231 98.712C66.3444 98.4667 66.4031 98.2587 66.4991 98.088C66.5417 97.9387 66.6537 97.8107 66.8351 97.704C66.9524 97.6293 67.1017 97.5813 67.2831 97.56C67.4751 97.5387 67.6404 97.544 67.7791 97.576C67.8324 97.5973 67.8857 97.624 67.9391 97.656C67.9924 97.6773 68.0457 97.704 68.0991 97.736C68.1524 97.7787 68.2004 97.8213 68.2431 97.864C68.2964 97.9067 68.3444 97.9547 68.3871 98.008C68.4404 98.0613 68.4884 98.12 68.5311 98.184C68.5737 98.2373 68.6164 98.2907 68.6591 98.344C68.6911 98.408 68.7231 98.4667 68.7551 98.52C68.7871 98.5733 68.8244 98.6267 68.8671 98.68L69.0431 98.936L72.7391 104.76V103.704C72.7391 103.363 72.7337 103.016 72.7231 102.664C72.7231 102.301 72.7177 101.928 72.7071 101.544C72.7071 101.096 72.7071 100.616 72.7071 100.104C72.7177 99.592 72.7337 99.112 72.7551 98.664C72.7551 98.4827 72.8084 98.2747 72.9151 98.04C72.9684 97.9013 73.0591 97.7893 73.1871 97.704C73.3151 97.6187 73.4591 97.56 73.6191 97.528C73.7791 97.496 73.9391 97.496 74.0991 97.528C74.2591 97.56 74.3977 97.624 74.5151 97.72C74.5471 97.752 74.5791 97.7893 74.6111 97.832C74.6431 97.8747 74.6697 97.9227 74.6911 97.976C74.7444 98.1147 74.7764 98.2373 74.7871 98.344C74.8191 98.4933 74.8351 98.6267 74.8351 98.744C74.8351 100.077 74.8351 101.437 74.8351 102.824C74.8457 104.211 74.8564 105.571 74.8671 106.904C74.8671 107.053 74.8724 107.203 74.8831 107.352C74.8937 107.491 74.8937 107.635 74.8831 107.784ZM78.6836 99.592L78.6516 102.104H79.2916C79.7289 102.093 80.1182 102.088 80.4596 102.088C80.8009 102.088 81.1796 102.093 81.5956 102.104H81.6756C81.8036 102.104 81.9262 102.109 82.0436 102.12C82.1716 102.12 82.2942 102.12 82.4116 102.12C82.5396 102.131 82.6622 102.152 82.7796 102.184C82.8969 102.205 83.0142 102.232 83.1316 102.264C83.3129 102.328 83.4622 102.424 83.5796 102.552C83.6862 102.691 83.7396 102.845 83.7396 103.016C83.7396 103.069 83.7396 103.133 83.7396 103.208C83.7396 103.272 83.7289 103.331 83.7076 103.384C83.6862 103.501 83.6169 103.608 83.4996 103.704C83.4462 103.779 83.3449 103.832 83.1956 103.864C83.0569 103.907 82.9182 103.933 82.7796 103.944C82.6302 103.976 82.4809 103.992 82.3316 103.992H81.5796L78.6196 104.008L78.5876 107.144L81.7716 107.176H82.5236C82.6089 107.176 82.6889 107.176 82.7636 107.176C82.8382 107.176 82.9076 107.181 82.9716 107.192C83.0569 107.213 83.1316 107.229 83.1956 107.24C83.2702 107.24 83.3396 107.251 83.4036 107.272C83.5316 107.315 83.6382 107.373 83.7236 107.448C83.8302 107.555 83.8996 107.667 83.9316 107.784C83.9422 107.837 83.9476 107.896 83.9476 107.96C83.9582 108.013 83.9582 108.072 83.9476 108.136C83.9476 108.307 83.8942 108.461 83.7876 108.6C83.6596 108.749 83.5102 108.845 83.3396 108.888C83.1156 108.984 82.8702 109.032 82.6036 109.032C82.4862 109.043 82.3636 109.048 82.2356 109.048C82.1076 109.048 81.9849 109.053 81.8676 109.064H81.7716C80.9396 109.085 80.0756 109.085 79.1796 109.064C78.9662 109.064 78.7956 109.059 78.6676 109.048C78.5396 109.048 78.4222 109.048 78.3156 109.048C78.2196 109.048 78.1182 109.048 78.0116 109.048C77.9049 109.048 77.7662 109.048 77.5956 109.048C77.3502 109.069 77.1476 109.027 76.9876 108.92C76.8702 108.845 76.7796 108.744 76.7156 108.616C76.6836 108.584 76.6676 108.552 76.6676 108.52C76.6569 108.499 76.6462 108.483 76.6356 108.472C76.6249 108.461 76.6142 108.445 76.6036 108.424C76.5822 108.371 76.5662 108.317 76.5556 108.264C76.5449 108.2 76.5396 108.141 76.5396 108.088C76.5289 108.035 76.5182 107.981 76.5076 107.928C76.5076 107.875 76.5022 107.821 76.4916 107.768V107.512C76.4916 107.469 76.4916 107.427 76.4916 107.384C76.5022 107.341 76.5076 107.299 76.5076 107.256V106.008L76.5396 103.704V101.576C76.5396 101.192 76.5396 100.851 76.5396 100.552C76.5502 100.253 76.5609 99.928 76.5716 99.576V99.496C76.5822 99.3787 76.5876 99.272 76.5876 99.176C76.5982 99.0693 76.6036 98.9627 76.6036 98.856C76.6142 98.6427 76.6729 98.4347 76.7796 98.232C76.8222 98.1467 76.8649 98.072 76.9076 98.008C76.9609 97.944 77.0302 97.8907 77.1156 97.848C77.2756 97.752 77.4409 97.704 77.6116 97.704C77.6969 97.704 77.7609 97.7093 77.8036 97.72V97.704C77.9956 97.704 78.1502 97.704 78.2676 97.704C78.3849 97.704 78.4969 97.704 78.6036 97.704C78.7209 97.704 78.8436 97.704 78.9716 97.704C79.0996 97.6933 79.2756 97.688 79.4996 97.688C79.9262 97.6773 80.3316 97.672 80.7156 97.672C81.0996 97.672 81.4942 97.6773 81.8996 97.688H81.9636C82.0809 97.6987 82.2036 97.704 82.3316 97.704C82.4596 97.704 82.5822 97.7093 82.6996 97.72C82.8169 97.72 82.9342 97.736 83.0516 97.768C83.1689 97.7893 83.2862 97.8213 83.4036 97.864C83.5849 97.9173 83.7342 98.008 83.8516 98.136C83.9476 98.2853 83.9956 98.4347 83.9956 98.584C83.9956 98.648 83.9956 98.712 83.9956 98.776C83.9956 98.8293 83.9849 98.8827 83.9636 98.936C83.9529 99.0427 83.8889 99.1547 83.7716 99.272C83.7289 99.2933 83.6809 99.32 83.6276 99.352C83.5849 99.384 83.5316 99.4107 83.4676 99.432C83.4036 99.4533 83.3342 99.4693 83.2596 99.48C83.1956 99.48 83.1316 99.4853 83.0676 99.496C82.9822 99.5173 82.9022 99.528 82.8276 99.528C82.7636 99.528 82.6889 99.528 82.6036 99.528H81.8836L78.6836 99.544V99.592ZM87.4648 99.592L87.4328 102.104H88.0728C88.5101 102.093 88.8995 102.088 89.2408 102.088C89.5821 102.088 89.9608 102.093 90.3768 102.104H90.4568C90.5848 102.104 90.7075 102.109 90.8248 102.12C90.9528 102.12 91.0755 102.12 91.1928 102.12C91.3208 102.131 91.4435 102.152 91.5608 102.184C91.6781 102.205 91.7955 102.232 91.9128 102.264C92.0941 102.328 92.2435 102.424 92.3608 102.552C92.4675 102.691 92.5208 102.845 92.5208 103.016C92.5208 103.069 92.5208 103.133 92.5208 103.208C92.5208 103.272 92.5101 103.331 92.4888 103.384C92.4675 103.501 92.3981 103.608 92.2808 103.704C92.2275 103.779 92.1261 103.832 91.9768 103.864C91.8381 103.907 91.6995 103.933 91.5608 103.944C91.4115 103.976 91.2621 103.992 91.1128 103.992H90.3608L87.4008 104.008L87.3688 107.144L90.5528 107.176H91.3048C91.3901 107.176 91.4701 107.176 91.5448 107.176C91.6195 107.176 91.6888 107.181 91.7528 107.192C91.8381 107.213 91.9128 107.229 91.9768 107.24C92.0515 107.24 92.1208 107.251 92.1848 107.272C92.3128 107.315 92.4195 107.373 92.5048 107.448C92.6115 107.555 92.6808 107.667 92.7128 107.784C92.7235 107.837 92.7288 107.896 92.7288 107.96C92.7395 108.013 92.7395 108.072 92.7288 108.136C92.7288 108.307 92.6755 108.461 92.5688 108.6C92.4408 108.749 92.2915 108.845 92.1208 108.888C91.8968 108.984 91.6515 109.032 91.3848 109.032C91.2675 109.043 91.1448 109.048 91.0168 109.048C90.8888 109.048 90.7661 109.053 90.6488 109.064H90.5528C89.7208 109.085 88.8568 109.085 87.9608 109.064C87.7475 109.064 87.5768 109.059 87.4488 109.048C87.3208 109.048 87.2035 109.048 87.0968 109.048C87.0008 109.048 86.8995 109.048 86.7928 109.048C86.6861 109.048 86.5475 109.048 86.3768 109.048C86.1315 109.069 85.9288 109.027 85.7688 108.92C85.6515 108.845 85.5608 108.744 85.4968 108.616C85.4648 108.584 85.4488 108.552 85.4488 108.52C85.4381 108.499 85.4275 108.483 85.4168 108.472C85.4061 108.461 85.3955 108.445 85.3848 108.424C85.3635 108.371 85.3475 108.317 85.3368 108.264C85.3261 108.2 85.3208 108.141 85.3208 108.088C85.3101 108.035 85.2995 107.981 85.2888 107.928C85.2888 107.875 85.2835 107.821 85.2728 107.768V107.512C85.2728 107.469 85.2728 107.427 85.2728 107.384C85.2835 107.341 85.2888 107.299 85.2888 107.256V106.008L85.3208 103.704V101.576C85.3208 101.192 85.3208 100.851 85.3208 100.552C85.3315 100.253 85.3421 99.928 85.3528 99.576V99.496C85.3635 99.3787 85.3688 99.272 85.3688 99.176C85.3795 99.0693 85.3848 98.9627 85.3848 98.856C85.3955 98.6427 85.4541 98.4347 85.5608 98.232C85.6035 98.1467 85.6461 98.072 85.6888 98.008C85.7421 97.944 85.8115 97.8907 85.8968 97.848C86.0568 97.752 86.2221 97.704 86.3928 97.704C86.4781 97.704 86.5421 97.7093 86.5848 97.72V97.704C86.7768 97.704 86.9315 97.704 87.0488 97.704C87.1661 97.704 87.2781 97.704 87.3848 97.704C87.5021 97.704 87.6248 97.704 87.7528 97.704C87.8808 97.6933 88.0568 97.688 88.2808 97.688C88.7075 97.6773 89.1128 97.672 89.4968 97.672C89.8808 97.672 90.2755 97.6773 90.6808 97.688H90.7448C90.8621 97.6987 90.9848 97.704 91.1128 97.704C91.2408 97.704 91.3635 97.7093 91.4808 97.72C91.5981 97.72 91.7155 97.736 91.8328 97.768C91.9501 97.7893 92.0675 97.8213 92.1848 97.864C92.3661 97.9173 92.5155 98.008 92.6328 98.136C92.7288 98.2853 92.7768 98.4347 92.7768 98.584C92.7768 98.648 92.7768 98.712 92.7768 98.776C92.7768 98.8293 92.7661 98.8827 92.7448 98.936C92.7341 99.0427 92.6701 99.1547 92.5528 99.272C92.5101 99.2933 92.4621 99.32 92.4088 99.352C92.3661 99.384 92.3128 99.4107 92.2488 99.432C92.1848 99.4533 92.1155 99.4693 92.0408 99.48C91.9768 99.48 91.9128 99.4853 91.8488 99.496C91.7635 99.5173 91.6835 99.528 91.6088 99.528C91.5448 99.528 91.4701 99.528 91.3848 99.528H90.6648L87.4648 99.544V99.592Z" fill="white"/>
</g>
<defs>
<clipPath id="clip0">
<rect width="111" height="115" fill="white"/>
</clipPath>
</defs>
</svg>
