<svg width="75" height="75" viewBox="0 0 75 75" fill="none" xmlns="http://www.w3.org/2000/svg">
<g clip-path="url(#clip0)">
<path d="M36.1942 28.0289C29.68 28.0289 24.3792 32.0352 24.3792 36.9584V45.8879H29.4608C28.3706 44.7946 27.7549 43.4636 27.7549 42.061C27.7549 40.941 28.1439 39.8398 28.8807 38.8756L34.7321 31.218C35.3354 30.4283 37.0529 30.4283 37.6562 31.218L43.5076 38.8756C44.5823 40.2833 44.8988 41.9513 44.4026 43.5708C44.1381 44.4314 43.5576 45.1948 42.8553 45.8879H48.0091V36.9584C48.0091 32.0352 42.7083 28.0289 36.1942 28.0289Z" fill="#FAFAFA"/>
<path d="M40.5835 40.1512L36.1941 34.4072L31.8047 40.1512C31.3629 40.728 31.1306 41.3883 31.1306 42.061C31.1306 42.5077 31.261 42.9355 31.4547 43.3444C31.5566 43.126 31.6508 42.9047 31.8047 42.7025L34.7321 38.8719C35.3353 38.0821 37.0529 38.0821 37.6561 38.8719L40.5818 42.7001C40.7353 42.9019 40.8289 43.1222 40.9309 43.3398C40.9855 43.2223 41.0769 43.1153 41.1143 42.9941C41.5016 41.7284 41.0402 40.7493 40.5835 40.1512Z" fill="#FAFAFA"/>
<path d="M10.7639 22.8414V45.8879H21.0035V36.9585C21.0035 30.6276 27.8176 25.4777 36.1941 25.4777C44.5706 25.4777 51.3848 30.6276 51.3848 36.9585V45.8879H61.6243V22.8414H10.7639Z" fill="#FAFAFA"/>
<path d="M37.656 43.9732L36.1941 42.0597L34.7303 43.9757C34.5836 44.1675 34.5063 44.388 34.5063 44.6123C34.5063 45.3094 35.2502 45.8734 36.169 45.8842C36.2006 45.8843 36.2331 45.8773 36.2649 45.877C37.1615 45.8472 37.8818 45.2971 37.8818 44.6123C37.8818 44.388 37.8044 44.1675 37.656 43.9732Z" fill="#FAFAFA"/>
<path d="M61.6242 48.4392H10.764C8.89957 48.4392 7.38828 49.5814 7.38828 50.9904V52.2661C7.38828 52.9706 8.14398 53.5417 9.07612 53.5417H63.3124C64.2442 53.5417 65 52.9706 65 52.2661V50.9904C65 49.5814 63.4889 48.4392 61.6242 48.4392Z" fill="#FAFAFA"/>
<path d="M61.6242 15.1876H50.7402L47.831 10.7051C47.5442 10.2728 46.9608 10 46.3212 10H26.0671C25.4275 10 24.8441 10.2728 24.5573 10.7051L21.6481 15.1876H10.764C8.89957 15.1876 7.38828 16.3298 7.38828 17.7389V19.0145C7.38828 19.719 8.14398 20.2901 9.07612 20.2901H63.3124C64.2442 20.2901 65 19.719 65 19.0145V17.7389C65 16.3298 63.4889 15.1876 61.6242 15.1876Z" fill="#FAFAFA"/>
<path d="M19.813 60.2125C19.8917 60.3603 19.8947 60.5057 19.8221 60.6487C19.7494 60.7864 19.6344 60.9141 19.477 61.0313C19.3196 61.1485 19.138 61.2508 18.9321 61.3374C18.7323 61.424 18.5416 61.4852 18.36 61.521C18.1602 61.5569 17.9483 61.5722 17.7243 61.567C17.5064 61.567 17.2854 61.544 17.0614 61.4981C16.8435 61.4574 16.6286 61.3962 16.4166 61.3144C16.2108 61.2279 16.0201 61.1231 15.8445 61.0007C15.6327 60.8529 15.4662 60.6769 15.3451 60.4727C15.2301 60.2637 15.1453 60.0418 15.0908 59.807C15.0363 59.5721 15.0061 59.3378 15 59.103C15 58.8633 15.0091 58.6386 15.0272 58.4296C15.0454 58.2407 15.0908 58.0446 15.1635 57.8403C15.2361 57.6361 15.336 57.4372 15.4631 57.2435C15.5963 57.0445 15.7537 56.8609 15.9354 56.6925C16.123 56.5242 16.341 56.3813 16.5892 56.264C16.7769 56.1722 16.9857 56.111 17.2158 56.0803C17.4519 56.0446 17.688 56.037 17.9241 56.0574C18.1663 56.0727 18.3933 56.1161 18.6052 56.1875C18.8231 56.2538 19.0078 56.3456 19.1591 56.463C19.256 56.5344 19.3559 56.6338 19.4588 56.7614C19.5678 56.8889 19.6465 57.019 19.6949 57.1517C19.7434 57.2841 19.7434 57.4094 19.6949 57.5266C19.6526 57.639 19.5315 57.7155 19.3317 57.7562C19.2469 57.7767 19.1713 57.7815 19.1046 57.7715C19.0381 57.7562 18.9775 57.7332 18.923 57.7026C18.8685 57.6667 18.8171 57.6261 18.7686 57.5802C18.7202 57.5343 18.6748 57.4883 18.6324 57.4424C18.4871 57.2947 18.3177 57.1952 18.1239 57.144C17.9302 57.0879 17.7365 57.0751 17.5427 57.1057C17.3551 57.1312 17.1765 57.1976 17.0069 57.3047C16.8435 57.4066 16.7163 57.5395 16.6255 57.7026C16.5287 57.8762 16.45 58.0675 16.3894 58.2765C16.3349 58.4807 16.3047 58.6897 16.2986 58.904C16.2926 59.113 16.3137 59.3172 16.3622 59.5162C16.4166 59.7151 16.5075 59.8911 16.6346 60.0442C16.7315 60.1666 16.8495 60.2661 16.9888 60.3426C17.1341 60.4191 17.2884 60.4727 17.4519 60.5033C17.6154 60.5339 17.7788 60.5392 17.9423 60.5186C18.1118 60.498 18.2753 60.4521 18.4326 60.3809C18.4811 60.3603 18.5325 60.3326 18.587 60.2967C18.6476 60.256 18.7081 60.2149 18.7686 60.1743C18.8292 60.1336 18.8898 60.0954 18.9503 60.0595C19.0169 60.0236 19.0865 59.9983 19.1591 59.983C19.2681 59.9524 19.3862 59.9547 19.5133 59.9906C19.6465 60.0265 19.7464 60.1001 19.813 60.2125ZM25.3994 56.4553C25.4054 56.491 25.4085 56.5242 25.4085 56.5548C25.4085 56.5854 25.4085 56.616 25.4085 56.6466V56.9603L25.354 60.9318V61.0084C25.354 61.039 25.3449 61.0849 25.3267 61.1461C25.3206 61.1714 25.3116 61.1997 25.2995 61.2303C25.2873 61.2556 25.2752 61.2838 25.2632 61.3144C25.2328 61.3757 25.1905 61.4216 25.136 61.4522C25.0875 61.4928 25.0089 61.521 24.8999 61.5364C24.7304 61.567 24.576 61.554 24.4368 61.4981C24.3581 61.4574 24.3036 61.4063 24.2733 61.345C24.2612 61.335 24.2491 61.3197 24.237 61.2991C24.237 61.2891 24.2309 61.2738 24.2188 61.2532C24.2067 61.2279 24.1976 61.202 24.1916 61.1767C24.1855 61.1461 24.1794 61.1155 24.1734 61.0849C24.1734 61.0595 24.1704 61.0337 24.1643 61.0084C24.1643 60.983 24.1613 60.9572 24.1553 60.9318C24.1431 60.9065 24.1371 60.8859 24.1371 60.8706C24.1371 60.85 24.1371 60.8271 24.1371 60.8017C24.1492 60.7812 24.1553 60.7429 24.1553 60.687L24.1643 60.0824L24.1734 59.1183H23.683L21.8396 59.1259L21.8214 60.9318V61.0084C21.8214 61.039 21.8123 61.0849 21.7942 61.1461C21.7881 61.1714 21.779 61.1997 21.7669 61.2303C21.7548 61.2556 21.7427 61.2838 21.7306 61.3144C21.7003 61.3757 21.658 61.4216 21.6035 61.4522C21.555 61.4928 21.4763 61.521 21.3674 61.5364C21.1978 61.567 21.0435 61.554 20.9042 61.4981C20.8437 61.4675 20.7862 61.4163 20.7317 61.345C20.7195 61.3245 20.7135 61.3092 20.7135 61.2991L20.6863 61.2532C20.6741 61.2279 20.6651 61.202 20.659 61.1767C20.653 61.1461 20.6469 61.1155 20.6409 61.0849C20.6409 61.0595 20.6378 61.0337 20.6318 61.0084C20.6257 60.983 20.6197 60.9572 20.6136 60.9318C20.6076 60.8912 20.6076 60.8477 20.6136 60.8017V60.687L20.6227 60.0824L20.6409 58.9576C20.6469 58.7945 20.65 58.6261 20.65 58.4525C20.65 58.2789 20.65 58.1005 20.65 57.9169C20.6439 57.7332 20.6409 57.5701 20.6409 57.4271C20.6469 57.2841 20.656 57.1236 20.6681 56.945V56.9144C20.6741 56.8634 20.6772 56.8124 20.6772 56.7614C20.6772 56.7053 20.6802 56.6491 20.6863 56.593C20.6923 56.542 20.7014 56.4936 20.7135 56.4477C20.7317 56.3966 20.7559 56.3456 20.7862 56.2946C20.8043 56.2538 20.8285 56.2206 20.8588 56.1951C20.8891 56.1645 20.9254 56.1364 20.9678 56.111C21.0646 56.0702 21.1615 56.0497 21.2584 56.0497C21.3068 56.0497 21.3492 56.0523 21.3855 56.0574C21.4219 56.0574 21.4582 56.0599 21.4945 56.065C21.5672 56.0702 21.6367 56.1008 21.7034 56.1569C21.7518 56.1926 21.7851 56.2334 21.8033 56.2793C21.8335 56.3456 21.8517 56.4043 21.8577 56.4553C21.8638 56.491 21.8668 56.5242 21.8668 56.5548C21.8668 56.5854 21.8668 56.616 21.8668 56.6466V56.9603L21.8487 58.223C21.8971 58.223 21.9516 58.223 22.0121 58.223C22.0787 58.223 22.1544 58.2206 22.2392 58.2153C22.5539 58.2153 22.8657 58.2177 23.1745 58.223C23.4893 58.2282 23.8193 58.2306 24.1643 58.2306H24.1734C24.1734 58.001 24.1734 57.7815 24.1734 57.5725C24.1794 57.3635 24.1885 57.144 24.2007 56.9144C24.2007 56.8634 24.2007 56.8124 24.2007 56.7614C24.2067 56.7053 24.2128 56.6491 24.2188 56.593C24.2248 56.542 24.2339 56.4936 24.2461 56.4477C24.2642 56.3966 24.2884 56.3456 24.3187 56.2946C24.3308 56.2538 24.352 56.2206 24.3823 56.1951C24.4186 56.1645 24.461 56.1364 24.5094 56.111C24.5942 56.0702 24.688 56.0497 24.7909 56.0497C24.8394 56.0497 24.8817 56.0523 24.9181 56.0574C24.9604 56.0574 24.9967 56.0599 25.027 56.065C25.1118 56.0752 25.1814 56.1058 25.2359 56.1569C25.2843 56.1824 25.3176 56.2232 25.3358 56.2793C25.3479 56.3099 25.357 56.3405 25.363 56.3711C25.3751 56.3966 25.3872 56.4247 25.3994 56.4553ZM27.3825 56.9986L27.3643 58.2H27.7275C27.9757 58.1947 28.1967 58.1923 28.3905 58.1923C28.5842 58.1923 28.7991 58.1947 29.0352 58.2H29.0806C29.1533 58.2 29.2228 58.2024 29.2895 58.2077C29.3621 58.2077 29.4317 58.2077 29.4983 58.2077C29.571 58.2129 29.6406 58.223 29.7072 58.2383C29.7738 58.2483 29.8404 58.2612 29.907 58.2765C30.0099 58.3071 30.0946 58.353 30.1613 58.4143C30.2218 58.4807 30.2521 58.5544 30.2521 58.6362C30.2521 58.6615 30.2521 58.6921 30.2521 58.728C30.2521 58.7586 30.246 58.7868 30.2339 58.8122C30.2218 58.8681 30.1824 58.9193 30.1159 58.9652C30.0855 59.0011 30.0281 59.0264 29.9433 59.0417C29.8646 59.0623 29.7859 59.0747 29.7072 59.08C29.6224 59.0953 29.5377 59.103 29.4529 59.103H29.0261L27.3461 59.1106L27.328 60.6104L29.1351 60.6257H29.5619C29.6103 60.6257 29.6557 60.6257 29.6981 60.6257C29.7405 60.6257 29.7799 60.6281 29.8162 60.6334C29.8646 60.6434 29.907 60.6511 29.9433 60.6564C29.9857 60.6564 30.025 60.6616 30.0614 60.6717C30.134 60.6922 30.1945 60.72 30.243 60.7558C30.3035 60.807 30.3429 60.8606 30.361 60.9165C30.3671 60.9419 30.3701 60.9701 30.3701 61.0007C30.3761 61.026 30.3761 61.0543 30.3701 61.0849C30.3701 61.1667 30.3398 61.2403 30.2793 61.3068C30.2067 61.378 30.1219 61.424 30.025 61.4445C29.8979 61.4904 29.7586 61.5134 29.6073 61.5134C29.5407 61.5187 29.4711 61.521 29.3985 61.521C29.3258 61.521 29.2562 61.5234 29.1896 61.5287H29.1351C28.6629 61.5387 28.1725 61.5387 27.664 61.5287C27.5428 61.5287 27.446 61.5263 27.3734 61.521C27.3007 61.521 27.2341 61.521 27.1736 61.521C27.1191 61.521 27.0615 61.521 27.001 61.521C26.9405 61.521 26.8618 61.521 26.7649 61.521C26.6257 61.5311 26.5107 61.511 26.4199 61.4598C26.3532 61.424 26.3018 61.3757 26.2655 61.3144C26.2473 61.2991 26.2382 61.2838 26.2382 61.2685C26.2322 61.2585 26.2261 61.2508 26.2201 61.2456C26.214 61.2403 26.2079 61.2327 26.2019 61.2226C26.1898 61.1973 26.1807 61.1714 26.1747 61.1461C26.1686 61.1155 26.1656 61.0873 26.1656 61.0619C26.1595 61.0366 26.1534 61.0107 26.1474 60.9854C26.1474 60.96 26.1444 60.9342 26.1383 60.9089V60.7864C26.1383 60.7659 26.1383 60.7458 26.1383 60.7252C26.1444 60.7047 26.1474 60.6846 26.1474 60.664V60.0671L26.1656 58.9652V57.9475C26.1656 57.7638 26.1656 57.6007 26.1656 57.4577C26.1716 57.3147 26.1777 57.1593 26.1838 56.991V56.9527C26.1898 56.8966 26.1928 56.8456 26.1928 56.7997C26.1988 56.7486 26.2019 56.6976 26.2019 56.6466C26.2079 56.5446 26.2412 56.4451 26.3018 56.3482C26.326 56.3074 26.3502 56.2717 26.3745 56.241C26.4047 56.2104 26.444 56.1849 26.4925 56.1645C26.5833 56.1186 26.6771 56.0957 26.774 56.0957C26.8224 56.0957 26.8588 56.0982 26.883 56.1033V56.0957C26.992 56.0957 27.0797 56.0957 27.1463 56.0957C27.2129 56.0957 27.2765 56.0957 27.337 56.0957C27.4036 56.0957 27.4733 56.0957 27.5459 56.0957C27.6186 56.0905 27.7185 56.088 27.8456 56.088C28.0877 56.0829 28.3178 56.0803 28.5357 56.0803C28.7537 56.0803 28.9777 56.0829 29.2077 56.088H29.2441C29.3106 56.0931 29.3803 56.0957 29.4529 56.0957C29.5256 56.0957 29.5952 56.0982 29.6618 56.1033C29.7284 56.1033 29.795 56.111 29.8616 56.1263C29.9282 56.1364 29.9947 56.1518 30.0614 56.1722C30.1643 56.1977 30.249 56.241 30.3156 56.3023C30.3701 56.3737 30.3974 56.4451 30.3974 56.5165C30.3974 56.5471 30.3974 56.5777 30.3974 56.6083C30.3974 56.6338 30.3913 56.6594 30.3792 56.6849C30.3731 56.7359 30.3368 56.7895 30.2702 56.8456C30.246 56.8558 30.2188 56.8685 30.1885 56.8838C30.1643 56.8991 30.134 56.9119 30.0977 56.9221C30.0614 56.9323 30.022 56.9399 29.9796 56.945C29.9433 56.945 29.907 56.9476 29.8707 56.9527C29.8222 56.9629 29.7768 56.968 29.7345 56.968C29.6981 56.968 29.6557 56.968 29.6073 56.968H29.1987L27.3825 56.9757V56.9986ZM36.6526 60.9471C36.6466 61.0084 36.6375 61.072 36.6254 61.1384C36.6133 61.2049 36.5921 61.2661 36.5618 61.3221C36.5316 61.3833 36.4922 61.4292 36.4438 61.4598C36.3772 61.511 36.2985 61.5387 36.2077 61.544C36.1229 61.5694 36.0412 61.577 35.9625 61.567C35.8838 61.5569 35.8111 61.5387 35.7445 61.5134C35.6598 61.4675 35.5962 61.4139 35.5538 61.3527C35.5175 61.2862 35.4903 61.2174 35.4721 61.1461C35.4539 61.0748 35.4449 61.0007 35.4449 60.9242C35.4449 60.8477 35.4449 60.7764 35.4449 60.7099V60.113L35.4358 58.9423C35.4358 58.8605 35.4358 58.7969 35.4358 58.751C35.4358 58.705 35.4358 58.6644 35.4358 58.6285C35.4358 58.5879 35.4328 58.5443 35.4267 58.4984C35.4267 58.4473 35.4267 58.376 35.4267 58.2842C35.4267 58.2689 35.4267 58.2435 35.4267 58.2077C35.4328 58.167 35.4297 58.0623 35.4176 57.8939C35.1815 58.2253 34.9847 58.4932 34.8273 58.6974C34.676 58.8963 34.5458 59.0518 34.4369 59.1642C34.334 59.2713 34.2432 59.3454 34.1644 59.3861C34.0857 59.422 34.004 59.442 33.9192 59.4473C33.8708 59.4526 33.8224 59.4449 33.7739 59.4244C33.7255 59.4038 33.6771 59.3784 33.6286 59.3478C33.5862 59.3172 33.5439 59.2866 33.5015 59.256C33.4652 59.2201 33.4349 59.1871 33.4107 59.1565C33.2654 59.0035 33.1019 58.8198 32.9203 58.6056C32.7387 58.3913 32.551 58.1311 32.3573 57.825C32.3573 57.8303 32.3543 57.9145 32.3482 58.0776C32.3482 58.2407 32.3482 58.4449 32.3482 58.6897C32.3482 58.9293 32.3452 59.1895 32.3391 59.4703C32.3391 59.7457 32.3361 60.0035 32.3301 60.2431C32.3301 60.4827 32.327 60.6846 32.321 60.8477C32.3149 61.006 32.3089 61.0849 32.3028 61.0849C32.3028 61.1714 32.2786 61.2532 32.2302 61.3297C32.1817 61.401 32.1151 61.4598 32.0304 61.5057C31.9517 61.5517 31.8578 61.577 31.7489 61.5823C31.6399 61.5875 31.5218 61.5617 31.3947 61.5057C31.316 61.4651 31.2555 61.4063 31.2131 61.3297C31.1768 61.2532 31.1525 61.182 31.1404 61.1155C31.1344 61.0442 31.1283 60.9754 31.1223 60.9089C31.1223 60.8424 31.1223 60.7735 31.1223 60.7023L31.1313 60.1054L31.1404 58.927V57.9016C31.1404 57.4577 31.1586 57.0216 31.1949 56.593C31.1949 56.5369 31.201 56.4859 31.2131 56.44C31.2312 56.389 31.2524 56.3405 31.2766 56.2946C31.3251 56.213 31.3886 56.1518 31.4673 56.111C31.5582 56.065 31.655 56.0421 31.7579 56.0421C31.8003 56.0421 31.8397 56.0446 31.876 56.0497C31.9184 56.0497 31.9577 56.0523 31.9941 56.0574C32.1151 56.0778 32.2181 56.139 32.3028 56.241C32.3936 56.338 32.4784 56.4222 32.5571 56.4936C32.6055 56.5395 32.657 56.5956 32.7115 56.6619C32.7659 56.7282 32.8204 56.7971 32.8749 56.8685C32.9294 56.9399 32.9809 57.0088 33.0293 57.0751C33.0777 57.1415 33.1201 57.2 33.1564 57.2511C33.3138 57.4654 33.4531 57.662 33.5742 57.8403C33.7013 58.0187 33.8193 58.1718 33.9283 58.2995C33.9465 58.2842 33.9677 58.2636 33.9919 58.2383C34.0161 58.2077 34.0403 58.177 34.0645 58.1464C34.0948 58.1106 34.119 58.0776 34.1372 58.047C34.1614 58.0163 34.1796 57.991 34.1917 57.9704C34.2522 57.8887 34.3127 57.8097 34.3733 57.7332C34.4339 57.6514 34.4974 57.5673 34.564 57.4807C34.6366 57.3889 34.7093 57.2894 34.7819 57.1823C34.8607 57.0751 34.9515 56.9527 35.0544 56.815C35.0968 56.7537 35.1513 56.6798 35.2178 56.593C35.2844 56.5063 35.3601 56.4222 35.4449 56.3405C35.5296 56.2589 35.6174 56.19 35.7082 56.1339C35.8051 56.0727 35.9019 56.0421 35.9988 56.0421C36.0472 56.0421 36.0896 56.0446 36.1259 56.0497C36.1623 56.0497 36.1986 56.0523 36.2349 56.0574C36.3076 56.0625 36.3772 56.0905 36.4438 56.1416C36.4922 56.1824 36.5285 56.2257 36.5528 56.2717C36.577 56.338 36.5921 56.3941 36.5982 56.44C36.6042 56.4757 36.6072 56.5089 36.6072 56.5395C36.6133 56.5701 36.6163 56.6007 36.6163 56.6313C36.6163 56.917 36.6193 57.2 36.6254 57.4807C36.6315 57.7614 36.6345 58.0446 36.6345 58.3301C36.6345 58.6768 36.6345 59.0341 36.6345 59.4014C36.6406 59.7687 36.6436 60.126 36.6436 60.4727C36.6436 60.544 36.6466 60.6205 36.6526 60.7023C36.6587 60.784 36.6587 60.8654 36.6526 60.9471ZM37.6736 60.687L37.6827 60.0824L37.6918 58.9576C37.6979 58.7945 37.7009 58.6261 37.7009 58.4525C37.7009 58.2789 37.7009 58.1005 37.7009 57.9169C37.7009 57.7332 37.7009 57.5701 37.7009 57.4271C37.7009 57.2841 37.707 57.1236 37.719 56.945V56.9144C37.7251 56.8634 37.7281 56.8124 37.7281 56.7614C37.7342 56.7053 37.7372 56.6491 37.7372 56.593C37.7433 56.5012 37.7765 56.4017 37.8371 56.2946C37.8795 56.2232 37.9431 56.162 38.0278 56.111C38.1247 56.0702 38.2185 56.0497 38.3093 56.0497C38.3577 56.0497 38.4001 56.0523 38.4365 56.0574C38.4789 56.0574 38.5182 56.0599 38.5545 56.065C38.6332 56.0752 38.7028 56.1058 38.7634 56.1569C38.7997 56.1824 38.833 56.2232 38.8633 56.2793C38.8754 56.3099 38.8844 56.3405 38.8905 56.3711C38.9026 56.3966 38.9117 56.4247 38.9178 56.4553C38.9238 56.491 38.9268 56.5242 38.9268 56.5548C38.9329 56.5854 38.9359 56.616 38.9359 56.6466C38.9359 56.6823 38.9329 56.7155 38.9268 56.7461C38.9268 56.7716 38.9268 56.7997 38.9268 56.8303V56.9603L38.8723 60.9318V61.0084C38.8723 61.0237 38.8693 61.0442 38.8633 61.0696C38.8633 61.0901 38.8603 61.1155 38.8542 61.1461C38.8421 61.1714 38.83 61.1997 38.8179 61.2303C38.8118 61.2556 38.8027 61.2838 38.7906 61.3144C38.7725 61.3398 38.7513 61.3656 38.7271 61.391C38.7089 61.4115 38.6847 61.4316 38.6544 61.4522C38.606 61.4928 38.5273 61.521 38.4183 61.5364C38.2548 61.567 38.1005 61.554 37.9552 61.4981C37.8825 61.4574 37.831 61.4063 37.8008 61.345C37.7826 61.3297 37.7735 61.3144 37.7735 61.2991C37.7675 61.2891 37.7614 61.2814 37.7554 61.2762C37.7493 61.2709 37.7433 61.2633 37.7372 61.2532C37.7251 61.2279 37.716 61.202 37.71 61.1767C37.7039 61.1461 37.7009 61.1155 37.7009 61.0849C37.6948 61.0595 37.6888 61.0337 37.6827 61.0084C37.6827 60.983 37.6797 60.9572 37.6736 60.9318C37.6676 60.8912 37.6676 60.8477 37.6736 60.8017V60.687ZM44.8774 60.9165C44.8714 61.0031 44.8562 61.0949 44.832 61.192C44.8139 61.2891 44.7563 61.368 44.6595 61.4292C44.5868 61.4804 44.5051 61.511 44.4143 61.521C44.3235 61.5311 44.2327 61.5263 44.1419 61.5057C44.0571 61.4904 43.9753 61.4651 43.8967 61.4292C43.818 61.3886 43.7544 61.3398 43.706 61.2838C43.5001 61.0696 43.3094 60.85 43.1339 60.6257C42.9643 60.3962 42.7918 60.1666 42.6163 59.937L41.8534 58.9652C41.7505 58.8275 41.6415 58.6744 41.5265 58.5061C41.4115 58.3325 41.2934 58.1718 41.1724 58.024L41.1451 60.9471V61.016C41.1451 61.0978 41.127 61.1791 41.0906 61.2609C41.0603 61.3374 41.0058 61.4039 40.9272 61.4598C40.8666 61.5005 40.7879 61.5287 40.6911 61.544C40.5397 61.5694 40.4126 61.5617 40.3097 61.521C40.2128 61.4804 40.134 61.424 40.0735 61.3527C40.0191 61.2814 39.9797 61.1997 39.9555 61.1078C39.9373 61.0107 39.9343 60.9165 39.9464 60.8247V60.6946L39.9646 60.0977L39.9737 58.9882C39.9797 58.8251 39.9827 58.6591 39.9827 58.4908C39.9827 58.3172 39.9827 58.1412 39.9827 57.9628C39.9767 57.7433 39.9767 57.5113 39.9827 57.2664C39.9948 57.0216 40.0069 56.792 40.0191 56.5777C40.0311 56.4604 40.0645 56.3609 40.119 56.2793C40.1431 56.2079 40.2067 56.1467 40.3097 56.0957C40.3762 56.0599 40.461 56.037 40.5639 56.0268C40.6729 56.0166 40.7667 56.0191 40.8454 56.0344C40.8757 56.0446 40.9059 56.0574 40.9363 56.0727C40.9665 56.0829 40.9968 56.0957 41.0271 56.111C41.0573 56.1314 41.0846 56.1518 41.1088 56.1722C41.139 56.1926 41.1663 56.2156 41.1905 56.241C41.2208 56.2665 41.248 56.2946 41.2722 56.3252C41.2964 56.3507 41.3207 56.3762 41.3449 56.4017C41.3631 56.4323 41.3812 56.4604 41.3994 56.4859C41.4175 56.5114 41.4387 56.5369 41.463 56.5624L41.5628 56.6849L43.6606 59.4703V58.9652C43.6606 58.8021 43.6575 58.6362 43.6515 58.4678C43.6515 58.2942 43.6484 58.1158 43.6424 57.9322C43.6424 57.7179 43.6424 57.4883 43.6424 57.2435C43.6484 56.9986 43.6575 56.769 43.6697 56.5548C43.6697 56.4681 43.6999 56.3686 43.7605 56.2563C43.7907 56.19 43.8422 56.1364 43.9148 56.0957C43.9875 56.0549 44.0692 56.0268 44.16 56.0115C44.2508 55.9962 44.3417 55.9962 44.4325 56.0115C44.5233 56.0268 44.6019 56.0574 44.6686 56.1033C44.6867 56.1186 44.7049 56.1364 44.7231 56.1569C44.7412 56.1773 44.7563 56.2002 44.7685 56.2257C44.7987 56.2921 44.8169 56.3507 44.823 56.4017C44.8411 56.4731 44.8502 56.5369 44.8502 56.593C44.8502 57.2306 44.8502 57.881 44.8502 58.5443C44.8562 59.2077 44.8623 59.8581 44.8684 60.4957C44.8684 60.5669 44.8714 60.6387 44.8774 60.7099C44.8835 60.7764 44.8835 60.8453 44.8774 60.9165ZM47.0345 56.9986L47.0163 58.2H47.3796C47.6278 58.1947 47.8487 58.1923 48.0425 58.1923C48.2362 58.1923 48.4511 58.1947 48.6872 58.2H48.7326C48.8053 58.2 48.8749 58.2024 48.9415 58.2077C49.0142 58.2077 49.0837 58.2077 49.1504 58.2077C49.223 58.2129 49.2926 58.223 49.3592 58.2383C49.4258 58.2483 49.4924 58.2612 49.559 58.2765C49.6619 58.3071 49.7467 58.353 49.8133 58.4143C49.8738 58.4807 49.9041 58.5544 49.9041 58.6362C49.9041 58.6615 49.9041 58.6921 49.9041 58.728C49.9041 58.7586 49.898 58.7868 49.8859 58.8122C49.8738 58.8681 49.8345 58.9193 49.7679 58.9652C49.7376 59.0011 49.6801 59.0264 49.5953 59.0417C49.5166 59.0623 49.4379 59.0747 49.3592 59.08C49.2744 59.0953 49.1897 59.103 49.105 59.103H48.6782L46.9982 59.1106L46.98 60.6104L48.7871 60.6257H49.2139C49.2624 60.6257 49.3078 60.6257 49.3502 60.6257C49.3925 60.6257 49.4319 60.6281 49.4682 60.6334C49.5166 60.6434 49.559 60.6511 49.5953 60.6564C49.6377 60.6564 49.6771 60.6616 49.7134 60.6717C49.786 60.6922 49.8466 60.72 49.895 60.7558C49.9555 60.807 49.9949 60.8606 50.0131 60.9165C50.0191 60.9419 50.0222 60.9701 50.0222 61.0007C50.0282 61.026 50.0282 61.0543 50.0222 61.0849C50.0222 61.1667 49.9918 61.2403 49.9313 61.3068C49.8587 61.378 49.7739 61.424 49.6771 61.4445C49.5499 61.4904 49.4107 61.5134 49.2593 61.5134C49.1927 61.5187 49.1231 61.521 49.0505 61.521C48.9778 61.521 48.9082 61.5234 48.8416 61.5287H48.7871C48.3149 61.5387 47.8245 61.5387 47.316 61.5287C47.1949 61.5287 47.098 61.5263 47.0254 61.521C46.9528 61.521 46.8861 61.521 46.8256 61.521C46.7711 61.521 46.7136 61.521 46.6531 61.521C46.5925 61.521 46.5138 61.521 46.417 61.521C46.2777 61.5311 46.1627 61.511 46.0719 61.4598C46.0053 61.424 45.9538 61.3757 45.9175 61.3144C45.8993 61.2991 45.8903 61.2838 45.8903 61.2685C45.8842 61.2585 45.8781 61.2508 45.8721 61.2456C45.866 61.2403 45.86 61.2327 45.8539 61.2226C45.8418 61.1973 45.8327 61.1714 45.8267 61.1461C45.8206 61.1155 45.8176 61.0873 45.8176 61.0619C45.8115 61.0366 45.8055 61.0107 45.7995 60.9854C45.7995 60.96 45.7964 60.9342 45.7904 60.9089V60.7864C45.7904 60.7659 45.7904 60.7458 45.7904 60.7252C45.7964 60.7047 45.7995 60.6846 45.7995 60.664V60.0671L45.8176 58.9652V57.9475C45.8176 57.7638 45.8176 57.6007 45.8176 57.4577C45.8236 57.3147 45.8297 57.1593 45.8358 56.991V56.9527C45.8418 56.8966 45.8449 56.8456 45.8449 56.7997C45.8509 56.7486 45.8539 56.6976 45.8539 56.6466C45.86 56.5446 45.8933 56.4451 45.9538 56.3482C45.978 56.3074 46.0022 56.2717 46.0265 56.241C46.0567 56.2104 46.0961 56.1849 46.1445 56.1645C46.2353 56.1186 46.3292 56.0957 46.426 56.0957C46.4745 56.0957 46.5108 56.0982 46.535 56.1033V56.0957C46.644 56.0957 46.7317 56.0957 46.7984 56.0957C46.8649 56.0957 46.9285 56.0957 46.9891 56.0957C47.0557 56.0957 47.1253 56.0957 47.1979 56.0957C47.2706 56.0905 47.3705 56.088 47.4976 56.088C47.7397 56.0829 47.9698 56.0803 48.1878 56.0803C48.4057 56.0803 48.6297 56.0829 48.8598 56.088H48.8961C48.9627 56.0931 49.0323 56.0957 49.105 56.0957C49.1776 56.0957 49.2472 56.0982 49.3138 56.1033C49.3804 56.1033 49.447 56.111 49.5136 56.1263C49.5802 56.1364 49.6468 56.1518 49.7134 56.1722C49.8163 56.1977 49.901 56.241 49.9677 56.3023C50.0222 56.3737 50.0494 56.4451 50.0494 56.5165C50.0494 56.5471 50.0494 56.5777 50.0494 56.6083C50.0494 56.6338 50.0433 56.6594 50.0312 56.6849C50.0252 56.7359 49.9888 56.7895 49.9223 56.8456C49.898 56.8558 49.8708 56.8685 49.8405 56.8838C49.8163 56.8991 49.786 56.9119 49.7497 56.9221C49.7134 56.9323 49.674 56.9399 49.6317 56.945C49.5953 56.945 49.559 56.9476 49.5227 56.9527C49.4742 56.9629 49.4288 56.968 49.3865 56.968C49.3502 56.968 49.3078 56.968 49.2593 56.968H48.8507L47.0345 56.9757V56.9986ZM52.0184 56.9986L52.0002 58.2H52.3635C52.6117 58.1947 52.8327 58.1923 53.0264 58.1923C53.2201 58.1923 53.4351 58.1947 53.6712 58.2H53.7166C53.7892 58.2 53.8589 58.2024 53.9254 58.2077C53.9981 58.2077 54.0677 58.2077 54.1343 58.2077C54.2069 58.2129 54.2766 58.223 54.3432 58.2383C54.4097 58.2483 54.4764 58.2612 54.5429 58.2765C54.6458 58.3071 54.7306 58.353 54.7972 58.4143C54.8578 58.4807 54.888 58.5544 54.888 58.6362C54.888 58.6615 54.888 58.6921 54.888 58.728C54.888 58.7586 54.882 58.7868 54.8699 58.8122C54.8578 58.8681 54.8184 58.9193 54.7518 58.9652C54.7216 59.0011 54.664 59.0264 54.5793 59.0417C54.5005 59.0623 54.4219 59.0747 54.3432 59.08C54.2584 59.0953 54.1736 59.103 54.0889 59.103H53.6621L51.9821 59.1106L51.9639 60.6104L53.7711 60.6257H54.1979C54.2463 60.6257 54.2917 60.6257 54.3341 60.6257C54.3765 60.6257 54.4158 60.6281 54.4521 60.6334C54.5005 60.6434 54.5429 60.6511 54.5793 60.6564C54.6217 60.6564 54.661 60.6616 54.6973 60.6717C54.77 60.6922 54.8305 60.72 54.8789 60.7558C54.9395 60.807 54.9788 60.8606 54.997 60.9165C55.0031 60.9419 55.0061 60.9701 55.0061 61.0007C55.0122 61.026 55.0122 61.0543 55.0061 61.0849C55.0061 61.1667 54.9758 61.2403 54.9153 61.3068C54.8426 61.378 54.7579 61.424 54.661 61.4445C54.5339 61.4904 54.3946 61.5134 54.2433 61.5134C54.1767 61.5187 54.1071 61.521 54.0344 61.521C53.9618 61.521 53.8921 61.5234 53.8255 61.5287H53.7711C53.2988 61.5387 52.8085 61.5387 52.2999 61.5287C52.1789 61.5287 52.082 61.5263 52.0093 61.521C51.9367 61.521 51.8701 61.521 51.8095 61.521C51.7551 61.521 51.6976 61.521 51.637 61.521C51.5764 61.521 51.4978 61.521 51.4009 61.521C51.2617 61.5311 51.1466 61.511 51.0558 61.4598C50.9892 61.424 50.9378 61.3757 50.9014 61.3144C50.8833 61.2991 50.8742 61.2838 50.8742 61.2685C50.8681 61.2585 50.8621 61.2508 50.856 61.2456C50.85 61.2403 50.8439 61.2327 50.8379 61.2226C50.8258 61.1973 50.8167 61.1714 50.8106 61.1461C50.8045 61.1155 50.8015 61.0873 50.8015 61.0619C50.7955 61.0366 50.7895 61.0107 50.7834 60.9854C50.7834 60.96 50.7804 60.9342 50.7743 60.9089V60.7864C50.7743 60.7659 50.7743 60.7458 50.7743 60.7252C50.7804 60.7047 50.7834 60.6846 50.7834 60.664V60.0671L50.8015 58.9652V57.9475C50.8015 57.7638 50.8015 57.6007 50.8015 57.4577C50.8076 57.3147 50.8136 57.1593 50.8197 56.991V56.9527C50.8258 56.8966 50.8288 56.8456 50.8288 56.7997C50.8349 56.7486 50.8379 56.6976 50.8379 56.6466C50.8439 56.5446 50.8772 56.4451 50.9378 56.3482C50.962 56.3074 50.9862 56.2717 51.0104 56.241C51.0407 56.2104 51.08 56.1849 51.1285 56.1645C51.2193 56.1186 51.3131 56.0957 51.41 56.0957C51.4584 56.0957 51.4947 56.0982 51.5189 56.1033V56.0957C51.6279 56.0957 51.7157 56.0957 51.7823 56.0957C51.8489 56.0957 51.9124 56.0957 51.973 56.0957C52.0396 56.0957 52.1092 56.0957 52.1819 56.0957C52.2545 56.0905 52.3544 56.088 52.4815 56.088C52.7237 56.0829 52.9538 56.0803 53.1717 56.0803C53.3897 56.0803 53.6137 56.0829 53.8437 56.088H53.88C53.9466 56.0931 54.0162 56.0957 54.0889 56.0957C54.1615 56.0957 54.2312 56.0982 54.2978 56.1033C54.3643 56.1033 54.431 56.111 54.4975 56.1263C54.5641 56.1364 54.6307 56.1518 54.6973 56.1722C54.8002 56.1977 54.885 56.241 54.9516 56.3023C55.0061 56.3737 55.0333 56.4451 55.0333 56.5165C55.0333 56.5471 55.0333 56.5777 55.0333 56.6083C55.0333 56.6338 55.0272 56.6594 55.0152 56.6849C55.0091 56.7359 54.9728 56.7895 54.9062 56.8456C54.882 56.8558 54.8547 56.8685 54.8245 56.8838C54.8002 56.8991 54.77 56.9119 54.7336 56.9221C54.6973 56.9323 54.658 56.9399 54.6156 56.945C54.5793 56.945 54.5429 56.9476 54.5066 56.9527C54.4582 56.9629 54.4128 56.968 54.3704 56.968C54.3341 56.968 54.2917 56.968 54.2433 56.968H53.8346L52.0184 56.9757V56.9986Z" fill="white"/>
</g>
<defs>
<clipPath id="clip0">
<rect width="59" height="55" fill="white" transform="translate(6 10)"/>
</clipPath>
</defs>
</svg>
