<svg width="85" height="120" viewBox="0 0 85 120" fill="none" xmlns="http://www.w3.org/2000/svg">
<path d="M43.5 39.3359C34.1153 39.3359 26.4785 48.0769 26.4785 58.8184V78.3008H33.7995C32.2287 75.9154 31.3418 73.0116 31.3418 69.9512C31.3418 67.5077 31.9022 65.1051 32.9637 63.0013L41.3937 46.2939C42.2628 44.5708 44.7372 44.5708 45.6063 46.2939L54.0363 63.0013C55.5846 66.0727 56.0405 69.712 55.3257 73.2454C54.9446 75.1231 54.1084 76.7886 53.0966 78.3008H60.5215V58.8184C60.5215 48.0769 52.8847 39.3359 43.5 39.3359Z" fill="#FAFAFA"/>
<path d="M49.8237 65.7845L43.5 53.252L37.1763 65.7845C36.5398 67.0429 36.2051 68.4835 36.2051 69.9512C36.2051 70.9259 36.393 71.8592 36.672 72.7514C36.8188 72.2748 36.9545 71.792 37.1763 71.3509L41.3937 62.9932C42.2628 61.27 44.7372 61.27 45.6063 62.9932L49.8213 71.3456C50.0424 71.7859 50.1773 72.2666 50.3242 72.7412C50.4028 72.485 50.5346 72.2514 50.5884 71.987C51.1464 69.2255 50.4816 67.0893 49.8237 65.7845Z" fill="#FAFAFA"/>
<path d="M6.86328 28.0176V78.3008H21.6152V58.8184C21.6152 45.0057 31.4321 33.7695 43.5 33.7695C55.5679 33.7695 65.3848 45.0057 65.3848 58.8184V78.3008H80.1367V28.0176H6.86328Z" fill="#FAFAFA"/>
<path d="M45.6061 74.1232L43.5 69.9484L41.3913 74.1286C41.1799 74.5473 41.0684 75.0283 41.0684 75.5176C41.0684 77.0387 42.1402 78.2692 43.464 78.2926C43.5094 78.293 43.5563 78.2776 43.602 78.277C44.8938 78.2121 45.9315 77.0118 45.9315 75.5176C45.9315 75.0283 45.8199 74.5473 45.6061 74.1232Z" fill="#FAFAFA"/>
<path d="M80.1367 83.8672H6.86328C4.17729 83.8672 2 86.3593 2 89.4336V92.2168C2 93.7539 3.08873 95 4.43164 95H82.5684C83.9113 95 85 93.7539 85 92.2168V89.4336C85 86.3593 82.8227 83.8672 80.1367 83.8672Z" fill="#FAFAFA"/>
<path d="M80.1367 11.3184H64.4562L60.265 1.53837C59.8518 0.595234 59.0113 0 58.0898 0H28.9102C27.9887 0 27.1482 0.595234 26.735 1.53837L22.5438 11.3184H6.86328C4.17729 11.3184 2 13.8104 2 16.8848V19.668C2 21.205 3.08873 22.4512 4.43164 22.4512H82.5684C83.9113 22.4512 85 21.205 85 19.668V16.8848C85 13.8104 82.8227 11.3184 80.1367 11.3184Z" fill="#FAFAFA"/>
<path d="M12.7219 108.312C12.8606 108.621 12.8659 108.925 12.7379 109.224C12.6099 109.512 12.4073 109.779 12.1299 110.024C11.8526 110.269 11.5326 110.483 11.1699 110.664C10.8179 110.845 10.4819 110.973 10.1619 111.048C9.80994 111.123 9.4366 111.155 9.04194 111.144C8.65794 111.144 8.2686 111.096 7.87394 111C7.48994 110.915 7.11127 110.787 6.73794 110.616C6.37527 110.435 6.03927 110.216 5.72994 109.96C5.3566 109.651 5.06327 109.283 4.84994 108.856C4.64727 108.419 4.49794 107.955 4.40194 107.464C4.30594 106.973 4.2526 106.483 4.24194 105.992C4.24194 105.491 4.25794 105.021 4.28994 104.584C4.32194 104.189 4.40194 103.779 4.52994 103.352C4.65794 102.925 4.83394 102.509 5.05794 102.104C5.2926 101.688 5.56994 101.304 5.88994 100.952C6.2206 100.6 6.6046 100.301 7.04194 100.056C7.3726 99.864 7.7406 99.736 8.14594 99.672C8.56194 99.5973 8.97794 99.5813 9.39394 99.624C9.8206 99.656 10.2206 99.7467 10.5939 99.896C10.9779 100.035 11.3033 100.227 11.5699 100.472C11.7406 100.621 11.9166 100.829 12.0979 101.096C12.2899 101.363 12.4286 101.635 12.5139 101.912C12.5993 102.189 12.5993 102.451 12.5139 102.696C12.4393 102.931 12.2259 103.091 11.8739 103.176C11.7246 103.219 11.5913 103.229 11.4739 103.208C11.3566 103.176 11.2499 103.128 11.1539 103.064C11.0579 102.989 10.9673 102.904 10.8819 102.808C10.7966 102.712 10.7166 102.616 10.6419 102.52C10.3859 102.211 10.0873 102.003 9.74594 101.896C9.4046 101.779 9.06327 101.752 8.72194 101.816C8.39127 101.869 8.0766 102.008 7.77794 102.232C7.48994 102.445 7.26594 102.723 7.10594 103.064C6.93527 103.427 6.7966 103.827 6.68994 104.264C6.59394 104.691 6.5406 105.128 6.52994 105.576C6.51927 106.013 6.5566 106.44 6.64194 106.856C6.73794 107.272 6.89794 107.64 7.12194 107.96C7.2926 108.216 7.5006 108.424 7.74594 108.584C8.00194 108.744 8.27394 108.856 8.56194 108.92C8.84994 108.984 9.13794 108.995 9.42594 108.952C9.7246 108.909 10.0126 108.813 10.2899 108.664C10.3753 108.621 10.4659 108.563 10.5619 108.488C10.6686 108.403 10.7753 108.317 10.8819 108.232C10.9886 108.147 11.0953 108.067 11.2019 107.992C11.3193 107.917 11.4419 107.864 11.5699 107.832C11.7619 107.768 11.9699 107.773 12.1939 107.848C12.4286 107.923 12.6046 108.077 12.7219 108.312ZM22.5646 100.456C22.5752 100.531 22.5806 100.6 22.5806 100.664C22.5806 100.728 22.5806 100.792 22.5806 100.856V101.512L22.4846 109.816V109.976C22.4846 110.04 22.4686 110.136 22.4366 110.264C22.4259 110.317 22.4099 110.376 22.3886 110.44C22.3672 110.493 22.3459 110.552 22.3246 110.616C22.2712 110.744 22.1966 110.84 22.1006 110.904C22.0152 110.989 21.8766 111.048 21.6846 111.08C21.3859 111.144 21.1139 111.117 20.8686 111C20.7299 110.915 20.6339 110.808 20.5806 110.68C20.5592 110.659 20.5379 110.627 20.5166 110.584C20.5166 110.563 20.5059 110.531 20.4846 110.488C20.4632 110.435 20.4472 110.381 20.4366 110.328C20.4259 110.264 20.4152 110.2 20.4046 110.136C20.4046 110.083 20.3992 110.029 20.3886 109.976C20.3886 109.923 20.3832 109.869 20.3726 109.816C20.3512 109.763 20.3406 109.72 20.3406 109.688C20.3406 109.645 20.3406 109.597 20.3406 109.544C20.3619 109.501 20.3726 109.421 20.3726 109.304L20.3886 108.04L20.4046 106.024H19.5406L16.2926 106.04L16.2606 109.816V109.976C16.2606 110.04 16.2446 110.136 16.2126 110.264C16.2019 110.317 16.1859 110.376 16.1646 110.44C16.1432 110.493 16.1219 110.552 16.1006 110.616C16.0472 110.744 15.9726 110.84 15.8766 110.904C15.7912 110.989 15.6526 111.048 15.4606 111.08C15.1619 111.144 14.8899 111.117 14.6446 111C14.5379 110.936 14.4366 110.829 14.3406 110.68C14.3192 110.637 14.3086 110.605 14.3086 110.584L14.2606 110.488C14.2392 110.435 14.2232 110.381 14.2126 110.328C14.2019 110.264 14.1912 110.2 14.1806 110.136C14.1806 110.083 14.1752 110.029 14.1646 109.976C14.1539 109.923 14.1432 109.869 14.1326 109.816C14.1219 109.731 14.1219 109.64 14.1326 109.544V109.304L14.1486 108.04L14.1806 105.688C14.1912 105.347 14.1966 104.995 14.1966 104.632C14.1966 104.269 14.1966 103.896 14.1966 103.512C14.1859 103.128 14.1806 102.787 14.1806 102.488C14.1912 102.189 14.2072 101.853 14.2286 101.48V101.416C14.2392 101.309 14.2446 101.203 14.2446 101.096C14.2446 100.979 14.2499 100.861 14.2606 100.744C14.2712 100.637 14.2872 100.536 14.3086 100.44C14.3406 100.333 14.3832 100.227 14.4366 100.12C14.4686 100.035 14.5112 99.9653 14.5646 99.912C14.6179 99.848 14.6819 99.7893 14.7566 99.736C14.9272 99.6507 15.0979 99.608 15.2686 99.608C15.3539 99.608 15.4286 99.6133 15.4926 99.624C15.5566 99.624 15.6206 99.6293 15.6846 99.64C15.8126 99.6507 15.9352 99.7147 16.0526 99.832C16.1379 99.9067 16.1966 99.992 16.2286 100.088C16.2819 100.227 16.3139 100.349 16.3246 100.456C16.3352 100.531 16.3406 100.6 16.3406 100.664C16.3406 100.728 16.3406 100.792 16.3406 100.856V101.512L16.3086 104.152C16.3939 104.152 16.4899 104.152 16.5966 104.152C16.7139 104.152 16.8472 104.147 16.9966 104.136C17.5512 104.136 18.1006 104.141 18.6446 104.152C19.1992 104.163 19.7806 104.168 20.3886 104.168H20.4046C20.4046 103.688 20.4046 103.229 20.4046 102.792C20.4152 102.355 20.4312 101.896 20.4526 101.416C20.4526 101.309 20.4526 101.203 20.4526 101.096C20.4632 100.979 20.4739 100.861 20.4846 100.744C20.4952 100.637 20.5112 100.536 20.5326 100.44C20.5646 100.333 20.6072 100.227 20.6606 100.12C20.6819 100.035 20.7192 99.9653 20.7726 99.912C20.8366 99.848 20.9112 99.7893 20.9966 99.736C21.1459 99.6507 21.3112 99.608 21.4926 99.608C21.5779 99.608 21.6526 99.6133 21.7166 99.624C21.7912 99.624 21.8552 99.6293 21.9086 99.64C22.0579 99.6613 22.1806 99.7253 22.2766 99.832C22.3619 99.8853 22.4206 99.9707 22.4526 100.088C22.4739 100.152 22.4899 100.216 22.5006 100.28C22.5219 100.333 22.5432 100.392 22.5646 100.456ZM26.0586 101.592L26.0266 104.104H26.6666C27.1039 104.093 27.4932 104.088 27.8346 104.088C28.1759 104.088 28.5546 104.093 28.9706 104.104H29.0506C29.1786 104.104 29.3012 104.109 29.4186 104.12C29.5466 104.12 29.6692 104.12 29.7866 104.12C29.9146 104.131 30.0372 104.152 30.1546 104.184C30.2719 104.205 30.3892 104.232 30.5066 104.264C30.6879 104.328 30.8372 104.424 30.9546 104.552C31.0612 104.691 31.1146 104.845 31.1146 105.016C31.1146 105.069 31.1146 105.133 31.1146 105.208C31.1146 105.272 31.1039 105.331 31.0826 105.384C31.0612 105.501 30.9919 105.608 30.8746 105.704C30.8212 105.779 30.7199 105.832 30.5706 105.864C30.4319 105.907 30.2932 105.933 30.1546 105.944C30.0052 105.976 29.8559 105.992 29.7066 105.992H28.9546L25.9946 106.008L25.9626 109.144L29.1466 109.176H29.8986C29.9839 109.176 30.0639 109.176 30.1386 109.176C30.2132 109.176 30.2826 109.181 30.3466 109.192C30.4319 109.213 30.5066 109.229 30.5706 109.24C30.6452 109.24 30.7146 109.251 30.7786 109.272C30.9066 109.315 31.0132 109.373 31.0986 109.448C31.2052 109.555 31.2746 109.667 31.3066 109.784C31.3172 109.837 31.3226 109.896 31.3226 109.96C31.3332 110.013 31.3332 110.072 31.3226 110.136C31.3226 110.307 31.2692 110.461 31.1626 110.6C31.0346 110.749 30.8852 110.845 30.7146 110.888C30.4906 110.984 30.2452 111.032 29.9786 111.032C29.8612 111.043 29.7386 111.048 29.6106 111.048C29.4826 111.048 29.3599 111.053 29.2426 111.064H29.1466C28.3146 111.085 27.4506 111.085 26.5546 111.064C26.3412 111.064 26.1706 111.059 26.0426 111.048C25.9146 111.048 25.7972 111.048 25.6906 111.048C25.5946 111.048 25.4932 111.048 25.3866 111.048C25.2799 111.048 25.1412 111.048 24.9706 111.048C24.7252 111.069 24.5226 111.027 24.3626 110.92C24.2452 110.845 24.1546 110.744 24.0906 110.616C24.0586 110.584 24.0426 110.552 24.0426 110.52C24.0319 110.499 24.0212 110.483 24.0106 110.472C23.9999 110.461 23.9892 110.445 23.9786 110.424C23.9572 110.371 23.9412 110.317 23.9306 110.264C23.9199 110.2 23.9146 110.141 23.9146 110.088C23.9039 110.035 23.8932 109.981 23.8826 109.928C23.8826 109.875 23.8772 109.821 23.8666 109.768V109.512C23.8666 109.469 23.8666 109.427 23.8666 109.384C23.8772 109.341 23.8826 109.299 23.8826 109.256V108.008L23.9146 105.704V103.576C23.9146 103.192 23.9146 102.851 23.9146 102.552C23.9252 102.253 23.9359 101.928 23.9466 101.576V101.496C23.9572 101.379 23.9626 101.272 23.9626 101.176C23.9732 101.069 23.9786 100.963 23.9786 100.856C23.9892 100.643 24.0479 100.435 24.1546 100.232C24.1972 100.147 24.2399 100.072 24.2826 100.008C24.3359 99.944 24.4052 99.8907 24.4906 99.848C24.6506 99.752 24.8159 99.704 24.9866 99.704C25.0719 99.704 25.1359 99.7093 25.1786 99.72V99.704C25.3706 99.704 25.5252 99.704 25.6426 99.704C25.7599 99.704 25.8719 99.704 25.9786 99.704C26.0959 99.704 26.2186 99.704 26.3466 99.704C26.4746 99.6933 26.6506 99.688 26.8746 99.688C27.3012 99.6773 27.7066 99.672 28.0906 99.672C28.4746 99.672 28.8692 99.6773 29.2746 99.688H29.3386C29.4559 99.6987 29.5786 99.704 29.7066 99.704C29.8346 99.704 29.9572 99.7093 30.0746 99.72C30.1919 99.72 30.3092 99.736 30.4266 99.768C30.5439 99.7893 30.6612 99.8213 30.7786 99.864C30.9599 99.9173 31.1092 100.008 31.2266 100.136C31.3226 100.285 31.3706 100.435 31.3706 100.584C31.3706 100.648 31.3706 100.712 31.3706 100.776C31.3706 100.829 31.3599 100.883 31.3386 100.936C31.3279 101.043 31.2639 101.155 31.1466 101.272C31.1039 101.293 31.0559 101.32 31.0026 101.352C30.9599 101.384 30.9066 101.411 30.8426 101.432C30.7786 101.453 30.7092 101.469 30.6346 101.48C30.5706 101.48 30.5066 101.485 30.4426 101.496C30.3572 101.517 30.2772 101.528 30.2026 101.528C30.1386 101.528 30.0639 101.528 29.9786 101.528H29.2586L26.0586 101.544V101.592ZM42.3918 109.848C42.3811 109.976 42.3651 110.109 42.3438 110.248C42.3225 110.387 42.2851 110.515 42.2318 110.632C42.1785 110.76 42.1091 110.856 42.0238 110.92C41.9065 111.027 41.7678 111.085 41.6078 111.096C41.4585 111.149 41.3145 111.165 41.1758 111.144C41.0371 111.123 40.9091 111.085 40.7918 111.032C40.6425 110.936 40.5305 110.824 40.4558 110.696C40.3918 110.557 40.3438 110.413 40.3118 110.264C40.2798 110.115 40.2638 109.96 40.2638 109.8C40.2638 109.64 40.2638 109.491 40.2638 109.352V108.104L40.2478 105.656C40.2478 105.485 40.2478 105.352 40.2478 105.256C40.2478 105.16 40.2478 105.075 40.2478 105C40.2478 104.915 40.2425 104.824 40.2318 104.728C40.2318 104.621 40.2318 104.472 40.2318 104.28C40.2318 104.248 40.2318 104.195 40.2318 104.12C40.2425 104.035 40.2371 103.816 40.2158 103.464C39.7998 104.157 39.4531 104.717 39.1758 105.144C38.9091 105.56 38.6798 105.885 38.4878 106.12C38.3065 106.344 38.1465 106.499 38.0078 106.584C37.8691 106.659 37.7251 106.701 37.5758 106.712C37.4905 106.723 37.4051 106.707 37.3198 106.664C37.2345 106.621 37.1491 106.568 37.0638 106.504C36.9891 106.44 36.9145 106.376 36.8398 106.312C36.7758 106.237 36.7225 106.168 36.6798 106.104C36.4238 105.784 36.1358 105.4 35.8158 104.952C35.4958 104.504 35.1651 103.96 34.8238 103.32C34.8238 103.331 34.8185 103.507 34.8078 103.848C34.8078 104.189 34.8078 104.616 34.8078 105.128C34.8078 105.629 34.8025 106.173 34.7918 106.76C34.7918 107.336 34.7865 107.875 34.7758 108.376C34.7758 108.877 34.7705 109.299 34.7598 109.64C34.7491 109.971 34.7385 110.136 34.7278 110.136C34.7278 110.317 34.6851 110.488 34.5998 110.648C34.5145 110.797 34.3971 110.92 34.2478 111.016C34.1091 111.112 33.9438 111.165 33.7518 111.176C33.5598 111.187 33.3518 111.133 33.1278 111.016C32.9891 110.931 32.8825 110.808 32.8078 110.648C32.7438 110.488 32.7011 110.339 32.6798 110.2C32.6691 110.051 32.6585 109.907 32.6478 109.768C32.6478 109.629 32.6478 109.485 32.6478 109.336L32.6638 108.088L32.6798 105.624V103.48C32.6798 102.552 32.7118 101.64 32.7758 100.744C32.7758 100.627 32.7865 100.52 32.8078 100.424C32.8398 100.317 32.8771 100.216 32.9198 100.12C33.0051 99.9493 33.1171 99.8213 33.2558 99.736C33.4158 99.64 33.5865 99.592 33.7678 99.592C33.8425 99.592 33.9118 99.5973 33.9758 99.608C34.0505 99.608 34.1198 99.6133 34.1838 99.624C34.3971 99.6667 34.5785 99.7947 34.7278 100.008C34.8878 100.211 35.0371 100.387 35.1758 100.536C35.2611 100.632 35.3518 100.749 35.4478 100.888C35.5438 101.027 35.6398 101.171 35.7358 101.32C35.8318 101.469 35.9225 101.613 36.0078 101.752C36.0931 101.891 36.1678 102.013 36.2318 102.12C36.5091 102.568 36.7545 102.979 36.9678 103.352C37.1918 103.725 37.3998 104.045 37.5918 104.312C37.6238 104.28 37.6611 104.237 37.7038 104.184C37.7465 104.12 37.7891 104.056 37.8318 103.992C37.8851 103.917 37.9278 103.848 37.9598 103.784C38.0025 103.72 38.0345 103.667 38.0558 103.624C38.1625 103.453 38.2691 103.288 38.3758 103.128C38.4825 102.957 38.5945 102.781 38.7118 102.6C38.8398 102.408 38.9678 102.2 39.0958 101.976C39.2345 101.752 39.3945 101.496 39.5758 101.208C39.6505 101.08 39.7465 100.925 39.8638 100.744C39.9811 100.563 40.1145 100.387 40.2638 100.216C40.4131 100.045 40.5678 99.9013 40.7278 99.784C40.8985 99.656 41.0691 99.592 41.2398 99.592C41.3251 99.592 41.3998 99.5973 41.4638 99.608C41.5278 99.608 41.5918 99.6133 41.6558 99.624C41.7838 99.6347 41.9065 99.6933 42.0238 99.8C42.1091 99.8853 42.1731 99.976 42.2158 100.072C42.2585 100.211 42.2851 100.328 42.2958 100.424C42.3065 100.499 42.3118 100.568 42.3118 100.632C42.3225 100.696 42.3278 100.76 42.3278 100.824C42.3278 101.421 42.3331 102.013 42.3438 102.6C42.3545 103.187 42.3598 103.779 42.3598 104.376C42.3598 105.101 42.3598 105.848 42.3598 106.616C42.3705 107.384 42.3758 108.131 42.3758 108.856C42.3758 109.005 42.3811 109.165 42.3918 109.336C42.4025 109.507 42.4025 109.677 42.3918 109.848ZM44.1907 109.304L44.2067 108.04L44.2227 105.688C44.2334 105.347 44.2387 104.995 44.2387 104.632C44.2387 104.269 44.2387 103.896 44.2387 103.512C44.2387 103.128 44.2387 102.787 44.2387 102.488C44.2387 102.189 44.2494 101.853 44.2707 101.48V101.416C44.2814 101.309 44.2867 101.203 44.2867 101.096C44.2974 100.979 44.3027 100.861 44.3027 100.744C44.3134 100.552 44.372 100.344 44.4787 100.12C44.5534 99.9707 44.6654 99.8427 44.8147 99.736C44.9854 99.6507 45.1507 99.608 45.3107 99.608C45.396 99.608 45.4707 99.6133 45.5347 99.624C45.6094 99.624 45.6787 99.6293 45.7427 99.64C45.8814 99.6613 46.004 99.7253 46.1107 99.832C46.1747 99.8853 46.2334 99.9707 46.2867 100.088C46.308 100.152 46.324 100.216 46.3347 100.28C46.356 100.333 46.372 100.392 46.3827 100.456C46.3934 100.531 46.3987 100.6 46.3987 100.664C46.4094 100.728 46.4147 100.792 46.4147 100.856C46.4147 100.931 46.4094 101 46.3987 101.064C46.3987 101.117 46.3987 101.176 46.3987 101.24V101.512L46.3027 109.816V109.976C46.3027 110.008 46.2974 110.051 46.2867 110.104C46.2867 110.147 46.2814 110.2 46.2707 110.264C46.2494 110.317 46.228 110.376 46.2067 110.44C46.196 110.493 46.18 110.552 46.1587 110.616C46.1267 110.669 46.0894 110.723 46.0467 110.776C46.0147 110.819 45.972 110.861 45.9187 110.904C45.8334 110.989 45.6947 111.048 45.5027 111.08C45.2147 111.144 44.9427 111.117 44.6867 111C44.5587 110.915 44.468 110.808 44.4147 110.68C44.3827 110.648 44.3667 110.616 44.3667 110.584C44.356 110.563 44.3454 110.547 44.3347 110.536C44.324 110.525 44.3134 110.509 44.3027 110.488C44.2814 110.435 44.2654 110.381 44.2547 110.328C44.244 110.264 44.2387 110.2 44.2387 110.136C44.228 110.083 44.2174 110.029 44.2067 109.976C44.2067 109.923 44.2014 109.869 44.1907 109.816C44.18 109.731 44.18 109.64 44.1907 109.544V109.304ZM56.8831 109.784C56.8724 109.965 56.8457 110.157 56.8031 110.36C56.7711 110.563 56.6697 110.728 56.4991 110.856C56.3711 110.963 56.2271 111.027 56.0671 111.048C55.9071 111.069 55.7471 111.059 55.5871 111.016C55.4377 110.984 55.2937 110.931 55.1551 110.856C55.0164 110.771 54.9044 110.669 54.8191 110.552C54.4564 110.104 54.1204 109.645 53.8111 109.176C53.5124 108.696 53.2084 108.216 52.8991 107.736L51.5551 105.704C51.3737 105.416 51.1817 105.096 50.9791 104.744C50.7764 104.381 50.5684 104.045 50.3551 103.736L50.3071 109.848V109.992C50.3071 110.163 50.2751 110.333 50.2111 110.504C50.1577 110.664 50.0617 110.803 49.9231 110.92C49.8164 111.005 49.6777 111.064 49.5071 111.096C49.2404 111.149 49.0164 111.133 48.8351 111.048C48.6644 110.963 48.5257 110.845 48.4191 110.696C48.3231 110.547 48.2537 110.376 48.2111 110.184C48.1791 109.981 48.1737 109.784 48.1951 109.592V109.32L48.2271 108.072L48.2431 105.752C48.2537 105.411 48.2591 105.064 48.2591 104.712C48.2591 104.349 48.2591 103.981 48.2591 103.608C48.2484 103.149 48.2484 102.664 48.2591 102.152C48.2804 101.64 48.3017 101.16 48.3231 100.712C48.3444 100.467 48.4031 100.259 48.4991 100.088C48.5417 99.9387 48.6537 99.8107 48.8351 99.704C48.9524 99.6293 49.1017 99.5813 49.2831 99.56C49.4751 99.5387 49.6404 99.544 49.7791 99.576C49.8324 99.5973 49.8857 99.624 49.9391 99.656C49.9924 99.6773 50.0457 99.704 50.0991 99.736C50.1524 99.7787 50.2004 99.8213 50.2431 99.864C50.2964 99.9067 50.3444 99.9547 50.3871 100.008C50.4404 100.061 50.4884 100.12 50.5311 100.184C50.5737 100.237 50.6164 100.291 50.6591 100.344C50.6911 100.408 50.7231 100.467 50.7551 100.52C50.7871 100.573 50.8244 100.627 50.8671 100.68L51.0431 100.936L54.7391 106.76V105.704C54.7391 105.363 54.7337 105.016 54.7231 104.664C54.7231 104.301 54.7177 103.928 54.7071 103.544C54.7071 103.096 54.7071 102.616 54.7071 102.104C54.7177 101.592 54.7337 101.112 54.7551 100.664C54.7551 100.483 54.8084 100.275 54.9151 100.04C54.9684 99.9013 55.0591 99.7893 55.1871 99.704C55.3151 99.6187 55.4591 99.56 55.6191 99.528C55.7791 99.496 55.9391 99.496 56.0991 99.528C56.2591 99.56 56.3977 99.624 56.5151 99.72C56.5471 99.752 56.5791 99.7893 56.6111 99.832C56.6431 99.8747 56.6697 99.9227 56.6911 99.976C56.7444 100.115 56.7764 100.237 56.7871 100.344C56.8191 100.493 56.8351 100.627 56.8351 100.744C56.8351 102.077 56.8351 103.437 56.8351 104.824C56.8457 106.211 56.8564 107.571 56.8671 108.904C56.8671 109.053 56.8724 109.203 56.8831 109.352C56.8937 109.491 56.8937 109.635 56.8831 109.784ZM60.6836 101.592L60.6516 104.104H61.2916C61.7289 104.093 62.1182 104.088 62.4596 104.088C62.8009 104.088 63.1796 104.093 63.5956 104.104H63.6756C63.8036 104.104 63.9262 104.109 64.0436 104.12C64.1716 104.12 64.2942 104.12 64.4116 104.12C64.5396 104.131 64.6622 104.152 64.7796 104.184C64.8969 104.205 65.0142 104.232 65.1316 104.264C65.3129 104.328 65.4622 104.424 65.5796 104.552C65.6862 104.691 65.7396 104.845 65.7396 105.016C65.7396 105.069 65.7396 105.133 65.7396 105.208C65.7396 105.272 65.7289 105.331 65.7076 105.384C65.6862 105.501 65.6169 105.608 65.4996 105.704C65.4462 105.779 65.3449 105.832 65.1956 105.864C65.0569 105.907 64.9182 105.933 64.7796 105.944C64.6302 105.976 64.4809 105.992 64.3316 105.992H63.5796L60.6196 106.008L60.5876 109.144L63.7716 109.176H64.5236C64.6089 109.176 64.6889 109.176 64.7636 109.176C64.8382 109.176 64.9076 109.181 64.9716 109.192C65.0569 109.213 65.1316 109.229 65.1956 109.24C65.2702 109.24 65.3396 109.251 65.4036 109.272C65.5316 109.315 65.6382 109.373 65.7236 109.448C65.8302 109.555 65.8996 109.667 65.9316 109.784C65.9422 109.837 65.9476 109.896 65.9476 109.96C65.9582 110.013 65.9582 110.072 65.9476 110.136C65.9476 110.307 65.8942 110.461 65.7876 110.6C65.6596 110.749 65.5102 110.845 65.3396 110.888C65.1156 110.984 64.8702 111.032 64.6036 111.032C64.4862 111.043 64.3636 111.048 64.2356 111.048C64.1076 111.048 63.9849 111.053 63.8676 111.064H63.7716C62.9396 111.085 62.0756 111.085 61.1796 111.064C60.9662 111.064 60.7956 111.059 60.6676 111.048C60.5396 111.048 60.4222 111.048 60.3156 111.048C60.2196 111.048 60.1182 111.048 60.0116 111.048C59.9049 111.048 59.7662 111.048 59.5956 111.048C59.3502 111.069 59.1476 111.027 58.9876 110.92C58.8702 110.845 58.7796 110.744 58.7156 110.616C58.6836 110.584 58.6676 110.552 58.6676 110.52C58.6569 110.499 58.6462 110.483 58.6356 110.472C58.6249 110.461 58.6142 110.445 58.6036 110.424C58.5822 110.371 58.5662 110.317 58.5556 110.264C58.5449 110.2 58.5396 110.141 58.5396 110.088C58.5289 110.035 58.5182 109.981 58.5076 109.928C58.5076 109.875 58.5022 109.821 58.4916 109.768V109.512C58.4916 109.469 58.4916 109.427 58.4916 109.384C58.5022 109.341 58.5076 109.299 58.5076 109.256V108.008L58.5396 105.704V103.576C58.5396 103.192 58.5396 102.851 58.5396 102.552C58.5502 102.253 58.5609 101.928 58.5716 101.576V101.496C58.5822 101.379 58.5876 101.272 58.5876 101.176C58.5982 101.069 58.6036 100.963 58.6036 100.856C58.6142 100.643 58.6729 100.435 58.7796 100.232C58.8222 100.147 58.8649 100.072 58.9076 100.008C58.9609 99.944 59.0302 99.8907 59.1156 99.848C59.2756 99.752 59.4409 99.704 59.6116 99.704C59.6969 99.704 59.7609 99.7093 59.8036 99.72V99.704C59.9956 99.704 60.1502 99.704 60.2676 99.704C60.3849 99.704 60.4969 99.704 60.6036 99.704C60.7209 99.704 60.8436 99.704 60.9716 99.704C61.0996 99.6933 61.2756 99.688 61.4996 99.688C61.9262 99.6773 62.3316 99.672 62.7156 99.672C63.0996 99.672 63.4942 99.6773 63.8996 99.688H63.9636C64.0809 99.6987 64.2036 99.704 64.3316 99.704C64.4596 99.704 64.5822 99.7093 64.6996 99.72C64.8169 99.72 64.9342 99.736 65.0516 99.768C65.1689 99.7893 65.2862 99.8213 65.4036 99.864C65.5849 99.9173 65.7342 100.008 65.8516 100.136C65.9476 100.285 65.9956 100.435 65.9956 100.584C65.9956 100.648 65.9956 100.712 65.9956 100.776C65.9956 100.829 65.9849 100.883 65.9636 100.936C65.9529 101.043 65.8889 101.155 65.7716 101.272C65.7289 101.293 65.6809 101.32 65.6276 101.352C65.5849 101.384 65.5316 101.411 65.4676 101.432C65.4036 101.453 65.3342 101.469 65.2596 101.48C65.1956 101.48 65.1316 101.485 65.0676 101.496C64.9822 101.517 64.9022 101.528 64.8276 101.528C64.7636 101.528 64.6889 101.528 64.6036 101.528H63.8836L60.6836 101.544V101.592ZM69.4648 101.592L69.4328 104.104H70.0728C70.5101 104.093 70.8995 104.088 71.2408 104.088C71.5821 104.088 71.9608 104.093 72.3768 104.104H72.4568C72.5848 104.104 72.7075 104.109 72.8248 104.12C72.9528 104.12 73.0755 104.12 73.1928 104.12C73.3208 104.131 73.4435 104.152 73.5608 104.184C73.6781 104.205 73.7955 104.232 73.9128 104.264C74.0941 104.328 74.2435 104.424 74.3608 104.552C74.4675 104.691 74.5208 104.845 74.5208 105.016C74.5208 105.069 74.5208 105.133 74.5208 105.208C74.5208 105.272 74.5101 105.331 74.4888 105.384C74.4675 105.501 74.3981 105.608 74.2808 105.704C74.2275 105.779 74.1261 105.832 73.9768 105.864C73.8381 105.907 73.6995 105.933 73.5608 105.944C73.4115 105.976 73.2621 105.992 73.1128 105.992H72.3608L69.4008 106.008L69.3688 109.144L72.5528 109.176H73.3048C73.3901 109.176 73.4701 109.176 73.5448 109.176C73.6195 109.176 73.6888 109.181 73.7528 109.192C73.8381 109.213 73.9128 109.229 73.9768 109.24C74.0515 109.24 74.1208 109.251 74.1848 109.272C74.3128 109.315 74.4195 109.373 74.5048 109.448C74.6115 109.555 74.6808 109.667 74.7128 109.784C74.7235 109.837 74.7288 109.896 74.7288 109.96C74.7395 110.013 74.7395 110.072 74.7288 110.136C74.7288 110.307 74.6755 110.461 74.5688 110.6C74.4408 110.749 74.2915 110.845 74.1208 110.888C73.8968 110.984 73.6515 111.032 73.3848 111.032C73.2675 111.043 73.1448 111.048 73.0168 111.048C72.8888 111.048 72.7661 111.053 72.6488 111.064H72.5528C71.7208 111.085 70.8568 111.085 69.9608 111.064C69.7475 111.064 69.5768 111.059 69.4488 111.048C69.3208 111.048 69.2035 111.048 69.0968 111.048C69.0008 111.048 68.8995 111.048 68.7928 111.048C68.6861 111.048 68.5475 111.048 68.3768 111.048C68.1315 111.069 67.9288 111.027 67.7688 110.92C67.6515 110.845 67.5608 110.744 67.4968 110.616C67.4648 110.584 67.4488 110.552 67.4488 110.52C67.4381 110.499 67.4275 110.483 67.4168 110.472C67.4061 110.461 67.3955 110.445 67.3848 110.424C67.3635 110.371 67.3475 110.317 67.3368 110.264C67.3261 110.2 67.3208 110.141 67.3208 110.088C67.3101 110.035 67.2995 109.981 67.2888 109.928C67.2888 109.875 67.2835 109.821 67.2728 109.768V109.512C67.2728 109.469 67.2728 109.427 67.2728 109.384C67.2835 109.341 67.2888 109.299 67.2888 109.256V108.008L67.3208 105.704V103.576C67.3208 103.192 67.3208 102.851 67.3208 102.552C67.3315 102.253 67.3421 101.928 67.3528 101.576V101.496C67.3635 101.379 67.3688 101.272 67.3688 101.176C67.3795 101.069 67.3848 100.963 67.3848 100.856C67.3955 100.643 67.4541 100.435 67.5608 100.232C67.6035 100.147 67.6461 100.072 67.6888 100.008C67.7421 99.944 67.8115 99.8907 67.8968 99.848C68.0568 99.752 68.2221 99.704 68.3928 99.704C68.4781 99.704 68.5421 99.7093 68.5848 99.72V99.704C68.7768 99.704 68.9315 99.704 69.0488 99.704C69.1661 99.704 69.2781 99.704 69.3848 99.704C69.5021 99.704 69.6248 99.704 69.7528 99.704C69.8808 99.6933 70.0568 99.688 70.2808 99.688C70.7075 99.6773 71.1128 99.672 71.4968 99.672C71.8808 99.672 72.2755 99.6773 72.6808 99.688H72.7448C72.8621 99.6987 72.9848 99.704 73.1128 99.704C73.2408 99.704 73.3635 99.7093 73.4808 99.72C73.5981 99.72 73.7155 99.736 73.8328 99.768C73.9501 99.7893 74.0675 99.8213 74.1848 99.864C74.3661 99.9173 74.5155 100.008 74.6328 100.136C74.7288 100.285 74.7768 100.435 74.7768 100.584C74.7768 100.648 74.7768 100.712 74.7768 100.776C74.7768 100.829 74.7661 100.883 74.7448 100.936C74.7341 101.043 74.6701 101.155 74.5528 101.272C74.5101 101.293 74.4621 101.32 74.4088 101.352C74.3661 101.384 74.3128 101.411 74.2488 101.432C74.1848 101.453 74.1155 101.469 74.0408 101.48C73.9768 101.48 73.9128 101.485 73.8488 101.496C73.7635 101.517 73.6835 101.528 73.6088 101.528C73.5448 101.528 73.4701 101.528 73.3848 101.528H72.6648L69.4648 101.544V101.592Z" fill="#FAFAFA"/>
</svg>
