<svg width="87" height="121" viewBox="0 0 87 121" fill="none" xmlns="http://www.w3.org/2000/svg">
<g clip-path="url(#clip0)">
<path d="M35.1848 76.4127C30.7075 76.4127 27.0652 80.5816 27.0652 85.7062C27.0652 90.8308 30.7075 94.9997 35.1848 94.9997C39.6621 94.9997 43.3043 90.8308 43.3043 85.7062C43.3043 80.5816 39.6619 76.4127 35.1848 76.4127ZM35.1848 88.8041C33.6924 88.8041 32.4782 87.4143 32.4782 85.7062C32.4782 83.9981 33.6924 82.6083 35.1848 82.6083C36.6771 82.6083 37.8913 83.9981 37.8913 85.7062C37.8913 87.4143 36.677 88.8041 35.1848 88.8041Z" fill="#FAFAFA"/>
<path d="M65.8586 76.4127C61.3813 76.4127 57.739 80.5816 57.739 85.7062C57.739 90.8308 61.3813 94.9997 65.8586 94.9997C70.3359 94.9997 73.9782 90.8308 73.9782 85.7062C73.9782 80.5816 70.3359 76.4127 65.8586 76.4127ZM65.8586 88.8041C64.3662 88.8041 63.152 87.4143 63.152 85.7062C63.152 83.9981 64.3662 82.6083 65.8586 82.6083C67.351 82.6083 68.5652 83.9981 68.5652 85.7062C68.5652 87.4143 67.351 88.8041 65.8586 88.8041Z" fill="#FAFAFA"/>
<path d="M80.2931 14.4575H20.0145L17.9941 2.50976C17.7472 1.05377 16.6339 0.000976562 15.3368 0.000976562H2.70658C1.21242 0.000976563 0 1.38868 0 3.09887C0 4.80905 1.21242 6.19676 2.70658 6.19676H13.1044L14.5013 14.4577H14.5002L20.9384 52.5261C18.1718 54.009 16.239 57.2032 16.239 60.9249C16.239 66.0495 19.8813 70.2184 24.3586 70.2184H76.6844C78.1785 70.2184 79.391 68.8307 79.391 67.1205C79.391 65.4103 78.1785 64.0226 76.6844 64.0226H24.3586C22.8662 64.0226 21.652 62.6329 21.652 60.9247C21.652 59.2166 22.8662 57.8269 24.3586 57.8269H76.6844H77.1728L77.1811 57.7695C78.4376 57.5018 79.3908 56.2445 79.3908 54.7291C79.3908 53.575 78.8325 52.58 78.0145 52.0469L82.9627 18.0656C83.2377 16.1686 81.9593 14.4575 80.2931 14.4575ZM36.0868 42.3378C36.0868 44.048 34.8744 45.4357 33.3803 45.4357C31.8861 45.4357 30.6737 44.048 30.6737 42.3378V29.9466C30.6737 28.2364 31.8861 26.8487 33.3803 26.8487C34.8744 26.8487 36.0868 28.2362 36.0868 29.9466V42.3378ZM52.3258 42.3378C52.3258 44.048 51.1136 45.4357 49.6192 45.4357C48.1249 45.4357 46.9127 44.048 46.9127 42.3378V29.9466C46.9127 28.2364 48.1249 26.8487 49.6192 26.8487C51.1136 26.8487 52.3258 28.2362 52.3258 29.9466V42.3378ZM68.565 42.3378C68.565 44.048 67.3526 45.4357 65.8584 45.4357C64.3642 45.4357 63.1518 44.048 63.1518 42.3378V29.9466C63.1518 28.2364 64.3642 26.8487 65.8584 26.8487C67.3526 26.8487 68.565 28.2362 68.565 29.9466V42.3378Z" fill="#FAFAFA"/>
</g>
<path d="M22.9016 110.312C23.0403 110.621 23.0456 110.925 22.9176 111.224C22.7896 111.512 22.587 111.779 22.3096 112.024C22.0323 112.269 21.7123 112.483 21.3496 112.664C20.9976 112.845 20.6616 112.973 20.3416 113.048C19.9896 113.123 19.6163 113.155 19.2216 113.144C18.8376 113.144 18.4483 113.096 18.0536 113C17.6696 112.915 17.291 112.787 16.9176 112.616C16.555 112.435 16.219 112.216 15.9096 111.96C15.5363 111.651 15.243 111.283 15.0296 110.856C14.827 110.419 14.6776 109.955 14.5816 109.464C14.4856 108.973 14.4323 108.483 14.4216 107.992C14.4216 107.491 14.4376 107.021 14.4696 106.584C14.5016 106.189 14.5816 105.779 14.7096 105.352C14.8376 104.925 15.0136 104.509 15.2376 104.104C15.4723 103.688 15.7496 103.304 16.0696 102.952C16.4003 102.6 16.7843 102.301 17.2216 102.056C17.5523 101.864 17.9203 101.736 18.3256 101.672C18.7416 101.597 19.1576 101.581 19.5736 101.624C20.0003 101.656 20.4003 101.747 20.7736 101.896C21.1576 102.035 21.483 102.227 21.7496 102.472C21.9203 102.621 22.0963 102.829 22.2776 103.096C22.4696 103.363 22.6083 103.635 22.6936 103.912C22.779 104.189 22.779 104.451 22.6936 104.696C22.619 104.931 22.4056 105.091 22.0536 105.176C21.9043 105.219 21.771 105.229 21.6536 105.208C21.5363 105.176 21.4296 105.128 21.3336 105.064C21.2376 104.989 21.147 104.904 21.0616 104.808C20.9763 104.712 20.8963 104.616 20.8216 104.52C20.5656 104.211 20.267 104.003 19.9256 103.896C19.5843 103.779 19.243 103.752 18.9016 103.816C18.571 103.869 18.2563 104.008 17.9576 104.232C17.6696 104.445 17.4456 104.723 17.2856 105.064C17.115 105.427 16.9763 105.827 16.8696 106.264C16.7736 106.691 16.7203 107.128 16.7096 107.576C16.699 108.013 16.7363 108.44 16.8216 108.856C16.9176 109.272 17.0776 109.64 17.3016 109.96C17.4723 110.216 17.6803 110.424 17.9256 110.584C18.1816 110.744 18.4536 110.856 18.7416 110.92C19.0296 110.984 19.3176 110.995 19.6056 110.952C19.9043 110.909 20.1923 110.813 20.4696 110.664C20.555 110.621 20.6456 110.563 20.7416 110.488C20.8483 110.403 20.955 110.317 21.0616 110.232C21.1683 110.147 21.275 110.067 21.3816 109.992C21.499 109.917 21.6216 109.864 21.7496 109.832C21.9416 109.768 22.1496 109.773 22.3736 109.848C22.6083 109.923 22.7843 110.077 22.9016 110.312ZM26.6439 102.056C27.3585 101.789 28.0039 101.672 28.5799 101.704C29.1665 101.736 29.6892 101.885 30.1479 102.152C30.6065 102.408 30.9959 102.755 31.3159 103.192C31.6465 103.629 31.9132 104.12 32.1159 104.664C32.2759 105.069 32.3985 105.496 32.4839 105.944C32.5692 106.392 32.6172 106.84 32.6279 107.288C32.6492 107.725 32.6332 108.157 32.5799 108.584C32.5372 109.011 32.4625 109.405 32.3559 109.768C32.2919 110.013 32.2172 110.237 32.1319 110.44C32.0465 110.643 31.9452 110.845 31.8279 111.048C31.5612 111.507 31.2145 111.88 30.7879 112.168C30.3719 112.456 29.9132 112.659 29.4119 112.776C29.0705 112.861 28.7185 112.904 28.3559 112.904C27.9932 112.893 27.6359 112.845 27.2839 112.76C26.9319 112.664 26.5905 112.531 26.2599 112.36C25.9399 112.179 25.6465 111.955 25.3799 111.688C25.0492 111.368 24.7772 111 24.5639 110.584C24.3505 110.157 24.1852 109.715 24.0679 109.256C23.9505 108.787 23.8759 108.317 23.8439 107.848C23.8119 107.379 23.8119 106.931 23.8439 106.504C23.8759 106.109 23.9505 105.688 24.0679 105.24C24.1959 104.792 24.3772 104.36 24.6119 103.944C24.8465 103.528 25.1292 103.155 25.4599 102.824C25.8012 102.483 26.1959 102.227 26.6439 102.056ZM30.3879 108.904C30.5159 108.403 30.5692 107.837 30.5479 107.208C30.5265 106.579 30.4252 105.987 30.2439 105.432C30.1265 105.091 29.9772 104.792 29.7959 104.536C29.6252 104.269 29.4172 104.067 29.1719 103.928C28.9372 103.789 28.6599 103.72 28.3399 103.72C28.0199 103.72 27.6625 103.816 27.2679 104.008C27.0332 104.125 26.8305 104.285 26.6599 104.488C26.4999 104.691 26.3665 104.92 26.2599 105.176C26.1639 105.432 26.0839 105.699 26.0199 105.976C25.9665 106.253 25.9345 106.52 25.9239 106.776C25.9025 107.053 25.8972 107.347 25.9079 107.656C25.9185 107.955 25.9505 108.259 26.0039 108.568C26.0679 108.867 26.1532 109.155 26.2599 109.432C26.3665 109.699 26.5105 109.939 26.6919 110.152C26.9692 110.472 27.2892 110.696 27.6519 110.824C28.0252 110.941 28.3932 110.957 28.7559 110.872C29.3425 110.744 29.7905 110.355 30.0999 109.704C30.2279 109.469 30.3239 109.203 30.3879 108.904ZM42.6729 102.552C42.7369 103.064 42.7742 103.661 42.7849 104.344C42.7955 105.016 42.7849 105.699 42.7529 106.392C42.7315 107.075 42.6835 107.725 42.6089 108.344C42.5342 108.952 42.4435 109.443 42.3369 109.816C42.2622 110.04 42.1715 110.275 42.0649 110.52C41.9689 110.755 41.8622 110.968 41.7449 111.16C41.5742 111.448 41.3662 111.704 41.1209 111.928C40.8755 112.141 40.6035 112.328 40.3049 112.488C40.0169 112.637 39.7075 112.755 39.3769 112.84C39.0569 112.925 38.7369 112.973 38.4169 112.984C37.8515 113.005 37.3129 112.925 36.8009 112.744C36.2995 112.552 35.8355 112.253 35.4089 111.848C35.0889 111.539 34.8329 111.208 34.6409 110.856C34.4489 110.504 34.2995 110.136 34.1929 109.752C34.0862 109.357 34.0169 108.952 33.9849 108.536C33.9635 108.12 33.9529 107.693 33.9529 107.256C33.9529 107.053 33.9475 106.803 33.9369 106.504C33.9369 106.195 33.9369 105.88 33.9369 105.56C33.9369 105.229 33.9369 104.909 33.9369 104.6C33.9369 104.291 33.9422 104.029 33.9529 103.816C33.9529 103.677 33.9529 103.528 33.9529 103.368C33.9529 103.197 33.9582 103.032 33.9689 102.872C33.9902 102.701 34.0222 102.541 34.0649 102.392C34.1075 102.232 34.1715 102.088 34.2569 101.96C34.3529 101.821 34.4862 101.72 34.6569 101.656C34.8275 101.592 35.0035 101.56 35.1849 101.56C35.3769 101.56 35.5582 101.597 35.7289 101.672C35.8995 101.747 36.0382 101.853 36.1449 101.992C36.1982 102.077 36.2355 102.163 36.2569 102.248C36.2782 102.333 36.2942 102.429 36.3049 102.536C36.3262 102.888 36.3369 103.288 36.3369 103.736C36.3475 104.184 36.3475 104.621 36.3369 105.048C36.3369 105.464 36.3315 105.848 36.3209 106.2C36.3102 106.552 36.3049 106.813 36.3049 106.984C36.3049 107.624 36.3369 108.205 36.4009 108.728C36.4649 109.24 36.6142 109.667 36.8489 110.008C37.0622 110.317 37.3129 110.515 37.6009 110.6C37.8889 110.685 38.1769 110.712 38.4649 110.68C38.7315 110.648 38.9982 110.552 39.2649 110.392C39.5422 110.221 39.7609 109.976 39.9209 109.656C39.9849 109.539 40.0382 109.405 40.0809 109.256C40.1235 109.107 40.1555 108.968 40.1769 108.84C40.2195 108.435 40.2569 107.965 40.2889 107.432C40.3209 106.888 40.3475 106.333 40.3689 105.768C40.3902 105.203 40.4009 104.648 40.4009 104.104C40.4009 103.56 40.3955 103.069 40.3849 102.632C40.4062 102.44 40.4649 102.264 40.5609 102.104C40.6462 101.965 40.7689 101.843 40.9289 101.736C41.0889 101.629 41.3075 101.576 41.5849 101.576C41.8089 101.587 41.9902 101.645 42.1289 101.752C42.2675 101.848 42.3795 101.955 42.4649 102.072C42.5609 102.211 42.6302 102.371 42.6729 102.552ZM52.3335 112.296C52.3442 112.403 52.3335 112.504 52.3015 112.6C52.2802 112.664 52.2482 112.717 52.2055 112.76C52.1735 112.803 52.1308 112.845 52.0775 112.888C51.9815 112.952 51.8642 113.011 51.7255 113.064C51.6402 113.085 51.5548 113.101 51.4695 113.112C51.3948 113.133 51.3148 113.133 51.2295 113.112C51.0588 113.101 50.9095 113.037 50.7815 112.92C50.6002 112.771 50.4508 112.605 50.3335 112.424C50.2802 112.339 50.2215 112.243 50.1575 112.136C50.0935 112.029 50.0348 111.917 49.9815 111.8L48.2055 108.424C48.1202 108.424 48.0348 108.429 47.9495 108.44C47.8642 108.44 47.7788 108.445 47.6935 108.456C47.4695 108.477 47.2562 108.483 47.0535 108.472C46.8615 108.461 46.6588 108.461 46.4455 108.472H46.1415V111.368C46.1415 111.453 46.1362 111.533 46.1255 111.608C46.1255 111.683 46.1255 111.763 46.1255 111.848C46.1255 111.901 46.1202 111.971 46.1095 112.056C46.1095 112.141 46.1042 112.221 46.0935 112.296C46.0722 112.413 46.0242 112.536 45.9495 112.664C45.8748 112.781 45.7735 112.883 45.6455 112.968C45.4215 113.107 45.1495 113.144 44.8295 113.08C44.6908 113.048 44.5575 112.995 44.4295 112.92C44.3868 112.888 44.3495 112.851 44.3175 112.808C44.2855 112.755 44.2588 112.701 44.2375 112.648C44.2162 112.595 44.1948 112.541 44.1735 112.488C44.1628 112.424 44.1468 112.365 44.1255 112.312C44.0935 112.205 44.0775 112.104 44.0775 112.008V102.92C44.0775 102.856 44.0775 102.792 44.0775 102.728C44.0882 102.653 44.0988 102.589 44.1095 102.536C44.1202 102.419 44.1575 102.301 44.2215 102.184C44.2535 102.056 44.3068 101.965 44.3815 101.912C44.4455 101.848 44.5415 101.795 44.6695 101.752C44.8082 101.699 45.0055 101.677 45.2615 101.688C45.7415 101.699 46.2162 101.704 46.6855 101.704C47.1548 101.704 47.6242 101.715 48.0935 101.736C48.4028 101.757 48.7282 101.795 49.0695 101.848C49.4215 101.891 49.7468 101.971 50.0455 102.088C50.2375 102.163 50.4135 102.237 50.5735 102.312C50.7762 102.429 50.9362 102.541 51.0535 102.648C51.4268 102.989 51.7095 103.4 51.9015 103.88C52.0935 104.36 52.1895 104.845 52.1895 105.336C52.1895 105.912 52.0508 106.44 51.7735 106.92C51.5068 107.4 51.0748 107.757 50.4775 107.992C50.4562 108.013 50.4242 108.029 50.3815 108.04C50.3495 108.04 50.3228 108.045 50.3015 108.056L51.7735 111.016L51.9175 111.272C51.9388 111.315 51.9655 111.363 51.9975 111.416C52.0295 111.469 52.0562 111.523 52.0775 111.576C52.1095 111.629 52.1362 111.688 52.1575 111.752C52.1895 111.816 52.2215 111.875 52.2535 111.928C52.2855 112.077 52.3122 112.2 52.3335 112.296ZM48.3335 106.6C48.5255 106.6 48.7068 106.568 48.8775 106.504C49.0588 106.429 49.2188 106.333 49.3575 106.216C49.5068 106.099 49.6295 105.965 49.7255 105.816C49.8215 105.656 49.8748 105.485 49.8855 105.304C49.9282 104.771 49.7895 104.376 49.4695 104.12C49.1495 103.853 48.7282 103.709 48.2055 103.688C47.8962 103.667 47.5548 103.656 47.1815 103.656C46.8188 103.656 46.4722 103.656 46.1415 103.656C46.1522 104.093 46.1522 104.541 46.1415 105C46.1415 105.448 46.1415 105.981 46.1415 106.6H48.3335ZM61.9124 108.344C61.9657 108.493 62.003 108.664 62.0244 108.856C62.0564 109.037 62.0724 109.224 62.0724 109.416C62.0724 109.608 62.0564 109.8 62.0244 109.992C62.003 110.173 61.971 110.333 61.9284 110.472C61.7577 111.069 61.4164 111.571 60.9044 111.976C60.3924 112.371 59.8057 112.659 59.1444 112.84C58.4937 113.021 57.8164 113.085 57.1124 113.032C56.419 112.979 55.8004 112.803 55.2564 112.504C54.915 112.312 54.6217 112.077 54.3764 111.8C54.131 111.523 53.923 111.213 53.7524 110.872C53.6884 110.755 53.6457 110.621 53.6244 110.472C53.6137 110.312 53.6297 110.163 53.6724 110.024C53.715 109.875 53.7844 109.747 53.8804 109.64C53.9764 109.523 54.1097 109.443 54.2804 109.4C54.387 109.379 54.5044 109.368 54.6324 109.368C54.771 109.368 54.9044 109.389 55.0324 109.432C55.1604 109.464 55.2777 109.523 55.3844 109.608C55.491 109.683 55.5764 109.789 55.6404 109.928C55.7577 110.152 55.923 110.36 56.1364 110.552C56.3604 110.733 56.595 110.883 56.8404 111C57.1924 111.117 57.5444 111.165 57.8964 111.144C58.259 111.123 58.5844 111.043 58.8724 110.904C59.171 110.765 59.411 110.579 59.5924 110.344C59.7737 110.099 59.8644 109.821 59.8644 109.512C59.8644 109.256 59.827 109.048 59.7524 108.888C59.6777 108.717 59.571 108.579 59.4324 108.472C59.3044 108.355 59.1444 108.259 58.9524 108.184C58.771 108.109 58.5684 108.045 58.3444 107.992C58.0884 107.939 57.827 107.901 57.5604 107.88C57.3044 107.859 57.043 107.832 56.7764 107.8C56.5097 107.768 56.2484 107.725 55.9924 107.672C55.7364 107.619 55.4857 107.539 55.2404 107.432C54.7497 107.229 54.3764 106.92 54.1204 106.504C53.8644 106.088 53.7097 105.64 53.6564 105.16C53.6137 104.68 53.6724 104.205 53.8324 103.736C53.9924 103.256 54.2484 102.845 54.6004 102.504C54.9417 102.195 55.347 101.976 55.8164 101.848C56.2964 101.709 56.8244 101.629 57.4004 101.608C57.7204 101.597 58.0404 101.608 58.3604 101.64C58.691 101.672 59.0057 101.725 59.3044 101.8C59.6137 101.875 59.8964 101.971 60.1524 102.088C60.419 102.205 60.6484 102.344 60.8404 102.504C60.979 102.611 61.1177 102.755 61.2564 102.936C61.395 103.107 61.5017 103.293 61.5764 103.496C61.651 103.688 61.6724 103.875 61.6404 104.056C61.619 104.237 61.507 104.392 61.3044 104.52C61.1337 104.627 60.9684 104.675 60.8084 104.664C60.659 104.643 60.515 104.595 60.3764 104.52C60.2377 104.435 60.1044 104.339 59.9764 104.232C59.8484 104.125 59.731 104.029 59.6244 103.944C59.3364 103.731 58.979 103.587 58.5524 103.512C58.1257 103.437 57.7257 103.421 57.3524 103.464C57.1177 103.496 56.899 103.549 56.6964 103.624C56.4937 103.699 56.3177 103.8 56.1684 103.928C56.0297 104.056 55.9177 104.216 55.8324 104.408C55.7577 104.589 55.731 104.797 55.7524 105.032C55.763 105.203 55.811 105.347 55.8964 105.464C55.9924 105.581 56.1044 105.677 56.2324 105.752C56.371 105.827 56.5204 105.885 56.6804 105.928C56.8404 105.971 57.0004 106.003 57.1604 106.024C57.6404 106.088 58.1204 106.136 58.6004 106.168C59.0804 106.2 59.5497 106.307 60.0084 106.488C60.4777 106.669 60.8777 106.915 61.2084 107.224C61.539 107.533 61.7737 107.907 61.9124 108.344ZM65.5508 103.592L65.5188 106.104H66.1588C66.5961 106.093 66.9854 106.088 67.3268 106.088C67.6681 106.088 68.0468 106.093 68.4628 106.104H68.5428C68.6708 106.104 68.7934 106.109 68.9108 106.12C69.0388 106.12 69.1614 106.12 69.2788 106.12C69.4068 106.131 69.5294 106.152 69.6468 106.184C69.7641 106.205 69.8814 106.232 69.9988 106.264C70.1801 106.328 70.3294 106.424 70.4468 106.552C70.5534 106.691 70.6068 106.845 70.6068 107.016C70.6068 107.069 70.6068 107.133 70.6068 107.208C70.6068 107.272 70.5961 107.331 70.5748 107.384C70.5534 107.501 70.4841 107.608 70.3668 107.704C70.3134 107.779 70.2121 107.832 70.0628 107.864C69.9241 107.907 69.7854 107.933 69.6468 107.944C69.4974 107.976 69.3481 107.992 69.1988 107.992H68.4468L65.4868 108.008L65.4548 111.144L68.6388 111.176H69.3908C69.4761 111.176 69.5561 111.176 69.6308 111.176C69.7054 111.176 69.7748 111.181 69.8388 111.192C69.9241 111.213 69.9988 111.229 70.0628 111.24C70.1374 111.24 70.2068 111.251 70.2708 111.272C70.3988 111.315 70.5054 111.373 70.5908 111.448C70.6974 111.555 70.7668 111.667 70.7987 111.784C70.8094 111.837 70.8148 111.896 70.8148 111.96C70.8254 112.013 70.8254 112.072 70.8148 112.136C70.8148 112.307 70.7614 112.461 70.6548 112.6C70.5268 112.749 70.3774 112.845 70.2068 112.888C69.9828 112.984 69.7374 113.032 69.4708 113.032C69.3534 113.043 69.2308 113.048 69.1028 113.048C68.9748 113.048 68.8521 113.053 68.7348 113.064H68.6388C67.8068 113.085 66.9428 113.085 66.0468 113.064C65.8334 113.064 65.6628 113.059 65.5348 113.048C65.4068 113.048 65.2894 113.048 65.1828 113.048C65.0868 113.048 64.9854 113.048 64.8788 113.048C64.7721 113.048 64.6334 113.048 64.4628 113.048C64.2174 113.069 64.0148 113.027 63.8548 112.92C63.7374 112.845 63.6468 112.744 63.5828 112.616C63.5508 112.584 63.5348 112.552 63.5348 112.52C63.5241 112.499 63.5134 112.483 63.5028 112.472C63.4921 112.461 63.4814 112.445 63.4708 112.424C63.4494 112.371 63.4334 112.317 63.4228 112.264C63.4121 112.2 63.4068 112.141 63.4068 112.088C63.3961 112.035 63.3854 111.981 63.3748 111.928C63.3748 111.875 63.3694 111.821 63.3588 111.768V111.512C63.3588 111.469 63.3588 111.427 63.3588 111.384C63.3694 111.341 63.3748 111.299 63.3748 111.256V110.008L63.4068 107.704V105.576C63.4068 105.192 63.4068 104.851 63.4068 104.552C63.4174 104.253 63.4281 103.928 63.4388 103.576V103.496C63.4494 103.379 63.4548 103.272 63.4548 103.176C63.4654 103.069 63.4708 102.963 63.4708 102.856C63.4814 102.643 63.5401 102.435 63.6468 102.232C63.6894 102.147 63.7321 102.072 63.7747 102.008C63.8281 101.944 63.8974 101.891 63.9828 101.848C64.1428 101.752 64.3081 101.704 64.4788 101.704C64.5641 101.704 64.6281 101.709 64.6708 101.72V101.704C64.8628 101.704 65.0174 101.704 65.1348 101.704C65.2521 101.704 65.3641 101.704 65.4708 101.704C65.5881 101.704 65.7108 101.704 65.8388 101.704C65.9668 101.693 66.1428 101.688 66.3668 101.688C66.7934 101.677 67.1988 101.672 67.5828 101.672C67.9668 101.672 68.3614 101.677 68.7668 101.688H68.8308C68.9481 101.699 69.0708 101.704 69.1988 101.704C69.3268 101.704 69.4494 101.709 69.5668 101.72C69.6841 101.72 69.8014 101.736 69.9188 101.768C70.0361 101.789 70.1534 101.821 70.2708 101.864C70.4521 101.917 70.6014 102.008 70.7188 102.136C70.8148 102.285 70.8628 102.435 70.8628 102.584C70.8628 102.648 70.8628 102.712 70.8628 102.776C70.8628 102.829 70.8521 102.883 70.8308 102.936C70.8201 103.043 70.7561 103.155 70.6388 103.272C70.5961 103.293 70.5481 103.32 70.4948 103.352C70.4521 103.384 70.3988 103.411 70.3348 103.432C70.2708 103.453 70.2014 103.469 70.1268 103.48C70.0628 103.48 69.9988 103.485 69.9348 103.496C69.8494 103.517 69.7694 103.528 69.6948 103.528C69.6308 103.528 69.5561 103.528 69.4708 103.528H68.7508L65.5508 103.544V103.592ZM80.428 108.344C80.4813 108.493 80.5187 108.664 80.54 108.856C80.572 109.037 80.588 109.224 80.588 109.416C80.588 109.608 80.572 109.8 80.54 109.992C80.5187 110.173 80.4867 110.333 80.444 110.472C80.2733 111.069 79.932 111.571 79.42 111.976C78.908 112.371 78.3213 112.659 77.66 112.84C77.0093 113.021 76.332 113.085 75.628 113.032C74.9347 112.979 74.316 112.803 73.772 112.504C73.4307 112.312 73.1373 112.077 72.892 111.8C72.6467 111.523 72.4387 111.213 72.268 110.872C72.204 110.755 72.1613 110.621 72.14 110.472C72.1293 110.312 72.1453 110.163 72.188 110.024C72.2307 109.875 72.3 109.747 72.396 109.64C72.492 109.523 72.6253 109.443 72.796 109.4C72.9027 109.379 73.02 109.368 73.148 109.368C73.2867 109.368 73.42 109.389 73.548 109.432C73.676 109.464 73.7933 109.523 73.9 109.608C74.0067 109.683 74.092 109.789 74.156 109.928C74.2733 110.152 74.4387 110.36 74.652 110.552C74.876 110.733 75.1107 110.883 75.356 111C75.708 111.117 76.06 111.165 76.412 111.144C76.7747 111.123 77.1 111.043 77.388 110.904C77.6867 110.765 77.9267 110.579 78.108 110.344C78.2893 110.099 78.38 109.821 78.38 109.512C78.38 109.256 78.3427 109.048 78.268 108.888C78.1933 108.717 78.0867 108.579 77.948 108.472C77.82 108.355 77.66 108.259 77.468 108.184C77.2867 108.109 77.084 108.045 76.86 107.992C76.604 107.939 76.3427 107.901 76.076 107.88C75.82 107.859 75.5587 107.832 75.292 107.8C75.0253 107.768 74.764 107.725 74.508 107.672C74.252 107.619 74.0013 107.539 73.756 107.432C73.2653 107.229 72.892 106.92 72.636 106.504C72.38 106.088 72.2253 105.64 72.172 105.16C72.1293 104.68 72.188 104.205 72.348 103.736C72.508 103.256 72.764 102.845 73.116 102.504C73.4573 102.195 73.8627 101.976 74.332 101.848C74.812 101.709 75.34 101.629 75.916 101.608C76.236 101.597 76.556 101.608 76.876 101.64C77.2067 101.672 77.5213 101.725 77.82 101.8C78.1293 101.875 78.412 101.971 78.668 102.088C78.9347 102.205 79.164 102.344 79.356 102.504C79.4947 102.611 79.6333 102.755 79.772 102.936C79.9107 103.107 80.0173 103.293 80.092 103.496C80.1667 103.688 80.188 103.875 80.156 104.056C80.1347 104.237 80.0227 104.392 79.82 104.52C79.6493 104.627 79.484 104.675 79.324 104.664C79.1747 104.643 79.0307 104.595 78.892 104.52C78.7533 104.435 78.62 104.339 78.492 104.232C78.364 104.125 78.2467 104.029 78.14 103.944C77.852 103.731 77.4947 103.587 77.068 103.512C76.6413 103.437 76.2413 103.421 75.868 103.464C75.6333 103.496 75.4147 103.549 75.212 103.624C75.0093 103.699 74.8333 103.8 74.684 103.928C74.5453 104.056 74.4333 104.216 74.348 104.408C74.2733 104.589 74.2467 104.797 74.268 105.032C74.2787 105.203 74.3267 105.347 74.412 105.464C74.508 105.581 74.62 105.677 74.748 105.752C74.8867 105.827 75.036 105.885 75.196 105.928C75.356 105.971 75.516 106.003 75.676 106.024C76.156 106.088 76.636 106.136 77.116 106.168C77.596 106.2 78.0653 106.307 78.524 106.488C78.9933 106.669 79.3933 106.915 79.724 107.224C80.0547 107.533 80.2893 107.907 80.428 108.344Z" fill="#FAFAFA"/>
<defs>
<clipPath id="clip0">
<rect width="83" height="95" fill="white"/>
</clipPath>
</defs>
</svg>
