<svg width="75" height="75" viewBox="0 0 75 75" fill="none" xmlns="http://www.w3.org/2000/svg">
<path d="M28.4787 43.1016C25.2365 43.1016 22.599 44.962 22.599 47.249C22.599 49.5361 25.2365 51.3966 28.4787 51.3966C31.7209 51.3966 34.3583 49.5361 34.3583 47.249C34.3583 44.962 31.7207 43.1016 28.4787 43.1016ZM28.4787 48.6316C27.398 48.6316 26.5187 48.0113 26.5187 47.249C26.5187 46.4868 27.398 45.8665 28.4787 45.8665C29.5593 45.8665 30.4386 46.4868 30.4386 47.249C30.4386 48.0113 29.5592 48.6316 28.4787 48.6316Z" fill="#FAFAFA"/>
<path d="M50.6907 43.1016C47.4485 43.1016 44.811 44.962 44.811 47.249C44.811 49.5361 47.4485 51.3966 50.6907 51.3966C53.9329 51.3966 56.5704 49.5361 56.5704 47.249C56.5704 44.962 53.9329 43.1016 50.6907 43.1016ZM50.6907 48.6316C49.61 48.6316 48.7307 48.0113 48.7307 47.249C48.7307 46.4868 49.61 45.8665 50.6907 45.8665C51.7714 45.8665 52.6506 46.4868 52.6506 47.249C52.6506 48.0113 51.7714 48.6316 50.6907 48.6316Z" fill="#FAFAFA"/>
<path d="M61.1433 15.4526H17.4932L16.0302 10.1206C15.8514 9.47082 15.0453 9.00098 14.1059 9.00098H4.95994C3.87796 9.00098 3 9.62028 3 10.3835C3 11.1467 3.87796 11.766 4.95994 11.766H12.4894L13.501 15.4527H13.5002L18.1623 32.4419C16.1589 33.1037 14.7593 34.5292 14.7593 36.1902C14.7593 38.4772 17.3968 40.3377 20.639 40.3377H58.5301C59.612 40.3377 60.4901 39.7184 60.4901 38.9552C60.4901 38.1919 59.612 37.5726 58.5301 37.5726H20.639C19.5583 37.5726 18.6791 36.9524 18.6791 36.1901C18.6791 35.4278 19.5583 34.8076 20.639 34.8076H58.5301H58.8837L58.8897 34.782C59.7999 34.6625 60.4901 34.1014 60.4901 33.4251C60.4901 32.91 60.0854 32.466 59.4932 32.2281L63.0765 17.0629C63.2757 16.2163 62.35 15.4526 61.1433 15.4526ZM29.1318 27.8951C29.1318 28.6583 28.2539 29.2776 27.172 29.2776C26.09 29.2776 25.212 28.6583 25.212 27.8951V22.3651C25.212 21.6019 26.09 20.9826 27.172 20.9826C28.2539 20.9826 29.1318 21.6018 29.1318 22.3651V27.8951ZM40.8911 27.8951C40.8911 28.6583 40.0133 29.2776 38.9312 29.2776C37.849 29.2776 36.9712 28.6583 36.9712 27.8951V22.3651C36.9712 21.6019 37.849 20.9826 38.9312 20.9826C40.0133 20.9826 40.8911 21.6018 40.8911 22.3651V27.8951ZM52.6505 27.8951C52.6505 28.6583 51.7726 29.2776 50.6905 29.2776C49.6085 29.2776 48.7306 28.6583 48.7306 27.8951V22.3651C48.7306 21.6019 49.6085 20.9826 50.6905 20.9826C51.7726 20.9826 52.6505 21.6018 52.6505 22.3651V27.8951Z" fill="#FAFAFA"/>
<path d="M23.3766 58.4509C23.4553 58.5959 23.4583 58.7387 23.3857 58.8791C23.313 59.0143 23.198 59.1397 23.0406 59.2547C22.8832 59.3698 22.7016 59.4703 22.4957 59.5553C22.2959 59.6403 22.1052 59.7004 21.9236 59.7356C21.7238 59.7708 21.512 59.7858 21.2879 59.7807C21.07 59.7807 20.849 59.7581 20.625 59.713C20.4071 59.6731 20.1922 59.613 19.9803 59.5327C19.7745 59.4477 19.5838 59.3449 19.4082 59.2247C19.1963 59.0796 19.0298 58.9068 18.9087 58.7063C18.7937 58.5011 18.7089 58.2832 18.6544 58.0527C18.5999 57.8221 18.5697 57.592 18.5636 57.3615C18.5636 57.1262 18.5727 56.9055 18.5909 56.7003C18.609 56.5148 18.6544 56.3223 18.7271 56.1218C18.7997 55.9214 18.8996 55.7261 19.0267 55.5358C19.16 55.3405 19.3173 55.1601 19.499 54.9949C19.6867 54.8296 19.9046 54.6893 20.1528 54.5741C20.3405 54.484 20.5494 54.4239 20.7794 54.3938C21.0155 54.3587 21.2516 54.3512 21.4877 54.3713C21.7299 54.3863 21.9569 54.4289 22.1688 54.499C22.3868 54.5641 22.5714 54.6543 22.7227 54.7695C22.8196 54.8396 22.9195 54.9372 23.0224 55.0625C23.1314 55.1877 23.2101 55.3154 23.2585 55.4456C23.307 55.5758 23.307 55.6986 23.2585 55.8138C23.2162 55.924 23.0951 55.9993 22.8953 56.0392C22.8106 56.0594 22.7349 56.0641 22.6683 56.0542C22.6017 56.0392 22.5411 56.0166 22.4866 55.9866C22.4322 55.9515 22.3807 55.9114 22.3323 55.8664C22.2838 55.8213 22.2384 55.7762 22.196 55.7311C22.0508 55.5859 21.8813 55.4882 21.6875 55.4381C21.4938 55.383 21.3001 55.3705 21.1063 55.4006C20.9187 55.4256 20.7401 55.4907 20.5705 55.5959C20.4071 55.6961 20.2799 55.8263 20.1891 55.9866C20.0923 56.157 20.0136 56.3449 19.953 56.5501C19.8985 56.7506 19.8683 56.9558 19.8622 57.1661C19.8562 57.3713 19.8774 57.5718 19.9258 57.7672C19.9803 57.9625 20.0711 58.1353 20.1982 58.2856C20.2951 58.4058 20.4131 58.5034 20.5524 58.5786C20.6977 58.6537 20.852 58.7063 21.0155 58.7363C21.179 58.7664 21.3424 58.7716 21.5059 58.7514C21.6754 58.7312 21.8389 58.6861 21.9963 58.6161C22.0447 58.5959 22.0962 58.5687 22.1506 58.5335C22.2112 58.4936 22.2718 58.4532 22.3323 58.4133C22.3928 58.3734 22.4534 58.3358 22.5139 58.3006C22.5805 58.2654 22.6501 58.2405 22.7227 58.2255C22.8317 58.1954 22.9498 58.1978 23.0769 58.233C23.2101 58.2682 23.31 58.3405 23.3766 58.4509ZM25.5006 54.5741C25.9062 54.4489 26.2725 54.3938 26.5994 54.4088C26.9323 54.4239 27.229 54.494 27.4894 54.6192C27.7496 54.7394 27.9706 54.9022 28.1523 55.1075C28.3399 55.3129 28.4913 55.5433 28.6063 55.7987C28.6971 55.9889 28.7667 56.1894 28.8152 56.3998C28.8636 56.6102 28.8908 56.8205 28.8969 57.0309C28.909 57.2361 28.8999 57.4389 28.8697 57.6394C28.8454 57.8399 28.803 58.025 28.7425 58.1954C28.7062 58.3105 28.6638 58.4156 28.6154 58.511C28.5669 58.6063 28.5094 58.7011 28.4429 58.7965C28.2915 59.012 28.0947 59.1871 27.8526 59.3224C27.6165 59.4576 27.3561 59.5529 27.0716 59.6079C26.8779 59.6478 26.6781 59.668 26.4723 59.668C26.2664 59.6628 26.0636 59.6403 25.8638 59.6003C25.6641 59.5553 25.4703 59.4928 25.2826 59.4125C25.101 59.3275 24.9345 59.2223 24.7832 59.097C24.5955 58.9467 24.4411 58.7739 24.3201 58.5786C24.1989 58.3781 24.1051 58.1705 24.0385 57.955C23.9719 57.7348 23.9296 57.5141 23.9114 57.2938C23.8932 57.0736 23.8932 56.8633 23.9114 56.6627C23.9296 56.4773 23.9719 56.2796 24.0385 56.0692C24.1112 55.8589 24.2141 55.656 24.3473 55.4607C24.4804 55.2653 24.6409 55.09 24.8286 54.9347C25.0223 54.7745 25.2463 54.6543 25.5006 54.5741ZM27.6256 57.7897C27.6982 57.5545 27.7285 57.2887 27.7164 56.9933C27.7042 56.698 27.6467 56.42 27.5438 56.1594C27.4772 55.9993 27.3925 55.8589 27.2896 55.7386C27.1927 55.6134 27.0746 55.5183 26.9354 55.4531C26.8022 55.388 26.6448 55.3555 26.4632 55.3555C26.2816 55.3555 26.0787 55.4006 25.8548 55.4907C25.7215 55.5458 25.6065 55.6209 25.5097 55.7161C25.4189 55.8113 25.3432 55.919 25.2826 56.0392C25.2282 56.1594 25.1828 56.2847 25.1464 56.4148C25.1161 56.5449 25.098 56.6703 25.0919 56.7905C25.0798 56.9205 25.0768 57.0586 25.0829 57.2037C25.0889 57.3441 25.107 57.4868 25.1374 57.6319C25.1737 57.7723 25.2221 57.9076 25.2826 58.0376C25.3432 58.163 25.4249 58.2757 25.5278 58.3757C25.6852 58.526 25.8668 58.6312 26.0727 58.6913C26.2846 58.7462 26.4934 58.7537 26.6993 58.7138C27.0322 58.6537 27.2865 58.471 27.4621 58.1654C27.5348 58.055 27.5892 57.9301 27.6256 57.7897ZM34.5981 54.807C34.6345 55.0474 34.6556 55.3279 34.6617 55.6485C34.6677 55.964 34.6617 56.2847 34.6435 56.6102C34.6314 56.9309 34.6042 57.2361 34.5618 57.5267C34.5194 57.8122 34.4679 58.0428 34.4074 58.2179C34.365 58.3231 34.3136 58.4335 34.2531 58.5485C34.1986 58.6589 34.138 58.7589 34.0714 58.849C33.9746 58.9843 33.8565 59.1045 33.7173 59.2097C33.578 59.3097 33.4236 59.3975 33.2541 59.4726C33.0907 59.5426 32.9151 59.598 32.7274 59.6379C32.5458 59.6778 32.3642 59.7004 32.1826 59.7055C31.8617 59.7154 31.556 59.6778 31.2654 59.5928C30.9808 59.5027 30.7175 59.3623 30.4753 59.1721C30.2937 59.027 30.1484 58.8716 30.0394 58.7063C29.9305 58.541 29.8457 58.3682 29.7852 58.1879C29.7246 58.0024 29.6853 57.8122 29.6671 57.6169C29.655 57.4216 29.6489 57.2211 29.6489 57.0159C29.6489 56.9205 29.6459 56.8031 29.6399 56.6627C29.6399 56.5177 29.6399 56.3697 29.6399 56.2195C29.6399 56.0641 29.6399 55.9139 29.6399 55.7687C29.6399 55.6235 29.6429 55.5007 29.6489 55.4006C29.6489 55.3354 29.6489 55.2653 29.6489 55.1902C29.6489 55.11 29.652 55.0324 29.658 54.9573C29.6701 54.8771 29.6883 54.802 29.7125 54.7319C29.7367 54.6568 29.773 54.5891 29.8215 54.529C29.876 54.4639 29.9516 54.4163 30.0485 54.3863C30.1453 54.3562 30.2452 54.3412 30.3482 54.3412C30.4572 54.3412 30.5601 54.3587 30.6569 54.3938C30.7538 54.4289 30.8325 54.4789 30.8931 54.5441C30.9233 54.5841 30.9445 54.6242 30.9566 54.6643C30.9687 54.7043 30.9778 54.7494 30.9839 54.7995C30.996 54.9648 31.002 55.1526 31.002 55.363C31.008 55.5734 31.008 55.7787 31.002 55.9791C31.002 56.1744 30.999 56.3547 30.9929 56.52C30.9869 56.6853 30.9839 56.8078 30.9839 56.8881C30.9839 57.1887 31.002 57.4615 31.0384 57.7071C31.0747 57.9475 31.1594 58.148 31.2926 58.3081C31.4137 58.4532 31.556 58.5462 31.7194 58.5861C31.8829 58.626 32.0464 58.6387 32.2098 58.6237C32.3611 58.6086 32.5125 58.5635 32.6639 58.4884C32.8213 58.4081 32.9454 58.2931 33.0362 58.1428C33.0725 58.0879 33.1028 58.025 33.127 57.955C33.1512 57.885 33.1693 57.8198 33.1815 57.7597C33.2057 57.5695 33.2269 57.3488 33.2451 57.0985C33.2632 56.8431 33.2783 56.5825 33.2905 56.3171C33.3026 56.0518 33.3086 55.7912 33.3086 55.5358C33.3086 55.2803 33.3056 55.0499 33.2995 54.8446C33.3116 54.7544 33.3449 54.6718 33.3994 54.5967C33.4478 54.5315 33.5175 54.474 33.6083 54.4239C33.6991 54.3738 33.8232 54.3487 33.9806 54.3487C34.1078 54.3538 34.2107 54.3813 34.2894 54.4314C34.368 54.4765 34.4316 54.5266 34.4801 54.5816C34.5346 54.6468 34.5739 54.7219 34.5981 54.807ZM40.0812 59.3825C40.0873 59.4327 40.0812 59.4801 40.063 59.5252C40.0509 59.5553 40.0328 59.5802 40.0085 59.6003C39.9904 59.6205 39.9661 59.6403 39.9359 59.6605C39.8814 59.6905 39.8148 59.7182 39.7361 59.7431C39.6877 59.753 39.6392 59.7605 39.5908 59.7656C39.5484 59.7755 39.503 59.7755 39.4546 59.7656C39.3577 59.7605 39.273 59.7304 39.2003 59.6755C39.0974 59.6055 39.0126 59.5276 38.946 59.4426C38.9158 59.4027 38.8825 59.3576 38.8462 59.3073C38.8098 59.2571 38.7765 59.2045 38.7463 59.1496L37.7383 57.5643C37.6898 57.5643 37.6414 57.5667 37.593 57.5718C37.5446 57.5718 37.4961 57.5742 37.4477 57.5793C37.3205 57.5892 37.1995 57.592 37.0844 57.5869C36.9755 57.5817 36.8604 57.5817 36.7393 57.5869H36.5668V58.9467C36.5668 58.9866 36.5638 59.0242 36.5577 59.0594C36.5577 59.0946 36.5577 59.1322 36.5577 59.1721C36.5577 59.197 36.5547 59.2299 36.5486 59.2698C36.5486 59.3097 36.5456 59.3473 36.5396 59.3825C36.5275 59.4374 36.5002 59.4952 36.4578 59.5553C36.4154 59.6102 36.3579 59.6581 36.2853 59.698C36.1582 59.7633 36.0038 59.7807 35.8222 59.7506C35.7434 59.7356 35.6678 59.7107 35.5951 59.6755C35.5709 59.6605 35.5497 59.6431 35.5316 59.6229C35.5134 59.598 35.4982 59.5726 35.4862 59.5478C35.4741 59.5229 35.4619 59.4975 35.4498 59.4726C35.4438 59.4426 35.4347 59.4149 35.4226 59.39C35.4044 59.3397 35.3953 59.2923 35.3953 59.2472V54.9798C35.3953 54.9498 35.3953 54.9197 35.3953 54.8897C35.4014 54.8546 35.4074 54.8245 35.4135 54.7995C35.4196 54.7444 35.4407 54.6893 35.4771 54.6342C35.4952 54.5741 35.5255 54.5315 35.5679 54.5065C35.6042 54.4765 35.6587 54.4514 35.7313 54.4314C35.8101 54.4063 35.922 54.3963 36.0673 54.4013C36.3398 54.4063 36.6092 54.4088 36.8756 54.4088C37.1419 54.4088 37.4083 54.4139 37.6747 54.4239C37.8502 54.4339 38.0349 54.4514 38.2286 54.4765C38.4284 54.4965 38.6131 54.5341 38.7826 54.5891C38.8916 54.6242 38.9915 54.6593 39.0823 54.6943C39.1973 54.7494 39.2881 54.802 39.3547 54.8521C39.5666 55.0124 39.727 55.2052 39.836 55.4306C39.945 55.656 39.9995 55.8839 39.9995 56.1143C39.9995 56.3848 39.9207 56.6327 39.7633 56.8581C39.612 57.0835 39.3668 57.2511 39.0278 57.3615C39.0157 57.3713 38.9975 57.3788 38.9733 57.384C38.9551 57.384 38.94 57.3863 38.9279 57.3915L39.7633 58.7814L39.8451 58.9016C39.8572 58.9218 39.8723 58.9444 39.8905 58.9693C39.9086 58.9941 39.9238 59.0195 39.9359 59.0444C39.954 59.0693 39.9692 59.097 39.9813 59.127C39.9995 59.1571 40.0176 59.1848 40.0358 59.2097C40.0539 59.2796 40.0691 59.3374 40.0812 59.3825ZM37.8109 56.7078C37.9199 56.7078 38.0228 56.6928 38.1197 56.6627C38.2226 56.6275 38.3134 56.5825 38.3921 56.5275C38.4768 56.4726 38.5465 56.4097 38.601 56.3397C38.6555 56.2646 38.6857 56.1843 38.6918 56.0993C38.716 55.8489 38.6373 55.6635 38.4557 55.5433C38.274 55.4181 38.0349 55.3505 37.7383 55.3405C37.5627 55.3305 37.3689 55.3254 37.1571 55.3254C36.9512 55.3254 36.7545 55.3254 36.5668 55.3254C36.5729 55.5308 36.5729 55.7411 36.5668 55.9565C36.5668 56.1669 36.5668 56.4172 36.5668 56.7078H37.8109ZM45.5179 57.5267C45.5481 57.5967 45.5693 57.677 45.5814 57.7672C45.5996 57.8522 45.6087 57.94 45.6087 58.0301C45.6087 58.1203 45.5996 58.2104 45.5814 58.3006C45.5693 58.3856 45.5511 58.4607 45.5269 58.526C45.4301 58.8063 45.2363 59.042 44.9457 59.2322C44.6552 59.4177 44.3222 59.5529 43.9468 59.6379C43.5775 59.7229 43.1931 59.753 42.7935 59.7281C42.4 59.7032 42.0489 59.6205 41.7401 59.4801C41.5464 59.39 41.3799 59.2796 41.2407 59.1496C41.1014 59.0195 40.9833 58.8739 40.8865 58.7138C40.8502 58.6589 40.8259 58.5959 40.8139 58.526C40.8078 58.4509 40.8169 58.3809 40.8411 58.3156C40.8653 58.2457 40.9047 58.1855 40.9592 58.1353C41.0136 58.0804 41.0893 58.0428 41.1862 58.0226C41.2467 58.0127 41.3133 58.0076 41.386 58.0076C41.4646 58.0076 41.5403 58.0174 41.613 58.0376C41.6856 58.0527 41.7522 58.0804 41.8128 58.1203C41.8733 58.1555 41.9217 58.2053 41.9581 58.2705C42.0246 58.3757 42.1185 58.4734 42.2396 58.5635C42.3667 58.6485 42.4999 58.719 42.6392 58.7739C42.8389 58.8289 43.0387 58.8514 43.2385 58.8415C43.4443 58.8317 43.629 58.7941 43.7924 58.7288C43.9619 58.6636 44.0981 58.5762 44.2011 58.4659C44.304 58.3508 44.3555 58.2203 44.3555 58.0752C44.3555 57.955 44.3343 57.8573 44.2919 57.7822C44.2495 57.7019 44.189 57.6371 44.1103 57.5869C44.0376 57.5319 43.9468 57.4868 43.8379 57.4516C43.7349 57.4164 43.6199 57.3863 43.4928 57.3615C43.3475 57.3366 43.1991 57.3187 43.0478 57.3089C42.9025 57.299 42.7541 57.2863 42.6028 57.2713C42.4515 57.2563 42.3032 57.2361 42.1579 57.2112C42.0126 57.1863 41.8703 57.1487 41.731 57.0985C41.4525 57.0032 41.2407 56.8581 41.0954 56.6627C40.9501 56.4674 40.8623 56.257 40.832 56.0317C40.8078 55.8063 40.8411 55.5834 40.9319 55.363C41.0227 55.1376 41.168 54.9447 41.3678 54.7845C41.5615 54.6393 41.7915 54.5366 42.058 54.4765C42.3304 54.4113 42.6301 54.3738 42.957 54.3638C43.1386 54.3587 43.3202 54.3638 43.5019 54.3788C43.6895 54.3938 43.8681 54.4188 44.0376 54.4539C44.2132 54.489 44.3736 54.5341 44.5189 54.5891C44.6702 54.6442 44.8005 54.7094 44.9094 54.7845C44.9881 54.8346 45.0668 54.9022 45.1455 54.9873C45.2242 55.0675 45.2848 55.1551 45.3272 55.2503C45.3695 55.3405 45.3816 55.4281 45.3635 55.5133C45.3513 55.5984 45.2878 55.671 45.1728 55.7311C45.0759 55.7812 44.9821 55.8038 44.8913 55.7987C44.8065 55.7887 44.7247 55.7662 44.6461 55.7311C44.5674 55.6911 44.4917 55.646 44.419 55.5959C44.3464 55.5458 44.2798 55.5007 44.2193 55.4607C44.0558 55.3605 43.853 55.2929 43.6108 55.2578C43.3686 55.2227 43.1416 55.2152 42.9297 55.2353C42.7965 55.2503 42.6724 55.2753 42.5574 55.3104C42.4424 55.3455 42.3425 55.393 42.2577 55.4531C42.179 55.5133 42.1155 55.5884 42.067 55.6785C42.0246 55.7637 42.0095 55.8613 42.0216 55.9715C42.0277 56.0518 42.0549 56.1195 42.1034 56.1744C42.1579 56.2293 42.2214 56.2744 42.2941 56.3096C42.3727 56.3449 42.4575 56.3721 42.5483 56.3923C42.6392 56.4125 42.73 56.4275 42.8208 56.4374C43.0932 56.4674 43.3656 56.4899 43.6381 56.505C43.9105 56.52 44.1769 56.5702 44.4372 56.6552C44.7036 56.7402 44.9306 56.8557 45.1183 57.0008C45.3059 57.1459 45.4391 57.3215 45.5179 57.5267ZM47.5829 55.2954L47.5647 56.4749H47.928C48.1762 56.4698 48.3971 56.4674 48.5909 56.4674C48.7846 56.4674 48.9995 56.4698 49.2356 56.4749H49.2811C49.3537 56.4749 49.4233 56.4773 49.4899 56.4824C49.5626 56.4824 49.6322 56.4824 49.6988 56.4824C49.7714 56.4876 49.841 56.4975 49.9076 56.5125C49.9742 56.5223 50.0408 56.535 50.1074 56.5501C50.2103 56.5801 50.2951 56.6252 50.3617 56.6853C50.4222 56.7506 50.4525 56.8229 50.4525 56.9032C50.4525 56.9281 50.4525 56.9581 50.4525 56.9933C50.4525 57.0234 50.4464 57.0511 50.4344 57.076C50.4222 57.1309 50.3829 57.1811 50.3163 57.2262C50.286 57.2614 50.2285 57.2863 50.1438 57.3014C50.065 57.3215 49.9863 57.3338 49.9076 57.3389C49.8229 57.3539 49.7381 57.3615 49.6534 57.3615H49.2266L47.5466 57.369L47.5284 58.8415L49.3355 58.8566H49.7624C49.8108 58.8566 49.8562 58.8566 49.8986 58.8566C49.9409 58.8566 49.9803 58.8589 50.0166 58.8641C50.065 58.8739 50.1074 58.8814 50.1438 58.8866C50.1861 58.8866 50.2255 58.8918 50.2618 58.9016C50.3345 58.9218 50.395 58.9491 50.4434 58.9843C50.5039 59.0345 50.5433 59.0871 50.5614 59.1421C50.5675 59.1669 50.5706 59.1946 50.5706 59.2247C50.5766 59.2496 50.5766 59.2773 50.5706 59.3073C50.5706 59.3876 50.5403 59.4599 50.4798 59.5252C50.4071 59.5952 50.3223 59.6403 50.2255 59.6605C50.0984 59.7055 49.9591 59.7281 49.8078 59.7281C49.7411 59.7332 49.6715 59.7356 49.5989 59.7356C49.5262 59.7356 49.4566 59.7379 49.39 59.7431H49.3355C48.8633 59.753 48.3729 59.753 47.8644 59.7431C47.7433 59.7431 47.6465 59.7407 47.5738 59.7356C47.5012 59.7356 47.4345 59.7356 47.374 59.7356C47.3195 59.7356 47.262 59.7356 47.2015 59.7356C47.1409 59.7356 47.0622 59.7356 46.9654 59.7356C46.8261 59.7454 46.7111 59.7257 46.6203 59.6755C46.5537 59.6403 46.5022 59.5928 46.4659 59.5327C46.4478 59.5177 46.4387 59.5027 46.4387 59.4877C46.4326 59.4778 46.4265 59.4703 46.4205 59.4651C46.4144 59.4599 46.4084 59.4524 46.4024 59.4426C46.3902 59.4177 46.3811 59.3923 46.3751 59.3674C46.369 59.3374 46.366 59.3097 46.366 59.2848C46.36 59.2599 46.3539 59.2346 46.3479 59.2097C46.3479 59.1848 46.3448 59.1594 46.3388 59.1345V59.0143C46.3388 58.9941 46.3388 58.9744 46.3388 58.9542C46.3448 58.934 46.3479 58.9143 46.3479 58.8941V58.3081L46.366 57.2262V56.227C46.366 56.0467 46.366 55.8864 46.366 55.7462C46.372 55.6059 46.3781 55.4531 46.3842 55.2879V55.2503C46.3902 55.1952 46.3933 55.1451 46.3933 55.1C46.3993 55.0499 46.4024 54.9999 46.4024 54.9498C46.4084 54.8496 46.4417 54.7519 46.5022 54.6568C46.5264 54.6167 46.5507 54.5816 46.5748 54.5516C46.6051 54.5215 46.6445 54.4965 46.6929 54.4765C46.7838 54.4314 46.8776 54.4088 46.9745 54.4088C47.0229 54.4088 47.0592 54.4113 47.0834 54.4163V54.4088C47.1924 54.4088 47.2802 54.4088 47.3468 54.4088C47.4134 54.4088 47.4769 54.4088 47.5375 54.4088C47.6041 54.4088 47.6737 54.4088 47.7464 54.4088C47.819 54.4038 47.9189 54.4013 48.046 54.4013C48.2882 54.3963 48.5182 54.3938 48.7362 54.3938C48.9541 54.3938 49.1781 54.3963 49.4082 54.4013H49.4445C49.5111 54.4063 49.5807 54.4088 49.6534 54.4088C49.726 54.4088 49.7956 54.4113 49.8622 54.4163C49.9288 54.4163 49.9954 54.4239 50.062 54.4389C50.1286 54.4489 50.1952 54.4639 50.2618 54.484C50.3647 54.509 50.4495 54.5516 50.5161 54.6117C50.5706 54.6818 50.5978 54.7519 50.5978 54.8221C50.5978 54.8521 50.5978 54.8822 50.5978 54.9122C50.5978 54.9372 50.5917 54.9623 50.5797 54.9873C50.5736 55.0374 50.5373 55.09 50.4707 55.1451C50.4464 55.1551 50.4192 55.1677 50.3889 55.1827C50.3647 55.1977 50.3345 55.2102 50.2981 55.2202C50.2618 55.2302 50.2224 55.2378 50.1801 55.2428C50.1438 55.2428 50.1074 55.2453 50.0711 55.2503C50.0226 55.2603 49.9772 55.2653 49.9349 55.2653C49.8986 55.2653 49.8562 55.2653 49.8078 55.2653H49.3991L47.5829 55.2728V55.2954ZM56.0267 57.5267C56.057 57.5967 56.0782 57.677 56.0903 57.7672C56.1084 57.8522 56.1175 57.94 56.1175 58.0301C56.1175 58.1203 56.1084 58.2104 56.0903 58.3006C56.0782 58.3856 56.06 58.4607 56.0358 58.526C55.9389 58.8063 55.7452 59.042 55.4546 59.2322C55.164 59.4177 54.831 59.5529 54.4557 59.6379C54.0864 59.7229 53.702 59.753 53.3024 59.7281C52.9089 59.7032 52.5577 59.6205 52.249 59.4801C52.0553 59.39 51.8887 59.2796 51.7495 59.1496C51.6103 59.0195 51.4922 58.8739 51.3954 58.7138C51.359 58.6589 51.3348 58.5959 51.3227 58.526C51.3166 58.4509 51.3257 58.3809 51.35 58.3156C51.3742 58.2457 51.4135 58.1855 51.468 58.1353C51.5225 58.0804 51.5981 58.0428 51.695 58.0226C51.7556 58.0127 51.8222 58.0076 51.8948 58.0076C51.9735 58.0076 52.0492 58.0174 52.1218 58.0376C52.1945 58.0527 52.2611 58.0804 52.3216 58.1203C52.3822 58.1555 52.4306 58.2053 52.4669 58.2705C52.5335 58.3757 52.6274 58.4734 52.7484 58.5635C52.8756 58.6485 53.0088 58.719 53.148 58.7739C53.3478 58.8289 53.5476 58.8514 53.7474 58.8415C53.9532 58.8317 54.1378 58.7941 54.3013 58.7288C54.4708 58.6636 54.6071 58.5762 54.71 58.4659C54.8129 58.3508 54.8643 58.2203 54.8643 58.0752C54.8643 57.955 54.8432 57.8573 54.8008 57.7822C54.7584 57.7019 54.6979 57.6371 54.6191 57.5869C54.5465 57.5319 54.4557 57.4868 54.3467 57.4516C54.2438 57.4164 54.1288 57.3863 54.0016 57.3615C53.8563 57.3366 53.708 57.3187 53.5567 57.3089C53.4114 57.299 53.2631 57.2863 53.1117 57.2713C52.9603 57.2563 52.812 57.2361 52.6667 57.2112C52.5214 57.1863 52.3791 57.1487 52.2399 57.0985C51.9614 57.0032 51.7495 56.8581 51.6042 56.6627C51.4589 56.4674 51.3711 56.257 51.3409 56.0317C51.3166 55.8063 51.35 55.5834 51.4408 55.363C51.5316 55.1376 51.6769 54.9447 51.8767 54.7845C52.0704 54.6393 52.3005 54.5366 52.5668 54.4765C52.8393 54.4113 53.1389 54.3738 53.4658 54.3638C53.6475 54.3587 53.8291 54.3638 54.0107 54.3788C54.1984 54.3938 54.377 54.4188 54.5465 54.4539C54.722 54.489 54.8825 54.5341 55.0278 54.5891C55.1792 54.6442 55.3093 54.7094 55.4183 54.7845C55.497 54.8346 55.5757 54.9022 55.6544 54.9873C55.7331 55.0675 55.7936 55.1551 55.836 55.2503C55.8784 55.3405 55.8905 55.4281 55.8723 55.5133C55.8602 55.5984 55.7967 55.671 55.6816 55.7311C55.5847 55.7812 55.4909 55.8038 55.4001 55.7987C55.3154 55.7887 55.2336 55.7662 55.1549 55.7311C55.0762 55.6911 55.0005 55.646 54.9279 55.5959C54.8552 55.5458 54.7887 55.5007 54.7281 55.4607C54.5647 55.3605 54.3619 55.2929 54.1197 55.2578C53.8775 55.2227 53.6505 55.2152 53.4386 55.2353C53.3054 55.2503 53.1813 55.2753 53.0663 55.3104C52.9512 55.3455 52.8513 55.393 52.7666 55.4531C52.6879 55.5133 52.6243 55.5884 52.5759 55.6785C52.5335 55.7637 52.5184 55.8613 52.5305 55.9715C52.5366 56.0518 52.5638 56.1195 52.6122 56.1744C52.6667 56.2293 52.7303 56.2744 52.8029 56.3096C52.8816 56.3449 52.9664 56.3721 53.0572 56.3923C53.148 56.4125 53.2388 56.4275 53.3296 56.4374C53.6021 56.4674 53.8745 56.4899 54.1469 56.505C54.4194 56.52 54.6857 56.5702 54.9461 56.6552C55.2124 56.7402 55.4394 56.8557 55.6271 57.0008C55.8148 57.1459 55.948 57.3215 56.0267 57.5267Z" fill="white"/>
</svg>
