<svg width="111" height="115" viewBox="0 0 111 115" fill="none" xmlns="http://www.w3.org/2000/svg">
<g clip-path="url(#clip0)">
<path d="M44.891 72.6237C39.1786 72.6237 34.5315 76.5858 34.5315 81.4563C34.5315 86.3268 39.1786 90.289 44.891 90.289C50.6034 90.289 55.2503 86.3268 55.2503 81.4563C55.2503 76.5858 50.6031 72.6237 44.891 72.6237ZM44.891 84.4006C42.9869 84.4006 41.4377 83.0797 41.4377 81.4563C41.4377 79.8329 42.9869 78.512 44.891 78.512C46.795 78.512 48.3441 79.8329 48.3441 81.4563C48.3441 83.0797 46.7948 84.4006 44.891 84.4006Z" fill="#FAFAFA"/>
<path d="M84.0265 72.6237C78.3141 72.6237 73.667 76.5858 73.667 81.4563C73.667 86.3268 78.3141 90.289 84.0265 90.289C89.7389 90.289 94.386 86.3268 94.386 81.4563C94.386 76.5858 89.7389 72.6237 84.0265 72.6237ZM84.0265 84.4006C82.1224 84.4006 80.5732 83.0797 80.5732 81.4563C80.5732 79.8329 82.1224 78.512 84.0265 78.512C85.9306 78.512 87.4797 79.8329 87.4797 81.4563C87.4797 83.0797 85.9306 84.4006 84.0265 84.4006Z" fill="#FAFAFA"/>
<path d="M102.443 13.7406H25.5357L22.958 2.38536C22.643 1.00157 21.2226 0.000976562 19.5676 0.000976562H3.45322C1.54688 0.000976563 0 1.31987 0 2.94526C0 4.57063 1.54688 5.88953 3.45322 5.88953H16.7194L18.5017 13.7408H18.5003L26.7145 49.9215C23.1847 51.3309 20.7187 54.3667 20.7187 57.9039C20.7187 62.7744 25.3658 66.7365 31.0782 66.7365H97.8387C99.745 66.7365 101.292 65.4176 101.292 63.7923C101.292 62.1669 99.745 60.848 97.8387 60.848H31.0782C29.1741 60.848 27.625 59.5272 27.625 57.9037C27.625 56.2803 29.1741 54.9595 31.0782 54.9595H97.8387H98.4618L98.4724 54.9049C100.076 54.6505 101.292 53.4556 101.292 52.0153C101.292 50.9184 100.579 49.9728 99.5357 49.4661L105.849 17.1698C106.2 15.3669 104.569 13.7406 102.443 13.7406ZM46.0418 40.2384C46.0418 41.8638 44.4949 43.1827 42.5887 43.1827C40.6823 43.1827 39.1354 41.8638 39.1354 40.2384V28.4617C39.1354 26.8363 40.6823 25.5174 42.5887 25.5174C44.4949 25.5174 46.0418 26.8361 46.0418 28.4617V40.2384ZM66.7605 40.2384C66.7605 41.8638 65.2139 43.1827 63.3073 43.1827C61.4007 43.1827 59.8541 41.8638 59.8541 40.2384V28.4617C59.8541 26.8363 61.4007 25.5174 63.3073 25.5174C65.2139 25.5174 66.7605 26.8361 66.7605 28.4617V40.2384ZM87.4795 40.2384C87.4795 41.8638 85.9326 43.1827 84.0262 43.1827C82.1198 43.1827 80.573 41.8638 80.573 40.2384V28.4617C80.573 26.8363 82.1198 25.5174 84.0262 25.5174C85.9326 25.5174 87.4795 26.8361 87.4795 28.4617V40.2384Z" fill="#FAFAFA"/>
<path d="M35.9016 105.312C36.0403 105.621 36.0456 105.925 35.9176 106.224C35.7896 106.512 35.587 106.779 35.3096 107.024C35.0323 107.269 34.7123 107.483 34.3496 107.664C33.9976 107.845 33.6616 107.973 33.3416 108.048C32.9896 108.123 32.6163 108.155 32.2216 108.144C31.8376 108.144 31.4483 108.096 31.0536 108C30.6696 107.915 30.291 107.787 29.9176 107.616C29.555 107.435 29.219 107.216 28.9096 106.96C28.5363 106.651 28.243 106.283 28.0296 105.856C27.827 105.419 27.6776 104.955 27.5816 104.464C27.4856 103.973 27.4323 103.483 27.4216 102.992C27.4216 102.491 27.4376 102.021 27.4696 101.584C27.5016 101.189 27.5816 100.779 27.7096 100.352C27.8376 99.9253 28.0136 99.5093 28.2376 99.104C28.4723 98.688 28.7496 98.304 29.0696 97.952C29.4003 97.6 29.7843 97.3013 30.2216 97.056C30.5523 96.864 30.9203 96.736 31.3256 96.672C31.7416 96.5973 32.1576 96.5813 32.5736 96.624C33.0003 96.656 33.4003 96.7467 33.7736 96.896C34.1576 97.0347 34.483 97.2267 34.7496 97.472C34.9203 97.6213 35.0963 97.8293 35.2776 98.096C35.4696 98.3627 35.6083 98.6347 35.6936 98.912C35.779 99.1893 35.779 99.4507 35.6936 99.696C35.619 99.9307 35.4056 100.091 35.0536 100.176C34.9043 100.219 34.771 100.229 34.6536 100.208C34.5363 100.176 34.4296 100.128 34.3336 100.064C34.2376 99.9893 34.147 99.904 34.0616 99.808C33.9763 99.712 33.8963 99.616 33.8216 99.52C33.5656 99.2107 33.267 99.0027 32.9256 98.896C32.5843 98.7787 32.243 98.752 31.9016 98.816C31.571 98.8693 31.2563 99.008 30.9576 99.232C30.6696 99.4453 30.4456 99.7227 30.2856 100.064C30.115 100.427 29.9763 100.827 29.8696 101.264C29.7736 101.691 29.7203 102.128 29.7096 102.576C29.699 103.013 29.7363 103.44 29.8216 103.856C29.9176 104.272 30.0776 104.64 30.3016 104.96C30.4723 105.216 30.6803 105.424 30.9256 105.584C31.1816 105.744 31.4536 105.856 31.7416 105.92C32.0296 105.984 32.3176 105.995 32.6056 105.952C32.9043 105.909 33.1923 105.813 33.4696 105.664C33.555 105.621 33.6456 105.563 33.7416 105.488C33.8483 105.403 33.955 105.317 34.0616 105.232C34.1683 105.147 34.275 105.067 34.3816 104.992C34.499 104.917 34.6216 104.864 34.7496 104.832C34.9416 104.768 35.1496 104.773 35.3736 104.848C35.6083 104.923 35.7843 105.077 35.9016 105.312ZM39.6439 97.056C40.3585 96.7893 41.0039 96.672 41.5799 96.704C42.1665 96.736 42.6892 96.8853 43.1479 97.152C43.6065 97.408 43.9959 97.7547 44.3159 98.192C44.6465 98.6293 44.9132 99.12 45.1159 99.664C45.2759 100.069 45.3985 100.496 45.4839 100.944C45.5692 101.392 45.6172 101.84 45.6279 102.288C45.6492 102.725 45.6332 103.157 45.5799 103.584C45.5372 104.011 45.4625 104.405 45.3559 104.768C45.2919 105.013 45.2172 105.237 45.1319 105.44C45.0465 105.643 44.9452 105.845 44.8279 106.048C44.5612 106.507 44.2145 106.88 43.7879 107.168C43.3719 107.456 42.9132 107.659 42.4119 107.776C42.0705 107.861 41.7185 107.904 41.3559 107.904C40.9932 107.893 40.6359 107.845 40.2839 107.76C39.9319 107.664 39.5905 107.531 39.2599 107.36C38.9399 107.179 38.6465 106.955 38.3799 106.688C38.0492 106.368 37.7772 106 37.5639 105.584C37.3505 105.157 37.1852 104.715 37.0679 104.256C36.9505 103.787 36.8759 103.317 36.8439 102.848C36.8119 102.379 36.8119 101.931 36.8439 101.504C36.8759 101.109 36.9505 100.688 37.0679 100.24C37.1959 99.792 37.3772 99.36 37.6119 98.944C37.8465 98.528 38.1292 98.1547 38.4599 97.824C38.8012 97.4827 39.1959 97.2267 39.6439 97.056ZM43.3879 103.904C43.5159 103.403 43.5692 102.837 43.5479 102.208C43.5265 101.579 43.4252 100.987 43.2439 100.432C43.1265 100.091 42.9772 99.792 42.7959 99.536C42.6252 99.2693 42.4172 99.0667 42.1719 98.928C41.9372 98.7893 41.6599 98.72 41.3399 98.72C41.0199 98.72 40.6625 98.816 40.2679 99.008C40.0332 99.1253 39.8305 99.2853 39.6599 99.488C39.4999 99.6907 39.3665 99.92 39.2599 100.176C39.1639 100.432 39.0839 100.699 39.0199 100.976C38.9665 101.253 38.9345 101.52 38.9239 101.776C38.9025 102.053 38.8972 102.347 38.9079 102.656C38.9185 102.955 38.9505 103.259 39.0039 103.568C39.0679 103.867 39.1532 104.155 39.2599 104.432C39.3665 104.699 39.5105 104.939 39.6919 105.152C39.9692 105.472 40.2892 105.696 40.6519 105.824C41.0252 105.941 41.3932 105.957 41.7559 105.872C42.3425 105.744 42.7905 105.355 43.0999 104.704C43.2279 104.469 43.3239 104.203 43.3879 103.904ZM55.6729 97.552C55.7369 98.064 55.7742 98.6613 55.7849 99.344C55.7955 100.016 55.7849 100.699 55.7529 101.392C55.7315 102.075 55.6835 102.725 55.6089 103.344C55.5342 103.952 55.4435 104.443 55.3369 104.816C55.2622 105.04 55.1715 105.275 55.0649 105.52C54.9689 105.755 54.8622 105.968 54.7449 106.16C54.5742 106.448 54.3662 106.704 54.1209 106.928C53.8755 107.141 53.6035 107.328 53.3049 107.488C53.0169 107.637 52.7075 107.755 52.3769 107.84C52.0569 107.925 51.7369 107.973 51.4169 107.984C50.8515 108.005 50.3129 107.925 49.8009 107.744C49.2995 107.552 48.8355 107.253 48.4089 106.848C48.0889 106.539 47.8329 106.208 47.6409 105.856C47.4489 105.504 47.2995 105.136 47.1929 104.752C47.0862 104.357 47.0169 103.952 46.9849 103.536C46.9635 103.12 46.9529 102.693 46.9529 102.256C46.9529 102.053 46.9475 101.803 46.9369 101.504C46.9369 101.195 46.9369 100.88 46.9369 100.56C46.9369 100.229 46.9369 99.9093 46.9369 99.6C46.9369 99.2907 46.9422 99.0293 46.9529 98.816C46.9529 98.6773 46.9529 98.528 46.9529 98.368C46.9529 98.1973 46.9582 98.032 46.9689 97.872C46.9902 97.7013 47.0222 97.5413 47.0649 97.392C47.1075 97.232 47.1715 97.088 47.2569 96.96C47.3529 96.8213 47.4862 96.72 47.6569 96.656C47.8275 96.592 48.0035 96.56 48.1849 96.56C48.3769 96.56 48.5582 96.5973 48.7289 96.672C48.8995 96.7467 49.0382 96.8533 49.1449 96.992C49.1982 97.0773 49.2355 97.1627 49.2569 97.248C49.2782 97.3333 49.2942 97.4293 49.3049 97.536C49.3262 97.888 49.3369 98.288 49.3369 98.736C49.3475 99.184 49.3475 99.6213 49.3369 100.048C49.3369 100.464 49.3315 100.848 49.3209 101.2C49.3102 101.552 49.3049 101.813 49.3049 101.984C49.3049 102.624 49.3369 103.205 49.4009 103.728C49.4649 104.24 49.6142 104.667 49.8489 105.008C50.0622 105.317 50.3129 105.515 50.6009 105.6C50.8889 105.685 51.1769 105.712 51.4649 105.68C51.7315 105.648 51.9982 105.552 52.2649 105.392C52.5422 105.221 52.7609 104.976 52.9209 104.656C52.9849 104.539 53.0382 104.405 53.0809 104.256C53.1235 104.107 53.1555 103.968 53.1769 103.84C53.2195 103.435 53.2569 102.965 53.2889 102.432C53.3209 101.888 53.3475 101.333 53.3689 100.768C53.3902 100.203 53.4009 99.648 53.4009 99.104C53.4009 98.56 53.3955 98.0693 53.3849 97.632C53.4062 97.44 53.4649 97.264 53.5609 97.104C53.6462 96.9653 53.7689 96.8427 53.9289 96.736C54.0889 96.6293 54.3075 96.576 54.5849 96.576C54.8089 96.5867 54.9902 96.6453 55.1289 96.752C55.2675 96.848 55.3795 96.9547 55.4649 97.072C55.5609 97.2107 55.6302 97.3707 55.6729 97.552ZM65.3335 107.296C65.3442 107.403 65.3335 107.504 65.3015 107.6C65.2802 107.664 65.2482 107.717 65.2055 107.76C65.1735 107.803 65.1308 107.845 65.0775 107.888C64.9815 107.952 64.8642 108.011 64.7255 108.064C64.6402 108.085 64.5548 108.101 64.4695 108.112C64.3948 108.133 64.3148 108.133 64.2295 108.112C64.0588 108.101 63.9095 108.037 63.7815 107.92C63.6002 107.771 63.4508 107.605 63.3335 107.424C63.2802 107.339 63.2215 107.243 63.1575 107.136C63.0935 107.029 63.0348 106.917 62.9815 106.8L61.2055 103.424C61.1202 103.424 61.0348 103.429 60.9495 103.44C60.8642 103.44 60.7788 103.445 60.6935 103.456C60.4695 103.477 60.2562 103.483 60.0535 103.472C59.8615 103.461 59.6588 103.461 59.4455 103.472H59.1415V106.368C59.1415 106.453 59.1362 106.533 59.1255 106.608C59.1255 106.683 59.1255 106.763 59.1255 106.848C59.1255 106.901 59.1202 106.971 59.1095 107.056C59.1095 107.141 59.1042 107.221 59.0935 107.296C59.0722 107.413 59.0242 107.536 58.9495 107.664C58.8748 107.781 58.7735 107.883 58.6455 107.968C58.4215 108.107 58.1495 108.144 57.8295 108.08C57.6908 108.048 57.5575 107.995 57.4295 107.92C57.3868 107.888 57.3495 107.851 57.3175 107.808C57.2855 107.755 57.2588 107.701 57.2375 107.648C57.2162 107.595 57.1948 107.541 57.1735 107.488C57.1628 107.424 57.1468 107.365 57.1255 107.312C57.0935 107.205 57.0775 107.104 57.0775 107.008V97.92C57.0775 97.856 57.0775 97.792 57.0775 97.728C57.0882 97.6533 57.0988 97.5893 57.1095 97.536C57.1202 97.4187 57.1575 97.3013 57.2215 97.184C57.2535 97.056 57.3068 96.9653 57.3815 96.912C57.4455 96.848 57.5415 96.7947 57.6695 96.752C57.8082 96.6987 58.0055 96.6773 58.2615 96.688C58.7415 96.6987 59.2162 96.704 59.6855 96.704C60.1548 96.704 60.6242 96.7147 61.0935 96.736C61.4028 96.7573 61.7282 96.7947 62.0695 96.848C62.4215 96.8907 62.7468 96.9707 63.0455 97.088C63.2375 97.1627 63.4135 97.2373 63.5735 97.312C63.7762 97.4293 63.9362 97.5413 64.0535 97.648C64.4268 97.9893 64.7095 98.4 64.9015 98.88C65.0935 99.36 65.1895 99.8453 65.1895 100.336C65.1895 100.912 65.0508 101.44 64.7735 101.92C64.5068 102.4 64.0748 102.757 63.4775 102.992C63.4562 103.013 63.4242 103.029 63.3815 103.04C63.3495 103.04 63.3228 103.045 63.3015 103.056L64.7735 106.016L64.9175 106.272C64.9388 106.315 64.9655 106.363 64.9975 106.416C65.0295 106.469 65.0562 106.523 65.0775 106.576C65.1095 106.629 65.1362 106.688 65.1575 106.752C65.1895 106.816 65.2215 106.875 65.2535 106.928C65.2855 107.077 65.3122 107.2 65.3335 107.296ZM61.3335 101.6C61.5255 101.6 61.7068 101.568 61.8775 101.504C62.0588 101.429 62.2188 101.333 62.3575 101.216C62.5068 101.099 62.6295 100.965 62.7255 100.816C62.8215 100.656 62.8748 100.485 62.8855 100.304C62.9282 99.7707 62.7895 99.376 62.4695 99.12C62.1495 98.8533 61.7282 98.7093 61.2055 98.688C60.8962 98.6667 60.5548 98.656 60.1815 98.656C59.8188 98.656 59.4722 98.656 59.1415 98.656C59.1522 99.0933 59.1522 99.5413 59.1415 100C59.1415 100.448 59.1415 100.981 59.1415 101.6H61.3335ZM74.9124 103.344C74.9657 103.493 75.003 103.664 75.0244 103.856C75.0564 104.037 75.0724 104.224 75.0724 104.416C75.0724 104.608 75.0564 104.8 75.0244 104.992C75.003 105.173 74.971 105.333 74.9284 105.472C74.7577 106.069 74.4164 106.571 73.9044 106.976C73.3924 107.371 72.8057 107.659 72.1444 107.84C71.4937 108.021 70.8164 108.085 70.1124 108.032C69.419 107.979 68.8004 107.803 68.2564 107.504C67.915 107.312 67.6217 107.077 67.3764 106.8C67.131 106.523 66.923 106.213 66.7524 105.872C66.6884 105.755 66.6457 105.621 66.6244 105.472C66.6137 105.312 66.6297 105.163 66.6724 105.024C66.715 104.875 66.7844 104.747 66.8804 104.64C66.9764 104.523 67.1097 104.443 67.2804 104.4C67.387 104.379 67.5044 104.368 67.6324 104.368C67.771 104.368 67.9044 104.389 68.0324 104.432C68.1604 104.464 68.2777 104.523 68.3844 104.608C68.491 104.683 68.5764 104.789 68.6404 104.928C68.7577 105.152 68.923 105.36 69.1364 105.552C69.3604 105.733 69.595 105.883 69.8404 106C70.1924 106.117 70.5444 106.165 70.8964 106.144C71.259 106.123 71.5844 106.043 71.8724 105.904C72.171 105.765 72.411 105.579 72.5924 105.344C72.7737 105.099 72.8644 104.821 72.8644 104.512C72.8644 104.256 72.827 104.048 72.7524 103.888C72.6777 103.717 72.571 103.579 72.4324 103.472C72.3044 103.355 72.1444 103.259 71.9524 103.184C71.771 103.109 71.5684 103.045 71.3444 102.992C71.0884 102.939 70.827 102.901 70.5604 102.88C70.3044 102.859 70.043 102.832 69.7764 102.8C69.5097 102.768 69.2484 102.725 68.9924 102.672C68.7364 102.619 68.4857 102.539 68.2404 102.432C67.7497 102.229 67.3764 101.92 67.1204 101.504C66.8644 101.088 66.7097 100.64 66.6564 100.16C66.6137 99.68 66.6724 99.2053 66.8324 98.736C66.9924 98.256 67.2484 97.8453 67.6004 97.504C67.9417 97.1947 68.347 96.976 68.8164 96.848C69.2964 96.7093 69.8244 96.6293 70.4004 96.608C70.7204 96.5973 71.0404 96.608 71.3604 96.64C71.691 96.672 72.0057 96.7253 72.3044 96.8C72.6137 96.8747 72.8964 96.9707 73.1524 97.088C73.419 97.2053 73.6484 97.344 73.8404 97.504C73.979 97.6107 74.1177 97.7547 74.2564 97.936C74.395 98.1067 74.5017 98.2933 74.5764 98.496C74.651 98.688 74.6724 98.8747 74.6404 99.056C74.619 99.2373 74.507 99.392 74.3044 99.52C74.1337 99.6267 73.9684 99.6747 73.8084 99.664C73.659 99.6427 73.515 99.5947 73.3764 99.52C73.2377 99.4347 73.1044 99.3387 72.9764 99.232C72.8484 99.1253 72.731 99.0293 72.6244 98.944C72.3364 98.7307 71.979 98.5867 71.5524 98.512C71.1257 98.4373 70.7257 98.4213 70.3524 98.464C70.1177 98.496 69.899 98.5493 69.6964 98.624C69.4937 98.6987 69.3177 98.8 69.1684 98.928C69.0297 99.056 68.9177 99.216 68.8324 99.408C68.7577 99.5893 68.731 99.7973 68.7524 100.032C68.763 100.203 68.811 100.347 68.8964 100.464C68.9924 100.581 69.1044 100.677 69.2324 100.752C69.371 100.827 69.5204 100.885 69.6804 100.928C69.8404 100.971 70.0004 101.003 70.1604 101.024C70.6404 101.088 71.1204 101.136 71.6004 101.168C72.0804 101.2 72.5497 101.307 73.0084 101.488C73.4777 101.669 73.8777 101.915 74.2084 102.224C74.539 102.533 74.7737 102.907 74.9124 103.344ZM78.5508 98.592L78.5188 101.104H79.1588C79.5961 101.093 79.9854 101.088 80.3268 101.088C80.6681 101.088 81.0468 101.093 81.4628 101.104H81.5428C81.6708 101.104 81.7934 101.109 81.9108 101.12C82.0388 101.12 82.1614 101.12 82.2788 101.12C82.4068 101.131 82.5294 101.152 82.6468 101.184C82.7641 101.205 82.8814 101.232 82.9988 101.264C83.1801 101.328 83.3294 101.424 83.4468 101.552C83.5534 101.691 83.6068 101.845 83.6068 102.016C83.6068 102.069 83.6068 102.133 83.6068 102.208C83.6068 102.272 83.5961 102.331 83.5748 102.384C83.5534 102.501 83.4841 102.608 83.3668 102.704C83.3134 102.779 83.2121 102.832 83.0628 102.864C82.9241 102.907 82.7854 102.933 82.6468 102.944C82.4974 102.976 82.3481 102.992 82.1988 102.992H81.4468L78.4868 103.008L78.4548 106.144L81.6388 106.176H82.3908C82.4761 106.176 82.5561 106.176 82.6308 106.176C82.7054 106.176 82.7748 106.181 82.8388 106.192C82.9241 106.213 82.9988 106.229 83.0628 106.24C83.1374 106.24 83.2068 106.251 83.2708 106.272C83.3988 106.315 83.5054 106.373 83.5908 106.448C83.6974 106.555 83.7668 106.667 83.7987 106.784C83.8094 106.837 83.8148 106.896 83.8148 106.96C83.8254 107.013 83.8254 107.072 83.8148 107.136C83.8148 107.307 83.7614 107.461 83.6548 107.6C83.5268 107.749 83.3774 107.845 83.2068 107.888C82.9828 107.984 82.7374 108.032 82.4708 108.032C82.3534 108.043 82.2308 108.048 82.1028 108.048C81.9748 108.048 81.8521 108.053 81.7348 108.064H81.6388C80.8068 108.085 79.9428 108.085 79.0468 108.064C78.8334 108.064 78.6628 108.059 78.5348 108.048C78.4068 108.048 78.2894 108.048 78.1828 108.048C78.0868 108.048 77.9854 108.048 77.8788 108.048C77.7721 108.048 77.6334 108.048 77.4628 108.048C77.2174 108.069 77.0148 108.027 76.8548 107.92C76.7374 107.845 76.6468 107.744 76.5828 107.616C76.5508 107.584 76.5348 107.552 76.5348 107.52C76.5241 107.499 76.5134 107.483 76.5028 107.472C76.4921 107.461 76.4814 107.445 76.4708 107.424C76.4494 107.371 76.4334 107.317 76.4228 107.264C76.4121 107.2 76.4068 107.141 76.4068 107.088C76.3961 107.035 76.3854 106.981 76.3748 106.928C76.3748 106.875 76.3694 106.821 76.3588 106.768V106.512C76.3588 106.469 76.3588 106.427 76.3588 106.384C76.3694 106.341 76.3748 106.299 76.3748 106.256V105.008L76.4068 102.704V100.576C76.4068 100.192 76.4068 99.8507 76.4068 99.552C76.4174 99.2533 76.4281 98.928 76.4388 98.576V98.496C76.4494 98.3787 76.4548 98.272 76.4548 98.176C76.4654 98.0693 76.4708 97.9627 76.4708 97.856C76.4814 97.6427 76.5401 97.4347 76.6468 97.232C76.6894 97.1467 76.7321 97.072 76.7747 97.008C76.8281 96.944 76.8974 96.8907 76.9828 96.848C77.1428 96.752 77.3081 96.704 77.4788 96.704C77.5641 96.704 77.6281 96.7093 77.6708 96.72V96.704C77.8628 96.704 78.0174 96.704 78.1348 96.704C78.2521 96.704 78.3641 96.704 78.4708 96.704C78.5881 96.704 78.7108 96.704 78.8388 96.704C78.9668 96.6933 79.1428 96.688 79.3668 96.688C79.7934 96.6773 80.1988 96.672 80.5828 96.672C80.9668 96.672 81.3614 96.6773 81.7668 96.688H81.8308C81.9481 96.6987 82.0708 96.704 82.1988 96.704C82.3268 96.704 82.4494 96.7093 82.5668 96.72C82.6841 96.72 82.8014 96.736 82.9188 96.768C83.0361 96.7893 83.1534 96.8213 83.2708 96.864C83.4521 96.9173 83.6014 97.008 83.7188 97.136C83.8148 97.2853 83.8628 97.4347 83.8628 97.584C83.8628 97.648 83.8628 97.712 83.8628 97.776C83.8628 97.8293 83.8521 97.8827 83.8308 97.936C83.8201 98.0427 83.7561 98.1547 83.6388 98.272C83.5961 98.2933 83.5481 98.32 83.4948 98.352C83.4521 98.384 83.3988 98.4107 83.3348 98.432C83.2708 98.4533 83.2014 98.4693 83.1268 98.48C83.0628 98.48 82.9988 98.4853 82.9348 98.496C82.8494 98.5173 82.7694 98.528 82.6948 98.528C82.6308 98.528 82.5561 98.528 82.4708 98.528H81.7508L78.5508 98.544V98.592ZM93.428 103.344C93.4813 103.493 93.5187 103.664 93.54 103.856C93.572 104.037 93.588 104.224 93.588 104.416C93.588 104.608 93.572 104.8 93.54 104.992C93.5187 105.173 93.4867 105.333 93.444 105.472C93.2733 106.069 92.932 106.571 92.42 106.976C91.908 107.371 91.3213 107.659 90.66 107.84C90.0093 108.021 89.332 108.085 88.628 108.032C87.9347 107.979 87.316 107.803 86.772 107.504C86.4307 107.312 86.1373 107.077 85.892 106.8C85.6467 106.523 85.4387 106.213 85.268 105.872C85.204 105.755 85.1613 105.621 85.14 105.472C85.1293 105.312 85.1453 105.163 85.188 105.024C85.2307 104.875 85.3 104.747 85.396 104.64C85.492 104.523 85.6253 104.443 85.796 104.4C85.9027 104.379 86.02 104.368 86.148 104.368C86.2867 104.368 86.42 104.389 86.548 104.432C86.676 104.464 86.7933 104.523 86.9 104.608C87.0067 104.683 87.092 104.789 87.156 104.928C87.2733 105.152 87.4387 105.36 87.652 105.552C87.876 105.733 88.1107 105.883 88.356 106C88.708 106.117 89.06 106.165 89.412 106.144C89.7747 106.123 90.1 106.043 90.388 105.904C90.6867 105.765 90.9267 105.579 91.108 105.344C91.2893 105.099 91.38 104.821 91.38 104.512C91.38 104.256 91.3427 104.048 91.268 103.888C91.1933 103.717 91.0867 103.579 90.948 103.472C90.82 103.355 90.66 103.259 90.468 103.184C90.2867 103.109 90.084 103.045 89.86 102.992C89.604 102.939 89.3427 102.901 89.076 102.88C88.82 102.859 88.5587 102.832 88.292 102.8C88.0253 102.768 87.764 102.725 87.508 102.672C87.252 102.619 87.0013 102.539 86.756 102.432C86.2653 102.229 85.892 101.92 85.636 101.504C85.38 101.088 85.2253 100.64 85.172 100.16C85.1293 99.68 85.188 99.2053 85.348 98.736C85.508 98.256 85.764 97.8453 86.116 97.504C86.4573 97.1947 86.8627 96.976 87.332 96.848C87.812 96.7093 88.34 96.6293 88.916 96.608C89.236 96.5973 89.556 96.608 89.876 96.64C90.2067 96.672 90.5213 96.7253 90.82 96.8C91.1293 96.8747 91.412 96.9707 91.668 97.088C91.9347 97.2053 92.164 97.344 92.356 97.504C92.4947 97.6107 92.6333 97.7547 92.772 97.936C92.9107 98.1067 93.0173 98.2933 93.092 98.496C93.1667 98.688 93.188 98.8747 93.156 99.056C93.1347 99.2373 93.0227 99.392 92.82 99.52C92.6493 99.6267 92.484 99.6747 92.324 99.664C92.1747 99.6427 92.0307 99.5947 91.892 99.52C91.7533 99.4347 91.62 99.3387 91.492 99.232C91.364 99.1253 91.2467 99.0293 91.14 98.944C90.852 98.7307 90.4947 98.5867 90.068 98.512C89.6413 98.4373 89.2413 98.4213 88.868 98.464C88.6333 98.496 88.4147 98.5493 88.212 98.624C88.0093 98.6987 87.8333 98.8 87.684 98.928C87.5453 99.056 87.4333 99.216 87.348 99.408C87.2733 99.5893 87.2467 99.7973 87.268 100.032C87.2787 100.203 87.3267 100.347 87.412 100.464C87.508 100.581 87.62 100.677 87.748 100.752C87.8867 100.827 88.036 100.885 88.196 100.928C88.356 100.971 88.516 101.003 88.676 101.024C89.156 101.088 89.636 101.136 90.116 101.168C90.596 101.2 91.0653 101.307 91.524 101.488C91.9933 101.669 92.3933 101.915 92.724 102.224C93.0547 102.533 93.2893 102.907 93.428 103.344Z" fill="white"/>
</g>
<defs>
<clipPath id="clip0">
<rect width="111" height="115" fill="white"/>
</clipPath>
</defs>
</svg>
