<svg width="75" height="75" viewBox="0 0 75 75" fill="none" xmlns="http://www.w3.org/2000/svg">
<path d="M43.9197 53.8H62.6734V33.6464H43.9197V53.8ZM44.8574 35.1393C44.8574 34.7271 45.2772 34.3929 45.7951 34.3929C46.3129 34.3929 46.7328 34.7271 46.7328 35.1393V38.125C46.7328 38.5373 46.3129 38.8714 45.7951 38.8714C45.2772 38.8714 44.8574 38.5373 44.8574 38.125V35.1393Z" fill="#FAFAFA"/>
<path d="M62.6734 21.7035H43.9197V32.1535H62.6734V21.7035ZM46.7328 30.6606C46.7328 31.0729 46.3129 31.4071 45.7951 31.4071C45.2772 31.4071 44.8574 31.0729 44.8574 30.6606V27.675C44.8574 27.2627 45.2772 26.9285 45.7951 26.9285C46.3129 26.9285 46.7328 27.2627 46.7328 27.675V30.6606Z" fill="#FAFAFA"/>
<path d="M20.4778 38.8714H21.4155C21.9333 38.8714 22.3532 38.5372 22.3532 38.125C22.3532 37.7127 21.9333 37.3785 21.4155 37.3785H12.0387C11.5208 37.3785 11.101 37.7127 11.101 38.125C11.101 38.5372 11.5208 38.8714 12.0387 38.8714H12.9764V40.3643H10.1633V43.35H23.2909V40.3643H20.4778V38.8714ZM14.8517 40.3643V38.8714H18.6024V40.3643H14.8517Z" fill="#FAFAFA"/>
<path d="M10.1633 44.8428H23.2909V53.8H10.1633V44.8428Z" fill="#FAFAFA"/>
<path d="M37.3561 40.3643V38.8714H38.2938C38.8116 38.8714 39.2315 38.5372 39.2315 38.125C39.2315 37.7127 38.8116 37.3785 38.2938 37.3785H28.9169C28.3991 37.3785 27.9793 37.7127 27.9793 38.125C27.9793 38.5372 28.3991 38.8714 28.9169 38.8714H29.8547V40.3643H25.1662V53.8H42.0445V40.3643H37.3561ZM31.73 38.8714H35.4807V40.3643H31.73V38.8714ZM40.1691 51.5606C40.1691 51.9729 39.7493 52.3071 39.2315 52.3071H27.9793C27.4615 52.3071 27.0415 51.9729 27.0415 51.5606V42.6035C27.0415 42.1913 27.4615 41.8571 27.9793 41.8571H39.2315C39.7493 41.8571 40.1691 42.1913 40.1691 42.6035V51.5606Z" fill="#FAFAFA"/>
<path d="M28.9172 43.35H38.294V50.8143H28.9172V43.35Z" fill="#FAFAFA"/>
<path d="M13.1028 22.45H37.2299L29.4147 14.9857H20.9179L13.1028 22.45Z" fill="#FAFAFA"/>
<path d="M23.2908 12H27.0415V13.4929H23.2908V12Z" fill="#FAFAFA"/>
<path d="M26.3942 61.4101C26.4717 61.5579 26.4746 61.7033 26.4032 61.8463C26.3317 61.984 26.2185 62.1117 26.0635 62.2289C25.9087 62.346 25.7299 62.4484 25.5273 62.535C25.3307 62.6215 25.143 62.6827 24.9643 62.7186C24.7677 62.7545 24.5592 62.7698 24.3387 62.7645C24.1242 62.7645 23.9068 62.7416 23.6863 62.6957C23.4718 62.655 23.2604 62.5938 23.0518 62.512C22.8493 62.4254 22.6616 62.3207 22.4888 62.1983C22.2803 62.0505 22.1164 61.8745 21.9972 61.6703C21.8841 61.4613 21.8006 61.2394 21.747 61.0045C21.6934 60.7697 21.6636 60.5354 21.6576 60.3005C21.6576 60.0609 21.6666 59.8361 21.6844 59.6271C21.7023 59.4384 21.747 59.242 21.8185 59.0379C21.89 58.8338 21.9883 58.6349 22.1134 58.441C22.2445 58.2421 22.3994 58.0584 22.5781 57.8901C22.7629 57.7217 22.9773 57.5789 23.2216 57.4616C23.4063 57.3697 23.6119 57.3085 23.8383 57.2779C24.0706 57.2422 24.303 57.2345 24.5353 57.255C24.7737 57.2703 24.9971 57.3136 25.2056 57.3851C25.4201 57.4514 25.6018 57.5432 25.7508 57.6605C25.8461 57.7319 25.9444 57.8314 26.0457 57.959C26.1529 58.0865 26.2304 58.2166 26.278 58.3492C26.3257 58.4818 26.3257 58.6069 26.278 58.7242C26.2364 58.8364 26.1172 58.9129 25.9206 58.9537C25.8372 58.9742 25.7627 58.9792 25.6971 58.969C25.6316 58.9537 25.572 58.9308 25.5184 58.9002C25.4648 58.8645 25.4142 58.8237 25.3665 58.7777C25.3188 58.7318 25.2741 58.6859 25.2324 58.64C25.0894 58.4921 24.9226 58.3926 24.7319 58.3416C24.5413 58.2855 24.3507 58.2727 24.16 58.3033C23.9753 58.3288 23.7995 58.3951 23.6327 58.5023C23.4718 58.6043 23.3467 58.7369 23.2574 58.9002C23.1621 59.0736 23.0846 59.2649 23.025 59.4741C22.9714 59.6782 22.9416 59.8873 22.9356 60.1016C22.9297 60.3106 22.9505 60.5148 22.9982 60.7137C23.0518 60.9127 23.1412 61.0887 23.2663 61.2417C23.3616 61.3642 23.4778 61.4637 23.6148 61.5402C23.7578 61.6167 23.9097 61.6703 24.0706 61.7009C24.2315 61.7315 24.3923 61.7367 24.5532 61.7162C24.72 61.6956 24.8809 61.6497 25.0358 61.5784C25.0835 61.5579 25.1341 61.5301 25.1877 61.4943C25.2473 61.4536 25.3069 61.4125 25.3665 61.3718C25.4261 61.3312 25.4857 61.2929 25.5452 61.257C25.6108 61.2212 25.6793 61.1958 25.7508 61.1805C25.858 61.1499 25.9742 61.1523 26.0993 61.1882C26.2304 61.224 26.3287 61.2977 26.3942 61.4101ZM32.0528 57.6988C32.0886 57.9437 32.1094 58.2293 32.1154 58.5558C32.1213 58.8772 32.1154 59.2037 32.0975 59.5353C32.0855 59.862 32.0587 60.1728 32.0171 60.4689C31.9753 60.7597 31.9247 60.9945 31.8651 61.1729C31.8234 61.28 31.7727 61.3924 31.7132 61.5096C31.6596 61.622 31.6 61.7238 31.5345 61.8157C31.4391 61.9534 31.3229 62.0758 31.1859 62.183C31.0488 62.2848 30.8969 62.3743 30.7301 62.4508C30.5693 62.522 30.3965 62.5785 30.2118 62.6191C30.0331 62.6598 29.8543 62.6827 29.6756 62.688C29.3598 62.698 29.0589 62.6598 28.7729 62.5732C28.4929 62.4814 28.2337 62.3384 27.9954 62.1447C27.8167 61.9969 27.6737 61.8386 27.5665 61.6703C27.4592 61.5019 27.3758 61.3259 27.3162 61.1423C27.2566 60.9534 27.2179 60.7597 27.2 60.5607C27.1881 60.3617 27.1822 60.1575 27.1822 59.9485C27.1822 59.8514 27.1792 59.7317 27.1732 59.5889C27.1732 59.4409 27.1732 59.2904 27.1732 59.1374C27.1732 58.9792 27.1732 58.8262 27.1732 58.6783C27.1732 58.5303 27.1762 58.4053 27.1822 58.3033C27.1822 58.237 27.1822 58.1656 27.1822 58.089C27.1822 58.0074 27.1851 57.9284 27.1911 57.8518C27.203 57.7702 27.2209 57.6937 27.2447 57.6223C27.2685 57.5457 27.3043 57.4769 27.352 57.4157C27.4056 57.3493 27.4801 57.3009 27.5754 57.2703C27.6707 57.2397 27.769 57.2244 27.8703 57.2244C27.9776 57.2244 28.0788 57.2422 28.1742 57.2779C28.2695 57.3136 28.3469 57.3646 28.4065 57.431C28.4363 57.4718 28.4571 57.5126 28.4691 57.5534C28.481 57.5942 28.4899 57.6401 28.4959 57.6911C28.5078 57.8595 28.5138 58.0508 28.5138 58.265C28.5197 58.4793 28.5197 58.6885 28.5138 58.8925C28.5138 59.0915 28.5108 59.2751 28.5048 59.4435C28.4989 59.6118 28.4959 59.7368 28.4959 59.8184C28.4959 60.1245 28.5138 60.4024 28.5495 60.6525C28.5853 60.8974 28.6687 61.1016 28.7998 61.2647C28.9189 61.4125 29.0589 61.5072 29.2198 61.5478C29.3807 61.5885 29.5415 61.6014 29.7024 61.5861C29.8513 61.5708 30.0003 61.5249 30.1492 61.4484C30.3041 61.3666 30.4263 61.2494 30.5157 61.0964C30.5514 61.0404 30.5812 60.9763 30.605 60.905C30.6288 60.8338 30.6467 60.7673 30.6586 60.7061C30.6824 60.5124 30.7033 60.2876 30.7212 60.0327C30.7391 59.7725 30.7539 59.5072 30.7659 59.2369C30.7778 58.9665 30.7838 58.7012 30.7838 58.441C30.7838 58.1809 30.7807 57.9462 30.7748 57.7371C30.7867 57.6452 30.8195 57.561 30.8731 57.4845C30.9208 57.4182 30.9893 57.3596 31.0787 57.3085C31.168 57.2575 31.2901 57.232 31.4451 57.232C31.5702 57.2371 31.6715 57.2651 31.7489 57.3162C31.8264 57.3621 31.8889 57.4131 31.9366 57.4692C31.9902 57.5356 32.029 57.6121 32.0528 57.6988ZM33.1144 61.8845L33.1233 61.28L33.1323 60.1551C33.1382 59.992 33.1412 59.8236 33.1412 59.6501C33.1412 59.4766 33.1412 59.2981 33.1412 59.1144C33.1412 58.9308 33.1412 58.7676 33.1412 58.6247C33.1412 58.4818 33.1472 58.3212 33.1591 58.1426V58.112C33.1651 58.061 33.168 58.01 33.168 57.959C33.174 57.9029 33.177 57.8467 33.177 57.7906C33.1829 57.6988 33.2157 57.5993 33.2753 57.4922C33.317 57.4208 33.3795 57.3596 33.4629 57.3085C33.5583 57.2677 33.6506 57.2473 33.74 57.2473C33.7876 57.2473 33.8294 57.2498 33.8651 57.255C33.9068 57.255 33.9455 57.2575 33.9813 57.2626C34.0588 57.2728 34.1272 57.3034 34.1868 57.3544C34.2226 57.3799 34.2554 57.4208 34.2851 57.4769C34.297 57.5075 34.306 57.5381 34.312 57.5687C34.3238 57.5942 34.3328 57.6223 34.3388 57.6529C34.3447 57.6886 34.3477 57.7217 34.3477 57.7524C34.3537 57.783 34.3566 57.8136 34.3566 57.8442C34.3566 57.8799 34.3537 57.9131 34.3477 57.9437C34.3477 57.9692 34.3477 57.9972 34.3477 58.0278V58.1579L34.2941 62.1294V62.2059C34.2941 62.2212 34.2911 62.2418 34.2851 62.2671C34.2851 62.2877 34.2822 62.313 34.2762 62.3437C34.2643 62.369 34.2524 62.3972 34.2405 62.4278C34.2345 62.4532 34.2255 62.4814 34.2136 62.512C34.1958 62.5374 34.1749 62.5632 34.1511 62.5885C34.1332 62.6091 34.1094 62.6292 34.0796 62.6497C34.0319 62.6904 33.9545 62.7186 33.8472 62.7339C33.6864 62.7645 33.5344 62.7516 33.3914 62.6957C33.3199 62.655 33.2693 62.6038 33.2395 62.5426C33.2216 62.5273 33.2127 62.512 33.2127 62.4967C33.2067 62.4867 33.2008 62.479 33.1948 62.4737C33.1889 62.4685 33.1829 62.4608 33.177 62.4508C33.1651 62.4254 33.1561 62.3996 33.1501 62.3743C33.1442 62.3437 33.1412 62.313 33.1412 62.2824C33.1352 62.2571 33.1293 62.2313 33.1233 62.2059C33.1233 62.1806 33.1204 62.1547 33.1144 62.1294C33.1084 62.0887 33.1084 62.0452 33.1144 61.9993V61.8845ZM39.9715 60.4689C40.0013 60.5401 40.0221 60.6219 40.034 60.7137C40.0519 60.8003 40.0609 60.8897 40.0609 60.9816C40.0609 61.0734 40.0519 61.1652 40.034 61.257C40.0221 61.3436 40.0042 61.4201 39.9804 61.4866C39.8851 61.7721 39.6944 62.0122 39.4085 62.2059C39.1225 62.3948 38.7948 62.5326 38.4254 62.6191C38.0619 62.7057 37.6836 62.7363 37.2904 62.711C36.9031 62.6856 36.5576 62.6014 36.2537 62.4584C36.063 62.3666 35.8992 62.2542 35.7622 62.1217C35.6251 61.9893 35.5089 61.841 35.4136 61.6779C35.3779 61.622 35.3541 61.5579 35.3422 61.4866C35.3362 61.4101 35.3451 61.3388 35.369 61.2724C35.3928 61.2011 35.4315 61.1399 35.4851 61.0887C35.5388 61.0327 35.6132 60.9945 35.7086 60.9739C35.7681 60.9639 35.8337 60.9586 35.9052 60.9586C35.9826 60.9586 36.0571 60.9687 36.1286 60.9892C36.2001 61.0045 36.2656 61.0327 36.3252 61.0734C36.3848 61.1093 36.4325 61.16 36.4682 61.2264C36.5337 61.3336 36.6261 61.433 36.7453 61.5249C36.8704 61.6114 37.0014 61.6832 37.1385 61.7391C37.3351 61.7951 37.5317 61.818 37.7283 61.808C37.9309 61.798 38.1126 61.7597 38.2735 61.6932C38.4403 61.6267 38.5743 61.5378 38.6756 61.4254C38.7769 61.3082 38.8276 61.1753 38.8276 61.0275C38.8276 60.905 38.8067 60.8056 38.765 60.729C38.7233 60.6473 38.6637 60.5813 38.5863 60.5301C38.5148 60.4741 38.4254 60.4282 38.3182 60.3924C38.2168 60.3565 38.1037 60.3259 37.9786 60.3005C37.8356 60.2752 37.6896 60.257 37.5406 60.247C37.3977 60.2369 37.2516 60.224 37.1027 60.2087C36.9538 60.1934 36.8078 60.1728 36.6648 60.1475C36.5218 60.1221 36.3818 60.0839 36.2448 60.0327C35.9707 59.9356 35.7622 59.7878 35.6192 59.5889C35.4762 59.3899 35.3898 59.1757 35.36 58.9461C35.3362 58.7165 35.369 58.4895 35.4583 58.265C35.5477 58.0355 35.6907 57.8391 35.8873 57.6758C36.0779 57.5279 36.3043 57.4233 36.5665 57.3621C36.8346 57.2958 37.1295 57.2575 37.4513 57.2473C37.63 57.2422 37.8087 57.2473 37.9875 57.2626C38.1721 57.2779 38.3479 57.3034 38.5148 57.3391C38.6875 57.3749 38.8454 57.4208 38.9884 57.4769C39.1373 57.533 39.2655 57.5993 39.3727 57.6758C39.4501 57.7269 39.5276 57.7957 39.6051 57.8824C39.6825 57.9641 39.7421 58.0533 39.7838 58.1503C39.8255 58.2421 39.8374 58.3314 39.8196 58.4181C39.8076 58.5048 39.745 58.5788 39.6319 58.64C39.5365 58.691 39.4442 58.714 39.3548 58.7089C39.2714 58.6987 39.191 58.6757 39.1135 58.64C39.0361 58.5992 38.9616 58.5533 38.8901 58.5023C38.8186 58.4512 38.753 58.4053 38.6935 58.3645C38.5326 58.2625 38.333 58.1936 38.0947 58.1579C37.8564 58.1222 37.633 58.1145 37.4245 58.135C37.2934 58.1503 37.1712 58.1758 37.058 58.2115C36.9448 58.2472 36.8465 58.2957 36.7631 58.3569C36.6857 58.4181 36.6231 58.4946 36.5755 58.5864C36.5337 58.6731 36.5188 58.7726 36.5308 58.8849C36.5367 58.9665 36.5635 59.0354 36.6112 59.0915C36.6648 59.1476 36.7274 59.1935 36.7989 59.2292C36.8763 59.2649 36.9597 59.293 37.0491 59.3134C37.1385 59.3338 37.2278 59.3491 37.3172 59.3593C37.5853 59.3899 37.8534 59.4129 38.1215 59.4282C38.3897 59.4435 38.6518 59.4945 38.908 59.5812C39.1701 59.6679 39.3935 59.7853 39.5783 59.9332C39.7629 60.081 39.894 60.2599 39.9715 60.4689ZM41.0564 61.8845L41.0653 61.28L41.0743 60.1551C41.0802 59.992 41.0832 59.8236 41.0832 59.6501C41.0832 59.4766 41.0832 59.2981 41.0832 59.1144C41.0832 58.9308 41.0832 58.7676 41.0832 58.6247C41.0832 58.4818 41.0892 58.3212 41.1011 58.1426V58.112C41.107 58.061 41.11 58.01 41.11 57.959C41.116 57.9029 41.1189 57.8467 41.1189 57.7906C41.1249 57.6988 41.1577 57.5993 41.2172 57.4922C41.259 57.4208 41.3215 57.3596 41.4049 57.3085C41.5003 57.2677 41.5926 57.2473 41.682 57.2473C41.7297 57.2473 41.7713 57.2498 41.8071 57.255C41.8488 57.255 41.8875 57.2575 41.9233 57.2626C42.0007 57.2728 42.0693 57.3034 42.1288 57.3544C42.1646 57.3799 42.1973 57.4208 42.2271 57.4769C42.2391 57.5075 42.248 57.5381 42.2539 57.5687C42.2659 57.5942 42.2748 57.6223 42.2807 57.6529C42.2867 57.6886 42.2897 57.7217 42.2897 57.7524C42.2957 57.783 42.2986 57.8136 42.2986 57.8442C42.2986 57.8799 42.2957 57.9131 42.2897 57.9437C42.2897 57.9692 42.2897 57.9972 42.2897 58.0278V58.1579L42.2361 62.1294V62.2059C42.2361 62.2212 42.2331 62.2418 42.2271 62.2671C42.2271 62.2877 42.2242 62.313 42.2182 62.3437C42.2063 62.369 42.1944 62.3972 42.1824 62.4278C42.1765 62.4532 42.1676 62.4814 42.1556 62.512C42.1377 62.5374 42.1169 62.5632 42.0931 62.5885C42.0752 62.6091 42.0514 62.6292 42.0216 62.6497C41.9739 62.6904 41.8964 62.7186 41.7892 62.7339C41.6283 62.7645 41.4764 62.7516 41.3334 62.6957C41.2619 62.655 41.2113 62.6038 41.1815 62.5426C41.1636 62.5273 41.1547 62.512 41.1547 62.4967C41.1488 62.4867 41.1428 62.479 41.1368 62.4737C41.1309 62.4685 41.1249 62.4608 41.1189 62.4508C41.107 62.4254 41.0981 62.3996 41.0921 62.3743C41.0862 62.3437 41.0832 62.313 41.0832 62.2824C41.0773 62.2571 41.0713 62.2313 41.0653 62.2059C41.0653 62.1806 41.0624 62.1547 41.0564 62.1294C41.0505 62.0887 41.0505 62.0452 41.0564 61.9993V61.8845ZM48.1458 62.1141C48.1398 62.2007 48.125 62.2925 48.1011 62.3896C48.0833 62.4867 48.0267 62.5656 47.9313 62.6268C47.8598 62.678 47.7794 62.7086 47.69 62.7186C47.6007 62.7287 47.5113 62.7239 47.4219 62.7033C47.3385 62.688 47.2581 62.6627 47.1806 62.6268C47.1032 62.5861 47.0406 62.5374 46.993 62.4814C46.7904 62.2671 46.6027 62.0476 46.4299 61.8233C46.2631 61.5937 46.0933 61.3642 45.9205 61.1346L45.1698 60.1628C45.0686 60.025 44.9613 59.872 44.8481 59.7037C44.7349 59.5302 44.6187 59.3695 44.4996 59.2216L44.4727 62.1447V62.2136C44.4727 62.2954 44.4549 62.3767 44.4191 62.4584C44.3894 62.535 44.3357 62.6014 44.2583 62.6574C44.1987 62.698 44.1212 62.7263 44.0259 62.7416C43.8769 62.7669 43.7518 62.7593 43.6505 62.7186C43.5552 62.678 43.4778 62.6215 43.4182 62.5503C43.3646 62.479 43.3259 62.3972 43.302 62.3054C43.2841 62.2083 43.2812 62.1141 43.2931 62.0223V61.8922L43.3109 61.2953L43.3199 60.1857C43.3259 60.0227 43.3288 59.8567 43.3288 59.6884C43.3288 59.5149 43.3288 59.3389 43.3288 59.1604C43.3228 58.941 43.3228 58.7089 43.3288 58.464C43.3407 58.2191 43.3527 57.9896 43.3646 57.7753C43.3765 57.658 43.4092 57.5585 43.4629 57.4769C43.4867 57.4055 43.5493 57.3443 43.6505 57.2932C43.7161 57.2575 43.7995 57.2345 43.9008 57.2244C44.008 57.2142 44.1004 57.2167 44.1778 57.232C44.2076 57.2422 44.2374 57.255 44.2672 57.2703C44.297 57.2805 44.3268 57.2932 44.3566 57.3085C44.3863 57.3289 44.4131 57.3493 44.437 57.3697C44.4668 57.3902 44.4936 57.4131 44.5174 57.4386C44.5472 57.4641 44.574 57.4922 44.5979 57.5228C44.6217 57.5483 44.6455 57.5738 44.6694 57.5993C44.6872 57.6299 44.7051 57.658 44.723 57.6835C44.7409 57.709 44.7617 57.7345 44.7855 57.76L44.8838 57.8824L46.9483 60.6678V60.1628C46.9483 59.9997 46.9453 59.8337 46.9393 59.6654C46.9393 59.4919 46.9364 59.3134 46.9304 59.1297C46.9304 58.9155 46.9304 58.6859 46.9304 58.441C46.9364 58.1962 46.9453 57.9666 46.9572 57.7524C46.9572 57.6656 46.987 57.5662 47.0466 57.4539C47.0764 57.3876 47.127 57.334 47.1985 57.2932C47.27 57.2524 47.3504 57.2244 47.4398 57.209C47.5292 57.1937 47.6185 57.1937 47.7079 57.209C47.7973 57.2244 47.8748 57.255 47.9403 57.3009C47.9582 57.3162 47.976 57.334 47.9939 57.3544C48.0118 57.3749 48.0267 57.3978 48.0386 57.4233C48.0684 57.4896 48.0862 57.5483 48.0922 57.5993C48.1101 57.6707 48.119 57.7345 48.119 57.7906C48.119 58.4283 48.119 59.0787 48.119 59.7419C48.125 60.4053 48.1309 61.0557 48.1369 61.6932C48.1369 61.7645 48.1398 61.8362 48.1458 61.9075C48.1518 61.974 48.1518 62.0428 48.1458 62.1141ZM50.2686 58.1962L50.2508 59.3976H50.6082C50.8525 59.3925 51.07 59.3899 51.2606 59.3899C51.4513 59.3899 51.6628 59.3925 51.8952 59.3976H51.9398C52.0113 59.3976 52.0799 59.4001 52.1454 59.4052C52.2169 59.4052 52.2854 59.4052 52.3509 59.4052C52.4224 59.4103 52.491 59.4205 52.5565 59.4358C52.622 59.446 52.6876 59.4588 52.7531 59.4741C52.8544 59.5047 52.9378 59.5506 53.0033 59.6118C53.0629 59.6782 53.0927 59.7521 53.0927 59.8337C53.0927 59.8591 53.0927 59.8897 53.0927 59.9256C53.0927 59.9562 53.0867 59.9844 53.0748 60.0097C53.0629 60.0657 53.0242 60.1169 52.9586 60.1628C52.9289 60.1987 52.8722 60.224 52.7888 60.2393C52.7114 60.2599 52.634 60.2723 52.5565 60.2776C52.4731 60.2929 52.3896 60.3005 52.3062 60.3005H51.8862L50.2329 60.3082L50.215 61.808L51.9935 61.8233H52.4135C52.4611 61.8233 52.5058 61.8233 52.5475 61.8233C52.5893 61.8233 52.628 61.8257 52.6637 61.831C52.7114 61.841 52.7531 61.8487 52.7888 61.8539C52.8306 61.8539 52.8693 61.8592 52.905 61.8692C52.9765 61.8898 53.0361 61.9175 53.0838 61.9534C53.1434 62.0046 53.1821 62.0581 53.1999 62.1141C53.2059 62.1394 53.2089 62.1677 53.2089 62.1983C53.2149 62.2236 53.2149 62.2518 53.2089 62.2824C53.2089 62.3642 53.1791 62.4379 53.1195 62.5044C53.048 62.5756 52.9646 62.6215 52.8693 62.6421C52.7442 62.688 52.6071 62.711 52.4582 62.711C52.3927 62.7162 52.3241 62.7186 52.2526 62.7186C52.1811 62.7186 52.1126 62.721 52.0471 62.7263H51.9935C51.5287 62.7363 51.0461 62.7363 50.5457 62.7263C50.4265 62.7263 50.3312 62.7239 50.2597 62.7186C50.1882 62.7186 50.1227 62.7186 50.0631 62.7186C50.0095 62.7186 49.9529 62.7186 49.8933 62.7186C49.8337 62.7186 49.7563 62.7186 49.6609 62.7186C49.5239 62.7287 49.4107 62.7086 49.3213 62.6574C49.2558 62.6215 49.2051 62.5732 49.1694 62.512C49.1515 62.4967 49.1426 62.4814 49.1426 62.4661C49.1366 62.456 49.1307 62.4484 49.1247 62.4431C49.1187 62.4379 49.1128 62.4302 49.1068 62.4202C49.0949 62.3948 49.086 62.369 49.08 62.3437C49.074 62.313 49.0711 62.2848 49.0711 62.2595C49.0651 62.2341 49.0592 62.2083 49.0532 62.183C49.0532 62.1576 49.0502 62.1318 49.0443 62.1064V61.984C49.0443 61.9634 49.0443 61.9434 49.0443 61.9228C49.0502 61.9022 49.0532 61.8821 49.0532 61.8616V61.2647L49.0711 60.1628V59.145C49.0711 58.9614 49.0711 58.7982 49.0711 58.6553C49.0771 58.5125 49.083 58.3569 49.089 58.1885V58.1503C49.0949 58.0942 49.0979 58.0431 49.0979 57.9972C49.1039 57.9462 49.1068 57.8952 49.1068 57.8442C49.1128 57.7422 49.1455 57.6427 49.2051 57.5457C49.229 57.505 49.2528 57.4692 49.2766 57.4386C49.3064 57.408 49.3452 57.3825 49.3928 57.3621C49.4822 57.3162 49.5745 57.2932 49.6699 57.2932C49.7175 57.2932 49.7532 57.2958 49.7771 57.3009V57.2932C49.8843 57.2932 49.9707 57.2932 50.0363 57.2932C50.1018 57.2932 50.1643 57.2932 50.2239 57.2932C50.2895 57.2932 50.358 57.2932 50.4295 57.2932C50.501 57.2881 50.5993 57.2856 50.7244 57.2856C50.9627 57.2805 51.1891 57.2779 51.4036 57.2779C51.6181 57.2779 51.8386 57.2805 52.065 57.2856H52.1007C52.1662 57.2907 52.2348 57.2932 52.3062 57.2932C52.3777 57.2932 52.4463 57.2958 52.5118 57.3009C52.5773 57.3009 52.6429 57.3085 52.7084 57.3238C52.7739 57.334 52.8395 57.3493 52.905 57.3697C53.0063 57.3952 53.0897 57.4386 53.1553 57.4998C53.2089 57.5712 53.2357 57.6427 53.2357 57.7141C53.2357 57.7447 53.2357 57.7753 53.2357 57.8059C53.2357 57.8314 53.2297 57.8569 53.2178 57.8824C53.2118 57.9335 53.1761 57.987 53.1106 58.0431C53.0867 58.0533 53.0599 58.0661 53.0301 58.0814C53.0063 58.0967 52.9765 58.1095 52.9408 58.1197C52.905 58.1298 52.8663 58.1375 52.8246 58.1426C52.7888 58.1426 52.7531 58.1451 52.7173 58.1503C52.6697 58.1605 52.625 58.1656 52.5833 58.1656C52.5475 58.1656 52.5058 58.1656 52.4582 58.1656H52.056L50.2686 58.1732V58.1962Z" fill="white"/>
</svg>
