<svg width="98" height="125" viewBox="0 0 98 125" fill="none" xmlns="http://www.w3.org/2000/svg">
<g clip-path="url(#clip0)">
<path d="M58.3569 95.0001H87.9998V49.1965H58.3569V95.0001ZM59.8391 52.5894C59.8391 51.6525 60.5027 50.893 61.3212 50.893C62.1397 50.893 62.8034 51.6525 62.8034 52.5894V59.3751C62.8034 60.312 62.1397 61.0715 61.3212 61.0715C60.5027 61.0715 59.8391 60.312 59.8391 59.3751V52.5894Z" fill="#FAFAFA"/>
<path d="M87.9998 22.0535H58.3569V45.8035H87.9998V22.0535ZM62.8034 42.4106C62.8034 43.3475 62.1397 44.107 61.3212 44.107C60.5027 44.107 59.8391 43.3475 59.8391 42.4106V35.6249C59.8391 34.688 60.5027 33.9285 61.3212 33.9285C62.1397 33.9285 62.8034 34.688 62.8034 35.6249V42.4106Z" fill="#FAFAFA"/>
<path d="M21.3036 61.0713H22.7857C23.6042 61.0713 24.2679 60.3117 24.2679 59.3749C24.2679 58.4381 23.6042 57.6785 22.7857 57.6785H7.96429C7.14578 57.6785 6.48214 58.4381 6.48214 59.3749C6.48214 60.3117 7.14578 61.0713 7.96429 61.0713H9.44643V64.4642H5V71.2499H25.75V64.4642H21.3036V61.0713ZM12.4107 64.4642V61.0713H18.3393V64.4642H12.4107Z" fill="#FAFAFA"/>
<path d="M5 74.6428H25.75V95H5V74.6428Z" fill="#FAFAFA"/>
<path d="M47.9822 64.4642V61.0713H49.4644C50.2829 61.0713 50.9465 60.3117 50.9465 59.3749C50.9465 58.438 50.2829 57.6785 49.4644 57.6785H34.6429C33.8244 57.6785 33.1608 58.438 33.1608 59.3749C33.1608 60.3117 33.8244 61.0713 34.6429 61.0713H36.1251V64.4642H28.7144V94.9999H55.3929V64.4642H47.9822ZM39.0894 61.0713H45.0179V64.4642H39.0894V61.0713ZM52.4286 89.9106C52.4286 90.8475 51.765 91.6071 50.9465 91.6071H33.1608C32.3423 91.6071 31.6786 90.8475 31.6786 89.9106V69.5535C31.6786 68.6166 32.3423 67.857 33.1608 67.857H50.9465C51.765 67.857 52.4286 68.6166 52.4286 69.5535V89.9106Z" fill="#FAFAFA"/>
<path d="M34.6431 71.25H49.4645V88.2143H34.6431V71.25Z" fill="#FAFAFA"/>
<path d="M9.64624 23.7499H47.7825L35.4296 6.78564H21.9991L9.64624 23.7499Z" fill="#FAFAFA"/>
<path d="M25.75 0H31.6786V3.39286H25.75V0Z" fill="#FAFAFA"/>
</g>
<path d="M29.2219 112.312C29.3606 112.621 29.3659 112.925 29.2379 113.224C29.1099 113.512 28.9073 113.779 28.6299 114.024C28.3526 114.269 28.0326 114.483 27.6699 114.664C27.3179 114.845 26.9819 114.973 26.6619 115.048C26.3099 115.123 25.9366 115.155 25.5419 115.144C25.1579 115.144 24.7686 115.096 24.3739 115C23.9899 114.915 23.6113 114.787 23.2379 114.616C22.8753 114.435 22.5393 114.216 22.2299 113.96C21.8566 113.651 21.5633 113.283 21.3499 112.856C21.1473 112.419 20.9979 111.955 20.9019 111.464C20.8059 110.973 20.7526 110.483 20.7419 109.992C20.7419 109.491 20.7579 109.021 20.7899 108.584C20.8219 108.189 20.9019 107.779 21.0299 107.352C21.1579 106.925 21.3339 106.509 21.5579 106.104C21.7926 105.688 22.0699 105.304 22.3899 104.952C22.7206 104.6 23.1046 104.301 23.5419 104.056C23.8726 103.864 24.2406 103.736 24.6459 103.672C25.0619 103.597 25.4779 103.581 25.8939 103.624C26.3206 103.656 26.7206 103.747 27.0939 103.896C27.4779 104.035 27.8033 104.227 28.0699 104.472C28.2406 104.621 28.4166 104.829 28.5979 105.096C28.7899 105.363 28.9286 105.635 29.0139 105.912C29.0993 106.189 29.0993 106.451 29.0139 106.696C28.9393 106.931 28.7259 107.091 28.3739 107.176C28.2246 107.219 28.0913 107.229 27.9739 107.208C27.8566 107.176 27.7499 107.128 27.6539 107.064C27.5579 106.989 27.4673 106.904 27.3819 106.808C27.2966 106.712 27.2166 106.616 27.1419 106.52C26.8859 106.211 26.5873 106.003 26.2459 105.896C25.9046 105.779 25.5633 105.752 25.2219 105.816C24.8913 105.869 24.5766 106.008 24.2779 106.232C23.9899 106.445 23.7659 106.723 23.6059 107.064C23.4353 107.427 23.2966 107.827 23.1899 108.264C23.0939 108.691 23.0406 109.128 23.0299 109.576C23.0193 110.013 23.0566 110.44 23.1419 110.856C23.2379 111.272 23.3979 111.64 23.6219 111.96C23.7926 112.216 24.0006 112.424 24.2459 112.584C24.5019 112.744 24.7739 112.856 25.0619 112.92C25.3499 112.984 25.6379 112.995 25.9259 112.952C26.2246 112.909 26.5126 112.813 26.7899 112.664C26.8753 112.621 26.9659 112.563 27.0619 112.488C27.1686 112.403 27.2753 112.317 27.3819 112.232C27.4886 112.147 27.5953 112.067 27.7019 111.992C27.8193 111.917 27.9419 111.864 28.0699 111.832C28.2619 111.768 28.4699 111.773 28.6939 111.848C28.9286 111.923 29.1046 112.077 29.2219 112.312ZM39.3526 104.552C39.4166 105.064 39.4539 105.661 39.4646 106.344C39.4752 107.016 39.4646 107.699 39.4326 108.392C39.4112 109.075 39.3632 109.725 39.2886 110.344C39.2139 110.952 39.1232 111.443 39.0166 111.816C38.9419 112.04 38.8512 112.275 38.7446 112.52C38.6486 112.755 38.5419 112.968 38.4246 113.16C38.2539 113.448 38.0459 113.704 37.8006 113.928C37.5552 114.141 37.2832 114.328 36.9846 114.488C36.6966 114.637 36.3872 114.755 36.0566 114.84C35.7366 114.925 35.4166 114.973 35.0966 114.984C34.5312 115.005 33.9926 114.925 33.4806 114.744C32.9792 114.552 32.5152 114.253 32.0886 113.848C31.7686 113.539 31.5126 113.208 31.3206 112.856C31.1286 112.504 30.9792 112.136 30.8726 111.752C30.7659 111.357 30.6966 110.952 30.6646 110.536C30.6432 110.12 30.6326 109.693 30.6326 109.256C30.6326 109.053 30.6272 108.803 30.6166 108.504C30.6166 108.195 30.6166 107.88 30.6166 107.56C30.6166 107.229 30.6166 106.909 30.6166 106.6C30.6166 106.291 30.6219 106.029 30.6326 105.816C30.6326 105.677 30.6326 105.528 30.6326 105.368C30.6326 105.197 30.6379 105.032 30.6486 104.872C30.6699 104.701 30.7019 104.541 30.7446 104.392C30.7872 104.232 30.8512 104.088 30.9366 103.96C31.0326 103.821 31.1659 103.72 31.3366 103.656C31.5072 103.592 31.6832 103.56 31.8646 103.56C32.0566 103.56 32.2379 103.597 32.4086 103.672C32.5792 103.747 32.7179 103.853 32.8246 103.992C32.8779 104.077 32.9152 104.163 32.9366 104.248C32.9579 104.333 32.9739 104.429 32.9846 104.536C33.0059 104.888 33.0166 105.288 33.0166 105.736C33.0272 106.184 33.0272 106.621 33.0166 107.048C33.0166 107.464 33.0112 107.848 33.0006 108.2C32.9899 108.552 32.9846 108.813 32.9846 108.984C32.9846 109.624 33.0166 110.205 33.0806 110.728C33.1446 111.24 33.2939 111.667 33.5286 112.008C33.7419 112.317 33.9926 112.515 34.2806 112.6C34.5686 112.685 34.8566 112.712 35.1446 112.68C35.4112 112.648 35.6779 112.552 35.9446 112.392C36.2219 112.221 36.4406 111.976 36.6006 111.656C36.6646 111.539 36.7179 111.405 36.7606 111.256C36.8032 111.107 36.8352 110.968 36.8566 110.84C36.8992 110.435 36.9366 109.965 36.9686 109.432C37.0006 108.888 37.0272 108.333 37.0486 107.768C37.0699 107.203 37.0806 106.648 37.0806 106.104C37.0806 105.56 37.0752 105.069 37.0646 104.632C37.0859 104.44 37.1446 104.264 37.2406 104.104C37.3259 103.965 37.4486 103.843 37.6086 103.736C37.7686 103.629 37.9872 103.576 38.2646 103.576C38.4886 103.587 38.6699 103.645 38.8086 103.752C38.9472 103.848 39.0592 103.955 39.1446 104.072C39.2406 104.211 39.3099 104.371 39.3526 104.552ZM41.2532 113.304L41.2692 112.04L41.2852 109.688C41.2959 109.347 41.3012 108.995 41.3012 108.632C41.3012 108.269 41.3012 107.896 41.3012 107.512C41.3012 107.128 41.3012 106.787 41.3012 106.488C41.3012 106.189 41.3119 105.853 41.3332 105.48V105.416C41.3439 105.309 41.3492 105.203 41.3492 105.096C41.3599 104.979 41.3652 104.861 41.3652 104.744C41.3759 104.552 41.4345 104.344 41.5412 104.12C41.6159 103.971 41.7279 103.843 41.8772 103.736C42.0479 103.651 42.2132 103.608 42.3732 103.608C42.4585 103.608 42.5332 103.613 42.5972 103.624C42.6719 103.624 42.7412 103.629 42.8052 103.64C42.9439 103.661 43.0665 103.725 43.1732 103.832C43.2372 103.885 43.2959 103.971 43.3492 104.088C43.3705 104.152 43.3865 104.216 43.3972 104.28C43.4185 104.333 43.4345 104.392 43.4452 104.456C43.4559 104.531 43.4612 104.6 43.4612 104.664C43.4719 104.728 43.4772 104.792 43.4772 104.856C43.4772 104.931 43.4719 105 43.4612 105.064C43.4612 105.117 43.4612 105.176 43.4612 105.24V105.512L43.3652 113.816V113.976C43.3652 114.008 43.3599 114.051 43.3492 114.104C43.3492 114.147 43.3439 114.2 43.3332 114.264C43.3119 114.317 43.2905 114.376 43.2692 114.44C43.2585 114.493 43.2425 114.552 43.2212 114.616C43.1892 114.669 43.1519 114.723 43.1092 114.776C43.0772 114.819 43.0345 114.861 42.9812 114.904C42.8959 114.989 42.7572 115.048 42.5652 115.08C42.2772 115.144 42.0052 115.117 41.7492 115C41.6212 114.915 41.5305 114.808 41.4772 114.68C41.4452 114.648 41.4292 114.616 41.4292 114.584C41.4185 114.563 41.4079 114.547 41.3972 114.536C41.3865 114.525 41.3759 114.509 41.3652 114.488C41.3439 114.435 41.3279 114.381 41.3172 114.328C41.3065 114.264 41.3012 114.2 41.3012 114.136C41.2905 114.083 41.2799 114.029 41.2692 113.976C41.2692 113.923 41.2639 113.869 41.2532 113.816C41.2425 113.731 41.2425 113.64 41.2532 113.544V113.304ZM53.5296 110.344C53.5829 110.493 53.6202 110.664 53.6416 110.856C53.6736 111.037 53.6896 111.224 53.6896 111.416C53.6896 111.608 53.6736 111.8 53.6416 111.992C53.6202 112.173 53.5882 112.333 53.5456 112.472C53.3749 113.069 53.0336 113.571 52.5216 113.976C52.0096 114.371 51.4229 114.659 50.7616 114.84C50.1109 115.021 49.4336 115.085 48.7296 115.032C48.0362 114.979 47.4176 114.803 46.8736 114.504C46.5322 114.312 46.2389 114.077 45.9936 113.8C45.7482 113.523 45.5402 113.213 45.3696 112.872C45.3056 112.755 45.2629 112.621 45.2416 112.472C45.2309 112.312 45.2469 112.163 45.2896 112.024C45.3322 111.875 45.4016 111.747 45.4976 111.64C45.5936 111.523 45.7269 111.443 45.8976 111.4C46.0042 111.379 46.1216 111.368 46.2496 111.368C46.3882 111.368 46.5216 111.389 46.6496 111.432C46.7776 111.464 46.8949 111.523 47.0016 111.608C47.1082 111.683 47.1936 111.789 47.2576 111.928C47.3749 112.152 47.5402 112.36 47.7536 112.552C47.9776 112.733 48.2122 112.883 48.4576 113C48.8096 113.117 49.1616 113.165 49.5136 113.144C49.8762 113.123 50.2016 113.043 50.4896 112.904C50.7882 112.765 51.0282 112.579 51.2096 112.344C51.3909 112.099 51.4816 111.821 51.4816 111.512C51.4816 111.256 51.4442 111.048 51.3696 110.888C51.2949 110.717 51.1882 110.579 51.0496 110.472C50.9216 110.355 50.7616 110.259 50.5696 110.184C50.3882 110.109 50.1856 110.045 49.9616 109.992C49.7056 109.939 49.4442 109.901 49.1776 109.88C48.9216 109.859 48.6602 109.832 48.3936 109.8C48.1269 109.768 47.8656 109.725 47.6096 109.672C47.3536 109.619 47.1029 109.539 46.8576 109.432C46.3669 109.229 45.9936 108.92 45.7376 108.504C45.4816 108.088 45.3269 107.64 45.2736 107.16C45.2309 106.68 45.2896 106.205 45.4496 105.736C45.6096 105.256 45.8656 104.845 46.2176 104.504C46.5589 104.195 46.9642 103.976 47.4336 103.848C47.9136 103.709 48.4416 103.629 49.0176 103.608C49.3376 103.597 49.6576 103.608 49.9776 103.64C50.3082 103.672 50.6229 103.725 50.9216 103.8C51.2309 103.875 51.5136 103.971 51.7696 104.088C52.0362 104.205 52.2656 104.344 52.4576 104.504C52.5962 104.611 52.7349 104.755 52.8736 104.936C53.0122 105.107 53.1189 105.293 53.1936 105.496C53.2682 105.688 53.2896 105.875 53.2576 106.056C53.2362 106.237 53.1242 106.392 52.9216 106.52C52.7509 106.627 52.5856 106.675 52.4256 106.664C52.2762 106.643 52.1322 106.595 51.9936 106.52C51.8549 106.435 51.7216 106.339 51.5936 106.232C51.4656 106.125 51.3482 106.029 51.2416 105.944C50.9536 105.731 50.5962 105.587 50.1696 105.512C49.7429 105.437 49.3429 105.421 48.9696 105.464C48.7349 105.496 48.5162 105.549 48.3136 105.624C48.1109 105.699 47.9349 105.8 47.7856 105.928C47.6469 106.056 47.5349 106.216 47.4496 106.408C47.3749 106.589 47.3482 106.797 47.3696 107.032C47.3802 107.203 47.4282 107.347 47.5136 107.464C47.6096 107.581 47.7216 107.677 47.8496 107.752C47.9882 107.827 48.1376 107.885 48.2976 107.928C48.4576 107.971 48.6176 108.003 48.7776 108.024C49.2576 108.088 49.7376 108.136 50.2176 108.168C50.6976 108.2 51.1669 108.307 51.6256 108.488C52.0949 108.669 52.4949 108.915 52.8256 109.224C53.1562 109.533 53.3909 109.907 53.5296 110.344ZM55.4719 113.304L55.4879 112.04L55.5039 109.688C55.5146 109.347 55.5199 108.995 55.5199 108.632C55.5199 108.269 55.5199 107.896 55.5199 107.512C55.5199 107.128 55.5199 106.787 55.5199 106.488C55.5199 106.189 55.5306 105.853 55.5519 105.48V105.416C55.5626 105.309 55.5679 105.203 55.5679 105.096C55.5786 104.979 55.5839 104.861 55.5839 104.744C55.5946 104.552 55.6533 104.344 55.7599 104.12C55.8346 103.971 55.9466 103.843 56.0959 103.736C56.2666 103.651 56.4319 103.608 56.5919 103.608C56.6773 103.608 56.7519 103.613 56.8159 103.624C56.8906 103.624 56.9599 103.629 57.0239 103.64C57.1626 103.661 57.2853 103.725 57.3919 103.832C57.4559 103.885 57.5146 103.971 57.5679 104.088C57.5893 104.152 57.6053 104.216 57.6159 104.28C57.6373 104.333 57.6533 104.392 57.6639 104.456C57.6746 104.531 57.6799 104.6 57.6799 104.664C57.6906 104.728 57.6959 104.792 57.6959 104.856C57.6959 104.931 57.6906 105 57.6799 105.064C57.6799 105.117 57.6799 105.176 57.6799 105.24V105.512L57.5839 113.816V113.976C57.5839 114.008 57.5786 114.051 57.5679 114.104C57.5679 114.147 57.5626 114.2 57.5519 114.264C57.5306 114.317 57.5093 114.376 57.4879 114.44C57.4773 114.493 57.4613 114.552 57.4399 114.616C57.4079 114.669 57.3706 114.723 57.3279 114.776C57.2959 114.819 57.2533 114.861 57.1999 114.904C57.1146 114.989 56.9759 115.048 56.7839 115.08C56.4959 115.144 56.2239 115.117 55.9679 115C55.8399 114.915 55.7493 114.808 55.6959 114.68C55.6639 114.648 55.6479 114.616 55.6479 114.584C55.6373 114.563 55.6266 114.547 55.6159 114.536C55.6053 114.525 55.5946 114.509 55.5839 114.488C55.5626 114.435 55.5466 114.381 55.5359 114.328C55.5253 114.264 55.5199 114.2 55.5199 114.136C55.5093 114.083 55.4986 114.029 55.4879 113.976C55.4879 113.923 55.4826 113.869 55.4719 113.816C55.4613 113.731 55.4613 113.64 55.4719 113.544V113.304ZM68.1643 113.784C68.1536 113.965 68.127 114.157 68.0843 114.36C68.0523 114.563 67.951 114.728 67.7803 114.856C67.6523 114.963 67.5083 115.027 67.3483 115.048C67.1883 115.069 67.0283 115.059 66.8683 115.016C66.719 114.984 66.575 114.931 66.4363 114.856C66.2976 114.771 66.1856 114.669 66.1003 114.552C65.7376 114.104 65.4016 113.645 65.0923 113.176C64.7936 112.696 64.4896 112.216 64.1803 111.736L62.8363 109.704C62.655 109.416 62.463 109.096 62.2603 108.744C62.0576 108.381 61.8496 108.045 61.6363 107.736L61.5883 113.848V113.992C61.5883 114.163 61.5563 114.333 61.4923 114.504C61.439 114.664 61.343 114.803 61.2043 114.92C61.0976 115.005 60.959 115.064 60.7883 115.096C60.5216 115.149 60.2976 115.133 60.1163 115.048C59.9456 114.963 59.807 114.845 59.7003 114.696C59.6043 114.547 59.535 114.376 59.4923 114.184C59.4603 113.981 59.455 113.784 59.4763 113.592V113.32L59.5083 112.072L59.5243 109.752C59.535 109.411 59.5403 109.064 59.5403 108.712C59.5403 108.349 59.5403 107.981 59.5403 107.608C59.5296 107.149 59.5296 106.664 59.5403 106.152C59.5616 105.64 59.583 105.16 59.6043 104.712C59.6256 104.467 59.6843 104.259 59.7803 104.088C59.823 103.939 59.935 103.811 60.1163 103.704C60.2336 103.629 60.383 103.581 60.5643 103.56C60.7563 103.539 60.9216 103.544 61.0603 103.576C61.1136 103.597 61.167 103.624 61.2203 103.656C61.2736 103.677 61.327 103.704 61.3803 103.736C61.4336 103.779 61.4816 103.821 61.5243 103.864C61.5776 103.907 61.6256 103.955 61.6683 104.008C61.7216 104.061 61.7696 104.12 61.8123 104.184C61.855 104.237 61.8976 104.291 61.9403 104.344C61.9723 104.408 62.0043 104.467 62.0363 104.52C62.0683 104.573 62.1056 104.627 62.1483 104.68L62.3243 104.936L66.0203 110.76V109.704C66.0203 109.363 66.015 109.016 66.0043 108.664C66.0043 108.301 65.999 107.928 65.9883 107.544C65.9883 107.096 65.9883 106.616 65.9883 106.104C65.999 105.592 66.015 105.112 66.0363 104.664C66.0363 104.483 66.0896 104.275 66.1963 104.04C66.2496 103.901 66.3403 103.789 66.4683 103.704C66.5963 103.619 66.7403 103.56 66.9003 103.528C67.0603 103.496 67.2203 103.496 67.3803 103.528C67.5403 103.56 67.679 103.624 67.7963 103.72C67.8283 103.752 67.8603 103.789 67.8923 103.832C67.9243 103.875 67.951 103.923 67.9723 103.976C68.0256 104.115 68.0576 104.237 68.0683 104.344C68.1003 104.493 68.1163 104.627 68.1163 104.744C68.1163 106.077 68.1163 107.437 68.1163 108.824C68.127 110.211 68.1376 111.571 68.1483 112.904C68.1483 113.053 68.1536 113.203 68.1643 113.352C68.175 113.491 68.175 113.635 68.1643 113.784ZM71.9648 105.592L71.9328 108.104H72.5728C73.0101 108.093 73.3995 108.088 73.7408 108.088C74.0821 108.088 74.4608 108.093 74.8768 108.104H74.9568C75.0848 108.104 75.2075 108.109 75.3248 108.12C75.4528 108.12 75.5755 108.12 75.6928 108.12C75.8208 108.131 75.9435 108.152 76.0608 108.184C76.1781 108.205 76.2955 108.232 76.4128 108.264C76.5941 108.328 76.7435 108.424 76.8608 108.552C76.9675 108.691 77.0208 108.845 77.0208 109.016C77.0208 109.069 77.0208 109.133 77.0208 109.208C77.0208 109.272 77.0101 109.331 76.9888 109.384C76.9675 109.501 76.8981 109.608 76.7808 109.704C76.7275 109.779 76.6261 109.832 76.4768 109.864C76.3381 109.907 76.1995 109.933 76.0608 109.944C75.9115 109.976 75.7621 109.992 75.6128 109.992H74.8608L71.9008 110.008L71.8688 113.144L75.0528 113.176H75.8048C75.8901 113.176 75.9701 113.176 76.0448 113.176C76.1195 113.176 76.1888 113.181 76.2528 113.192C76.3381 113.213 76.4128 113.229 76.4768 113.24C76.5515 113.24 76.6208 113.251 76.6848 113.272C76.8128 113.315 76.9195 113.373 77.0048 113.448C77.1115 113.555 77.1808 113.667 77.2128 113.784C77.2235 113.837 77.2288 113.896 77.2288 113.96C77.2395 114.013 77.2395 114.072 77.2288 114.136C77.2288 114.307 77.1755 114.461 77.0688 114.6C76.9408 114.749 76.7915 114.845 76.6208 114.888C76.3968 114.984 76.1515 115.032 75.8848 115.032C75.7675 115.043 75.6448 115.048 75.5168 115.048C75.3888 115.048 75.2661 115.053 75.1488 115.064H75.0528C74.2208 115.085 73.3568 115.085 72.4608 115.064C72.2475 115.064 72.0768 115.059 71.9488 115.048C71.8208 115.048 71.7035 115.048 71.5968 115.048C71.5008 115.048 71.3995 115.048 71.2928 115.048C71.1861 115.048 71.0475 115.048 70.8768 115.048C70.6315 115.069 70.4288 115.027 70.2688 114.92C70.1515 114.845 70.0608 114.744 69.9968 114.616C69.9648 114.584 69.9488 114.552 69.9488 114.52C69.9381 114.499 69.9275 114.483 69.9168 114.472C69.9061 114.461 69.8955 114.445 69.8848 114.424C69.8635 114.371 69.8475 114.317 69.8368 114.264C69.8261 114.2 69.8208 114.141 69.8208 114.088C69.8101 114.035 69.7995 113.981 69.7888 113.928C69.7888 113.875 69.7835 113.821 69.7728 113.768V113.512C69.7728 113.469 69.7728 113.427 69.7728 113.384C69.7835 113.341 69.7888 113.299 69.7888 113.256V112.008L69.8208 109.704V107.576C69.8208 107.192 69.8208 106.851 69.8208 106.552C69.8315 106.253 69.8421 105.928 69.8528 105.576V105.496C69.8635 105.379 69.8688 105.272 69.8688 105.176C69.8795 105.069 69.8848 104.963 69.8848 104.856C69.8955 104.643 69.9541 104.435 70.0608 104.232C70.1035 104.147 70.1461 104.072 70.1888 104.008C70.2421 103.944 70.3115 103.891 70.3968 103.848C70.5568 103.752 70.7221 103.704 70.8928 103.704C70.9781 103.704 71.0421 103.709 71.0848 103.72V103.704C71.2768 103.704 71.4315 103.704 71.5488 103.704C71.6661 103.704 71.7781 103.704 71.8848 103.704C72.0021 103.704 72.1248 103.704 72.2528 103.704C72.3808 103.693 72.5568 103.688 72.7808 103.688C73.2075 103.677 73.6128 103.672 73.9968 103.672C74.3808 103.672 74.7755 103.677 75.1808 103.688H75.2448C75.3621 103.699 75.4848 103.704 75.6128 103.704C75.7408 103.704 75.8635 103.709 75.9808 103.72C76.0981 103.72 76.2155 103.736 76.3328 103.768C76.4501 103.789 76.5675 103.821 76.6848 103.864C76.8661 103.917 77.0155 104.008 77.1328 104.136C77.2288 104.285 77.2768 104.435 77.2768 104.584C77.2768 104.648 77.2768 104.712 77.2768 104.776C77.2768 104.829 77.2661 104.883 77.2448 104.936C77.2341 105.043 77.1701 105.155 77.0528 105.272C77.0101 105.293 76.9621 105.32 76.9088 105.352C76.8661 105.384 76.8128 105.411 76.7488 105.432C76.6848 105.453 76.6155 105.469 76.5408 105.48C76.4768 105.48 76.4128 105.485 76.3488 105.496C76.2635 105.517 76.1835 105.528 76.1088 105.528C76.0448 105.528 75.9701 105.528 75.8848 105.528H75.1648L71.9648 105.544V105.592Z" fill="#FAFAFA"/>
<defs>
<clipPath id="clip0">
<rect width="83" height="95" fill="white" transform="translate(5)"/>
</clipPath>
</defs>
</svg>
