<svg width="111" height="115" viewBox="0 0 111 115" fill="none" xmlns="http://www.w3.org/2000/svg">
<g clip-path="url(#clip0)">
<path d="M66.0981 87.4001H99.6733V45.2607H66.0981V87.4001ZM67.777 48.3822C67.777 47.5203 68.5286 46.8215 69.4557 46.8215C70.3827 46.8215 71.1345 47.5203 71.1345 48.3822V54.6251C71.1345 55.487 70.3827 56.1857 69.4557 56.1857C68.5286 56.1857 67.777 55.487 67.777 54.6251V48.3822Z" fill="#FAFAFA"/>
<path d="M99.6733 20.2892H66.0981V42.1392H99.6733V20.2892ZM71.1345 39.0177C71.1345 39.8797 70.3827 40.5784 69.4557 40.5784C68.5286 40.5784 67.777 39.8797 67.777 39.0177V32.7749C67.777 31.9129 68.5286 31.2142 69.4557 31.2142C70.3827 31.2142 71.1345 31.9129 71.1345 32.7749V39.0177Z" fill="#FAFAFA"/>
<path d="M24.1297 56.1856H25.8084C26.7354 56.1856 27.4872 55.4868 27.4872 54.6249C27.4872 53.763 26.7354 53.0642 25.8084 53.0642H9.02084C8.09375 53.0642 7.34208 53.763 7.34208 54.6249C7.34208 55.4868 8.09375 56.1856 9.02084 56.1856H10.6996V59.3071H5.66333V65.5499H29.1659V59.3071H24.1297V56.1856ZM14.0571 59.3071V56.1856H20.7721V59.3071H14.0571Z" fill="#FAFAFA"/>
<path d="M5.66333 68.6714H29.1659V87.4H5.66333V68.6714Z" fill="#FAFAFA"/>
<path d="M54.3472 59.3071V56.1856H56.026C56.9531 56.1856 57.7047 55.4868 57.7047 54.6249C57.7047 53.7629 56.9531 53.0642 56.026 53.0642H39.2384C38.3113 53.0642 37.5597 53.7629 37.5597 54.6249C37.5597 55.4868 38.3113 56.1856 39.2384 56.1856H40.9172V59.3071H32.5234V87.3999H62.7409V59.3071H54.3472ZM44.2747 56.1856H50.9896V59.3071H44.2747V56.1856ZM59.3834 82.7177C59.3834 83.5797 58.6318 84.2785 57.7047 84.2785H37.5597C36.6326 84.2785 35.8808 83.5797 35.8808 82.7177V63.9892C35.8808 63.1273 36.6326 62.4284 37.5597 62.4284H57.7047C58.6318 62.4284 59.3834 63.1273 59.3834 63.9892V82.7177Z" fill="#FAFAFA"/>
<path d="M39.2388 65.55H56.0263V81.1572H39.2388V65.55Z" fill="#FAFAFA"/>
<path d="M10.926 21.8499H54.1212L40.1296 6.2428H24.9175L10.926 21.8499Z" fill="#FAFAFA"/>
<path d="M29.1658 0H35.8808V3.12143H29.1658V0Z" fill="#FAFAFA"/>
<path d="M34.7219 103.312C34.8606 103.621 34.8659 103.925 34.7379 104.224C34.6099 104.512 34.4073 104.779 34.1299 105.024C33.8526 105.269 33.5326 105.483 33.1699 105.664C32.8179 105.845 32.4819 105.973 32.1619 106.048C31.8099 106.123 31.4366 106.155 31.0419 106.144C30.6579 106.144 30.2686 106.096 29.8739 106C29.4899 105.915 29.1113 105.787 28.7379 105.616C28.3753 105.435 28.0393 105.216 27.7299 104.96C27.3566 104.651 27.0633 104.283 26.8499 103.856C26.6473 103.419 26.4979 102.955 26.4019 102.464C26.3059 101.973 26.2526 101.483 26.2419 100.992C26.2419 100.491 26.2579 100.021 26.2899 99.584C26.3219 99.1893 26.4019 98.7787 26.5299 98.352C26.6579 97.9253 26.8339 97.5093 27.0579 97.104C27.2926 96.688 27.5699 96.304 27.8899 95.952C28.2206 95.6 28.6046 95.3013 29.0419 95.056C29.3726 94.864 29.7406 94.736 30.1459 94.672C30.5619 94.5973 30.9779 94.5813 31.3939 94.624C31.8206 94.656 32.2206 94.7467 32.5939 94.896C32.9779 95.0347 33.3033 95.2267 33.5699 95.472C33.7406 95.6213 33.9166 95.8293 34.0979 96.096C34.2899 96.3627 34.4286 96.6347 34.5139 96.912C34.5993 97.1893 34.5993 97.4507 34.5139 97.696C34.4393 97.9307 34.2259 98.0907 33.8739 98.176C33.7246 98.2187 33.5913 98.2293 33.4739 98.208C33.3566 98.176 33.2499 98.128 33.1539 98.064C33.0579 97.9893 32.9673 97.904 32.8819 97.808C32.7966 97.712 32.7166 97.616 32.6419 97.52C32.3859 97.2107 32.0873 97.0027 31.7459 96.896C31.4046 96.7787 31.0633 96.752 30.7219 96.816C30.3913 96.8693 30.0766 97.008 29.7779 97.232C29.4899 97.4453 29.2659 97.7227 29.1059 98.064C28.9353 98.4267 28.7966 98.8267 28.6899 99.264C28.5939 99.6907 28.5406 100.128 28.5299 100.576C28.5193 101.013 28.5566 101.44 28.6419 101.856C28.7379 102.272 28.8979 102.64 29.1219 102.96C29.2926 103.216 29.5006 103.424 29.7459 103.584C30.0019 103.744 30.2739 103.856 30.5619 103.92C30.8499 103.984 31.1379 103.995 31.4259 103.952C31.7246 103.909 32.0126 103.813 32.2899 103.664C32.3753 103.621 32.4659 103.563 32.5619 103.488C32.6686 103.403 32.7753 103.317 32.8819 103.232C32.9886 103.147 33.0953 103.067 33.2019 102.992C33.3193 102.917 33.4419 102.864 33.5699 102.832C33.7619 102.768 33.9699 102.773 34.1939 102.848C34.4286 102.923 34.6046 103.077 34.7219 103.312ZM44.8526 95.552C44.9166 96.064 44.9539 96.6613 44.9646 97.344C44.9752 98.016 44.9646 98.6987 44.9326 99.392C44.9112 100.075 44.8632 100.725 44.7886 101.344C44.7139 101.952 44.6232 102.443 44.5166 102.816C44.4419 103.04 44.3512 103.275 44.2446 103.52C44.1486 103.755 44.0419 103.968 43.9246 104.16C43.7539 104.448 43.5459 104.704 43.3006 104.928C43.0552 105.141 42.7832 105.328 42.4846 105.488C42.1966 105.637 41.8872 105.755 41.5566 105.84C41.2366 105.925 40.9166 105.973 40.5966 105.984C40.0312 106.005 39.4926 105.925 38.9806 105.744C38.4792 105.552 38.0152 105.253 37.5886 104.848C37.2686 104.539 37.0126 104.208 36.8206 103.856C36.6286 103.504 36.4792 103.136 36.3726 102.752C36.2659 102.357 36.1966 101.952 36.1646 101.536C36.1432 101.12 36.1326 100.693 36.1326 100.256C36.1326 100.053 36.1272 99.8027 36.1166 99.504C36.1166 99.1947 36.1166 98.88 36.1166 98.56C36.1166 98.2293 36.1166 97.9093 36.1166 97.6C36.1166 97.2907 36.1219 97.0293 36.1326 96.816C36.1326 96.6773 36.1326 96.528 36.1326 96.368C36.1326 96.1973 36.1379 96.032 36.1486 95.872C36.1699 95.7013 36.2019 95.5413 36.2446 95.392C36.2872 95.232 36.3512 95.088 36.4366 94.96C36.5326 94.8213 36.6659 94.72 36.8366 94.656C37.0072 94.592 37.1832 94.56 37.3646 94.56C37.5566 94.56 37.7379 94.5973 37.9086 94.672C38.0792 94.7467 38.2179 94.8533 38.3246 94.992C38.3779 95.0773 38.4152 95.1627 38.4366 95.248C38.4579 95.3333 38.4739 95.4293 38.4846 95.536C38.5059 95.888 38.5166 96.288 38.5166 96.736C38.5272 97.184 38.5272 97.6213 38.5166 98.048C38.5166 98.464 38.5112 98.848 38.5006 99.2C38.4899 99.552 38.4846 99.8133 38.4846 99.984C38.4846 100.624 38.5166 101.205 38.5806 101.728C38.6446 102.24 38.7939 102.667 39.0286 103.008C39.2419 103.317 39.4926 103.515 39.7806 103.6C40.0686 103.685 40.3566 103.712 40.6446 103.68C40.9112 103.648 41.1779 103.552 41.4446 103.392C41.7219 103.221 41.9406 102.976 42.1006 102.656C42.1646 102.539 42.2179 102.405 42.2606 102.256C42.3032 102.107 42.3352 101.968 42.3566 101.84C42.3992 101.435 42.4366 100.965 42.4686 100.432C42.5006 99.888 42.5272 99.3333 42.5486 98.768C42.5699 98.2027 42.5806 97.648 42.5806 97.104C42.5806 96.56 42.5752 96.0693 42.5646 95.632C42.5859 95.44 42.6446 95.264 42.7406 95.104C42.8259 94.9653 42.9486 94.8427 43.1086 94.736C43.2686 94.6293 43.4872 94.576 43.7646 94.576C43.9886 94.5867 44.1699 94.6453 44.3086 94.752C44.4472 94.848 44.5592 94.9547 44.6446 95.072C44.7406 95.2107 44.8099 95.3707 44.8526 95.552ZM46.7532 104.304L46.7692 103.04L46.7852 100.688C46.7959 100.347 46.8012 99.9947 46.8012 99.632C46.8012 99.2693 46.8012 98.896 46.8012 98.512C46.8012 98.128 46.8012 97.7867 46.8012 97.488C46.8012 97.1893 46.8119 96.8533 46.8332 96.48V96.416C46.8439 96.3093 46.8492 96.2027 46.8492 96.096C46.8599 95.9787 46.8652 95.8613 46.8652 95.744C46.8759 95.552 46.9345 95.344 47.0412 95.12C47.1159 94.9707 47.2279 94.8427 47.3772 94.736C47.5479 94.6507 47.7132 94.608 47.8732 94.608C47.9585 94.608 48.0332 94.6133 48.0972 94.624C48.1719 94.624 48.2412 94.6293 48.3052 94.64C48.4439 94.6613 48.5665 94.7253 48.6732 94.832C48.7372 94.8853 48.7959 94.9707 48.8492 95.088C48.8705 95.152 48.8865 95.216 48.8972 95.28C48.9185 95.3333 48.9345 95.392 48.9452 95.456C48.9559 95.5307 48.9612 95.6 48.9612 95.664C48.9719 95.728 48.9772 95.792 48.9772 95.856C48.9772 95.9307 48.9719 96 48.9612 96.064C48.9612 96.1173 48.9612 96.176 48.9612 96.24V96.512L48.8652 104.816V104.976C48.8652 105.008 48.8599 105.051 48.8492 105.104C48.8492 105.147 48.8439 105.2 48.8332 105.264C48.8119 105.317 48.7905 105.376 48.7692 105.44C48.7585 105.493 48.7425 105.552 48.7212 105.616C48.6892 105.669 48.6519 105.723 48.6092 105.776C48.5772 105.819 48.5345 105.861 48.4812 105.904C48.3959 105.989 48.2572 106.048 48.0652 106.08C47.7772 106.144 47.5052 106.117 47.2492 106C47.1212 105.915 47.0305 105.808 46.9772 105.68C46.9452 105.648 46.9292 105.616 46.9292 105.584C46.9185 105.563 46.9079 105.547 46.8972 105.536C46.8865 105.525 46.8759 105.509 46.8652 105.488C46.8439 105.435 46.8279 105.381 46.8172 105.328C46.8065 105.264 46.8012 105.2 46.8012 105.136C46.7905 105.083 46.7799 105.029 46.7692 104.976C46.7692 104.923 46.7639 104.869 46.7532 104.816C46.7425 104.731 46.7425 104.64 46.7532 104.544V104.304ZM59.0296 101.344C59.0829 101.493 59.1202 101.664 59.1416 101.856C59.1736 102.037 59.1896 102.224 59.1896 102.416C59.1896 102.608 59.1736 102.8 59.1416 102.992C59.1202 103.173 59.0882 103.333 59.0456 103.472C58.8749 104.069 58.5336 104.571 58.0216 104.976C57.5096 105.371 56.9229 105.659 56.2616 105.84C55.6109 106.021 54.9336 106.085 54.2296 106.032C53.5362 105.979 52.9176 105.803 52.3736 105.504C52.0322 105.312 51.7389 105.077 51.4936 104.8C51.2482 104.523 51.0402 104.213 50.8696 103.872C50.8056 103.755 50.7629 103.621 50.7416 103.472C50.7309 103.312 50.7469 103.163 50.7896 103.024C50.8322 102.875 50.9016 102.747 50.9976 102.64C51.0936 102.523 51.2269 102.443 51.3976 102.4C51.5042 102.379 51.6216 102.368 51.7496 102.368C51.8882 102.368 52.0216 102.389 52.1496 102.432C52.2776 102.464 52.3949 102.523 52.5016 102.608C52.6082 102.683 52.6936 102.789 52.7576 102.928C52.8749 103.152 53.0402 103.36 53.2536 103.552C53.4776 103.733 53.7122 103.883 53.9576 104C54.3096 104.117 54.6616 104.165 55.0136 104.144C55.3762 104.123 55.7016 104.043 55.9896 103.904C56.2882 103.765 56.5282 103.579 56.7096 103.344C56.8909 103.099 56.9816 102.821 56.9816 102.512C56.9816 102.256 56.9442 102.048 56.8696 101.888C56.7949 101.717 56.6882 101.579 56.5496 101.472C56.4216 101.355 56.2616 101.259 56.0696 101.184C55.8882 101.109 55.6856 101.045 55.4616 100.992C55.2056 100.939 54.9442 100.901 54.6776 100.88C54.4216 100.859 54.1602 100.832 53.8936 100.8C53.6269 100.768 53.3656 100.725 53.1096 100.672C52.8536 100.619 52.6029 100.539 52.3576 100.432C51.8669 100.229 51.4936 99.92 51.2376 99.504C50.9816 99.088 50.8269 98.64 50.7736 98.16C50.7309 97.68 50.7896 97.2053 50.9496 96.736C51.1096 96.256 51.3656 95.8453 51.7176 95.504C52.0589 95.1947 52.4642 94.976 52.9336 94.848C53.4136 94.7093 53.9416 94.6293 54.5176 94.608C54.8376 94.5973 55.1576 94.608 55.4776 94.64C55.8082 94.672 56.1229 94.7253 56.4216 94.8C56.7309 94.8747 57.0136 94.9707 57.2696 95.088C57.5362 95.2053 57.7656 95.344 57.9576 95.504C58.0962 95.6107 58.2349 95.7547 58.3736 95.936C58.5122 96.1067 58.6189 96.2933 58.6936 96.496C58.7682 96.688 58.7896 96.8747 58.7576 97.056C58.7362 97.2373 58.6242 97.392 58.4216 97.52C58.2509 97.6267 58.0856 97.6747 57.9256 97.664C57.7762 97.6427 57.6322 97.5947 57.4936 97.52C57.3549 97.4347 57.2216 97.3387 57.0936 97.232C56.9656 97.1253 56.8482 97.0293 56.7416 96.944C56.4536 96.7307 56.0962 96.5867 55.6696 96.512C55.2429 96.4373 54.8429 96.4213 54.4696 96.464C54.2349 96.496 54.0162 96.5493 53.8136 96.624C53.6109 96.6987 53.4349 96.8 53.2856 96.928C53.1469 97.056 53.0349 97.216 52.9496 97.408C52.8749 97.5893 52.8482 97.7973 52.8696 98.032C52.8802 98.2027 52.9282 98.3467 53.0136 98.464C53.1096 98.5813 53.2216 98.6773 53.3496 98.752C53.4882 98.8267 53.6376 98.8853 53.7976 98.928C53.9576 98.9707 54.1176 99.0027 54.2776 99.024C54.7576 99.088 55.2376 99.136 55.7176 99.168C56.1976 99.2 56.6669 99.3067 57.1256 99.488C57.5949 99.6693 57.9949 99.9147 58.3256 100.224C58.6562 100.533 58.8909 100.907 59.0296 101.344ZM60.9719 104.304L60.9879 103.04L61.0039 100.688C61.0146 100.347 61.0199 99.9947 61.0199 99.632C61.0199 99.2693 61.0199 98.896 61.0199 98.512C61.0199 98.128 61.0199 97.7867 61.0199 97.488C61.0199 97.1893 61.0306 96.8533 61.0519 96.48V96.416C61.0626 96.3093 61.0679 96.2027 61.0679 96.096C61.0786 95.9787 61.0839 95.8613 61.0839 95.744C61.0946 95.552 61.1533 95.344 61.2599 95.12C61.3346 94.9707 61.4466 94.8427 61.5959 94.736C61.7666 94.6507 61.9319 94.608 62.0919 94.608C62.1773 94.608 62.2519 94.6133 62.3159 94.624C62.3906 94.624 62.4599 94.6293 62.5239 94.64C62.6626 94.6613 62.7853 94.7253 62.8919 94.832C62.9559 94.8853 63.0146 94.9707 63.0679 95.088C63.0893 95.152 63.1053 95.216 63.1159 95.28C63.1373 95.3333 63.1533 95.392 63.1639 95.456C63.1746 95.5307 63.1799 95.6 63.1799 95.664C63.1906 95.728 63.1959 95.792 63.1959 95.856C63.1959 95.9307 63.1906 96 63.1799 96.064C63.1799 96.1173 63.1799 96.176 63.1799 96.24V96.512L63.0839 104.816V104.976C63.0839 105.008 63.0786 105.051 63.0679 105.104C63.0679 105.147 63.0626 105.2 63.0519 105.264C63.0306 105.317 63.0093 105.376 62.9879 105.44C62.9773 105.493 62.9613 105.552 62.9399 105.616C62.9079 105.669 62.8706 105.723 62.8279 105.776C62.7959 105.819 62.7533 105.861 62.6999 105.904C62.6146 105.989 62.4759 106.048 62.2839 106.08C61.9959 106.144 61.7239 106.117 61.4679 106C61.3399 105.915 61.2493 105.808 61.1959 105.68C61.1639 105.648 61.1479 105.616 61.1479 105.584C61.1373 105.563 61.1266 105.547 61.1159 105.536C61.1053 105.525 61.0946 105.509 61.0839 105.488C61.0626 105.435 61.0466 105.381 61.0359 105.328C61.0253 105.264 61.0199 105.2 61.0199 105.136C61.0093 105.083 60.9986 105.029 60.9879 104.976C60.9879 104.923 60.9826 104.869 60.9719 104.816C60.9613 104.731 60.9613 104.64 60.9719 104.544V104.304ZM73.6643 104.784C73.6536 104.965 73.627 105.157 73.5843 105.36C73.5523 105.563 73.451 105.728 73.2803 105.856C73.1523 105.963 73.0083 106.027 72.8483 106.048C72.6883 106.069 72.5283 106.059 72.3683 106.016C72.219 105.984 72.075 105.931 71.9363 105.856C71.7976 105.771 71.6856 105.669 71.6003 105.552C71.2376 105.104 70.9016 104.645 70.5923 104.176C70.2936 103.696 69.9896 103.216 69.6803 102.736L68.3363 100.704C68.155 100.416 67.963 100.096 67.7603 99.744C67.5576 99.3813 67.3496 99.0453 67.1363 98.736L67.0883 104.848V104.992C67.0883 105.163 67.0563 105.333 66.9923 105.504C66.939 105.664 66.843 105.803 66.7043 105.92C66.5976 106.005 66.459 106.064 66.2883 106.096C66.0216 106.149 65.7976 106.133 65.6163 106.048C65.4456 105.963 65.307 105.845 65.2003 105.696C65.1043 105.547 65.035 105.376 64.9923 105.184C64.9603 104.981 64.955 104.784 64.9763 104.592V104.32L65.0083 103.072L65.0243 100.752C65.035 100.411 65.0403 100.064 65.0403 99.712C65.0403 99.3493 65.0403 98.9813 65.0403 98.608C65.0296 98.1493 65.0296 97.664 65.0403 97.152C65.0616 96.64 65.083 96.16 65.1043 95.712C65.1256 95.4667 65.1843 95.2587 65.2803 95.088C65.323 94.9387 65.435 94.8107 65.6163 94.704C65.7336 94.6293 65.883 94.5813 66.0643 94.56C66.2563 94.5387 66.4216 94.544 66.5603 94.576C66.6136 94.5973 66.667 94.624 66.7203 94.656C66.7736 94.6773 66.827 94.704 66.8803 94.736C66.9336 94.7787 66.9816 94.8213 67.0243 94.864C67.0776 94.9067 67.1256 94.9547 67.1683 95.008C67.2216 95.0613 67.2696 95.12 67.3123 95.184C67.355 95.2373 67.3976 95.2907 67.4403 95.344C67.4723 95.408 67.5043 95.4667 67.5363 95.52C67.5683 95.5733 67.6056 95.6267 67.6483 95.68L67.8243 95.936L71.5203 101.76V100.704C71.5203 100.363 71.515 100.016 71.5043 99.664C71.5043 99.3013 71.499 98.928 71.4883 98.544C71.4883 98.096 71.4883 97.616 71.4883 97.104C71.499 96.592 71.515 96.112 71.5363 95.664C71.5363 95.4827 71.5896 95.2747 71.6963 95.04C71.7496 94.9013 71.8403 94.7893 71.9683 94.704C72.0963 94.6187 72.2403 94.56 72.4003 94.528C72.5603 94.496 72.7203 94.496 72.8803 94.528C73.0403 94.56 73.179 94.624 73.2963 94.72C73.3283 94.752 73.3603 94.7893 73.3923 94.832C73.4243 94.8747 73.451 94.9227 73.4723 94.976C73.5256 95.1147 73.5576 95.2373 73.5683 95.344C73.6003 95.4933 73.6163 95.6267 73.6163 95.744C73.6163 97.0773 73.6163 98.4373 73.6163 99.824C73.627 101.211 73.6376 102.571 73.6483 103.904C73.6483 104.053 73.6536 104.203 73.6643 104.352C73.675 104.491 73.675 104.635 73.6643 104.784ZM77.4648 96.592L77.4328 99.104H78.0728C78.5101 99.0933 78.8995 99.088 79.2408 99.088C79.5821 99.088 79.9608 99.0933 80.3768 99.104H80.4568C80.5848 99.104 80.7075 99.1093 80.8248 99.12C80.9528 99.12 81.0755 99.12 81.1928 99.12C81.3208 99.1307 81.4435 99.152 81.5608 99.184C81.6781 99.2053 81.7955 99.232 81.9128 99.264C82.0941 99.328 82.2435 99.424 82.3608 99.552C82.4675 99.6907 82.5208 99.8453 82.5208 100.016C82.5208 100.069 82.5208 100.133 82.5208 100.208C82.5208 100.272 82.5101 100.331 82.4888 100.384C82.4675 100.501 82.3981 100.608 82.2808 100.704C82.2275 100.779 82.1261 100.832 81.9768 100.864C81.8381 100.907 81.6995 100.933 81.5608 100.944C81.4115 100.976 81.2621 100.992 81.1128 100.992H80.3608L77.4008 101.008L77.3688 104.144L80.5528 104.176H81.3048C81.3901 104.176 81.4701 104.176 81.5448 104.176C81.6195 104.176 81.6888 104.181 81.7528 104.192C81.8381 104.213 81.9128 104.229 81.9768 104.24C82.0515 104.24 82.1208 104.251 82.1848 104.272C82.3128 104.315 82.4195 104.373 82.5048 104.448C82.6115 104.555 82.6808 104.667 82.7128 104.784C82.7235 104.837 82.7288 104.896 82.7288 104.96C82.7395 105.013 82.7395 105.072 82.7288 105.136C82.7288 105.307 82.6755 105.461 82.5688 105.6C82.4408 105.749 82.2915 105.845 82.1208 105.888C81.8968 105.984 81.6515 106.032 81.3848 106.032C81.2675 106.043 81.1448 106.048 81.0168 106.048C80.8888 106.048 80.7661 106.053 80.6488 106.064H80.5528C79.7208 106.085 78.8568 106.085 77.9608 106.064C77.7475 106.064 77.5768 106.059 77.4488 106.048C77.3208 106.048 77.2035 106.048 77.0968 106.048C77.0008 106.048 76.8995 106.048 76.7928 106.048C76.6861 106.048 76.5475 106.048 76.3768 106.048C76.1315 106.069 75.9288 106.027 75.7688 105.92C75.6515 105.845 75.5608 105.744 75.4968 105.616C75.4648 105.584 75.4488 105.552 75.4488 105.52C75.4381 105.499 75.4275 105.483 75.4168 105.472C75.4061 105.461 75.3955 105.445 75.3848 105.424C75.3635 105.371 75.3475 105.317 75.3368 105.264C75.3261 105.2 75.3208 105.141 75.3208 105.088C75.3101 105.035 75.2995 104.981 75.2888 104.928C75.2888 104.875 75.2835 104.821 75.2728 104.768V104.512C75.2728 104.469 75.2728 104.427 75.2728 104.384C75.2835 104.341 75.2888 104.299 75.2888 104.256V103.008L75.3208 100.704V98.576C75.3208 98.192 75.3208 97.8507 75.3208 97.552C75.3315 97.2533 75.3421 96.928 75.3528 96.576V96.496C75.3635 96.3787 75.3688 96.272 75.3688 96.176C75.3795 96.0693 75.3848 95.9627 75.3848 95.856C75.3955 95.6427 75.4541 95.4347 75.5608 95.232C75.6035 95.1467 75.6461 95.072 75.6888 95.008C75.7421 94.944 75.8115 94.8907 75.8968 94.848C76.0568 94.752 76.2221 94.704 76.3928 94.704C76.4781 94.704 76.5421 94.7093 76.5848 94.72V94.704C76.7768 94.704 76.9315 94.704 77.0488 94.704C77.1661 94.704 77.2781 94.704 77.3848 94.704C77.5021 94.704 77.6248 94.704 77.7528 94.704C77.8808 94.6933 78.0568 94.688 78.2808 94.688C78.7075 94.6773 79.1128 94.672 79.4968 94.672C79.8808 94.672 80.2755 94.6773 80.6808 94.688H80.7448C80.8621 94.6987 80.9848 94.704 81.1128 94.704C81.2408 94.704 81.3635 94.7093 81.4808 94.72C81.5981 94.72 81.7155 94.736 81.8328 94.768C81.9501 94.7893 82.0675 94.8213 82.1848 94.864C82.3661 94.9173 82.5155 95.008 82.6328 95.136C82.7288 95.2853 82.7768 95.4347 82.7768 95.584C82.7768 95.648 82.7768 95.712 82.7768 95.776C82.7768 95.8293 82.7661 95.8827 82.7448 95.936C82.7341 96.0427 82.6701 96.1547 82.5528 96.272C82.5101 96.2933 82.4621 96.32 82.4088 96.352C82.3661 96.384 82.3128 96.4107 82.2488 96.432C82.1848 96.4533 82.1155 96.4693 82.0408 96.48C81.9768 96.48 81.9128 96.4853 81.8488 96.496C81.7635 96.5173 81.6835 96.528 81.6088 96.528C81.5448 96.528 81.4701 96.528 81.3848 96.528H80.6648L77.4648 96.544V96.592Z" fill="white"/>
</g>
<defs>
<clipPath id="clip0">
<rect width="111" height="115" fill="white"/>
</clipPath>
</defs>
</svg>
