<svg width="75" height="75" viewBox="0 0 75 75" fill="none" xmlns="http://www.w3.org/2000/svg">
<path d="M57.365 34.9209C57.365 34.2148 56.7453 33.6423 55.9809 33.6423H13.5505C12.7862 33.6423 12.1665 34.2148 12.1665 34.9209C12.1665 40.6912 16.1172 45.6246 21.6508 47.5357C20.5864 48.5694 19.928 49.9869 19.928 51.5493C19.928 52.2554 20.5476 52.8279 21.312 52.8279C22.0763 52.8279 22.696 52.2554 22.696 51.5493C22.696 49.8035 24.1379 48.3832 25.9105 48.3832C25.9757 48.3832 26.0391 48.3776 26.1018 48.3695C26.3133 48.378 26.5256 48.3832 26.7392 48.3832H42.7923C43.0059 48.3832 43.2182 48.378 43.4297 48.3695C43.4924 48.3776 43.5559 48.3832 43.621 48.3832C45.3936 48.3832 46.8356 49.8034 46.8356 51.5493C46.8356 52.2554 47.4553 52.8279 48.2196 52.8279C48.984 52.8279 49.6036 52.2554 49.6036 51.5493C49.6036 49.987 48.9452 48.5695 47.8808 47.5357C53.4143 45.6247 57.365 40.6912 57.365 34.9209Z" fill="#FAFAFA"/>
<path d="M46.4887 10C42.7821 10 39.7665 12.7858 39.7665 16.21V18.5408C39.7665 19.2469 40.3862 19.8194 41.1505 19.8194C41.9148 19.8194 42.5345 19.2469 42.5345 18.5408V16.21C42.5345 14.1958 44.3083 12.5571 46.4887 12.5571C48.6691 12.5571 50.4429 14.1958 50.4429 16.21V31.0851H53.211V16.21C53.211 12.7858 50.1954 10 46.4887 10Z" fill="#FAFAFA"/>
<path d="M41.1505 21.7822C40.3862 21.7822 39.7665 22.3547 39.7665 23.0608V24.1688C39.7665 24.8749 40.3862 25.4474 41.1505 25.4474C41.9148 25.4474 42.5345 24.8749 42.5345 24.1688V23.0608C42.5345 22.3546 41.9148 21.7822 41.1505 21.7822Z" fill="#FAFAFA"/>
<path d="M41.1505 27.42C40.3862 27.42 39.7665 27.9925 39.7665 28.6986V29.8066C39.7665 30.5128 40.3862 31.0852 41.1505 31.0852C41.9148 31.0852 42.5345 30.5128 42.5345 29.8066V28.6986C42.5345 27.9925 41.9148 27.42 41.1505 27.42Z" fill="#FAFAFA"/>
<path d="M13.8661 57.2713C13.8909 57.3426 13.9083 57.4243 13.9183 57.5162C13.9332 57.6027 13.9407 57.6922 13.9407 57.784C13.9407 57.8758 13.9332 57.9677 13.9183 58.0595C13.9083 58.146 13.8934 58.2226 13.8735 58.289C13.7939 58.5746 13.6348 58.8147 13.396 59.0083C13.1573 59.1973 12.8838 59.335 12.5754 59.4216C12.272 59.5081 11.9562 59.5387 11.6279 59.5134C11.3046 59.488 11.0161 59.4039 10.7625 59.2609C10.6033 59.169 10.4665 59.0567 10.3521 58.9242C10.2377 58.7917 10.1408 58.6434 10.0612 58.4803C10.0313 58.4244 10.0114 58.3603 10.0015 58.289C9.99652 58.2125 10.004 58.1413 10.0239 58.0748C10.0438 58.0035 10.0761 57.9423 10.1209 57.8911C10.1656 57.8352 10.2278 57.7969 10.3074 57.7763C10.3571 57.7663 10.4118 57.761 10.4715 57.761C10.5362 57.761 10.5983 57.7711 10.658 57.7917C10.7177 57.807 10.7724 57.8352 10.8222 57.8758C10.8719 57.9117 10.9117 57.9624 10.9415 58.0289C10.9962 58.136 11.0733 58.2355 11.1728 58.3273C11.2772 58.4139 11.3867 58.4856 11.5011 58.5416C11.6652 58.5975 11.8293 58.6205 11.9935 58.6104C12.1626 58.6004 12.3143 58.5621 12.4486 58.4957C12.5878 58.4292 12.6997 58.3402 12.7843 58.2278C12.8688 58.1107 12.9111 57.9777 12.9111 57.8299C12.9111 57.7075 12.8937 57.608 12.8589 57.5315C12.8241 57.4497 12.7743 57.3837 12.7097 57.3325C12.65 57.2766 12.5754 57.2307 12.4859 57.1948C12.4013 57.1589 12.3068 57.1283 12.2024 57.103C12.083 57.0776 11.9611 57.0594 11.8368 57.0494C11.7174 57.0393 11.5956 57.0264 11.4712 57.0111C11.3469 56.9958 11.225 56.9753 11.1057 56.9499C10.9863 56.9246 10.8694 56.8863 10.755 56.8351C10.5262 56.738 10.3521 56.5903 10.2328 56.3913C10.1134 56.1923 10.0413 55.9781 10.0164 55.7485C9.99652 55.519 10.0239 55.2918 10.0985 55.0675C10.1731 54.8379 10.2925 54.6415 10.4566 54.4783C10.6157 54.3303 10.8047 54.2257 11.0236 54.1645C11.2474 54.0982 11.4936 54.0599 11.7622 54.0497C11.9114 54.0446 12.0606 54.0497 12.2098 54.065C12.364 54.0803 12.5107 54.1058 12.65 54.1416C12.7942 54.1773 12.926 54.2232 13.0454 54.2793C13.1697 54.3354 13.2767 54.4017 13.3662 54.4783C13.4309 54.5293 13.4955 54.5982 13.5602 54.6849C13.6248 54.7665 13.6746 54.8558 13.7094 54.9527C13.7442 55.0445 13.7542 55.1338 13.7392 55.2205C13.7293 55.3071 13.6771 55.3812 13.5826 55.4424C13.503 55.4936 13.4259 55.5166 13.3513 55.5113C13.2817 55.5013 13.2145 55.4783 13.1499 55.4424C13.0852 55.4018 13.023 55.3559 12.9633 55.3047C12.9037 55.2535 12.8489 55.2076 12.7992 55.167C12.6649 55.0649 12.4983 54.9961 12.2993 54.9603C12.1004 54.9246 11.9139 54.917 11.7398 54.9374C11.6304 54.9527 11.5284 54.9782 11.4339 55.0139C11.3394 55.0496 11.2574 55.0981 11.1877 55.1593C11.1231 55.2205 11.0708 55.297 11.0311 55.3889C10.9962 55.4754 10.9838 55.5749 10.9937 55.6873C10.9987 55.7691 11.0211 55.838 11.0609 55.8939C11.1057 55.9499 11.1579 55.9958 11.2176 56.0317C11.2822 56.0675 11.3519 56.0953 11.4265 56.1158C11.5011 56.1364 11.5757 56.1517 11.6503 56.1617C11.8741 56.1923 12.0979 56.2153 12.3217 56.2306C12.5455 56.2459 12.7644 56.2971 12.9783 56.3837C13.1971 56.4702 13.3836 56.5879 13.5378 56.7357C13.692 56.8834 13.8014 57.0623 13.8661 57.2713ZM19.1437 58.9777C19.1486 59.0084 19.1511 59.039 19.1511 59.0696C19.1561 59.0949 19.1586 59.1255 19.1586 59.1614C19.1586 59.2226 19.1412 59.2786 19.1064 59.3297C19.0914 59.3551 19.0715 59.3809 19.0467 59.4063C19.0218 59.4268 18.9919 59.4445 18.9572 59.4598C18.8328 59.5311 18.701 59.5569 18.5617 59.5363C18.4921 59.5158 18.4299 59.4828 18.3752 59.4369C18.3653 59.4268 18.3578 59.4216 18.3529 59.4216C18.3479 59.4163 18.3429 59.4087 18.3379 59.3986C18.3329 59.3933 18.328 59.3886 18.323 59.3833C18.318 59.3733 18.3106 59.3656 18.3006 59.3603C18.2757 59.335 18.2559 59.312 18.2409 59.2915C18.226 59.2661 18.2111 59.2403 18.1962 59.215C18.1862 59.1896 18.1738 59.1667 18.1589 59.1461C18.1489 59.1207 18.1365 59.0949 18.1216 59.0696C18.1116 59.049 18.1017 59.0313 18.0917 59.016C18.0818 58.9954 18.0743 58.9753 18.0694 58.9548C18.0494 58.9089 18.037 58.8682 18.032 58.8323L17.8754 58.4574C17.5322 58.4574 17.189 58.4598 16.8458 58.465C16.5076 58.465 16.1669 58.4627 15.8237 58.4574L15.667 58.8323C15.6571 58.8529 15.6496 58.873 15.6447 58.8936C15.6447 58.9141 15.6397 58.9342 15.6297 58.9548C15.6198 58.9753 15.6098 58.9954 15.5999 59.016C15.5949 59.0313 15.5875 59.049 15.5775 59.0696C15.5626 59.0949 15.5477 59.1207 15.5328 59.1461C15.5228 59.1667 15.5104 59.1896 15.4955 59.215C15.4855 59.2403 15.4731 59.2661 15.4582 59.2915C15.4432 59.312 15.4233 59.335 15.3985 59.3603C15.3885 59.3656 15.381 59.3733 15.3761 59.3833C15.3711 59.3886 15.3661 59.3933 15.3612 59.3986C15.3562 59.4087 15.3512 59.4163 15.3462 59.4216C15.3413 59.4216 15.3338 59.4268 15.3239 59.4369C15.2691 59.4828 15.207 59.5158 15.1373 59.5363C14.9981 59.5569 14.8663 59.5311 14.7419 59.4598C14.7071 59.4445 14.6773 59.4268 14.6524 59.4063C14.6275 59.3809 14.6076 59.3551 14.5927 59.3297C14.5579 59.2786 14.5405 59.2226 14.5405 59.1614C14.5405 59.1255 14.5405 59.0949 14.5405 59.0696C14.5454 59.039 14.5504 59.0084 14.5554 58.9777C14.5654 58.9318 14.5778 58.8859 14.5927 58.84C14.6076 58.7941 14.6151 58.7711 14.6151 58.7711L16.1669 54.8532L16.2117 54.7308C16.2216 54.7002 16.2341 54.6721 16.249 54.6466C16.2639 54.6211 16.2763 54.5905 16.2863 54.5548C16.3111 54.4884 16.3385 54.4298 16.3683 54.3788C16.3833 54.3482 16.4007 54.3201 16.4206 54.2946C16.4404 54.2691 16.4603 54.2436 16.4803 54.2181C16.5101 54.1773 16.5523 54.1441 16.6071 54.1186C16.6767 54.0931 16.7563 54.0803 16.8458 54.0803C16.9403 54.0803 17.0224 54.0931 17.092 54.1186C17.1467 54.1441 17.189 54.1773 17.2188 54.2181C17.2536 54.264 17.2909 54.3176 17.3308 54.3788C17.3606 54.4298 17.3879 54.4884 17.4128 54.5548C17.4228 54.5905 17.4352 54.6211 17.4501 54.6466C17.465 54.6721 17.4774 54.7002 17.4874 54.7308L17.5322 54.8532L19.084 58.7711C19.084 58.7711 19.0914 58.7941 19.1064 58.84C19.1213 58.8859 19.1337 58.9318 19.1437 58.9777ZM17.3755 57.103C17.3108 56.9552 17.2437 56.8021 17.1741 56.6438C17.1094 56.4855 17.0398 56.3248 16.9652 56.1617C16.9453 56.1158 16.9254 56.0699 16.9055 56.024C16.8856 55.9728 16.8657 55.9245 16.8458 55.8786C16.8309 55.9245 16.8135 55.9728 16.7936 56.024C16.7737 56.0699 16.7538 56.1158 16.7339 56.1617C16.6593 56.3248 16.5872 56.4855 16.5176 56.6438C16.4529 56.8021 16.3882 56.9552 16.3236 57.103L16.1893 57.4397H17.5098L17.3755 57.103ZM23.2039 58.9165C23.2138 58.9419 23.2188 58.9801 23.2188 59.0313C23.2188 59.0772 23.2188 59.1155 23.2188 59.1461C23.2188 59.1867 23.2113 59.225 23.1964 59.2609C23.1815 59.2967 23.1616 59.3297 23.1367 59.3603C23.0919 59.4216 23.0273 59.4675 22.9427 59.4981C22.8234 59.5387 22.7115 59.5593 22.607 59.5593C22.5523 59.5646 22.4951 59.567 22.4354 59.567C22.3757 59.567 22.316 59.5722 22.2564 59.5823H22.2265C21.8435 59.5875 21.4481 59.5875 21.0403 59.5823C20.9408 59.577 20.8289 59.577 20.7046 59.5823C20.5802 59.5923 20.4584 59.5899 20.339 59.5746C20.2196 59.5646 20.1102 59.5363 20.0107 59.4904C19.9162 59.4393 19.8491 59.3603 19.8093 59.2532C19.7993 59.2279 19.7919 59.2049 19.7869 59.1843C19.7819 59.159 19.7795 59.1332 19.7795 59.1078C19.7595 58.9342 19.7521 58.7635 19.7571 58.5951C19.762 58.4268 19.7645 58.2608 19.7645 58.0977L19.7795 56.9882V55.9628C19.7795 55.7791 19.7795 55.616 19.7795 55.473C19.7844 55.33 19.7894 55.1721 19.7944 54.9986V54.9603C19.7993 54.9093 19.8018 54.8583 19.8018 54.8073C19.8068 54.7563 19.8093 54.7053 19.8093 54.6543C19.8192 54.5369 19.8466 54.4375 19.8914 54.3558C19.9212 54.2793 19.9734 54.2181 20.048 54.1722C20.1127 54.1263 20.1898 54.1033 20.2793 54.1033C20.3141 54.1033 20.3465 54.1058 20.3763 54.111C20.4111 54.111 20.4434 54.1135 20.4733 54.1186C20.5031 54.1237 20.5305 54.1339 20.5554 54.1492C20.5852 54.1645 20.615 54.1849 20.6449 54.2104C20.6747 54.2462 20.702 54.2895 20.7269 54.3405C20.7468 54.3966 20.7593 54.4528 20.7642 54.5089C20.7692 54.5446 20.7742 54.5777 20.7792 54.6083C20.7841 54.639 20.7866 54.6696 20.7866 54.7002C20.7766 54.7308 20.7717 54.7614 20.7717 54.792C20.7717 54.8226 20.7717 54.8507 20.7717 54.8762V55.0139L20.7419 58.6181L22.2191 58.6334H22.5697C22.5995 58.6334 22.6319 58.6358 22.6667 58.641C22.7015 58.641 22.7363 58.6434 22.7711 58.6487C22.8109 58.654 22.8457 58.6587 22.8756 58.664C22.9054 58.6693 22.9353 58.6769 22.9651 58.687C23.0198 58.7023 23.0646 58.7276 23.0994 58.7635C23.1541 58.8147 23.1889 58.8653 23.2039 58.9165ZM27.262 58.9165C27.2719 58.9419 27.2769 58.9801 27.2769 59.0313C27.2769 59.0772 27.2769 59.1155 27.2769 59.1461C27.2769 59.1867 27.2694 59.225 27.2545 59.2609C27.2396 59.2967 27.2197 59.3297 27.1948 59.3603C27.1501 59.4216 27.0854 59.4675 27.0009 59.4981C26.8815 59.5387 26.7696 59.5593 26.6651 59.5593C26.6104 59.5646 26.5532 59.567 26.4935 59.567C26.4339 59.567 26.3742 59.5722 26.3145 59.5823H26.2846C25.9017 59.5875 25.5063 59.5875 25.0984 59.5823C24.999 59.577 24.887 59.577 24.7627 59.5823C24.6383 59.5923 24.5165 59.5899 24.3971 59.5746C24.2778 59.5646 24.1683 59.5363 24.0689 59.4904C23.9743 59.4393 23.9072 59.3603 23.8674 59.2532C23.8575 59.2279 23.85 59.2049 23.845 59.1843C23.8401 59.159 23.8376 59.1332 23.8376 59.1078C23.8177 58.9342 23.8102 58.7635 23.8152 58.5951C23.8202 58.4268 23.8227 58.2608 23.8227 58.0977L23.8376 56.9882V55.9628C23.8376 55.7791 23.8376 55.616 23.8376 55.473C23.8426 55.33 23.8475 55.1721 23.8525 54.9986V54.9603C23.8575 54.9093 23.86 54.8583 23.86 54.8073C23.865 54.7563 23.8674 54.7053 23.8674 54.6543C23.8774 54.5369 23.9047 54.4375 23.9495 54.3558C23.9793 54.2793 24.0316 54.2181 24.1062 54.1722C24.1708 54.1263 24.2479 54.1033 24.3374 54.1033C24.3723 54.1033 24.4046 54.1058 24.4344 54.111C24.4693 54.111 24.5016 54.1135 24.5314 54.1186C24.5613 54.1237 24.5886 54.1339 24.6135 54.1492C24.6433 54.1645 24.6732 54.1849 24.703 54.2104C24.7328 54.2462 24.7602 54.2895 24.7851 54.3405C24.805 54.3966 24.8174 54.4528 24.8224 54.5089C24.8274 54.5446 24.8323 54.5777 24.8373 54.6083C24.8423 54.639 24.8448 54.6696 24.8448 54.7002C24.8348 54.7308 24.8298 54.7614 24.8298 54.792C24.8298 54.8226 24.8298 54.8507 24.8298 54.8762V55.0139L24.8 58.6181L26.2772 58.6334H26.6278C26.6577 58.6334 26.69 58.6358 26.7248 58.641C26.7596 58.641 26.7944 58.6434 26.8293 58.6487C26.869 58.654 26.9039 58.6587 26.9337 58.664C26.9636 58.6693 26.9934 58.6769 27.0232 58.687C27.0779 58.7023 27.1227 58.7276 27.1575 58.7635C27.2122 58.8147 27.2471 58.8653 27.262 58.9165ZM28.8954 54.9986L28.8805 56.2H29.1789C29.3828 56.1947 29.5644 56.1923 29.7235 56.1923C29.8827 56.1923 30.0593 56.1947 30.2532 56.2H30.2905C30.3502 56.2 30.4074 56.2024 30.4621 56.2077C30.5218 56.2077 30.579 56.2077 30.6337 56.2077C30.6934 56.2129 30.7506 56.223 30.8053 56.2383C30.86 56.2483 30.9148 56.2612 30.9695 56.2765C31.054 56.3071 31.1237 56.353 31.1784 56.4143C31.2281 56.4807 31.253 56.5544 31.253 56.6362C31.253 56.6615 31.253 56.6921 31.253 56.728C31.253 56.7586 31.248 56.7868 31.238 56.8122C31.2281 56.8681 31.1957 56.9193 31.1411 56.9652C31.1162 57.0011 31.0689 57.0264 30.9993 57.0417C30.9346 57.0623 30.87 57.0747 30.8053 57.08C30.7357 57.0953 30.666 57.103 30.5964 57.103H30.2458L28.8656 57.1106L28.8507 58.6104L30.3353 58.6257H30.686C30.7257 58.6257 30.763 58.6257 30.7979 58.6257C30.8327 58.6257 30.865 58.6281 30.8949 58.6334C30.9346 58.6434 30.9695 58.6511 30.9993 58.6563C31.0341 58.6563 31.0664 58.6616 31.0963 58.6717C31.156 58.6922 31.2057 58.72 31.2455 58.7558C31.2953 58.807 31.3276 58.8606 31.3425 58.9165C31.3475 58.9419 31.3499 58.9701 31.3499 59.0007C31.3549 59.026 31.3549 59.0543 31.3499 59.0849C31.3499 59.1667 31.3251 59.2403 31.2753 59.3068C31.2157 59.378 31.146 59.424 31.0664 59.4445C30.962 59.4904 30.8476 59.5134 30.7233 59.5134C30.6686 59.5187 30.6114 59.521 30.5517 59.521C30.492 59.521 30.4348 59.5234 30.3801 59.5287H30.3353C29.9474 59.5387 29.5445 59.5387 29.1267 59.5287C29.0272 59.5287 28.9476 59.5263 28.888 59.521C28.8283 59.521 28.7736 59.521 28.7238 59.521C28.6791 59.521 28.6318 59.521 28.5821 59.521C28.5323 59.521 28.4677 59.521 28.3881 59.521C28.2737 59.5311 28.1792 59.511 28.1046 59.4598C28.0499 59.424 28.0076 59.3757 27.9778 59.3144C27.9629 59.2991 27.9554 59.2838 27.9554 59.2685C27.9504 59.2585 27.9455 59.2508 27.9405 59.2456C27.9355 59.2403 27.9305 59.2327 27.9255 59.2226C27.9156 59.1973 27.9082 59.1714 27.9032 59.1461C27.8982 59.1155 27.8957 59.0873 27.8957 59.0619C27.8907 59.0366 27.8858 59.0107 27.8808 58.9854C27.8808 58.96 27.8783 58.9342 27.8733 58.9089V58.7864C27.8733 58.7659 27.8733 58.7458 27.8733 58.7252C27.8783 58.7047 27.8808 58.6846 27.8808 58.664V58.0671L27.8957 56.9652V55.9475C27.8957 55.7638 27.8957 55.6007 27.8957 55.4577C27.9007 55.3147 27.9056 55.1593 27.9106 54.991V54.9527C27.9156 54.8966 27.9181 54.8456 27.9181 54.7997C27.9231 54.7486 27.9255 54.6976 27.9255 54.6466C27.9305 54.5446 27.9579 54.4451 28.0076 54.3482C28.0275 54.3074 28.0474 54.2717 28.0673 54.241C28.0922 54.2104 28.1245 54.1849 28.1643 54.1645C28.2389 54.1186 28.316 54.0957 28.3956 54.0957C28.4353 54.0957 28.4652 54.0982 28.4851 54.1033V54.0957C28.5746 54.0957 28.6468 54.0957 28.7014 54.0957C28.7561 54.0957 28.8084 54.0957 28.8581 54.0957C28.9128 54.0957 28.97 54.0957 29.0297 54.0957C29.0894 54.0905 29.1715 54.088 29.2759 54.088C29.4749 54.0829 29.6639 54.0803 29.8429 54.0803C30.022 54.0803 30.206 54.0829 30.395 54.088H30.4248C30.4795 54.0931 30.5367 54.0957 30.5964 54.0957C30.6561 54.0957 30.7133 54.0982 30.768 54.1033C30.8227 54.1033 30.8775 54.111 30.9322 54.1263C30.9869 54.1364 31.0416 54.1518 31.0963 54.1722C31.1808 54.1977 31.2505 54.241 31.3052 54.3023C31.3499 54.3737 31.3723 54.4451 31.3723 54.5165C31.3723 54.5471 31.3723 54.5777 31.3723 54.6083C31.3723 54.6338 31.3673 54.6594 31.3574 54.6849C31.3524 54.7359 31.3226 54.7895 31.2679 54.8456C31.248 54.8558 31.2256 54.8685 31.2007 54.8838C31.1808 54.8991 31.156 54.9119 31.1261 54.9221C31.0963 54.9323 31.064 54.9399 31.0291 54.945C30.9993 54.945 30.9695 54.9476 30.9396 54.9527C30.8998 54.9629 30.8625 54.968 30.8277 54.968C30.7979 54.968 30.763 54.968 30.7233 54.968H30.3875L28.8954 54.9757V54.9986ZM37.8301 56.4219C37.8401 56.5903 37.8376 56.7639 37.8227 56.9423C37.8128 57.1207 37.7953 57.2943 37.7705 57.4626C37.7207 57.7534 37.6287 58.0365 37.4944 58.312C37.3601 58.5875 37.1637 58.8223 36.905 59.016C36.6365 59.2202 36.3306 59.3603 35.9874 59.4369C35.6442 59.5081 35.3035 59.5517 34.9653 59.567C34.8509 59.577 34.734 59.5799 34.6146 59.5746C34.5003 59.5746 34.3884 59.5617 34.2789 59.5363C34.1894 59.521 34.1222 59.4928 34.0775 59.4522C34.0526 59.4369 34.0327 59.4163 34.0178 59.391C34.0029 59.3656 33.9904 59.3398 33.9805 59.3144C33.9656 59.2891 33.9531 59.2633 33.9432 59.2379C33.9382 59.2073 33.9307 59.1767 33.9208 59.1461C33.9158 59.1207 33.9109 59.0978 33.9059 59.0772C33.9059 59.0519 33.9059 59.0289 33.9059 59.0083V54.639C33.9059 54.6032 33.9059 54.5701 33.9059 54.5395C33.9059 54.5089 33.9109 54.4783 33.9208 54.4477C33.9307 54.3762 33.9457 54.3176 33.9656 54.2717C33.9855 54.2104 34.0128 54.1671 34.0476 54.1416C34.0775 54.1161 34.1073 54.0982 34.1372 54.088C34.167 54.0727 34.1944 54.0599 34.2192 54.0497C34.2491 54.0396 34.2789 54.0396 34.3088 54.0497C34.3436 54.0549 34.3809 54.0472 34.4207 54.0268L35.6666 54.0574C35.9948 54.0676 36.2883 54.1467 36.5469 54.2946C36.8056 54.4375 37.0269 54.6211 37.2109 54.8456C37.395 55.07 37.5392 55.3224 37.6436 55.6031C37.7481 55.8786 37.8102 56.1517 37.8301 56.4219ZM36.4425 57.8758C36.537 57.7228 36.6066 57.5468 36.6514 57.3478C36.6961 57.1489 36.7161 56.9475 36.7111 56.7433C36.7061 56.5343 36.6787 56.3325 36.629 56.1388C36.5792 55.9398 36.5096 55.7638 36.4201 55.6108C36.3505 55.4984 36.261 55.4066 36.1515 55.3353C36.0421 55.264 35.9202 55.2105 35.786 55.1746C35.6517 55.1338 35.5074 55.1057 35.3532 55.0904C35.204 55.0751 35.0573 55.0675 34.9131 55.0675C34.9181 55.2153 34.9205 55.3583 34.9205 55.496C34.9205 55.6337 34.9205 55.7791 34.9205 55.9322C34.9155 56.1158 34.9131 56.2942 34.9131 56.4678C34.9131 56.6414 34.9131 56.8098 34.9131 56.9729V58.5339C35.0673 58.5287 35.214 58.521 35.3532 58.511C35.4975 58.4957 35.6343 58.465 35.7636 58.4191C35.8979 58.3732 36.0197 58.3096 36.1291 58.2278C36.2435 58.1413 36.348 58.0236 36.4425 57.8758ZM39.467 54.9986L39.4521 56.2H39.7505C39.9544 56.1947 40.136 56.1923 40.2951 56.1923C40.4543 56.1923 40.6308 56.1947 40.8248 56.2H40.8621C40.9218 56.2 40.979 56.2024 41.0337 56.2077C41.0934 56.2077 41.1506 56.2077 41.2053 56.2077C41.265 56.2129 41.3222 56.223 41.3769 56.2383C41.4316 56.2483 41.4863 56.2612 41.541 56.2765C41.6256 56.3071 41.6952 56.353 41.7499 56.4143C41.7997 56.4807 41.8245 56.5544 41.8245 56.6362C41.8245 56.6615 41.8245 56.6921 41.8245 56.728C41.8245 56.7586 41.8195 56.7868 41.8096 56.8122C41.7997 56.8681 41.7673 56.9193 41.7126 56.9652C41.6878 57.0011 41.6405 57.0264 41.5709 57.0417C41.5062 57.0623 41.4416 57.0747 41.3769 57.08C41.3073 57.0953 41.2376 57.103 41.168 57.103H40.8174L39.4372 57.1106L39.4222 58.6104L40.9069 58.6257H41.2575C41.2973 58.6257 41.3346 58.6257 41.3694 58.6257C41.4043 58.6257 41.4366 58.6281 41.4664 58.6334C41.5062 58.6434 41.541 58.6511 41.5709 58.6563C41.6057 58.6563 41.638 58.6616 41.6679 58.6717C41.7275 58.6922 41.7773 58.72 41.8171 58.7558C41.8668 58.807 41.8991 58.8606 41.9141 58.9165C41.919 58.9419 41.9215 58.9701 41.9215 59.0007C41.9265 59.026 41.9265 59.0543 41.9215 59.0849C41.9215 59.1667 41.8967 59.2403 41.8469 59.3068C41.7872 59.378 41.7176 59.424 41.638 59.4445C41.5336 59.4904 41.4192 59.5134 41.2948 59.5134C41.2401 59.5187 41.1829 59.521 41.1232 59.521C41.0636 59.521 41.0063 59.5234 40.9516 59.5287H40.9069C40.5189 59.5387 40.1161 59.5387 39.6983 59.5287C39.5988 59.5287 39.5192 59.5263 39.4595 59.521C39.3998 59.521 39.3452 59.521 39.2954 59.521C39.2506 59.521 39.2034 59.521 39.1537 59.521C39.1039 59.521 39.0393 59.521 38.9597 59.521C38.8453 59.5311 38.7508 59.511 38.6762 59.4598C38.6215 59.424 38.5792 59.3757 38.5493 59.3144C38.5344 59.2991 38.527 59.2838 38.527 59.2685C38.522 59.2585 38.517 59.2508 38.512 59.2456C38.5071 59.2403 38.5021 59.2327 38.4971 59.2226C38.4872 59.1973 38.4797 59.1714 38.4747 59.1461C38.4698 59.1155 38.4673 59.0873 38.4673 59.0619C38.4623 59.0366 38.4573 59.0107 38.4524 58.9854C38.4524 58.96 38.4499 58.9342 38.4449 58.9089V58.7864C38.4449 58.7659 38.4449 58.7458 38.4449 58.7252C38.4499 58.7047 38.4524 58.6846 38.4524 58.664V58.0671L38.4673 56.9652V55.9475C38.4673 55.7638 38.4673 55.6007 38.4673 55.4577C38.4723 55.3147 38.4772 55.1593 38.4822 54.991V54.9527C38.4872 54.8966 38.4897 54.8456 38.4897 54.7997C38.4946 54.7486 38.4971 54.6976 38.4971 54.6466C38.5021 54.5446 38.5294 54.4451 38.5792 54.3482C38.5991 54.3074 38.619 54.2717 38.6389 54.241C38.6637 54.2104 38.6961 54.1849 38.7359 54.1645C38.8105 54.1186 38.8875 54.0957 38.9671 54.0957C39.0069 54.0957 39.0368 54.0982 39.0567 54.1033V54.0957C39.1462 54.0957 39.2183 54.0957 39.273 54.0957C39.3277 54.0957 39.3799 54.0957 39.4297 54.0957C39.4844 54.0957 39.5416 54.0957 39.6013 54.0957C39.661 54.0905 39.743 54.088 39.8475 54.088C40.0464 54.0829 40.2354 54.0803 40.4145 54.0803C40.5935 54.0803 40.7776 54.0829 40.9666 54.088H40.9964C41.0511 54.0931 41.1083 54.0957 41.168 54.0957C41.2277 54.0957 41.2849 54.0982 41.3396 54.1033C41.3943 54.1033 41.449 54.111 41.5037 54.1263C41.5584 54.1364 41.6132 54.1518 41.6679 54.1722C41.7524 54.1977 41.8221 54.241 41.8768 54.3023C41.9215 54.3737 41.9439 54.4451 41.9439 54.5165C41.9439 54.5471 41.9439 54.5777 41.9439 54.6083C41.9439 54.6338 41.9389 54.6594 41.929 54.6849C41.924 54.7359 41.8941 54.7895 41.8395 54.8456C41.8195 54.8558 41.7972 54.8685 41.7723 54.8838C41.7524 54.8991 41.7275 54.9119 41.6977 54.9221C41.6679 54.9323 41.6355 54.9399 41.6007 54.945C41.5709 54.945 41.541 54.9476 41.5112 54.9527C41.4714 54.9629 41.4341 54.968 41.3993 54.968C41.3694 54.968 41.3346 54.968 41.2948 54.968H40.9591L39.467 54.9757V54.9986ZM47.4169 56.6744C47.5611 56.7715 47.683 56.8863 47.7825 57.0188C47.8869 57.1465 47.969 57.3043 48.0287 57.4932C48.0934 57.7022 48.1257 57.9141 48.1257 58.1283C48.1307 58.3373 48.0934 58.5339 48.0138 58.7176C47.9392 58.896 47.8173 59.0543 47.6482 59.192C47.4841 59.3245 47.2677 59.4192 46.9991 59.4751C46.8549 59.511 46.6858 59.5387 46.4918 59.5593C46.2978 59.5799 46.1238 59.5899 45.9696 59.5899C45.7756 59.5952 45.5742 59.5952 45.3653 59.5899C45.1614 59.5899 44.9624 59.5694 44.7684 59.5287C44.6839 59.5034 44.6217 59.4598 44.5819 59.3986C44.5471 59.3321 44.5222 59.2585 44.5073 59.1767C44.4874 59.1308 44.4775 59.0849 44.4775 59.039V54.6925C44.4775 54.5497 44.5048 54.44 44.5595 54.3635C44.6192 54.2818 44.6963 54.2232 44.7908 54.1875C44.8853 54.1467 44.9922 54.1237 45.1116 54.1186C45.231 54.1084 45.3553 54.1033 45.4846 54.1033C45.5841 54.1033 45.6836 54.1033 45.7831 54.1033C45.8875 54.0982 45.992 54.0982 46.0964 54.1033C46.2605 54.1084 46.4297 54.1237 46.6037 54.1492C46.7828 54.1696 46.9519 54.2104 47.111 54.2717C47.1856 54.2971 47.2652 54.3329 47.3498 54.3788C47.4343 54.4196 47.5015 54.4706 47.5512 54.5318C47.7104 54.6798 47.8273 54.8532 47.9019 55.0522C47.9815 55.2459 48.0162 55.4448 48.0063 55.649C47.9964 55.848 47.9416 56.0393 47.8422 56.223C47.7477 56.4066 47.6059 56.5573 47.4169 56.6744ZM46.1113 58.7023C46.2655 58.6922 46.4222 58.674 46.5813 58.6487C46.7405 58.6233 46.8499 58.5746 46.9096 58.5033C46.9743 58.4215 47.019 58.3273 47.0439 58.2202C47.0737 58.1078 47.0812 57.9959 47.0663 57.8835C47.0563 57.7663 47.024 57.6563 46.9693 57.5544C46.9195 57.4473 46.8524 57.3631 46.7679 57.3019C46.6535 57.2101 46.5217 57.1513 46.3724 57.1259C46.2232 57.0953 46.0765 57.08 45.9323 57.08C45.8627 57.08 45.798 57.0824 45.7383 57.0877C45.6836 57.0877 45.6338 57.0953 45.5891 57.1106C45.5493 57.1207 45.5195 57.1436 45.4996 57.1795C45.4796 57.2153 45.4697 57.2689 45.4697 57.3402C45.4796 57.4727 45.4796 57.6056 45.4697 57.7381C45.4598 57.8706 45.4548 57.9983 45.4548 58.1207C45.4548 58.192 45.4523 58.2713 45.4473 58.3579C45.4473 58.4397 45.4747 58.5086 45.5294 58.5645C45.5841 58.6205 45.6637 58.6587 45.7681 58.6793C45.8726 58.6999 45.987 58.7075 46.1113 58.7023ZM46.2605 55.0292C46.1063 55.0241 45.977 55.0216 45.8726 55.0216C45.7731 55.0164 45.6935 55.0241 45.6338 55.0445C45.5792 55.0598 45.5393 55.0981 45.5145 55.1593C45.4946 55.2153 45.4871 55.3023 45.4921 55.4195C45.4921 55.5166 45.4896 55.6132 45.4846 55.7103C45.4846 55.8021 45.4846 55.8939 45.4846 55.9857C45.4846 56.0876 45.5169 56.1641 45.5816 56.2153C45.6463 56.2612 45.7258 56.2894 45.8204 56.2995C45.9198 56.3095 46.0218 56.3095 46.1262 56.2995C46.2357 56.2894 46.3302 56.2765 46.4097 56.2612C46.5888 56.2306 46.7256 56.1694 46.8201 56.0776C46.9195 55.9805 46.9767 55.8403 46.9917 55.6567C47.0116 55.4271 46.9519 55.2688 46.8126 55.1823C46.6783 55.0904 46.4943 55.0394 46.2605 55.0292ZM53.2335 58.9777C53.2384 59.0084 53.2409 59.039 53.2409 59.0696C53.2459 59.0949 53.2484 59.1255 53.2484 59.1614C53.2484 59.2226 53.231 59.2786 53.1962 59.3297C53.1812 59.3551 53.1614 59.3809 53.1365 59.4063C53.1116 59.4268 53.0818 59.4445 53.0469 59.4598C52.9226 59.5311 52.7908 59.5569 52.6515 59.5363C52.5819 59.5158 52.5198 59.4828 52.465 59.4369C52.4551 59.4268 52.4476 59.4216 52.4426 59.4216C52.4377 59.4163 52.4327 59.4087 52.4277 59.3986C52.4228 59.3933 52.4178 59.3886 52.4128 59.3833C52.4079 59.3733 52.4004 59.3656 52.3904 59.3603C52.3656 59.335 52.3457 59.312 52.3307 59.2915C52.3158 59.2661 52.3009 59.2403 52.286 59.215C52.276 59.1896 52.2636 59.1667 52.2487 59.1461C52.2387 59.1207 52.2263 59.0949 52.2114 59.0696C52.2014 59.049 52.1915 59.0313 52.1815 59.016C52.1716 58.9954 52.1641 58.9753 52.1591 58.9548C52.1393 58.9089 52.1268 58.8682 52.1218 58.8323L51.9652 58.4574C51.622 58.4574 51.2788 58.4598 50.9356 58.465C50.5974 58.465 50.2567 58.4627 49.9135 58.4574L49.7568 58.8323C49.7469 58.8529 49.7394 58.873 49.7345 58.8936C49.7345 58.9141 49.7295 58.9342 49.7195 58.9548C49.7096 58.9753 49.6997 58.9954 49.6897 59.016C49.6847 59.0313 49.6773 59.049 49.6673 59.0696C49.6524 59.0949 49.6375 59.1207 49.6225 59.1461C49.6126 59.1667 49.6002 59.1896 49.5852 59.215C49.5753 59.2403 49.5629 59.2661 49.5479 59.2915C49.533 59.312 49.5132 59.335 49.4883 59.3603C49.4783 59.3656 49.4709 59.3733 49.4659 59.3833C49.4609 59.3886 49.4559 59.3933 49.451 59.3986C49.446 59.4087 49.441 59.4163 49.436 59.4216C49.4311 59.4216 49.4236 59.4268 49.4136 59.4369C49.359 59.4828 49.2968 59.5158 49.2271 59.5363C49.0879 59.5569 48.9561 59.5311 48.8317 59.4598C48.7969 59.4445 48.7671 59.4268 48.7422 59.4063C48.7173 59.3809 48.6974 59.3551 48.6825 59.3297C48.6477 59.2786 48.6303 59.2226 48.6303 59.1614C48.6303 59.1255 48.6303 59.0949 48.6303 59.0696C48.6353 59.039 48.6403 59.0084 48.6452 58.9777C48.6552 58.9318 48.6676 58.8859 48.6825 58.84C48.6974 58.7941 48.7049 58.7711 48.7049 58.7711L50.2567 54.8532L50.3015 54.7308C50.3114 54.7002 50.3238 54.6721 50.3388 54.6466C50.3537 54.6211 50.3661 54.5905 50.3761 54.5548C50.401 54.4884 50.4283 54.4298 50.4581 54.3788C50.473 54.3482 50.4905 54.3201 50.5104 54.2946C50.5303 54.2691 50.5502 54.2436 50.57 54.2181C50.5999 54.1773 50.6422 54.1441 50.6969 54.1186C50.7665 54.0931 50.8461 54.0803 50.9356 54.0803C51.0301 54.0803 51.1122 54.0931 51.1818 54.1186C51.2365 54.1441 51.2788 54.1773 51.3086 54.2181C51.3435 54.264 51.3808 54.3176 51.4205 54.3788C51.4504 54.4298 51.4778 54.4884 51.5026 54.5548C51.5126 54.5905 51.525 54.6211 51.5399 54.6466C51.5548 54.6721 51.5673 54.7002 51.5772 54.7308L51.622 54.8532L53.1738 58.7711C53.1738 58.7711 53.1812 58.7941 53.1962 58.84C53.2111 58.8859 53.2235 58.9318 53.2335 58.9777ZM51.4653 57.103C51.4007 56.9552 51.3335 56.8021 51.2639 56.6438C51.1992 56.4855 51.1296 56.3248 51.055 56.1617C51.0351 56.1158 51.0152 56.0699 50.9953 56.024C50.9754 55.9728 50.9555 55.9245 50.9356 55.8786C50.9207 55.9245 50.9033 55.9728 50.8834 56.024C50.8635 56.0699 50.8436 56.1158 50.8237 56.1617C50.7491 56.3248 50.677 56.4855 50.6073 56.6438C50.5427 56.8021 50.478 56.9552 50.4134 57.103L50.2791 57.4397H51.5996L51.4653 57.103ZM54.0781 58.687L54.0856 58.0824L54.0931 56.9576C54.098 56.7945 54.1005 56.6261 54.1005 56.4525C54.1005 56.2789 54.1005 56.1005 54.1005 55.9169C54.1005 55.7332 54.1005 55.5701 54.1005 55.4271C54.1005 55.2841 54.1055 55.1236 54.1154 54.945V54.9144C54.1204 54.8634 54.1229 54.8124 54.1229 54.7614C54.1279 54.7053 54.1304 54.6491 54.1304 54.593C54.1353 54.5012 54.1627 54.4017 54.2124 54.2946C54.2473 54.2232 54.2995 54.162 54.3691 54.111C54.4487 54.0702 54.5258 54.0497 54.6004 54.0497C54.6402 54.0497 54.675 54.0523 54.7048 54.0574C54.7397 54.0574 54.772 54.0599 54.8018 54.065C54.8665 54.0752 54.9237 54.1058 54.9734 54.1569C55.0032 54.1824 55.0306 54.2232 55.0555 54.2793C55.0654 54.3099 55.0729 54.3405 55.0778 54.3711C55.0878 54.3966 55.0953 54.4247 55.1002 54.4553C55.1052 54.491 55.1077 54.5242 55.1077 54.5548C55.1127 54.5854 55.1152 54.616 55.1152 54.6466C55.1152 54.6823 55.1127 54.7155 55.1077 54.7461C55.1077 54.7716 55.1077 54.7997 55.1077 54.8303V54.9603L55.0629 58.9318V59.0083C55.0629 59.0237 55.0605 59.0442 55.0555 59.0696C55.0555 59.0901 55.053 59.1155 55.048 59.1461C55.0381 59.1714 55.0281 59.1997 55.0182 59.2303C55.0132 59.2556 55.0058 59.2838 54.9958 59.3144C54.9809 59.3398 54.9635 59.3656 54.9436 59.391C54.9286 59.4115 54.9088 59.4316 54.8839 59.4522C54.8441 59.4928 54.7794 59.521 54.6899 59.5363C54.5556 59.567 54.4288 59.554 54.3094 59.4981C54.2497 59.4574 54.2075 59.4063 54.1826 59.345C54.1677 59.3297 54.1602 59.3144 54.1602 59.2991C54.1553 59.2891 54.1503 59.2814 54.1453 59.2762C54.1403 59.2709 54.1353 59.2633 54.1304 59.2532C54.1204 59.2279 54.113 59.202 54.108 59.1767C54.103 59.1461 54.1005 59.1155 54.1005 59.0849C54.0956 59.0595 54.0906 59.0337 54.0856 59.0083C54.0856 58.983 54.0831 58.9572 54.0781 58.9318C54.0732 58.8912 54.0732 58.8477 54.0781 58.8017V58.687ZM59.9965 58.9165C59.9914 59.0031 59.9788 59.0949 59.9592 59.192C59.9443 59.2891 59.8967 59.368 59.8175 59.4292C59.7578 59.4804 59.6906 59.511 59.616 59.521C59.5414 59.5311 59.4668 59.5263 59.3922 59.5057C59.3223 59.4904 59.2551 59.4651 59.1908 59.4292C59.126 59.3886 59.0737 59.3398 59.0341 59.2838C58.8648 59.0696 58.7082 58.85 58.5641 58.6257C58.4247 58.3962 58.2829 58.1666 58.1388 57.937L57.5121 56.9652C57.4273 56.8275 57.3377 56.6744 57.2436 56.5061C57.1489 56.3325 57.0519 56.1718 56.9526 56.024L56.9302 58.9471V59.016C56.9302 59.0978 56.9153 59.1791 56.8855 59.2609C56.8603 59.3374 56.8155 59.4039 56.7512 59.4598C56.7013 59.5005 56.6365 59.5287 56.5572 59.544C56.4327 59.5693 56.3282 59.5617 56.2438 59.521C56.1642 59.4804 56.0995 59.424 56.0498 59.3527C56.005 59.2814 55.9727 59.1997 55.9528 59.1078C55.9379 59.0107 55.9354 58.9165 55.9453 58.8247V58.6946L55.9602 58.0977L55.9677 56.9882C55.9727 56.8251 55.9752 56.6591 55.9752 56.4908C55.9752 56.3172 55.9752 56.1412 55.9752 55.9628C55.9702 55.7433 55.9702 55.5113 55.9752 55.2664C55.9851 55.0216 55.9951 54.792 56.005 54.5777C56.0149 54.4604 56.0423 54.3609 56.0871 54.2793C56.107 54.2079 56.1592 54.1467 56.2438 54.0957C56.2984 54.0599 56.3679 54.037 56.4527 54.0268C56.5423 54.0166 56.6192 54.0191 56.684 54.0344C56.7087 54.0446 56.7334 54.0574 56.7586 54.0727C56.7833 54.0829 56.808 54.0957 56.8332 54.111C56.8579 54.1314 56.8803 54.1518 56.9004 54.1722C56.9251 54.1926 56.9475 54.2156 56.9675 54.241C56.9922 54.2665 57.0146 54.2946 57.0347 54.3252C57.0542 54.3507 57.0743 54.3762 57.0943 54.4017C57.1093 54.4323 57.1242 54.4604 57.1391 54.4859C57.154 54.5114 57.1713 54.5369 57.1913 54.5624L57.2734 54.6849L58.9968 57.4703V56.9652C58.9968 56.8021 58.994 56.6362 58.9893 56.4678C58.9893 56.2942 58.9865 56.1158 58.9819 55.9322C58.9819 55.7179 58.9819 55.4883 58.9819 55.2435C58.9865 54.9986 58.994 54.769 59.0043 54.5548C59.0043 54.4681 59.029 54.3686 59.0789 54.2563C59.1036 54.19 59.146 54.1364 59.2057 54.0957C59.2654 54.0549 59.3325 54.0268 59.4071 54.0115C59.4817 53.9962 59.5563 53.9962 59.6309 54.0115C59.7055 54.0268 59.7699 54.0574 59.8249 54.1033C59.8398 54.1186 59.8548 54.1364 59.8697 54.1569C59.8846 54.1773 59.8967 54.2002 59.907 54.2257C59.9317 54.2921 59.9466 54.3507 59.9517 54.4017C59.9667 54.4731 59.9741 54.5369 59.9741 54.593C59.9741 55.2306 59.9741 55.881 59.9741 56.5443C59.9788 57.2077 59.9839 57.8581 59.989 58.4957C59.989 58.5669 59.9914 58.6387 59.9965 58.7099C60.0012 58.7764 60.0012 58.8453 59.9965 58.9165Z" fill="white"/>
</svg>
