<svg width="111" height="122" viewBox="0 0 111 122" fill="none" xmlns="http://www.w3.org/2000/svg">
<g clip-path="url(#clip0)">
<path d="M91.9599 55.2791C91.9599 53.7129 90.8504 52.443 89.482 52.443H13.5179C12.1495 52.443 11.04 53.7129 11.04 55.2791C11.04 68.0788 18.113 79.0218 28.02 83.261C26.1143 85.554 24.9356 88.6983 24.9356 92.1639C24.9356 93.7301 26.045 95 27.4134 95C28.7818 95 29.8913 93.7301 29.8913 92.1639C29.8913 88.2914 32.4728 85.1408 35.6463 85.1408C35.7629 85.1408 35.8765 85.1284 35.9888 85.1106C36.3674 85.1293 36.7475 85.1408 37.1299 85.1408H65.8701C66.2525 85.1408 66.6327 85.1293 67.0112 85.1106C67.1236 85.1284 67.2372 85.1408 67.3538 85.1408C70.5272 85.1408 73.109 88.2912 73.109 92.1639C73.109 93.7301 74.2184 95 75.5868 95C76.9552 95 78.0646 93.7301 78.0646 92.1639C78.0646 88.6985 76.8858 85.5542 74.9802 83.261C84.887 79.022 91.9599 68.0787 91.9599 55.2791Z" fill="#FAFAFA"/>
<path d="M72.4879 0C65.8518 0 60.4529 6.17945 60.4529 13.775V18.9451C60.4529 20.5113 61.5624 21.7812 62.9307 21.7812C64.2991 21.7812 65.4086 20.5113 65.4086 18.9451V13.775C65.4086 9.30703 68.5843 5.67217 72.4879 5.67217C76.3915 5.67217 79.5672 9.30703 79.5672 13.775V46.7706H84.5229V13.775C84.523 6.17945 79.124 0 72.4879 0Z" fill="#FAFAFA"/>
<path d="M62.9307 26.135C61.5624 26.135 60.4529 27.4049 60.4529 28.9711V31.429C60.4529 32.9952 61.5624 34.2651 62.9307 34.2651C64.2991 34.2651 65.4086 32.9952 65.4086 31.429V28.9711C65.4086 27.4047 64.2991 26.135 62.9307 26.135Z" fill="#FAFAFA"/>
<path d="M62.9307 38.6407C61.5624 38.6407 60.4529 39.9106 60.4529 41.4768V43.9348C60.4529 45.501 61.5624 46.7709 62.9307 46.7709C64.2991 46.7709 65.4086 45.501 65.4086 43.9348V41.4768C65.4086 39.9106 64.2991 38.6407 62.9307 38.6407Z" fill="#FAFAFA"/>
</g>
<path d="M10.1702 107.344C10.2235 107.493 10.2609 107.664 10.2822 107.856C10.3142 108.037 10.3302 108.224 10.3302 108.416C10.3302 108.608 10.3142 108.8 10.2822 108.992C10.2609 109.173 10.2289 109.333 10.1862 109.472C10.0155 110.069 9.67419 110.571 9.16219 110.976C8.65019 111.371 8.06352 111.659 7.40219 111.84C6.75152 112.021 6.07419 112.085 5.37019 112.032C4.67685 111.979 4.05819 111.803 3.51419 111.504C3.17285 111.312 2.87952 111.077 2.63419 110.8C2.38885 110.523 2.18085 110.213 2.01019 109.872C1.94619 109.755 1.90352 109.621 1.88219 109.472C1.87152 109.312 1.88752 109.163 1.93019 109.024C1.97285 108.875 2.04219 108.747 2.13819 108.64C2.23419 108.523 2.36752 108.443 2.53819 108.4C2.64485 108.379 2.76219 108.368 2.89019 108.368C3.02885 108.368 3.16219 108.389 3.29019 108.432C3.41819 108.464 3.53552 108.523 3.64219 108.608C3.74885 108.683 3.83419 108.789 3.89819 108.928C4.01552 109.152 4.18085 109.36 4.39419 109.552C4.61819 109.733 4.85285 109.883 5.09819 110C5.45019 110.117 5.80219 110.165 6.15419 110.144C6.51685 110.123 6.84219 110.043 7.13019 109.904C7.42885 109.765 7.66885 109.579 7.85019 109.344C8.03152 109.099 8.12219 108.821 8.12219 108.512C8.12219 108.256 8.08485 108.048 8.01019 107.888C7.93552 107.717 7.82885 107.579 7.69019 107.472C7.56219 107.355 7.40219 107.259 7.21019 107.184C7.02885 107.109 6.82619 107.045 6.60219 106.992C6.34619 106.939 6.08485 106.901 5.81819 106.88C5.56219 106.859 5.30085 106.832 5.03419 106.8C4.76752 106.768 4.50619 106.725 4.25019 106.672C3.99419 106.619 3.74352 106.539 3.49819 106.432C3.00752 106.229 2.63419 105.92 2.37819 105.504C2.12219 105.088 1.96752 104.64 1.91419 104.16C1.87152 103.68 1.93019 103.205 2.09019 102.736C2.25019 102.256 2.50619 101.845 2.85819 101.504C3.19952 101.195 3.60485 100.976 4.07419 100.848C4.55419 100.709 5.08219 100.629 5.65819 100.608C5.97819 100.597 6.29819 100.608 6.61819 100.64C6.94885 100.672 7.26352 100.725 7.56219 100.8C7.87152 100.875 8.15419 100.971 8.41019 101.088C8.67685 101.205 8.90619 101.344 9.09819 101.504C9.23685 101.611 9.37552 101.755 9.51419 101.936C9.65285 102.107 9.75952 102.293 9.83419 102.496C9.90885 102.688 9.93019 102.875 9.89819 103.056C9.87685 103.237 9.76485 103.392 9.56219 103.52C9.39152 103.627 9.22619 103.675 9.06619 103.664C8.91685 103.643 8.77285 103.595 8.63419 103.52C8.49552 103.435 8.36219 103.339 8.23419 103.232C8.10619 103.125 7.98885 103.029 7.88219 102.944C7.59419 102.731 7.23685 102.587 6.81019 102.512C6.38352 102.437 5.98352 102.421 5.61019 102.464C5.37552 102.496 5.15685 102.549 4.95419 102.624C4.75152 102.699 4.57552 102.8 4.42619 102.928C4.28752 103.056 4.17552 103.216 4.09019 103.408C4.01552 103.589 3.98885 103.797 4.01019 104.032C4.02085 104.203 4.06885 104.347 4.15419 104.464C4.25019 104.581 4.36219 104.677 4.49019 104.752C4.62885 104.827 4.77819 104.885 4.93819 104.928C5.09819 104.971 5.25819 105.003 5.41819 105.024C5.89819 105.088 6.37819 105.136 6.85819 105.168C7.33819 105.2 7.80752 105.307 8.26619 105.488C8.73552 105.669 9.13552 105.915 9.46619 106.224C9.79685 106.533 10.0315 106.907 10.1702 107.344ZM21.4886 110.912C21.4992 110.976 21.5046 111.04 21.5046 111.104C21.5152 111.157 21.5206 111.221 21.5206 111.296C21.5206 111.424 21.4832 111.541 21.4086 111.648C21.3766 111.701 21.3339 111.755 21.2806 111.808C21.2272 111.851 21.1632 111.888 21.0886 111.92C20.8219 112.069 20.5392 112.123 20.2406 112.08C20.0912 112.037 19.9579 111.968 19.8406 111.872C19.8192 111.851 19.8032 111.84 19.7926 111.84C19.7819 111.829 19.7712 111.813 19.7606 111.792C19.7499 111.781 19.7392 111.771 19.7286 111.76C19.7179 111.739 19.7019 111.723 19.6806 111.712C19.6272 111.659 19.5846 111.611 19.5526 111.568C19.5206 111.515 19.4886 111.461 19.4566 111.408C19.4352 111.355 19.4086 111.307 19.3766 111.264C19.3552 111.211 19.3286 111.157 19.2966 111.104C19.2752 111.061 19.2539 111.024 19.2326 110.992C19.2112 110.949 19.1952 110.907 19.1846 110.864C19.1419 110.768 19.1152 110.683 19.1046 110.608L18.7686 109.824C18.0326 109.824 17.2966 109.829 16.5606 109.84C15.8352 109.84 15.1046 109.835 14.3686 109.824L14.0326 110.608C14.0112 110.651 13.9952 110.693 13.9846 110.736C13.9846 110.779 13.9739 110.821 13.9526 110.864C13.9312 110.907 13.9099 110.949 13.8886 110.992C13.8779 111.024 13.8619 111.061 13.8406 111.104C13.8086 111.157 13.7766 111.211 13.7446 111.264C13.7232 111.307 13.6966 111.355 13.6646 111.408C13.6432 111.461 13.6166 111.515 13.5846 111.568C13.5526 111.611 13.5099 111.659 13.4566 111.712C13.4352 111.723 13.4192 111.739 13.4086 111.76C13.3979 111.771 13.3872 111.781 13.3766 111.792C13.3659 111.813 13.3552 111.829 13.3446 111.84C13.3339 111.84 13.3179 111.851 13.2966 111.872C13.1792 111.968 13.0459 112.037 12.8966 112.08C12.5979 112.123 12.3152 112.069 12.0486 111.92C11.9739 111.888 11.9099 111.851 11.8566 111.808C11.8032 111.755 11.7606 111.701 11.7286 111.648C11.6539 111.541 11.6166 111.424 11.6166 111.296C11.6166 111.221 11.6166 111.157 11.6166 111.104C11.6272 111.04 11.6379 110.976 11.6486 110.912C11.6699 110.816 11.6966 110.72 11.7286 110.624C11.7606 110.528 11.7766 110.48 11.7766 110.48L15.1046 102.288L15.2006 102.032C15.2219 101.968 15.2486 101.909 15.2806 101.856C15.3126 101.803 15.3392 101.739 15.3606 101.664C15.4139 101.525 15.4726 101.403 15.5366 101.296C15.5686 101.232 15.6059 101.173 15.6486 101.12C15.6912 101.067 15.7339 101.013 15.7766 100.96C15.8406 100.875 15.9312 100.805 16.0486 100.752C16.1979 100.699 16.3686 100.672 16.5606 100.672C16.7632 100.672 16.9392 100.699 17.0886 100.752C17.2059 100.805 17.2966 100.875 17.3606 100.96C17.4352 101.056 17.5152 101.168 17.6006 101.296C17.6646 101.403 17.7232 101.525 17.7766 101.664C17.7979 101.739 17.8246 101.803 17.8566 101.856C17.8886 101.909 17.9152 101.968 17.9366 102.032L18.0326 102.288L21.3606 110.48C21.3606 110.48 21.3766 110.528 21.4086 110.624C21.4406 110.72 21.4672 110.816 21.4886 110.912ZM17.6966 106.992C17.5579 106.683 17.4139 106.363 17.2646 106.032C17.1259 105.701 16.9766 105.365 16.8166 105.024C16.7739 104.928 16.7312 104.832 16.6886 104.736C16.6459 104.629 16.6032 104.528 16.5606 104.432C16.5286 104.528 16.4912 104.629 16.4486 104.736C16.4059 104.832 16.3632 104.928 16.3206 105.024C16.1606 105.365 16.0059 105.701 15.8566 106.032C15.7179 106.363 15.5792 106.683 15.4406 106.992L15.1526 107.696H17.9846L17.6966 106.992ZM30.1961 110.784C30.2174 110.837 30.2281 110.917 30.2281 111.024C30.2281 111.12 30.2281 111.2 30.2281 111.264C30.2281 111.349 30.2121 111.429 30.1801 111.504C30.1481 111.579 30.1054 111.648 30.0521 111.712C29.9561 111.84 29.8174 111.936 29.6361 112C29.3801 112.085 29.1401 112.128 28.9161 112.128C28.7987 112.139 28.6761 112.144 28.5481 112.144C28.4201 112.144 28.2921 112.155 28.1641 112.176H28.1001C27.2787 112.187 26.4307 112.187 25.5561 112.176C25.3427 112.165 25.1027 112.165 24.8361 112.176C24.5694 112.197 24.3081 112.192 24.0521 112.16C23.7961 112.139 23.5614 112.08 23.3481 111.984C23.1454 111.877 23.0014 111.712 22.9161 111.488C22.8947 111.435 22.8787 111.387 22.8681 111.344C22.8574 111.291 22.8521 111.237 22.8521 111.184C22.8094 110.821 22.7934 110.464 22.8041 110.112C22.8147 109.76 22.8201 109.413 22.8201 109.072L22.8521 106.752V104.608C22.8521 104.224 22.8521 103.883 22.8521 103.584C22.8627 103.285 22.8734 102.955 22.8841 102.592V102.512C22.8947 102.405 22.9001 102.299 22.9001 102.192C22.9107 102.085 22.9161 101.979 22.9161 101.872C22.9374 101.627 22.9961 101.419 23.0921 101.248C23.1561 101.088 23.2681 100.96 23.4281 100.864C23.5667 100.768 23.7321 100.72 23.9241 100.72C23.9987 100.72 24.0681 100.725 24.1321 100.736C24.2067 100.736 24.2761 100.741 24.3401 100.752C24.4041 100.763 24.4627 100.784 24.5161 100.816C24.5801 100.848 24.6441 100.891 24.7081 100.944C24.7721 101.019 24.8307 101.109 24.8841 101.216C24.9267 101.333 24.9534 101.451 24.9641 101.568C24.9747 101.643 24.9854 101.712 24.9961 101.776C25.0067 101.84 25.0121 101.904 25.0121 101.968C24.9907 102.032 24.9801 102.096 24.9801 102.16C24.9801 102.224 24.9801 102.283 24.9801 102.336V102.624L24.9161 110.16L28.0841 110.192H28.8361C28.9001 110.192 28.9694 110.197 29.0441 110.208C29.1187 110.208 29.1934 110.213 29.2681 110.224C29.3534 110.235 29.4281 110.245 29.4921 110.256C29.5561 110.267 29.6201 110.283 29.6841 110.304C29.8014 110.336 29.8974 110.389 29.9721 110.464C30.0894 110.571 30.1641 110.677 30.1961 110.784ZM38.8992 110.784C38.9205 110.837 38.9312 110.917 38.9312 111.024C38.9312 111.12 38.9312 111.2 38.9312 111.264C38.9312 111.349 38.9152 111.429 38.8832 111.504C38.8512 111.579 38.8085 111.648 38.7552 111.712C38.6592 111.84 38.5205 111.936 38.3392 112C38.0832 112.085 37.8432 112.128 37.6192 112.128C37.5019 112.139 37.3792 112.144 37.2512 112.144C37.1232 112.144 36.9952 112.155 36.8672 112.176H36.8032C35.9819 112.187 35.1339 112.187 34.2592 112.176C34.0459 112.165 33.8059 112.165 33.5392 112.176C33.2725 112.197 33.0112 112.192 32.7552 112.16C32.4992 112.139 32.2645 112.08 32.0512 111.984C31.8485 111.877 31.7045 111.712 31.6192 111.488C31.5979 111.435 31.5819 111.387 31.5712 111.344C31.5605 111.291 31.5552 111.237 31.5552 111.184C31.5125 110.821 31.4965 110.464 31.5072 110.112C31.5179 109.76 31.5232 109.413 31.5232 109.072L31.5552 106.752V104.608C31.5552 104.224 31.5552 103.883 31.5552 103.584C31.5659 103.285 31.5765 102.955 31.5872 102.592V102.512C31.5979 102.405 31.6032 102.299 31.6032 102.192C31.6139 102.085 31.6192 101.979 31.6192 101.872C31.6405 101.627 31.6992 101.419 31.7952 101.248C31.8592 101.088 31.9712 100.96 32.1312 100.864C32.2699 100.768 32.4352 100.72 32.6272 100.72C32.7019 100.72 32.7712 100.725 32.8352 100.736C32.9099 100.736 32.9792 100.741 33.0432 100.752C33.1072 100.763 33.1659 100.784 33.2192 100.816C33.2832 100.848 33.3472 100.891 33.4112 100.944C33.4752 101.019 33.5339 101.109 33.5872 101.216C33.6299 101.333 33.6565 101.451 33.6672 101.568C33.6779 101.643 33.6885 101.712 33.6992 101.776C33.7099 101.84 33.7152 101.904 33.7152 101.968C33.6939 102.032 33.6832 102.096 33.6832 102.16C33.6832 102.224 33.6832 102.283 33.6832 102.336V102.624L33.6192 110.16L36.7872 110.192H37.5392C37.6032 110.192 37.6725 110.197 37.7472 110.208C37.8219 110.208 37.8965 110.213 37.9712 110.224C38.0565 110.235 38.1312 110.245 38.1952 110.256C38.2592 110.267 38.3232 110.283 38.3872 110.304C38.5045 110.336 38.6005 110.389 38.6752 110.464C38.7925 110.571 38.8672 110.677 38.8992 110.784ZM42.4023 102.592L42.3703 105.104H43.0103C43.4476 105.093 43.837 105.088 44.1783 105.088C44.5196 105.088 44.8983 105.093 45.3143 105.104H45.3943C45.5223 105.104 45.645 105.109 45.7623 105.12C45.8903 105.12 46.013 105.12 46.1303 105.12C46.2583 105.131 46.381 105.152 46.4983 105.184C46.6156 105.205 46.733 105.232 46.8503 105.264C47.0316 105.328 47.181 105.424 47.2983 105.552C47.405 105.691 47.4583 105.845 47.4583 106.016C47.4583 106.069 47.4583 106.133 47.4583 106.208C47.4583 106.272 47.4476 106.331 47.4263 106.384C47.405 106.501 47.3356 106.608 47.2183 106.704C47.165 106.779 47.0636 106.832 46.9143 106.864C46.7756 106.907 46.637 106.933 46.4983 106.944C46.349 106.976 46.1996 106.992 46.0503 106.992H45.2983L42.3383 107.008L42.3063 110.144L45.4903 110.176H46.2423C46.3276 110.176 46.4076 110.176 46.4823 110.176C46.557 110.176 46.6263 110.181 46.6903 110.192C46.7756 110.213 46.8503 110.229 46.9143 110.24C46.989 110.24 47.0583 110.251 47.1223 110.272C47.2503 110.315 47.357 110.373 47.4423 110.448C47.549 110.555 47.6183 110.667 47.6503 110.784C47.661 110.837 47.6663 110.896 47.6663 110.96C47.677 111.013 47.677 111.072 47.6663 111.136C47.6663 111.307 47.613 111.461 47.5063 111.6C47.3783 111.749 47.229 111.845 47.0583 111.888C46.8343 111.984 46.589 112.032 46.3223 112.032C46.205 112.043 46.0823 112.048 45.9543 112.048C45.8263 112.048 45.7036 112.053 45.5863 112.064H45.4903C44.6583 112.085 43.7943 112.085 42.8983 112.064C42.685 112.064 42.5143 112.059 42.3863 112.048C42.2583 112.048 42.141 112.048 42.0343 112.048C41.9383 112.048 41.837 112.048 41.7303 112.048C41.6236 112.048 41.485 112.048 41.3143 112.048C41.069 112.069 40.8663 112.027 40.7063 111.92C40.589 111.845 40.4983 111.744 40.4343 111.616C40.4023 111.584 40.3863 111.552 40.3863 111.52C40.3756 111.499 40.365 111.483 40.3543 111.472C40.3436 111.461 40.333 111.445 40.3223 111.424C40.301 111.371 40.285 111.317 40.2743 111.264C40.2636 111.2 40.2583 111.141 40.2583 111.088C40.2476 111.035 40.237 110.981 40.2263 110.928C40.2263 110.875 40.221 110.821 40.2103 110.768V110.512C40.2103 110.469 40.2103 110.427 40.2103 110.384C40.221 110.341 40.2263 110.299 40.2263 110.256V109.008L40.2583 106.704V104.576C40.2583 104.192 40.2583 103.851 40.2583 103.552C40.269 103.253 40.2796 102.928 40.2903 102.576V102.496C40.301 102.379 40.3063 102.272 40.3063 102.176C40.317 102.069 40.3223 101.963 40.3223 101.856C40.333 101.643 40.3916 101.435 40.4983 101.232C40.541 101.147 40.5836 101.072 40.6263 101.008C40.6796 100.944 40.749 100.891 40.8343 100.848C40.9943 100.752 41.1596 100.704 41.3303 100.704C41.4156 100.704 41.4796 100.709 41.5223 100.72V100.704C41.7143 100.704 41.869 100.704 41.9863 100.704C42.1036 100.704 42.2156 100.704 42.3223 100.704C42.4396 100.704 42.5623 100.704 42.6903 100.704C42.8183 100.693 42.9943 100.688 43.2183 100.688C43.645 100.677 44.0503 100.672 44.4343 100.672C44.8183 100.672 45.213 100.677 45.6183 100.688H45.6823C45.7996 100.699 45.9223 100.704 46.0503 100.704C46.1783 100.704 46.301 100.709 46.4183 100.72C46.5356 100.72 46.653 100.736 46.7703 100.768C46.8876 100.789 47.005 100.821 47.1223 100.864C47.3036 100.917 47.453 101.008 47.5703 101.136C47.6663 101.285 47.7143 101.435 47.7143 101.584C47.7143 101.648 47.7143 101.712 47.7143 101.776C47.7143 101.829 47.7036 101.883 47.6823 101.936C47.6716 102.043 47.6076 102.155 47.4903 102.272C47.4476 102.293 47.3996 102.32 47.3463 102.352C47.3036 102.384 47.2503 102.411 47.1863 102.432C47.1223 102.453 47.053 102.469 46.9783 102.48C46.9143 102.48 46.8503 102.485 46.7863 102.496C46.701 102.517 46.621 102.528 46.5463 102.528C46.4823 102.528 46.4076 102.528 46.3223 102.528H45.6023L42.4023 102.544V102.592ZM61.5638 105.568C61.5851 105.92 61.5798 106.283 61.5478 106.656C61.5265 107.029 61.4891 107.392 61.4358 107.744C61.3291 108.352 61.1318 108.944 60.8438 109.52C60.5558 110.096 60.1345 110.587 59.5798 110.992C59.0038 111.419 58.3478 111.712 57.6118 111.872C56.8758 112.021 56.1451 112.112 55.4198 112.144C55.1745 112.165 54.9238 112.171 54.6678 112.16C54.4225 112.16 54.1825 112.133 53.9478 112.08C53.7558 112.048 53.6118 111.989 53.5158 111.904C53.4625 111.872 53.4198 111.829 53.3878 111.776C53.3558 111.723 53.3291 111.669 53.3078 111.616C53.2758 111.563 53.2491 111.509 53.2278 111.456C53.2171 111.392 53.2011 111.328 53.1798 111.264C53.1691 111.211 53.1585 111.163 53.1478 111.12C53.1478 111.067 53.1478 111.019 53.1478 110.976V101.84C53.1478 101.765 53.1478 101.696 53.1478 101.632C53.1478 101.568 53.1585 101.504 53.1798 101.44C53.2011 101.291 53.2331 101.168 53.2758 101.072C53.3185 100.944 53.3771 100.853 53.4518 100.8C53.5158 100.747 53.5798 100.709 53.6438 100.688C53.7078 100.656 53.7665 100.629 53.8198 100.608C53.8838 100.587 53.9478 100.587 54.0118 100.608C54.0865 100.619 54.1665 100.603 54.2518 100.56L56.9238 100.624C57.6278 100.645 58.2571 100.811 58.8118 101.12C59.3665 101.419 59.8411 101.803 60.2358 102.272C60.6305 102.741 60.9398 103.269 61.1638 103.856C61.3878 104.432 61.5211 105.003 61.5638 105.568ZM58.5878 108.608C58.7905 108.288 58.9398 107.92 59.0358 107.504C59.1318 107.088 59.1745 106.667 59.1638 106.24C59.1531 105.803 59.0945 105.381 58.9878 104.976C58.8811 104.56 58.7318 104.192 58.5398 103.872C58.3905 103.637 58.1985 103.445 57.9638 103.296C57.7291 103.147 57.4678 103.035 57.1798 102.96C56.8918 102.875 56.5825 102.816 56.2518 102.784C55.9318 102.752 55.6171 102.736 55.3078 102.736C55.3185 103.045 55.3238 103.344 55.3238 103.632C55.3238 103.92 55.3238 104.224 55.3238 104.544C55.3131 104.928 55.3078 105.301 55.3078 105.664C55.3078 106.027 55.3078 106.379 55.3078 106.72V109.984C55.6385 109.973 55.9531 109.957 56.2518 109.936C56.5611 109.904 56.8545 109.84 57.1318 109.744C57.4198 109.648 57.6811 109.515 57.9158 109.344C58.1611 109.163 58.3851 108.917 58.5878 108.608ZM65.0742 102.592L65.0422 105.104H65.6822C66.1195 105.093 66.5089 105.088 66.8502 105.088C67.1915 105.088 67.5702 105.093 67.9862 105.104H68.0662C68.1942 105.104 68.3169 105.109 68.4342 105.12C68.5622 105.12 68.6849 105.12 68.8022 105.12C68.9302 105.131 69.0529 105.152 69.1702 105.184C69.2875 105.205 69.4049 105.232 69.5222 105.264C69.7035 105.328 69.8529 105.424 69.9702 105.552C70.0769 105.691 70.1302 105.845 70.1302 106.016C70.1302 106.069 70.1302 106.133 70.1302 106.208C70.1302 106.272 70.1195 106.331 70.0982 106.384C70.0769 106.501 70.0075 106.608 69.8902 106.704C69.8369 106.779 69.7355 106.832 69.5862 106.864C69.4475 106.907 69.3089 106.933 69.1702 106.944C69.0209 106.976 68.8715 106.992 68.7222 106.992H67.9702L65.0102 107.008L64.9782 110.144L68.1622 110.176H68.9142C68.9995 110.176 69.0795 110.176 69.1542 110.176C69.2289 110.176 69.2982 110.181 69.3622 110.192C69.4475 110.213 69.5222 110.229 69.5862 110.24C69.6609 110.24 69.7302 110.251 69.7942 110.272C69.9222 110.315 70.0289 110.373 70.1142 110.448C70.2209 110.555 70.2902 110.667 70.3222 110.784C70.3329 110.837 70.3382 110.896 70.3382 110.96C70.3489 111.013 70.3489 111.072 70.3382 111.136C70.3382 111.307 70.2849 111.461 70.1782 111.6C70.0502 111.749 69.9009 111.845 69.7302 111.888C69.5062 111.984 69.2609 112.032 68.9942 112.032C68.8769 112.043 68.7542 112.048 68.6262 112.048C68.4982 112.048 68.3755 112.053 68.2582 112.064H68.1622C67.3302 112.085 66.4662 112.085 65.5702 112.064C65.3569 112.064 65.1862 112.059 65.0582 112.048C64.9302 112.048 64.8129 112.048 64.7062 112.048C64.6102 112.048 64.5089 112.048 64.4022 112.048C64.2955 112.048 64.1569 112.048 63.9862 112.048C63.7409 112.069 63.5382 112.027 63.3782 111.92C63.2609 111.845 63.1702 111.744 63.1062 111.616C63.0742 111.584 63.0582 111.552 63.0582 111.52C63.0475 111.499 63.0369 111.483 63.0262 111.472C63.0155 111.461 63.0049 111.445 62.9942 111.424C62.9729 111.371 62.9569 111.317 62.9462 111.264C62.9355 111.2 62.9302 111.141 62.9302 111.088C62.9195 111.035 62.9089 110.981 62.8982 110.928C62.8982 110.875 62.8929 110.821 62.8822 110.768V110.512C62.8822 110.469 62.8822 110.427 62.8822 110.384C62.8929 110.341 62.8982 110.299 62.8982 110.256V109.008L62.9302 106.704V104.576C62.9302 104.192 62.9302 103.851 62.9302 103.552C62.9409 103.253 62.9515 102.928 62.9622 102.576V102.496C62.9729 102.379 62.9782 102.272 62.9782 102.176C62.9889 102.069 62.9942 101.963 62.9942 101.856C63.0049 101.643 63.0635 101.435 63.1702 101.232C63.2129 101.147 63.2555 101.072 63.2982 101.008C63.3515 100.944 63.4209 100.891 63.5062 100.848C63.6662 100.752 63.8315 100.704 64.0022 100.704C64.0875 100.704 64.1515 100.709 64.1942 100.72V100.704C64.3862 100.704 64.5409 100.704 64.6582 100.704C64.7755 100.704 64.8875 100.704 64.9942 100.704C65.1115 100.704 65.2342 100.704 65.3622 100.704C65.4902 100.693 65.6662 100.688 65.8902 100.688C66.3169 100.677 66.7222 100.672 67.1062 100.672C67.4902 100.672 67.8849 100.677 68.2902 100.688H68.3542C68.4715 100.699 68.5942 100.704 68.7222 100.704C68.8502 100.704 68.9729 100.709 69.0902 100.72C69.2075 100.72 69.3249 100.736 69.4422 100.768C69.5595 100.789 69.6769 100.821 69.7942 100.864C69.9755 100.917 70.1249 101.008 70.2422 101.136C70.3382 101.285 70.3862 101.435 70.3862 101.584C70.3862 101.648 70.3862 101.712 70.3862 101.776C70.3862 101.829 70.3755 101.883 70.3542 101.936C70.3435 102.043 70.2795 102.155 70.1622 102.272C70.1195 102.293 70.0715 102.32 70.0182 102.352C69.9755 102.384 69.9222 102.411 69.8582 102.432C69.7942 102.453 69.7249 102.469 69.6502 102.48C69.5862 102.48 69.5222 102.485 69.4582 102.496C69.3729 102.517 69.2929 102.528 69.2182 102.528C69.1542 102.528 69.0795 102.528 68.9942 102.528H68.2742L65.0742 102.544V102.592ZM82.1237 106.096C82.433 106.299 82.6944 106.539 82.9077 106.816C83.1317 107.083 83.3077 107.413 83.4357 107.808C83.5744 108.245 83.6437 108.688 83.6437 109.136C83.6544 109.573 83.5744 109.984 83.4037 110.368C83.2437 110.741 82.9824 111.072 82.6197 111.36C82.2677 111.637 81.8037 111.835 81.2277 111.952C80.9184 112.027 80.5557 112.085 80.1397 112.128C79.7237 112.171 79.3504 112.192 79.0197 112.192C78.6037 112.203 78.1717 112.203 77.7237 112.192C77.2864 112.192 76.8597 112.149 76.4437 112.064C76.2624 112.011 76.129 111.92 76.0437 111.792C75.969 111.653 75.9157 111.499 75.8837 111.328C75.841 111.232 75.8197 111.136 75.8197 111.04V101.952C75.8197 101.653 75.8784 101.424 75.9957 101.264C76.1237 101.093 76.289 100.971 76.4917 100.896C76.6944 100.811 76.9237 100.763 77.1797 100.752C77.4357 100.731 77.7024 100.72 77.9797 100.72C78.193 100.72 78.4064 100.72 78.6197 100.72C78.8437 100.709 79.0677 100.709 79.2917 100.72C79.6437 100.731 80.0064 100.763 80.3797 100.816C80.7637 100.859 81.1264 100.944 81.4677 101.072C81.6277 101.125 81.7984 101.2 81.9797 101.296C82.161 101.381 82.305 101.488 82.4117 101.616C82.753 101.925 83.0037 102.288 83.1637 102.704C83.3344 103.109 83.409 103.525 83.3877 103.952C83.3664 104.368 83.249 104.768 83.0357 105.152C82.833 105.536 82.529 105.851 82.1237 106.096ZM79.3237 110.336C79.6544 110.315 79.9904 110.277 80.3317 110.224C80.673 110.171 80.9077 110.069 81.0357 109.92C81.1744 109.749 81.2704 109.552 81.3237 109.328C81.3877 109.093 81.4037 108.859 81.3717 108.624C81.3504 108.379 81.281 108.149 81.1637 107.936C81.057 107.712 80.913 107.536 80.7317 107.408C80.4864 107.216 80.2037 107.093 79.8837 107.04C79.5637 106.976 79.249 106.944 78.9397 106.944C78.7904 106.944 78.6517 106.949 78.5237 106.96C78.4064 106.96 78.2997 106.976 78.2037 107.008C78.1184 107.029 78.0544 107.077 78.0117 107.152C77.969 107.227 77.9477 107.339 77.9477 107.488C77.969 107.765 77.969 108.043 77.9477 108.32C77.9264 108.597 77.9157 108.864 77.9157 109.12C77.9157 109.269 77.9104 109.435 77.8997 109.616C77.8997 109.787 77.9584 109.931 78.0757 110.048C78.193 110.165 78.3637 110.245 78.5877 110.288C78.8117 110.331 79.057 110.347 79.3237 110.336ZM79.6437 102.656C79.313 102.645 79.0357 102.64 78.8117 102.64C78.5984 102.629 78.4277 102.645 78.2997 102.688C78.1824 102.72 78.097 102.8 78.0437 102.928C78.001 103.045 77.985 103.227 77.9957 103.472C77.9957 103.675 77.9904 103.877 77.9797 104.08C77.9797 104.272 77.9797 104.464 77.9797 104.656C77.9797 104.869 78.049 105.029 78.1877 105.136C78.3264 105.232 78.497 105.291 78.6997 105.312C78.913 105.333 79.1317 105.333 79.3557 105.312C79.5904 105.291 79.793 105.264 79.9637 105.232C80.3477 105.168 80.641 105.04 80.8437 104.848C81.057 104.645 81.1797 104.352 81.2117 103.968C81.2544 103.488 81.1264 103.157 80.8277 102.976C80.5397 102.784 80.145 102.677 79.6437 102.656ZM94.5979 110.912C94.6086 110.976 94.6139 111.04 94.6139 111.104C94.6246 111.157 94.6299 111.221 94.6299 111.296C94.6299 111.424 94.5926 111.541 94.5179 111.648C94.4859 111.701 94.4433 111.755 94.3899 111.808C94.3366 111.851 94.2726 111.888 94.1979 111.92C93.9313 112.069 93.6486 112.123 93.3499 112.08C93.2006 112.037 93.0673 111.968 92.9499 111.872C92.9286 111.851 92.9126 111.84 92.9019 111.84C92.8913 111.829 92.8806 111.813 92.8699 111.792C92.8593 111.781 92.8486 111.771 92.8379 111.76C92.8273 111.739 92.8113 111.723 92.7899 111.712C92.7366 111.659 92.6939 111.611 92.6619 111.568C92.6299 111.515 92.5979 111.461 92.5659 111.408C92.5446 111.355 92.5179 111.307 92.4859 111.264C92.4646 111.211 92.4379 111.157 92.4059 111.104C92.3846 111.061 92.3633 111.024 92.3419 110.992C92.3206 110.949 92.3046 110.907 92.2939 110.864C92.2513 110.768 92.2246 110.683 92.2139 110.608L91.8779 109.824C91.1419 109.824 90.4059 109.829 89.6699 109.84C88.9446 109.84 88.2139 109.835 87.4779 109.824L87.1419 110.608C87.1206 110.651 87.1046 110.693 87.0939 110.736C87.0939 110.779 87.0833 110.821 87.0619 110.864C87.0406 110.907 87.0193 110.949 86.9979 110.992C86.9873 111.024 86.9713 111.061 86.9499 111.104C86.9179 111.157 86.8859 111.211 86.8539 111.264C86.8326 111.307 86.8059 111.355 86.7739 111.408C86.7526 111.461 86.7259 111.515 86.6939 111.568C86.6619 111.611 86.6193 111.659 86.5659 111.712C86.5446 111.723 86.5286 111.739 86.5179 111.76C86.5073 111.771 86.4966 111.781 86.4859 111.792C86.4753 111.813 86.4646 111.829 86.4539 111.84C86.4433 111.84 86.4273 111.851 86.4059 111.872C86.2886 111.968 86.1553 112.037 86.0059 112.08C85.7073 112.123 85.4246 112.069 85.1579 111.92C85.0833 111.888 85.0193 111.851 84.9659 111.808C84.9126 111.755 84.8699 111.701 84.8379 111.648C84.7633 111.541 84.7259 111.424 84.7259 111.296C84.7259 111.221 84.7259 111.157 84.7259 111.104C84.7366 111.04 84.7473 110.976 84.7579 110.912C84.7793 110.816 84.8059 110.72 84.8379 110.624C84.8699 110.528 84.8859 110.48 84.8859 110.48L88.2139 102.288L88.3099 102.032C88.3313 101.968 88.3579 101.909 88.3899 101.856C88.4219 101.803 88.4486 101.739 88.4699 101.664C88.5233 101.525 88.5819 101.403 88.6459 101.296C88.6779 101.232 88.7153 101.173 88.7579 101.12C88.8006 101.067 88.8433 101.013 88.8859 100.96C88.9499 100.875 89.0406 100.805 89.1579 100.752C89.3073 100.699 89.4779 100.672 89.6699 100.672C89.8726 100.672 90.0486 100.699 90.1979 100.752C90.3153 100.805 90.4059 100.875 90.4699 100.96C90.5446 101.056 90.6246 101.168 90.7099 101.296C90.7739 101.403 90.8326 101.525 90.8859 101.664C90.9073 101.739 90.9339 101.803 90.9659 101.856C90.9979 101.909 91.0246 101.968 91.0459 102.032L91.1419 102.288L94.4699 110.48C94.4699 110.48 94.4859 110.528 94.5179 110.624C94.5499 110.72 94.5766 110.816 94.5979 110.912ZM90.8059 106.992C90.6673 106.683 90.5233 106.363 90.3739 106.032C90.2353 105.701 90.0859 105.365 89.9259 105.024C89.8833 104.928 89.8406 104.832 89.7979 104.736C89.7553 104.629 89.7126 104.528 89.6699 104.432C89.6379 104.528 89.6006 104.629 89.5579 104.736C89.5153 104.832 89.4726 104.928 89.4299 105.024C89.2699 105.365 89.1153 105.701 88.9659 106.032C88.8273 106.363 88.6886 106.683 88.5499 106.992L88.2619 107.696H91.0939L90.8059 106.992ZM96.4094 110.304L96.4254 109.04L96.4414 106.688C96.4521 106.347 96.4574 105.995 96.4574 105.632C96.4574 105.269 96.4574 104.896 96.4574 104.512C96.4574 104.128 96.4574 103.787 96.4574 103.488C96.4574 103.189 96.4681 102.853 96.4894 102.48V102.416C96.5001 102.309 96.5054 102.203 96.5054 102.096C96.5161 101.979 96.5214 101.861 96.5214 101.744C96.5321 101.552 96.5908 101.344 96.6974 101.12C96.7721 100.971 96.8841 100.843 97.0334 100.736C97.2041 100.651 97.3694 100.608 97.5294 100.608C97.6148 100.608 97.6894 100.613 97.7534 100.624C97.8281 100.624 97.8974 100.629 97.9614 100.64C98.1001 100.661 98.2228 100.725 98.3294 100.832C98.3934 100.885 98.4521 100.971 98.5054 101.088C98.5268 101.152 98.5428 101.216 98.5534 101.28C98.5748 101.333 98.5908 101.392 98.6014 101.456C98.6121 101.531 98.6174 101.6 98.6174 101.664C98.6281 101.728 98.6334 101.792 98.6334 101.856C98.6334 101.931 98.6281 102 98.6174 102.064C98.6174 102.117 98.6174 102.176 98.6174 102.24V102.512L98.5214 110.816V110.976C98.5214 111.008 98.5161 111.051 98.5054 111.104C98.5054 111.147 98.5001 111.2 98.4894 111.264C98.4681 111.317 98.4468 111.376 98.4254 111.44C98.4148 111.493 98.3988 111.552 98.3774 111.616C98.3454 111.669 98.3081 111.723 98.2654 111.776C98.2334 111.819 98.1908 111.861 98.1374 111.904C98.0521 111.989 97.9134 112.048 97.7214 112.08C97.4334 112.144 97.1614 112.117 96.9054 112C96.7774 111.915 96.6868 111.808 96.6334 111.68C96.6014 111.648 96.5854 111.616 96.5854 111.584C96.5748 111.563 96.5641 111.547 96.5534 111.536C96.5428 111.525 96.5321 111.509 96.5214 111.488C96.5001 111.435 96.4841 111.381 96.4734 111.328C96.4628 111.264 96.4574 111.2 96.4574 111.136C96.4468 111.083 96.4361 111.029 96.4254 110.976C96.4254 110.923 96.4201 110.869 96.4094 110.816C96.3988 110.731 96.3988 110.64 96.4094 110.544V110.304ZM109.102 110.784C109.091 110.965 109.064 111.157 109.022 111.36C108.99 111.563 108.888 111.728 108.718 111.856C108.59 111.963 108.446 112.027 108.286 112.048C108.126 112.069 107.966 112.059 107.806 112.016C107.656 111.984 107.512 111.931 107.374 111.856C107.235 111.771 107.123 111.669 107.038 111.552C106.675 111.104 106.339 110.645 106.03 110.176C105.731 109.696 105.427 109.216 105.118 108.736L103.774 106.704C103.592 106.416 103.4 106.096 103.198 105.744C102.995 105.381 102.787 105.045 102.574 104.736L102.526 110.848V110.992C102.526 111.163 102.494 111.333 102.43 111.504C102.376 111.664 102.28 111.803 102.142 111.92C102.035 112.005 101.896 112.064 101.726 112.096C101.459 112.149 101.235 112.133 101.054 112.048C100.883 111.963 100.744 111.845 100.638 111.696C100.542 111.547 100.472 111.376 100.43 111.184C100.398 110.981 100.392 110.784 100.414 110.592V110.32L100.446 109.072L100.462 106.752C100.472 106.411 100.478 106.064 100.478 105.712C100.478 105.349 100.478 104.981 100.478 104.608C100.467 104.149 100.467 103.664 100.478 103.152C100.499 102.64 100.52 102.16 100.542 101.712C100.563 101.467 100.622 101.259 100.718 101.088C100.76 100.939 100.872 100.811 101.054 100.704C101.171 100.629 101.32 100.581 101.502 100.56C101.694 100.539 101.859 100.544 101.998 100.576C102.051 100.597 102.104 100.624 102.158 100.656C102.211 100.677 102.264 100.704 102.318 100.736C102.371 100.779 102.419 100.821 102.462 100.864C102.515 100.907 102.563 100.955 102.606 101.008C102.659 101.061 102.707 101.12 102.75 101.184C102.792 101.237 102.835 101.291 102.878 101.344C102.91 101.408 102.942 101.467 102.974 101.52C103.006 101.573 103.043 101.627 103.086 101.68L103.262 101.936L106.958 107.76V106.704C106.958 106.363 106.952 106.016 106.942 105.664C106.942 105.301 106.936 104.928 106.926 104.544C106.926 104.096 106.926 103.616 106.926 103.104C106.936 102.592 106.952 102.112 106.974 101.664C106.974 101.483 107.027 101.275 107.134 101.04C107.187 100.901 107.278 100.789 107.406 100.704C107.534 100.619 107.678 100.56 107.838 100.528C107.998 100.496 108.158 100.496 108.318 100.528C108.478 100.56 108.616 100.624 108.734 100.72C108.766 100.752 108.798 100.789 108.83 100.832C108.862 100.875 108.888 100.923 108.91 100.976C108.963 101.115 108.995 101.237 109.006 101.344C109.038 101.493 109.054 101.627 109.054 101.744C109.054 103.077 109.054 104.437 109.054 105.824C109.064 107.211 109.075 108.571 109.086 109.904C109.086 110.053 109.091 110.203 109.102 110.352C109.112 110.491 109.112 110.635 109.102 110.784Z" fill="#FAFAFA"/>
<defs>
<clipPath id="clip0">
<rect width="83" height="95" fill="white" transform="translate(10)"/>
</clipPath>
</defs>
</svg>
