<svg width="111" height="115" viewBox="0 0 111 115" fill="none" xmlns="http://www.w3.org/2000/svg">
<g clip-path="url(#clip0)">
<path d="M91.9599 52.1073C91.9599 50.631 90.8504 49.434 89.482 49.434H13.5179C12.1495 49.434 11.04 50.631 11.04 52.1073C11.04 64.1726 18.113 74.4878 28.02 78.4837C26.1143 80.6452 24.9356 83.609 24.9356 86.8758C24.9356 88.3521 26.045 89.5492 27.4134 89.5492C28.7818 89.5492 29.8913 88.3521 29.8913 86.8758C29.8913 83.2255 32.4728 80.2557 35.6463 80.2557C35.7629 80.2557 35.8765 80.244 35.9888 80.2272C36.3674 80.2448 36.7475 80.2557 37.1299 80.2557H65.8701C66.2525 80.2557 66.6327 80.2448 67.0112 80.2272C67.1236 80.244 67.2372 80.2557 67.3538 80.2557C70.5272 80.2557 73.109 83.2253 73.109 86.8758C73.109 88.3521 74.2184 89.5492 75.5868 89.5492C76.9552 89.5492 78.0646 88.3521 78.0646 86.8758C78.0646 83.6092 76.8858 80.6453 74.9802 78.4837C84.887 74.4879 91.9599 64.1725 91.9599 52.1073Z" fill="#FAFAFA"/>
<path d="M72.4879 0C65.8518 0 60.4529 5.82489 60.4529 12.9846V17.8581C60.4529 19.3344 61.5624 20.5315 62.9307 20.5315C64.2991 20.5315 65.4086 19.3344 65.4086 17.8581V12.9846C65.4086 8.77302 68.5843 5.34672 72.4879 5.34672C76.3915 5.34672 79.5672 8.77302 79.5672 12.9846V44.087H84.5229V12.9846C84.523 5.82489 79.124 0 72.4879 0Z" fill="#FAFAFA"/>
<path d="M62.9307 24.6355C61.5624 24.6355 60.4529 25.8325 60.4529 27.3089V29.6257C60.4529 31.1021 61.5624 32.2991 62.9307 32.2991C64.2991 32.2991 65.4086 31.1021 65.4086 29.6257V27.3089C65.4086 25.8323 64.2991 24.6355 62.9307 24.6355Z" fill="#FAFAFA"/>
<path d="M62.9307 36.4236C61.5624 36.4236 60.4529 37.6206 60.4529 39.097V41.4139C60.4529 42.8903 61.5624 44.0873 62.9307 44.0873C64.2991 44.0873 65.4086 42.8903 65.4086 41.4139V39.097C65.4086 37.6206 64.2991 36.4236 62.9307 36.4236Z" fill="#FAFAFA"/>
<path d="M9.17019 104.344C9.22352 104.493 9.26085 104.664 9.28219 104.856C9.31419 105.037 9.33019 105.224 9.33019 105.416C9.33019 105.608 9.31419 105.8 9.28219 105.992C9.26085 106.173 9.22885 106.333 9.18619 106.472C9.01552 107.069 8.67419 107.571 8.16219 107.976C7.65019 108.371 7.06352 108.659 6.40219 108.84C5.75152 109.021 5.07419 109.085 4.37019 109.032C3.67685 108.979 3.05819 108.803 2.51419 108.504C2.17285 108.312 1.87952 108.077 1.63419 107.8C1.38885 107.523 1.18085 107.213 1.01019 106.872C0.946188 106.755 0.903521 106.621 0.882188 106.472C0.871521 106.312 0.887521 106.163 0.930188 106.024C0.972854 105.875 1.04219 105.747 1.13819 105.64C1.23419 105.523 1.36752 105.443 1.53819 105.4C1.64485 105.379 1.76219 105.368 1.89019 105.368C2.02885 105.368 2.16219 105.389 2.29019 105.432C2.41819 105.464 2.53552 105.523 2.64219 105.608C2.74885 105.683 2.83419 105.789 2.89819 105.928C3.01552 106.152 3.18085 106.36 3.39419 106.552C3.61819 106.733 3.85285 106.883 4.09819 107C4.45019 107.117 4.80219 107.165 5.15419 107.144C5.51685 107.123 5.84219 107.043 6.13019 106.904C6.42885 106.765 6.66885 106.579 6.85019 106.344C7.03152 106.099 7.12219 105.821 7.12219 105.512C7.12219 105.256 7.08485 105.048 7.01019 104.888C6.93552 104.717 6.82885 104.579 6.69019 104.472C6.56219 104.355 6.40219 104.259 6.21019 104.184C6.02885 104.109 5.82619 104.045 5.60219 103.992C5.34619 103.939 5.08485 103.901 4.81819 103.88C4.56219 103.859 4.30085 103.832 4.03419 103.8C3.76752 103.768 3.50619 103.725 3.25019 103.672C2.99419 103.619 2.74352 103.539 2.49819 103.432C2.00752 103.229 1.63419 102.92 1.37819 102.504C1.12219 102.088 0.967521 101.64 0.914188 101.16C0.871521 100.68 0.930188 100.205 1.09019 99.736C1.25019 99.256 1.50619 98.8453 1.85819 98.504C2.19952 98.1947 2.60485 97.976 3.07419 97.848C3.55419 97.7093 4.08219 97.6293 4.65819 97.608C4.97819 97.5973 5.29819 97.608 5.61819 97.64C5.94885 97.672 6.26352 97.7253 6.56219 97.8C6.87152 97.8747 7.15419 97.9707 7.41019 98.088C7.67685 98.2053 7.90619 98.344 8.09819 98.504C8.23685 98.6107 8.37552 98.7547 8.51419 98.936C8.65285 99.1067 8.75952 99.2933 8.83419 99.496C8.90885 99.688 8.93019 99.8747 8.89819 100.056C8.87685 100.237 8.76485 100.392 8.56219 100.52C8.39152 100.627 8.22619 100.675 8.06619 100.664C7.91685 100.643 7.77285 100.595 7.63419 100.52C7.49552 100.435 7.36219 100.339 7.23419 100.232C7.10619 100.125 6.98885 100.029 6.88219 99.944C6.59419 99.7307 6.23685 99.5867 5.81019 99.512C5.38352 99.4373 4.98352 99.4213 4.61019 99.464C4.37552 99.496 4.15685 99.5493 3.95419 99.624C3.75152 99.6987 3.57552 99.8 3.42619 99.928C3.28752 100.056 3.17552 100.216 3.09019 100.408C3.01552 100.589 2.98885 100.797 3.01019 101.032C3.02085 101.203 3.06885 101.347 3.15419 101.464C3.25019 101.581 3.36219 101.677 3.49019 101.752C3.62885 101.827 3.77819 101.885 3.93819 101.928C4.09819 101.971 4.25819 102.003 4.41819 102.024C4.89819 102.088 5.37819 102.136 5.85819 102.168C6.33819 102.2 6.80752 102.307 7.26619 102.488C7.73552 102.669 8.13552 102.915 8.46619 103.224C8.79685 103.533 9.03152 103.907 9.17019 104.344ZM20.4886 107.912C20.4992 107.976 20.5046 108.04 20.5046 108.104C20.5152 108.157 20.5206 108.221 20.5206 108.296C20.5206 108.424 20.4832 108.541 20.4086 108.648C20.3766 108.701 20.3339 108.755 20.2806 108.808C20.2272 108.851 20.1632 108.888 20.0886 108.92C19.8219 109.069 19.5392 109.123 19.2406 109.08C19.0912 109.037 18.9579 108.968 18.8406 108.872C18.8192 108.851 18.8032 108.84 18.7926 108.84C18.7819 108.829 18.7712 108.813 18.7606 108.792C18.7499 108.781 18.7392 108.771 18.7286 108.76C18.7179 108.739 18.7019 108.723 18.6806 108.712C18.6272 108.659 18.5846 108.611 18.5526 108.568C18.5206 108.515 18.4886 108.461 18.4566 108.408C18.4352 108.355 18.4086 108.307 18.3766 108.264C18.3552 108.211 18.3286 108.157 18.2966 108.104C18.2752 108.061 18.2539 108.024 18.2326 107.992C18.2112 107.949 18.1952 107.907 18.1846 107.864C18.1419 107.768 18.1152 107.683 18.1046 107.608L17.7686 106.824C17.0326 106.824 16.2966 106.829 15.5606 106.84C14.8352 106.84 14.1046 106.835 13.3686 106.824L13.0326 107.608C13.0112 107.651 12.9952 107.693 12.9846 107.736C12.9846 107.779 12.9739 107.821 12.9526 107.864C12.9312 107.907 12.9099 107.949 12.8886 107.992C12.8779 108.024 12.8619 108.061 12.8406 108.104C12.8086 108.157 12.7766 108.211 12.7446 108.264C12.7232 108.307 12.6966 108.355 12.6646 108.408C12.6432 108.461 12.6166 108.515 12.5846 108.568C12.5526 108.611 12.5099 108.659 12.4566 108.712C12.4352 108.723 12.4192 108.739 12.4086 108.76C12.3979 108.771 12.3872 108.781 12.3766 108.792C12.3659 108.813 12.3552 108.829 12.3446 108.84C12.3339 108.84 12.3179 108.851 12.2966 108.872C12.1792 108.968 12.0459 109.037 11.8966 109.08C11.5979 109.123 11.3152 109.069 11.0486 108.92C10.9739 108.888 10.9099 108.851 10.8566 108.808C10.8032 108.755 10.7606 108.701 10.7286 108.648C10.6539 108.541 10.6166 108.424 10.6166 108.296C10.6166 108.221 10.6166 108.157 10.6166 108.104C10.6272 108.04 10.6379 107.976 10.6486 107.912C10.6699 107.816 10.6966 107.72 10.7286 107.624C10.7606 107.528 10.7766 107.48 10.7766 107.48L14.1046 99.288L14.2006 99.032C14.2219 98.968 14.2486 98.9093 14.2806 98.856C14.3126 98.8027 14.3392 98.7387 14.3606 98.664C14.4139 98.5253 14.4726 98.4027 14.5366 98.296C14.5686 98.232 14.6059 98.1733 14.6486 98.12C14.6912 98.0667 14.7339 98.0133 14.7766 97.96C14.8406 97.8747 14.9312 97.8053 15.0486 97.752C15.1979 97.6987 15.3686 97.672 15.5606 97.672C15.7632 97.672 15.9392 97.6987 16.0886 97.752C16.2059 97.8053 16.2966 97.8747 16.3606 97.96C16.4352 98.056 16.5152 98.168 16.6006 98.296C16.6646 98.4027 16.7232 98.5253 16.7766 98.664C16.7979 98.7387 16.8246 98.8027 16.8566 98.856C16.8886 98.9093 16.9152 98.968 16.9366 99.032L17.0326 99.288L20.3606 107.48C20.3606 107.48 20.3766 107.528 20.4086 107.624C20.4406 107.72 20.4672 107.816 20.4886 107.912ZM16.6966 103.992C16.5579 103.683 16.4139 103.363 16.2646 103.032C16.1259 102.701 15.9766 102.365 15.8166 102.024C15.7739 101.928 15.7312 101.832 15.6886 101.736C15.6459 101.629 15.6032 101.528 15.5606 101.432C15.5286 101.528 15.4912 101.629 15.4486 101.736C15.4059 101.832 15.3632 101.928 15.3206 102.024C15.1606 102.365 15.0059 102.701 14.8566 103.032C14.7179 103.363 14.5792 103.683 14.4406 103.992L14.1526 104.696H16.9846L16.6966 103.992ZM29.1961 107.784C29.2174 107.837 29.2281 107.917 29.2281 108.024C29.2281 108.12 29.2281 108.2 29.2281 108.264C29.2281 108.349 29.2121 108.429 29.1801 108.504C29.1481 108.579 29.1054 108.648 29.0521 108.712C28.9561 108.84 28.8174 108.936 28.6361 109C28.3801 109.085 28.1401 109.128 27.9161 109.128C27.7987 109.139 27.6761 109.144 27.5481 109.144C27.4201 109.144 27.2921 109.155 27.1641 109.176H27.1001C26.2787 109.187 25.4307 109.187 24.5561 109.176C24.3427 109.165 24.1027 109.165 23.8361 109.176C23.5694 109.197 23.3081 109.192 23.0521 109.16C22.7961 109.139 22.5614 109.08 22.3481 108.984C22.1454 108.877 22.0014 108.712 21.9161 108.488C21.8947 108.435 21.8787 108.387 21.8681 108.344C21.8574 108.291 21.8521 108.237 21.8521 108.184C21.8094 107.821 21.7934 107.464 21.8041 107.112C21.8147 106.76 21.8201 106.413 21.8201 106.072L21.8521 103.752V101.608C21.8521 101.224 21.8521 100.883 21.8521 100.584C21.8627 100.285 21.8734 99.9547 21.8841 99.592V99.512C21.8947 99.4053 21.9001 99.2987 21.9001 99.192C21.9107 99.0853 21.9161 98.9787 21.9161 98.872C21.9374 98.6267 21.9961 98.4187 22.0921 98.248C22.1561 98.088 22.2681 97.96 22.4281 97.864C22.5667 97.768 22.7321 97.72 22.9241 97.72C22.9987 97.72 23.0681 97.7253 23.1321 97.736C23.2067 97.736 23.2761 97.7413 23.3401 97.752C23.4041 97.7627 23.4627 97.784 23.5161 97.816C23.5801 97.848 23.6441 97.8907 23.7081 97.944C23.7721 98.0187 23.8307 98.1093 23.8841 98.216C23.9267 98.3333 23.9534 98.4507 23.9641 98.568C23.9747 98.6427 23.9854 98.712 23.9961 98.776C24.0067 98.84 24.0121 98.904 24.0121 98.968C23.9907 99.032 23.9801 99.096 23.9801 99.16C23.9801 99.224 23.9801 99.2827 23.9801 99.336V99.624L23.9161 107.16L27.0841 107.192H27.8361C27.9001 107.192 27.9694 107.197 28.0441 107.208C28.1187 107.208 28.1934 107.213 28.2681 107.224C28.3534 107.235 28.4281 107.245 28.4921 107.256C28.5561 107.267 28.6201 107.283 28.6841 107.304C28.8014 107.336 28.8974 107.389 28.9721 107.464C29.0894 107.571 29.1641 107.677 29.1961 107.784ZM37.8992 107.784C37.9205 107.837 37.9312 107.917 37.9312 108.024C37.9312 108.12 37.9312 108.2 37.9312 108.264C37.9312 108.349 37.9152 108.429 37.8832 108.504C37.8512 108.579 37.8085 108.648 37.7552 108.712C37.6592 108.84 37.5205 108.936 37.3392 109C37.0832 109.085 36.8432 109.128 36.6192 109.128C36.5019 109.139 36.3792 109.144 36.2512 109.144C36.1232 109.144 35.9952 109.155 35.8672 109.176H35.8032C34.9819 109.187 34.1339 109.187 33.2592 109.176C33.0459 109.165 32.8059 109.165 32.5392 109.176C32.2725 109.197 32.0112 109.192 31.7552 109.16C31.4992 109.139 31.2645 109.08 31.0512 108.984C30.8485 108.877 30.7045 108.712 30.6192 108.488C30.5979 108.435 30.5819 108.387 30.5712 108.344C30.5605 108.291 30.5552 108.237 30.5552 108.184C30.5125 107.821 30.4965 107.464 30.5072 107.112C30.5179 106.76 30.5232 106.413 30.5232 106.072L30.5552 103.752V101.608C30.5552 101.224 30.5552 100.883 30.5552 100.584C30.5659 100.285 30.5765 99.9547 30.5872 99.592V99.512C30.5979 99.4053 30.6032 99.2987 30.6032 99.192C30.6139 99.0853 30.6192 98.9787 30.6192 98.872C30.6405 98.6267 30.6992 98.4187 30.7952 98.248C30.8592 98.088 30.9712 97.96 31.1312 97.864C31.2699 97.768 31.4352 97.72 31.6272 97.72C31.7019 97.72 31.7712 97.7253 31.8352 97.736C31.9099 97.736 31.9792 97.7413 32.0432 97.752C32.1072 97.7627 32.1659 97.784 32.2192 97.816C32.2832 97.848 32.3472 97.8907 32.4112 97.944C32.4752 98.0187 32.5339 98.1093 32.5872 98.216C32.6299 98.3333 32.6565 98.4507 32.6672 98.568C32.6779 98.6427 32.6885 98.712 32.6992 98.776C32.7099 98.84 32.7152 98.904 32.7152 98.968C32.6939 99.032 32.6832 99.096 32.6832 99.16C32.6832 99.224 32.6832 99.2827 32.6832 99.336V99.624L32.6192 107.16L35.7872 107.192H36.5392C36.6032 107.192 36.6725 107.197 36.7472 107.208C36.8219 107.208 36.8965 107.213 36.9712 107.224C37.0565 107.235 37.1312 107.245 37.1952 107.256C37.2592 107.267 37.3232 107.283 37.3872 107.304C37.5045 107.336 37.6005 107.389 37.6752 107.464C37.7925 107.571 37.8672 107.677 37.8992 107.784ZM41.4023 99.592L41.3703 102.104H42.0103C42.4476 102.093 42.837 102.088 43.1783 102.088C43.5196 102.088 43.8983 102.093 44.3143 102.104H44.3943C44.5223 102.104 44.645 102.109 44.7623 102.12C44.8903 102.12 45.013 102.12 45.1303 102.12C45.2583 102.131 45.381 102.152 45.4983 102.184C45.6156 102.205 45.733 102.232 45.8503 102.264C46.0316 102.328 46.181 102.424 46.2983 102.552C46.405 102.691 46.4583 102.845 46.4583 103.016C46.4583 103.069 46.4583 103.133 46.4583 103.208C46.4583 103.272 46.4476 103.331 46.4263 103.384C46.405 103.501 46.3356 103.608 46.2183 103.704C46.165 103.779 46.0636 103.832 45.9143 103.864C45.7756 103.907 45.637 103.933 45.4983 103.944C45.349 103.976 45.1996 103.992 45.0503 103.992H44.2983L41.3383 104.008L41.3063 107.144L44.4903 107.176H45.2423C45.3276 107.176 45.4076 107.176 45.4823 107.176C45.557 107.176 45.6263 107.181 45.6903 107.192C45.7756 107.213 45.8503 107.229 45.9143 107.24C45.989 107.24 46.0583 107.251 46.1223 107.272C46.2503 107.315 46.357 107.373 46.4423 107.448C46.549 107.555 46.6183 107.667 46.6503 107.784C46.661 107.837 46.6663 107.896 46.6663 107.96C46.677 108.013 46.677 108.072 46.6663 108.136C46.6663 108.307 46.613 108.461 46.5063 108.6C46.3783 108.749 46.229 108.845 46.0583 108.888C45.8343 108.984 45.589 109.032 45.3223 109.032C45.205 109.043 45.0823 109.048 44.9543 109.048C44.8263 109.048 44.7036 109.053 44.5863 109.064H44.4903C43.6583 109.085 42.7943 109.085 41.8983 109.064C41.685 109.064 41.5143 109.059 41.3863 109.048C41.2583 109.048 41.141 109.048 41.0343 109.048C40.9383 109.048 40.837 109.048 40.7303 109.048C40.6236 109.048 40.485 109.048 40.3143 109.048C40.069 109.069 39.8663 109.027 39.7063 108.92C39.589 108.845 39.4983 108.744 39.4343 108.616C39.4023 108.584 39.3863 108.552 39.3863 108.52C39.3756 108.499 39.365 108.483 39.3543 108.472C39.3436 108.461 39.333 108.445 39.3223 108.424C39.301 108.371 39.285 108.317 39.2743 108.264C39.2636 108.2 39.2583 108.141 39.2583 108.088C39.2476 108.035 39.237 107.981 39.2263 107.928C39.2263 107.875 39.221 107.821 39.2103 107.768V107.512C39.2103 107.469 39.2103 107.427 39.2103 107.384C39.221 107.341 39.2263 107.299 39.2263 107.256V106.008L39.2583 103.704V101.576C39.2583 101.192 39.2583 100.851 39.2583 100.552C39.269 100.253 39.2796 99.928 39.2903 99.576V99.496C39.301 99.3787 39.3063 99.272 39.3063 99.176C39.317 99.0693 39.3223 98.9627 39.3223 98.856C39.333 98.6427 39.3916 98.4347 39.4983 98.232C39.541 98.1467 39.5836 98.072 39.6263 98.008C39.6796 97.944 39.749 97.8907 39.8343 97.848C39.9943 97.752 40.1596 97.704 40.3303 97.704C40.4156 97.704 40.4796 97.7093 40.5223 97.72V97.704C40.7143 97.704 40.869 97.704 40.9863 97.704C41.1036 97.704 41.2156 97.704 41.3223 97.704C41.4396 97.704 41.5623 97.704 41.6903 97.704C41.8183 97.6933 41.9943 97.688 42.2183 97.688C42.645 97.6773 43.0503 97.672 43.4343 97.672C43.8183 97.672 44.213 97.6773 44.6183 97.688H44.6823C44.7996 97.6987 44.9223 97.704 45.0503 97.704C45.1783 97.704 45.301 97.7093 45.4183 97.72C45.5356 97.72 45.653 97.736 45.7703 97.768C45.8876 97.7893 46.005 97.8213 46.1223 97.864C46.3036 97.9173 46.453 98.008 46.5703 98.136C46.6663 98.2853 46.7143 98.4347 46.7143 98.584C46.7143 98.648 46.7143 98.712 46.7143 98.776C46.7143 98.8293 46.7036 98.8827 46.6823 98.936C46.6716 99.0427 46.6076 99.1547 46.4903 99.272C46.4476 99.2933 46.3996 99.32 46.3463 99.352C46.3036 99.384 46.2503 99.4107 46.1863 99.432C46.1223 99.4533 46.053 99.4693 45.9783 99.48C45.9143 99.48 45.8503 99.4853 45.7863 99.496C45.701 99.5173 45.621 99.528 45.5463 99.528C45.4823 99.528 45.4076 99.528 45.3223 99.528H44.6023L41.4023 99.544V99.592ZM60.5638 102.568C60.5851 102.92 60.5798 103.283 60.5478 103.656C60.5265 104.029 60.4891 104.392 60.4358 104.744C60.3291 105.352 60.1318 105.944 59.8438 106.52C59.5558 107.096 59.1345 107.587 58.5798 107.992C58.0038 108.419 57.3478 108.712 56.6118 108.872C55.8758 109.021 55.1451 109.112 54.4198 109.144C54.1745 109.165 53.9238 109.171 53.6678 109.16C53.4225 109.16 53.1825 109.133 52.9478 109.08C52.7558 109.048 52.6118 108.989 52.5158 108.904C52.4625 108.872 52.4198 108.829 52.3878 108.776C52.3558 108.723 52.3291 108.669 52.3078 108.616C52.2758 108.563 52.2491 108.509 52.2278 108.456C52.2171 108.392 52.2011 108.328 52.1798 108.264C52.1691 108.211 52.1585 108.163 52.1478 108.12C52.1478 108.067 52.1478 108.019 52.1478 107.976V98.84C52.1478 98.7653 52.1478 98.696 52.1478 98.632C52.1478 98.568 52.1585 98.504 52.1798 98.44C52.2011 98.2907 52.2331 98.168 52.2758 98.072C52.3185 97.944 52.3771 97.8533 52.4518 97.8C52.5158 97.7467 52.5798 97.7093 52.6438 97.688C52.7078 97.656 52.7665 97.6293 52.8198 97.608C52.8838 97.5867 52.9478 97.5867 53.0118 97.608C53.0865 97.6187 53.1665 97.6027 53.2518 97.56L55.9238 97.624C56.6278 97.6453 57.2571 97.8107 57.8118 98.12C58.3665 98.4187 58.8411 98.8027 59.2358 99.272C59.6305 99.7413 59.9398 100.269 60.1638 100.856C60.3878 101.432 60.5211 102.003 60.5638 102.568ZM57.5878 105.608C57.7905 105.288 57.9398 104.92 58.0358 104.504C58.1318 104.088 58.1745 103.667 58.1638 103.24C58.1531 102.803 58.0945 102.381 57.9878 101.976C57.8811 101.56 57.7318 101.192 57.5398 100.872C57.3905 100.637 57.1985 100.445 56.9638 100.296C56.7291 100.147 56.4678 100.035 56.1798 99.96C55.8918 99.8747 55.5825 99.816 55.2518 99.784C54.9318 99.752 54.6171 99.736 54.3078 99.736C54.3185 100.045 54.3238 100.344 54.3238 100.632C54.3238 100.92 54.3238 101.224 54.3238 101.544C54.3131 101.928 54.3078 102.301 54.3078 102.664C54.3078 103.027 54.3078 103.379 54.3078 103.72V106.984C54.6385 106.973 54.9531 106.957 55.2518 106.936C55.5611 106.904 55.8545 106.84 56.1318 106.744C56.4198 106.648 56.6811 106.515 56.9158 106.344C57.1611 106.163 57.3851 105.917 57.5878 105.608ZM64.0742 99.592L64.0422 102.104H64.6822C65.1195 102.093 65.5089 102.088 65.8502 102.088C66.1915 102.088 66.5702 102.093 66.9862 102.104H67.0662C67.1942 102.104 67.3169 102.109 67.4342 102.12C67.5622 102.12 67.6849 102.12 67.8022 102.12C67.9302 102.131 68.0529 102.152 68.1702 102.184C68.2875 102.205 68.4049 102.232 68.5222 102.264C68.7035 102.328 68.8529 102.424 68.9702 102.552C69.0769 102.691 69.1302 102.845 69.1302 103.016C69.1302 103.069 69.1302 103.133 69.1302 103.208C69.1302 103.272 69.1195 103.331 69.0982 103.384C69.0769 103.501 69.0075 103.608 68.8902 103.704C68.8369 103.779 68.7355 103.832 68.5862 103.864C68.4475 103.907 68.3089 103.933 68.1702 103.944C68.0209 103.976 67.8715 103.992 67.7222 103.992H66.9702L64.0102 104.008L63.9782 107.144L67.1622 107.176H67.9142C67.9995 107.176 68.0795 107.176 68.1542 107.176C68.2289 107.176 68.2982 107.181 68.3622 107.192C68.4475 107.213 68.5222 107.229 68.5862 107.24C68.6609 107.24 68.7302 107.251 68.7942 107.272C68.9222 107.315 69.0289 107.373 69.1142 107.448C69.2209 107.555 69.2902 107.667 69.3222 107.784C69.3329 107.837 69.3382 107.896 69.3382 107.96C69.3489 108.013 69.3489 108.072 69.3382 108.136C69.3382 108.307 69.2849 108.461 69.1782 108.6C69.0502 108.749 68.9009 108.845 68.7302 108.888C68.5062 108.984 68.2609 109.032 67.9942 109.032C67.8769 109.043 67.7542 109.048 67.6262 109.048C67.4982 109.048 67.3755 109.053 67.2582 109.064H67.1622C66.3302 109.085 65.4662 109.085 64.5702 109.064C64.3569 109.064 64.1862 109.059 64.0582 109.048C63.9302 109.048 63.8129 109.048 63.7062 109.048C63.6102 109.048 63.5089 109.048 63.4022 109.048C63.2955 109.048 63.1569 109.048 62.9862 109.048C62.7409 109.069 62.5382 109.027 62.3782 108.92C62.2609 108.845 62.1702 108.744 62.1062 108.616C62.0742 108.584 62.0582 108.552 62.0582 108.52C62.0475 108.499 62.0369 108.483 62.0262 108.472C62.0155 108.461 62.0049 108.445 61.9942 108.424C61.9729 108.371 61.9569 108.317 61.9462 108.264C61.9355 108.2 61.9302 108.141 61.9302 108.088C61.9195 108.035 61.9089 107.981 61.8982 107.928C61.8982 107.875 61.8929 107.821 61.8822 107.768V107.512C61.8822 107.469 61.8822 107.427 61.8822 107.384C61.8929 107.341 61.8982 107.299 61.8982 107.256V106.008L61.9302 103.704V101.576C61.9302 101.192 61.9302 100.851 61.9302 100.552C61.9409 100.253 61.9515 99.928 61.9622 99.576V99.496C61.9729 99.3787 61.9782 99.272 61.9782 99.176C61.9889 99.0693 61.9942 98.9627 61.9942 98.856C62.0049 98.6427 62.0635 98.4347 62.1702 98.232C62.2129 98.1467 62.2555 98.072 62.2982 98.008C62.3515 97.944 62.4209 97.8907 62.5062 97.848C62.6662 97.752 62.8315 97.704 63.0022 97.704C63.0875 97.704 63.1515 97.7093 63.1942 97.72V97.704C63.3862 97.704 63.5409 97.704 63.6582 97.704C63.7755 97.704 63.8875 97.704 63.9942 97.704C64.1115 97.704 64.2342 97.704 64.3622 97.704C64.4902 97.6933 64.6662 97.688 64.8902 97.688C65.3169 97.6773 65.7222 97.672 66.1062 97.672C66.4902 97.672 66.8849 97.6773 67.2902 97.688H67.3542C67.4715 97.6987 67.5942 97.704 67.7222 97.704C67.8502 97.704 67.9729 97.7093 68.0902 97.72C68.2075 97.72 68.3249 97.736 68.4422 97.768C68.5595 97.7893 68.6769 97.8213 68.7942 97.864C68.9755 97.9173 69.1249 98.008 69.2422 98.136C69.3382 98.2853 69.3862 98.4347 69.3862 98.584C69.3862 98.648 69.3862 98.712 69.3862 98.776C69.3862 98.8293 69.3755 98.8827 69.3542 98.936C69.3435 99.0427 69.2795 99.1547 69.1622 99.272C69.1195 99.2933 69.0715 99.32 69.0182 99.352C68.9755 99.384 68.9222 99.4107 68.8582 99.432C68.7942 99.4533 68.7249 99.4693 68.6502 99.48C68.5862 99.48 68.5222 99.4853 68.4582 99.496C68.3729 99.5173 68.2929 99.528 68.2182 99.528C68.1542 99.528 68.0795 99.528 67.9942 99.528H67.2742L64.0742 99.544V99.592ZM81.1237 103.096C81.433 103.299 81.6944 103.539 81.9077 103.816C82.1317 104.083 82.3077 104.413 82.4357 104.808C82.5744 105.245 82.6437 105.688 82.6437 106.136C82.6544 106.573 82.5744 106.984 82.4037 107.368C82.2437 107.741 81.9824 108.072 81.6197 108.36C81.2677 108.637 80.8037 108.835 80.2277 108.952C79.9184 109.027 79.5557 109.085 79.1397 109.128C78.7237 109.171 78.3504 109.192 78.0197 109.192C77.6037 109.203 77.1717 109.203 76.7237 109.192C76.2864 109.192 75.8597 109.149 75.4437 109.064C75.2624 109.011 75.129 108.92 75.0437 108.792C74.969 108.653 74.9157 108.499 74.8837 108.328C74.841 108.232 74.8197 108.136 74.8197 108.04V98.952C74.8197 98.6533 74.8784 98.424 74.9957 98.264C75.1237 98.0933 75.289 97.9707 75.4917 97.896C75.6944 97.8107 75.9237 97.7627 76.1797 97.752C76.4357 97.7307 76.7024 97.72 76.9797 97.72C77.193 97.72 77.4064 97.72 77.6197 97.72C77.8437 97.7093 78.0677 97.7093 78.2917 97.72C78.6437 97.7307 79.0064 97.7627 79.3797 97.816C79.7637 97.8587 80.1264 97.944 80.4677 98.072C80.6277 98.1253 80.7984 98.2 80.9797 98.296C81.161 98.3813 81.305 98.488 81.4117 98.616C81.753 98.9253 82.0037 99.288 82.1637 99.704C82.3344 100.109 82.409 100.525 82.3877 100.952C82.3664 101.368 82.249 101.768 82.0357 102.152C81.833 102.536 81.529 102.851 81.1237 103.096ZM78.3237 107.336C78.6544 107.315 78.9904 107.277 79.3317 107.224C79.673 107.171 79.9077 107.069 80.0357 106.92C80.1744 106.749 80.2704 106.552 80.3237 106.328C80.3877 106.093 80.4037 105.859 80.3717 105.624C80.3504 105.379 80.281 105.149 80.1637 104.936C80.057 104.712 79.913 104.536 79.7317 104.408C79.4864 104.216 79.2037 104.093 78.8837 104.04C78.5637 103.976 78.249 103.944 77.9397 103.944C77.7904 103.944 77.6517 103.949 77.5237 103.96C77.4064 103.96 77.2997 103.976 77.2037 104.008C77.1184 104.029 77.0544 104.077 77.0117 104.152C76.969 104.227 76.9477 104.339 76.9477 104.488C76.969 104.765 76.969 105.043 76.9477 105.32C76.9264 105.597 76.9157 105.864 76.9157 106.12C76.9157 106.269 76.9104 106.435 76.8997 106.616C76.8997 106.787 76.9584 106.931 77.0757 107.048C77.193 107.165 77.3637 107.245 77.5877 107.288C77.8117 107.331 78.057 107.347 78.3237 107.336ZM78.6437 99.656C78.313 99.6453 78.0357 99.64 77.8117 99.64C77.5984 99.6293 77.4277 99.6453 77.2997 99.688C77.1824 99.72 77.097 99.8 77.0437 99.928C77.001 100.045 76.985 100.227 76.9957 100.472C76.9957 100.675 76.9904 100.877 76.9797 101.08C76.9797 101.272 76.9797 101.464 76.9797 101.656C76.9797 101.869 77.049 102.029 77.1877 102.136C77.3264 102.232 77.497 102.291 77.6997 102.312C77.913 102.333 78.1317 102.333 78.3557 102.312C78.5904 102.291 78.793 102.264 78.9637 102.232C79.3477 102.168 79.641 102.04 79.8437 101.848C80.057 101.645 80.1797 101.352 80.2117 100.968C80.2544 100.488 80.1264 100.157 79.8277 99.976C79.5397 99.784 79.145 99.6773 78.6437 99.656ZM93.5979 107.912C93.6086 107.976 93.6139 108.04 93.6139 108.104C93.6246 108.157 93.6299 108.221 93.6299 108.296C93.6299 108.424 93.5926 108.541 93.5179 108.648C93.4859 108.701 93.4433 108.755 93.3899 108.808C93.3366 108.851 93.2726 108.888 93.1979 108.92C92.9313 109.069 92.6486 109.123 92.3499 109.08C92.2006 109.037 92.0673 108.968 91.9499 108.872C91.9286 108.851 91.9126 108.84 91.9019 108.84C91.8913 108.829 91.8806 108.813 91.8699 108.792C91.8593 108.781 91.8486 108.771 91.8379 108.76C91.8273 108.739 91.8113 108.723 91.7899 108.712C91.7366 108.659 91.6939 108.611 91.6619 108.568C91.6299 108.515 91.5979 108.461 91.5659 108.408C91.5446 108.355 91.5179 108.307 91.4859 108.264C91.4646 108.211 91.4379 108.157 91.4059 108.104C91.3846 108.061 91.3633 108.024 91.3419 107.992C91.3206 107.949 91.3046 107.907 91.2939 107.864C91.2513 107.768 91.2246 107.683 91.2139 107.608L90.8779 106.824C90.1419 106.824 89.4059 106.829 88.6699 106.84C87.9446 106.84 87.2139 106.835 86.4779 106.824L86.1419 107.608C86.1206 107.651 86.1046 107.693 86.0939 107.736C86.0939 107.779 86.0833 107.821 86.0619 107.864C86.0406 107.907 86.0193 107.949 85.9979 107.992C85.9873 108.024 85.9713 108.061 85.9499 108.104C85.9179 108.157 85.8859 108.211 85.8539 108.264C85.8326 108.307 85.8059 108.355 85.7739 108.408C85.7526 108.461 85.7259 108.515 85.6939 108.568C85.6619 108.611 85.6193 108.659 85.5659 108.712C85.5446 108.723 85.5286 108.739 85.5179 108.76C85.5073 108.771 85.4966 108.781 85.4859 108.792C85.4753 108.813 85.4646 108.829 85.4539 108.84C85.4433 108.84 85.4273 108.851 85.4059 108.872C85.2886 108.968 85.1553 109.037 85.0059 109.08C84.7073 109.123 84.4246 109.069 84.1579 108.92C84.0833 108.888 84.0193 108.851 83.9659 108.808C83.9126 108.755 83.8699 108.701 83.8379 108.648C83.7633 108.541 83.7259 108.424 83.7259 108.296C83.7259 108.221 83.7259 108.157 83.7259 108.104C83.7366 108.04 83.7473 107.976 83.7579 107.912C83.7793 107.816 83.8059 107.72 83.8379 107.624C83.8699 107.528 83.8859 107.48 83.8859 107.48L87.2139 99.288L87.3099 99.032C87.3313 98.968 87.3579 98.9093 87.3899 98.856C87.4219 98.8027 87.4486 98.7387 87.4699 98.664C87.5233 98.5253 87.5819 98.4027 87.6459 98.296C87.6779 98.232 87.7153 98.1733 87.7579 98.12C87.8006 98.0667 87.8433 98.0133 87.8859 97.96C87.9499 97.8747 88.0406 97.8053 88.1579 97.752C88.3073 97.6987 88.4779 97.672 88.6699 97.672C88.8726 97.672 89.0486 97.6987 89.1979 97.752C89.3153 97.8053 89.4059 97.8747 89.4699 97.96C89.5446 98.056 89.6246 98.168 89.7099 98.296C89.7739 98.4027 89.8326 98.5253 89.8859 98.664C89.9073 98.7387 89.9339 98.8027 89.9659 98.856C89.9979 98.9093 90.0246 98.968 90.0459 99.032L90.1419 99.288L93.4699 107.48C93.4699 107.48 93.4859 107.528 93.5179 107.624C93.5499 107.72 93.5766 107.816 93.5979 107.912ZM89.8059 103.992C89.6673 103.683 89.5233 103.363 89.3739 103.032C89.2353 102.701 89.0859 102.365 88.9259 102.024C88.8833 101.928 88.8406 101.832 88.7979 101.736C88.7553 101.629 88.7126 101.528 88.6699 101.432C88.6379 101.528 88.6006 101.629 88.5579 101.736C88.5153 101.832 88.4726 101.928 88.4299 102.024C88.2699 102.365 88.1153 102.701 87.9659 103.032C87.8273 103.363 87.6886 103.683 87.5499 103.992L87.2619 104.696H90.0939L89.8059 103.992ZM95.4094 107.304L95.4254 106.04L95.4414 103.688C95.4521 103.347 95.4574 102.995 95.4574 102.632C95.4574 102.269 95.4574 101.896 95.4574 101.512C95.4574 101.128 95.4574 100.787 95.4574 100.488C95.4574 100.189 95.4681 99.8533 95.4894 99.48V99.416C95.5001 99.3093 95.5054 99.2027 95.5054 99.096C95.5161 98.9787 95.5214 98.8613 95.5214 98.744C95.5321 98.552 95.5908 98.344 95.6974 98.12C95.7721 97.9707 95.8841 97.8427 96.0334 97.736C96.2041 97.6507 96.3694 97.608 96.5294 97.608C96.6148 97.608 96.6894 97.6133 96.7534 97.624C96.8281 97.624 96.8974 97.6293 96.9614 97.64C97.1001 97.6613 97.2228 97.7253 97.3294 97.832C97.3934 97.8853 97.4521 97.9707 97.5054 98.088C97.5268 98.152 97.5428 98.216 97.5534 98.28C97.5748 98.3333 97.5908 98.392 97.6014 98.456C97.6121 98.5307 97.6174 98.6 97.6174 98.664C97.6281 98.728 97.6334 98.792 97.6334 98.856C97.6334 98.9307 97.6281 99 97.6174 99.064C97.6174 99.1173 97.6174 99.176 97.6174 99.24V99.512L97.5214 107.816V107.976C97.5214 108.008 97.5161 108.051 97.5054 108.104C97.5054 108.147 97.5001 108.2 97.4894 108.264C97.4681 108.317 97.4468 108.376 97.4254 108.44C97.4148 108.493 97.3988 108.552 97.3774 108.616C97.3454 108.669 97.3081 108.723 97.2654 108.776C97.2334 108.819 97.1908 108.861 97.1374 108.904C97.0521 108.989 96.9134 109.048 96.7214 109.08C96.4334 109.144 96.1614 109.117 95.9054 109C95.7774 108.915 95.6868 108.808 95.6334 108.68C95.6014 108.648 95.5854 108.616 95.5854 108.584C95.5748 108.563 95.5641 108.547 95.5534 108.536C95.5428 108.525 95.5321 108.509 95.5214 108.488C95.5001 108.435 95.4841 108.381 95.4734 108.328C95.4628 108.264 95.4574 108.2 95.4574 108.136C95.4468 108.083 95.4361 108.029 95.4254 107.976C95.4254 107.923 95.4201 107.869 95.4094 107.816C95.3988 107.731 95.3988 107.64 95.4094 107.544V107.304ZM108.102 107.784C108.091 107.965 108.064 108.157 108.022 108.36C107.99 108.563 107.888 108.728 107.718 108.856C107.59 108.963 107.446 109.027 107.286 109.048C107.126 109.069 106.966 109.059 106.806 109.016C106.656 108.984 106.512 108.931 106.374 108.856C106.235 108.771 106.123 108.669 106.038 108.552C105.675 108.104 105.339 107.645 105.03 107.176C104.731 106.696 104.427 106.216 104.118 105.736L102.774 103.704C102.592 103.416 102.4 103.096 102.198 102.744C101.995 102.381 101.787 102.045 101.574 101.736L101.526 107.848V107.992C101.526 108.163 101.494 108.333 101.43 108.504C101.376 108.664 101.28 108.803 101.142 108.92C101.035 109.005 100.896 109.064 100.726 109.096C100.459 109.149 100.235 109.133 100.054 109.048C99.8831 108.963 99.7445 108.845 99.6378 108.696C99.5418 108.547 99.4725 108.376 99.4298 108.184C99.3978 107.981 99.3925 107.784 99.4138 107.592V107.32L99.4458 106.072L99.4618 103.752C99.4725 103.411 99.4778 103.064 99.4778 102.712C99.4778 102.349 99.4778 101.981 99.4778 101.608C99.4671 101.149 99.4671 100.664 99.4778 100.152C99.4991 99.64 99.5205 99.16 99.5418 98.712C99.5631 98.4667 99.6218 98.2587 99.7178 98.088C99.7605 97.9387 99.8725 97.8107 100.054 97.704C100.171 97.6293 100.32 97.5813 100.502 97.56C100.694 97.5387 100.859 97.544 100.998 97.576C101.051 97.5973 101.104 97.624 101.158 97.656C101.211 97.6773 101.264 97.704 101.318 97.736C101.371 97.7787 101.419 97.8213 101.462 97.864C101.515 97.9067 101.563 97.9547 101.606 98.008C101.659 98.0613 101.707 98.12 101.75 98.184C101.792 98.2373 101.835 98.2907 101.878 98.344C101.91 98.408 101.942 98.4667 101.974 98.52C102.006 98.5733 102.043 98.6267 102.086 98.68L102.262 98.936L105.958 104.76V103.704C105.958 103.363 105.952 103.016 105.942 102.664C105.942 102.301 105.936 101.928 105.926 101.544C105.926 101.096 105.926 100.616 105.926 100.104C105.936 99.592 105.952 99.112 105.974 98.664C105.974 98.4827 106.027 98.2747 106.134 98.04C106.187 97.9013 106.278 97.7893 106.406 97.704C106.534 97.6187 106.678 97.56 106.838 97.528C106.998 97.496 107.158 97.496 107.318 97.528C107.478 97.56 107.616 97.624 107.734 97.72C107.766 97.752 107.798 97.7893 107.83 97.832C107.862 97.8747 107.888 97.9227 107.91 97.976C107.963 98.1147 107.995 98.2373 108.006 98.344C108.038 98.4933 108.054 98.6267 108.054 98.744C108.054 100.077 108.054 101.437 108.054 102.824C108.064 104.211 108.075 105.571 108.086 106.904C108.086 107.053 108.091 107.203 108.102 107.352C108.112 107.491 108.112 107.635 108.102 107.784Z" fill="white"/>
</g>
<defs>
<clipPath id="clip0">
<rect width="111" height="115" fill="white"/>
</clipPath>
</defs>
</svg>
