<svg width="83" height="122" viewBox="0 0 83 122" fill="none" xmlns="http://www.w3.org/2000/svg">
<g clip-path="url(#clip0)">
<path d="M31.7734 33.584C30.4318 33.584 29.3418 34.8316 29.3418 36.3672C29.3418 37.9028 30.4318 39.1504 31.7734 39.1504C33.1151 39.1504 34.2051 37.9028 34.2051 36.3672C34.2051 34.8316 33.1151 33.584 31.7734 33.584Z" fill="#FAFAFA"/>
<path d="M31.7734 66.9824C30.4318 66.9824 29.3418 68.23 29.3418 69.7656V78.1152H34.2051V69.7656C34.2051 68.23 33.1151 66.9824 31.7734 66.9824Z" fill="#FAFAFA"/>
<path d="M0 83.6816V92.2168C0 93.7539 1.08873 95 2.43164 95H80.5684C81.9113 95 83 93.7539 83 92.2168V83.6816H0Z" fill="#FAFAFA"/>
<path d="M65.8164 66.9824H60.9531V78.1152H65.8164V66.9824Z" fill="#FAFAFA"/>
<path d="M82.0267 56.4067L64.8431 39.7075C63.9787 38.9627 62.7914 38.9627 61.927 39.7075L44.9055 56.4067C44.0673 57.1242 43.7254 58.3772 44.0579 59.5133C44.3878 60.6494 45.3162 61.4159 46.3634 61.4159H48.795V78.1152H56.09V64.1991C56.09 62.6608 57.1776 61.4159 58.5216 61.4159H68.2482C69.5922 61.4159 70.6798 62.6608 70.6798 64.1991V78.1152H77.9747V61.4159H80.5685C81.6157 61.4159 82.5443 60.6494 82.8743 59.5133C83.2068 58.3772 82.8648 57.1242 82.0267 56.4067Z" fill="#FAFAFA"/>
<path d="M52.9458 28.8329L33.4925 6.56729C32.5427 5.48017 31.0038 5.48017 30.054 6.56729L10.6008 28.8329C9.65104 29.92 9.65088 31.6812 10.6008 32.7686C11.5506 33.8557 13.0895 33.8557 14.0393 32.7686L14.7518 31.9531V78.1151H24.4784V69.7655C24.4784 65.1613 27.7507 61.4159 31.7733 61.4159C35.7959 61.4159 39.0682 65.1613 39.0682 69.7655V78.1151H43.9315V66.5067C41.8489 65.6669 40.1676 63.7669 39.4433 61.2691C38.4436 57.8608 39.467 54.11 41.9914 51.9493L48.7948 45.2681V31.9531L49.5073 32.7686C50.4571 33.8557 51.996 33.8557 52.9458 32.7686C53.8956 31.6814 53.8957 29.9202 52.9458 28.8329ZM31.7733 44.7167C27.7507 44.7167 24.4784 40.9712 24.4784 36.367C24.4784 31.7629 27.7507 28.0174 31.7733 28.0174C35.7959 28.0174 39.0682 31.7629 39.0682 36.367C39.0682 40.9712 35.7959 44.7167 31.7733 44.7167Z" fill="#FAFAFA"/>
<path d="M1.66227 44.8609C0.669674 45.2389 0 46.3015 0 47.5001V55.8498H2.43164C3.77569 55.8498 4.86328 57.0946 4.86328 58.633C4.86328 60.1713 3.77569 61.4162 2.43164 61.4162H0V66.9826H2.43164C3.77569 66.9826 4.86328 68.2274 4.86328 69.7658C4.86328 71.3041 3.77569 72.549 2.43164 72.549H0V78.1154H9.88867V41.7842L1.66227 44.8609Z" fill="#FAFAFA"/>
<path d="M82.3947 18.5814C81.2421 13.0998 78.0592 0 73.1113 0C68.1714 0 65.1672 13.0718 64.0669 18.2638C63.5417 22.2714 63.3848 23.2828 63.3848 25.2344C63.3848 31.7469 66.4 33.1943 70.6797 33.4725V38.1145L75.543 42.8816V33.4727C79.8227 33.1943 83 31.7471 83 25.2346C83 23.159 82.7849 21.7095 82.3947 18.5814Z" fill="#FAFAFA"/>
</g>
<path d="M4.12888 104.592L4.09688 107.104H4.73688C5.17421 107.093 5.56354 107.088 5.90488 107.088C6.24621 107.088 6.62488 107.093 7.04088 107.104H7.12088C7.24888 107.104 7.37154 107.109 7.48888 107.12C7.61688 107.12 7.73954 107.12 7.85688 107.12C7.98488 107.131 8.10754 107.152 8.22488 107.184C8.34221 107.205 8.45954 107.232 8.57688 107.264C8.75821 107.328 8.90754 107.424 9.02488 107.552C9.13154 107.691 9.18488 107.845 9.18488 108.016C9.18488 108.069 9.18488 108.133 9.18488 108.208C9.18488 108.272 9.17421 108.331 9.15288 108.384C9.13154 108.501 9.06221 108.608 8.94488 108.704C8.89154 108.779 8.79021 108.832 8.64088 108.864C8.50221 108.907 8.36354 108.933 8.22488 108.944C8.07554 108.976 7.92621 108.992 7.77688 108.992H7.02488L4.06488 109.008L4.03288 112.144L7.21688 112.176H7.96888C8.05421 112.176 8.13421 112.176 8.20888 112.176C8.28354 112.176 8.35288 112.181 8.41688 112.192C8.50221 112.213 8.57688 112.229 8.64088 112.24C8.71554 112.24 8.78488 112.251 8.84888 112.272C8.97688 112.315 9.08354 112.373 9.16888 112.448C9.27554 112.555 9.34488 112.667 9.37687 112.784C9.38754 112.837 9.39288 112.896 9.39288 112.96C9.40354 113.013 9.40354 113.072 9.39288 113.136C9.39288 113.307 9.33954 113.461 9.23288 113.6C9.10488 113.749 8.95554 113.845 8.78488 113.888C8.56088 113.984 8.31554 114.032 8.04888 114.032C7.93154 114.043 7.80888 114.048 7.68088 114.048C7.55288 114.048 7.43021 114.053 7.31288 114.064H7.21688C6.38488 114.085 5.52088 114.085 4.62488 114.064C4.41154 114.064 4.24088 114.059 4.11288 114.048C3.98488 114.048 3.86754 114.048 3.76088 114.048C3.66488 114.048 3.56354 114.048 3.45688 114.048C3.35021 114.048 3.21154 114.048 3.04088 114.048C2.79554 114.069 2.59288 114.027 2.43288 113.92C2.31554 113.845 2.22488 113.744 2.16088 113.616C2.12888 113.584 2.11288 113.552 2.11288 113.52C2.10221 113.499 2.09154 113.483 2.08088 113.472C2.07021 113.461 2.05954 113.445 2.04888 113.424C2.02754 113.371 2.01154 113.317 2.00088 113.264C1.99021 113.2 1.98488 113.141 1.98488 113.088C1.97421 113.035 1.96354 112.981 1.95288 112.928C1.95288 112.875 1.94754 112.821 1.93688 112.768V112.512C1.93688 112.469 1.93688 112.427 1.93688 112.384C1.94754 112.341 1.95288 112.299 1.95288 112.256V111.008L1.98488 108.704V106.576C1.98488 106.192 1.98488 105.851 1.98488 105.552C1.99554 105.253 2.00621 104.928 2.01688 104.576V104.496C2.02754 104.379 2.03288 104.272 2.03288 104.176C2.04354 104.069 2.04888 103.963 2.04888 103.856C2.05954 103.643 2.11821 103.435 2.22488 103.232C2.26754 103.147 2.31021 103.072 2.35287 103.008C2.40621 102.944 2.47554 102.891 2.56088 102.848C2.72088 102.752 2.88621 102.704 3.05688 102.704C3.14221 102.704 3.20621 102.709 3.24888 102.72V102.704C3.44088 102.704 3.59554 102.704 3.71288 102.704C3.83021 102.704 3.94221 102.704 4.04888 102.704C4.16621 102.704 4.28888 102.704 4.41688 102.704C4.54488 102.693 4.72088 102.688 4.94488 102.688C5.37154 102.677 5.77688 102.672 6.16088 102.672C6.54488 102.672 6.93954 102.677 7.34488 102.688H7.40888C7.52621 102.699 7.64888 102.704 7.77688 102.704C7.90488 102.704 8.02754 102.709 8.14488 102.72C8.26221 102.72 8.37954 102.736 8.49688 102.768C8.61421 102.789 8.73154 102.821 8.84888 102.864C9.03021 102.917 9.17954 103.008 9.29688 103.136C9.39288 103.285 9.44088 103.435 9.44088 103.584C9.44088 103.648 9.44088 103.712 9.44088 103.776C9.44088 103.829 9.43021 103.883 9.40888 103.936C9.39821 104.043 9.33421 104.155 9.21688 104.272C9.17421 104.293 9.12621 104.32 9.07288 104.352C9.03021 104.384 8.97688 104.411 8.91288 104.432C8.84888 104.453 8.77954 104.469 8.70488 104.48C8.64088 104.48 8.57688 104.485 8.51288 104.496C8.42754 104.517 8.34754 104.528 8.27288 104.528C8.20888 104.528 8.13421 104.528 8.04888 104.528H7.32888L4.12888 104.544V104.592ZM19.3421 112.528C19.4595 112.741 19.5075 112.928 19.4861 113.088C19.4755 113.248 19.4595 113.381 19.4381 113.488C19.4061 113.605 19.3261 113.707 19.1981 113.792C19.0808 113.867 18.9475 113.925 18.7981 113.968C18.6061 114.021 18.4461 114.032 18.3181 114C18.1581 113.968 18.0248 113.915 17.9181 113.84C17.8541 113.787 17.7955 113.739 17.7421 113.696C17.6888 113.643 17.6355 113.595 17.5821 113.552C17.5288 113.499 17.4808 113.451 17.4381 113.408C17.3955 113.365 17.3635 113.323 17.3421 113.28C17.3208 113.237 17.2995 113.211 17.2781 113.2C17.2675 113.179 17.2568 113.163 17.2461 113.152L15.1181 110.08L13.0061 113.152C12.9955 113.163 12.9795 113.179 12.9581 113.2C12.9475 113.211 12.9261 113.237 12.8941 113.28C12.8728 113.323 12.8408 113.365 12.7981 113.408C12.7661 113.451 12.7288 113.499 12.6861 113.552C12.6328 113.595 12.5741 113.643 12.5101 113.696C12.4461 113.739 12.3875 113.787 12.3341 113.84C12.2701 113.883 12.2008 113.915 12.1261 113.936C12.0621 113.957 11.9981 113.979 11.9341 114C11.7955 114.032 11.6461 114.021 11.4861 113.968C11.1555 113.893 10.9261 113.733 10.7981 113.488C10.7341 113.36 10.7075 113.227 10.7181 113.088C10.7288 112.939 10.7608 112.789 10.8141 112.64C10.8781 112.491 10.9475 112.347 11.0221 112.208C11.1075 112.069 11.1928 111.936 11.2781 111.808C11.3208 111.755 11.3581 111.707 11.3901 111.664C11.4328 111.621 11.4755 111.573 11.5181 111.52C11.6568 111.339 11.7901 111.157 11.9181 110.976C12.0461 110.784 12.1848 110.581 12.3341 110.368L13.8221 108.208L11.6301 105.04L11.4381 104.768C11.3955 104.704 11.3528 104.645 11.3101 104.592C11.2675 104.539 11.2248 104.475 11.1821 104.4C11.1395 104.347 11.0968 104.288 11.0541 104.224C11.0115 104.16 10.9741 104.085 10.9421 104C10.9101 103.936 10.8781 103.877 10.8461 103.824C10.8248 103.76 10.8035 103.685 10.7821 103.6C10.7501 103.472 10.7395 103.355 10.7501 103.248C10.7821 103.109 10.8515 102.992 10.9581 102.896C11.0008 102.843 11.0488 102.8 11.1021 102.768C11.1661 102.736 11.2248 102.704 11.2781 102.672C11.3848 102.629 11.4808 102.597 11.5661 102.576C11.6515 102.555 11.7421 102.544 11.8381 102.544C12.0301 102.555 12.2115 102.624 12.3821 102.752C12.5955 102.891 12.7875 103.061 12.9581 103.264C13.0328 103.381 13.1075 103.493 13.1821 103.6C13.2568 103.696 13.3368 103.797 13.4221 103.904L13.4381 103.968C13.7048 104.32 13.9448 104.661 14.1581 104.992C14.3821 105.312 14.6275 105.653 14.8941 106.016C14.9368 106.069 14.9741 106.123 15.0061 106.176C15.0381 106.229 15.0755 106.283 15.1181 106.336C15.1608 106.283 15.1981 106.229 15.2301 106.176C15.2621 106.123 15.2995 106.069 15.3421 106.016C15.5875 105.653 15.8221 105.312 16.0461 104.992C16.2808 104.661 16.5261 104.32 16.7821 103.968L16.8141 103.904C16.8995 103.797 16.9795 103.696 17.0541 103.6C17.1395 103.493 17.2195 103.381 17.2941 103.264C17.4648 103.061 17.6568 102.891 17.8701 102.752C18.0301 102.624 18.2115 102.555 18.4141 102.544C18.5848 102.544 18.7661 102.587 18.9581 102.672C19.0861 102.747 19.1821 102.821 19.2461 102.896C19.3741 102.992 19.4541 103.109 19.4861 103.248C19.4968 103.355 19.4861 103.472 19.4541 103.6C19.4328 103.685 19.4061 103.76 19.3741 103.824C19.3528 103.877 19.3155 103.936 19.2621 104C19.1981 104.16 19.1288 104.293 19.0541 104.4C19.0115 104.475 18.9688 104.539 18.9261 104.592C18.8835 104.645 18.8461 104.704 18.8141 104.768L18.6221 105.04L16.4141 108.208L17.9021 110.368L18.7661 111.584C18.8621 111.744 18.9581 111.899 19.0541 112.048C19.1501 112.197 19.2461 112.357 19.3421 112.528ZM29.6126 103.168C29.73 103.307 29.7886 103.451 29.7886 103.6C29.7886 103.664 29.7833 103.733 29.7726 103.808C29.7726 103.872 29.7673 103.931 29.7566 103.984C29.7246 104.101 29.6553 104.213 29.5486 104.32C29.4633 104.384 29.346 104.432 29.1966 104.464C29.122 104.485 29.0473 104.501 28.9726 104.512C28.898 104.523 28.818 104.539 28.7326 104.56C28.658 104.571 28.5833 104.576 28.5086 104.576C28.434 104.576 28.354 104.576 28.2686 104.576H27.4526C27.2606 104.587 27.0686 104.592 26.8766 104.592C26.6953 104.592 26.514 104.592 26.3326 104.592C26.3433 104.923 26.3486 105.28 26.3486 105.664C26.3486 106.037 26.3433 106.475 26.3326 106.976C26.3326 107.477 26.3273 108.059 26.3166 108.72C26.3166 109.381 26.3166 110.149 26.3166 111.024V112.24C26.3166 112.347 26.322 112.427 26.3326 112.48C26.3326 112.523 26.3326 112.565 26.3326 112.608C26.3326 112.64 26.3273 112.683 26.3166 112.736C26.2953 112.832 26.2793 112.944 26.2686 113.072C26.2686 113.125 26.2633 113.179 26.2526 113.232C26.242 113.275 26.226 113.323 26.2046 113.376C26.162 113.419 26.1406 113.451 26.1406 113.472L26.0926 113.568C26.0393 113.675 25.938 113.776 25.7886 113.872C25.554 113.989 25.2926 114.016 25.0046 113.952C24.8233 113.931 24.6846 113.883 24.5886 113.808C24.4926 113.712 24.4233 113.616 24.3806 113.52C24.3166 113.403 24.2793 113.291 24.2686 113.184C24.2366 113.088 24.2206 112.987 24.2206 112.88V104.656C24.1566 104.656 24.0233 104.656 23.8206 104.656C23.618 104.656 23.3993 104.656 23.1646 104.656C22.9406 104.645 22.7273 104.635 22.5246 104.624C22.322 104.613 22.1833 104.603 22.1086 104.592C22.0446 104.581 21.9433 104.565 21.8046 104.544C21.6766 104.523 21.57 104.501 21.4846 104.48C21.2606 104.416 21.0846 104.315 20.9566 104.176C20.8393 104.037 20.7806 103.883 20.7806 103.712C20.7806 103.648 20.7806 103.584 20.7806 103.52C20.7806 103.456 20.7913 103.397 20.8126 103.344C20.8446 103.216 20.93 103.109 21.0686 103.024C21.1113 102.992 21.1753 102.955 21.2606 102.912C21.3566 102.859 21.4473 102.821 21.5326 102.8C21.6606 102.757 21.8206 102.725 22.0126 102.704C22.098 102.693 22.1833 102.688 22.2686 102.688C22.354 102.688 22.4446 102.688 22.5406 102.688C22.914 102.688 23.266 102.688 23.5966 102.688C23.938 102.688 24.2953 102.683 24.6686 102.672C25.2873 102.661 25.9006 102.661 26.5086 102.672C27.1273 102.672 27.7406 102.683 28.3486 102.704C28.4873 102.715 28.6206 102.731 28.7486 102.752C28.8766 102.773 29.0046 102.811 29.1326 102.864C29.2286 102.896 29.3193 102.939 29.4046 102.992C29.49 103.035 29.5593 103.093 29.6126 103.168ZM33.2539 104.592L33.2219 107.104H33.8619C34.2992 107.093 34.6885 107.088 35.0299 107.088C35.3712 107.088 35.7499 107.093 36.1659 107.104H36.2459C36.3739 107.104 36.4965 107.109 36.6139 107.12C36.7419 107.12 36.8645 107.12 36.9819 107.12C37.1099 107.131 37.2325 107.152 37.3499 107.184C37.4672 107.205 37.5845 107.232 37.7019 107.264C37.8832 107.328 38.0325 107.424 38.1499 107.552C38.2565 107.691 38.3099 107.845 38.3099 108.016C38.3099 108.069 38.3099 108.133 38.3099 108.208C38.3099 108.272 38.2992 108.331 38.2779 108.384C38.2565 108.501 38.1872 108.608 38.0699 108.704C38.0165 108.779 37.9152 108.832 37.7659 108.864C37.6272 108.907 37.4885 108.933 37.3499 108.944C37.2005 108.976 37.0512 108.992 36.9019 108.992H36.1499L33.1899 109.008L33.1579 112.144L36.3419 112.176H37.0939C37.1792 112.176 37.2592 112.176 37.3339 112.176C37.4085 112.176 37.4779 112.181 37.5419 112.192C37.6272 112.213 37.7019 112.229 37.7659 112.24C37.8405 112.24 37.9099 112.251 37.9739 112.272C38.1019 112.315 38.2085 112.373 38.2939 112.448C38.4005 112.555 38.4699 112.667 38.5019 112.784C38.5125 112.837 38.5179 112.896 38.5179 112.96C38.5285 113.013 38.5285 113.072 38.5179 113.136C38.5179 113.307 38.4645 113.461 38.3579 113.6C38.2299 113.749 38.0805 113.845 37.9099 113.888C37.6859 113.984 37.4405 114.032 37.1739 114.032C37.0565 114.043 36.9339 114.048 36.8059 114.048C36.6779 114.048 36.5552 114.053 36.4379 114.064H36.3419C35.5099 114.085 34.6459 114.085 33.7499 114.064C33.5365 114.064 33.3659 114.059 33.2379 114.048C33.1099 114.048 32.9925 114.048 32.8859 114.048C32.7899 114.048 32.6885 114.048 32.5819 114.048C32.4752 114.048 32.3365 114.048 32.1659 114.048C31.9205 114.069 31.7179 114.027 31.5579 113.92C31.4405 113.845 31.3499 113.744 31.2859 113.616C31.2539 113.584 31.2379 113.552 31.2379 113.52C31.2272 113.499 31.2165 113.483 31.2059 113.472C31.1952 113.461 31.1845 113.445 31.1739 113.424C31.1525 113.371 31.1365 113.317 31.1259 113.264C31.1152 113.2 31.1099 113.141 31.1099 113.088C31.0992 113.035 31.0885 112.981 31.0779 112.928C31.0779 112.875 31.0725 112.821 31.0619 112.768V112.512C31.0619 112.469 31.0619 112.427 31.0619 112.384C31.0725 112.341 31.0779 112.299 31.0779 112.256V111.008L31.1099 108.704V106.576C31.1099 106.192 31.1099 105.851 31.1099 105.552C31.1205 105.253 31.1312 104.928 31.1419 104.576V104.496C31.1525 104.379 31.1579 104.272 31.1579 104.176C31.1685 104.069 31.1739 103.963 31.1739 103.856C31.1845 103.643 31.2432 103.435 31.3499 103.232C31.3925 103.147 31.4352 103.072 31.4779 103.008C31.5312 102.944 31.6005 102.891 31.6859 102.848C31.8459 102.752 32.0112 102.704 32.1819 102.704C32.2672 102.704 32.3312 102.709 32.3739 102.72V102.704C32.5659 102.704 32.7205 102.704 32.8379 102.704C32.9552 102.704 33.0672 102.704 33.1739 102.704C33.2912 102.704 33.4139 102.704 33.5419 102.704C33.6699 102.693 33.8459 102.688 34.0699 102.688C34.4965 102.677 34.9019 102.672 35.2859 102.672C35.6699 102.672 36.0645 102.677 36.4699 102.688H36.5339C36.6512 102.699 36.7739 102.704 36.9019 102.704C37.0299 102.704 37.1525 102.709 37.2699 102.72C37.3872 102.72 37.5045 102.736 37.6219 102.768C37.7392 102.789 37.8565 102.821 37.9739 102.864C38.1552 102.917 38.3045 103.008 38.4219 103.136C38.5179 103.285 38.5659 103.435 38.5659 103.584C38.5659 103.648 38.5659 103.712 38.5659 103.776C38.5659 103.829 38.5552 103.883 38.5339 103.936C38.5232 104.043 38.4592 104.155 38.3419 104.272C38.2992 104.293 38.2512 104.32 38.1979 104.352C38.1552 104.384 38.1019 104.411 38.0379 104.432C37.9739 104.453 37.9045 104.469 37.8299 104.48C37.7659 104.48 37.7019 104.485 37.6379 104.496C37.5525 104.517 37.4725 104.528 37.3979 104.528C37.3339 104.528 37.2592 104.528 37.1739 104.528H36.4539L33.2539 104.544V104.592ZM48.0991 113.296C48.1098 113.403 48.0991 113.504 48.0671 113.6C48.0458 113.664 48.0138 113.717 47.9711 113.76C47.9391 113.803 47.8965 113.845 47.8431 113.888C47.7471 113.952 47.6298 114.011 47.4911 114.064C47.4058 114.085 47.3205 114.101 47.2351 114.112C47.1605 114.133 47.0805 114.133 46.9951 114.112C46.8245 114.101 46.6751 114.037 46.5471 113.92C46.3658 113.771 46.2165 113.605 46.0991 113.424C46.0458 113.339 45.9871 113.243 45.9231 113.136C45.8591 113.029 45.8005 112.917 45.7471 112.8L43.9711 109.424C43.8858 109.424 43.8005 109.429 43.7151 109.44C43.6298 109.44 43.5445 109.445 43.4591 109.456C43.2351 109.477 43.0218 109.483 42.8191 109.472C42.6271 109.461 42.4245 109.461 42.2111 109.472H41.9071V112.368C41.9071 112.453 41.9018 112.533 41.8911 112.608C41.8911 112.683 41.8911 112.763 41.8911 112.848C41.8911 112.901 41.8858 112.971 41.8751 113.056C41.8751 113.141 41.8698 113.221 41.8591 113.296C41.8378 113.413 41.7898 113.536 41.7151 113.664C41.6405 113.781 41.5391 113.883 41.4111 113.968C41.1871 114.107 40.9151 114.144 40.5951 114.08C40.4565 114.048 40.3231 113.995 40.1951 113.92C40.1525 113.888 40.1151 113.851 40.0831 113.808C40.0511 113.755 40.0245 113.701 40.0031 113.648C39.9818 113.595 39.9605 113.541 39.9391 113.488C39.9285 113.424 39.9125 113.365 39.8911 113.312C39.8591 113.205 39.8431 113.104 39.8431 113.008V103.92C39.8431 103.856 39.8431 103.792 39.8431 103.728C39.8538 103.653 39.8645 103.589 39.8751 103.536C39.8858 103.419 39.9231 103.301 39.9871 103.184C40.0191 103.056 40.0725 102.965 40.1471 102.912C40.2111 102.848 40.3071 102.795 40.4351 102.752C40.5738 102.699 40.7711 102.677 41.0271 102.688C41.5071 102.699 41.9818 102.704 42.4511 102.704C42.9205 102.704 43.3898 102.715 43.8591 102.736C44.1685 102.757 44.4938 102.795 44.8351 102.848C45.1871 102.891 45.5125 102.971 45.8111 103.088C46.0031 103.163 46.1791 103.237 46.3391 103.312C46.5418 103.429 46.7018 103.541 46.8191 103.648C47.1925 103.989 47.4751 104.4 47.6671 104.88C47.8591 105.36 47.9551 105.845 47.9551 106.336C47.9551 106.912 47.8165 107.44 47.5391 107.92C47.2725 108.4 46.8405 108.757 46.2431 108.992C46.2218 109.013 46.1898 109.029 46.1471 109.04C46.1151 109.04 46.0885 109.045 46.0671 109.056L47.5391 112.016L47.6831 112.272C47.7045 112.315 47.7311 112.363 47.7631 112.416C47.7951 112.469 47.8218 112.523 47.8431 112.576C47.8751 112.629 47.9018 112.688 47.9231 112.752C47.9551 112.816 47.9871 112.875 48.0191 112.928C48.0511 113.077 48.0778 113.2 48.0991 113.296ZM44.0991 107.6C44.2911 107.6 44.4725 107.568 44.6431 107.504C44.8245 107.429 44.9845 107.333 45.1231 107.216C45.2725 107.099 45.3951 106.965 45.4911 106.816C45.5871 106.656 45.6405 106.485 45.6511 106.304C45.6938 105.771 45.5551 105.376 45.2351 105.12C44.9151 104.853 44.4938 104.709 43.9711 104.688C43.6618 104.667 43.3205 104.656 42.9471 104.656C42.5845 104.656 42.2378 104.656 41.9071 104.656C41.9178 105.093 41.9178 105.541 41.9071 106C41.9071 106.448 41.9071 106.981 41.9071 107.6H44.0991ZM49.886 112.304L49.902 111.04L49.918 108.688C49.9287 108.347 49.934 107.995 49.934 107.632C49.934 107.269 49.934 106.896 49.934 106.512C49.934 106.128 49.934 105.787 49.934 105.488C49.934 105.189 49.9447 104.853 49.966 104.48V104.416C49.9767 104.309 49.982 104.203 49.982 104.096C49.9927 103.979 49.998 103.861 49.998 103.744C50.0087 103.552 50.0673 103.344 50.174 103.12C50.2487 102.971 50.3607 102.843 50.51 102.736C50.6807 102.651 50.846 102.608 51.006 102.608C51.0913 102.608 51.166 102.613 51.23 102.624C51.3047 102.624 51.374 102.629 51.438 102.64C51.5767 102.661 51.6993 102.725 51.806 102.832C51.87 102.885 51.9287 102.971 51.982 103.088C52.0033 103.152 52.0193 103.216 52.03 103.28C52.0513 103.333 52.0673 103.392 52.078 103.456C52.0887 103.531 52.094 103.6 52.094 103.664C52.1047 103.728 52.11 103.792 52.11 103.856C52.11 103.931 52.1047 104 52.094 104.064C52.094 104.117 52.094 104.176 52.094 104.24V104.512L51.998 112.816V112.976C51.998 113.008 51.9927 113.051 51.982 113.104C51.982 113.147 51.9767 113.2 51.966 113.264C51.9447 113.317 51.9233 113.376 51.902 113.44C51.8913 113.493 51.8753 113.552 51.854 113.616C51.822 113.669 51.7847 113.723 51.742 113.776C51.71 113.819 51.6673 113.861 51.614 113.904C51.5287 113.989 51.39 114.048 51.198 114.08C50.91 114.144 50.638 114.117 50.382 114C50.254 113.915 50.1633 113.808 50.11 113.68C50.078 113.648 50.062 113.616 50.062 113.584C50.0513 113.563 50.0407 113.547 50.03 113.536C50.0193 113.525 50.0087 113.509 49.998 113.488C49.9767 113.435 49.9607 113.381 49.95 113.328C49.9393 113.264 49.934 113.2 49.934 113.136C49.9233 113.083 49.9127 113.029 49.902 112.976C49.902 112.923 49.8967 112.869 49.886 112.816C49.8753 112.731 49.8753 112.64 49.886 112.544V112.304ZM56.0664 104.592L56.0344 107.104H56.6744C57.1117 107.093 57.501 107.088 57.8424 107.088C58.1837 107.088 58.5624 107.093 58.9784 107.104H59.0584C59.1864 107.104 59.309 107.109 59.4264 107.12C59.5544 107.12 59.677 107.12 59.7944 107.12C59.9224 107.131 60.045 107.152 60.1624 107.184C60.2797 107.205 60.397 107.232 60.5144 107.264C60.6957 107.328 60.845 107.424 60.9624 107.552C61.069 107.691 61.1224 107.845 61.1224 108.016C61.1224 108.069 61.1224 108.133 61.1224 108.208C61.1224 108.272 61.1117 108.331 61.0904 108.384C61.069 108.501 60.9997 108.608 60.8824 108.704C60.829 108.779 60.7277 108.832 60.5784 108.864C60.4397 108.907 60.301 108.933 60.1624 108.944C60.013 108.976 59.8637 108.992 59.7144 108.992H58.9624L56.0024 109.008L55.9704 112.144L59.1544 112.176H59.9064C59.9917 112.176 60.0717 112.176 60.1464 112.176C60.221 112.176 60.2904 112.181 60.3544 112.192C60.4397 112.213 60.5144 112.229 60.5784 112.24C60.653 112.24 60.7224 112.251 60.7864 112.272C60.9144 112.315 61.021 112.373 61.1064 112.448C61.213 112.555 61.2824 112.667 61.3144 112.784C61.325 112.837 61.3304 112.896 61.3304 112.96C61.341 113.013 61.341 113.072 61.3304 113.136C61.3304 113.307 61.277 113.461 61.1704 113.6C61.0424 113.749 60.893 113.845 60.7224 113.888C60.4984 113.984 60.253 114.032 59.9864 114.032C59.869 114.043 59.7464 114.048 59.6184 114.048C59.4904 114.048 59.3677 114.053 59.2504 114.064H59.1544C58.3224 114.085 57.4584 114.085 56.5624 114.064C56.349 114.064 56.1784 114.059 56.0504 114.048C55.9224 114.048 55.805 114.048 55.6984 114.048C55.6024 114.048 55.501 114.048 55.3944 114.048C55.2877 114.048 55.149 114.048 54.9784 114.048C54.733 114.069 54.5304 114.027 54.3704 113.92C54.253 113.845 54.1624 113.744 54.0984 113.616C54.0664 113.584 54.0504 113.552 54.0504 113.52C54.0397 113.499 54.029 113.483 54.0184 113.472C54.0077 113.461 53.997 113.445 53.9864 113.424C53.965 113.371 53.949 113.317 53.9384 113.264C53.9277 113.2 53.9224 113.141 53.9224 113.088C53.9117 113.035 53.901 112.981 53.8904 112.928C53.8904 112.875 53.885 112.821 53.8744 112.768V112.512C53.8744 112.469 53.8744 112.427 53.8744 112.384C53.885 112.341 53.8904 112.299 53.8904 112.256V111.008L53.9224 108.704V106.576C53.9224 106.192 53.9224 105.851 53.9224 105.552C53.933 105.253 53.9437 104.928 53.9544 104.576V104.496C53.965 104.379 53.9704 104.272 53.9704 104.176C53.981 104.069 53.9864 103.963 53.9864 103.856C53.997 103.643 54.0557 103.435 54.1624 103.232C54.205 103.147 54.2477 103.072 54.2904 103.008C54.3437 102.944 54.413 102.891 54.4984 102.848C54.6584 102.752 54.8237 102.704 54.9944 102.704C55.0797 102.704 55.1437 102.709 55.1864 102.72V102.704C55.3784 102.704 55.533 102.704 55.6504 102.704C55.7677 102.704 55.8797 102.704 55.9864 102.704C56.1037 102.704 56.2264 102.704 56.3544 102.704C56.4824 102.693 56.6584 102.688 56.8824 102.688C57.309 102.677 57.7144 102.672 58.0984 102.672C58.4824 102.672 58.877 102.677 59.2824 102.688H59.3464C59.4637 102.699 59.5864 102.704 59.7144 102.704C59.8424 102.704 59.965 102.709 60.0824 102.72C60.1997 102.72 60.317 102.736 60.4344 102.768C60.5517 102.789 60.669 102.821 60.7864 102.864C60.9677 102.917 61.117 103.008 61.2344 103.136C61.3304 103.285 61.3784 103.435 61.3784 103.584C61.3784 103.648 61.3784 103.712 61.3784 103.776C61.3784 103.829 61.3677 103.883 61.3464 103.936C61.3357 104.043 61.2717 104.155 61.1544 104.272C61.1117 104.293 61.0637 104.32 61.0104 104.352C60.9677 104.384 60.9144 104.411 60.8504 104.432C60.7864 104.453 60.717 104.469 60.6424 104.48C60.5784 104.48 60.5144 104.485 60.4504 104.496C60.365 104.517 60.285 104.528 60.2104 104.528C60.1464 104.528 60.0717 104.528 59.9864 104.528H59.2664L56.0664 104.544V104.592ZM71.3916 103.552C71.4556 104.064 71.493 104.661 71.5036 105.344C71.5143 106.016 71.5036 106.699 71.4716 107.392C71.4503 108.075 71.4023 108.725 71.3276 109.344C71.253 109.952 71.1623 110.443 71.0556 110.816C70.981 111.04 70.8903 111.275 70.7836 111.52C70.6876 111.755 70.581 111.968 70.4636 112.16C70.293 112.448 70.085 112.704 69.8396 112.928C69.5943 113.141 69.3223 113.328 69.0236 113.488C68.7356 113.637 68.4263 113.755 68.0956 113.84C67.7756 113.925 67.4556 113.973 67.1356 113.984C66.5703 114.005 66.0316 113.925 65.5196 113.744C65.0183 113.552 64.5543 113.253 64.1276 112.848C63.8076 112.539 63.5516 112.208 63.3596 111.856C63.1676 111.504 63.0183 111.136 62.9116 110.752C62.805 110.357 62.7356 109.952 62.7036 109.536C62.6823 109.12 62.6716 108.693 62.6716 108.256C62.6716 108.053 62.6663 107.803 62.6556 107.504C62.6556 107.195 62.6556 106.88 62.6556 106.56C62.6556 106.229 62.6556 105.909 62.6556 105.6C62.6556 105.291 62.661 105.029 62.6716 104.816C62.6716 104.677 62.6716 104.528 62.6716 104.368C62.6716 104.197 62.677 104.032 62.6876 103.872C62.709 103.701 62.741 103.541 62.7836 103.392C62.8263 103.232 62.8903 103.088 62.9756 102.96C63.0716 102.821 63.205 102.72 63.3756 102.656C63.5463 102.592 63.7223 102.56 63.9036 102.56C64.0956 102.56 64.277 102.597 64.4476 102.672C64.6183 102.747 64.757 102.853 64.8636 102.992C64.917 103.077 64.9543 103.163 64.9756 103.248C64.997 103.333 65.013 103.429 65.0236 103.536C65.045 103.888 65.0556 104.288 65.0556 104.736C65.0663 105.184 65.0663 105.621 65.0556 106.048C65.0556 106.464 65.0503 106.848 65.0396 107.2C65.029 107.552 65.0236 107.813 65.0236 107.984C65.0236 108.624 65.0556 109.205 65.1196 109.728C65.1836 110.24 65.333 110.667 65.5676 111.008C65.781 111.317 66.0316 111.515 66.3196 111.6C66.6076 111.685 66.8956 111.712 67.1836 111.68C67.4503 111.648 67.717 111.552 67.9836 111.392C68.261 111.221 68.4796 110.976 68.6396 110.656C68.7036 110.539 68.757 110.405 68.7996 110.256C68.8423 110.107 68.8743 109.968 68.8956 109.84C68.9383 109.435 68.9756 108.965 69.0076 108.432C69.0396 107.888 69.0663 107.333 69.0876 106.768C69.109 106.203 69.1196 105.648 69.1196 105.104C69.1196 104.56 69.1143 104.069 69.1036 103.632C69.125 103.44 69.1836 103.264 69.2796 103.104C69.365 102.965 69.4876 102.843 69.6476 102.736C69.8076 102.629 70.0263 102.576 70.3036 102.576C70.5276 102.587 70.709 102.645 70.8476 102.752C70.9863 102.848 71.0983 102.955 71.1836 103.072C71.2796 103.211 71.349 103.371 71.3916 103.552ZM81.0523 113.296C81.0629 113.403 81.0523 113.504 81.0203 113.6C80.9989 113.664 80.9669 113.717 80.9243 113.76C80.8923 113.803 80.8496 113.845 80.7963 113.888C80.7003 113.952 80.5829 114.011 80.4443 114.064C80.3589 114.085 80.2736 114.101 80.1883 114.112C80.1136 114.133 80.0336 114.133 79.9483 114.112C79.7776 114.101 79.6283 114.037 79.5003 113.92C79.3189 113.771 79.1696 113.605 79.0523 113.424C78.9989 113.339 78.9403 113.243 78.8763 113.136C78.8123 113.029 78.7536 112.917 78.7003 112.8L76.9243 109.424C76.8389 109.424 76.7536 109.429 76.6683 109.44C76.5829 109.44 76.4976 109.445 76.4123 109.456C76.1883 109.477 75.9749 109.483 75.7723 109.472C75.5803 109.461 75.3776 109.461 75.1643 109.472H74.8603V112.368C74.8603 112.453 74.8549 112.533 74.8443 112.608C74.8443 112.683 74.8443 112.763 74.8443 112.848C74.8443 112.901 74.8389 112.971 74.8283 113.056C74.8283 113.141 74.8229 113.221 74.8123 113.296C74.7909 113.413 74.7429 113.536 74.6683 113.664C74.5936 113.781 74.4923 113.883 74.3643 113.968C74.1403 114.107 73.8683 114.144 73.5483 114.08C73.4096 114.048 73.2763 113.995 73.1483 113.92C73.1056 113.888 73.0683 113.851 73.0363 113.808C73.0043 113.755 72.9776 113.701 72.9563 113.648C72.9349 113.595 72.9136 113.541 72.8923 113.488C72.8816 113.424 72.8656 113.365 72.8443 113.312C72.8123 113.205 72.7963 113.104 72.7963 113.008V103.92C72.7963 103.856 72.7963 103.792 72.7963 103.728C72.8069 103.653 72.8176 103.589 72.8283 103.536C72.8389 103.419 72.8763 103.301 72.9403 103.184C72.9723 103.056 73.0256 102.965 73.1003 102.912C73.1643 102.848 73.2603 102.795 73.3883 102.752C73.5269 102.699 73.7243 102.677 73.9803 102.688C74.4603 102.699 74.9349 102.704 75.4043 102.704C75.8736 102.704 76.3429 102.715 76.8123 102.736C77.1216 102.757 77.4469 102.795 77.7883 102.848C78.1403 102.891 78.4656 102.971 78.7643 103.088C78.9563 103.163 79.1323 103.237 79.2923 103.312C79.4949 103.429 79.6549 103.541 79.7723 103.648C80.1456 103.989 80.4283 104.4 80.6203 104.88C80.8123 105.36 80.9083 105.845 80.9083 106.336C80.9083 106.912 80.7696 107.44 80.4923 107.92C80.2256 108.4 79.7936 108.757 79.1963 108.992C79.1749 109.013 79.1429 109.029 79.1003 109.04C79.0683 109.04 79.0416 109.045 79.0203 109.056L80.4923 112.016L80.6363 112.272C80.6576 112.315 80.6843 112.363 80.7163 112.416C80.7483 112.469 80.7749 112.523 80.7963 112.576C80.8283 112.629 80.8549 112.688 80.8763 112.752C80.9083 112.816 80.9403 112.875 80.9722 112.928C81.0043 113.077 81.0309 113.2 81.0523 113.296ZM77.0523 107.6C77.2443 107.6 77.4256 107.568 77.5963 107.504C77.7776 107.429 77.9376 107.333 78.0763 107.216C78.2256 107.099 78.3483 106.965 78.4443 106.816C78.5403 106.656 78.5936 106.485 78.6043 106.304C78.6469 105.771 78.5083 105.376 78.1883 105.12C77.8683 104.853 77.4469 104.709 76.9243 104.688C76.6149 104.667 76.2736 104.656 75.9003 104.656C75.5376 104.656 75.1909 104.656 74.8603 104.656C74.8709 105.093 74.8709 105.541 74.8603 106C74.8603 106.448 74.8603 106.981 74.8603 107.6H77.0523Z" fill="#FAFAFA"/>
<defs>
<clipPath id="clip0">
<rect width="83" height="95" fill="white"/>
</clipPath>
</defs>
</svg>
