<svg width="75" height="75" viewBox="0 0 75 75" fill="none" xmlns="http://www.w3.org/2000/svg">
<path d="M29.8203 24.8651C28.8989 24.8651 28.1504 25.4173 28.1504 26.097C28.1504 26.7767 28.8989 27.3289 29.8203 27.3289C30.7417 27.3289 31.4903 26.7767 31.4903 26.097C31.4903 25.4173 30.7417 24.8651 29.8203 24.8651Z" fill="#FAFAFA"/>
<path d="M29.8203 39.648C28.8989 39.648 28.1504 40.2002 28.1504 40.8799V44.5756H31.4903V40.8799C31.4903 40.2002 30.7417 39.648 29.8203 39.648Z" fill="#FAFAFA"/>
<path d="M8 47.0394V50.8173C8 51.4976 8.74768 52.0492 9.66992 52.0492H63.3301C64.2523 52.0492 65 51.4976 65 50.8173V47.0394H8Z" fill="#FAFAFA"/>
<path d="M53.1993 39.648H49.8594V44.5756H53.1993V39.648Z" fill="#FAFAFA"/>
<path d="M64.3314 34.9669L52.5308 27.5754C51.9371 27.2458 51.1218 27.2458 50.5282 27.5754L38.8387 34.9669C38.263 35.2845 38.0283 35.8391 38.2566 36.3419C38.4831 36.8448 39.1207 37.1841 39.8399 37.1841H41.5098V44.5756H46.5196V38.416C46.5196 37.7351 47.2665 37.1841 48.1895 37.1841H54.8692C55.7922 37.1841 56.5391 37.7351 56.5391 38.416V44.5756H61.5487V37.1841H63.3301C64.0495 37.1841 64.6873 36.8448 64.9137 36.3419C65.1417 35.8391 64.9071 35.2845 64.3314 34.9669Z" fill="#FAFAFA"/>
<path d="M44.3604 22.7621L31.0008 12.9068C30.3486 12.4256 29.2918 12.4256 28.6395 12.9068L15.28 22.7621C14.6278 23.2432 14.6277 24.0228 15.28 24.5041C15.9323 24.9853 16.9892 24.9853 17.6414 24.5041L18.1308 24.1432V44.5755H24.8104V40.8798C24.8104 38.8419 27.0577 37.1841 29.8202 37.1841C32.5827 37.1841 34.83 38.8419 34.83 40.8798V44.5755H38.1698V39.4374C36.7396 39.0657 35.585 38.2247 35.0875 37.1191C34.401 35.6105 35.1038 33.9503 36.8374 32.994L41.5097 30.0367V24.1432L41.999 24.5041C42.6512 24.9853 43.7081 24.9853 44.3604 24.5041C45.0126 24.0229 45.0127 23.2433 44.3604 22.7621ZM29.8202 29.7926C27.0577 29.7926 24.8104 28.1348 24.8104 26.0968C24.8104 24.059 27.0577 22.4011 29.8202 22.4011C32.5827 22.4011 34.83 24.059 34.83 26.0968C34.83 28.1348 32.5827 29.7926 29.8202 29.7926Z" fill="#FAFAFA"/>
<path d="M9.14156 29.8565C8.4599 30.0238 8 30.4941 8 31.0246V34.7204H9.66992C10.5929 34.7204 11.3398 35.2714 11.3398 35.9523C11.3398 36.6332 10.5929 37.1842 9.66992 37.1842H8V39.648H9.66992C10.5929 39.648 11.3398 40.199 11.3398 40.8799C11.3398 41.5608 10.5929 42.1118 9.66992 42.1118H8V44.5756H14.791V28.4946L9.14156 29.8565Z" fill="#FAFAFA"/>
<path d="M64.5841 18.2246C63.7927 15.7983 61.6067 10 58.2089 10C54.8165 10 52.7534 15.7859 51.9977 18.084C51.637 19.8578 51.5293 20.3055 51.5293 21.1693C51.5293 24.0519 53.6 24.6926 56.539 24.8157V26.8704L59.8787 28.9804V24.8158C62.8181 24.6926 65 24.052 65 21.1694C65 20.2507 64.8521 19.6091 64.5841 18.2246Z" fill="#FAFAFA"/>
<path d="M16.2441 55.9617L16.2259 57.1412H16.5892C16.8374 57.1361 17.0583 57.1337 17.2521 57.1337C17.4458 57.1337 17.6608 57.1361 17.8969 57.1412H17.9423C18.0149 57.1412 18.0845 57.1436 18.1511 57.1487C18.2238 57.1487 18.2934 57.1487 18.36 57.1487C18.4326 57.1539 18.5022 57.1638 18.5689 57.1788C18.6354 57.1886 18.702 57.2013 18.7686 57.2163C18.8715 57.2464 18.9563 57.2915 19.0229 57.3516C19.0834 57.4169 19.1137 57.4892 19.1137 57.5695C19.1137 57.5943 19.1137 57.6244 19.1137 57.6596C19.1137 57.6897 19.1077 57.7174 19.0956 57.7423C19.0834 57.7972 19.0441 57.8474 18.9775 57.8925C18.9472 57.9277 18.8897 57.9526 18.805 57.9677C18.7263 57.9878 18.6475 58.0001 18.5689 58.0052C18.4841 58.0202 18.3993 58.0278 18.3146 58.0278H17.8878L16.2078 58.0353L16.1896 59.5078L17.9968 59.5229H18.4236C18.472 59.5229 18.5174 59.5229 18.5598 59.5229C18.6021 59.5229 18.6415 59.5252 18.6778 59.5304C18.7263 59.5402 18.7686 59.5477 18.805 59.5529C18.8473 59.5529 18.8867 59.5581 18.923 59.5679C18.9957 59.5881 19.0562 59.6154 19.1046 59.6506C19.1652 59.7008 19.2045 59.7534 19.2227 59.8083C19.2287 59.8332 19.2318 59.8609 19.2318 59.891C19.2378 59.9159 19.2378 59.9436 19.2318 59.9736C19.2318 60.0539 19.2015 60.1262 19.141 60.1915C19.0683 60.2615 18.9835 60.3066 18.8867 60.3267C18.7596 60.3718 18.6203 60.3944 18.469 60.3944C18.4023 60.3995 18.3328 60.4019 18.2601 60.4019C18.1875 60.4019 18.1178 60.4042 18.0512 60.4094H17.9968C17.5245 60.4193 17.0342 60.4193 16.5256 60.4094C16.4045 60.4094 16.3077 60.407 16.235 60.4019C16.1624 60.4019 16.0957 60.4019 16.0352 60.4019C15.9808 60.4019 15.9232 60.4019 15.8627 60.4019C15.8021 60.4019 15.7234 60.4019 15.6266 60.4019C15.4873 60.4117 15.3723 60.392 15.2815 60.3418C15.2149 60.3066 15.1635 60.2591 15.1271 60.199C15.109 60.184 15.0999 60.169 15.0999 60.1539C15.0938 60.1441 15.0877 60.1366 15.0817 60.1314C15.0757 60.1262 15.0696 60.1187 15.0636 60.1089C15.0514 60.084 15.0423 60.0586 15.0363 60.0337C15.0303 60.0037 15.0272 59.976 15.0272 59.9511C15.0212 59.9262 15.0151 59.9009 15.0091 59.876C15.0091 59.8511 15.006 59.8257 15 59.8008V59.6806C15 59.6604 15 59.6407 15 59.6205C15.006 59.6003 15.0091 59.5806 15.0091 59.5604V58.9744L15.0272 57.8925V56.8933C15.0272 56.713 15.0272 56.5529 15.0272 56.4125C15.0333 56.2721 15.0393 56.1194 15.0454 55.9542V55.9166C15.0514 55.8615 15.0545 55.8114 15.0545 55.7663C15.0605 55.7162 15.0636 55.6662 15.0636 55.6161C15.0696 55.5159 15.1029 55.4182 15.1635 55.3231C15.1876 55.283 15.2119 55.2479 15.2361 55.2179C15.2664 55.1878 15.3057 55.1628 15.3542 55.1427C15.445 55.0977 15.5388 55.0751 15.6357 55.0751C15.6841 55.0751 15.7204 55.0776 15.7446 55.0826V55.0751C15.8536 55.0751 15.9414 55.0751 16.008 55.0751C16.0746 55.0751 16.1381 55.0751 16.1987 55.0751C16.2653 55.0751 16.3349 55.0751 16.4076 55.0751C16.4802 55.0701 16.5801 55.0676 16.7072 55.0676C16.9494 55.0626 17.1795 55.0601 17.3974 55.0601C17.6154 55.0601 17.8393 55.0626 18.0694 55.0676H18.1057C18.1723 55.0726 18.2419 55.0751 18.3146 55.0751C18.3872 55.0751 18.4568 55.0776 18.5235 55.0826C18.59 55.0826 18.6566 55.0902 18.7232 55.1052C18.7898 55.1152 18.8564 55.1302 18.923 55.1503C19.0259 55.1753 19.1107 55.2179 19.1773 55.278C19.2318 55.3481 19.259 55.4182 19.259 55.4883C19.259 55.5184 19.259 55.5485 19.259 55.5785C19.259 55.6035 19.253 55.6286 19.2409 55.6536C19.2348 55.7037 19.1985 55.7563 19.1319 55.8114C19.1077 55.8214 19.0804 55.8339 19.0502 55.849C19.0259 55.864 18.9957 55.8765 18.9594 55.8865C18.923 55.8965 18.8836 55.9041 18.8413 55.9091C18.805 55.9091 18.7686 55.9116 18.7323 55.9166C18.6839 55.9266 18.6384 55.9316 18.5961 55.9316C18.5598 55.9316 18.5174 55.9316 18.469 55.9316H18.0603L16.2441 55.9391V55.9617ZM24.8786 59.6881C24.9453 59.7882 24.9725 59.876 24.9604 59.9511C24.9543 60.0262 24.9453 60.0887 24.9331 60.1389C24.915 60.1939 24.8695 60.2418 24.7969 60.2817C24.7303 60.3169 24.6547 60.3441 24.5699 60.3643C24.4609 60.3892 24.3701 60.3944 24.2974 60.3793C24.2066 60.3643 24.131 60.3394 24.0704 60.3042C24.0341 60.2793 24.0008 60.2568 23.9705 60.2366C23.9403 60.2117 23.91 60.1892 23.8797 60.169C23.8495 60.1441 23.8222 60.1215 23.798 60.1014C23.7738 60.0812 23.7556 60.0614 23.7435 60.0413C23.7314 60.0211 23.7193 60.0089 23.7072 60.0037C23.7012 59.9938 23.6951 59.9863 23.689 59.9811L22.4812 58.5386L21.2825 59.9811C21.2765 59.9863 21.2674 59.9938 21.2553 60.0037C21.2493 60.0089 21.2371 60.0211 21.219 60.0413C21.2069 60.0614 21.1887 60.0812 21.1645 60.1014C21.1463 60.1215 21.1251 60.1441 21.1009 60.169C21.0706 60.1892 21.0373 60.2117 21.001 60.2366C20.9647 60.2568 20.9314 60.2793 20.9011 60.3042C20.8648 60.3244 20.8255 60.3394 20.7831 60.3493C20.7467 60.3591 20.7104 60.3695 20.6741 60.3793C20.5954 60.3944 20.5106 60.3892 20.4198 60.3643C20.2322 60.3291 20.102 60.254 20.0293 60.1389C19.993 60.0788 19.9779 60.0164 19.9839 59.9511C19.99 59.8811 20.0082 59.8107 20.0384 59.7407C20.0747 59.6708 20.1141 59.6031 20.1565 59.5379C20.2049 59.4726 20.2533 59.4102 20.3018 59.3501C20.326 59.3252 20.3472 59.3026 20.3653 59.2824C20.3896 59.2622 20.4138 59.2397 20.438 59.2148C20.5167 59.1298 20.5924 59.0444 20.665 58.9594C20.7377 58.8692 20.8164 58.7739 20.9011 58.6739L21.7457 57.6596L20.5015 56.172L20.3926 56.0443C20.3684 56.0143 20.3442 55.9867 20.3199 55.9617C20.2957 55.9366 20.2715 55.9066 20.2473 55.8715C20.2231 55.8465 20.1989 55.8189 20.1746 55.7889C20.1504 55.7588 20.1292 55.7237 20.1111 55.6837C20.0929 55.6536 20.0747 55.6261 20.0566 55.601C20.0445 55.571 20.0324 55.5359 20.0202 55.4959C20.0021 55.4358 19.9961 55.3807 20.0021 55.3306C20.0202 55.2654 20.0596 55.2104 20.1201 55.1653C20.1444 55.1403 20.1716 55.1202 20.2019 55.1052C20.2382 55.0902 20.2715 55.0751 20.3018 55.0601C20.3623 55.0401 20.4168 55.025 20.4652 55.015C20.5137 55.005 20.5651 55 20.6196 55C20.7286 55.005 20.8315 55.0376 20.9284 55.0977C21.0495 55.1628 21.1584 55.2429 21.2553 55.3381C21.2977 55.3932 21.3401 55.4458 21.3824 55.4959C21.4248 55.5409 21.4702 55.5885 21.5186 55.6386L21.5277 55.6687C21.6791 55.8339 21.8153 55.9942 21.9364 56.1495C22.0635 56.2998 22.2028 56.4599 22.3541 56.6303C22.3783 56.6552 22.3995 56.6806 22.4177 56.7055C22.4358 56.7303 22.457 56.7557 22.4812 56.7806C22.5055 56.7557 22.5266 56.7303 22.5448 56.7055C22.563 56.6806 22.5842 56.6552 22.6084 56.6303C22.7476 56.4599 22.8808 56.2998 23.0079 56.1495C23.1411 55.9942 23.2804 55.8339 23.4257 55.6687L23.4438 55.6386C23.4923 55.5885 23.5377 55.5409 23.58 55.4959C23.6285 55.4458 23.6739 55.3932 23.7162 55.3381C23.8131 55.2429 23.9221 55.1628 24.0432 55.0977C24.134 55.0376 24.2369 55.005 24.3519 55C24.4488 55 24.5517 55.02 24.6607 55.0601C24.7333 55.0952 24.7878 55.1302 24.8241 55.1653C24.8968 55.2104 24.9422 55.2654 24.9604 55.3306C24.9664 55.3807 24.9604 55.4358 24.9422 55.4959C24.9301 55.5359 24.9149 55.571 24.8968 55.601C24.8847 55.6261 24.8635 55.6536 24.8332 55.6837C24.7969 55.7588 24.7576 55.8214 24.7152 55.8715C24.691 55.9066 24.6668 55.9366 24.6425 55.9617C24.6183 55.9867 24.5971 56.0143 24.579 56.0443L24.47 56.172L23.2168 57.6596L24.0613 58.6739L24.5517 59.2449C24.6062 59.32 24.6607 59.3928 24.7152 59.4627C24.7697 59.5327 24.8241 59.6078 24.8786 59.6881ZM30.7078 55.293C30.7745 55.3581 30.8077 55.4258 30.8077 55.4959C30.8077 55.5259 30.8047 55.5585 30.7986 55.5935C30.7986 55.6236 30.7956 55.6511 30.7896 55.6762C30.7714 55.7313 30.7321 55.7838 30.6715 55.8339C30.6231 55.864 30.5565 55.8865 30.4717 55.9016C30.4294 55.9116 30.387 55.9191 30.3446 55.9241C30.3022 55.9291 30.2568 55.9366 30.2084 55.9466C30.166 55.9517 30.1236 55.9542 30.0812 55.9542C30.0389 55.9542 29.9935 55.9542 29.945 55.9542H29.4819C29.3729 55.9592 29.2639 55.9617 29.155 55.9617C29.0521 55.9617 28.9492 55.9617 28.8462 55.9617C28.8523 56.117 28.8553 56.2847 28.8553 56.465C28.8553 56.6402 28.8523 56.8459 28.8462 57.0811C28.8462 57.3164 28.8432 57.5897 28.8371 57.9C28.8371 58.2104 28.8371 58.571 28.8371 58.9819V59.5529C28.8371 59.6031 28.8402 59.6407 28.8462 59.6656C28.8462 59.6858 28.8462 59.7055 28.8462 59.7257C28.8462 59.7407 28.8432 59.7609 28.8371 59.7858C28.825 59.8309 28.816 59.8835 28.8099 59.9436C28.8099 59.9685 28.8069 59.9938 28.8008 60.0187C28.7948 60.0389 28.7857 60.0614 28.7736 60.0863C28.7494 60.1065 28.7372 60.1215 28.7372 60.1314L28.71 60.1765C28.6797 60.2267 28.6222 60.2742 28.5375 60.3192C28.4043 60.3742 28.2559 60.3869 28.0925 60.3568C27.9896 60.3469 27.9109 60.3244 27.8564 60.2892C27.8019 60.2441 27.7625 60.199 27.7383 60.1539C27.702 60.099 27.6808 60.0464 27.6747 59.9962C27.6566 59.9511 27.6475 59.9037 27.6475 59.8534V55.9917C27.6112 55.9917 27.5355 55.9917 27.4205 55.9917C27.3055 55.9917 27.1814 55.9917 27.0482 55.9917C26.921 55.9867 26.8 55.9817 26.6849 55.9767C26.5699 55.9717 26.4912 55.9667 26.4488 55.9617C26.4125 55.9566 26.355 55.9491 26.2763 55.9391C26.2036 55.9291 26.1431 55.9191 26.0946 55.9091C25.9675 55.879 25.8676 55.8315 25.795 55.7663C25.7284 55.7012 25.6951 55.6286 25.6951 55.5485C25.6951 55.5184 25.6951 55.4883 25.6951 55.4583C25.6951 55.4282 25.7011 55.4007 25.7132 55.3757C25.7314 55.3155 25.7799 55.2654 25.8585 55.2254C25.8828 55.2104 25.9191 55.1929 25.9675 55.1728C26.022 55.1478 26.0735 55.1302 26.1219 55.1202C26.1945 55.1002 26.2853 55.0851 26.3943 55.0751C26.4428 55.0701 26.4912 55.0676 26.5396 55.0676C26.5881 55.0676 26.6395 55.0676 26.694 55.0676C26.9059 55.0676 27.1057 55.0676 27.2933 55.0676C27.4871 55.0676 27.6899 55.0651 27.9018 55.0601C28.2529 55.0551 28.601 55.0551 28.9461 55.0601C29.2973 55.0601 29.6453 55.0651 29.9904 55.0751C30.0691 55.0802 30.1448 55.0877 30.2174 55.0977C30.2901 55.1077 30.3627 55.1252 30.4354 55.1503C30.4899 55.1653 30.5414 55.1853 30.5898 55.2104C30.6382 55.2304 30.6776 55.2579 30.7078 55.293ZM32.7745 55.9617L32.7564 57.1412H33.1196C33.3678 57.1361 33.5887 57.1337 33.7825 57.1337C33.9762 57.1337 34.1912 57.1361 34.4273 57.1412H34.4727C34.5453 57.1412 34.6149 57.1436 34.6815 57.1487C34.7542 57.1487 34.8238 57.1487 34.8904 57.1487C34.9631 57.1539 35.0326 57.1638 35.0993 57.1788C35.1658 57.1886 35.2324 57.2013 35.2991 57.2163C35.402 57.2464 35.4867 57.2915 35.5533 57.3516C35.6138 57.4169 35.6441 57.4892 35.6441 57.5695C35.6441 57.5943 35.6441 57.6244 35.6441 57.6596C35.6441 57.6897 35.6381 57.7174 35.626 57.7423C35.6138 57.7972 35.5745 57.8474 35.5079 57.8925C35.4776 57.9277 35.4201 57.9526 35.3354 57.9677C35.2567 57.9878 35.1779 58.0001 35.0993 58.0052C35.0145 58.0202 34.9297 58.0278 34.845 58.0278H34.4182L32.7382 58.0353L32.72 59.5078L34.5272 59.5229H34.954C35.0024 59.5229 35.0478 59.5229 35.0902 59.5229C35.1325 59.5229 35.1719 59.5252 35.2082 59.5304C35.2567 59.5402 35.2991 59.5477 35.3354 59.5529C35.3777 59.5529 35.4171 59.5581 35.4534 59.5679C35.5261 59.5881 35.5866 59.6154 35.6351 59.6506C35.6956 59.7008 35.7349 59.7534 35.7531 59.8083C35.7591 59.8332 35.7622 59.8609 35.7622 59.891C35.7682 59.9159 35.7682 59.9436 35.7622 59.9736C35.7622 60.0539 35.7319 60.1262 35.6714 60.1915C35.5987 60.2615 35.5139 60.3066 35.4171 60.3267C35.29 60.3718 35.1507 60.3944 34.9994 60.3944C34.9327 60.3995 34.8632 60.4019 34.7905 60.4019C34.7179 60.4019 34.6482 60.4042 34.5816 60.4094H34.5272C34.0549 60.4193 33.5646 60.4193 33.056 60.4094C32.9349 60.4094 32.8381 60.407 32.7654 60.4019C32.6928 60.4019 32.6261 60.4019 32.5656 60.4019C32.5112 60.4019 32.4536 60.4019 32.3931 60.4019C32.3325 60.4019 32.2538 60.4019 32.157 60.4019C32.0177 60.4117 31.9027 60.392 31.8119 60.3418C31.7453 60.3066 31.6939 60.2591 31.6575 60.199C31.6394 60.184 31.6303 60.169 31.6303 60.1539C31.6242 60.1441 31.6181 60.1366 31.6121 60.1314C31.6061 60.1262 31.6 60.1187 31.594 60.1089C31.5818 60.084 31.5727 60.0586 31.5667 60.0337C31.5607 60.0037 31.5576 59.976 31.5576 59.9511C31.5516 59.9262 31.5455 59.9009 31.5395 59.876C31.5395 59.8511 31.5364 59.8257 31.5304 59.8008V59.6806C31.5304 59.6604 31.5304 59.6407 31.5304 59.6205C31.5364 59.6003 31.5395 59.5806 31.5395 59.5604V58.9744L31.5576 57.8925V56.8933C31.5576 56.713 31.5576 56.5529 31.5576 56.4125C31.5637 56.2721 31.5697 56.1194 31.5758 55.9542V55.9166C31.5818 55.8615 31.5849 55.8114 31.5849 55.7663C31.5909 55.7162 31.594 55.6662 31.594 55.6161C31.6 55.5159 31.6333 55.4182 31.6939 55.3231C31.718 55.283 31.7423 55.2479 31.7665 55.2179C31.7968 55.1878 31.8361 55.1628 31.8846 55.1427C31.9754 55.0977 32.0692 55.0751 32.1661 55.0751C32.2145 55.0751 32.2508 55.0776 32.2751 55.0826V55.0751C32.384 55.0751 32.4718 55.0751 32.5384 55.0751C32.605 55.0751 32.6685 55.0751 32.7291 55.0751C32.7957 55.0751 32.8653 55.0751 32.938 55.0751C33.0106 55.0701 33.1105 55.0676 33.2376 55.0676C33.4798 55.0626 33.7099 55.0601 33.9278 55.0601C34.1458 55.0601 34.3697 55.0626 34.5998 55.0676H34.6361C34.7027 55.0726 34.7724 55.0751 34.845 55.0751C34.9176 55.0751 34.9872 55.0776 35.0539 55.0826C35.1204 55.0826 35.187 55.0902 35.2536 55.1052C35.3202 55.1152 35.3868 55.1302 35.4534 55.1503C35.5563 55.1753 35.6411 55.2179 35.7077 55.278C35.7622 55.3481 35.7894 55.4182 35.7894 55.4883C35.7894 55.5184 35.7894 55.5485 35.7894 55.5785C35.7894 55.6035 35.7834 55.6286 35.7713 55.6536C35.7652 55.7037 35.7289 55.7563 35.6623 55.8114C35.6381 55.8214 35.6108 55.8339 35.5806 55.849C35.5563 55.864 35.5261 55.8765 35.4898 55.8865C35.4534 55.8965 35.414 55.9041 35.3717 55.9091C35.3354 55.9091 35.2991 55.9116 35.2627 55.9166C35.2143 55.9266 35.1689 55.9316 35.1265 55.9316C35.0902 55.9316 35.0478 55.9316 34.9994 55.9316H34.5907L32.7745 55.9391V55.9617ZM41.2002 60.0488C41.2062 60.099 41.2002 60.1464 41.182 60.1915C41.1699 60.2216 41.1518 60.2465 41.1275 60.2666C41.1094 60.2868 41.0852 60.3066 41.0549 60.3267C41.0004 60.3568 40.9338 60.3845 40.8551 60.4094C40.8067 60.4193 40.7583 60.4268 40.7098 60.4319C40.6674 60.4418 40.622 60.4418 40.5736 60.4319C40.4767 60.4268 40.3919 60.3967 40.3193 60.3418C40.2164 60.2718 40.1317 60.1939 40.065 60.1089C40.0348 60.069 40.0015 60.0239 39.9651 59.9736C39.9288 59.9234 39.8956 59.8708 39.8652 59.8159L38.8572 58.2306C38.8088 58.2306 38.7604 58.233 38.7119 58.2381C38.6635 58.2381 38.6151 58.2405 38.5667 58.2456C38.4395 58.2555 38.3185 58.2583 38.2034 58.2531C38.0944 58.248 37.9794 58.248 37.8583 58.2531H37.6858V59.613C37.6858 59.6529 37.6828 59.6905 37.6767 59.7257C37.6767 59.7609 37.6767 59.7985 37.6767 59.8384C37.6767 59.8633 37.6737 59.8962 37.6676 59.9361C37.6676 59.976 37.6646 60.0135 37.6585 60.0488C37.6465 60.1037 37.6192 60.1615 37.5768 60.2216C37.5345 60.2765 37.4769 60.3244 37.4043 60.3643C37.2771 60.4296 37.1228 60.447 36.9411 60.4169C36.8625 60.4019 36.7868 60.377 36.7141 60.3418C36.6899 60.3267 36.6687 60.3094 36.6505 60.2892C36.6324 60.2643 36.6173 60.2389 36.6051 60.2141C36.593 60.1892 36.581 60.1638 36.5688 60.1389C36.5628 60.1089 36.5537 60.0812 36.5416 60.0563C36.5234 60.006 36.5143 59.9586 36.5143 59.9135V55.6461C36.5143 55.6161 36.5143 55.586 36.5143 55.556C36.5204 55.5209 36.5265 55.4908 36.5325 55.4658C36.5386 55.4107 36.5597 55.3556 36.5961 55.3005C36.6142 55.2404 36.6445 55.1978 36.6869 55.1728C36.7232 55.1427 36.7777 55.1177 36.8503 55.0977C36.929 55.0726 37.041 55.0626 37.1863 55.0676C37.4588 55.0726 37.7282 55.0751 37.9945 55.0751C38.261 55.0751 38.5273 55.0802 38.7937 55.0902C38.9693 55.1002 39.1539 55.1177 39.3476 55.1427C39.5474 55.1628 39.7321 55.2004 39.9016 55.2554C40.0105 55.2905 40.1104 55.3255 40.2012 55.3606C40.3163 55.4157 40.4071 55.4683 40.4737 55.5184C40.6856 55.6787 40.846 55.8715 40.955 56.0969C41.0639 56.3223 41.1184 56.55 41.1184 56.7806C41.1184 57.0511 41.0398 57.299 40.8823 57.5244C40.731 57.7498 40.4858 57.9174 40.1468 58.0278C40.1347 58.0376 40.1165 58.0451 40.0923 58.0503C40.0741 58.0503 40.059 58.0526 40.0469 58.0578L40.8823 59.4477L40.9641 59.5679C40.9762 59.5881 40.9913 59.6107 41.0095 59.6355C41.0276 59.6604 41.0428 59.6858 41.0549 59.7107C41.073 59.7356 41.0882 59.7633 41.1003 59.7933C41.1184 59.8234 41.1366 59.8511 41.1548 59.876C41.1729 59.9459 41.1881 60.0037 41.2002 60.0488ZM38.9299 57.3741C39.0389 57.3741 39.1418 57.3591 39.2387 57.329C39.3416 57.2938 39.4324 57.2488 39.5111 57.1938C39.5959 57.1389 39.6655 57.0759 39.7199 57.006C39.7744 56.9309 39.8047 56.8506 39.8108 56.7656C39.835 56.5153 39.7563 56.3298 39.5747 56.2096C39.393 56.0844 39.1539 56.0168 38.8572 56.0068C38.6817 55.9967 38.488 55.9917 38.2761 55.9917C38.0703 55.9917 37.8735 55.9917 37.6858 55.9917C37.6919 56.1969 37.6919 56.4073 37.6858 56.6228C37.6858 56.8332 37.6858 57.0835 37.6858 57.3741H38.9299ZM42.2144 59.583L42.2234 58.9894L42.2325 57.885C42.2386 57.7249 42.2416 57.5596 42.2416 57.3892C42.2416 57.2187 42.2416 57.0435 42.2416 56.8632C42.2416 56.6829 42.2416 56.5228 42.2416 56.3824C42.2416 56.242 42.2477 56.0844 42.2598 55.9091V55.879C42.2658 55.8289 42.2688 55.7789 42.2688 55.7288C42.2749 55.6737 42.2779 55.6186 42.2779 55.5635C42.284 55.4733 42.3173 55.3757 42.3778 55.2705C42.4202 55.2004 42.4838 55.1403 42.5685 55.0902C42.6654 55.0501 42.7592 55.0301 42.85 55.0301C42.8984 55.0301 42.9408 55.0325 42.9772 55.0376C43.0196 55.0376 43.0589 55.0401 43.0952 55.0451C43.1739 55.0551 43.2435 55.0851 43.3041 55.1352C43.3404 55.1603 43.3737 55.2004 43.404 55.2554C43.4161 55.2855 43.4251 55.3155 43.4312 55.3456C43.4433 55.3706 43.4524 55.3982 43.4585 55.4282C43.4645 55.4633 43.4675 55.4959 43.4675 55.5259C43.4736 55.556 43.4766 55.586 43.4766 55.6161C43.4766 55.6511 43.4736 55.6837 43.4675 55.7137C43.4675 55.7388 43.4675 55.7663 43.4675 55.7964V55.9241L43.4131 59.8234V59.8985C43.4131 59.9135 43.41 59.9337 43.404 59.9586C43.404 59.9788 43.401 60.0037 43.3949 60.0337C43.3828 60.0586 43.3707 60.0863 43.3586 60.1164C43.3525 60.1413 43.3434 60.169 43.3313 60.199C43.3132 60.2239 43.292 60.2493 43.2678 60.2742C43.2496 60.2943 43.2254 60.3141 43.1951 60.3343C43.1467 60.3742 43.068 60.4019 42.959 60.4169C42.7955 60.447 42.6412 60.4343 42.4959 60.3793C42.4232 60.3394 42.3717 60.2892 42.3415 60.2291C42.3233 60.2141 42.3142 60.199 42.3142 60.184C42.3082 60.1741 42.3022 60.1666 42.2961 60.1615C42.29 60.1563 42.284 60.1488 42.2779 60.1389C42.2658 60.114 42.2567 60.0887 42.2507 60.0638C42.2446 60.0337 42.2416 60.0037 42.2416 59.9736C42.2355 59.9488 42.2295 59.9234 42.2234 59.8985C42.2234 59.8736 42.2204 59.8483 42.2144 59.8234C42.2083 59.7835 42.2083 59.7407 42.2144 59.6957V59.583ZM45.7221 55.9617L45.704 57.1412H46.0672C46.3154 57.1361 46.5364 57.1337 46.7301 57.1337C46.9239 57.1337 47.1388 57.1361 47.3749 57.1412H47.4203C47.493 57.1412 47.5625 57.1436 47.6292 57.1487C47.7018 57.1487 47.7714 57.1487 47.838 57.1487C47.9107 57.1539 47.9803 57.1638 48.0469 57.1788C48.1135 57.1886 48.1801 57.2013 48.2467 57.2163C48.3496 57.2464 48.4343 57.2915 48.501 57.3516C48.5615 57.4169 48.5918 57.4892 48.5918 57.5695C48.5918 57.5943 48.5918 57.6244 48.5918 57.6596C48.5918 57.6897 48.5857 57.7174 48.5736 57.7423C48.5615 57.7972 48.5221 57.8474 48.4556 57.8925C48.4252 57.9277 48.3677 57.9526 48.283 57.9677C48.2043 57.9878 48.1256 58.0001 48.0469 58.0052C47.9621 58.0202 47.8774 58.0278 47.7926 58.0278H47.3658L45.6858 58.0353L45.6677 59.5078L47.4748 59.5229H47.9016C47.95 59.5229 47.9954 59.5229 48.0378 59.5229C48.0802 59.5229 48.1196 59.5252 48.1559 59.5304C48.2043 59.5402 48.2467 59.5477 48.283 59.5529C48.3254 59.5529 48.3647 59.5581 48.4011 59.5679C48.4737 59.5881 48.5342 59.6154 48.5827 59.6506C48.6432 59.7008 48.6826 59.7534 48.7007 59.8083C48.7068 59.8332 48.7098 59.8609 48.7098 59.891C48.7158 59.9159 48.7158 59.9436 48.7098 59.9736C48.7098 60.0539 48.6795 60.1262 48.619 60.1915C48.5464 60.2615 48.4616 60.3066 48.3647 60.3267C48.2376 60.3718 48.0983 60.3944 47.947 60.3944C47.8804 60.3995 47.8108 60.4019 47.7381 60.4019C47.6655 60.4019 47.5959 60.4042 47.5293 60.4094H47.4748C47.0026 60.4193 46.5122 60.4193 46.0037 60.4094C45.8825 60.4094 45.7857 60.407 45.7131 60.4019C45.6404 60.4019 45.5738 60.4019 45.5133 60.4019C45.4588 60.4019 45.4012 60.4019 45.3407 60.4019C45.2802 60.4019 45.2015 60.4019 45.1046 60.4019C44.9654 60.4117 44.8504 60.392 44.7596 60.3418C44.6929 60.3066 44.6415 60.2591 44.6052 60.199C44.587 60.184 44.5779 60.169 44.5779 60.1539C44.5719 60.1441 44.5658 60.1366 44.5598 60.1314C44.5537 60.1262 44.5476 60.1187 44.5416 60.1089C44.5295 60.084 44.5204 60.0586 44.5144 60.0337C44.5083 60.0037 44.5053 59.976 44.5053 59.9511C44.4992 59.9262 44.4931 59.9009 44.4871 59.876C44.4871 59.8511 44.4841 59.8257 44.478 59.8008V59.6806C44.478 59.6604 44.478 59.6407 44.478 59.6205C44.4841 59.6003 44.4871 59.5806 44.4871 59.5604V58.9744L44.5053 57.8925V56.8933C44.5053 56.713 44.5053 56.5529 44.5053 56.4125C44.5113 56.2721 44.5174 56.1194 44.5234 55.9542V55.9166C44.5295 55.8615 44.5325 55.8114 44.5325 55.7663C44.5385 55.7162 44.5416 55.6662 44.5416 55.6161C44.5476 55.5159 44.5809 55.4182 44.6415 55.3231C44.6657 55.283 44.6899 55.2479 44.7141 55.2179C44.7444 55.1878 44.7837 55.1628 44.8322 55.1427C44.923 55.0977 45.0168 55.0751 45.1137 55.0751C45.1621 55.0751 45.1985 55.0776 45.2227 55.0826V55.0751C45.3317 55.0751 45.4194 55.0751 45.486 55.0751C45.5526 55.0751 45.6162 55.0751 45.6767 55.0751C45.7433 55.0751 45.813 55.0751 45.8856 55.0751C45.9583 55.0701 46.0581 55.0676 46.1853 55.0676C46.4274 55.0626 46.6575 55.0601 46.8754 55.0601C47.0934 55.0601 47.3174 55.0626 47.5474 55.0676H47.5838C47.6503 55.0726 47.72 55.0751 47.7926 55.0751C47.8653 55.0751 47.9349 55.0776 48.0015 55.0826C48.0681 55.0826 48.1346 55.0902 48.2013 55.1052C48.2679 55.1152 48.3344 55.1302 48.4011 55.1503C48.504 55.1753 48.5887 55.2179 48.6553 55.278C48.7098 55.3481 48.7371 55.4182 48.7371 55.4883C48.7371 55.5184 48.7371 55.5485 48.7371 55.5785C48.7371 55.6035 48.731 55.6286 48.7189 55.6536C48.7128 55.7037 48.6765 55.7563 48.6099 55.8114C48.5857 55.8214 48.5585 55.8339 48.5282 55.849C48.504 55.864 48.4737 55.8765 48.4374 55.8865C48.4011 55.8965 48.3617 55.9041 48.3193 55.9091C48.283 55.9091 48.2467 55.9116 48.2104 55.9166C48.1619 55.9266 48.1165 55.9316 48.0741 55.9316C48.0378 55.9316 47.9954 55.9316 47.947 55.9316H47.5384L45.7221 55.9391V55.9617ZM54.4202 55.4733C54.4566 55.7137 54.4778 55.9942 54.4838 56.3148C54.4899 56.6303 54.4838 56.951 54.4656 57.2765C54.4536 57.5972 54.4263 57.9024 54.3839 58.193C54.3416 58.4785 54.2901 58.7091 54.2295 58.8842C54.1872 58.9894 54.1357 59.0998 54.0752 59.2148C54.0207 59.3252 53.9602 59.4252 53.8935 59.5153C53.7967 59.6506 53.6786 59.7708 53.5394 59.876C53.4001 59.976 53.2458 60.0638 53.0762 60.1389C52.9128 60.2089 52.7372 60.2643 52.5495 60.3042C52.3679 60.3441 52.1863 60.3667 52.0047 60.3718C51.6838 60.3817 51.3781 60.3441 51.0875 60.2591C50.803 60.169 50.5396 60.0286 50.2974 59.8384C50.1158 59.6933 49.9705 59.5379 49.8615 59.3726C49.7526 59.2073 49.6678 59.0345 49.6073 58.8542C49.5468 58.6687 49.5074 58.4785 49.4892 58.2832C49.4771 58.0879 49.471 57.8874 49.471 57.6822C49.471 57.5868 49.468 57.4694 49.462 57.329C49.462 57.1839 49.462 57.036 49.462 56.8858C49.462 56.7303 49.462 56.5801 49.462 56.435C49.462 56.2899 49.465 56.1669 49.471 56.0669C49.471 56.0017 49.471 55.9316 49.471 55.8565C49.471 55.7763 49.4741 55.6987 49.4801 55.6236C49.4923 55.5434 49.5104 55.4683 49.5346 55.3982C49.5588 55.3231 49.5952 55.2554 49.6436 55.1953C49.6981 55.1302 49.7738 55.0826 49.8706 55.0526C49.9675 55.0225 50.0674 55.0075 50.1703 55.0075C50.2793 55.0075 50.3822 55.025 50.479 55.0601C50.5759 55.0952 50.6546 55.1452 50.7152 55.2104C50.7455 55.2504 50.7666 55.2905 50.7787 55.3306C50.7909 55.3706 50.7999 55.4157 50.806 55.4658C50.8181 55.6311 50.8241 55.8189 50.8241 56.0293C50.8302 56.2397 50.8302 56.4449 50.8241 56.6454C50.8241 56.8407 50.8211 57.021 50.815 57.1863C50.809 57.3516 50.806 57.4741 50.806 57.5544C50.806 57.855 50.8241 58.1278 50.8604 58.3734C50.8968 58.6138 50.9816 58.8143 51.1147 58.9744C51.2358 59.1195 51.3781 59.2125 51.5415 59.2524C51.705 59.2923 51.8685 59.305 52.0319 59.2899C52.1833 59.2749 52.3346 59.2298 52.486 59.1547C52.6434 59.0744 52.7675 58.9594 52.8583 58.8091C52.8946 58.7542 52.9249 58.6913 52.9491 58.6213C52.9733 58.5513 52.9915 58.4861 53.0036 58.4259C53.0278 58.2358 53.049 58.0151 53.0672 57.7648C53.0853 57.5094 53.1005 57.2487 53.1126 56.9834C53.1247 56.7181 53.1307 56.4575 53.1307 56.2021C53.1307 55.9466 53.1277 55.7162 53.1216 55.5109C53.1338 55.4207 53.167 55.3381 53.2215 55.263C53.27 55.1978 53.3396 55.1403 53.4304 55.0902C53.5212 55.0401 53.6453 55.015 53.8027 55.015C53.9299 55.02 54.0328 55.0476 54.1115 55.0977C54.1902 55.1427 54.2538 55.1929 54.3022 55.2479C54.3567 55.3131 54.3961 55.3882 54.4202 55.4733ZM59.9033 60.0488C59.9093 60.099 59.9033 60.1464 59.8852 60.1915C59.873 60.2216 59.8549 60.2465 59.8307 60.2666C59.8125 60.2868 59.7883 60.3066 59.758 60.3267C59.7036 60.3568 59.6369 60.3845 59.5583 60.4094C59.5098 60.4193 59.4614 60.4268 59.413 60.4319C59.3706 60.4418 59.3252 60.4418 59.2767 60.4319C59.1799 60.4268 59.0951 60.3967 59.0225 60.3418C58.9195 60.2718 58.8348 60.1939 58.7682 60.1089C58.7379 60.069 58.7046 60.0239 58.6683 59.9736C58.632 59.9234 58.5987 59.8708 58.5684 59.8159L57.5604 58.2306C57.5119 58.2306 57.4635 58.233 57.4151 58.2381C57.3666 58.2381 57.3182 58.2405 57.2698 58.2456C57.1427 58.2555 57.0216 58.2583 56.9066 58.2531C56.7976 58.248 56.6826 58.248 56.5615 58.2531H56.389V59.613C56.389 59.6529 56.3859 59.6905 56.3799 59.7257C56.3799 59.7609 56.3799 59.7985 56.3799 59.8384C56.3799 59.8633 56.3768 59.8962 56.3708 59.9361C56.3708 59.976 56.3677 60.0135 56.3617 60.0488C56.3496 60.1037 56.3223 60.1615 56.28 60.2216C56.2376 60.2765 56.1801 60.3244 56.1074 60.3643C55.9803 60.4296 55.8259 60.447 55.6443 60.4169C55.5656 60.4019 55.4899 60.377 55.4173 60.3418C55.393 60.3267 55.3719 60.3094 55.3537 60.2892C55.3356 60.2643 55.3204 60.2389 55.3083 60.2141C55.2962 60.1892 55.2841 60.1638 55.272 60.1389C55.2659 60.1089 55.2568 60.0812 55.2447 60.0563C55.2266 60.006 55.2175 59.9586 55.2175 59.9135V55.6461C55.2175 55.6161 55.2175 55.586 55.2175 55.556C55.2235 55.5209 55.2296 55.4908 55.2357 55.4658C55.2417 55.4107 55.2629 55.3556 55.2992 55.3005C55.3174 55.2404 55.3476 55.1978 55.39 55.1728C55.4264 55.1427 55.4808 55.1177 55.5535 55.0977C55.6322 55.0726 55.7442 55.0626 55.8895 55.0676C56.1619 55.0726 56.4313 55.0751 56.6977 55.0751C56.9641 55.0751 57.2304 55.0802 57.4968 55.0902C57.6724 55.1002 57.857 55.1177 58.0508 55.1427C58.2506 55.1628 58.4352 55.2004 58.6047 55.2554C58.7137 55.2905 58.8136 55.3255 58.9044 55.3606C59.0194 55.4157 59.1102 55.4683 59.1768 55.5184C59.3887 55.6787 59.5492 55.8715 59.6581 56.0969C59.7671 56.3223 59.8216 56.55 59.8216 56.7806C59.8216 57.0511 59.7429 57.299 59.5855 57.5244C59.4341 57.7498 59.1889 57.9174 58.8499 58.0278C58.8378 58.0376 58.8196 58.0451 58.7954 58.0503C58.7773 58.0503 58.7621 58.0526 58.75 58.0578L59.5855 59.4477L59.6672 59.5679C59.6793 59.5881 59.6945 59.6107 59.7126 59.6355C59.7308 59.6604 59.7459 59.6858 59.758 59.7107C59.7762 59.7356 59.7913 59.7633 59.8034 59.7933C59.8216 59.8234 59.8398 59.8511 59.8579 59.876C59.8761 59.9459 59.8912 60.0037 59.9033 60.0488ZM57.6331 57.3741C57.742 57.3741 57.8449 57.3591 57.9418 57.329C58.0447 57.2938 58.1355 57.2488 58.2143 57.1938C58.299 57.1389 58.3686 57.0759 58.4231 57.006C58.4776 56.9309 58.5079 56.8506 58.5139 56.7656C58.5381 56.5153 58.4594 56.3298 58.2778 56.2096C58.0962 56.0844 57.857 56.0168 57.5604 56.0068C57.3848 55.9967 57.1911 55.9917 56.9792 55.9917C56.7734 55.9917 56.5766 55.9917 56.389 55.9917C56.395 56.1969 56.395 56.4073 56.389 56.6228C56.389 56.8332 56.389 57.0835 56.389 57.3741H57.6331Z" fill="white"/>
</svg>
