<svg width="111" height="115" viewBox="0 0 111 115" fill="none" xmlns="http://www.w3.org/2000/svg">
<g clip-path="url(#clip0)">
<path d="M42.4921 31.6571C40.6979 31.6571 39.2402 32.8331 39.2402 34.2806C39.2402 35.7281 40.6979 36.9041 42.4921 36.9041C44.2865 36.9041 45.7442 35.7281 45.7442 34.2806C45.7442 32.8331 44.2865 31.6571 42.4921 31.6571Z" fill="#FAFAFA"/>
<path d="M42.4921 63.1392C40.6979 63.1392 39.2402 64.3152 39.2402 65.7627V73.6332H45.7442V65.7627C45.7442 64.3152 44.2865 63.1392 42.4921 63.1392Z" fill="#FAFAFA"/>
<path d="M0 78.8802V86.9257C0 88.3746 1.45601 89.5492 3.25195 89.5492H107.748C109.544 89.5492 111 88.3746 111 86.9257V78.8802H0Z" fill="#FAFAFA"/>
<path d="M88.0196 63.1392H81.5156V73.6332H88.0196V63.1392Z" fill="#FAFAFA"/>
<path d="M109.698 53.1702L86.7178 37.4291C85.5618 36.7271 83.974 36.7271 82.818 37.4291L60.0543 53.1702C58.9333 53.8465 58.4761 55.0276 58.9207 56.0985C59.3619 57.1695 60.6035 57.892 62.004 57.892H65.2559V73.6331H75.0119V60.5155C75.0119 59.0654 76.4664 57.892 78.2638 57.892H91.2716C93.069 57.892 94.5235 59.0654 94.5235 60.5155V73.6331H104.279V57.892H107.748C109.149 57.892 110.391 57.1695 110.832 56.0985C111.276 55.0276 110.819 53.8465 109.698 53.1702Z" fill="#FAFAFA"/>
<path d="M70.807 27.1785L44.7911 6.19043C43.5209 5.16569 41.4629 5.16569 40.1927 6.19043L14.1769 27.1785C12.9068 28.2032 12.9066 29.8634 14.1769 30.8884C15.4472 31.9131 17.5052 31.9131 18.7754 30.8884L19.7283 30.1197V73.633H32.7361V65.7625C32.7361 61.4225 37.1124 57.892 42.492 57.892C47.8716 57.892 52.2478 61.4225 52.2478 65.7625V73.633H58.7517V62.6907C55.9666 61.8991 53.7181 60.1081 52.7494 57.7536C51.4125 54.5409 52.7811 51.0053 56.1571 48.9686L65.2557 42.6707V30.1197L66.2085 30.8884C67.4787 31.9131 69.5368 31.9131 70.807 30.8884C72.0772 29.8636 72.0773 28.2034 70.807 27.1785ZM42.492 42.1509C37.1124 42.1509 32.7361 38.6204 32.7361 34.2803C32.7361 29.9404 37.1124 26.4098 42.492 26.4098C47.8716 26.4098 52.2478 29.9404 52.2478 34.2803C52.2478 38.6204 47.8716 42.1509 42.492 42.1509Z" fill="#FAFAFA"/>
<path d="M2.22304 42.2869C0.895588 42.6432 0 43.6448 0 44.7747V52.6453H3.25195C5.04942 52.6453 6.5039 53.8187 6.5039 55.2688C6.5039 56.7188 5.04942 57.8923 3.25195 57.8923H0V63.1393H3.25195C5.04942 63.1393 6.5039 64.3127 6.5039 65.7628C6.5039 67.2129 5.04942 68.3863 3.25195 68.3863H0V73.6333H13.2246V39.3867L2.22304 42.2869Z" fill="#FAFAFA"/>
<path d="M110.19 17.5153C108.649 12.3482 104.392 0 97.7753 0C91.1689 0 87.1513 12.3218 85.6798 17.2159C84.9774 20.9935 84.7676 21.9469 84.7676 23.7865C84.7676 29.9254 88.8 31.2897 94.5234 31.5519V35.9276L101.027 40.4212V31.5521C106.751 31.2897 111 29.9255 111 23.7867C111 21.8302 110.712 20.4639 110.19 17.5153Z" fill="#FAFAFA"/>
<path d="M15.6289 99.592L15.5969 102.104H16.2369C16.6742 102.093 17.0635 102.088 17.4049 102.088C17.7462 102.088 18.1249 102.093 18.5409 102.104H18.6209C18.7489 102.104 18.8715 102.109 18.9889 102.12C19.1169 102.12 19.2395 102.12 19.3569 102.12C19.4849 102.131 19.6075 102.152 19.7249 102.184C19.8422 102.205 19.9595 102.232 20.0769 102.264C20.2582 102.328 20.4075 102.424 20.5249 102.552C20.6315 102.691 20.6849 102.845 20.6849 103.016C20.6849 103.069 20.6849 103.133 20.6849 103.208C20.6849 103.272 20.6742 103.331 20.6529 103.384C20.6315 103.501 20.5622 103.608 20.4449 103.704C20.3915 103.779 20.2902 103.832 20.1409 103.864C20.0022 103.907 19.8635 103.933 19.7249 103.944C19.5755 103.976 19.4262 103.992 19.2769 103.992H18.5249L15.5649 104.008L15.5329 107.144L18.7169 107.176H19.4689C19.5542 107.176 19.6342 107.176 19.7089 107.176C19.7835 107.176 19.8529 107.181 19.9169 107.192C20.0022 107.213 20.0769 107.229 20.1409 107.24C20.2155 107.24 20.2849 107.251 20.3489 107.272C20.4769 107.315 20.5835 107.373 20.6689 107.448C20.7755 107.555 20.8449 107.667 20.8769 107.784C20.8875 107.837 20.8929 107.896 20.8929 107.96C20.9035 108.013 20.9035 108.072 20.8929 108.136C20.8929 108.307 20.8395 108.461 20.7329 108.6C20.6049 108.749 20.4555 108.845 20.2849 108.888C20.0609 108.984 19.8155 109.032 19.5489 109.032C19.4315 109.043 19.3089 109.048 19.1809 109.048C19.0529 109.048 18.9302 109.053 18.8129 109.064H18.7169C17.8849 109.085 17.0209 109.085 16.1249 109.064C15.9115 109.064 15.7409 109.059 15.6129 109.048C15.4849 109.048 15.3675 109.048 15.2609 109.048C15.1649 109.048 15.0635 109.048 14.9569 109.048C14.8502 109.048 14.7115 109.048 14.5409 109.048C14.2955 109.069 14.0929 109.027 13.9329 108.92C13.8155 108.845 13.7249 108.744 13.6609 108.616C13.6289 108.584 13.6129 108.552 13.6129 108.52C13.6022 108.499 13.5915 108.483 13.5809 108.472C13.5702 108.461 13.5595 108.445 13.5489 108.424C13.5275 108.371 13.5115 108.317 13.5009 108.264C13.4902 108.2 13.4849 108.141 13.4849 108.088C13.4742 108.035 13.4635 107.981 13.4529 107.928C13.4529 107.875 13.4475 107.821 13.4369 107.768V107.512C13.4369 107.469 13.4369 107.427 13.4369 107.384C13.4475 107.341 13.4529 107.299 13.4529 107.256V106.008L13.4849 103.704V101.576C13.4849 101.192 13.4849 100.851 13.4849 100.552C13.4955 100.253 13.5062 99.928 13.5169 99.576V99.496C13.5275 99.3787 13.5329 99.272 13.5329 99.176C13.5435 99.0693 13.5489 98.9627 13.5489 98.856C13.5595 98.6427 13.6182 98.4347 13.7249 98.232C13.7675 98.1467 13.8102 98.072 13.8529 98.008C13.9062 97.944 13.9755 97.8907 14.0609 97.848C14.2209 97.752 14.3862 97.704 14.5569 97.704C14.6422 97.704 14.7062 97.7093 14.7489 97.72V97.704C14.9409 97.704 15.0955 97.704 15.2129 97.704C15.3302 97.704 15.4422 97.704 15.5489 97.704C15.6662 97.704 15.7889 97.704 15.9169 97.704C16.0449 97.6933 16.2209 97.688 16.4449 97.688C16.8715 97.6773 17.2769 97.672 17.6609 97.672C18.0449 97.672 18.4395 97.6773 18.8449 97.688H18.9089C19.0262 97.6987 19.1489 97.704 19.2769 97.704C19.4049 97.704 19.5275 97.7093 19.6449 97.72C19.7622 97.72 19.8795 97.736 19.9969 97.768C20.1142 97.7893 20.2315 97.8213 20.3489 97.864C20.5302 97.9173 20.6795 98.008 20.7969 98.136C20.8929 98.2853 20.9409 98.4347 20.9409 98.584C20.9409 98.648 20.9409 98.712 20.9409 98.776C20.9409 98.8293 20.9302 98.8827 20.9089 98.936C20.8982 99.0427 20.8342 99.1547 20.7169 99.272C20.6742 99.2933 20.6262 99.32 20.5729 99.352C20.5302 99.384 20.4769 99.4107 20.4129 99.432C20.3489 99.4533 20.2795 99.4693 20.2049 99.48C20.1409 99.48 20.0769 99.4853 20.0129 99.496C19.9275 99.5173 19.8475 99.528 19.7729 99.528C19.7089 99.528 19.6342 99.528 19.5489 99.528H18.8289L15.6289 99.544V99.592ZM30.8421 107.528C30.9595 107.741 31.0075 107.928 30.9861 108.088C30.9755 108.248 30.9595 108.381 30.9381 108.488C30.9061 108.605 30.8261 108.707 30.6981 108.792C30.5808 108.867 30.4475 108.925 30.2981 108.968C30.1061 109.021 29.9461 109.032 29.8181 109C29.6581 108.968 29.5248 108.915 29.4181 108.84C29.3541 108.787 29.2955 108.739 29.2421 108.696C29.1888 108.643 29.1355 108.595 29.0821 108.552C29.0288 108.499 28.9808 108.451 28.9381 108.408C28.8955 108.365 28.8635 108.323 28.8421 108.28C28.8208 108.237 28.7995 108.211 28.7781 108.2C28.7675 108.179 28.7568 108.163 28.7461 108.152L26.6181 105.08L24.5061 108.152C24.4955 108.163 24.4795 108.179 24.4581 108.2C24.4475 108.211 24.4261 108.237 24.3941 108.28C24.3728 108.323 24.3408 108.365 24.2981 108.408C24.2661 108.451 24.2288 108.499 24.1861 108.552C24.1328 108.595 24.0741 108.643 24.0101 108.696C23.9461 108.739 23.8875 108.787 23.8341 108.84C23.7701 108.883 23.7008 108.915 23.6261 108.936C23.5621 108.957 23.4981 108.979 23.4341 109C23.2955 109.032 23.1461 109.021 22.9861 108.968C22.6555 108.893 22.4261 108.733 22.2981 108.488C22.2341 108.36 22.2075 108.227 22.2181 108.088C22.2288 107.939 22.2608 107.789 22.3141 107.64C22.3781 107.491 22.4475 107.347 22.5221 107.208C22.6075 107.069 22.6928 106.936 22.7781 106.808C22.8208 106.755 22.8581 106.707 22.8901 106.664C22.9328 106.621 22.9755 106.573 23.0181 106.52C23.1568 106.339 23.2901 106.157 23.4181 105.976C23.5461 105.784 23.6848 105.581 23.8341 105.368L25.3221 103.208L23.1301 100.04L22.9381 99.768C22.8955 99.704 22.8528 99.6453 22.8101 99.592C22.7675 99.5387 22.7248 99.4747 22.6821 99.4C22.6395 99.3467 22.5968 99.288 22.5541 99.224C22.5115 99.16 22.4741 99.0853 22.4421 99C22.4101 98.936 22.3781 98.8773 22.3461 98.824C22.3248 98.76 22.3035 98.6853 22.2821 98.6C22.2501 98.472 22.2395 98.3547 22.2501 98.248C22.2821 98.1093 22.3515 97.992 22.4581 97.896C22.5008 97.8427 22.5488 97.8 22.6021 97.768C22.6661 97.736 22.7248 97.704 22.7781 97.672C22.8848 97.6293 22.9808 97.5973 23.0661 97.576C23.1515 97.5547 23.2421 97.544 23.3381 97.544C23.5301 97.5547 23.7115 97.624 23.8821 97.752C24.0955 97.8907 24.2875 98.0613 24.4581 98.264C24.5328 98.3813 24.6075 98.4933 24.6821 98.6C24.7568 98.696 24.8368 98.7973 24.9221 98.904L24.9381 98.968C25.2048 99.32 25.4448 99.6613 25.6581 99.992C25.8821 100.312 26.1275 100.653 26.3941 101.016C26.4368 101.069 26.4741 101.123 26.5061 101.176C26.5381 101.229 26.5755 101.283 26.6181 101.336C26.6608 101.283 26.6981 101.229 26.7301 101.176C26.7621 101.123 26.7995 101.069 26.8421 101.016C27.0875 100.653 27.3221 100.312 27.5461 99.992C27.7808 99.6613 28.0261 99.32 28.2821 98.968L28.3141 98.904C28.3995 98.7973 28.4795 98.696 28.5541 98.6C28.6395 98.4933 28.7195 98.3813 28.7941 98.264C28.9648 98.0613 29.1568 97.8907 29.3701 97.752C29.5301 97.624 29.7115 97.5547 29.9141 97.544C30.0848 97.544 30.2661 97.5867 30.4581 97.672C30.5861 97.7467 30.6821 97.8213 30.7461 97.896C30.8741 97.992 30.9541 98.1093 30.9861 98.248C30.9968 98.3547 30.9861 98.472 30.9541 98.6C30.9328 98.6853 30.9061 98.76 30.8741 98.824C30.8528 98.8773 30.8155 98.936 30.7621 99C30.6981 99.16 30.6288 99.2933 30.5541 99.4C30.5115 99.4747 30.4688 99.5387 30.4261 99.592C30.3835 99.6453 30.3461 99.704 30.3141 99.768L30.1221 100.04L27.9141 103.208L29.4021 105.368L30.2661 106.584C30.3621 106.744 30.4581 106.899 30.5541 107.048C30.6501 107.197 30.7461 107.357 30.8421 107.528ZM41.1126 98.168C41.23 98.3067 41.2886 98.4507 41.2886 98.6C41.2886 98.664 41.2833 98.7333 41.2726 98.808C41.2726 98.872 41.2673 98.9307 41.2566 98.984C41.2246 99.1013 41.1553 99.2133 41.0486 99.32C40.9633 99.384 40.846 99.432 40.6966 99.464C40.622 99.4853 40.5473 99.5013 40.4726 99.512C40.398 99.5227 40.318 99.5387 40.2326 99.56C40.158 99.5707 40.0833 99.576 40.0086 99.576C39.934 99.576 39.854 99.576 39.7686 99.576H38.9526C38.7606 99.5867 38.5686 99.592 38.3766 99.592C38.1953 99.592 38.014 99.592 37.8326 99.592C37.8433 99.9227 37.8486 100.28 37.8486 100.664C37.8486 101.037 37.8433 101.475 37.8326 101.976C37.8326 102.477 37.8273 103.059 37.8166 103.72C37.8166 104.381 37.8166 105.149 37.8166 106.024V107.24C37.8166 107.347 37.822 107.427 37.8326 107.48C37.8326 107.523 37.8326 107.565 37.8326 107.608C37.8326 107.64 37.8273 107.683 37.8166 107.736C37.7953 107.832 37.7793 107.944 37.7686 108.072C37.7686 108.125 37.7633 108.179 37.7526 108.232C37.742 108.275 37.726 108.323 37.7046 108.376C37.662 108.419 37.6406 108.451 37.6406 108.472L37.5926 108.568C37.5393 108.675 37.438 108.776 37.2886 108.872C37.054 108.989 36.7926 109.016 36.5046 108.952C36.3233 108.931 36.1846 108.883 36.0886 108.808C35.9926 108.712 35.9233 108.616 35.8806 108.52C35.8166 108.403 35.7793 108.291 35.7686 108.184C35.7366 108.088 35.7206 107.987 35.7206 107.88V99.656C35.6566 99.656 35.5233 99.656 35.3206 99.656C35.118 99.656 34.8993 99.656 34.6646 99.656C34.4406 99.6453 34.2273 99.6347 34.0246 99.624C33.822 99.6133 33.6833 99.6027 33.6086 99.592C33.5446 99.5813 33.4433 99.5653 33.3046 99.544C33.1766 99.5227 33.07 99.5013 32.9846 99.48C32.7606 99.416 32.5846 99.3147 32.4566 99.176C32.3393 99.0373 32.2806 98.8827 32.2806 98.712C32.2806 98.648 32.2806 98.584 32.2806 98.52C32.2806 98.456 32.2913 98.3973 32.3126 98.344C32.3446 98.216 32.43 98.1093 32.5686 98.024C32.6113 97.992 32.6753 97.9547 32.7606 97.912C32.8566 97.8587 32.9473 97.8213 33.0326 97.8C33.1606 97.7573 33.3206 97.7253 33.5126 97.704C33.598 97.6933 33.6833 97.688 33.7686 97.688C33.854 97.688 33.9446 97.688 34.0406 97.688C34.414 97.688 34.766 97.688 35.0966 97.688C35.438 97.688 35.7953 97.6827 36.1686 97.672C36.7873 97.6613 37.4006 97.6613 38.0086 97.672C38.6273 97.672 39.2406 97.6827 39.8486 97.704C39.9873 97.7147 40.1206 97.7307 40.2486 97.752C40.3766 97.7733 40.5046 97.8107 40.6326 97.864C40.7286 97.896 40.8193 97.9387 40.9046 97.992C40.99 98.0347 41.0593 98.0933 41.1126 98.168ZM44.7539 99.592L44.7219 102.104H45.3619C45.7992 102.093 46.1885 102.088 46.5299 102.088C46.8712 102.088 47.2499 102.093 47.6659 102.104H47.7459C47.8739 102.104 47.9965 102.109 48.1139 102.12C48.2419 102.12 48.3645 102.12 48.4819 102.12C48.6099 102.131 48.7325 102.152 48.8499 102.184C48.9672 102.205 49.0845 102.232 49.2019 102.264C49.3832 102.328 49.5325 102.424 49.6499 102.552C49.7565 102.691 49.8099 102.845 49.8099 103.016C49.8099 103.069 49.8099 103.133 49.8099 103.208C49.8099 103.272 49.7992 103.331 49.7779 103.384C49.7565 103.501 49.6872 103.608 49.5699 103.704C49.5165 103.779 49.4152 103.832 49.2659 103.864C49.1272 103.907 48.9885 103.933 48.8499 103.944C48.7005 103.976 48.5512 103.992 48.4019 103.992H47.6499L44.6899 104.008L44.6579 107.144L47.8419 107.176H48.5939C48.6792 107.176 48.7592 107.176 48.8339 107.176C48.9085 107.176 48.9779 107.181 49.0419 107.192C49.1272 107.213 49.2019 107.229 49.2659 107.24C49.3405 107.24 49.4099 107.251 49.4739 107.272C49.6019 107.315 49.7085 107.373 49.7939 107.448C49.9005 107.555 49.9699 107.667 50.0019 107.784C50.0125 107.837 50.0179 107.896 50.0179 107.96C50.0285 108.013 50.0285 108.072 50.0179 108.136C50.0179 108.307 49.9645 108.461 49.8579 108.6C49.7299 108.749 49.5805 108.845 49.4099 108.888C49.1859 108.984 48.9405 109.032 48.6739 109.032C48.5565 109.043 48.4339 109.048 48.3059 109.048C48.1779 109.048 48.0552 109.053 47.9379 109.064H47.8419C47.0099 109.085 46.1459 109.085 45.2499 109.064C45.0365 109.064 44.8659 109.059 44.7379 109.048C44.6099 109.048 44.4925 109.048 44.3859 109.048C44.2899 109.048 44.1885 109.048 44.0819 109.048C43.9752 109.048 43.8365 109.048 43.6659 109.048C43.4205 109.069 43.2179 109.027 43.0579 108.92C42.9405 108.845 42.8499 108.744 42.7859 108.616C42.7539 108.584 42.7379 108.552 42.7379 108.52C42.7272 108.499 42.7165 108.483 42.7059 108.472C42.6952 108.461 42.6845 108.445 42.6739 108.424C42.6525 108.371 42.6365 108.317 42.6259 108.264C42.6152 108.2 42.6099 108.141 42.6099 108.088C42.5992 108.035 42.5885 107.981 42.5779 107.928C42.5779 107.875 42.5725 107.821 42.5619 107.768V107.512C42.5619 107.469 42.5619 107.427 42.5619 107.384C42.5725 107.341 42.5779 107.299 42.5779 107.256V106.008L42.6099 103.704V101.576C42.6099 101.192 42.6099 100.851 42.6099 100.552C42.6205 100.253 42.6312 99.928 42.6419 99.576V99.496C42.6525 99.3787 42.6579 99.272 42.6579 99.176C42.6685 99.0693 42.6739 98.9627 42.6739 98.856C42.6845 98.6427 42.7432 98.4347 42.8499 98.232C42.8925 98.1467 42.9352 98.072 42.9779 98.008C43.0312 97.944 43.1005 97.8907 43.1859 97.848C43.3459 97.752 43.5112 97.704 43.6819 97.704C43.7672 97.704 43.8312 97.7093 43.8739 97.72V97.704C44.0659 97.704 44.2205 97.704 44.3379 97.704C44.4552 97.704 44.5672 97.704 44.6739 97.704C44.7912 97.704 44.9139 97.704 45.0419 97.704C45.1699 97.6933 45.3459 97.688 45.5699 97.688C45.9965 97.6773 46.4019 97.672 46.7859 97.672C47.1699 97.672 47.5645 97.6773 47.9699 97.688H48.0339C48.1512 97.6987 48.2739 97.704 48.4019 97.704C48.5299 97.704 48.6525 97.7093 48.7699 97.72C48.8872 97.72 49.0045 97.736 49.1219 97.768C49.2392 97.7893 49.3565 97.8213 49.4739 97.864C49.6552 97.9173 49.8045 98.008 49.9219 98.136C50.0179 98.2853 50.0659 98.4347 50.0659 98.584C50.0659 98.648 50.0659 98.712 50.0659 98.776C50.0659 98.8293 50.0552 98.8827 50.0339 98.936C50.0232 99.0427 49.9592 99.1547 49.8419 99.272C49.7992 99.2933 49.7512 99.32 49.6979 99.352C49.6552 99.384 49.6019 99.4107 49.5379 99.432C49.4739 99.4533 49.4045 99.4693 49.3299 99.48C49.2659 99.48 49.2019 99.4853 49.1379 99.496C49.0525 99.5173 48.9725 99.528 48.8979 99.528C48.8339 99.528 48.7592 99.528 48.6739 99.528H47.9539L44.7539 99.544V99.592ZM59.5991 108.296C59.6098 108.403 59.5991 108.504 59.5671 108.6C59.5458 108.664 59.5138 108.717 59.4711 108.76C59.4391 108.803 59.3965 108.845 59.3431 108.888C59.2471 108.952 59.1298 109.011 58.9911 109.064C58.9058 109.085 58.8205 109.101 58.7351 109.112C58.6605 109.133 58.5805 109.133 58.4951 109.112C58.3245 109.101 58.1751 109.037 58.0471 108.92C57.8658 108.771 57.7165 108.605 57.5991 108.424C57.5458 108.339 57.4871 108.243 57.4231 108.136C57.3591 108.029 57.3005 107.917 57.2471 107.8L55.4711 104.424C55.3858 104.424 55.3005 104.429 55.2151 104.44C55.1298 104.44 55.0445 104.445 54.9591 104.456C54.7351 104.477 54.5218 104.483 54.3191 104.472C54.1271 104.461 53.9245 104.461 53.7111 104.472H53.4071V107.368C53.4071 107.453 53.4018 107.533 53.3911 107.608C53.3911 107.683 53.3911 107.763 53.3911 107.848C53.3911 107.901 53.3858 107.971 53.3751 108.056C53.3751 108.141 53.3698 108.221 53.3591 108.296C53.3378 108.413 53.2898 108.536 53.2151 108.664C53.1405 108.781 53.0391 108.883 52.9111 108.968C52.6871 109.107 52.4151 109.144 52.0951 109.08C51.9565 109.048 51.8231 108.995 51.6951 108.92C51.6525 108.888 51.6151 108.851 51.5831 108.808C51.5511 108.755 51.5245 108.701 51.5031 108.648C51.4818 108.595 51.4605 108.541 51.4391 108.488C51.4285 108.424 51.4125 108.365 51.3911 108.312C51.3591 108.205 51.3431 108.104 51.3431 108.008V98.92C51.3431 98.856 51.3431 98.792 51.3431 98.728C51.3538 98.6533 51.3645 98.5893 51.3751 98.536C51.3858 98.4187 51.4231 98.3013 51.4871 98.184C51.5191 98.056 51.5725 97.9653 51.6471 97.912C51.7111 97.848 51.8071 97.7947 51.9351 97.752C52.0738 97.6987 52.2711 97.6773 52.5271 97.688C53.0071 97.6987 53.4818 97.704 53.9511 97.704C54.4205 97.704 54.8898 97.7147 55.3591 97.736C55.6685 97.7573 55.9938 97.7947 56.3351 97.848C56.6871 97.8907 57.0125 97.9707 57.3111 98.088C57.5031 98.1627 57.6791 98.2373 57.8391 98.312C58.0418 98.4293 58.2018 98.5413 58.3191 98.648C58.6925 98.9893 58.9751 99.4 59.1671 99.88C59.3591 100.36 59.4551 100.845 59.4551 101.336C59.4551 101.912 59.3165 102.44 59.0391 102.92C58.7725 103.4 58.3405 103.757 57.7431 103.992C57.7218 104.013 57.6898 104.029 57.6471 104.04C57.6151 104.04 57.5885 104.045 57.5671 104.056L59.0391 107.016L59.1831 107.272C59.2045 107.315 59.2311 107.363 59.2631 107.416C59.2951 107.469 59.3218 107.523 59.3431 107.576C59.3751 107.629 59.4018 107.688 59.4231 107.752C59.4551 107.816 59.4871 107.875 59.5191 107.928C59.5511 108.077 59.5778 108.2 59.5991 108.296ZM55.5991 102.6C55.7911 102.6 55.9725 102.568 56.1431 102.504C56.3245 102.429 56.4845 102.333 56.6231 102.216C56.7725 102.099 56.8951 101.965 56.9911 101.816C57.0871 101.656 57.1405 101.485 57.1511 101.304C57.1938 100.771 57.0551 100.376 56.7351 100.12C56.4151 99.8533 55.9938 99.7093 55.4711 99.688C55.1618 99.6667 54.8205 99.656 54.4471 99.656C54.0845 99.656 53.7378 99.656 53.4071 99.656C53.4178 100.093 53.4178 100.541 53.4071 101C53.4071 101.448 53.4071 101.981 53.4071 102.6H55.5991ZM61.386 107.304L61.402 106.04L61.418 103.688C61.4287 103.347 61.434 102.995 61.434 102.632C61.434 102.269 61.434 101.896 61.434 101.512C61.434 101.128 61.434 100.787 61.434 100.488C61.434 100.189 61.4447 99.8533 61.466 99.48V99.416C61.4767 99.3093 61.482 99.2027 61.482 99.096C61.4927 98.9787 61.498 98.8613 61.498 98.744C61.5087 98.552 61.5673 98.344 61.674 98.12C61.7487 97.9707 61.8607 97.8427 62.01 97.736C62.1807 97.6507 62.346 97.608 62.506 97.608C62.5913 97.608 62.666 97.6133 62.73 97.624C62.8047 97.624 62.874 97.6293 62.938 97.64C63.0767 97.6613 63.1993 97.7253 63.306 97.832C63.37 97.8853 63.4287 97.9707 63.482 98.088C63.5033 98.152 63.5193 98.216 63.53 98.28C63.5513 98.3333 63.5673 98.392 63.578 98.456C63.5887 98.5307 63.594 98.6 63.594 98.664C63.6047 98.728 63.61 98.792 63.61 98.856C63.61 98.9307 63.6047 99 63.594 99.064C63.594 99.1173 63.594 99.176 63.594 99.24V99.512L63.498 107.816V107.976C63.498 108.008 63.4927 108.051 63.482 108.104C63.482 108.147 63.4767 108.2 63.466 108.264C63.4447 108.317 63.4233 108.376 63.402 108.44C63.3913 108.493 63.3753 108.552 63.354 108.616C63.322 108.669 63.2847 108.723 63.242 108.776C63.21 108.819 63.1673 108.861 63.114 108.904C63.0287 108.989 62.89 109.048 62.698 109.08C62.41 109.144 62.138 109.117 61.882 109C61.754 108.915 61.6633 108.808 61.61 108.68C61.578 108.648 61.562 108.616 61.562 108.584C61.5513 108.563 61.5407 108.547 61.53 108.536C61.5193 108.525 61.5087 108.509 61.498 108.488C61.4767 108.435 61.4607 108.381 61.45 108.328C61.4393 108.264 61.434 108.2 61.434 108.136C61.4233 108.083 61.4127 108.029 61.402 107.976C61.402 107.923 61.3967 107.869 61.386 107.816C61.3753 107.731 61.3753 107.64 61.386 107.544V107.304ZM67.5664 99.592L67.5344 102.104H68.1744C68.6117 102.093 69.001 102.088 69.3424 102.088C69.6837 102.088 70.0624 102.093 70.4784 102.104H70.5584C70.6864 102.104 70.809 102.109 70.9264 102.12C71.0544 102.12 71.177 102.12 71.2944 102.12C71.4224 102.131 71.545 102.152 71.6624 102.184C71.7797 102.205 71.897 102.232 72.0144 102.264C72.1957 102.328 72.345 102.424 72.4624 102.552C72.569 102.691 72.6224 102.845 72.6224 103.016C72.6224 103.069 72.6224 103.133 72.6224 103.208C72.6224 103.272 72.6117 103.331 72.5904 103.384C72.569 103.501 72.4997 103.608 72.3824 103.704C72.329 103.779 72.2277 103.832 72.0784 103.864C71.9397 103.907 71.801 103.933 71.6624 103.944C71.513 103.976 71.3637 103.992 71.2144 103.992H70.4624L67.5024 104.008L67.4704 107.144L70.6544 107.176H71.4064C71.4917 107.176 71.5717 107.176 71.6464 107.176C71.721 107.176 71.7904 107.181 71.8544 107.192C71.9397 107.213 72.0144 107.229 72.0784 107.24C72.153 107.24 72.2224 107.251 72.2864 107.272C72.4144 107.315 72.521 107.373 72.6064 107.448C72.713 107.555 72.7824 107.667 72.8144 107.784C72.825 107.837 72.8304 107.896 72.8304 107.96C72.841 108.013 72.841 108.072 72.8304 108.136C72.8304 108.307 72.777 108.461 72.6704 108.6C72.5424 108.749 72.393 108.845 72.2224 108.888C71.9984 108.984 71.753 109.032 71.4864 109.032C71.369 109.043 71.2464 109.048 71.1184 109.048C70.9904 109.048 70.8677 109.053 70.7504 109.064H70.6544C69.8224 109.085 68.9584 109.085 68.0624 109.064C67.849 109.064 67.6784 109.059 67.5504 109.048C67.4224 109.048 67.305 109.048 67.1984 109.048C67.1024 109.048 67.001 109.048 66.8944 109.048C66.7877 109.048 66.649 109.048 66.4784 109.048C66.233 109.069 66.0304 109.027 65.8704 108.92C65.753 108.845 65.6624 108.744 65.5984 108.616C65.5664 108.584 65.5504 108.552 65.5504 108.52C65.5397 108.499 65.529 108.483 65.5184 108.472C65.5077 108.461 65.497 108.445 65.4864 108.424C65.465 108.371 65.449 108.317 65.4384 108.264C65.4277 108.2 65.4224 108.141 65.4224 108.088C65.4117 108.035 65.401 107.981 65.3904 107.928C65.3904 107.875 65.385 107.821 65.3744 107.768V107.512C65.3744 107.469 65.3744 107.427 65.3744 107.384C65.385 107.341 65.3904 107.299 65.3904 107.256V106.008L65.4224 103.704V101.576C65.4224 101.192 65.4224 100.851 65.4224 100.552C65.433 100.253 65.4437 99.928 65.4544 99.576V99.496C65.465 99.3787 65.4704 99.272 65.4704 99.176C65.481 99.0693 65.4864 98.9627 65.4864 98.856C65.497 98.6427 65.5557 98.4347 65.6624 98.232C65.705 98.1467 65.7477 98.072 65.7904 98.008C65.8437 97.944 65.913 97.8907 65.9984 97.848C66.1584 97.752 66.3237 97.704 66.4944 97.704C66.5797 97.704 66.6437 97.7093 66.6864 97.72V97.704C66.8784 97.704 67.033 97.704 67.1504 97.704C67.2677 97.704 67.3797 97.704 67.4864 97.704C67.6037 97.704 67.7264 97.704 67.8544 97.704C67.9824 97.6933 68.1584 97.688 68.3824 97.688C68.809 97.6773 69.2144 97.672 69.5984 97.672C69.9824 97.672 70.377 97.6773 70.7824 97.688H70.8464C70.9637 97.6987 71.0864 97.704 71.2144 97.704C71.3424 97.704 71.465 97.7093 71.5824 97.72C71.6997 97.72 71.817 97.736 71.9344 97.768C72.0517 97.7893 72.169 97.8213 72.2864 97.864C72.4677 97.9173 72.617 98.008 72.7344 98.136C72.8304 98.2853 72.8784 98.4347 72.8784 98.584C72.8784 98.648 72.8784 98.712 72.8784 98.776C72.8784 98.8293 72.8677 98.8827 72.8464 98.936C72.8357 99.0427 72.7717 99.1547 72.6544 99.272C72.6117 99.2933 72.5637 99.32 72.5104 99.352C72.4677 99.384 72.4144 99.4107 72.3504 99.432C72.2864 99.4533 72.217 99.4693 72.1424 99.48C72.0784 99.48 72.0144 99.4853 71.9504 99.496C71.865 99.5173 71.785 99.528 71.7104 99.528C71.6464 99.528 71.5717 99.528 71.4864 99.528H70.7664L67.5664 99.544V99.592ZM82.8916 98.552C82.9556 99.064 82.993 99.6613 83.0036 100.344C83.0143 101.016 83.0036 101.699 82.9716 102.392C82.9503 103.075 82.9023 103.725 82.8276 104.344C82.753 104.952 82.6623 105.443 82.5556 105.816C82.481 106.04 82.3903 106.275 82.2836 106.52C82.1876 106.755 82.081 106.968 81.9636 107.16C81.793 107.448 81.585 107.704 81.3396 107.928C81.0943 108.141 80.8223 108.328 80.5236 108.488C80.2356 108.637 79.9263 108.755 79.5956 108.84C79.2756 108.925 78.9556 108.973 78.6356 108.984C78.0703 109.005 77.5316 108.925 77.0196 108.744C76.5183 108.552 76.0543 108.253 75.6276 107.848C75.3076 107.539 75.0516 107.208 74.8596 106.856C74.6676 106.504 74.5183 106.136 74.4116 105.752C74.305 105.357 74.2356 104.952 74.2036 104.536C74.1823 104.12 74.1716 103.693 74.1716 103.256C74.1716 103.053 74.1663 102.803 74.1556 102.504C74.1556 102.195 74.1556 101.88 74.1556 101.56C74.1556 101.229 74.1556 100.909 74.1556 100.6C74.1556 100.291 74.161 100.029 74.1716 99.816C74.1716 99.6773 74.1716 99.528 74.1716 99.368C74.1716 99.1973 74.177 99.032 74.1876 98.872C74.209 98.7013 74.241 98.5413 74.2836 98.392C74.3263 98.232 74.3903 98.088 74.4756 97.96C74.5716 97.8213 74.705 97.72 74.8756 97.656C75.0463 97.592 75.2223 97.56 75.4036 97.56C75.5956 97.56 75.777 97.5973 75.9476 97.672C76.1183 97.7467 76.257 97.8533 76.3636 97.992C76.417 98.0773 76.4543 98.1627 76.4756 98.248C76.497 98.3333 76.513 98.4293 76.5236 98.536C76.545 98.888 76.5556 99.288 76.5556 99.736C76.5663 100.184 76.5663 100.621 76.5556 101.048C76.5556 101.464 76.5503 101.848 76.5396 102.2C76.529 102.552 76.5236 102.813 76.5236 102.984C76.5236 103.624 76.5556 104.205 76.6196 104.728C76.6836 105.24 76.833 105.667 77.0676 106.008C77.281 106.317 77.5316 106.515 77.8196 106.6C78.1076 106.685 78.3956 106.712 78.6836 106.68C78.9503 106.648 79.217 106.552 79.4836 106.392C79.761 106.221 79.9796 105.976 80.1396 105.656C80.2036 105.539 80.257 105.405 80.2996 105.256C80.3423 105.107 80.3743 104.968 80.3956 104.84C80.4383 104.435 80.4756 103.965 80.5076 103.432C80.5396 102.888 80.5663 102.333 80.5876 101.768C80.609 101.203 80.6196 100.648 80.6196 100.104C80.6196 99.56 80.6143 99.0693 80.6036 98.632C80.625 98.44 80.6836 98.264 80.7796 98.104C80.865 97.9653 80.9876 97.8427 81.1476 97.736C81.3076 97.6293 81.5263 97.576 81.8036 97.576C82.0276 97.5867 82.209 97.6453 82.3476 97.752C82.4863 97.848 82.5983 97.9547 82.6836 98.072C82.7796 98.2107 82.849 98.3707 82.8916 98.552ZM92.5523 108.296C92.5629 108.403 92.5523 108.504 92.5203 108.6C92.4989 108.664 92.4669 108.717 92.4243 108.76C92.3923 108.803 92.3496 108.845 92.2963 108.888C92.2003 108.952 92.0829 109.011 91.9443 109.064C91.8589 109.085 91.7736 109.101 91.6883 109.112C91.6136 109.133 91.5336 109.133 91.4483 109.112C91.2776 109.101 91.1283 109.037 91.0003 108.92C90.8189 108.771 90.6696 108.605 90.5523 108.424C90.4989 108.339 90.4403 108.243 90.3763 108.136C90.3123 108.029 90.2536 107.917 90.2003 107.8L88.4243 104.424C88.3389 104.424 88.2536 104.429 88.1683 104.44C88.0829 104.44 87.9976 104.445 87.9123 104.456C87.6883 104.477 87.4749 104.483 87.2723 104.472C87.0803 104.461 86.8776 104.461 86.6643 104.472H86.3603V107.368C86.3603 107.453 86.3549 107.533 86.3443 107.608C86.3443 107.683 86.3443 107.763 86.3443 107.848C86.3443 107.901 86.3389 107.971 86.3283 108.056C86.3283 108.141 86.3229 108.221 86.3123 108.296C86.2909 108.413 86.2429 108.536 86.1683 108.664C86.0936 108.781 85.9923 108.883 85.8643 108.968C85.6403 109.107 85.3683 109.144 85.0483 109.08C84.9096 109.048 84.7763 108.995 84.6483 108.92C84.6056 108.888 84.5683 108.851 84.5363 108.808C84.5043 108.755 84.4776 108.701 84.4563 108.648C84.4349 108.595 84.4136 108.541 84.3923 108.488C84.3816 108.424 84.3656 108.365 84.3443 108.312C84.3123 108.205 84.2963 108.104 84.2963 108.008V98.92C84.2963 98.856 84.2963 98.792 84.2963 98.728C84.3069 98.6533 84.3176 98.5893 84.3283 98.536C84.3389 98.4187 84.3763 98.3013 84.4403 98.184C84.4723 98.056 84.5256 97.9653 84.6003 97.912C84.6643 97.848 84.7603 97.7947 84.8883 97.752C85.0269 97.6987 85.2243 97.6773 85.4803 97.688C85.9603 97.6987 86.4349 97.704 86.9043 97.704C87.3736 97.704 87.8429 97.7147 88.3123 97.736C88.6216 97.7573 88.9469 97.7947 89.2883 97.848C89.6403 97.8907 89.9656 97.9707 90.2643 98.088C90.4563 98.1627 90.6323 98.2373 90.7923 98.312C90.9949 98.4293 91.1549 98.5413 91.2723 98.648C91.6456 98.9893 91.9283 99.4 92.1203 99.88C92.3123 100.36 92.4083 100.845 92.4083 101.336C92.4083 101.912 92.2696 102.44 91.9923 102.92C91.7256 103.4 91.2936 103.757 90.6963 103.992C90.6749 104.013 90.6429 104.029 90.6003 104.04C90.5683 104.04 90.5416 104.045 90.5203 104.056L91.9923 107.016L92.1363 107.272C92.1576 107.315 92.1843 107.363 92.2163 107.416C92.2483 107.469 92.2749 107.523 92.2963 107.576C92.3283 107.629 92.3549 107.688 92.3763 107.752C92.4083 107.816 92.4403 107.875 92.4722 107.928C92.5043 108.077 92.5309 108.2 92.5523 108.296ZM88.5523 102.6C88.7443 102.6 88.9256 102.568 89.0963 102.504C89.2776 102.429 89.4376 102.333 89.5763 102.216C89.7256 102.099 89.8483 101.965 89.9443 101.816C90.0403 101.656 90.0936 101.485 90.1043 101.304C90.1469 100.771 90.0083 100.376 89.6883 100.12C89.3683 99.8533 88.9469 99.7093 88.4243 99.688C88.1149 99.6667 87.7736 99.656 87.4003 99.656C87.0376 99.656 86.6909 99.656 86.3603 99.656C86.3709 100.093 86.3709 100.541 86.3603 101C86.3603 101.448 86.3603 101.981 86.3603 102.6H88.5523Z" fill="white"/>
</g>
<defs>
<clipPath id="clip0">
<rect width="111" height="115" fill="white"/>
</clipPath>
</defs>
</svg>
