<svg width="83" height="116" viewBox="0 0 83 116" fill="none" xmlns="http://www.w3.org/2000/svg">
<path d="M63.7323 0H19.2681V27.1429H63.7323V0ZM25.1966 18.6607C25.1966 19.5976 24.533 20.3571 23.7145 20.3571C22.896 20.3571 22.2324 19.5976 22.2324 18.6607V8.48214C22.2324 7.5453 22.896 6.78571 23.7145 6.78571C24.533 6.78571 25.1966 7.5453 25.1966 8.48214V18.6607Z" fill="#FAFAFA"/>
<path d="M19.2681 30.5356V91.6071H23.7145V94.9999H29.6431V91.6071H53.3573V94.9999H59.2859V91.6071H63.7323V30.5356H19.2681ZM22.2324 45.8035V35.6249C22.2324 34.6881 22.896 33.9285 23.7145 33.9285C24.533 33.9285 25.1966 34.6881 25.1966 35.6249V45.8035C25.1966 46.7403 24.533 47.4999 23.7145 47.4999C22.896 47.4999 22.2324 46.7403 22.2324 45.8035Z" fill="#FAFAFA"/>
<path d="M27.8073 101.152C27.9033 101.28 27.962 101.429 27.9833 101.6C27.9833 101.664 27.978 101.728 27.9673 101.792C27.9673 101.845 27.962 101.899 27.9513 101.952C27.9406 102.069 27.8713 102.181 27.7433 102.288C27.6686 102.341 27.5726 102.395 27.4553 102.448C27.3913 102.469 27.322 102.485 27.2473 102.496C27.1833 102.496 27.1086 102.501 27.0233 102.512C26.9593 102.533 26.89 102.544 26.8153 102.544C26.7406 102.544 26.666 102.544 26.5913 102.544H25.8713L22.5273 102.56V102.608L22.5113 105.216C22.5966 105.216 22.6873 105.216 22.7833 105.216C22.89 105.216 23.018 105.211 23.1673 105.2C23.594 105.2 23.9726 105.2 24.3033 105.2C24.6446 105.2 25.018 105.205 25.4233 105.216H25.5193C25.6366 105.216 25.754 105.221 25.8713 105.232C25.9993 105.232 26.1273 105.232 26.2553 105.232C26.3726 105.243 26.49 105.259 26.6073 105.28C26.7246 105.291 26.842 105.317 26.9593 105.36C27.1513 105.424 27.29 105.525 27.3753 105.664C27.4926 105.803 27.5513 105.947 27.5513 106.096C27.5513 106.16 27.5513 106.224 27.5513 106.288C27.5513 106.341 27.5406 106.4 27.5193 106.464C27.5086 106.549 27.4393 106.656 27.3113 106.784C27.226 106.859 27.1246 106.907 27.0073 106.928C26.954 106.949 26.89 106.971 26.8153 106.992C26.7513 107.003 26.682 107.013 26.6073 107.024C26.5326 107.035 26.458 107.045 26.3833 107.056C26.3193 107.056 26.2446 107.056 26.1593 107.056H25.4233L22.4793 107.072L22.4313 110.784V110.912C22.4313 110.965 22.426 111.019 22.4153 111.072C22.4153 111.115 22.41 111.163 22.3993 111.216C22.378 111.269 22.3566 111.328 22.3353 111.392C22.3246 111.445 22.3086 111.499 22.2873 111.552C22.2126 111.701 22.1433 111.803 22.0793 111.856C21.962 111.941 21.818 112 21.6473 112.032C21.3593 112.096 21.0873 112.064 20.8313 111.936C20.778 111.904 20.7246 111.867 20.6713 111.824C20.6286 111.771 20.5913 111.707 20.5593 111.632C20.538 111.589 20.5273 111.557 20.5273 111.536L20.4793 111.44C20.4473 111.387 20.426 111.333 20.4153 111.28C20.4046 111.216 20.394 111.157 20.3833 111.104C20.3833 111.051 20.378 110.997 20.3673 110.944C20.3673 110.891 20.362 110.837 20.3513 110.784C20.3406 110.699 20.3406 110.613 20.3513 110.528V110.272L20.3673 109.024L20.3833 106.72C20.394 106.379 20.3993 106.032 20.3993 105.68C20.3993 105.328 20.3993 104.965 20.3993 104.592C20.3886 104.208 20.3833 103.867 20.3833 103.568C20.394 103.269 20.41 102.944 20.4313 102.592V102.512C20.442 102.395 20.4473 102.288 20.4473 102.192C20.4473 102.085 20.458 101.979 20.4793 101.872C20.5006 101.637 20.554 101.429 20.6393 101.248C20.714 101.067 20.8206 100.939 20.9593 100.864C21.1193 100.768 21.29 100.72 21.4713 100.72C21.5566 100.72 21.626 100.725 21.6793 100.736V100.72C21.8713 100.72 22.026 100.72 22.1433 100.72C22.2606 100.72 22.3726 100.72 22.4793 100.72C22.586 100.72 22.7033 100.72 22.8313 100.72C22.9593 100.709 23.13 100.704 23.3433 100.704C24.1966 100.693 25.0393 100.693 25.8713 100.704H25.9513C26.0686 100.715 26.186 100.72 26.3033 100.72C26.4313 100.72 26.5593 100.725 26.6873 100.736C26.8046 100.736 26.922 100.752 27.0393 100.784C27.1566 100.805 27.274 100.837 27.3913 100.88C27.5726 100.933 27.7113 101.024 27.8073 101.152ZM37.2944 111.296C37.3051 111.403 37.2944 111.504 37.2624 111.6C37.2411 111.664 37.2091 111.717 37.1664 111.76C37.1344 111.803 37.0918 111.845 37.0384 111.888C36.9424 111.952 36.8251 112.011 36.6864 112.064C36.6011 112.085 36.5158 112.101 36.4304 112.112C36.3558 112.133 36.2758 112.133 36.1904 112.112C36.0198 112.101 35.8704 112.037 35.7424 111.92C35.5611 111.771 35.4118 111.605 35.2944 111.424C35.2411 111.339 35.1824 111.243 35.1184 111.136C35.0544 111.029 34.9958 110.917 34.9424 110.8L33.1664 107.424C33.0811 107.424 32.9958 107.429 32.9104 107.44C32.8251 107.44 32.7398 107.445 32.6544 107.456C32.4304 107.477 32.2171 107.483 32.0144 107.472C31.8224 107.461 31.6198 107.461 31.4064 107.472H31.1024V110.368C31.1024 110.453 31.0971 110.533 31.0864 110.608C31.0864 110.683 31.0864 110.763 31.0864 110.848C31.0864 110.901 31.0811 110.971 31.0704 111.056C31.0704 111.141 31.0651 111.221 31.0544 111.296C31.0331 111.413 30.9851 111.536 30.9104 111.664C30.8358 111.781 30.7344 111.883 30.6064 111.968C30.3824 112.107 30.1104 112.144 29.7904 112.08C29.6518 112.048 29.5184 111.995 29.3904 111.92C29.3478 111.888 29.3104 111.851 29.2784 111.808C29.2464 111.755 29.2198 111.701 29.1984 111.648C29.1771 111.595 29.1558 111.541 29.1344 111.488C29.1238 111.424 29.1078 111.365 29.0864 111.312C29.0544 111.205 29.0384 111.104 29.0384 111.008V101.92C29.0384 101.856 29.0384 101.792 29.0384 101.728C29.0491 101.653 29.0598 101.589 29.0704 101.536C29.0811 101.419 29.1184 101.301 29.1824 101.184C29.2144 101.056 29.2678 100.965 29.3424 100.912C29.4064 100.848 29.5024 100.795 29.6304 100.752C29.7691 100.699 29.9664 100.677 30.2224 100.688C30.7024 100.699 31.1771 100.704 31.6464 100.704C32.1158 100.704 32.5851 100.715 33.0544 100.736C33.3638 100.757 33.6891 100.795 34.0304 100.848C34.3824 100.891 34.7078 100.971 35.0064 101.088C35.1984 101.163 35.3744 101.237 35.5344 101.312C35.7371 101.429 35.8971 101.541 36.0144 101.648C36.3878 101.989 36.6704 102.4 36.8624 102.88C37.0544 103.36 37.1504 103.845 37.1504 104.336C37.1504 104.912 37.0118 105.44 36.7344 105.92C36.4678 106.4 36.0358 106.757 35.4384 106.992C35.4171 107.013 35.3851 107.029 35.3424 107.04C35.3104 107.04 35.2838 107.045 35.2624 107.056L36.7344 110.016L36.8784 110.272C36.8998 110.315 36.9264 110.363 36.9584 110.416C36.9904 110.469 37.0171 110.523 37.0384 110.576C37.0704 110.629 37.0971 110.688 37.1184 110.752C37.1504 110.816 37.1824 110.875 37.2144 110.928C37.2464 111.077 37.2731 111.2 37.2944 111.296ZM33.2944 105.6C33.4864 105.6 33.6678 105.568 33.8384 105.504C34.0198 105.429 34.1798 105.333 34.3184 105.216C34.4678 105.099 34.5904 104.965 34.6864 104.816C34.7824 104.656 34.8358 104.485 34.8464 104.304C34.8891 103.771 34.7504 103.376 34.4304 103.12C34.1104 102.853 33.6891 102.709 33.1664 102.688C32.8571 102.667 32.5158 102.656 32.1424 102.656C31.7798 102.656 31.4331 102.656 31.1024 102.656C31.1131 103.093 31.1131 103.541 31.1024 104C31.1024 104.448 31.1024 104.981 31.1024 105.6H33.2944ZM39.0813 110.304L39.0973 109.04L39.1133 106.688C39.124 106.347 39.1293 105.995 39.1293 105.632C39.1293 105.269 39.1293 104.896 39.1293 104.512C39.1293 104.128 39.1293 103.787 39.1293 103.488C39.1293 103.189 39.14 102.853 39.1613 102.48V102.416C39.172 102.309 39.1773 102.203 39.1773 102.096C39.188 101.979 39.1933 101.861 39.1933 101.744C39.204 101.552 39.2626 101.344 39.3693 101.12C39.444 100.971 39.556 100.843 39.7053 100.736C39.876 100.651 40.0413 100.608 40.2013 100.608C40.2866 100.608 40.3613 100.613 40.4253 100.624C40.5 100.624 40.5693 100.629 40.6333 100.64C40.772 100.661 40.8946 100.725 41.0013 100.832C41.0653 100.885 41.124 100.971 41.1773 101.088C41.1986 101.152 41.2146 101.216 41.2253 101.28C41.2466 101.333 41.2626 101.392 41.2733 101.456C41.284 101.531 41.2893 101.6 41.2893 101.664C41.3 101.728 41.3053 101.792 41.3053 101.856C41.3053 101.931 41.3 102 41.2893 102.064C41.2893 102.117 41.2893 102.176 41.2893 102.24V102.512L41.1933 110.816V110.976C41.1933 111.008 41.188 111.051 41.1773 111.104C41.1773 111.147 41.172 111.2 41.1613 111.264C41.14 111.317 41.1186 111.376 41.0973 111.44C41.0866 111.493 41.0706 111.552 41.0493 111.616C41.0173 111.669 40.98 111.723 40.9373 111.776C40.9053 111.819 40.8626 111.861 40.8093 111.904C40.724 111.989 40.5853 112.048 40.3933 112.08C40.1053 112.144 39.8333 112.117 39.5773 112C39.4493 111.915 39.3586 111.808 39.3053 111.68C39.2733 111.648 39.2573 111.616 39.2573 111.584C39.2466 111.563 39.236 111.547 39.2253 111.536C39.2146 111.525 39.204 111.509 39.1933 111.488C39.172 111.435 39.156 111.381 39.1453 111.328C39.1346 111.264 39.1293 111.2 39.1293 111.136C39.1186 111.083 39.108 111.029 39.0973 110.976C39.0973 110.923 39.092 110.869 39.0813 110.816C39.0706 110.731 39.0706 110.64 39.0813 110.544V110.304ZM51.5337 108.192C51.5337 108.512 51.5177 108.837 51.4857 109.168C51.4537 109.488 51.3897 109.803 51.2937 110.112C51.1977 110.411 51.0537 110.699 50.8617 110.976C50.6697 111.243 50.4084 111.477 50.0777 111.68C49.9177 111.787 49.7257 111.877 49.5017 111.952C49.2884 112.016 49.059 112.069 48.8137 112.112C48.579 112.165 48.3444 112.197 48.1097 112.208C47.875 112.229 47.6564 112.235 47.4537 112.224C46.4937 112.192 45.715 111.963 45.1177 111.536C44.531 111.099 44.0777 110.56 43.7577 109.92C43.4484 109.28 43.2457 108.587 43.1497 107.84C43.0644 107.083 43.0484 106.363 43.1017 105.68C43.1337 105.275 43.203 104.837 43.3097 104.368C43.427 103.899 43.5924 103.445 43.8057 103.008C44.0297 102.571 44.3017 102.176 44.6217 101.824C44.9524 101.472 45.3417 101.205 45.7897 101.024C46.2057 100.853 46.659 100.747 47.1497 100.704C47.651 100.651 48.1417 100.667 48.6217 100.752C49.1124 100.837 49.5657 100.992 49.9817 101.216C50.4084 101.44 50.7444 101.739 50.9897 102.112C51.1604 102.389 51.2937 102.725 51.3897 103.12C51.4857 103.515 51.5017 103.893 51.4377 104.256C51.3844 104.576 51.2724 104.8 51.1017 104.928C50.931 105.045 50.7444 105.093 50.5417 105.072C50.339 105.04 50.1417 104.955 49.9497 104.816C49.7684 104.667 49.6457 104.48 49.5817 104.256C49.507 104.011 49.4164 103.787 49.3097 103.584C49.203 103.371 49.0377 103.195 48.8137 103.056C48.5577 102.896 48.2857 102.805 47.9977 102.784C47.7204 102.763 47.4484 102.795 47.1817 102.88C46.9257 102.965 46.6804 103.099 46.4457 103.28C46.2217 103.461 46.035 103.669 45.8857 103.904C45.7044 104.171 45.5657 104.464 45.4697 104.784C45.3737 105.093 45.3044 105.419 45.2617 105.76C45.219 106.091 45.203 106.427 45.2137 106.768C45.235 107.099 45.2777 107.419 45.3417 107.728C45.459 108.251 45.6404 108.741 45.8857 109.2C45.9817 109.371 46.1097 109.525 46.2697 109.664C46.4404 109.792 46.627 109.899 46.8297 109.984C47.0324 110.059 47.2457 110.107 47.4697 110.128C47.6937 110.149 47.907 110.133 48.1097 110.08C48.3977 110.005 48.6324 109.909 48.8137 109.792C48.995 109.664 49.139 109.515 49.2457 109.344C49.3524 109.173 49.4217 108.987 49.4537 108.784C49.4964 108.581 49.5177 108.368 49.5177 108.144V108.128C49.379 108.128 49.2564 108.128 49.1497 108.128C49.043 108.117 48.963 108.112 48.9097 108.112C48.675 108.112 48.4457 108.069 48.2217 107.984C48.0297 107.92 47.8857 107.819 47.7897 107.68C47.683 107.563 47.6297 107.419 47.6297 107.248C47.6297 107.184 47.6297 107.125 47.6297 107.072C47.6404 107.008 47.651 106.944 47.6617 106.88C47.6937 106.795 47.763 106.688 47.8697 106.56C47.9337 106.507 48.035 106.464 48.1737 106.432C48.2377 106.411 48.3017 106.395 48.3657 106.384C48.4297 106.363 48.5044 106.347 48.5897 106.336C48.6537 106.325 48.723 106.32 48.7977 106.32C48.8724 106.32 48.947 106.32 49.0217 106.32H50.4777C50.595 106.309 50.7284 106.325 50.8777 106.368C51.0377 106.4 51.1604 106.453 51.2457 106.528C51.2777 106.571 51.3097 106.613 51.3417 106.656C51.3737 106.699 51.4004 106.747 51.4217 106.8C51.4644 106.917 51.491 107.035 51.5017 107.152C51.5124 107.216 51.5177 107.285 51.5177 107.36C51.5284 107.424 51.5337 107.483 51.5337 107.536V108.192ZM55.6517 101.056C56.3664 100.789 57.0117 100.672 57.5877 100.704C58.1744 100.736 58.697 100.885 59.1557 101.152C59.6144 101.408 60.0037 101.755 60.3237 102.192C60.6544 102.629 60.921 103.12 61.1237 103.664C61.2837 104.069 61.4064 104.496 61.4917 104.944C61.577 105.392 61.625 105.84 61.6357 106.288C61.657 106.725 61.641 107.157 61.5877 107.584C61.545 108.011 61.4704 108.405 61.3637 108.768C61.2997 109.013 61.225 109.237 61.1397 109.44C61.0544 109.643 60.953 109.845 60.8357 110.048C60.569 110.507 60.2224 110.88 59.7957 111.168C59.3797 111.456 58.921 111.659 58.4197 111.776C58.0784 111.861 57.7264 111.904 57.3637 111.904C57.001 111.893 56.6437 111.845 56.2917 111.76C55.9397 111.664 55.5984 111.531 55.2677 111.36C54.9477 111.179 54.6544 110.955 54.3877 110.688C54.057 110.368 53.785 110 53.5717 109.584C53.3584 109.157 53.193 108.715 53.0757 108.256C52.9584 107.787 52.8837 107.317 52.8517 106.848C52.8197 106.379 52.8197 105.931 52.8517 105.504C52.8837 105.109 52.9584 104.688 53.0757 104.24C53.2037 103.792 53.385 103.36 53.6197 102.944C53.8544 102.528 54.137 102.155 54.4677 101.824C54.809 101.483 55.2037 101.227 55.6517 101.056ZM59.3957 107.904C59.5237 107.403 59.577 106.837 59.5557 106.208C59.5344 105.579 59.433 104.987 59.2517 104.432C59.1344 104.091 58.985 103.792 58.8037 103.536C58.633 103.269 58.425 103.067 58.1797 102.928C57.945 102.789 57.6677 102.72 57.3477 102.72C57.0277 102.72 56.6704 102.816 56.2757 103.008C56.041 103.125 55.8384 103.285 55.6677 103.488C55.5077 103.691 55.3744 103.92 55.2677 104.176C55.1717 104.432 55.0917 104.699 55.0277 104.976C54.9744 105.253 54.9424 105.52 54.9317 105.776C54.9104 106.053 54.905 106.347 54.9157 106.656C54.9264 106.955 54.9584 107.259 55.0117 107.568C55.0757 107.867 55.161 108.155 55.2677 108.432C55.3744 108.699 55.5184 108.939 55.6997 109.152C55.977 109.472 56.297 109.696 56.6597 109.824C57.033 109.941 57.401 109.957 57.7637 109.872C58.3504 109.744 58.7984 109.355 59.1077 108.704C59.2357 108.469 59.3317 108.203 59.3957 107.904Z" fill="#FAFAFA"/>
</svg>
