<svg width="111" height="115" viewBox="0 0 111 115" fill="none" xmlns="http://www.w3.org/2000/svg">
<g clip-path="url(#clip0)">
<path d="M85.2322 0H25.7681V26.9089H85.2322V0ZM33.6965 18.4998C33.6965 19.4287 32.8091 20.1816 31.7145 20.1816C30.6198 20.1816 29.7324 19.4287 29.7324 18.4998V8.40902C29.7324 7.48025 30.6198 6.72721 31.7145 6.72721C32.8091 6.72721 33.6965 7.48025 33.6965 8.40902V18.4998Z" fill="#FAFAFA"/>
<path d="M25.7681 30.2723V90.8174H31.7145V94.1809H39.6431V90.8174H71.3572V94.1809H79.2858V90.8174H85.2322V30.2723H25.7681ZM29.7324 45.4086V35.3178C29.7324 34.389 30.6198 33.636 31.7145 33.636C32.8091 33.636 33.6965 34.389 33.6965 35.3178V45.4086C33.6965 46.3373 32.8091 47.0904 31.7145 47.0904C30.6198 47.0904 29.7324 46.3373 29.7324 45.4086Z" fill="#FAFAFA"/>
<path d="M42.3073 104.152C42.4033 104.28 42.462 104.429 42.4833 104.6C42.4833 104.664 42.478 104.728 42.4673 104.792C42.4673 104.845 42.462 104.899 42.4513 104.952C42.4406 105.069 42.3713 105.181 42.2433 105.288C42.1686 105.341 42.0726 105.395 41.9553 105.448C41.8913 105.469 41.822 105.485 41.7473 105.496C41.6833 105.496 41.6086 105.501 41.5233 105.512C41.4593 105.533 41.39 105.544 41.3153 105.544C41.2406 105.544 41.166 105.544 41.0913 105.544H40.3713L37.0273 105.56V105.608L37.0113 108.216C37.0966 108.216 37.1873 108.216 37.2833 108.216C37.39 108.216 37.518 108.211 37.6673 108.2C38.094 108.2 38.4726 108.2 38.8033 108.2C39.1446 108.2 39.518 108.205 39.9233 108.216H40.0193C40.1366 108.216 40.254 108.221 40.3713 108.232C40.4993 108.232 40.6273 108.232 40.7553 108.232C40.8726 108.243 40.99 108.259 41.1073 108.28C41.2246 108.291 41.342 108.317 41.4593 108.36C41.6513 108.424 41.79 108.525 41.8753 108.664C41.9926 108.803 42.0513 108.947 42.0513 109.096C42.0513 109.16 42.0513 109.224 42.0513 109.288C42.0513 109.341 42.0406 109.4 42.0193 109.464C42.0086 109.549 41.9393 109.656 41.8113 109.784C41.726 109.859 41.6246 109.907 41.5073 109.928C41.454 109.949 41.39 109.971 41.3153 109.992C41.2513 110.003 41.182 110.013 41.1073 110.024C41.0326 110.035 40.958 110.045 40.8833 110.056C40.8193 110.056 40.7446 110.056 40.6593 110.056H39.9233L36.9793 110.072L36.9313 113.784V113.912C36.9313 113.965 36.926 114.019 36.9153 114.072C36.9153 114.115 36.91 114.163 36.8993 114.216C36.878 114.269 36.8566 114.328 36.8353 114.392C36.8246 114.445 36.8086 114.499 36.7873 114.552C36.7126 114.701 36.6433 114.803 36.5793 114.856C36.462 114.941 36.318 115 36.1473 115.032C35.8593 115.096 35.5873 115.064 35.3313 114.936C35.278 114.904 35.2246 114.867 35.1713 114.824C35.1286 114.771 35.0913 114.707 35.0593 114.632C35.038 114.589 35.0273 114.557 35.0273 114.536L34.9793 114.44C34.9473 114.387 34.926 114.333 34.9153 114.28C34.9046 114.216 34.894 114.157 34.8833 114.104C34.8833 114.051 34.878 113.997 34.8673 113.944C34.8673 113.891 34.862 113.837 34.8513 113.784C34.8406 113.699 34.8406 113.613 34.8513 113.528V113.272L34.8673 112.024L34.8833 109.72C34.894 109.379 34.8993 109.032 34.8993 108.68C34.8993 108.328 34.8993 107.965 34.8993 107.592C34.8886 107.208 34.8833 106.867 34.8833 106.568C34.894 106.269 34.91 105.944 34.9313 105.592V105.512C34.942 105.395 34.9473 105.288 34.9473 105.192C34.9473 105.085 34.958 104.979 34.9793 104.872C35.0006 104.637 35.054 104.429 35.1393 104.248C35.214 104.067 35.3206 103.939 35.4593 103.864C35.6193 103.768 35.79 103.72 35.9713 103.72C36.0566 103.72 36.126 103.725 36.1793 103.736V103.72C36.3713 103.72 36.526 103.72 36.6433 103.72C36.7606 103.72 36.8726 103.72 36.9793 103.72C37.086 103.72 37.2033 103.72 37.3313 103.72C37.4593 103.709 37.63 103.704 37.8433 103.704C38.6966 103.693 39.5393 103.693 40.3713 103.704H40.4513C40.5686 103.715 40.686 103.72 40.8033 103.72C40.9313 103.72 41.0593 103.725 41.1873 103.736C41.3046 103.736 41.422 103.752 41.5393 103.784C41.6566 103.805 41.774 103.837 41.8913 103.88C42.0726 103.933 42.2113 104.024 42.3073 104.152ZM51.7944 114.296C51.8051 114.403 51.7944 114.504 51.7624 114.6C51.7411 114.664 51.7091 114.717 51.6664 114.76C51.6344 114.803 51.5918 114.845 51.5384 114.888C51.4424 114.952 51.3251 115.011 51.1864 115.064C51.1011 115.085 51.0158 115.101 50.9304 115.112C50.8558 115.133 50.7758 115.133 50.6904 115.112C50.5198 115.101 50.3704 115.037 50.2424 114.92C50.0611 114.771 49.9118 114.605 49.7944 114.424C49.7411 114.339 49.6824 114.243 49.6184 114.136C49.5544 114.029 49.4958 113.917 49.4424 113.8L47.6664 110.424C47.5811 110.424 47.4958 110.429 47.4104 110.44C47.3251 110.44 47.2398 110.445 47.1544 110.456C46.9304 110.477 46.7171 110.483 46.5144 110.472C46.3224 110.461 46.1198 110.461 45.9064 110.472H45.6024V113.368C45.6024 113.453 45.5971 113.533 45.5864 113.608C45.5864 113.683 45.5864 113.763 45.5864 113.848C45.5864 113.901 45.5811 113.971 45.5704 114.056C45.5704 114.141 45.5651 114.221 45.5544 114.296C45.5331 114.413 45.4851 114.536 45.4104 114.664C45.3358 114.781 45.2344 114.883 45.1064 114.968C44.8824 115.107 44.6104 115.144 44.2904 115.08C44.1518 115.048 44.0184 114.995 43.8904 114.92C43.8478 114.888 43.8104 114.851 43.7784 114.808C43.7464 114.755 43.7198 114.701 43.6984 114.648C43.6771 114.595 43.6558 114.541 43.6344 114.488C43.6238 114.424 43.6078 114.365 43.5864 114.312C43.5544 114.205 43.5384 114.104 43.5384 114.008V104.92C43.5384 104.856 43.5384 104.792 43.5384 104.728C43.5491 104.653 43.5598 104.589 43.5704 104.536C43.5811 104.419 43.6184 104.301 43.6824 104.184C43.7144 104.056 43.7678 103.965 43.8424 103.912C43.9064 103.848 44.0024 103.795 44.1304 103.752C44.2691 103.699 44.4664 103.677 44.7224 103.688C45.2024 103.699 45.6771 103.704 46.1464 103.704C46.6158 103.704 47.0851 103.715 47.5544 103.736C47.8638 103.757 48.1891 103.795 48.5304 103.848C48.8824 103.891 49.2078 103.971 49.5064 104.088C49.6984 104.163 49.8744 104.237 50.0344 104.312C50.2371 104.429 50.3971 104.541 50.5144 104.648C50.8878 104.989 51.1704 105.4 51.3624 105.88C51.5544 106.36 51.6504 106.845 51.6504 107.336C51.6504 107.912 51.5118 108.44 51.2344 108.92C50.9678 109.4 50.5358 109.757 49.9384 109.992C49.9171 110.013 49.8851 110.029 49.8424 110.04C49.8104 110.04 49.7838 110.045 49.7624 110.056L51.2344 113.016L51.3784 113.272C51.3998 113.315 51.4264 113.363 51.4584 113.416C51.4904 113.469 51.5171 113.523 51.5384 113.576C51.5704 113.629 51.5971 113.688 51.6184 113.752C51.6504 113.816 51.6824 113.875 51.7144 113.928C51.7464 114.077 51.7731 114.2 51.7944 114.296ZM47.7944 108.6C47.9864 108.6 48.1678 108.568 48.3384 108.504C48.5198 108.429 48.6798 108.333 48.8184 108.216C48.9678 108.099 49.0904 107.965 49.1864 107.816C49.2824 107.656 49.3358 107.485 49.3464 107.304C49.3891 106.771 49.2504 106.376 48.9304 106.12C48.6104 105.853 48.1891 105.709 47.6664 105.688C47.3571 105.667 47.0158 105.656 46.6424 105.656C46.2798 105.656 45.9331 105.656 45.6024 105.656C45.6131 106.093 45.6131 106.541 45.6024 107C45.6024 107.448 45.6024 107.981 45.6024 108.6H47.7944ZM53.5813 113.304L53.5973 112.04L53.6133 109.688C53.624 109.347 53.6293 108.995 53.6293 108.632C53.6293 108.269 53.6293 107.896 53.6293 107.512C53.6293 107.128 53.6293 106.787 53.6293 106.488C53.6293 106.189 53.64 105.853 53.6613 105.48V105.416C53.672 105.309 53.6773 105.203 53.6773 105.096C53.688 104.979 53.6933 104.861 53.6933 104.744C53.704 104.552 53.7626 104.344 53.8693 104.12C53.944 103.971 54.056 103.843 54.2053 103.736C54.376 103.651 54.5413 103.608 54.7013 103.608C54.7866 103.608 54.8613 103.613 54.9253 103.624C55 103.624 55.0693 103.629 55.1333 103.64C55.272 103.661 55.3946 103.725 55.5013 103.832C55.5653 103.885 55.624 103.971 55.6773 104.088C55.6986 104.152 55.7146 104.216 55.7253 104.28C55.7466 104.333 55.7626 104.392 55.7733 104.456C55.784 104.531 55.7893 104.6 55.7893 104.664C55.8 104.728 55.8053 104.792 55.8053 104.856C55.8053 104.931 55.8 105 55.7893 105.064C55.7893 105.117 55.7893 105.176 55.7893 105.24V105.512L55.6933 113.816V113.976C55.6933 114.008 55.688 114.051 55.6773 114.104C55.6773 114.147 55.672 114.2 55.6613 114.264C55.64 114.317 55.6186 114.376 55.5973 114.44C55.5866 114.493 55.5706 114.552 55.5493 114.616C55.5173 114.669 55.48 114.723 55.4373 114.776C55.4053 114.819 55.3626 114.861 55.3093 114.904C55.224 114.989 55.0853 115.048 54.8933 115.08C54.6053 115.144 54.3333 115.117 54.0773 115C53.9493 114.915 53.8586 114.808 53.8053 114.68C53.7733 114.648 53.7573 114.616 53.7573 114.584C53.7466 114.563 53.736 114.547 53.7253 114.536C53.7146 114.525 53.704 114.509 53.6933 114.488C53.672 114.435 53.656 114.381 53.6453 114.328C53.6346 114.264 53.6293 114.2 53.6293 114.136C53.6186 114.083 53.608 114.029 53.5973 113.976C53.5973 113.923 53.592 113.869 53.5813 113.816C53.5706 113.731 53.5706 113.64 53.5813 113.544V113.304ZM66.0337 111.192C66.0337 111.512 66.0177 111.837 65.9857 112.168C65.9537 112.488 65.8897 112.803 65.7937 113.112C65.6977 113.411 65.5537 113.699 65.3617 113.976C65.1697 114.243 64.9084 114.477 64.5777 114.68C64.4177 114.787 64.2257 114.877 64.0017 114.952C63.7884 115.016 63.559 115.069 63.3137 115.112C63.079 115.165 62.8444 115.197 62.6097 115.208C62.375 115.229 62.1564 115.235 61.9537 115.224C60.9937 115.192 60.215 114.963 59.6177 114.536C59.031 114.099 58.5777 113.56 58.2577 112.92C57.9484 112.28 57.7457 111.587 57.6497 110.84C57.5644 110.083 57.5484 109.363 57.6017 108.68C57.6337 108.275 57.703 107.837 57.8097 107.368C57.927 106.899 58.0924 106.445 58.3057 106.008C58.5297 105.571 58.8017 105.176 59.1217 104.824C59.4524 104.472 59.8417 104.205 60.2897 104.024C60.7057 103.853 61.159 103.747 61.6497 103.704C62.151 103.651 62.6417 103.667 63.1217 103.752C63.6124 103.837 64.0657 103.992 64.4817 104.216C64.9084 104.44 65.2444 104.739 65.4897 105.112C65.6604 105.389 65.7937 105.725 65.8897 106.12C65.9857 106.515 66.0017 106.893 65.9377 107.256C65.8844 107.576 65.7724 107.8 65.6017 107.928C65.431 108.045 65.2444 108.093 65.0417 108.072C64.839 108.04 64.6417 107.955 64.4497 107.816C64.2684 107.667 64.1457 107.48 64.0817 107.256C64.007 107.011 63.9164 106.787 63.8097 106.584C63.703 106.371 63.5377 106.195 63.3137 106.056C63.0577 105.896 62.7857 105.805 62.4977 105.784C62.2204 105.763 61.9484 105.795 61.6817 105.88C61.4257 105.965 61.1804 106.099 60.9457 106.28C60.7217 106.461 60.535 106.669 60.3857 106.904C60.2044 107.171 60.0657 107.464 59.9697 107.784C59.8737 108.093 59.8044 108.419 59.7617 108.76C59.719 109.091 59.703 109.427 59.7137 109.768C59.735 110.099 59.7777 110.419 59.8417 110.728C59.959 111.251 60.1404 111.741 60.3857 112.2C60.4817 112.371 60.6097 112.525 60.7697 112.664C60.9404 112.792 61.127 112.899 61.3297 112.984C61.5324 113.059 61.7457 113.107 61.9697 113.128C62.1937 113.149 62.407 113.133 62.6097 113.08C62.8977 113.005 63.1324 112.909 63.3137 112.792C63.495 112.664 63.639 112.515 63.7457 112.344C63.8524 112.173 63.9217 111.987 63.9537 111.784C63.9964 111.581 64.0177 111.368 64.0177 111.144V111.128C63.879 111.128 63.7564 111.128 63.6497 111.128C63.543 111.117 63.463 111.112 63.4097 111.112C63.175 111.112 62.9457 111.069 62.7217 110.984C62.5297 110.92 62.3857 110.819 62.2897 110.68C62.183 110.563 62.1297 110.419 62.1297 110.248C62.1297 110.184 62.1297 110.125 62.1297 110.072C62.1404 110.008 62.151 109.944 62.1617 109.88C62.1937 109.795 62.263 109.688 62.3697 109.56C62.4337 109.507 62.535 109.464 62.6737 109.432C62.7377 109.411 62.8017 109.395 62.8657 109.384C62.9297 109.363 63.0044 109.347 63.0897 109.336C63.1537 109.325 63.223 109.32 63.2977 109.32C63.3724 109.32 63.447 109.32 63.5217 109.32H64.9777C65.095 109.309 65.2284 109.325 65.3777 109.368C65.5377 109.4 65.6604 109.453 65.7457 109.528C65.7777 109.571 65.8097 109.613 65.8417 109.656C65.8737 109.699 65.9004 109.747 65.9217 109.8C65.9644 109.917 65.991 110.035 66.0017 110.152C66.0124 110.216 66.0177 110.285 66.0177 110.36C66.0284 110.424 66.0337 110.483 66.0337 110.536V111.192ZM70.1517 104.056C70.8664 103.789 71.5117 103.672 72.0877 103.704C72.6744 103.736 73.197 103.885 73.6557 104.152C74.1144 104.408 74.5037 104.755 74.8237 105.192C75.1544 105.629 75.421 106.12 75.6237 106.664C75.7837 107.069 75.9064 107.496 75.9917 107.944C76.077 108.392 76.125 108.84 76.1357 109.288C76.157 109.725 76.141 110.157 76.0877 110.584C76.045 111.011 75.9704 111.405 75.8637 111.768C75.7997 112.013 75.725 112.237 75.6397 112.44C75.5544 112.643 75.453 112.845 75.3357 113.048C75.069 113.507 74.7224 113.88 74.2957 114.168C73.8797 114.456 73.421 114.659 72.9197 114.776C72.5784 114.861 72.2264 114.904 71.8637 114.904C71.501 114.893 71.1437 114.845 70.7917 114.76C70.4397 114.664 70.0984 114.531 69.7677 114.36C69.4477 114.179 69.1544 113.955 68.8877 113.688C68.557 113.368 68.285 113 68.0717 112.584C67.8584 112.157 67.693 111.715 67.5757 111.256C67.4584 110.787 67.3837 110.317 67.3517 109.848C67.3197 109.379 67.3197 108.931 67.3517 108.504C67.3837 108.109 67.4584 107.688 67.5757 107.24C67.7037 106.792 67.885 106.36 68.1197 105.944C68.3544 105.528 68.637 105.155 68.9677 104.824C69.309 104.483 69.7037 104.227 70.1517 104.056ZM73.8957 110.904C74.0237 110.403 74.077 109.837 74.0557 109.208C74.0344 108.579 73.933 107.987 73.7517 107.432C73.6344 107.091 73.485 106.792 73.3037 106.536C73.133 106.269 72.925 106.067 72.6797 105.928C72.445 105.789 72.1677 105.72 71.8477 105.72C71.5277 105.72 71.1704 105.816 70.7757 106.008C70.541 106.125 70.3384 106.285 70.1677 106.488C70.0077 106.691 69.8744 106.92 69.7677 107.176C69.6717 107.432 69.5917 107.699 69.5277 107.976C69.4744 108.253 69.4424 108.52 69.4317 108.776C69.4104 109.053 69.405 109.347 69.4157 109.656C69.4264 109.955 69.4584 110.259 69.5117 110.568C69.5757 110.867 69.661 111.155 69.7677 111.432C69.8744 111.699 70.0184 111.939 70.1997 112.152C70.477 112.472 70.797 112.696 71.1597 112.824C71.533 112.941 71.901 112.957 72.2637 112.872C72.8504 112.744 73.2984 112.355 73.6077 111.704C73.7357 111.469 73.8317 111.203 73.8957 110.904Z" fill="white"/>
</g>
<defs>
<clipPath id="clip0">
<rect width="111" height="115" fill="white"/>
</clipPath>
</defs>
</svg>
