<svg width="264" height="200" viewBox="0 0 264 200" fill="none" xmlns="http://www.w3.org/2000/svg">
<g filter="url(#filter0_d)">
<rect x="6.56343" y="79.4218" width="224.719" height="116.03" rx="3" transform="rotate(-20 6.56343 79.4218)" stroke="#FFFCFC" stroke-width="4"/>
<path d="M38.4088 117.19L45.7289 114.567C49.0645 113.372 51.6541 112.982 53.4977 113.399C55.3482 113.801 56.6444 115.037 57.3861 117.107C57.8896 118.512 57.9703 119.784 57.6282 120.923C57.2967 122.058 56.6167 122.913 55.5881 123.488L55.6457 123.648C57.2557 123.447 58.5511 123.684 59.5321 124.362C60.5237 125.035 61.2905 126.128 61.8324 127.64C62.6011 129.785 62.4231 131.737 61.2984 133.496C60.1844 135.25 58.2974 136.604 55.6375 137.557L46.8373 140.711L38.4088 117.19ZM46.7341 124.718L49.63 123.68C50.9814 123.196 51.8824 122.637 52.3332 122.004C52.7946 121.366 52.8524 120.565 52.5065 119.6C52.1836 118.699 51.6206 118.174 50.8172 118.026C50.0208 117.864 48.9093 118.038 47.4828 118.55L44.8605 119.489L46.7341 124.718ZM48.1523 128.676L50.3488 134.805L53.5986 133.641C54.9714 133.149 55.8908 132.523 56.3567 131.763C56.8227 131.003 56.8615 130.081 56.4734 128.998C55.7739 127.046 54.0298 126.569 51.2412 127.569L48.1523 128.676ZM68.9745 132.778L60.5461 109.257L65.5334 107.47L73.9619 130.991L68.9745 132.778ZM93.4285 124.015L79.8823 128.869L71.4538 105.349L85 100.494L86.4643 104.581L77.9054 107.648L79.756 112.812L87.7196 109.958L89.1839 114.045L81.2203 116.899L83.3937 122.964L91.9526 119.897L93.4285 124.015ZM119.218 114.774L112.879 117.045L96.2708 102.918L96.126 102.97C97.4559 106.04 98.3611 108.245 98.8415 109.586L102.808 120.654L98.3514 122.251L89.9229 98.7304L96.2134 96.4762L112.742 110.432L112.855 110.392C111.598 107.392 110.744 105.26 110.29 103.995L106.301 92.8616L110.789 91.2531L119.218 114.774ZM133.731 117.38C132.604 117.783 131.581 118.017 130.66 118.081L129.172 113.93C130.107 113.837 130.929 113.664 131.636 113.41C132.73 113.018 133.39 112.394 133.616 111.539C133.846 110.694 133.702 109.547 133.183 108.1L125.285 86.0588L130.272 84.2716L138.158 106.28C139.142 109.026 139.264 111.342 138.525 113.229C137.785 115.116 136.187 116.499 133.731 117.38ZM161.744 86.2281C163.139 90.1214 163.246 93.4597 162.065 96.243C160.884 99.0262 158.491 101.064 154.888 102.355C151.284 103.646 148.142 103.592 145.462 102.193C142.782 100.793 140.741 98.1357 139.338 94.2209C137.935 90.3061 137.83 86.9732 139.023 84.2221C140.222 81.4564 142.629 79.426 146.243 78.1308C149.858 76.8356 152.993 76.8863 155.647 78.2829C158.313 79.6757 160.345 82.3241 161.744 86.2281ZM144.578 92.3794C145.52 95.0071 146.727 96.8073 148.201 97.7798C149.675 98.7523 151.405 98.883 153.389 98.172C157.368 96.7461 158.41 93.3894 156.515 88.1018C154.617 82.8034 151.689 80.8633 147.731 82.2815C145.747 82.9926 144.491 84.199 143.963 85.901C143.431 87.5922 143.636 89.7517 144.578 92.3794ZM181.561 65.8927L187.014 81.112C187.637 82.8495 187.791 84.5128 187.477 86.1019C187.174 87.6871 186.413 89.0916 185.193 90.3153C183.973 91.539 182.361 92.5102 180.355 93.2289C177.331 94.3127 174.705 94.3822 172.478 93.4373C170.248 92.4816 168.65 90.6578 167.686 87.9657L162.255 72.8107L167.226 71.0293L172.386 85.4282C173.036 87.2408 173.877 88.4401 174.91 89.026C175.943 89.612 177.301 89.6032 178.985 88.9998C180.615 88.4156 181.643 87.5692 182.069 86.4606C182.501 85.3373 182.391 83.8641 181.738 82.0408L176.59 67.6741L181.561 65.8927ZM209.295 82.4954L195.749 87.3496L187.32 63.8288L200.866 58.9746L202.331 63.061L193.772 66.128L195.623 71.2923L203.586 68.4386L205.05 72.525L197.087 75.3787L199.26 81.4439L207.819 78.3769L209.295 82.4954ZM223.713 68.5241L219.788 69.9308L213.335 54.5067L218.901 52.512L223.713 68.5241ZM220.875 75.75C220.552 74.8491 220.549 74.0815 220.866 73.4474C221.184 72.8132 221.804 72.3309 222.726 72.0004C223.616 71.6814 224.387 71.6713 225.039 71.9703C225.701 72.2654 226.19 72.8527 226.505 73.7322C226.809 74.5795 226.802 75.3383 226.486 76.0084C226.166 76.6679 225.566 77.1552 224.686 77.4703C223.785 77.7932 223.003 77.807 222.341 77.5119C221.675 77.206 221.186 76.6187 220.875 75.75Z" fill="white"/>
</g>
<defs>
<filter id="filter0_d" x="0" y="0" width="263.978" height="199.018" filterUnits="userSpaceOnUse" color-interpolation-filters="sRGB">
<feFlood flood-opacity="0" result="BackgroundImageFix"/>
<feColorMatrix in="SourceAlpha" type="matrix" values="0 0 0 0 0 0 0 0 0 0 0 0 0 0 0 0 0 0 127 0"/>
<feOffset dy="4"/>
<feGaussianBlur stdDeviation="2"/>
<feColorMatrix type="matrix" values="0 0 0 0 0 0 0 0 0 0 0 0 0 0 0 0 0 0 0.25 0"/>
<feBlend mode="normal" in2="BackgroundImageFix" result="effect1_dropShadow"/>
<feBlend mode="normal" in="SourceGraphic" in2="effect1_dropShadow" result="shape"/>
</filter>
</defs>
</svg>
