<svg width="83" height="107" viewBox="0 0 83 107" fill="none" xmlns="http://www.w3.org/2000/svg">
<g clip-path="url(#clip0)">
<path d="M81.4905 61.2587L73.853 57.6731H80.5679C81.911 57.6731 82.9995 56.4272 82.9995 54.8899C82.9995 53.3534 81.911 52.1067 80.5679 52.1067H73.8543L81.4905 48.5226C82.7329 47.9392 83.3269 46.3134 82.8178 44.8914C82.308 43.4694 80.8877 42.7902 79.6452 43.3722L69.9719 47.9138C69.9738 47.7551 69.9769 47.5971 69.9769 47.4376V17.6269C69.9769 16.6006 69.483 15.6576 68.6927 15.1727C67.9018 14.6886 66.9425 14.7415 66.1965 15.3112L58.4343 21.2342C53.552 17.1 47.6071 14.8437 41.5002 14.8437C35.3932 14.8437 29.4483 17.1 24.5661 21.2342L16.8038 15.3112C16.0578 14.7415 15.0985 14.6886 14.3076 15.1735C13.5173 15.6569 13.0234 16.6006 13.0234 17.6269V47.4376C13.0234 47.5963 13.0265 47.7543 13.0291 47.9131L3.35506 43.3722C2.11264 42.7881 0.692287 43.4686 0.182529 44.8907C-0.327229 46.3127 0.267383 47.9384 1.5098 48.5219L9.1473 52.1067H2.43243C1.08933 52.1067 0.000789113 53.3526 0.000789113 54.8899C0.000789113 56.4265 1.08933 57.6731 2.43243 57.6731H9.1473L1.5098 61.2587C0.267383 61.8414 -0.327229 63.4671 0.182529 64.8892C0.568805 65.9662 1.47624 66.6178 2.4337 66.6178C2.74082 66.6178 3.053 66.5504 3.35506 66.4083L15.4936 60.7107C19.9428 72.0856 29.9258 80.0315 41.5002 80.0315C53.0745 80.0315 63.0575 72.0863 67.5067 60.7107L79.6452 66.4083C79.9473 66.5504 80.2595 66.6178 80.5672 66.6178C81.5241 66.6178 82.4321 65.9662 82.8178 64.8892C83.3269 63.4671 82.7329 61.8421 81.4905 61.2587V61.2587ZM50.1996 38.0167C50.6517 37.4985 51.2786 37.2014 51.9176 37.2014C52.5584 37.2014 53.1853 37.4985 53.6375 38.0167C54.0896 38.5342 54.3492 39.2518 54.3492 39.9846C54.3492 40.718 54.0896 41.4356 53.6375 41.9531C53.1853 42.4713 52.5584 42.7678 51.9176 42.7678C51.2786 42.7678 50.6517 42.4713 50.1996 41.9531C49.7475 41.4341 49.4859 40.718 49.4859 39.9846C49.4859 39.2518 49.7475 38.5357 50.1996 38.0167ZM29.3622 38.0167C29.8143 37.4985 30.4419 37.2014 31.0821 37.2014C31.7223 37.2014 32.3486 37.4985 32.802 38.0167C33.2541 38.5357 33.5137 39.2518 33.5137 39.9846C33.5137 40.718 33.2541 41.4341 32.802 41.9531C32.3479 42.4713 31.7223 42.7678 31.0821 42.7678C30.4419 42.7678 29.8143 42.4713 29.3622 41.9531C28.9101 41.4356 28.6505 40.718 28.6505 39.9846C28.6505 39.2518 28.9101 38.5342 29.3622 38.0167ZM48.0118 65.1262C45.4478 65.1262 43.1326 63.8853 41.5002 61.9001C39.8683 63.8846 37.5532 65.1262 34.9892 65.1262C30.0581 65.1262 26.0459 60.5346 26.0459 54.8899C26.0459 53.3534 27.1345 52.1067 28.4776 52.1067C29.8207 52.1067 30.9092 53.3534 30.9092 54.8899C30.9092 57.4651 32.7393 59.5598 34.9892 59.5598C36.8465 59.5598 38.4169 58.1312 38.9083 56.1829C38.7044 55.9184 38.517 55.6227 38.3517 55.2958L37.0485 52.7126C36.2861 51.2014 36.2341 49.5707 36.9054 48.2399C37.5766 46.9085 38.8367 46.1446 40.3616 46.1446H42.9667C44.4916 46.1446 45.7511 46.9085 46.4223 48.2392C47.0942 49.5707 47.0416 51.2007 46.2792 52.7119L44.9766 55.2951C44.7474 55.7502 44.4764 56.1453 44.175 56.4779C44.7436 58.2732 46.2488 59.5598 48.0111 59.5598C50.261 59.5598 52.0911 57.4651 52.0911 54.8899C52.0911 53.3526 53.1796 52.1067 54.5227 52.1067C55.8658 52.1067 56.9544 53.3526 56.9544 54.8899C56.9544 60.5346 52.9428 65.1262 48.0118 65.1262V65.1262Z" fill="#FAFAFA"/>
</g>
<path d="M25.1414 99.784C25.1627 99.8373 25.1734 99.9173 25.1734 100.024C25.1734 100.12 25.1734 100.2 25.1734 100.264C25.1734 100.349 25.1574 100.429 25.1254 100.504C25.0934 100.579 25.0507 100.648 24.9974 100.712C24.9014 100.84 24.7627 100.936 24.5814 101C24.3254 101.085 24.0854 101.128 23.8614 101.128C23.744 101.139 23.6214 101.144 23.4934 101.144C23.3654 101.144 23.2374 101.155 23.1094 101.176H23.0454C22.224 101.187 21.376 101.187 20.5014 101.176C20.288 101.165 20.048 101.165 19.7814 101.176C19.5147 101.197 19.2534 101.192 18.9974 101.16C18.7414 101.139 18.5067 101.08 18.2934 100.984C18.0907 100.877 17.9467 100.712 17.8614 100.488C17.84 100.435 17.824 100.387 17.8134 100.344C17.8027 100.291 17.7974 100.237 17.7974 100.184C17.7547 99.8213 17.7387 99.464 17.7494 99.112C17.76 98.76 17.7654 98.4133 17.7654 98.072L17.7974 95.752V93.608C17.7974 93.224 17.7974 92.8827 17.7974 92.584C17.808 92.2853 17.8187 91.9547 17.8294 91.592V91.512C17.84 91.4053 17.8454 91.2987 17.8454 91.192C17.856 91.0853 17.8614 90.9787 17.8614 90.872C17.8827 90.6267 17.9414 90.4187 18.0374 90.248C18.1014 90.088 18.2134 89.96 18.3734 89.864C18.512 89.768 18.6774 89.72 18.8694 89.72C18.944 89.72 19.0134 89.7253 19.0774 89.736C19.152 89.736 19.2214 89.7413 19.2854 89.752C19.3494 89.7627 19.408 89.784 19.4614 89.816C19.5254 89.848 19.5894 89.8907 19.6534 89.944C19.7174 90.0187 19.776 90.1093 19.8294 90.216C19.872 90.3333 19.8987 90.4507 19.9094 90.568C19.92 90.6427 19.9307 90.712 19.9414 90.776C19.952 90.84 19.9574 90.904 19.9574 90.968C19.936 91.032 19.9254 91.096 19.9254 91.16C19.9254 91.224 19.9254 91.2827 19.9254 91.336V91.624L19.8614 99.16L23.0294 99.192H23.7814C23.8454 99.192 23.9147 99.1973 23.9894 99.208C24.064 99.208 24.1387 99.2133 24.2134 99.224C24.2987 99.2347 24.3734 99.2453 24.4374 99.256C24.5014 99.2667 24.5654 99.2827 24.6294 99.304C24.7467 99.336 24.8427 99.3893 24.9174 99.464C25.0347 99.5707 25.1094 99.6773 25.1414 99.784ZM26.9485 99.304L26.9645 98.04L26.9805 95.688C26.9912 95.3467 26.9965 94.9947 26.9965 94.632C26.9965 94.2693 26.9965 93.896 26.9965 93.512C26.9965 93.128 26.9965 92.7867 26.9965 92.488C26.9965 92.1893 27.0072 91.8533 27.0285 91.48V91.416C27.0392 91.3093 27.0445 91.2027 27.0445 91.096C27.0552 90.9787 27.0605 90.8613 27.0605 90.744C27.0712 90.552 27.1298 90.344 27.2365 90.12C27.3112 89.9707 27.4232 89.8427 27.5725 89.736C27.7432 89.6507 27.9085 89.608 28.0685 89.608C28.1538 89.608 28.2285 89.6133 28.2925 89.624C28.3672 89.624 28.4365 89.6293 28.5005 89.64C28.6392 89.6613 28.7618 89.7253 28.8685 89.832C28.9325 89.8853 28.9912 89.9707 29.0445 90.088C29.0658 90.152 29.0818 90.216 29.0925 90.28C29.1138 90.3333 29.1298 90.392 29.1405 90.456C29.1512 90.5307 29.1565 90.6 29.1565 90.664C29.1672 90.728 29.1725 90.792 29.1725 90.856C29.1725 90.9307 29.1672 91 29.1565 91.064C29.1565 91.1173 29.1565 91.176 29.1565 91.24V91.512L29.0605 99.816V99.976C29.0605 100.008 29.0552 100.051 29.0445 100.104C29.0445 100.147 29.0392 100.2 29.0285 100.264C29.0072 100.317 28.9858 100.376 28.9645 100.44C28.9538 100.493 28.9378 100.552 28.9165 100.616C28.8845 100.669 28.8472 100.723 28.8045 100.776C28.7725 100.819 28.7298 100.861 28.6765 100.904C28.5912 100.989 28.4525 101.048 28.2605 101.08C27.9725 101.144 27.7005 101.117 27.4445 101C27.3165 100.915 27.2258 100.808 27.1725 100.68C27.1405 100.648 27.1245 100.616 27.1245 100.584C27.1138 100.563 27.1032 100.547 27.0925 100.536C27.0818 100.525 27.0712 100.509 27.0605 100.488C27.0392 100.435 27.0232 100.381 27.0125 100.328C27.0018 100.264 26.9965 100.2 26.9965 100.136C26.9858 100.083 26.9752 100.029 26.9645 99.976C26.9645 99.9227 26.9592 99.8693 26.9485 99.816C26.9378 99.7307 26.9378 99.64 26.9485 99.544V99.304ZM39.1283 90.168C39.2456 90.3067 39.3043 90.4507 39.3043 90.6C39.3043 90.664 39.2989 90.7333 39.2883 90.808C39.2883 90.872 39.2829 90.9307 39.2723 90.984C39.2403 91.1013 39.1709 91.2133 39.0642 91.32C38.9789 91.384 38.8616 91.432 38.7123 91.464C38.6376 91.4853 38.5629 91.5013 38.4883 91.512C38.4136 91.5227 38.3336 91.5387 38.2483 91.56C38.1736 91.5707 38.0989 91.576 38.0243 91.576C37.9496 91.576 37.8696 91.576 37.7843 91.576H36.9683C36.7763 91.5867 36.5843 91.592 36.3923 91.592C36.2109 91.592 36.0296 91.592 35.8483 91.592C35.8589 91.9227 35.8643 92.28 35.8643 92.664C35.8643 93.0373 35.8589 93.4747 35.8483 93.976C35.8483 94.4773 35.8429 95.0587 35.8323 95.72C35.8323 96.3813 35.8323 97.1493 35.8323 98.024V99.24C35.8323 99.3467 35.8376 99.4267 35.8483 99.48C35.8483 99.5227 35.8483 99.5653 35.8483 99.608C35.8483 99.64 35.8429 99.6827 35.8323 99.736C35.8109 99.832 35.7949 99.944 35.7843 100.072C35.7843 100.125 35.7789 100.179 35.7683 100.232C35.7576 100.275 35.7416 100.323 35.7203 100.376C35.6776 100.419 35.6563 100.451 35.6563 100.472L35.6083 100.568C35.5549 100.675 35.4536 100.776 35.3043 100.872C35.0696 100.989 34.8083 101.016 34.5203 100.952C34.3389 100.931 34.2003 100.883 34.1043 100.808C34.0083 100.712 33.9389 100.616 33.8963 100.52C33.8323 100.403 33.7949 100.291 33.7843 100.184C33.7523 100.088 33.7363 99.9867 33.7363 99.88V91.656C33.6723 91.656 33.5389 91.656 33.3363 91.656C33.1336 91.656 32.9149 91.656 32.6803 91.656C32.4563 91.6453 32.2429 91.6347 32.0403 91.624C31.8376 91.6133 31.6989 91.6027 31.6243 91.592C31.5603 91.5813 31.4589 91.5653 31.3203 91.544C31.1923 91.5227 31.0856 91.5013 31.0003 91.48C30.7763 91.416 30.6003 91.3147 30.4723 91.176C30.3549 91.0373 30.2963 90.8827 30.2963 90.712C30.2963 90.648 30.2963 90.584 30.2963 90.52C30.2963 90.456 30.3069 90.3973 30.3283 90.344C30.3603 90.216 30.4456 90.1093 30.5843 90.024C30.6269 89.992 30.6909 89.9547 30.7763 89.912C30.8723 89.8587 30.9629 89.8213 31.0483 89.8C31.1763 89.7573 31.3363 89.7253 31.5283 89.704C31.6136 89.6933 31.6989 89.688 31.7843 89.688C31.8696 89.688 31.9603 89.688 32.0563 89.688C32.4296 89.688 32.7816 89.688 33.1123 89.688C33.4536 89.688 33.8109 89.6827 34.1843 89.672C34.8029 89.6613 35.4163 89.6613 36.0243 89.672C36.6429 89.672 37.2563 89.6827 37.8643 89.704C38.0029 89.7147 38.1363 89.7307 38.2643 89.752C38.3923 89.7733 38.5203 89.8107 38.6483 89.864C38.7443 89.896 38.8349 89.9387 38.9203 89.992C39.0056 90.0347 39.0749 90.0933 39.1283 90.168ZM40.4329 99.304L40.4489 98.04L40.4649 95.688C40.4755 95.3467 40.4809 94.9947 40.4809 94.632C40.4809 94.2693 40.4809 93.896 40.4809 93.512C40.4809 93.128 40.4809 92.7867 40.4809 92.488C40.4809 92.1893 40.4915 91.8533 40.5129 91.48V91.416C40.5235 91.3093 40.5289 91.2027 40.5289 91.096C40.5395 90.9787 40.5449 90.8613 40.5449 90.744C40.5555 90.552 40.6142 90.344 40.7209 90.12C40.7955 89.9707 40.9075 89.8427 41.0569 89.736C41.2275 89.6507 41.3929 89.608 41.5529 89.608C41.6382 89.608 41.7129 89.6133 41.7769 89.624C41.8515 89.624 41.9209 89.6293 41.9849 89.64C42.1235 89.6613 42.2462 89.7253 42.3529 89.832C42.4169 89.8853 42.4755 89.9707 42.5289 90.088C42.5502 90.152 42.5662 90.216 42.5769 90.28C42.5982 90.3333 42.6142 90.392 42.6249 90.456C42.6355 90.5307 42.6409 90.6 42.6409 90.664C42.6515 90.728 42.6569 90.792 42.6569 90.856C42.6569 90.9307 42.6515 91 42.6409 91.064C42.6409 91.1173 42.6409 91.176 42.6409 91.24V91.512L42.5449 99.816V99.976C42.5449 100.008 42.5395 100.051 42.5289 100.104C42.5289 100.147 42.5235 100.2 42.5129 100.264C42.4915 100.317 42.4702 100.376 42.4489 100.44C42.4382 100.493 42.4222 100.552 42.4009 100.616C42.3689 100.669 42.3315 100.723 42.2889 100.776C42.2569 100.819 42.2142 100.861 42.1609 100.904C42.0755 100.989 41.9369 101.048 41.7449 101.08C41.4569 101.144 41.1849 101.117 40.9289 101C40.8009 100.915 40.7102 100.808 40.6569 100.68C40.6249 100.648 40.6089 100.616 40.6089 100.584C40.5982 100.563 40.5875 100.547 40.5769 100.536C40.5662 100.525 40.5555 100.509 40.5449 100.488C40.5235 100.435 40.5075 100.381 40.4969 100.328C40.4862 100.264 40.4809 100.2 40.4809 100.136C40.4702 100.083 40.4595 100.029 40.4489 99.976C40.4489 99.9227 40.4435 99.8693 40.4329 99.816C40.4222 99.7307 40.4222 99.64 40.4329 99.544V99.304ZM46.6133 91.592L46.5813 94.104H47.2213C47.6586 94.0933 48.0479 94.088 48.3893 94.088C48.7306 94.088 49.1093 94.0933 49.5253 94.104H49.6053C49.7333 94.104 49.8559 94.1093 49.9733 94.12C50.1013 94.12 50.2239 94.12 50.3413 94.12C50.4693 94.1307 50.5919 94.152 50.7093 94.184C50.8266 94.2053 50.9439 94.232 51.0613 94.264C51.2426 94.328 51.3919 94.424 51.5093 94.552C51.6159 94.6907 51.6693 94.8453 51.6693 95.016C51.6693 95.0693 51.6693 95.1333 51.6693 95.208C51.6693 95.272 51.6586 95.3307 51.6373 95.384C51.6159 95.5013 51.5466 95.608 51.4293 95.704C51.3759 95.7787 51.2746 95.832 51.1253 95.864C50.9866 95.9067 50.8479 95.9333 50.7093 95.944C50.5599 95.976 50.4106 95.992 50.2613 95.992H49.5093L46.5493 96.008L46.5173 99.144L49.7013 99.176H50.4533C50.5386 99.176 50.6186 99.176 50.6933 99.176C50.7679 99.176 50.8373 99.1813 50.9013 99.192C50.9866 99.2133 51.0613 99.2293 51.1253 99.24C51.1999 99.24 51.2693 99.2507 51.3333 99.272C51.4613 99.3147 51.5679 99.3733 51.6533 99.448C51.7599 99.5547 51.8293 99.6667 51.8612 99.784C51.8719 99.8373 51.8773 99.896 51.8773 99.96C51.8879 100.013 51.8879 100.072 51.8773 100.136C51.8773 100.307 51.8239 100.461 51.7173 100.6C51.5893 100.749 51.4399 100.845 51.2693 100.888C51.0453 100.984 50.7999 101.032 50.5333 101.032C50.4159 101.043 50.2933 101.048 50.1653 101.048C50.0373 101.048 49.9146 101.053 49.7973 101.064H49.7013C48.8693 101.085 48.0053 101.085 47.1093 101.064C46.8959 101.064 46.7253 101.059 46.5973 101.048C46.4693 101.048 46.3519 101.048 46.2453 101.048C46.1493 101.048 46.0479 101.048 45.9413 101.048C45.8346 101.048 45.6959 101.048 45.5253 101.048C45.2799 101.069 45.0773 101.027 44.9173 100.92C44.7999 100.845 44.7093 100.744 44.6453 100.616C44.6133 100.584 44.5973 100.552 44.5973 100.52C44.5866 100.499 44.5759 100.483 44.5653 100.472C44.5546 100.461 44.5439 100.445 44.5333 100.424C44.5119 100.371 44.4959 100.317 44.4853 100.264C44.4746 100.2 44.4693 100.141 44.4693 100.088C44.4586 100.035 44.4479 99.9813 44.4373 99.928C44.4373 99.8747 44.4319 99.8213 44.4213 99.768V99.512C44.4213 99.4693 44.4213 99.4267 44.4213 99.384C44.4319 99.3413 44.4373 99.2987 44.4373 99.256V98.008L44.4693 95.704V93.576C44.4693 93.192 44.4693 92.8507 44.4693 92.552C44.4799 92.2533 44.4906 91.928 44.5013 91.576V91.496C44.5119 91.3787 44.5173 91.272 44.5173 91.176C44.5279 91.0693 44.5333 90.9627 44.5333 90.856C44.5439 90.6427 44.6026 90.4347 44.7093 90.232C44.7519 90.1467 44.7946 90.072 44.8372 90.008C44.8906 89.944 44.9599 89.8907 45.0453 89.848C45.2053 89.752 45.3706 89.704 45.5413 89.704C45.6266 89.704 45.6906 89.7093 45.7333 89.72V89.704C45.9253 89.704 46.0799 89.704 46.1973 89.704C46.3146 89.704 46.4266 89.704 46.5333 89.704C46.6506 89.704 46.7733 89.704 46.9013 89.704C47.0293 89.6933 47.2053 89.688 47.4293 89.688C47.8559 89.6773 48.2613 89.672 48.6453 89.672C49.0293 89.672 49.4239 89.6773 49.8293 89.688H49.8933C50.0106 89.6987 50.1333 89.704 50.2613 89.704C50.3893 89.704 50.5119 89.7093 50.6293 89.72C50.7466 89.72 50.8639 89.736 50.9813 89.768C51.0986 89.7893 51.2159 89.8213 51.3333 89.864C51.5146 89.9173 51.6639 90.008 51.7812 90.136C51.8773 90.2853 51.9253 90.4347 51.9253 90.584C51.9253 90.648 51.9253 90.712 51.9253 90.776C51.9253 90.8293 51.9146 90.8827 51.8933 90.936C51.8826 91.0427 51.8186 91.1547 51.7013 91.272C51.6586 91.2933 51.6106 91.32 51.5573 91.352C51.5146 91.384 51.4613 91.4107 51.3973 91.432C51.3333 91.4533 51.2639 91.4693 51.1893 91.48C51.1253 91.48 51.0613 91.4853 50.9973 91.496C50.9119 91.5173 50.8319 91.528 50.7573 91.528C50.6933 91.528 50.6186 91.528 50.5333 91.528H49.8133L46.6133 91.544V91.592ZM61.4585 100.296C61.4692 100.403 61.4585 100.504 61.4265 100.6C61.4052 100.664 61.3732 100.717 61.3305 100.76C61.2985 100.803 61.2558 100.845 61.2025 100.888C61.1065 100.952 60.9892 101.011 60.8505 101.064C60.7652 101.085 60.6798 101.101 60.5945 101.112C60.5198 101.133 60.4398 101.133 60.3545 101.112C60.1838 101.101 60.0345 101.037 59.9065 100.92C59.7252 100.771 59.5758 100.605 59.4585 100.424C59.4052 100.339 59.3465 100.243 59.2825 100.136C59.2185 100.029 59.1598 99.9173 59.1065 99.8L57.3305 96.424C57.2452 96.424 57.1598 96.4293 57.0745 96.44C56.9892 96.44 56.9038 96.4453 56.8185 96.456C56.5945 96.4773 56.3812 96.4827 56.1785 96.472C55.9865 96.4613 55.7838 96.4613 55.5705 96.472H55.2665V99.368C55.2665 99.4533 55.2612 99.5333 55.2505 99.608C55.2505 99.6827 55.2505 99.7627 55.2505 99.848C55.2505 99.9013 55.2452 99.9707 55.2345 100.056C55.2345 100.141 55.2292 100.221 55.2185 100.296C55.1972 100.413 55.1492 100.536 55.0745 100.664C54.9998 100.781 54.8985 100.883 54.7705 100.968C54.5465 101.107 54.2745 101.144 53.9545 101.08C53.8158 101.048 53.6825 100.995 53.5545 100.92C53.5118 100.888 53.4745 100.851 53.4425 100.808C53.4105 100.755 53.3838 100.701 53.3625 100.648C53.3412 100.595 53.3198 100.541 53.2985 100.488C53.2878 100.424 53.2718 100.365 53.2505 100.312C53.2185 100.205 53.2025 100.104 53.2025 100.008V90.92C53.2025 90.856 53.2025 90.792 53.2025 90.728C53.2132 90.6533 53.2238 90.5893 53.2345 90.536C53.2452 90.4187 53.2825 90.3013 53.3465 90.184C53.3785 90.056 53.4318 89.9653 53.5065 89.912C53.5705 89.848 53.6665 89.7947 53.7945 89.752C53.9332 89.6987 54.1305 89.6773 54.3865 89.688C54.8665 89.6987 55.3412 89.704 55.8105 89.704C56.2798 89.704 56.7492 89.7147 57.2185 89.736C57.5278 89.7573 57.8532 89.7947 58.1945 89.848C58.5465 89.8907 58.8718 89.9707 59.1705 90.088C59.3625 90.1627 59.5385 90.2373 59.6985 90.312C59.9012 90.4293 60.0612 90.5413 60.1785 90.648C60.5518 90.9893 60.8345 91.4 61.0265 91.88C61.2185 92.36 61.3145 92.8453 61.3145 93.336C61.3145 93.912 61.1758 94.44 60.8985 94.92C60.6318 95.4 60.1998 95.7573 59.6025 95.992C59.5812 96.0133 59.5492 96.0293 59.5065 96.04C59.4745 96.04 59.4478 96.0453 59.4265 96.056L60.8985 99.016L61.0425 99.272C61.0638 99.3147 61.0905 99.3627 61.1225 99.416C61.1545 99.4693 61.1812 99.5227 61.2025 99.576C61.2345 99.6293 61.2612 99.688 61.2825 99.752C61.3145 99.816 61.3465 99.8747 61.3785 99.928C61.4105 100.077 61.4372 100.2 61.4585 100.296ZM57.4585 94.6C57.6505 94.6 57.8318 94.568 58.0025 94.504C58.1838 94.4293 58.3438 94.3333 58.4825 94.216C58.6318 94.0987 58.7545 93.9653 58.8505 93.816C58.9465 93.656 58.9998 93.4853 59.0105 93.304C59.0532 92.7707 58.9145 92.376 58.5945 92.12C58.2745 91.8533 57.8532 91.7093 57.3305 91.688C57.0212 91.6667 56.6798 91.656 56.3065 91.656C55.9438 91.656 55.5972 91.656 55.2665 91.656C55.2772 92.0933 55.2772 92.5413 55.2665 93C55.2665 93.448 55.2665 93.9813 55.2665 94.6H57.4585ZM64.9414 91.592L64.9094 94.104H65.5494C65.9867 94.0933 66.376 94.088 66.7174 94.088C67.0587 94.088 67.4374 94.0933 67.8534 94.104H67.9334C68.0614 94.104 68.184 94.1093 68.3014 94.12C68.4294 94.12 68.552 94.12 68.6694 94.12C68.7974 94.1307 68.92 94.152 69.0374 94.184C69.1547 94.2053 69.272 94.232 69.3894 94.264C69.5707 94.328 69.72 94.424 69.8374 94.552C69.944 94.6907 69.9974 94.8453 69.9974 95.016C69.9974 95.0693 69.9974 95.1333 69.9974 95.208C69.9974 95.272 69.9867 95.3307 69.9654 95.384C69.944 95.5013 69.8747 95.608 69.7574 95.704C69.704 95.7787 69.6027 95.832 69.4534 95.864C69.3147 95.9067 69.176 95.9333 69.0374 95.944C68.888 95.976 68.7387 95.992 68.5894 95.992H67.8374L64.8774 96.008L64.8454 99.144L68.0294 99.176H68.7814C68.8667 99.176 68.9467 99.176 69.0214 99.176C69.096 99.176 69.1654 99.1813 69.2294 99.192C69.3147 99.2133 69.3894 99.2293 69.4534 99.24C69.528 99.24 69.5974 99.2507 69.6614 99.272C69.7894 99.3147 69.896 99.3733 69.9814 99.448C70.088 99.5547 70.1574 99.6667 70.1894 99.784C70.2 99.8373 70.2054 99.896 70.2054 99.96C70.216 100.013 70.216 100.072 70.2054 100.136C70.2054 100.307 70.152 100.461 70.0454 100.6C69.9174 100.749 69.768 100.845 69.5974 100.888C69.3734 100.984 69.128 101.032 68.8614 101.032C68.744 101.043 68.6214 101.048 68.4934 101.048C68.3654 101.048 68.2427 101.053 68.1254 101.064H68.0294C67.1974 101.085 66.3334 101.085 65.4374 101.064C65.224 101.064 65.0534 101.059 64.9254 101.048C64.7974 101.048 64.68 101.048 64.5734 101.048C64.4774 101.048 64.376 101.048 64.2694 101.048C64.1627 101.048 64.024 101.048 63.8534 101.048C63.608 101.069 63.4054 101.027 63.2454 100.92C63.128 100.845 63.0374 100.744 62.9734 100.616C62.9414 100.584 62.9254 100.552 62.9254 100.52C62.9147 100.499 62.904 100.483 62.8934 100.472C62.8827 100.461 62.872 100.445 62.8614 100.424C62.84 100.371 62.824 100.317 62.8134 100.264C62.8027 100.2 62.7974 100.141 62.7974 100.088C62.7867 100.035 62.776 99.9813 62.7654 99.928C62.7654 99.8747 62.76 99.8213 62.7494 99.768V99.512C62.7494 99.4693 62.7494 99.4267 62.7494 99.384C62.76 99.3413 62.7654 99.2987 62.7654 99.256V98.008L62.7974 95.704V93.576C62.7974 93.192 62.7974 92.8507 62.7974 92.552C62.808 92.2533 62.8187 91.928 62.8294 91.576V91.496C62.84 91.3787 62.8454 91.272 62.8454 91.176C62.856 91.0693 62.8614 90.9627 62.8614 90.856C62.872 90.6427 62.9307 90.4347 63.0374 90.232C63.08 90.1467 63.1227 90.072 63.1654 90.008C63.2187 89.944 63.288 89.8907 63.3734 89.848C63.5334 89.752 63.6987 89.704 63.8694 89.704C63.9547 89.704 64.0187 89.7093 64.0614 89.72V89.704C64.2534 89.704 64.408 89.704 64.5254 89.704C64.6427 89.704 64.7547 89.704 64.8614 89.704C64.9787 89.704 65.1014 89.704 65.2294 89.704C65.3574 89.6933 65.5334 89.688 65.7574 89.688C66.184 89.6773 66.5894 89.672 66.9734 89.672C67.3574 89.672 67.752 89.6773 68.1574 89.688H68.2214C68.3387 89.6987 68.4614 89.704 68.5894 89.704C68.7174 89.704 68.84 89.7093 68.9574 89.72C69.0747 89.72 69.192 89.736 69.3094 89.768C69.4267 89.7893 69.544 89.8213 69.6614 89.864C69.8427 89.9173 69.992 90.008 70.1094 90.136C70.2054 90.2853 70.2534 90.4347 70.2534 90.584C70.2534 90.648 70.2534 90.712 70.2534 90.776C70.2534 90.8293 70.2427 90.8827 70.2214 90.936C70.2107 91.0427 70.1467 91.1547 70.0294 91.272C69.9867 91.2933 69.9387 91.32 69.8854 91.352C69.8427 91.384 69.7894 91.4107 69.7254 91.432C69.6614 91.4533 69.592 91.4693 69.5174 91.48C69.4534 91.48 69.3894 91.4853 69.3254 91.496C69.24 91.5173 69.16 91.528 69.0854 91.528C69.0214 91.528 68.9467 91.528 68.8614 91.528H68.1414L64.9414 91.544V91.592Z" fill="#FAFAFA"/>
<defs>
<clipPath id="clip0">
<rect width="83" height="95" fill="white"/>
</clipPath>
</defs>
</svg>
