<svg width="111" height="115" viewBox="0 0 111 115" fill="none" xmlns="http://www.w3.org/2000/svg">
<g clip-path="url(#clip0)">
<path d="M108.981 65.8388L98.7673 61.9852H107.747C109.544 61.9852 110.999 60.6461 110.999 58.9939C110.999 57.3425 109.544 56.0026 107.747 56.0026H98.769L108.981 52.1505C110.643 51.5235 111.437 49.7761 110.756 48.2478C110.075 46.7195 108.175 45.9895 106.513 46.615L93.5769 51.4962C93.5794 51.3256 93.5836 51.1558 93.5836 50.9844V18.9449C93.5836 17.8418 92.9231 16.8283 91.8661 16.3072C90.8084 15.7869 89.5255 15.8437 88.5279 16.456L78.1471 22.8219C71.6177 18.3786 63.6673 15.9536 55.5003 15.9536C47.3331 15.9536 39.3827 18.3786 32.8535 22.8219L22.4726 16.456C21.4749 15.8437 20.192 15.7869 19.1343 16.308C18.0774 16.8276 17.4168 17.8418 17.4168 18.9449V50.9844C17.4168 51.155 17.421 51.3248 17.4245 51.4954L4.48689 46.615C2.82534 45.9873 0.92583 46.7186 0.244105 48.2471C-0.43762 49.7754 0.357584 51.5226 2.01913 52.1498L12.2331 56.0026H3.25301C1.45681 56.0026 0.00105526 57.3416 0.00105526 58.9939C0.00105526 60.6454 1.45681 61.9852 3.25301 61.9852H12.2331L2.01913 65.8388C0.357584 66.4651 -0.43762 68.2124 0.244105 69.7408C0.760691 70.8983 1.97425 71.5986 3.25471 71.5986C3.66543 71.5986 4.08293 71.5262 4.48689 71.3735L20.7204 65.2499C26.6705 77.4752 40.0212 86.0152 55.5003 86.0152C70.9791 86.0152 84.3299 77.476 90.28 65.2499L106.513 71.3735C106.917 71.5262 107.335 71.5986 107.746 71.5986C109.026 71.5986 110.241 70.8983 110.756 69.7408C111.437 68.2124 110.643 66.4659 108.981 65.8388ZM67.1344 40.8591C67.739 40.3022 68.5774 39.9829 69.432 39.9829C70.2889 39.9829 71.1273 40.3022 71.7321 40.8591C72.3367 41.4153 72.6839 42.1866 72.6839 42.9742C72.6839 43.7624 72.3367 44.5336 71.7321 45.0898C71.1273 45.6468 70.2889 45.9654 69.432 45.9654C68.5774 45.9654 67.739 45.6468 67.1344 45.0898C66.5298 44.532 66.1799 43.7624 66.1799 42.9742C66.1799 42.1866 66.5298 41.4169 67.1344 40.8591ZM39.2675 40.8591C39.8721 40.3022 40.7115 39.9829 41.5676 39.9829C42.4238 39.9829 43.2614 40.3022 43.8677 40.8591C44.4723 41.4169 44.8195 42.1866 44.8195 42.9742C44.8195 43.7624 44.4723 44.532 43.8677 45.0898C43.2604 45.6468 42.4238 45.9654 41.5676 45.9654C40.7115 45.9654 39.8721 45.6468 39.2675 45.0898C38.6629 44.5336 38.3157 43.7624 38.3157 42.9742C38.3157 42.1866 38.6629 41.4153 39.2675 40.8591ZM64.2086 69.9955C60.7796 69.9955 57.6834 68.6618 55.5003 66.5282C53.3178 68.6611 50.2218 69.9955 46.7928 69.9955C40.1982 69.9955 34.8325 65.0606 34.8325 58.9939C34.8325 57.3425 36.2883 56.0026 38.0845 56.0026C39.8807 56.0026 41.3364 57.3425 41.3364 58.9939C41.3364 61.7616 43.7839 64.0129 46.7928 64.0129C49.2766 64.0129 51.3768 62.4775 52.034 60.3835C51.7613 60.0993 51.5107 59.7815 51.2896 59.4301L49.5468 56.6538C48.5272 55.0296 48.4577 53.277 49.3554 51.8467C50.253 50.4157 51.9382 49.5947 53.9776 49.5947H57.4615C59.5008 49.5947 61.1852 50.4157 62.0828 51.8459C62.9814 53.277 62.9111 55.0288 61.8915 56.653L60.1494 59.4294C59.8429 59.9185 59.4805 60.3431 59.0774 60.7006C59.8378 62.6301 61.8508 64.0129 64.2076 64.0129C67.2165 64.0129 69.664 61.7616 69.664 58.9939C69.664 57.3416 71.1197 56.0026 72.9159 56.0026C74.7121 56.0026 76.1679 57.3416 76.1679 58.9939C76.1679 65.0606 70.803 69.9955 64.2086 69.9955Z" fill="#FAFAFA"/>
<path d="M37.6414 105.784C37.6627 105.837 37.6734 105.917 37.6734 106.024C37.6734 106.12 37.6734 106.2 37.6734 106.264C37.6734 106.349 37.6574 106.429 37.6254 106.504C37.5934 106.579 37.5507 106.648 37.4974 106.712C37.4014 106.84 37.2627 106.936 37.0814 107C36.8254 107.085 36.5854 107.128 36.3614 107.128C36.244 107.139 36.1214 107.144 35.9934 107.144C35.8654 107.144 35.7374 107.155 35.6094 107.176H35.5454C34.724 107.187 33.876 107.187 33.0014 107.176C32.788 107.165 32.548 107.165 32.2814 107.176C32.0147 107.197 31.7534 107.192 31.4974 107.16C31.2414 107.139 31.0067 107.08 30.7934 106.984C30.5907 106.877 30.4467 106.712 30.3614 106.488C30.34 106.435 30.324 106.387 30.3134 106.344C30.3027 106.291 30.2974 106.237 30.2974 106.184C30.2547 105.821 30.2387 105.464 30.2494 105.112C30.26 104.76 30.2654 104.413 30.2654 104.072L30.2974 101.752V99.608C30.2974 99.224 30.2974 98.8827 30.2974 98.584C30.308 98.2853 30.3187 97.9547 30.3294 97.592V97.512C30.34 97.4053 30.3454 97.2987 30.3454 97.192C30.356 97.0853 30.3614 96.9787 30.3614 96.872C30.3827 96.6267 30.4414 96.4187 30.5374 96.248C30.6014 96.088 30.7134 95.96 30.8734 95.864C31.012 95.768 31.1774 95.72 31.3694 95.72C31.444 95.72 31.5134 95.7253 31.5774 95.736C31.652 95.736 31.7214 95.7413 31.7854 95.752C31.8494 95.7627 31.908 95.784 31.9614 95.816C32.0254 95.848 32.0894 95.8907 32.1534 95.944C32.2174 96.0187 32.276 96.1093 32.3294 96.216C32.372 96.3333 32.3987 96.4507 32.4094 96.568C32.42 96.6427 32.4307 96.712 32.4414 96.776C32.452 96.84 32.4574 96.904 32.4574 96.968C32.436 97.032 32.4254 97.096 32.4254 97.16C32.4254 97.224 32.4254 97.2827 32.4254 97.336V97.624L32.3614 105.16L35.5294 105.192H36.2814C36.3454 105.192 36.4147 105.197 36.4894 105.208C36.564 105.208 36.6387 105.213 36.7134 105.224C36.7987 105.235 36.8734 105.245 36.9374 105.256C37.0014 105.267 37.0654 105.283 37.1294 105.304C37.2467 105.336 37.3427 105.389 37.4174 105.464C37.5347 105.571 37.6094 105.677 37.6414 105.784ZM39.4485 105.304L39.4645 104.04L39.4805 101.688C39.4912 101.347 39.4965 100.995 39.4965 100.632C39.4965 100.269 39.4965 99.896 39.4965 99.512C39.4965 99.128 39.4965 98.7867 39.4965 98.488C39.4965 98.1893 39.5072 97.8533 39.5285 97.48V97.416C39.5392 97.3093 39.5445 97.2027 39.5445 97.096C39.5552 96.9787 39.5605 96.8613 39.5605 96.744C39.5712 96.552 39.6298 96.344 39.7365 96.12C39.8112 95.9707 39.9232 95.8427 40.0725 95.736C40.2432 95.6507 40.4085 95.608 40.5685 95.608C40.6538 95.608 40.7285 95.6133 40.7925 95.624C40.8672 95.624 40.9365 95.6293 41.0005 95.64C41.1392 95.6613 41.2618 95.7253 41.3685 95.832C41.4325 95.8853 41.4912 95.9707 41.5445 96.088C41.5658 96.152 41.5818 96.216 41.5925 96.28C41.6138 96.3333 41.6298 96.392 41.6405 96.456C41.6512 96.5307 41.6565 96.6 41.6565 96.664C41.6672 96.728 41.6725 96.792 41.6725 96.856C41.6725 96.9307 41.6672 97 41.6565 97.064C41.6565 97.1173 41.6565 97.176 41.6565 97.24V97.512L41.5605 105.816V105.976C41.5605 106.008 41.5552 106.051 41.5445 106.104C41.5445 106.147 41.5392 106.2 41.5285 106.264C41.5072 106.317 41.4858 106.376 41.4645 106.44C41.4538 106.493 41.4378 106.552 41.4165 106.616C41.3845 106.669 41.3472 106.723 41.3045 106.776C41.2725 106.819 41.2298 106.861 41.1765 106.904C41.0912 106.989 40.9525 107.048 40.7605 107.08C40.4725 107.144 40.2005 107.117 39.9445 107C39.8165 106.915 39.7258 106.808 39.6725 106.68C39.6405 106.648 39.6245 106.616 39.6245 106.584C39.6138 106.563 39.6032 106.547 39.5925 106.536C39.5818 106.525 39.5712 106.509 39.5605 106.488C39.5392 106.435 39.5232 106.381 39.5125 106.328C39.5018 106.264 39.4965 106.2 39.4965 106.136C39.4858 106.083 39.4752 106.029 39.4645 105.976C39.4645 105.923 39.4592 105.869 39.4485 105.816C39.4378 105.731 39.4378 105.64 39.4485 105.544V105.304ZM51.6283 96.168C51.7456 96.3067 51.8043 96.4507 51.8043 96.6C51.8043 96.664 51.7989 96.7333 51.7883 96.808C51.7883 96.872 51.7829 96.9307 51.7723 96.984C51.7403 97.1013 51.6709 97.2133 51.5642 97.32C51.4789 97.384 51.3616 97.432 51.2123 97.464C51.1376 97.4853 51.0629 97.5013 50.9883 97.512C50.9136 97.5227 50.8336 97.5387 50.7483 97.56C50.6736 97.5707 50.5989 97.576 50.5243 97.576C50.4496 97.576 50.3696 97.576 50.2843 97.576H49.4683C49.2763 97.5867 49.0843 97.592 48.8923 97.592C48.7109 97.592 48.5296 97.592 48.3483 97.592C48.3589 97.9227 48.3643 98.28 48.3643 98.664C48.3643 99.0373 48.3589 99.4747 48.3483 99.976C48.3483 100.477 48.3429 101.059 48.3323 101.72C48.3323 102.381 48.3323 103.149 48.3323 104.024V105.24C48.3323 105.347 48.3376 105.427 48.3483 105.48C48.3483 105.523 48.3483 105.565 48.3483 105.608C48.3483 105.64 48.3429 105.683 48.3323 105.736C48.3109 105.832 48.2949 105.944 48.2843 106.072C48.2843 106.125 48.2789 106.179 48.2683 106.232C48.2576 106.275 48.2416 106.323 48.2203 106.376C48.1776 106.419 48.1563 106.451 48.1563 106.472L48.1083 106.568C48.0549 106.675 47.9536 106.776 47.8043 106.872C47.5696 106.989 47.3083 107.016 47.0203 106.952C46.8389 106.931 46.7003 106.883 46.6043 106.808C46.5083 106.712 46.4389 106.616 46.3963 106.52C46.3323 106.403 46.2949 106.291 46.2843 106.184C46.2523 106.088 46.2363 105.987 46.2363 105.88V97.656C46.1723 97.656 46.0389 97.656 45.8363 97.656C45.6336 97.656 45.4149 97.656 45.1803 97.656C44.9563 97.6453 44.7429 97.6347 44.5403 97.624C44.3376 97.6133 44.1989 97.6027 44.1243 97.592C44.0603 97.5813 43.9589 97.5653 43.8203 97.544C43.6923 97.5227 43.5856 97.5013 43.5003 97.48C43.2763 97.416 43.1003 97.3147 42.9723 97.176C42.8549 97.0373 42.7963 96.8827 42.7963 96.712C42.7963 96.648 42.7963 96.584 42.7963 96.52C42.7963 96.456 42.8069 96.3973 42.8283 96.344C42.8603 96.216 42.9456 96.1093 43.0843 96.024C43.1269 95.992 43.1909 95.9547 43.2763 95.912C43.3723 95.8587 43.4629 95.8213 43.5483 95.8C43.6763 95.7573 43.8363 95.7253 44.0283 95.704C44.1136 95.6933 44.1989 95.688 44.2843 95.688C44.3696 95.688 44.4603 95.688 44.5563 95.688C44.9296 95.688 45.2816 95.688 45.6123 95.688C45.9536 95.688 46.3109 95.6827 46.6843 95.672C47.3029 95.6613 47.9163 95.6613 48.5243 95.672C49.1429 95.672 49.7563 95.6827 50.3643 95.704C50.5029 95.7147 50.6363 95.7307 50.7643 95.752C50.8923 95.7733 51.0203 95.8107 51.1483 95.864C51.2443 95.896 51.3349 95.9387 51.4203 95.992C51.5056 96.0347 51.5749 96.0933 51.6283 96.168ZM52.9329 105.304L52.9489 104.04L52.9649 101.688C52.9755 101.347 52.9809 100.995 52.9809 100.632C52.9809 100.269 52.9809 99.896 52.9809 99.512C52.9809 99.128 52.9809 98.7867 52.9809 98.488C52.9809 98.1893 52.9915 97.8533 53.0129 97.48V97.416C53.0235 97.3093 53.0289 97.2027 53.0289 97.096C53.0395 96.9787 53.0449 96.8613 53.0449 96.744C53.0555 96.552 53.1142 96.344 53.2209 96.12C53.2955 95.9707 53.4075 95.8427 53.5569 95.736C53.7275 95.6507 53.8929 95.608 54.0529 95.608C54.1382 95.608 54.2129 95.6133 54.2769 95.624C54.3515 95.624 54.4209 95.6293 54.4849 95.64C54.6235 95.6613 54.7462 95.7253 54.8529 95.832C54.9169 95.8853 54.9755 95.9707 55.0289 96.088C55.0502 96.152 55.0662 96.216 55.0769 96.28C55.0982 96.3333 55.1142 96.392 55.1249 96.456C55.1355 96.5307 55.1409 96.6 55.1409 96.664C55.1515 96.728 55.1569 96.792 55.1569 96.856C55.1569 96.9307 55.1515 97 55.1409 97.064C55.1409 97.1173 55.1409 97.176 55.1409 97.24V97.512L55.0449 105.816V105.976C55.0449 106.008 55.0395 106.051 55.0289 106.104C55.0289 106.147 55.0235 106.2 55.0129 106.264C54.9915 106.317 54.9702 106.376 54.9489 106.44C54.9382 106.493 54.9222 106.552 54.9009 106.616C54.8689 106.669 54.8315 106.723 54.7889 106.776C54.7569 106.819 54.7142 106.861 54.6609 106.904C54.5755 106.989 54.4369 107.048 54.2449 107.08C53.9569 107.144 53.6849 107.117 53.4289 107C53.3009 106.915 53.2102 106.808 53.1569 106.68C53.1249 106.648 53.1089 106.616 53.1089 106.584C53.0982 106.563 53.0875 106.547 53.0769 106.536C53.0662 106.525 53.0555 106.509 53.0449 106.488C53.0235 106.435 53.0075 106.381 52.9969 106.328C52.9862 106.264 52.9809 106.2 52.9809 106.136C52.9702 106.083 52.9595 106.029 52.9489 105.976C52.9489 105.923 52.9435 105.869 52.9329 105.816C52.9222 105.731 52.9222 105.64 52.9329 105.544V105.304ZM59.1133 97.592L59.0813 100.104H59.7213C60.1586 100.093 60.5479 100.088 60.8893 100.088C61.2306 100.088 61.6093 100.093 62.0253 100.104H62.1053C62.2333 100.104 62.3559 100.109 62.4733 100.12C62.6013 100.12 62.7239 100.12 62.8413 100.12C62.9693 100.131 63.0919 100.152 63.2093 100.184C63.3266 100.205 63.4439 100.232 63.5613 100.264C63.7426 100.328 63.8919 100.424 64.0093 100.552C64.1159 100.691 64.1693 100.845 64.1693 101.016C64.1693 101.069 64.1693 101.133 64.1693 101.208C64.1693 101.272 64.1586 101.331 64.1373 101.384C64.1159 101.501 64.0466 101.608 63.9293 101.704C63.8759 101.779 63.7746 101.832 63.6253 101.864C63.4866 101.907 63.3479 101.933 63.2093 101.944C63.0599 101.976 62.9106 101.992 62.7613 101.992H62.0093L59.0493 102.008L59.0173 105.144L62.2013 105.176H62.9533C63.0386 105.176 63.1186 105.176 63.1933 105.176C63.2679 105.176 63.3373 105.181 63.4013 105.192C63.4866 105.213 63.5613 105.229 63.6253 105.24C63.6999 105.24 63.7693 105.251 63.8333 105.272C63.9613 105.315 64.0679 105.373 64.1533 105.448C64.2599 105.555 64.3293 105.667 64.3612 105.784C64.3719 105.837 64.3773 105.896 64.3773 105.96C64.3879 106.013 64.3879 106.072 64.3773 106.136C64.3773 106.307 64.3239 106.461 64.2173 106.6C64.0893 106.749 63.9399 106.845 63.7693 106.888C63.5453 106.984 63.2999 107.032 63.0333 107.032C62.9159 107.043 62.7933 107.048 62.6653 107.048C62.5373 107.048 62.4146 107.053 62.2973 107.064H62.2013C61.3693 107.085 60.5053 107.085 59.6093 107.064C59.3959 107.064 59.2253 107.059 59.0973 107.048C58.9693 107.048 58.8519 107.048 58.7453 107.048C58.6493 107.048 58.5479 107.048 58.4413 107.048C58.3346 107.048 58.1959 107.048 58.0253 107.048C57.7799 107.069 57.5773 107.027 57.4173 106.92C57.2999 106.845 57.2093 106.744 57.1453 106.616C57.1133 106.584 57.0973 106.552 57.0973 106.52C57.0866 106.499 57.0759 106.483 57.0653 106.472C57.0546 106.461 57.0439 106.445 57.0333 106.424C57.0119 106.371 56.9959 106.317 56.9853 106.264C56.9746 106.2 56.9693 106.141 56.9693 106.088C56.9586 106.035 56.9479 105.981 56.9373 105.928C56.9373 105.875 56.9319 105.821 56.9213 105.768V105.512C56.9213 105.469 56.9213 105.427 56.9213 105.384C56.9319 105.341 56.9373 105.299 56.9373 105.256V104.008L56.9693 101.704V99.576C56.9693 99.192 56.9693 98.8507 56.9693 98.552C56.9799 98.2533 56.9906 97.928 57.0013 97.576V97.496C57.0119 97.3787 57.0173 97.272 57.0173 97.176C57.0279 97.0693 57.0333 96.9627 57.0333 96.856C57.0439 96.6427 57.1026 96.4347 57.2093 96.232C57.2519 96.1467 57.2946 96.072 57.3372 96.008C57.3906 95.944 57.4599 95.8907 57.5453 95.848C57.7053 95.752 57.8706 95.704 58.0413 95.704C58.1266 95.704 58.1906 95.7093 58.2333 95.72V95.704C58.4253 95.704 58.5799 95.704 58.6973 95.704C58.8146 95.704 58.9266 95.704 59.0333 95.704C59.1506 95.704 59.2733 95.704 59.4013 95.704C59.5293 95.6933 59.7053 95.688 59.9293 95.688C60.3559 95.6773 60.7613 95.672 61.1453 95.672C61.5293 95.672 61.9239 95.6773 62.3293 95.688H62.3933C62.5106 95.6987 62.6333 95.704 62.7613 95.704C62.8893 95.704 63.0119 95.7093 63.1293 95.72C63.2466 95.72 63.3639 95.736 63.4813 95.768C63.5986 95.7893 63.7159 95.8213 63.8333 95.864C64.0146 95.9173 64.1639 96.008 64.2812 96.136C64.3773 96.2853 64.4253 96.4347 64.4253 96.584C64.4253 96.648 64.4253 96.712 64.4253 96.776C64.4253 96.8293 64.4146 96.8827 64.3933 96.936C64.3826 97.0427 64.3186 97.1547 64.2013 97.272C64.1586 97.2933 64.1106 97.32 64.0573 97.352C64.0146 97.384 63.9613 97.4107 63.8973 97.432C63.8333 97.4533 63.7639 97.4693 63.6893 97.48C63.6253 97.48 63.5613 97.4853 63.4973 97.496C63.4119 97.5173 63.3319 97.528 63.2573 97.528C63.1933 97.528 63.1186 97.528 63.0333 97.528H62.3133L59.1133 97.544V97.592ZM73.9585 106.296C73.9692 106.403 73.9585 106.504 73.9265 106.6C73.9052 106.664 73.8732 106.717 73.8305 106.76C73.7985 106.803 73.7558 106.845 73.7025 106.888C73.6065 106.952 73.4892 107.011 73.3505 107.064C73.2652 107.085 73.1798 107.101 73.0945 107.112C73.0198 107.133 72.9398 107.133 72.8545 107.112C72.6838 107.101 72.5345 107.037 72.4065 106.92C72.2252 106.771 72.0758 106.605 71.9585 106.424C71.9052 106.339 71.8465 106.243 71.7825 106.136C71.7185 106.029 71.6598 105.917 71.6065 105.8L69.8305 102.424C69.7452 102.424 69.6598 102.429 69.5745 102.44C69.4892 102.44 69.4038 102.445 69.3185 102.456C69.0945 102.477 68.8812 102.483 68.6785 102.472C68.4865 102.461 68.2838 102.461 68.0705 102.472H67.7665V105.368C67.7665 105.453 67.7612 105.533 67.7505 105.608C67.7505 105.683 67.7505 105.763 67.7505 105.848C67.7505 105.901 67.7452 105.971 67.7345 106.056C67.7345 106.141 67.7292 106.221 67.7185 106.296C67.6972 106.413 67.6492 106.536 67.5745 106.664C67.4998 106.781 67.3985 106.883 67.2705 106.968C67.0465 107.107 66.7745 107.144 66.4545 107.08C66.3158 107.048 66.1825 106.995 66.0545 106.92C66.0118 106.888 65.9745 106.851 65.9425 106.808C65.9105 106.755 65.8838 106.701 65.8625 106.648C65.8412 106.595 65.8198 106.541 65.7985 106.488C65.7878 106.424 65.7718 106.365 65.7505 106.312C65.7185 106.205 65.7025 106.104 65.7025 106.008V96.92C65.7025 96.856 65.7025 96.792 65.7025 96.728C65.7132 96.6533 65.7238 96.5893 65.7345 96.536C65.7452 96.4187 65.7825 96.3013 65.8465 96.184C65.8785 96.056 65.9318 95.9653 66.0065 95.912C66.0705 95.848 66.1665 95.7947 66.2945 95.752C66.4332 95.6987 66.6305 95.6773 66.8865 95.688C67.3665 95.6987 67.8412 95.704 68.3105 95.704C68.7798 95.704 69.2492 95.7147 69.7185 95.736C70.0278 95.7573 70.3532 95.7947 70.6945 95.848C71.0465 95.8907 71.3718 95.9707 71.6705 96.088C71.8625 96.1627 72.0385 96.2373 72.1985 96.312C72.4012 96.4293 72.5612 96.5413 72.6785 96.648C73.0518 96.9893 73.3345 97.4 73.5265 97.88C73.7185 98.36 73.8145 98.8453 73.8145 99.336C73.8145 99.912 73.6758 100.44 73.3985 100.92C73.1318 101.4 72.6998 101.757 72.1025 101.992C72.0812 102.013 72.0492 102.029 72.0065 102.04C71.9745 102.04 71.9478 102.045 71.9265 102.056L73.3985 105.016L73.5425 105.272C73.5638 105.315 73.5905 105.363 73.6225 105.416C73.6545 105.469 73.6812 105.523 73.7025 105.576C73.7345 105.629 73.7612 105.688 73.7825 105.752C73.8145 105.816 73.8465 105.875 73.8785 105.928C73.9105 106.077 73.9372 106.2 73.9585 106.296ZM69.9585 100.6C70.1505 100.6 70.3318 100.568 70.5025 100.504C70.6838 100.429 70.8438 100.333 70.9825 100.216C71.1318 100.099 71.2545 99.9653 71.3505 99.816C71.4465 99.656 71.4998 99.4853 71.5105 99.304C71.5532 98.7707 71.4145 98.376 71.0945 98.12C70.7745 97.8533 70.3532 97.7093 69.8305 97.688C69.5212 97.6667 69.1798 97.656 68.8065 97.656C68.4438 97.656 68.0972 97.656 67.7665 97.656C67.7772 98.0933 67.7772 98.5413 67.7665 99C67.7665 99.448 67.7665 99.9813 67.7665 100.6H69.9585ZM77.4414 97.592L77.4094 100.104H78.0494C78.4867 100.093 78.876 100.088 79.2174 100.088C79.5587 100.088 79.9374 100.093 80.3534 100.104H80.4334C80.5614 100.104 80.684 100.109 80.8014 100.12C80.9294 100.12 81.052 100.12 81.1694 100.12C81.2974 100.131 81.42 100.152 81.5374 100.184C81.6547 100.205 81.772 100.232 81.8894 100.264C82.0707 100.328 82.22 100.424 82.3374 100.552C82.444 100.691 82.4974 100.845 82.4974 101.016C82.4974 101.069 82.4974 101.133 82.4974 101.208C82.4974 101.272 82.4867 101.331 82.4654 101.384C82.444 101.501 82.3747 101.608 82.2574 101.704C82.204 101.779 82.1027 101.832 81.9534 101.864C81.8147 101.907 81.676 101.933 81.5374 101.944C81.388 101.976 81.2387 101.992 81.0894 101.992H80.3374L77.3774 102.008L77.3454 105.144L80.5294 105.176H81.2814C81.3667 105.176 81.4467 105.176 81.5214 105.176C81.596 105.176 81.6654 105.181 81.7294 105.192C81.8147 105.213 81.8894 105.229 81.9534 105.24C82.028 105.24 82.0974 105.251 82.1614 105.272C82.2894 105.315 82.396 105.373 82.4814 105.448C82.588 105.555 82.6574 105.667 82.6894 105.784C82.7 105.837 82.7054 105.896 82.7054 105.96C82.716 106.013 82.716 106.072 82.7054 106.136C82.7054 106.307 82.652 106.461 82.5454 106.6C82.4174 106.749 82.268 106.845 82.0974 106.888C81.8734 106.984 81.628 107.032 81.3614 107.032C81.244 107.043 81.1214 107.048 80.9934 107.048C80.8654 107.048 80.7427 107.053 80.6254 107.064H80.5294C79.6974 107.085 78.8334 107.085 77.9374 107.064C77.724 107.064 77.5534 107.059 77.4254 107.048C77.2974 107.048 77.18 107.048 77.0734 107.048C76.9774 107.048 76.876 107.048 76.7694 107.048C76.6627 107.048 76.524 107.048 76.3534 107.048C76.108 107.069 75.9054 107.027 75.7454 106.92C75.628 106.845 75.5374 106.744 75.4734 106.616C75.4414 106.584 75.4254 106.552 75.4254 106.52C75.4147 106.499 75.404 106.483 75.3934 106.472C75.3827 106.461 75.372 106.445 75.3614 106.424C75.34 106.371 75.324 106.317 75.3134 106.264C75.3027 106.2 75.2974 106.141 75.2974 106.088C75.2867 106.035 75.276 105.981 75.2654 105.928C75.2654 105.875 75.26 105.821 75.2494 105.768V105.512C75.2494 105.469 75.2494 105.427 75.2494 105.384C75.26 105.341 75.2654 105.299 75.2654 105.256V104.008L75.2974 101.704V99.576C75.2974 99.192 75.2974 98.8507 75.2974 98.552C75.308 98.2533 75.3187 97.928 75.3294 97.576V97.496C75.34 97.3787 75.3454 97.272 75.3454 97.176C75.356 97.0693 75.3614 96.9627 75.3614 96.856C75.372 96.6427 75.4307 96.4347 75.5374 96.232C75.58 96.1467 75.6227 96.072 75.6654 96.008C75.7187 95.944 75.788 95.8907 75.8734 95.848C76.0334 95.752 76.1987 95.704 76.3694 95.704C76.4547 95.704 76.5187 95.7093 76.5614 95.72V95.704C76.7534 95.704 76.908 95.704 77.0254 95.704C77.1427 95.704 77.2547 95.704 77.3614 95.704C77.4787 95.704 77.6014 95.704 77.7294 95.704C77.8574 95.6933 78.0334 95.688 78.2574 95.688C78.684 95.6773 79.0894 95.672 79.4734 95.672C79.8574 95.672 80.252 95.6773 80.6574 95.688H80.7214C80.8387 95.6987 80.9614 95.704 81.0894 95.704C81.2174 95.704 81.34 95.7093 81.4574 95.72C81.5747 95.72 81.692 95.736 81.8094 95.768C81.9267 95.7893 82.044 95.8213 82.1614 95.864C82.3427 95.9173 82.492 96.008 82.6094 96.136C82.7054 96.2853 82.7534 96.4347 82.7534 96.584C82.7534 96.648 82.7534 96.712 82.7534 96.776C82.7534 96.8293 82.7427 96.8827 82.7214 96.936C82.7107 97.0427 82.6467 97.1547 82.5294 97.272C82.4867 97.2933 82.4387 97.32 82.3854 97.352C82.3427 97.384 82.2894 97.4107 82.2254 97.432C82.1614 97.4533 82.092 97.4693 82.0174 97.48C81.9534 97.48 81.8894 97.4853 81.8254 97.496C81.74 97.5173 81.66 97.528 81.5854 97.528C81.5214 97.528 81.4467 97.528 81.3614 97.528H80.6414L77.4414 97.544V97.592Z" fill="white"/>
</g>
<defs>
<clipPath id="clip0">
<rect width="111" height="115" fill="white"/>
</clipPath>
</defs>
</svg>
