<svg width="30" height="30" viewBox="0 0 30 30" fill="none" xmlns="http://www.w3.org/2000/svg">
<path d="M12.3397 6.30647C12.3285 6.43569 12.3214 6.56517 12.3214 6.69648C12.3201 7.18223 12.4036 7.66432 12.5678 8.12156C13.2498 10.0672 15.2239 11.248 17.2608 10.9286C17.2676 10.9286 17.2747 10.9249 17.2815 10.9239C17.2752 10.9014 17.2731 10.8773 17.2671 10.8548C17.2394 10.7476 17.2179 10.6406 17.2001 10.5333C17.1915 10.4841 17.1813 10.4358 17.175 10.3866C17.1544 10.2288 17.1436 10.0698 17.1429 9.91077C17.146 9.08287 17.4209 8.27851 17.925 7.62169C17.9556 7.58166 17.9919 7.54714 18.0241 7.50868C18.0963 7.42236 18.1677 7.335 18.247 7.25574C18.2899 7.21362 18.338 7.177 18.3825 7.13698C18.4581 7.06897 18.5313 6.9986 18.6114 6.93713C18.6647 6.89685 18.7215 6.86363 18.7761 6.82622C18.8544 6.7726 18.931 6.71636 19.0131 6.66875C19.0746 6.63292 19.1405 6.60493 19.2049 6.57275C19.2847 6.53195 19.3655 6.48826 19.4453 6.45321C19.5151 6.42444 19.5884 6.40404 19.6598 6.37892C19.7406 6.35041 19.8204 6.31824 19.9038 6.29522C19.9794 6.27429 20.0571 6.26304 20.1343 6.24709C20.2114 6.23113 20.2983 6.20864 20.3822 6.1966C20.4665 6.18483 20.5431 6.18431 20.6239 6.17908C20.7048 6.17358 20.7767 6.16234 20.8536 6.16129C20.8499 6.12859 20.8468 6.09589 20.8418 6.06398C20.8295 5.98132 20.8146 5.89997 20.7974 5.81914C20.7866 5.76814 20.7772 5.7166 20.7649 5.66638C20.7312 5.53298 20.693 5.39852 20.6464 5.27166C20.0435 3.55832 18.4256 2.41181 16.6095 2.41077C14.7933 2.40972 13.1742 3.55465 12.5694 5.26721C12.4488 5.60256 12.3716 5.95176 12.3397 6.30647V6.30647ZM16.6071 3.4822C16.903 3.4822 17.1429 3.72206 17.1429 4.01791C17.1429 4.31376 16.903 4.55362 16.6071 4.55362C15.4238 4.55362 14.4643 5.5131 14.4643 6.69648C14.4643 6.99233 14.2244 7.23219 13.9286 7.23219C13.6327 7.23219 13.3929 6.99233 13.3929 6.69648C13.3947 4.92219 14.8326 3.48403 16.6071 3.4822Z" fill="white"/>
<path d="M30 9.37502C29.9976 7.30488 28.3201 5.62737 26.25 5.62502H21.857C21.861 5.64333 21.8615 5.66268 21.8651 5.68126C21.9041 5.8811 21.9318 6.08278 21.9483 6.2855C21.9483 6.29571 21.9515 6.30538 21.952 6.31559C22.0697 6.34985 22.1856 6.38987 22.2991 6.43565C22.3527 6.45605 22.3993 6.48117 22.449 6.50418C22.5159 6.53427 22.5829 6.56409 22.6478 6.59783C22.6988 6.62477 22.7474 6.65459 22.7969 6.68415C22.8584 6.71999 22.9196 6.75661 22.9784 6.79611C23.0255 6.82776 23.0705 6.86046 23.116 6.8942C23.1749 6.93762 23.2329 6.98261 23.2897 7.0297C23.3308 7.06553 23.3713 7.10111 23.4119 7.13694C23.4691 7.19031 23.5243 7.24393 23.5785 7.29755C23.6138 7.33391 23.6491 7.37001 23.6855 7.4048C23.7428 7.46889 23.7969 7.53638 23.85 7.60517C23.8762 7.63892 23.9036 7.67161 23.9287 7.7064C23.9426 7.7255 23.9559 7.74538 23.9695 7.76473H26.25C27.1375 7.76473 27.8571 8.48434 27.8571 9.37188V19.0179C27.8571 19.9054 27.1375 20.625 26.25 20.625H3.75C2.86246 20.625 2.14286 19.9054 2.14286 19.0179V9.37502C2.14286 8.48748 2.86246 7.76787 3.75 7.76787H11.3625C11.2887 7.41553 11.251 7.05664 11.25 6.69645C11.25 6.52668 11.2597 6.35849 11.2751 6.19186C11.2806 6.13824 11.2892 6.08461 11.2955 6.03125C11.3099 5.91799 11.3261 5.80551 11.3491 5.69355C11.3538 5.67053 11.3554 5.64647 11.3604 5.62292H3.75C1.67986 5.62528 0.00235421 7.30279 0 9.37292V19.0179C0.00235421 21.088 1.67986 22.7655 3.75 22.7679H3.88994C3.90747 22.7422 3.92944 22.7197 3.94775 22.6941C3.9917 22.6345 4.03774 22.5777 4.08482 22.5209C4.1319 22.4642 4.19207 22.3946 4.24883 22.3344C4.30559 22.2745 4.35582 22.2274 4.40944 22.177C4.46306 22.1267 4.5316 22.07 4.5949 22.0163C4.65794 21.9627 4.70895 21.9243 4.76833 21.8814C4.83686 21.8319 4.9067 21.7864 4.97785 21.7414C5.03828 21.704 5.09844 21.6658 5.16043 21.6344C5.23708 21.5921 5.31581 21.5552 5.39507 21.518C5.4568 21.4898 5.51775 21.4597 5.58105 21.4346C5.66737 21.4003 5.75579 21.3723 5.84472 21.3441C5.90515 21.3253 5.964 21.3033 6.02574 21.2873C6.12645 21.2609 6.22925 21.2434 6.33257 21.2256C6.38619 21.2164 6.43615 21.2031 6.48899 21.1966C6.80577 21.1539 7.12672 21.1539 7.44323 21.1966C7.49686 21.2031 7.54499 21.2159 7.596 21.2251C7.70298 21.2429 7.80474 21.2609 7.90649 21.2879C7.96665 21.3033 8.02394 21.3242 8.08227 21.3412C8.1733 21.3697 8.26433 21.3988 8.35013 21.4341C8.41029 21.4581 8.4681 21.4877 8.52696 21.5139C8.60988 21.5518 8.69254 21.591 8.77284 21.635C8.83065 21.6671 8.88637 21.7025 8.94261 21.7378C9.01925 21.7854 9.09432 21.8348 9.16704 21.8877C9.22066 21.9269 9.27429 21.9687 9.32791 22.0109C9.39749 22.0676 9.46498 22.1262 9.5309 22.1882C9.57955 22.2342 9.62794 22.2816 9.6745 22.3302C9.7365 22.3962 9.79614 22.4642 9.85395 22.5343C9.89685 22.5879 9.93922 22.6415 9.97924 22.6951C9.9986 22.7213 10.0211 22.7448 10.0399 22.7718H26.25C28.3201 22.7694 29.9976 21.0917 30 19.0218V9.37502Z" fill="white"/>
<path d="M18.5768 8.57147C18.1303 9.33685 18.0939 10.2746 18.4805 11.0722C18.8716 11.8744 19.6333 12.4321 20.5161 12.5626C20.6409 12.5807 20.7667 12.5896 20.8928 12.5893C22.3715 12.5875 23.5695 11.3895 23.5714 9.91075C23.5748 9.44174 23.4505 8.98032 23.212 8.57644C22.8162 7.88168 22.1282 7.40299 21.3396 7.27299C21.1923 7.24578 21.0427 7.23192 20.8928 7.23218C19.9372 7.23349 19.0547 7.74383 18.5768 8.57147ZM20.8928 8.30361C21.1886 8.30361 21.4285 8.54348 21.4285 8.83932C21.4285 9.13517 21.1886 9.37504 20.8928 9.37504C20.5969 9.37504 20.3571 9.61491 20.3571 9.91075C20.3571 10.2066 20.1172 10.4465 19.8214 10.4465C19.5255 10.4465 19.2856 10.2066 19.2856 9.91075C19.2856 9.02321 20.0053 8.30361 20.8928 8.30361Z" fill="white"/>
<path d="M12.0407 9.48912C11.9149 9.28404 11.8027 9.07085 11.7054 8.8506L11.6993 8.83936H3.74995C3.4541 8.83936 3.21423 9.07922 3.21423 9.37507V19.0179C3.21423 19.3138 3.4541 19.5536 3.74995 19.5536H26.2499C26.5458 19.5536 26.7857 19.3138 26.7857 19.0179V9.37507C26.7857 9.07922 26.5458 8.83936 26.2499 8.83936H24.4869C24.4911 8.85322 24.4924 8.86787 24.4961 8.88173C24.5288 8.99578 24.5497 9.11323 24.5732 9.23094C24.5834 9.28456 24.5973 9.33557 24.6049 9.38893C24.7592 10.4645 24.4385 11.554 23.726 12.3741C23.0134 13.1941 21.9791 13.6639 20.8928 13.6608C20.7246 13.6603 20.5564 13.6482 20.3898 13.6244C20.3362 13.6168 20.2825 13.603 20.2292 13.5928C20.1219 13.5724 20.0105 13.5514 19.9032 13.5216C19.8407 13.5044 19.78 13.4813 19.7186 13.4609C19.6226 13.4288 19.5279 13.3955 19.435 13.3539C19.3725 13.327 19.3113 13.2967 19.2503 13.2666C19.163 13.2232 19.0772 13.1782 18.9937 13.129C18.9336 13.0934 18.8752 13.056 18.8174 13.017C18.7371 12.9634 18.66 12.9098 18.5838 12.8475C18.5302 12.8041 18.4769 12.7615 18.4232 12.7146C18.3503 12.6506 18.2807 12.582 18.2127 12.5122C18.1645 12.463 18.1161 12.4149 18.0706 12.3633C18.0037 12.2862 17.9422 12.2027 17.881 12.1211C17.8425 12.0675 17.8022 12.0199 17.7664 11.9657C17.7583 11.9535 17.7481 11.9427 17.7402 11.9304C17.6662 11.9467 17.5896 11.954 17.5145 11.9676C17.4491 11.9788 17.384 11.9906 17.3181 11.999C17.0826 12.0332 16.8451 12.0515 16.6071 12.0536C16.3549 12.0534 16.103 12.0356 15.8532 12C15.8362 11.9974 15.8184 11.9964 15.7999 11.9937C15.5655 11.9571 15.334 11.9051 15.1067 11.8378C15.0797 11.8297 15.053 11.8234 15.0266 11.8153C14.8087 11.7476 14.5955 11.6657 14.3881 11.5705L14.2987 11.5297C14.097 11.4329 13.9013 11.3236 13.7132 11.2025C13.6837 11.1831 13.6541 11.1645 13.6253 11.1447C13.4404 11.0207 13.2633 10.8854 13.0949 10.7395L13.0172 10.6699C12.8503 10.5192 12.6931 10.3583 12.5463 10.1878C12.5254 10.1637 12.5058 10.1386 12.4859 10.1143C12.3381 9.93746 12.2018 9.75096 12.0781 9.55608C12.0663 9.53594 12.0535 9.51109 12.0407 9.48912V9.48912Z" fill="white"/>
<path d="M9.28343 23.5764C8.80762 22.7459 7.92427 22.2335 6.96741 22.2322C6.01056 22.2311 5.12589 22.7417 4.64825 23.5709C4.40786 23.9764 4.28256 24.4397 4.2857 24.9108C4.2857 26.3903 5.48504 27.5893 6.96427 27.5893C8.4435 27.5893 9.64284 26.3903 9.64284 24.9108C9.64624 24.4417 9.52199 23.9803 9.28343 23.5764V23.5764ZM6.96427 24.375C6.66843 24.375 6.42856 24.6149 6.42856 24.9108C6.42856 25.2066 6.18869 25.4465 5.89284 25.4465C5.597 25.4465 5.35713 25.2066 5.35713 24.9108C5.35713 24.0232 6.07673 23.3036 6.96427 23.3036C7.26012 23.3036 7.49999 23.5435 7.49999 23.8393C7.49999 24.1352 7.26012 24.375 6.96427 24.375Z" fill="white"/>
</svg>
