<svg width="115" height="115" viewBox="0 0 115 115" fill="none" xmlns="http://www.w3.org/2000/svg">
<g clip-path="url(#clip0)">
<path d="M39.0088 104.52C39.0195 104.584 39.0248 104.648 39.0248 104.712C39.0355 104.766 39.0408 104.83 39.0408 104.904C39.0408 105.032 39.0035 105.15 38.9288 105.256C38.8968 105.31 38.8541 105.363 38.8008 105.416C38.7475 105.459 38.6835 105.496 38.6088 105.528C38.3421 105.678 38.0595 105.731 37.7608 105.688C37.6115 105.646 37.4781 105.576 37.3608 105.48C37.3395 105.459 37.3235 105.448 37.3128 105.448C37.3021 105.438 37.2915 105.422 37.2808 105.4C37.2701 105.39 37.2595 105.379 37.2488 105.368C37.2381 105.347 37.2221 105.331 37.2008 105.32C37.1475 105.267 37.1048 105.219 37.0728 105.176C37.0408 105.123 37.0088 105.07 36.9768 105.016C36.9555 104.963 36.9288 104.915 36.8968 104.872C36.8755 104.819 36.8488 104.766 36.8168 104.712C36.7955 104.67 36.7741 104.632 36.7528 104.6C36.7315 104.558 36.7155 104.515 36.7048 104.472C36.6621 104.376 36.6355 104.291 36.6248 104.216L36.2888 103.432C35.5528 103.432 34.8168 103.438 34.0808 103.448C33.3555 103.448 32.6248 103.443 31.8888 103.432L31.5528 104.216C31.5315 104.259 31.5155 104.302 31.5048 104.344C31.5048 104.387 31.4941 104.43 31.4728 104.472C31.4515 104.515 31.4301 104.558 31.4088 104.6C31.3981 104.632 31.3821 104.67 31.3608 104.712C31.3288 104.766 31.2968 104.819 31.2648 104.872C31.2435 104.915 31.2168 104.963 31.1848 105.016C31.1635 105.07 31.1368 105.123 31.1048 105.176C31.0728 105.219 31.0301 105.267 30.9768 105.32C30.9555 105.331 30.9395 105.347 30.9288 105.368C30.9181 105.379 30.9075 105.39 30.8968 105.4C30.8861 105.422 30.8755 105.438 30.8648 105.448C30.8541 105.448 30.8381 105.459 30.8168 105.48C30.6995 105.576 30.5661 105.646 30.4168 105.688C30.1181 105.731 29.8355 105.678 29.5688 105.528C29.4941 105.496 29.4301 105.459 29.3768 105.416C29.3235 105.363 29.2808 105.31 29.2488 105.256C29.1741 105.15 29.1368 105.032 29.1368 104.904C29.1368 104.83 29.1368 104.766 29.1368 104.712C29.1475 104.648 29.1581 104.584 29.1688 104.52C29.1901 104.424 29.2168 104.328 29.2488 104.232C29.2808 104.136 29.2968 104.088 29.2968 104.088L32.6248 95.8963L32.7208 95.6403C32.7421 95.5763 32.7688 95.5176 32.8008 95.4643C32.8328 95.4109 32.8595 95.3469 32.8808 95.2723C32.9341 95.1336 32.9928 95.0109 33.0568 94.9043C33.0888 94.8403 33.1261 94.7816 33.1688 94.7283C33.2115 94.6749 33.2541 94.6216 33.2968 94.5683C33.3608 94.4829 33.4515 94.4136 33.5688 94.3603C33.7181 94.3069 33.8888 94.2803 34.0808 94.2803C34.2835 94.2803 34.4595 94.3069 34.6088 94.3603C34.7261 94.4136 34.8168 94.4829 34.8808 94.5683C34.9555 94.6643 35.0355 94.7763 35.1208 94.9043C35.1848 95.0109 35.2435 95.1336 35.2968 95.2723C35.3181 95.3469 35.3448 95.4109 35.3768 95.4643C35.4088 95.5176 35.4355 95.5763 35.4568 95.6403L35.5528 95.8963L38.8808 104.088C38.8808 104.088 38.8968 104.136 38.9288 104.232C38.9608 104.328 38.9875 104.424 39.0088 104.52ZM35.2168 100.6C35.0781 100.291 34.9341 99.9709 34.7848 99.6403C34.6461 99.3096 34.4968 98.9736 34.3368 98.6323C34.2941 98.5363 34.2515 98.4403 34.2088 98.3443C34.1661 98.2376 34.1235 98.1363 34.0808 98.0403C34.0488 98.1363 34.0115 98.2376 33.9688 98.3443C33.9261 98.4403 33.8835 98.5363 33.8408 98.6323C33.6808 98.9736 33.5261 99.3096 33.3768 99.6403C33.2381 99.9709 33.0995 100.291 32.9608 100.6L32.6728 101.304H35.5048L35.2168 100.6ZM48.9483 94.6803C49.055 94.8189 49.1083 94.9576 49.1083 95.0963C49.119 95.1603 49.119 95.2403 49.1083 95.3363C49.1083 95.4323 49.103 95.5069 49.0923 95.5603C49.0603 95.6669 48.9856 95.7736 48.8683 95.8803C48.8363 95.9123 48.799 95.9443 48.7563 95.9763C48.7136 95.9976 48.6603 96.0189 48.5963 96.0403C48.5323 96.0616 48.4683 96.0776 48.4043 96.0883C48.3403 96.0883 48.271 96.0936 48.1963 96.1043C48.1216 96.1149 48.0523 96.1256 47.9883 96.1363C47.9243 96.1363 47.855 96.1363 47.7803 96.1363H46.8683V96.4083C46.8576 97.3683 46.8736 98.3283 46.9163 99.2883C46.9696 100.248 46.9643 101.208 46.9003 102.168C46.8683 102.488 46.8203 102.819 46.7563 103.16C46.6923 103.491 46.5856 103.806 46.4363 104.104C46.2976 104.392 46.111 104.659 45.8763 104.904C45.6416 105.15 45.343 105.342 44.9803 105.48C44.639 105.608 44.2656 105.699 43.8603 105.752C43.455 105.806 43.0443 105.811 42.6283 105.768C42.223 105.726 41.8336 105.635 41.4603 105.496C41.087 105.358 40.7723 105.166 40.5163 104.92C40.3776 104.792 40.2496 104.638 40.1323 104.456C40.015 104.264 39.935 104.067 39.8923 103.864C39.8496 103.651 39.8603 103.448 39.9243 103.256C39.9883 103.054 40.1376 102.888 40.3723 102.76C40.575 102.643 40.7563 102.616 40.9163 102.68C41.087 102.744 41.247 102.846 41.3963 102.984C41.5563 103.123 41.7163 103.267 41.8763 103.416C42.047 103.566 42.2336 103.662 42.4363 103.704C42.8736 103.811 43.231 103.816 43.5083 103.72C43.7856 103.614 44.0043 103.448 44.1643 103.224C44.3243 103 44.4363 102.728 44.5003 102.408C44.575 102.088 44.6176 101.763 44.6283 101.432C44.6496 101.102 44.655 100.782 44.6443 100.472C44.6336 100.163 44.6336 99.9016 44.6443 99.6883C44.655 99.1229 44.655 98.5683 44.6443 98.0243C44.6336 97.4803 44.6283 96.9256 44.6283 96.3603V96.2963C44.639 96.2749 44.6443 96.2429 44.6443 96.2003H44.5963C44.5323 96.1896 44.399 96.1843 44.1963 96.1843C43.9936 96.1736 43.775 96.1683 43.5403 96.1683C43.3056 96.1683 43.0816 96.1683 42.8683 96.1683C42.6656 96.1576 42.5323 96.1523 42.4683 96.1523H42.2443V96.1363C42.159 96.1256 42.0736 96.1096 41.9883 96.0883C41.903 96.0669 41.8176 96.0456 41.7323 96.0243C41.5296 95.9603 41.375 95.8589 41.2683 95.7203C41.215 95.6669 41.1723 95.5816 41.1403 95.4643C41.119 95.3469 41.1083 95.2456 41.1083 95.1603C41.1083 95.1069 41.1083 95.0483 41.1083 94.9843C41.1083 94.9203 41.119 94.8616 41.1403 94.8083C41.1616 94.6909 41.2363 94.5843 41.3643 94.4883C41.4496 94.4243 41.551 94.3763 41.6683 94.3443C41.743 94.3229 41.8176 94.3069 41.8923 94.2963C41.967 94.2856 42.047 94.2749 42.1323 94.2643C42.207 94.2536 42.2816 94.2483 42.3563 94.2483C42.431 94.2483 42.511 94.2483 42.5963 94.2483H44.1323C44.1963 94.2483 44.271 94.2483 44.3563 94.2483C44.4416 94.2483 44.5376 94.2429 44.6443 94.2323C45.0603 94.2323 45.471 94.2323 45.8763 94.2323C46.2816 94.2323 46.6763 94.2376 47.0603 94.2483H47.1563C47.2736 94.2483 47.3856 94.2536 47.4923 94.2643C47.6096 94.2643 47.727 94.2643 47.8443 94.2643C48.0896 94.2749 48.319 94.3229 48.5323 94.4083C48.703 94.4509 48.8416 94.5416 48.9483 94.6803ZM52.5 94.6643C53.2147 94.3976 53.86 94.2803 54.436 94.3123C55.0227 94.3443 55.5454 94.4936 56.004 94.7603C56.4627 95.0163 56.852 95.3629 57.172 95.8003C57.5027 96.2376 57.7694 96.7283 57.972 97.2723C58.132 97.6776 58.2547 98.1043 58.34 98.5523C58.4254 99.0003 58.4734 99.4483 58.484 99.8963C58.5054 100.334 58.4894 100.766 58.436 101.192C58.3934 101.619 58.3187 102.014 58.212 102.376C58.148 102.622 58.0734 102.846 57.988 103.048C57.9027 103.251 57.8014 103.454 57.684 103.656C57.4174 104.115 57.0707 104.488 56.644 104.776C56.228 105.064 55.7694 105.267 55.268 105.384C54.9267 105.47 54.5747 105.512 54.212 105.512C53.8494 105.502 53.492 105.454 53.14 105.368C52.788 105.272 52.4467 105.139 52.116 104.968C51.796 104.787 51.5027 104.563 51.236 104.296C50.9054 103.976 50.6334 103.608 50.42 103.192C50.2067 102.766 50.0414 102.323 49.924 101.864C49.8067 101.395 49.732 100.926 49.7 100.456C49.668 99.9869 49.668 99.5389 49.7 99.1123C49.732 98.7176 49.8067 98.2963 49.924 97.8483C50.052 97.4003 50.2334 96.9683 50.468 96.5523C50.7027 96.1363 50.9854 95.7629 51.316 95.4323C51.6574 95.0909 52.052 94.8349 52.5 94.6643ZM56.244 101.512C56.372 101.011 56.4254 100.446 56.404 99.8163C56.3827 99.1869 56.2814 98.5949 56.1 98.0403C55.9827 97.6989 55.8334 97.4003 55.652 97.1443C55.4814 96.8776 55.2734 96.6749 55.028 96.5363C54.7934 96.3976 54.516 96.3283 54.196 96.3283C53.876 96.3283 53.5187 96.4243 53.124 96.6163C52.8894 96.7336 52.6867 96.8936 52.516 97.0963C52.356 97.2989 52.2227 97.5283 52.116 97.7843C52.02 98.0403 51.94 98.3069 51.876 98.5843C51.8227 98.8616 51.7907 99.1283 51.78 99.3843C51.7587 99.6616 51.7534 99.9549 51.764 100.264C51.7747 100.563 51.8067 100.867 51.86 101.176C51.924 101.475 52.0094 101.763 52.116 102.04C52.2227 102.307 52.3667 102.547 52.548 102.76C52.8254 103.08 53.1454 103.304 53.508 103.432C53.8814 103.55 54.2494 103.566 54.612 103.48C55.1987 103.352 55.6467 102.963 55.956 102.312C56.084 102.078 56.18 101.811 56.244 101.512ZM68.529 95.1603C68.593 95.6723 68.6304 96.2696 68.641 96.9523C68.6517 97.6243 68.641 98.3069 68.609 99.0003C68.5877 99.6829 68.5397 100.334 68.465 100.952C68.3904 101.56 68.2997 102.051 68.193 102.424C68.1184 102.648 68.0277 102.883 67.921 103.128C67.825 103.363 67.7184 103.576 67.601 103.768C67.4304 104.056 67.2224 104.312 66.977 104.536C66.7317 104.75 66.4597 104.936 66.161 105.096C65.873 105.246 65.5637 105.363 65.233 105.448C64.913 105.534 64.593 105.582 64.273 105.592C63.7077 105.614 63.169 105.534 62.657 105.352C62.1557 105.16 61.6917 104.862 61.265 104.456C60.945 104.147 60.689 103.816 60.497 103.464C60.305 103.112 60.1557 102.744 60.049 102.36C59.9424 101.966 59.873 101.56 59.841 101.144C59.8197 100.728 59.809 100.302 59.809 99.8643C59.809 99.6616 59.8037 99.4109 59.793 99.1123C59.793 98.8029 59.793 98.4883 59.793 98.1683C59.793 97.8376 59.793 97.5176 59.793 97.2083C59.793 96.8989 59.7984 96.6376 59.809 96.4243C59.809 96.2856 59.809 96.1363 59.809 95.9763C59.809 95.8056 59.8144 95.6403 59.825 95.4803C59.8464 95.3096 59.8784 95.1496 59.921 95.0003C59.9637 94.8403 60.0277 94.6963 60.113 94.5683C60.209 94.4296 60.3424 94.3283 60.513 94.2643C60.6837 94.2003 60.8597 94.1683 61.041 94.1683C61.233 94.1683 61.4144 94.2056 61.585 94.2803C61.7557 94.3549 61.8944 94.4616 62.001 94.6003C62.0544 94.6856 62.0917 94.7709 62.113 94.8563C62.1344 94.9416 62.1504 95.0376 62.161 95.1443C62.1824 95.4963 62.193 95.8963 62.193 96.3443C62.2037 96.7923 62.2037 97.2296 62.193 97.6563C62.193 98.0723 62.1877 98.4563 62.177 98.8083C62.1664 99.1603 62.161 99.4216 62.161 99.5923C62.161 100.232 62.193 100.814 62.257 101.336C62.321 101.848 62.4704 102.275 62.705 102.616C62.9184 102.926 63.169 103.123 63.457 103.208C63.745 103.294 64.033 103.32 64.321 103.288C64.5877 103.256 64.8544 103.16 65.121 103C65.3984 102.83 65.617 102.584 65.777 102.264C65.841 102.147 65.8944 102.014 65.937 101.864C65.9797 101.715 66.0117 101.576 66.033 101.448C66.0757 101.043 66.113 100.574 66.145 100.04C66.177 99.4963 66.2037 98.9416 66.225 98.3763C66.2464 97.8109 66.257 97.2563 66.257 96.7123C66.257 96.1683 66.2517 95.6776 66.241 95.2403C66.2624 95.0483 66.321 94.8723 66.417 94.7123C66.5024 94.5736 66.625 94.4509 66.785 94.3443C66.945 94.2376 67.1637 94.1843 67.441 94.1843C67.665 94.1949 67.8464 94.2536 67.985 94.3603C68.1237 94.4563 68.2357 94.5629 68.321 94.6803C68.417 94.8189 68.4864 94.9789 68.529 95.1603ZM78.7657 94.7763C78.883 94.9149 78.9417 95.0589 78.9417 95.2083C78.9417 95.2723 78.9363 95.3416 78.9257 95.4163C78.9257 95.4803 78.9203 95.5389 78.9097 95.5923C78.8777 95.7096 78.8083 95.8216 78.7017 95.9283C78.6163 95.9923 78.499 96.0403 78.3497 96.0723C78.275 96.0936 78.2003 96.1096 78.1257 96.1203C78.051 96.1309 77.971 96.1469 77.8857 96.1683C77.811 96.1789 77.7363 96.1843 77.6617 96.1843C77.587 96.1843 77.507 96.1843 77.4217 96.1843H76.6057C76.4137 96.1949 76.2217 96.2003 76.0297 96.2003C75.8483 96.2003 75.667 96.2003 75.4857 96.2003C75.4963 96.5309 75.5017 96.8883 75.5017 97.2723C75.5017 97.6456 75.4963 98.0829 75.4857 98.5843C75.4857 99.0856 75.4803 99.6669 75.4697 100.328C75.4697 100.99 75.4697 101.758 75.4697 102.632V103.848C75.4697 103.955 75.475 104.035 75.4857 104.088C75.4857 104.131 75.4857 104.174 75.4857 104.216C75.4857 104.248 75.4803 104.291 75.4697 104.344C75.4483 104.44 75.4323 104.552 75.4217 104.68C75.4217 104.734 75.4163 104.787 75.4057 104.84C75.395 104.883 75.379 104.931 75.3577 104.984C75.315 105.027 75.2937 105.059 75.2937 105.08L75.2457 105.176C75.1923 105.283 75.091 105.384 74.9417 105.48C74.707 105.598 74.4457 105.624 74.1577 105.56C73.9763 105.539 73.8377 105.491 73.7417 105.416C73.6457 105.32 73.5763 105.224 73.5337 105.128C73.4697 105.011 73.4323 104.899 73.4217 104.792C73.3897 104.696 73.3737 104.595 73.3737 104.488V96.2643C73.3097 96.2643 73.1763 96.2643 72.9737 96.2643C72.771 96.2643 72.5523 96.2643 72.3177 96.2643C72.0937 96.2536 71.8803 96.2429 71.6777 96.2323C71.475 96.2216 71.3363 96.2109 71.2617 96.2003C71.1977 96.1896 71.0963 96.1736 70.9577 96.1523C70.8297 96.1309 70.723 96.1096 70.6377 96.0883C70.4137 96.0243 70.2377 95.9229 70.1097 95.7843C69.9923 95.6456 69.9337 95.4909 69.9337 95.3203C69.9337 95.2563 69.9337 95.1923 69.9337 95.1283C69.9337 95.0643 69.9443 95.0056 69.9657 94.9523C69.9977 94.8243 70.083 94.7176 70.2217 94.6323C70.2643 94.6003 70.3283 94.5629 70.4137 94.5203C70.5097 94.4669 70.6003 94.4296 70.6857 94.4083C70.8137 94.3656 70.9737 94.3336 71.1657 94.3123C71.251 94.3016 71.3363 94.2963 71.4217 94.2963C71.507 94.2963 71.5977 94.2963 71.6937 94.2963C72.067 94.2963 72.419 94.2963 72.7497 94.2963C73.091 94.2963 73.4483 94.2909 73.8217 94.2803C74.4403 94.2696 75.0537 94.2696 75.6617 94.2803C76.2803 94.2803 76.8937 94.2909 77.5017 94.3123C77.6403 94.3229 77.7737 94.3389 77.9017 94.3603C78.0297 94.3816 78.1577 94.4189 78.2857 94.4723C78.3817 94.5043 78.4723 94.5469 78.5577 94.6003C78.643 94.6429 78.7123 94.7016 78.7657 94.7763ZM82.4069 96.2003L82.3749 98.7123H83.0149C83.4523 98.7016 83.8416 98.6963 84.1829 98.6963C84.5243 98.6963 84.9029 98.7016 85.3189 98.7123H85.3989C85.5269 98.7123 85.6496 98.7176 85.7669 98.7283C85.8949 98.7283 86.0176 98.7283 86.1349 98.7283C86.2629 98.7389 86.3856 98.7603 86.5029 98.7923C86.6203 98.8136 86.7376 98.8403 86.8549 98.8723C87.0363 98.9363 87.1856 99.0323 87.3029 99.1603C87.4096 99.2989 87.4629 99.4536 87.4629 99.6243C87.4629 99.6776 87.4629 99.7416 87.4629 99.8163C87.4629 99.8803 87.4523 99.9389 87.4309 99.9923C87.4096 100.11 87.3403 100.216 87.2229 100.312C87.1696 100.387 87.0683 100.44 86.9189 100.472C86.7803 100.515 86.6416 100.542 86.5029 100.552C86.3536 100.584 86.2043 100.6 86.0549 100.6H85.3029L82.3429 100.616L82.3109 103.752L85.4949 103.784H86.2469C86.3323 103.784 86.4123 103.784 86.4869 103.784C86.5616 103.784 86.6309 103.79 86.6949 103.8C86.7803 103.822 86.8549 103.838 86.9189 103.848C86.9936 103.848 87.0629 103.859 87.1269 103.88C87.2549 103.923 87.3616 103.982 87.4469 104.056C87.5536 104.163 87.6229 104.275 87.6549 104.392C87.6656 104.446 87.6709 104.504 87.6709 104.568C87.6816 104.622 87.6816 104.68 87.6709 104.744C87.6709 104.915 87.6176 105.07 87.5109 105.208C87.3829 105.358 87.2336 105.454 87.0629 105.496C86.8389 105.592 86.5936 105.64 86.3269 105.64C86.2096 105.651 86.0869 105.656 85.9589 105.656C85.8309 105.656 85.7083 105.662 85.5909 105.672H85.4949C84.6629 105.694 83.7989 105.694 82.9029 105.672C82.6896 105.672 82.5189 105.667 82.3909 105.656C82.2629 105.656 82.1456 105.656 82.0389 105.656C81.9429 105.656 81.8416 105.656 81.7349 105.656C81.6283 105.656 81.4896 105.656 81.3189 105.656C81.0736 105.678 80.8709 105.635 80.7109 105.528C80.5936 105.454 80.5029 105.352 80.4389 105.224C80.4069 105.192 80.3909 105.16 80.3909 105.128C80.3803 105.107 80.3696 105.091 80.3589 105.08C80.3483 105.07 80.3376 105.054 80.3269 105.032C80.3056 104.979 80.2896 104.926 80.2789 104.872C80.2683 104.808 80.2629 104.75 80.2629 104.696C80.2523 104.643 80.2416 104.59 80.2309 104.536C80.2309 104.483 80.2256 104.43 80.2149 104.376V104.12C80.2149 104.078 80.2149 104.035 80.2149 103.992C80.2256 103.95 80.2309 103.907 80.2309 103.864V102.616L80.2629 100.312V98.1843C80.2629 97.8003 80.2629 97.4589 80.2629 97.1603C80.2736 96.8616 80.2843 96.5363 80.2949 96.1843V96.1043C80.3056 95.9869 80.3109 95.8803 80.3109 95.7843C80.3216 95.6776 80.3269 95.5709 80.3269 95.4643C80.3376 95.2509 80.3963 95.0429 80.5029 94.8403C80.5456 94.7549 80.5883 94.6803 80.6309 94.6163C80.6843 94.5523 80.7536 94.4989 80.8389 94.4563C80.9989 94.3603 81.1643 94.3123 81.3349 94.3123C81.4203 94.3123 81.4843 94.3176 81.5269 94.3283V94.3123C81.7189 94.3123 81.8736 94.3123 81.9909 94.3123C82.1083 94.3123 82.2203 94.3123 82.3269 94.3123C82.4443 94.3123 82.5669 94.3123 82.6949 94.3123C82.8229 94.3016 82.9989 94.2963 83.2229 94.2963C83.6496 94.2856 84.0549 94.2803 84.4389 94.2803C84.8229 94.2803 85.2176 94.2856 85.6229 94.2963H85.6869C85.8043 94.3069 85.9269 94.3123 86.0549 94.3123C86.1829 94.3123 86.3056 94.3176 86.4229 94.3283C86.5403 94.3283 86.6576 94.3443 86.7749 94.3763C86.8923 94.3976 87.0096 94.4296 87.1269 94.4723C87.3083 94.5256 87.4576 94.6163 87.5749 94.7443C87.6709 94.8936 87.7189 95.0429 87.7189 95.1923C87.7189 95.2563 87.7189 95.3203 87.7189 95.3843C87.7189 95.4376 87.7083 95.4909 87.6869 95.5443C87.6763 95.6509 87.6123 95.7629 87.4949 95.8803C87.4523 95.9016 87.4043 95.9283 87.3509 95.9603C87.3083 95.9923 87.2549 96.0189 87.1909 96.0403C87.1269 96.0616 87.0576 96.0776 86.9829 96.0883C86.9189 96.0883 86.8549 96.0936 86.7909 96.1043C86.7056 96.1256 86.6256 96.1363 86.5509 96.1363C86.4869 96.1363 86.4123 96.1363 86.3269 96.1363H85.6069L82.4069 96.1523V96.2003ZM97.2522 104.904C97.2628 105.011 97.2522 105.112 97.2202 105.208C97.1988 105.272 97.1668 105.326 97.1242 105.368C97.0922 105.411 97.0495 105.454 96.9962 105.496C96.9002 105.56 96.7828 105.619 96.6442 105.672C96.5588 105.694 96.4735 105.71 96.3882 105.72C96.3135 105.742 96.2335 105.742 96.1482 105.72C95.9775 105.71 95.8282 105.646 95.7002 105.528C95.5188 105.379 95.3695 105.214 95.2522 105.032C95.1988 104.947 95.1402 104.851 95.0762 104.744C95.0122 104.638 94.9535 104.526 94.9002 104.408L93.1242 101.032C93.0388 101.032 92.9535 101.038 92.8682 101.048C92.7828 101.048 92.6975 101.054 92.6122 101.064C92.3882 101.086 92.1748 101.091 91.9722 101.08C91.7802 101.07 91.5775 101.07 91.3642 101.08H91.0602V103.976C91.0602 104.062 91.0548 104.142 91.0442 104.216C91.0442 104.291 91.0442 104.371 91.0442 104.456C91.0442 104.51 91.0388 104.579 91.0282 104.664C91.0282 104.75 91.0228 104.83 91.0122 104.904C90.9908 105.022 90.9428 105.144 90.8682 105.272C90.7935 105.39 90.6922 105.491 90.5642 105.576C90.3402 105.715 90.0682 105.752 89.7482 105.688C89.6095 105.656 89.4762 105.603 89.3482 105.528C89.3055 105.496 89.2682 105.459 89.2362 105.416C89.2042 105.363 89.1775 105.31 89.1562 105.256C89.1348 105.203 89.1135 105.15 89.0922 105.096C89.0815 105.032 89.0655 104.974 89.0442 104.92C89.0122 104.814 88.9962 104.712 88.9962 104.616V95.5283C88.9962 95.4643 88.9962 95.4003 88.9962 95.3363C89.0068 95.2616 89.0175 95.1976 89.0282 95.1443C89.0388 95.0269 89.0762 94.9096 89.1402 94.7923C89.1722 94.6643 89.2255 94.5736 89.3002 94.5203C89.3642 94.4563 89.4602 94.4029 89.5882 94.3603C89.7268 94.3069 89.9242 94.2856 90.1802 94.2963C90.6602 94.3069 91.1348 94.3123 91.6042 94.3123C92.0735 94.3123 92.5428 94.3229 93.0122 94.3443C93.3215 94.3656 93.6468 94.4029 93.9882 94.4563C94.3402 94.4989 94.6655 94.5789 94.9642 94.6963C95.1562 94.7709 95.3322 94.8456 95.4922 94.9203C95.6948 95.0376 95.8548 95.1496 95.9722 95.2563C96.3455 95.5976 96.6282 96.0083 96.8202 96.4883C97.0122 96.9683 97.1082 97.4536 97.1082 97.9443C97.1082 98.5203 96.9695 99.0483 96.6922 99.5283C96.4255 100.008 95.9935 100.366 95.3962 100.6C95.3748 100.622 95.3428 100.638 95.3002 100.648C95.2682 100.648 95.2415 100.654 95.2202 100.664L96.6922 103.624L96.8362 103.88C96.8575 103.923 96.8842 103.971 96.9162 104.024C96.9482 104.078 96.9748 104.131 96.9962 104.184C97.0282 104.238 97.0548 104.296 97.0762 104.36C97.1082 104.424 97.1402 104.483 97.1722 104.536C97.2042 104.686 97.2308 104.808 97.2522 104.904ZM93.2522 99.2083C93.4442 99.2083 93.6255 99.1763 93.7962 99.1123C93.9775 99.0376 94.1375 98.9416 94.2762 98.8243C94.4255 98.7069 94.5482 98.5736 94.6442 98.4243C94.7402 98.2643 94.7935 98.0936 94.8042 97.9123C94.8468 97.3789 94.7082 96.9843 94.3882 96.7283C94.0682 96.4616 93.6468 96.3176 93.1242 96.2963C92.8148 96.2749 92.4735 96.2643 92.1002 96.2643C91.7375 96.2643 91.3908 96.2643 91.0602 96.2643C91.0708 96.7016 91.0708 97.1496 91.0602 97.6083C91.0602 98.0563 91.0602 98.5896 91.0602 99.2083H93.2522Z" fill="white"/>
<path d="M95.2826 39.2341H64.8778V8.96826C64.8778 7.58952 62.997 4.59998 59.2356 4.59998C55.4742 4.59998 53.5934 7.58969 53.5934 8.96826V39.2343H23.1884C21.8035 39.2341 18.8 41.1063 18.8 44.8504C18.8 48.5944 21.8035 50.4668 23.1884 50.4668H53.5935V80.7328C53.5935 82.1112 55.4742 85.1011 59.2358 85.1011C62.9973 85.1011 64.878 82.1112 64.878 80.7328V50.4668H95.2831C96.6679 50.4668 99.6715 48.5947 99.6715 44.8504C99.6715 41.106 96.6675 39.2341 95.2826 39.2341Z" fill="white"/>
</g>
<defs>
<clipPath id="clip0">
<rect width="111" height="115" fill="white" transform="translate(4)"/>
</clipPath>
</defs>
</svg>
