<svg height="440pt" viewBox="0 0 440 440.01842" width="440pt" xmlns="http://www.w3.org/2000/svg"><path d="m400.007812 240c-.007812 100.136719-74.074218 184.832031-173.316406 198.191406-99.242187 13.359375-193.070312-48.738281-219.558594-145.308594-26.488281-96.570312 22.523438-197.84375 114.695313-236.988281 92.167969-39.144531 199.082031-4.09375 250.179687 82.027344 18.332032 30.894531 28.003907 66.15625 28 102.078125zm0 0" fill="#e6e7e8"/><path d="m400.007812 240c.007813 77.578125-44.847656 148.164062-115.089843 181.101562-70.242188 32.933594-153.191407 22.277344-212.828125-27.339843 93.039062-42.242188 214.480468-119.683594 299.917968-255.839844 18.363282 30.878906 28.039063 66.148437 28 102.078125zm0 0" fill="#d1d3d4"/><path d="m312.007812 240c0 61.855469-50.144531 112-112 112-61.855468 0-112-50.144531-112-112s50.144532-112 112-112c61.855469 0 112 50.144531 112 112zm0 0" fill="#bcbec0"/><path d="m40.007812 48c0 8.835938-7.160156 16-16 16-8.835937 0-16-7.164062-16-16s7.164063-16 16-16c8.839844 0 16 7.164062 16 16zm0 0" fill="#ffb655"/><path d="m361.242188 200.664062c-3.554688-.003906-6.679688-2.347656-7.671876-5.761718-2.394531-8.152344-5.433593-16.105469-9.097656-23.773438-1.449218-2.601562-1.335937-5.789062.292969-8.277344 1.628906-2.492187 4.507813-3.871093 7.46875-3.582031 2.964844.289063 5.519531 2.195313 6.640625 4.953125 4.042969 8.445313 7.402344 17.195313 10.046875 26.175782 1.242187 4.242187-1.183594 8.6875-5.425781 9.929687-.730469.21875-1.492188.332031-2.253906.335937zm0 0" fill="#fff"/><path d="m337.921875 152c-2.617187.003906-5.070313-1.277344-6.570313-3.425781-19.253906-27.511719-46.609374-48.339844-78.253906-59.582031-3.949218-1.613282-5.9375-6.042969-4.519531-10.066407 1.417969-4.019531 5.742187-6.222656 9.832031-5.003906 34.808594 12.363281 64.894532 35.273437 86.078125 65.535156 1.6875 2.445313 1.882813 5.621094.503907 8.253907-1.378907 2.632812-4.101563 4.28125-7.070313 4.289062zm0 0" fill="#fff"/><g fill="#ffa733"><path d="m400.007812 24c-4.417968 0-8-3.582031-8-8v-8c0-4.417969 3.582032-8 8-8 4.417969 0 8 3.582031 8 8v8c0 4.417969-3.582031 8-8 8zm0 0"/><path d="m383.042969 31.03125c-2.125 0-4.15625-.84375-5.65625-2.34375l-5.664063-5.664062c-3.035156-3.136719-2.988281-8.128907.097656-11.214844 3.085938-3.085938 8.074219-3.128906 11.214844-.097656l5.660156 5.664062c2.289063 2.289062 2.972657 5.730469 1.734376 8.71875-1.238282 2.988281-4.152344 4.9375-7.386719 4.9375zm0 0"/><path d="m376.007812 48h-8c-4.417968 0-8-3.582031-8-8s3.582032-8 8-8h8c4.417969 0 8 3.582031 8 8s-3.582031 8-8 8zm0 0"/><path d="m377.378906 70.632812c-3.238281 0-6.152344-1.949218-7.390625-4.941406-1.238281-2.988281-.554687-6.425781 1.734375-8.714844l5.664063-5.664062c2.007812-2.082031 4.980469-2.914062 7.777343-2.183594 2.796876.734375 4.984376 2.917969 5.714844 5.714844.730469 2.796875-.101562 5.773438-2.183594 7.78125l-5.660156 5.664062c-1.5 1.5-3.535156 2.34375-5.65625 2.34375zm0 0"/><path d="m400.007812 80c-4.417968 0-8-3.582031-8-8v-8c0-4.417969 3.582032-8 8-8 4.417969 0 8 3.582031 8 8v8c0 4.417969-3.582031 8-8 8zm0 0"/><path d="m422.640625 70.632812c-2.121094 0-4.15625-.84375-5.65625-2.34375l-5.664063-5.664062c-2.078124-2.007812-2.914062-4.984375-2.179687-7.78125.730469-2.796875 2.914063-4.980469 5.710937-5.714844 2.796876-.730468 5.773438.101563 7.78125 2.183594l5.664063 5.664062c2.289063 2.289063 2.972656 5.726563 1.734375 8.714844-1.238281 2.992188-4.15625 4.941406-7.390625 4.941406zm0 0"/><path d="m432.007812 48h-8c-4.417968 0-8-3.582031-8-8s3.582032-8 8-8h8c4.417969 0 8 3.582031 8 8s-3.582031 8-8 8zm0 0"/><path d="m416.976562 31.03125c-3.234374 0-6.152343-1.949219-7.390624-4.9375-1.234376-2.988281-.550782-6.429688 1.734374-8.71875l5.664063-5.664062c3.140625-3.03125 8.128906-2.988282 11.214844.097656 3.085937 3.085937 3.128906 8.078125.097656 11.214844l-5.664063 5.664062c-1.5 1.5-3.535156 2.34375-5.65625 2.34375zm0 0"/></g><path d="m88.007812 128c-4.417968 0-8-3.582031-8-8v-8c0-4.417969 3.582032-8 8-8 4.417969 0 8 3.582031 8 8v8c0 4.417969-3.582031 8-8 8zm0 0" fill="#fff"/><path d="m72.007812 144h-8c-4.417968 0-8-3.582031-8-8s3.582032-8 8-8h8c4.417969 0 8 3.582031 8 8s-3.582031 8-8 8zm0 0" fill="#fff"/><path d="m88.007812 168c-4.417968 0-8-3.582031-8-8v-8c0-4.417969 3.582032-8 8-8 4.417969 0 8 3.582031 8 8v8c0 4.417969-3.582031 8-8 8zm0 0" fill="#fff"/><path d="m112.007812 144h-8c-4.417968 0-8-3.582031-8-8s3.582032-8 8-8h8c4.417969 0 8 3.582031 8 8s-3.582031 8-8 8zm0 0" fill="#fff"/><path d="m392.007812 400c-4.417968 0-8-3.582031-8-8v-8c0-4.417969 3.582032-8 8-8 4.417969 0 8 3.582031 8 8v8c0 4.417969-3.582031 8-8 8zm0 0" fill="#ff9811"/><path d="m376.007812 416h-8c-4.417968 0-8-3.582031-8-8s3.582032-8 8-8h8c4.417969 0 8 3.582031 8 8s-3.582031 8-8 8zm0 0" fill="#ff9811"/><path d="m392.007812 440c-4.417968 0-8-3.582031-8-8v-8c0-4.417969 3.582032-8 8-8 4.417969 0 8 3.582031 8 8v8c0 4.417969-3.582031 8-8 8zm0 0" fill="#ff9811"/><path d="m416.007812 416h-8c-4.417968 0-8-3.582031-8-8s3.582032-8 8-8h8c4.417969 0 8 3.582031 8 8s-3.582031 8-8 8zm0 0" fill="#ff9811"/><path d="m400.007812 24c-4.417968 0-8-3.582031-8-8v-8c0-4.417969 3.582032-8 8-8 4.417969 0 8 3.582031 8 8v8c0 4.417969-3.582031 8-8 8zm0 0" fill="#ffa733"/><path d="m383.042969 31.03125c-2.125 0-4.15625-.84375-5.65625-2.34375l-5.664063-5.664062c-3.035156-3.136719-2.988281-8.128907.097656-11.214844 3.085938-3.085938 8.074219-3.128906 11.214844-.097656l5.660156 5.664062c2.289063 2.289062 2.972657 5.730469 1.734376 8.71875-1.238282 2.988281-4.152344 4.9375-7.386719 4.9375zm0 0" fill="#ffa733"/><path d="m376.007812 48h-8c-4.417968 0-8-3.582031-8-8s3.582032-8 8-8h8c4.417969 0 8 3.582031 8 8s-3.582031 8-8 8zm0 0" fill="#ffa733"/><path d="m377.378906 70.632812c-3.238281 0-6.152344-1.949218-7.390625-4.941406-1.238281-2.988281-.554687-6.425781 1.734375-8.714844l5.664063-5.664062c2.007812-2.082031 4.980469-2.914062 7.777343-2.183594 2.796876.734375 4.984376 2.917969 5.714844 5.714844.730469 2.796875-.101562 5.773438-2.183594 7.78125l-5.660156 5.664062c-1.5 1.5-3.535156 2.34375-5.65625 2.34375zm0 0" fill="#ffa733"/><path d="m400.007812 80c-4.417968 0-8-3.582031-8-8v-8c0-4.417969 3.582032-8 8-8 4.417969 0 8 3.582031 8 8v8c0 4.417969-3.582031 8-8 8zm0 0" fill="#ffa733"/><path d="m422.640625 70.632812c-2.121094 0-4.15625-.84375-5.65625-2.34375l-5.664063-5.664062c-2.078124-2.007812-2.914062-4.984375-2.179687-7.78125.730469-2.796875 2.914063-4.980469 5.710937-5.714844 2.796876-.730468 5.773438.101563 7.78125 2.183594l5.664063 5.664062c2.289063 2.289063 2.972656 5.726563 1.734375 8.714844-1.238281 2.992188-4.15625 4.941406-7.390625 4.941406zm0 0" fill="#ffa733"/><path d="m432.007812 48h-8c-4.417968 0-8-3.582031-8-8s3.582032-8 8-8h8c4.417969 0 8 3.582031 8 8s-3.582031 8-8 8zm0 0" fill="#ffa733"/><path d="m416.976562 31.03125c-3.234374 0-6.152343-1.949219-7.390624-4.9375-1.234376-2.988281-.550782-6.429688 1.734374-8.71875l5.664063-5.664062c3.140625-3.03125 8.128906-2.988282 11.214844.097656 3.085937 3.085937 3.128906 8.078125.097656 11.214844l-5.664063 5.664062c-1.5 1.5-3.535156 2.34375-5.65625 2.34375zm0 0" fill="#ffa733"/><path d="m392.007812 400c-4.417968 0-8-3.582031-8-8v-8c0-4.417969 3.582032-8 8-8 4.417969 0 8 3.582031 8 8v8c0 4.417969-3.582031 8-8 8zm0 0" fill="#ff9811"/><path d="m376.007812 416h-8c-4.417968 0-8-3.582031-8-8s3.582032-8 8-8h8c4.417969 0 8 3.582031 8 8s-3.582031 8-8 8zm0 0" fill="#ff9811"/><path d="m392.007812 440c-4.417968 0-8-3.582031-8-8v-8c0-4.417969 3.582032-8 8-8 4.417969 0 8 3.582031 8 8v8c0 4.417969-3.582031 8-8 8zm0 0" fill="#ff9811"/><path d="m416.007812 416h-8c-4.417968 0-8-3.582031-8-8s3.582032-8 8-8h8c4.417969 0 8 3.582031 8 8s-3.582031 8-8 8zm0 0" fill="#ff9811"/></svg>