<svg width="75" height="75" viewBox="0 0 75 75" fill="none" xmlns="http://www.w3.org/2000/svg">
<g clip-path="url(#clip0)">
<path d="M57.5036 27.5009H40.2092V11.3343C40.2092 10.5979 39.1394 9.00101 36.9999 9.00101C34.8604 9.00101 33.7906 10.598 33.7906 11.3343V27.501H16.4961C15.7084 27.5009 14 28.5009 14 30.5008C14 32.5007 15.7084 33.5008 16.4961 33.5008H33.7907V49.6675C33.7907 50.4038 34.8604 52.0008 37 52.0008C39.1396 52.0008 40.2093 50.4038 40.2093 49.6675V33.5008H57.5039C58.2915 33.5008 60 32.5009 60 30.5008C60 28.5008 58.2913 27.5009 57.5036 27.5009Z" fill="white"/>
</g>
<path d="M26.4044 60.456C26.4098 60.488 26.4124 60.52 26.4124 60.552C26.4178 60.5787 26.4204 60.6107 26.4204 60.648C26.4204 60.712 26.4018 60.7707 26.3644 60.824C26.3484 60.8507 26.3271 60.8773 26.3004 60.904C26.2738 60.9253 26.2418 60.944 26.2044 60.96C26.0711 61.0347 25.9298 61.0613 25.7804 61.04C25.7058 61.0187 25.6391 60.984 25.5804 60.936C25.5698 60.9253 25.5618 60.92 25.5564 60.92C25.5511 60.9147 25.5458 60.9067 25.5404 60.896C25.5351 60.8907 25.5298 60.8853 25.5244 60.88C25.5191 60.8693 25.5111 60.8613 25.5004 60.856C25.4738 60.8293 25.4524 60.8053 25.4364 60.784C25.4204 60.7573 25.4044 60.7307 25.3884 60.704C25.3778 60.6773 25.3644 60.6533 25.3484 60.632C25.3378 60.6053 25.3244 60.5787 25.3084 60.552C25.2978 60.5307 25.2871 60.512 25.2764 60.496C25.2658 60.4747 25.2578 60.4533 25.2524 60.432C25.2311 60.384 25.2178 60.3413 25.2124 60.304L25.0444 59.912C24.6764 59.912 24.3084 59.9147 23.9404 59.92C23.5778 59.92 23.2124 59.9173 22.8444 59.912L22.6764 60.304C22.6658 60.3253 22.6578 60.3467 22.6524 60.368C22.6524 60.3893 22.6471 60.4107 22.6364 60.432C22.6258 60.4533 22.6151 60.4747 22.6044 60.496C22.5991 60.512 22.5911 60.5307 22.5804 60.552C22.5644 60.5787 22.5484 60.6053 22.5324 60.632C22.5218 60.6533 22.5084 60.6773 22.4924 60.704C22.4818 60.7307 22.4684 60.7573 22.4524 60.784C22.4364 60.8053 22.4151 60.8293 22.3884 60.856C22.3778 60.8613 22.3698 60.8693 22.3644 60.88C22.3591 60.8853 22.3538 60.8907 22.3484 60.896C22.3431 60.9067 22.3378 60.9147 22.3324 60.92C22.3271 60.92 22.3191 60.9253 22.3084 60.936C22.2498 60.984 22.1831 61.0187 22.1084 61.04C21.9591 61.0613 21.8178 61.0347 21.6844 60.96C21.6471 60.944 21.6151 60.9253 21.5884 60.904C21.5618 60.8773 21.5404 60.8507 21.5244 60.824C21.4871 60.7707 21.4684 60.712 21.4684 60.648C21.4684 60.6107 21.4684 60.5787 21.4684 60.552C21.4738 60.52 21.4791 60.488 21.4844 60.456C21.4951 60.408 21.5084 60.36 21.5244 60.312C21.5404 60.264 21.5484 60.24 21.5484 60.24L23.2124 56.144L23.2604 56.016C23.2711 55.984 23.2844 55.9547 23.3004 55.928C23.3164 55.9013 23.3298 55.8693 23.3404 55.832C23.3671 55.7627 23.3964 55.7013 23.4284 55.648C23.4444 55.616 23.4631 55.5867 23.4844 55.56C23.5058 55.5333 23.5271 55.5067 23.5484 55.48C23.5804 55.4373 23.6258 55.4027 23.6844 55.376C23.7591 55.3493 23.8444 55.336 23.9404 55.336C24.0418 55.336 24.1298 55.3493 24.2044 55.376C24.2631 55.4027 24.3084 55.4373 24.3404 55.48C24.3778 55.528 24.4178 55.584 24.4604 55.648C24.4924 55.7013 24.5218 55.7627 24.5484 55.832C24.5591 55.8693 24.5724 55.9013 24.5884 55.928C24.6044 55.9547 24.6178 55.984 24.6284 56.016L24.6764 56.144L26.3404 60.24C26.3404 60.24 26.3484 60.264 26.3644 60.312C26.3804 60.36 26.3938 60.408 26.4044 60.456ZM24.5084 58.496C24.4391 58.3413 24.3671 58.1813 24.2924 58.016C24.2231 57.8507 24.1484 57.6827 24.0684 57.512C24.0471 57.464 24.0258 57.416 24.0044 57.368C23.9831 57.3147 23.9618 57.264 23.9404 57.216C23.9244 57.264 23.9058 57.3147 23.8844 57.368C23.8631 57.416 23.8418 57.464 23.8204 57.512C23.7404 57.6827 23.6631 57.8507 23.5884 58.016C23.5191 58.1813 23.4498 58.3413 23.3804 58.496L23.2364 58.848H24.6524L24.5084 58.496ZM31.3742 55.536C31.4275 55.6053 31.4542 55.6747 31.4542 55.744C31.4595 55.776 31.4595 55.816 31.4542 55.864C31.4542 55.912 31.4515 55.9493 31.4462 55.976C31.4302 56.0293 31.3929 56.0827 31.3342 56.136C31.3182 56.152 31.2995 56.168 31.2782 56.184C31.2569 56.1947 31.2302 56.2053 31.1982 56.216C31.1662 56.2267 31.1342 56.2347 31.1022 56.24C31.0702 56.24 31.0355 56.2427 30.9982 56.248C30.9609 56.2533 30.9262 56.2587 30.8942 56.264C30.8622 56.264 30.8275 56.264 30.7902 56.264H30.3342V56.4C30.3289 56.88 30.3369 57.36 30.3582 57.84C30.3849 58.32 30.3822 58.8 30.3502 59.28C30.3342 59.44 30.3102 59.6053 30.2782 59.776C30.2462 59.9413 30.1929 60.0987 30.1182 60.248C30.0489 60.392 29.9555 60.5253 29.8382 60.648C29.7209 60.7707 29.5715 60.8667 29.3902 60.936C29.2195 61 29.0329 61.0453 28.8302 61.072C28.6275 61.0987 28.4222 61.1013 28.2142 61.08C28.0115 61.0587 27.8169 61.0133 27.6302 60.944C27.4435 60.8747 27.2862 60.7787 27.1582 60.656C27.0889 60.592 27.0249 60.5147 26.9662 60.424C26.9075 60.328 26.8675 60.2293 26.8462 60.128C26.8249 60.0213 26.8302 59.92 26.8622 59.824C26.8942 59.7227 26.9689 59.64 27.0862 59.576C27.1875 59.5173 27.2782 59.504 27.3582 59.536C27.4435 59.568 27.5235 59.6187 27.5982 59.688C27.6782 59.7573 27.7582 59.8293 27.8382 59.904C27.9235 59.9787 28.0169 60.0267 28.1182 60.048C28.3369 60.1013 28.5155 60.104 28.6542 60.056C28.7929 60.0027 28.9022 59.92 28.9822 59.808C29.0622 59.696 29.1182 59.56 29.1502 59.4C29.1875 59.24 29.2089 59.0773 29.2142 58.912C29.2249 58.7467 29.2275 58.5867 29.2222 58.432C29.2169 58.2773 29.2169 58.1467 29.2222 58.04C29.2275 57.7573 29.2275 57.48 29.2222 57.208C29.2169 56.936 29.2142 56.6587 29.2142 56.376V56.344C29.2195 56.3333 29.2222 56.3173 29.2222 56.296H29.1982C29.1662 56.2907 29.0995 56.288 28.9982 56.288C28.8969 56.2827 28.7875 56.28 28.6702 56.28C28.5529 56.28 28.4409 56.28 28.3342 56.28C28.2329 56.2747 28.1662 56.272 28.1342 56.272H28.0222V56.264C27.9795 56.2587 27.9369 56.2507 27.8942 56.24C27.8515 56.2293 27.8089 56.2187 27.7662 56.208C27.6649 56.176 27.5875 56.1253 27.5342 56.056C27.5075 56.0293 27.4862 55.9867 27.4702 55.928C27.4595 55.8693 27.4542 55.8187 27.4542 55.776C27.4542 55.7493 27.4542 55.72 27.4542 55.688C27.4542 55.656 27.4595 55.6267 27.4702 55.6C27.4809 55.5413 27.5182 55.488 27.5822 55.44C27.6249 55.408 27.6755 55.384 27.7342 55.368C27.7715 55.3573 27.8089 55.3493 27.8462 55.344C27.8835 55.3387 27.9235 55.3333 27.9662 55.328C28.0035 55.3227 28.0409 55.32 28.0782 55.32C28.1155 55.32 28.1555 55.32 28.1982 55.32H28.9662C28.9982 55.32 29.0355 55.32 29.0782 55.32C29.1209 55.32 29.1689 55.3173 29.2222 55.312C29.4302 55.312 29.6355 55.312 29.8382 55.312C30.0409 55.312 30.2382 55.3147 30.4302 55.32H30.4782C30.5369 55.32 30.5929 55.3227 30.6462 55.328C30.7049 55.328 30.7635 55.328 30.8222 55.328C30.9449 55.3333 31.0595 55.3573 31.1662 55.4C31.2515 55.4213 31.3209 55.4667 31.3742 55.536ZM33.1501 55.528C33.5074 55.3947 33.8301 55.336 34.1181 55.352C34.4114 55.368 34.6727 55.4427 34.9021 55.576C35.1314 55.704 35.3261 55.8773 35.4861 56.096C35.6514 56.3147 35.7847 56.56 35.8861 56.832C35.9661 57.0347 36.0274 57.248 36.0701 57.472C36.1127 57.696 36.1367 57.92 36.1421 58.144C36.1527 58.3627 36.1447 58.5787 36.1181 58.792C36.0967 59.0053 36.0594 59.2027 36.0061 59.384C35.9741 59.5067 35.9367 59.6187 35.8941 59.72C35.8514 59.8213 35.8007 59.9227 35.7421 60.024C35.6087 60.2533 35.4354 60.44 35.2221 60.584C35.0141 60.728 34.7847 60.8293 34.5341 60.888C34.3634 60.9307 34.1874 60.952 34.0061 60.952C33.8247 60.9467 33.6461 60.9227 33.4701 60.88C33.2941 60.832 33.1234 60.7653 32.9581 60.68C32.7981 60.5893 32.6514 60.4773 32.5181 60.344C32.3527 60.184 32.2167 60 32.1101 59.792C32.0034 59.5787 31.9207 59.3573 31.8621 59.128C31.8034 58.8933 31.7661 58.6587 31.7501 58.424C31.7341 58.1893 31.7341 57.9653 31.7501 57.752C31.7661 57.5547 31.8034 57.344 31.8621 57.12C31.9261 56.896 32.0167 56.68 32.1341 56.472C32.2514 56.264 32.3927 56.0773 32.5581 55.912C32.7287 55.7413 32.9261 55.6133 33.1501 55.528ZM35.0221 58.952C35.0861 58.7013 35.1127 58.4187 35.1021 58.104C35.0914 57.7893 35.0407 57.4933 34.9501 57.216C34.8914 57.0453 34.8167 56.896 34.7261 56.768C34.6407 56.6347 34.5367 56.5333 34.4141 56.464C34.2967 56.3947 34.1581 56.36 33.9981 56.36C33.8381 56.36 33.6594 56.408 33.4621 56.504C33.3447 56.5627 33.2434 56.6427 33.1581 56.744C33.0781 56.8453 33.0114 56.96 32.9581 57.088C32.9101 57.216 32.8701 57.3493 32.8381 57.488C32.8114 57.6267 32.7954 57.76 32.7901 57.888C32.7794 58.0267 32.7767 58.1733 32.7821 58.328C32.7874 58.4773 32.8034 58.6293 32.8301 58.784C32.8621 58.9333 32.9047 59.0773 32.9581 59.216C33.0114 59.3493 33.0834 59.4693 33.1741 59.576C33.3127 59.736 33.4727 59.848 33.6541 59.912C33.8407 59.9707 34.0247 59.9787 34.2061 59.936C34.4994 59.872 34.7234 59.6773 34.8781 59.352C34.9421 59.2347 34.9901 59.1013 35.0221 58.952ZM41.1646 55.776C41.1966 56.032 41.2152 56.3307 41.2206 56.672C41.2259 57.008 41.2206 57.3493 41.2046 57.696C41.1939 58.0373 41.1699 58.3627 41.1326 58.672C41.0952 58.976 41.0499 59.2213 40.9966 59.408C40.9592 59.52 40.9139 59.6373 40.8606 59.76C40.8126 59.8773 40.7592 59.984 40.7006 60.08C40.6152 60.224 40.5112 60.352 40.3886 60.464C40.2659 60.5707 40.1299 60.664 39.9806 60.744C39.8366 60.8187 39.6819 60.8773 39.5166 60.92C39.3566 60.9627 39.1966 60.9867 39.0366 60.992C38.7539 61.0027 38.4846 60.9627 38.2286 60.872C37.9779 60.776 37.7459 60.6267 37.5326 60.424C37.3726 60.2693 37.2446 60.104 37.1486 59.928C37.0526 59.752 36.9779 59.568 36.9246 59.376C36.8712 59.1787 36.8366 58.976 36.8206 58.768C36.8099 58.56 36.8046 58.3467 36.8046 58.128C36.8046 58.0267 36.8019 57.9013 36.7966 57.752C36.7966 57.5973 36.7966 57.44 36.7966 57.28C36.7966 57.1147 36.7966 56.9547 36.7966 56.8C36.7966 56.6453 36.7992 56.5147 36.8046 56.408C36.8046 56.3387 36.8046 56.264 36.8046 56.184C36.8046 56.0987 36.8072 56.016 36.8126 55.936C36.8232 55.8507 36.8392 55.7707 36.8606 55.696C36.8819 55.616 36.9139 55.544 36.9566 55.48C37.0046 55.4107 37.0712 55.36 37.1566 55.328C37.2419 55.296 37.3299 55.28 37.4206 55.28C37.5166 55.28 37.6072 55.2987 37.6926 55.336C37.7779 55.3733 37.8472 55.4267 37.9006 55.496C37.9272 55.5387 37.9459 55.5813 37.9566 55.624C37.9672 55.6667 37.9752 55.7147 37.9806 55.768C37.9912 55.944 37.9966 56.144 37.9966 56.368C38.0019 56.592 38.0019 56.8107 37.9966 57.024C37.9966 57.232 37.9939 57.424 37.9886 57.6C37.9832 57.776 37.9806 57.9067 37.9806 57.992C37.9806 58.312 37.9966 58.6027 38.0286 58.864C38.0606 59.12 38.1352 59.3333 38.2526 59.504C38.3592 59.6587 38.4846 59.7573 38.6286 59.8C38.7726 59.8427 38.9166 59.856 39.0606 59.84C39.1939 59.824 39.3272 59.776 39.4606 59.696C39.5992 59.6107 39.7086 59.488 39.7886 59.328C39.8206 59.2693 39.8472 59.2027 39.8686 59.128C39.8899 59.0533 39.9059 58.984 39.9166 58.92C39.9379 58.7173 39.9566 58.4827 39.9726 58.216C39.9886 57.944 40.0019 57.6667 40.0126 57.384C40.0232 57.1013 40.0286 56.824 40.0286 56.552C40.0286 56.28 40.0259 56.0347 40.0206 55.816C40.0312 55.72 40.0606 55.632 40.1086 55.552C40.1512 55.4827 40.2126 55.4213 40.2926 55.368C40.3726 55.3147 40.4819 55.288 40.6206 55.288C40.7326 55.2933 40.8232 55.3227 40.8926 55.376C40.9619 55.424 41.0179 55.4773 41.0606 55.536C41.1086 55.6053 41.1432 55.6853 41.1646 55.776ZM46.2829 55.584C46.3415 55.6533 46.3709 55.7253 46.3709 55.8C46.3709 55.832 46.3682 55.8667 46.3629 55.904C46.3629 55.936 46.3602 55.9653 46.3549 55.992C46.3389 56.0507 46.3042 56.1067 46.2509 56.16C46.2082 56.192 46.1495 56.216 46.0749 56.232C46.0375 56.2427 46.0002 56.2507 45.9629 56.256C45.9255 56.2613 45.8855 56.2693 45.8429 56.28C45.8055 56.2853 45.7682 56.288 45.7309 56.288C45.6935 56.288 45.6535 56.288 45.6109 56.288H45.2029C45.1069 56.2933 45.0109 56.296 44.9149 56.296C44.8242 56.296 44.7335 56.296 44.6429 56.296C44.6482 56.4613 44.6509 56.64 44.6509 56.832C44.6509 57.0187 44.6482 57.2373 44.6429 57.488C44.6429 57.7387 44.6402 58.0293 44.6349 58.36C44.6349 58.6907 44.6349 59.0747 44.6349 59.512V60.12C44.6349 60.1733 44.6375 60.2133 44.6429 60.24C44.6429 60.2613 44.6429 60.2827 44.6429 60.304C44.6429 60.32 44.6402 60.3413 44.6349 60.368C44.6242 60.416 44.6162 60.472 44.6109 60.536C44.6109 60.5627 44.6082 60.5893 44.6029 60.616C44.5975 60.6373 44.5895 60.6613 44.5789 60.688C44.5575 60.7093 44.5469 60.7253 44.5469 60.736L44.5229 60.784C44.4962 60.8373 44.4455 60.888 44.3709 60.936C44.2535 60.9947 44.1229 61.008 43.9789 60.976C43.8882 60.9653 43.8189 60.9413 43.7709 60.904C43.7229 60.856 43.6882 60.808 43.6669 60.76C43.6349 60.7013 43.6162 60.6453 43.6109 60.592C43.5949 60.544 43.5869 60.4933 43.5869 60.44V56.328C43.5549 56.328 43.4882 56.328 43.3869 56.328C43.2855 56.328 43.1762 56.328 43.0589 56.328C42.9469 56.3227 42.8402 56.3173 42.7389 56.312C42.6375 56.3067 42.5682 56.3013 42.5309 56.296C42.4989 56.2907 42.4482 56.2827 42.3789 56.272C42.3149 56.2613 42.2615 56.2507 42.2189 56.24C42.1069 56.208 42.0189 56.1573 41.9549 56.088C41.8962 56.0187 41.8669 55.9413 41.8669 55.856C41.8669 55.824 41.8669 55.792 41.8669 55.76C41.8669 55.728 41.8722 55.6987 41.8829 55.672C41.8989 55.608 41.9415 55.5547 42.0109 55.512C42.0322 55.496 42.0642 55.4773 42.1069 55.456C42.1549 55.4293 42.2002 55.4107 42.2429 55.4C42.3069 55.3787 42.3869 55.3627 42.4829 55.352C42.5255 55.3467 42.5682 55.344 42.6109 55.344C42.6535 55.344 42.6989 55.344 42.7469 55.344C42.9335 55.344 43.1095 55.344 43.2749 55.344C43.4455 55.344 43.6242 55.3413 43.8109 55.336C44.1202 55.3307 44.4269 55.3307 44.7309 55.336C45.0402 55.336 45.3469 55.3413 45.6509 55.352C45.7202 55.3573 45.7869 55.3653 45.8509 55.376C45.9149 55.3867 45.9789 55.4053 46.0429 55.432C46.0909 55.448 46.1362 55.4693 46.1789 55.496C46.2215 55.5173 46.2562 55.5467 46.2829 55.584ZM48.1035 56.296L48.0875 57.552H48.4075C48.6262 57.5467 48.8208 57.544 48.9915 57.544C49.1622 57.544 49.3515 57.5467 49.5595 57.552H49.5995C49.6635 57.552 49.7248 57.5547 49.7835 57.56C49.8475 57.56 49.9088 57.56 49.9675 57.56C50.0315 57.5653 50.0928 57.576 50.1515 57.592C50.2102 57.6027 50.2688 57.616 50.3275 57.632C50.4182 57.664 50.4928 57.712 50.5515 57.776C50.6048 57.8453 50.6315 57.9227 50.6315 58.008C50.6315 58.0347 50.6315 58.0667 50.6315 58.104C50.6315 58.136 50.6262 58.1653 50.6155 58.192C50.6048 58.2507 50.5702 58.304 50.5115 58.352C50.4848 58.3893 50.4342 58.416 50.3595 58.432C50.2902 58.4533 50.2208 58.4667 50.1515 58.472C50.0768 58.488 50.0022 58.496 49.9275 58.496H49.5515L48.0715 58.504L48.0555 60.072L49.6475 60.088H50.0235C50.0662 60.088 50.1062 60.088 50.1435 60.088C50.1808 60.088 50.2155 60.0907 50.2475 60.096C50.2902 60.1067 50.3275 60.1147 50.3595 60.12C50.3968 60.12 50.4315 60.1253 50.4635 60.136C50.5275 60.1573 50.5808 60.1867 50.6235 60.224C50.6768 60.2773 50.7115 60.3333 50.7275 60.392C50.7328 60.4187 50.7355 60.448 50.7355 60.48C50.7408 60.5067 50.7408 60.536 50.7355 60.568C50.7355 60.6533 50.7088 60.7307 50.6555 60.8C50.5915 60.8747 50.5168 60.9227 50.4315 60.944C50.3195 60.992 50.1968 61.016 50.0635 61.016C50.0048 61.0213 49.9435 61.024 49.8795 61.024C49.8155 61.024 49.7542 61.0267 49.6955 61.032H49.6475C49.2315 61.0427 48.7995 61.0427 48.3515 61.032C48.2448 61.032 48.1595 61.0293 48.0955 61.024C48.0315 61.024 47.9728 61.024 47.9195 61.024C47.8715 61.024 47.8208 61.024 47.7675 61.024C47.7142 61.024 47.6448 61.024 47.5595 61.024C47.4368 61.0347 47.3355 61.0133 47.2555 60.96C47.1968 60.9227 47.1515 60.872 47.1195 60.808C47.1035 60.792 47.0955 60.776 47.0955 60.76C47.0902 60.7493 47.0848 60.7413 47.0795 60.736C47.0742 60.7307 47.0688 60.7227 47.0635 60.712C47.0528 60.6853 47.0448 60.6587 47.0395 60.632C47.0342 60.6 47.0315 60.5707 47.0315 60.544C47.0262 60.5173 47.0208 60.4907 47.0155 60.464C47.0155 60.4373 47.0128 60.4107 47.0075 60.384V60.256C47.0075 60.2347 47.0075 60.2133 47.0075 60.192C47.0128 60.1707 47.0155 60.1493 47.0155 60.128V59.504L47.0315 58.352V57.288C47.0315 57.096 47.0315 56.9253 47.0315 56.776C47.0368 56.6267 47.0422 56.464 47.0475 56.288V56.248C47.0528 56.1893 47.0555 56.136 47.0555 56.088C47.0608 56.0347 47.0635 55.9813 47.0635 55.928C47.0688 55.8213 47.0982 55.7173 47.1515 55.616C47.1728 55.5733 47.1942 55.536 47.2155 55.504C47.2422 55.472 47.2768 55.4453 47.3195 55.424C47.3995 55.376 47.4822 55.352 47.5675 55.352C47.6102 55.352 47.6422 55.3547 47.6635 55.36V55.352C47.7595 55.352 47.8368 55.352 47.8955 55.352C47.9542 55.352 48.0102 55.352 48.0635 55.352C48.1222 55.352 48.1835 55.352 48.2475 55.352C48.3115 55.3467 48.3995 55.344 48.5115 55.344C48.7248 55.3387 48.9275 55.336 49.1195 55.336C49.3115 55.336 49.5088 55.3387 49.7115 55.344H49.7435C49.8022 55.3493 49.8635 55.352 49.9275 55.352C49.9915 55.352 50.0528 55.3547 50.1115 55.36C50.1702 55.36 50.2288 55.368 50.2875 55.384C50.3462 55.3947 50.4048 55.4107 50.4635 55.432C50.5542 55.4587 50.6288 55.504 50.6875 55.568C50.7355 55.6427 50.7595 55.7173 50.7595 55.792C50.7595 55.824 50.7595 55.856 50.7595 55.888C50.7595 55.9147 50.7542 55.9413 50.7435 55.968C50.7382 56.0213 50.7062 56.0773 50.6475 56.136C50.6262 56.1467 50.6022 56.16 50.5755 56.176C50.5542 56.192 50.5275 56.2053 50.4955 56.216C50.4635 56.2267 50.4288 56.2347 50.3915 56.24C50.3595 56.24 50.3275 56.2427 50.2955 56.248C50.2528 56.2587 50.2128 56.264 50.1755 56.264C50.1435 56.264 50.1062 56.264 50.0635 56.264H49.7035L48.1035 56.272V56.296ZM55.5261 60.648C55.5315 60.7013 55.5261 60.752 55.5101 60.8C55.4995 60.832 55.4835 60.8587 55.4621 60.88C55.4461 60.9013 55.4248 60.9227 55.3981 60.944C55.3501 60.976 55.2915 61.0053 55.2221 61.032C55.1795 61.0427 55.1368 61.0507 55.0941 61.056C55.0568 61.0667 55.0168 61.0667 54.9741 61.056C54.8888 61.0507 54.8141 61.0187 54.7501 60.96C54.6595 60.8853 54.5848 60.8027 54.5261 60.712C54.4995 60.6693 54.4701 60.6213 54.4381 60.568C54.4061 60.5147 54.3768 60.4587 54.3501 60.4L53.4621 58.712C53.4195 58.712 53.3768 58.7147 53.3341 58.72C53.2915 58.72 53.2488 58.7227 53.2061 58.728C53.0941 58.7387 52.9875 58.7413 52.8861 58.736C52.7901 58.7307 52.6888 58.7307 52.5821 58.736H52.4301V60.184C52.4301 60.2267 52.4275 60.2667 52.4221 60.304C52.4221 60.3413 52.4221 60.3813 52.4221 60.424C52.4221 60.4507 52.4195 60.4853 52.4141 60.528C52.4141 60.5707 52.4115 60.6107 52.4061 60.648C52.3955 60.7067 52.3715 60.768 52.3341 60.832C52.2968 60.8907 52.2461 60.9413 52.1821 60.984C52.0701 61.0533 51.9341 61.072 51.7741 61.04C51.7048 61.024 51.6381 60.9973 51.5741 60.96C51.5528 60.944 51.5341 60.9253 51.5181 60.904C51.5021 60.8773 51.4888 60.8507 51.4781 60.824C51.4675 60.7973 51.4568 60.7707 51.4461 60.744C51.4408 60.712 51.4328 60.6827 51.4221 60.656C51.4061 60.6027 51.3981 60.552 51.3981 60.504V55.96C51.3981 55.928 51.3981 55.896 51.3981 55.864C51.4035 55.8267 51.4088 55.7947 51.4141 55.768C51.4195 55.7093 51.4381 55.6507 51.4701 55.592C51.4861 55.528 51.5128 55.4827 51.5501 55.456C51.5821 55.424 51.6301 55.3973 51.6941 55.376C51.7635 55.3493 51.8621 55.3387 51.9901 55.344C52.2301 55.3493 52.4675 55.352 52.7021 55.352C52.9368 55.352 53.1715 55.3573 53.4061 55.368C53.5608 55.3787 53.7235 55.3973 53.8941 55.424C54.0701 55.4453 54.2328 55.4853 54.3821 55.544C54.4781 55.5813 54.5661 55.6187 54.6461 55.656C54.7475 55.7147 54.8275 55.7707 54.8861 55.824C55.0728 55.9947 55.2141 56.2 55.3101 56.44C55.4061 56.68 55.4541 56.9227 55.4541 57.168C55.4541 57.456 55.3848 57.72 55.2461 57.96C55.1128 58.2 54.8968 58.3787 54.5981 58.496C54.5875 58.5067 54.5715 58.5147 54.5501 58.52C54.5341 58.52 54.5208 58.5227 54.5101 58.528L55.2461 60.008L55.3181 60.136C55.3288 60.1573 55.3421 60.1813 55.3581 60.208C55.3741 60.2347 55.3875 60.2613 55.3981 60.288C55.4141 60.3147 55.4275 60.344 55.4381 60.376C55.4541 60.408 55.4701 60.4373 55.4861 60.464C55.5021 60.5387 55.5155 60.6 55.5261 60.648ZM53.5261 57.8C53.6221 57.8 53.7128 57.784 53.7981 57.752C53.8888 57.7147 53.9688 57.6667 54.0381 57.608C54.1128 57.5493 54.1741 57.4827 54.2221 57.408C54.2701 57.328 54.2968 57.2427 54.3021 57.152C54.3235 56.8853 54.2541 56.688 54.0941 56.56C53.9341 56.4267 53.7235 56.3547 53.4621 56.344C53.3075 56.3333 53.1368 56.328 52.9501 56.328C52.7688 56.328 52.5955 56.328 52.4301 56.328C52.4355 56.5467 52.4355 56.7707 52.4301 57C52.4301 57.224 52.4301 57.4907 52.4301 57.8H53.5261Z" fill="#FAFAFA"/>
<defs>
<clipPath id="clip0">
<rect width="46" height="43" fill="white" transform="translate(14 9)"/>
</clipPath>
</defs>
</svg>
