<svg width="504" height="137" viewBox="0 0 504 137" fill="none" xmlns="http://www.w3.org/2000/svg">
<g clip-path="url(#clip0)">
<path fill-rule="evenodd" clip-rule="evenodd" d="M494 85C489.7 85 486.8 89 486.8 93C486.8 96.2 488.8 99.2 494.1 99.2C498.6 99.2 500.9 95.6 500.9 92.2C500.9 88.6 498.6 84.9 494.1 84.9L494 85ZM494.5 77.9C495.5 77.9 496.8 77.7 497.7 77.2C497.7 66.2 504.1 20.2 504.1 16C504.1 15.2 494.4 6.2 493.1 6.2H492.1L491.8 75.6C491.8 77.4 493 78.1 494.5 78.1V77.9ZM460.3 14.1C461.3 14.1 461.8 15.8 461.8 18.5C461.8 27.1 457.3 45.8 448.8 55.8C450.8 35.3 456.4 14 460.3 14V14.1ZM479.3 87.3C478.8 87.3 478.7 87.7 478.7 87.7C477.7 90.7 474.4 96 470.7 96C467.4 96 466.9 89.6 466.9 84C466.9 76.6 467.5 68.8 468.9 60C468.9 57.8 466.6 57.4 464.3 57.2C464.3 57.2 463.3 56.2 462.3 56.2C458.3 56.2 449.8 72.5 448.3 76.2C448.3 76.6 448.1 76.7 447.8 76.7C447.8 76.7 447.5 76.7 447.5 76.2C447.5 73.2 447.9 66.8 448.5 60.2C459.5 50.2 467.5 28.2 467.5 13.8C467.5 5.8 464.9 0 459.3 0C452.8 0 443.8 30.2 441.9 57.5L441.5 61.5L437.3 62.5C437.3 62.7 437.6 62.9 438.3 62.9C439.5 63.2 438.9 63.9 439.9 64.3L440.9 64.5H441.3L438.3 99.9C439.3 100.9 443.5 102.9 445.3 104.4L446.3 104.7C446.8 104.7 447 103.9 447 102.7C447 102.7 446.8 99.5 446.8 95.4C446.8 89.8 448.2 82.4 450.8 77C451.8 74.7 457.1 64.7 457.8 64.7C458.2 64.7 458.3 66.2 458.3 66.7C458 69.7 457.7 74.7 457.7 79.9C457.7 86.3 458.3 101.6 468.4 101.6C470 101.6 471.9 101.2 474 99.6C477.2 97.6 480.3 92.9 480.3 88.8C480.3 88.2 480 87.1 479.1 87.1L479.3 87.3ZM429.5 78C428.1 78 428.1 78.4 428.1 78.5C429.1 81.3 429.5 83.8 429.5 86.1C429.5 93.5 425.5 97.1 421.5 97.1C417 97.1 412.2 92.8 412.2 84.4C412.2 74 418.9 60.9 425.2 60.4C425.7 60.7 425.9 61.4 425.9 62.2C425.9 64.8 423.9 69 422.9 69.2C422.7 69.2 422.6 69.2 422.6 69.5C422.6 70 423.6 70.9 425.9 70.9C429.9 70.9 432.9 68.3 432.9 64.7L432.6 63C432 55.5 428.6 52 424 52C413 52 404.5 68.3 404.5 82.2C404.5 95.6 413.8 102.5 422.1 102.5C429.1 102.5 435.3 97.7 435.3 88.2C435.3 82.9 432.8 78.2 429.5 78.2V78ZM357.5 96.2C355.1 96.2 354 92.9 354 88.2C354 79.6 358.6 61.9 365.7 61.9C367.4 61.9 369.2 62.9 371.2 65.4C370.2 74.1 366.7 96.1 357.2 96.1L357.5 96.2ZM418.7 44.1C418.7 44.1 419 43.1 419.7 41.9C420.1 41.4 421.5 41.4 421.5 40.6C421.5 39.6 419.5 39.6 418.2 39.6C416.2 39.6 409.9 41 402.2 41.9C404 34.1 405.4 28.3 405.4 26.9C405.4 24.5 400.1 24.7 397.4 22.9H397.1C396.6 22.9 396.1 23.4 395.9 23.6C394.7 30.6 393.6 36.2 392.7 42.6H391.7C386.3 42.6 381.1 41.9 377.1 40.3C376.9 39.9 376.7 39.8 376.4 39.8C375.8 39.8 375.4 41.5 375.4 42.5C375.4 48.5 378 52.3 384.1 52.3C386.4 52.3 388.9 52.3 391.5 51.7C390.3 60.7 389.5 70.7 389.5 79.9C389.5 83.5 389.5 86.9 390 90.3C389.6 90.6 389.3 90.9 388.8 91C387.8 93.5 384.6 95.7 382.1 95.7C379.3 95.7 378.5 91.3 378.5 85.7C378.5 77.9 380.1 67.7 380.1 64.7C380.1 63.3 377.1 62.4 375.1 61.9C374.4 56.7 371.4 52.9 365.3 52.9C354.3 52.9 347.3 69.9 347.3 83.6C347.3 93.1 350.8 101.2 358.7 101.2C363.1 101.2 367.5 95.2 370.7 87.5C371.7 97.5 376.1 101.2 380.7 101.2C384.7 101.2 388.7 98 390.4 93.9C391.7 101.7 394.2 107.7 398.8 109.9C400.3 109.9 400.4 108.3 400.4 108.3C397.2 103.5 396 96 396 87.3C396 75.3 398.2 61.3 400.6 49.6C409.2 47.6 416.8 44.6 418.6 43.8L418.7 44.1ZM389.4 114.4H388.8C383.1 120 376 123.9 367.3 123.9C344.7 123.9 338.3 98.3 338.3 72.2C338.3 47.6 343.9 22.6 347.5 17.8C347.9 17.1 347.9 16.6 347.9 16V15.4C347.9 14.2 347.4 13.4 346.1 12.4C344.1 11.1 340.7 7.7 340.1 6.9C339.6 6.4 339.3 6.2 339.1 6.2C338.8 6.2 338.3 6.4 338.1 6.6C327.8 24.3 311.8 95.6 304.5 95.6C300.8 95.6 299.9 81.2 299.9 63.1C299.9 46.8 300.7 27.5 300.7 13.1C300.7 10.5 297.5 9.1 294.3 9.1H291.3C238.8 9.1 216.6 25.9 216.6 40.1C216.6 50.3 228.3 59.1 248.8 59.1C267 59.1 274.5 48.1 274.1 47.7C268.4 50.9 262.3 52.1 256.4 52.1C237.1 52.1 225.6 44.6 225.6 36.1C225.6 25.4 245.4 12.7 290.3 11.1C288.7 11.5 287.9 14.7 287.9 14.7C284.9 29.9 264.3 113.3 233.9 113.3C222.9 113.3 214.7 101.8 214.7 87.9C214.7 80.6 216.9 72.7 222.3 65.3C222.6 65 222.6 64.9 222.6 64.8C222.6 64.2 222.1 64 221.6 64C221.3 64 220.8 64 220.6 64.3C212.4 74.3 208.9 84.3 208.9 92.9C208.9 108.4 219.9 119.7 233.1 119.7C271.5 119.7 284.7 32.9 288.1 25L287.8 50.2C287.8 73.5 289.3 89.2 292.8 98C295.1 103 297.6 105.5 300.3 105.5C302.9 105.5 305.8 102.9 308.3 98.1C316.7 82.1 329 33.7 331.7 27.7C331.7 27.5 331.7 27.3 331.9 27.3C332.1 27.3 332.3 27.8 332.3 27.8C330.5 37.6 328.6 54.2 328.6 71.5C328.6 103 335.1 137.1 362.9 137.1C370.2 137.1 380.2 133.3 382.4 125.6C382.4 125.6 388.1 117.9 389.2 115.4V115C389.2 114.7 389.2 114.6 389 114.6L389.4 114.4ZM158.4 96C156.1 96 154.9 92.7 154.9 88C154.9 79.4 159.5 61.7 166.6 61.7C168.4 61.7 170.2 62.7 172.1 65.2C171.1 73.9 167.7 95.9 158.3 95.9L158.4 96ZM191.6 88.9C191.3 88.9 191 90.5 189.8 90.9C188.5 93.4 185.4 95.6 182.8 95.6C180.1 95.6 179.3 91.2 179.3 85.6C179.3 77.8 180.9 67.6 180.9 64.6C180.9 63.2 178.1 62.3 175.9 61.8C175.2 56.6 172.3 52.8 166.2 52.8C155.2 52.8 148.2 69.8 148.2 83.5C148.2 93 151.6 101.1 159.5 101.1C164 101.1 168.5 95.1 171.5 87.4C172.5 97.4 177 101.1 181.5 101.1C186.7 101.1 192.1 95.8 192.1 89.9C192.1 89.7 192.1 88.9 191.6 88.9V88.9ZM105 44L106.8 45C111.8 37.8 114.1 29.2 114.1 23.3C114.1 18.9 113.1 16 110.1 16C108.5 16 106.1 17.2 103.1 20C106.3 23.2 107.1 28 107.1 32.4C107.1 37.6 106.1 42.4 105.1 44H105ZM119.6 47.8C119.6 47.3 119.1 47.2 118.6 47.2C117 47.2 112.2 49.2 111.6 51.7C109.6 62.3 94 96 85 96C83 96 82 92.3 82 87C82 77.8 84.4 63 86.5 51C89.9 50.2 93.3 48.8 97.8 46.7C100.1 44.7 104 44.7 104 43.4C104 42.9 103.6 42.8 103 42.8L100.4 43C98.6 43 93.7 44 87.6 44.6C89 36.8 90 31.2 90 30.3C90 27.9 84.7 28.1 82.2 26.5H81.7C81.1 26.5 80.7 26.8 80.4 27C80.4 28 78.7 35.3 77.1 45C72.3 44.8 67.3001 44 62.9001 42.4C62.7001 42 62.4001 41.9 62.2001 41.9C61.6001 41.9 61.2001 43.5 61.2001 44.5C61.2001 50.5 64.2 52.3 70.2 52.3H76.2C75 60.8 74 70.3 74 78.5C74 91.1 76.3 101.1 83.5 101.1C92.1 101.1 107.5 77.6 111.9 63.1C111.9 65.6 115.7 85.1 115.7 92.7C115.7 96.9 114.2 98.5 112.4 98.5C109.6 98.5 106.2 94.9 106 90.9C106 90.7 105.7 90.7 105.6 90.7C104.9 90.7 103.9 93.4 103.9 96.7C103.9 103.4 109.9 107.2 115.5 107.2C120.5 107.2 125.1 104.2 125.1 97.4C125.1 88.4 117.9 71.4 117.9 63.4C117.9 54.9 119.6 47.8 119.6 47.7V47.8ZM69.8 95L68 93.5C67.6 93.2 65 93.1 64.6 92.9L62.8 91.7C60.8 91 50.1 90.7 47.1 90.1C46.5 90.1 46.4001 89.1 46.4001 89.1C46.4001 66.8 47.1 44.4 47.1 21.4C47.1 20.9 47.1001 20.4 47.4001 20C59.0001 18 70.4 15.4 83.2 15.4H85C85 15.4 85.3 15.4 85.3 15.1C85.3 14.4 78.8 8.3 78.1 7.5C78.1 7.5 78.1 6.8 73.6 6.8C55.2 6.8 34.6 14.8 15.8 14.8H12.8C12.8 14.8 11.8 14 11.3 14H8.30005C8.30005 14 7.70005 14 7.70005 14.6C7.70005 17.8 16.4001 21.6 27.7001 21.6C32.1001 21.6 36.3001 21.3 40.7001 20.8C37.3001 33 33 62.8 33 80.5C33 87.9 35.2001 90.5 35.2001 91.1C35.2001 92.1 33.4001 92.1 33.4001 92.1C22.4001 94.1 9.80005 98.1 1.20005 102.1C-0.199951 102.9 -0.199951 103.1 -0.199951 103.8C-0.199951 103.8 1.50005 107.4 5.80005 107.4C22.5 103.4 45.8 100.4 62.8 100.4C67 100.4 74.2 101.1 75.5 101.1C76 101.1 77.3 100.6 77.3 100.1C77.3 99.7 77 99.5 77 99.5C77 99.5 71 96.8 69.6 95.2" fill="url(#paint0_linear)"/>
</g>
<defs>
<linearGradient id="paint0_linear" x1="121.841" y1="158.625" x2="147.644" y2="-24.8981" gradientUnits="userSpaceOnUse">
<stop stop-color="white"/>
<stop offset="1" stop-color="#FFA800"/>
</linearGradient>
<clipPath id="clip0">
<rect width="504" height="137" fill="white"/>
</clipPath>
</defs>
</svg>
