<svg width="111" height="115" viewBox="0 0 111 115" fill="none" xmlns="http://www.w3.org/2000/svg">
<g clip-path="url(#clip0)">
<path d="M34.496 91.1917C34.6464 91.9946 35.4576 92.585 36.409 92.585H72.4051C73.3574 92.585 74.1687 91.9946 74.319 91.1917L81.1839 54.5387H27.6311L34.496 91.1917Z" fill="#FAFAFA"/>
<path d="M91.3759 22.1328C82.358 20.2193 73.1727 24.6997 70.5194 32.3058L67.7687 33.7291L56.9049 39.6342L59.8485 21.8687C67.0813 16.7519 68.2708 7.66191 62.5406 1.30687L61.3595 0L59.8097 1.00882C52.5524 5.82276 50.9091 14.6203 56.053 21.1239L53.5548 36.3097C51.5 32.9431 48.2538 30.2163 44.2786 28.5185L38.3916 26.0041V25.9872C35.0763 18.7283 25.7784 14.8723 17.0508 17.1371L15.1918 17.6339L15.7733 19.2049C18.5467 26.9281 28.029 31.3479 37.1329 29.1631L42.5559 31.4788C46.687 33.2339 49.8197 36.334 51.2504 40.0809L52.4701 43.2236V44.6138H23.4221V51.2305H85.3914V44.6138H56.3433V43.8642L69.8026 36.5407L72.5335 35.1353C81.6403 36.6772 90.56 31.8334 92.7896 24.1343L93.2539 22.5302L91.3759 22.1328Z" fill="#FAFAFA"/>
<path d="M29.0446 98.68C29.4499 99.0533 29.7486 99.5013 29.9406 100.024C30.1326 100.536 30.2072 101.048 30.1646 101.56C30.1219 102.051 29.9672 102.504 29.7006 102.92C29.4339 103.325 29.0286 103.635 28.4846 103.848C28.0579 104.029 27.6366 104.157 27.2206 104.232C26.8046 104.307 26.3459 104.365 25.8446 104.408C25.6206 104.429 25.4286 104.445 25.2686 104.456C25.1192 104.456 24.9432 104.461 24.7406 104.472C24.6979 104.472 24.6232 104.472 24.5166 104.472C24.4206 104.472 24.3512 104.477 24.3086 104.488V107.8C24.2766 108.003 24.2339 108.211 24.1806 108.424C24.1379 108.637 24.0152 108.803 23.8126 108.92C23.6952 108.984 23.5512 109.021 23.3806 109.032C23.2099 109.043 23.0552 109.037 22.9166 109.016C22.7672 108.995 22.6392 108.957 22.5326 108.904C22.4366 108.84 22.3566 108.733 22.2926 108.584C22.2499 108.488 22.2072 108.381 22.1646 108.264C22.1326 108.136 22.1166 107.981 22.1166 107.8V98.952C22.1166 98.8773 22.1219 98.808 22.1326 98.744C22.1432 98.68 22.1539 98.616 22.1646 98.552C22.1859 98.4987 22.2019 98.44 22.2126 98.376C22.2232 98.312 22.2392 98.2533 22.2606 98.2C22.2819 98.1467 22.3032 98.0987 22.3246 98.056C22.3566 98.0133 22.3939 97.976 22.4366 97.944C22.4899 97.8907 22.5699 97.8427 22.6766 97.8C22.7939 97.7573 22.9646 97.736 23.1886 97.736H23.2206C23.5512 97.7147 23.9192 97.6987 24.3246 97.688C24.7299 97.6667 25.0659 97.672 25.3326 97.704C25.4819 97.7253 25.6206 97.7413 25.7486 97.752C25.8766 97.752 25.9992 97.7573 26.1166 97.768C26.2446 97.7787 26.3726 97.7893 26.5006 97.8C26.6286 97.8107 26.7566 97.8267 26.8846 97.848C26.9912 97.8693 27.0872 97.8853 27.1726 97.896C27.2686 97.9067 27.3646 97.9227 27.4606 97.944C27.5459 97.9653 27.6366 97.9867 27.7326 98.008C27.8392 98.0293 27.9352 98.0667 28.0206 98.12C28.2446 98.184 28.4312 98.264 28.5806 98.36C28.7299 98.456 28.8846 98.5627 29.0446 98.68ZM28.0846 101.32C28.0952 101.064 28.0419 100.84 27.9246 100.648C27.8179 100.456 27.6632 100.296 27.4606 100.168C27.2579 100.04 27.0286 99.9387 26.7726 99.864C26.5166 99.7893 26.2606 99.736 26.0046 99.704C25.9406 99.704 25.8499 99.704 25.7326 99.704C25.6259 99.6933 25.5086 99.688 25.3806 99.688C25.2526 99.6773 25.1299 99.672 25.0126 99.672C24.9059 99.6613 24.8206 99.656 24.7566 99.656C24.7032 99.6453 24.6392 99.64 24.5646 99.64C24.4899 99.64 24.4046 99.64 24.3086 99.64C24.3192 99.9707 24.3246 100.291 24.3246 100.6C24.3246 100.899 24.3246 101.224 24.3246 101.576C24.3139 101.768 24.3086 101.96 24.3086 102.152C24.3086 102.344 24.3086 102.531 24.3086 102.712L25.3006 102.696C25.5566 102.696 25.8392 102.68 26.1486 102.648C26.4579 102.616 26.7512 102.552 27.0286 102.456C27.3059 102.36 27.5406 102.221 27.7326 102.04C27.9352 101.859 28.0526 101.619 28.0846 101.32ZM38.8679 107.784C38.8893 107.837 38.8999 107.917 38.8999 108.024C38.8999 108.12 38.8999 108.2 38.8999 108.264C38.8999 108.349 38.8839 108.429 38.8519 108.504C38.8199 108.579 38.7773 108.648 38.7239 108.712C38.6279 108.84 38.4893 108.936 38.3079 109C38.0519 109.085 37.8119 109.128 37.5879 109.128C37.4706 109.139 37.3479 109.144 37.2199 109.144C37.0919 109.144 36.9639 109.155 36.8359 109.176H36.7719C35.9506 109.187 35.1026 109.187 34.2279 109.176C34.0146 109.165 33.7746 109.165 33.5079 109.176C33.2413 109.197 32.9799 109.192 32.7239 109.16C32.4679 109.139 32.2333 109.08 32.0199 108.984C31.8173 108.877 31.6733 108.712 31.5879 108.488C31.5666 108.435 31.5506 108.387 31.5399 108.344C31.5293 108.291 31.5239 108.237 31.5239 108.184C31.4813 107.821 31.4653 107.464 31.4759 107.112C31.4866 106.76 31.4919 106.413 31.4919 106.072L31.5239 103.752V101.608C31.5239 101.224 31.5239 100.883 31.5239 100.584C31.5346 100.285 31.5453 99.9547 31.5559 99.592V99.512C31.5666 99.4053 31.5719 99.2987 31.5719 99.192C31.5826 99.0853 31.5879 98.9787 31.5879 98.872C31.6093 98.6267 31.6679 98.4187 31.7639 98.248C31.8279 98.088 31.9399 97.96 32.0999 97.864C32.2386 97.768 32.4039 97.72 32.5959 97.72C32.6706 97.72 32.7399 97.7253 32.8039 97.736C32.8786 97.736 32.9479 97.7413 33.0119 97.752C33.0759 97.7627 33.1346 97.784 33.1879 97.816C33.2519 97.848 33.3159 97.8907 33.3799 97.944C33.4439 98.0187 33.5026 98.1093 33.5559 98.216C33.5986 98.3333 33.6253 98.4507 33.6359 98.568C33.6466 98.6427 33.6573 98.712 33.6679 98.776C33.6786 98.84 33.6839 98.904 33.6839 98.968C33.6626 99.032 33.6519 99.096 33.6519 99.16C33.6519 99.224 33.6519 99.2827 33.6519 99.336V99.624L33.5879 107.16L36.7559 107.192H37.5079C37.5719 107.192 37.6413 107.197 37.7159 107.208C37.7906 107.208 37.8653 107.213 37.9399 107.224C38.0253 107.235 38.0999 107.245 38.1639 107.256C38.2279 107.267 38.2919 107.283 38.3559 107.304C38.4733 107.336 38.5693 107.389 38.6439 107.464C38.7613 107.571 38.8359 107.677 38.8679 107.784ZM50.0511 107.912C50.0617 107.976 50.0671 108.04 50.0671 108.104C50.0777 108.157 50.0831 108.221 50.0831 108.296C50.0831 108.424 50.0457 108.541 49.9711 108.648C49.9391 108.701 49.8964 108.755 49.8431 108.808C49.7897 108.851 49.7257 108.888 49.6511 108.92C49.3844 109.069 49.1017 109.123 48.8031 109.08C48.6537 109.037 48.5204 108.968 48.4031 108.872C48.3817 108.851 48.3657 108.84 48.3551 108.84C48.3444 108.829 48.3337 108.813 48.3231 108.792C48.3124 108.781 48.3017 108.771 48.2911 108.76C48.2804 108.739 48.2644 108.723 48.2431 108.712C48.1897 108.659 48.1471 108.611 48.1151 108.568C48.0831 108.515 48.0511 108.461 48.0191 108.408C47.9977 108.355 47.9711 108.307 47.9391 108.264C47.9177 108.211 47.8911 108.157 47.8591 108.104C47.8377 108.061 47.8164 108.024 47.7951 107.992C47.7737 107.949 47.7577 107.907 47.7471 107.864C47.7044 107.768 47.6777 107.683 47.6671 107.608L47.3311 106.824C46.5951 106.824 45.8591 106.829 45.1231 106.84C44.3977 106.84 43.6671 106.835 42.9311 106.824L42.5951 107.608C42.5737 107.651 42.5577 107.693 42.5471 107.736C42.5471 107.779 42.5364 107.821 42.5151 107.864C42.4937 107.907 42.4724 107.949 42.4511 107.992C42.4404 108.024 42.4244 108.061 42.4031 108.104C42.3711 108.157 42.3391 108.211 42.3071 108.264C42.2857 108.307 42.2591 108.355 42.2271 108.408C42.2057 108.461 42.1791 108.515 42.1471 108.568C42.1151 108.611 42.0724 108.659 42.0191 108.712C41.9977 108.723 41.9817 108.739 41.9711 108.76C41.9604 108.771 41.9497 108.781 41.9391 108.792C41.9284 108.813 41.9177 108.829 41.9071 108.84C41.8964 108.84 41.8804 108.851 41.8591 108.872C41.7417 108.968 41.6084 109.037 41.4591 109.08C41.1604 109.123 40.8777 109.069 40.6111 108.92C40.5364 108.888 40.4724 108.851 40.4191 108.808C40.3657 108.755 40.3231 108.701 40.2911 108.648C40.2164 108.541 40.1791 108.424 40.1791 108.296C40.1791 108.221 40.1791 108.157 40.1791 108.104C40.1897 108.04 40.2004 107.976 40.2111 107.912C40.2324 107.816 40.2591 107.72 40.2911 107.624C40.3231 107.528 40.3391 107.48 40.3391 107.48L43.6671 99.288L43.7631 99.032C43.7844 98.968 43.8111 98.9093 43.8431 98.856C43.8751 98.8027 43.9017 98.7387 43.9231 98.664C43.9764 98.5253 44.0351 98.4027 44.0991 98.296C44.1311 98.232 44.1684 98.1733 44.2111 98.12C44.2537 98.0667 44.2964 98.0133 44.3391 97.96C44.4031 97.8747 44.4937 97.8053 44.6111 97.752C44.7604 97.6987 44.9311 97.672 45.1231 97.672C45.3257 97.672 45.5017 97.6987 45.6511 97.752C45.7684 97.8053 45.8591 97.8747 45.9231 97.96C45.9977 98.056 46.0777 98.168 46.1631 98.296C46.2271 98.4027 46.2857 98.5253 46.3391 98.664C46.3604 98.7387 46.3871 98.8027 46.4191 98.856C46.4511 98.9093 46.4777 98.968 46.4991 99.032L46.5951 99.288L49.9231 107.48C49.9231 107.48 49.9391 107.528 49.9711 107.624C50.0031 107.72 50.0297 107.816 50.0511 107.912ZM46.2591 103.992C46.1204 103.683 45.9764 103.363 45.8271 103.032C45.6884 102.701 45.5391 102.365 45.3791 102.024C45.3364 101.928 45.2937 101.832 45.2511 101.736C45.2084 101.629 45.1657 101.528 45.1231 101.432C45.0911 101.528 45.0537 101.629 45.0111 101.736C44.9684 101.832 44.9257 101.928 44.8831 102.024C44.7231 102.365 44.5684 102.701 44.4191 103.032C44.2804 103.363 44.1417 103.683 44.0031 103.992L43.7151 104.696H46.5471L46.2591 103.992ZM60.0706 107.784C60.0599 107.965 60.0332 108.157 59.9906 108.36C59.9586 108.563 59.8572 108.728 59.6866 108.856C59.5586 108.963 59.4146 109.027 59.2546 109.048C59.0946 109.069 58.9346 109.059 58.7746 109.016C58.6252 108.984 58.4812 108.931 58.3426 108.856C58.2039 108.771 58.0919 108.669 58.0066 108.552C57.6439 108.104 57.3079 107.645 56.9986 107.176C56.6999 106.696 56.3959 106.216 56.0866 105.736L54.7426 103.704C54.5612 103.416 54.3692 103.096 54.1666 102.744C53.9639 102.381 53.7559 102.045 53.5426 101.736L53.4946 107.848V107.992C53.4946 108.163 53.4626 108.333 53.3986 108.504C53.3452 108.664 53.2492 108.803 53.1106 108.92C53.0039 109.005 52.8652 109.064 52.6946 109.096C52.4279 109.149 52.2039 109.133 52.0226 109.048C51.8519 108.963 51.7132 108.845 51.6066 108.696C51.5106 108.547 51.4412 108.376 51.3986 108.184C51.3666 107.981 51.3612 107.784 51.3826 107.592V107.32L51.4146 106.072L51.4306 103.752C51.4412 103.411 51.4466 103.064 51.4466 102.712C51.4466 102.349 51.4466 101.981 51.4466 101.608C51.4359 101.149 51.4359 100.664 51.4466 100.152C51.4679 99.64 51.4892 99.16 51.5106 98.712C51.5319 98.4667 51.5906 98.2587 51.6866 98.088C51.7292 97.9387 51.8412 97.8107 52.0226 97.704C52.1399 97.6293 52.2892 97.5813 52.4706 97.56C52.6626 97.5387 52.8279 97.544 52.9666 97.576C53.0199 97.5973 53.0732 97.624 53.1266 97.656C53.1799 97.6773 53.2332 97.704 53.2866 97.736C53.3399 97.7787 53.3879 97.8213 53.4306 97.864C53.4839 97.9067 53.5319 97.9547 53.5746 98.008C53.6279 98.0613 53.6759 98.12 53.7186 98.184C53.7612 98.2373 53.8039 98.2907 53.8466 98.344C53.8786 98.408 53.9106 98.4667 53.9426 98.52C53.9746 98.5733 54.0119 98.6267 54.0546 98.68L54.2306 98.936L57.9266 104.76V103.704C57.9266 103.363 57.9212 103.016 57.9106 102.664C57.9106 102.301 57.9052 101.928 57.8946 101.544C57.8946 101.096 57.8946 100.616 57.8946 100.104C57.9052 99.592 57.9212 99.112 57.9426 98.664C57.9426 98.4827 57.9959 98.2747 58.1026 98.04C58.1559 97.9013 58.2466 97.7893 58.3746 97.704C58.5026 97.6187 58.6466 97.56 58.8066 97.528C58.9666 97.496 59.1266 97.496 59.2866 97.528C59.4466 97.56 59.5852 97.624 59.7026 97.72C59.7346 97.752 59.7666 97.7893 59.7986 97.832C59.8306 97.8747 59.8572 97.9227 59.8786 97.976C59.9319 98.1147 59.9639 98.2373 59.9746 98.344C60.0066 98.4933 60.0226 98.6267 60.0226 98.744C60.0226 100.077 60.0226 101.437 60.0226 102.824C60.0332 104.211 60.0439 105.571 60.0546 106.904C60.0546 107.053 60.0599 107.203 60.0706 107.352C60.0812 107.491 60.0812 107.635 60.0706 107.784ZM70.1986 98.168C70.3159 98.3067 70.3746 98.4507 70.3746 98.6C70.3746 98.664 70.3692 98.7333 70.3586 98.808C70.3586 98.872 70.3532 98.9307 70.3426 98.984C70.3106 99.1013 70.2412 99.2133 70.1346 99.32C70.0492 99.384 69.9319 99.432 69.7826 99.464C69.7079 99.4853 69.6332 99.5013 69.5586 99.512C69.4839 99.5227 69.4039 99.5387 69.3186 99.56C69.2439 99.5707 69.1692 99.576 69.0946 99.576C69.0199 99.576 68.9399 99.576 68.8546 99.576H68.0386C67.8466 99.5867 67.6546 99.592 67.4626 99.592C67.2812 99.592 67.0999 99.592 66.9186 99.592C66.9292 99.9227 66.9346 100.28 66.9346 100.664C66.9346 101.037 66.9292 101.475 66.9186 101.976C66.9186 102.477 66.9132 103.059 66.9026 103.72C66.9026 104.381 66.9026 105.149 66.9026 106.024V107.24C66.9026 107.347 66.9079 107.427 66.9186 107.48C66.9186 107.523 66.9186 107.565 66.9186 107.608C66.9186 107.64 66.9132 107.683 66.9026 107.736C66.8812 107.832 66.8652 107.944 66.8546 108.072C66.8546 108.125 66.8492 108.179 66.8386 108.232C66.8279 108.275 66.8119 108.323 66.7906 108.376C66.7479 108.419 66.7266 108.451 66.7266 108.472L66.6786 108.568C66.6252 108.675 66.5239 108.776 66.3746 108.872C66.1399 108.989 65.8786 109.016 65.5906 108.952C65.4092 108.931 65.2706 108.883 65.1746 108.808C65.0786 108.712 65.0092 108.616 64.9666 108.52C64.9026 108.403 64.8652 108.291 64.8546 108.184C64.8226 108.088 64.8066 107.987 64.8066 107.88V99.656C64.7426 99.656 64.6092 99.656 64.4066 99.656C64.2039 99.656 63.9852 99.656 63.7506 99.656C63.5266 99.6453 63.3132 99.6347 63.1106 99.624C62.9079 99.6133 62.7692 99.6027 62.6946 99.592C62.6306 99.5813 62.5292 99.5653 62.3906 99.544C62.2626 99.5227 62.1559 99.5013 62.0706 99.48C61.8466 99.416 61.6706 99.3147 61.5426 99.176C61.4252 99.0373 61.3666 98.8827 61.3666 98.712C61.3666 98.648 61.3666 98.584 61.3666 98.52C61.3666 98.456 61.3772 98.3973 61.3986 98.344C61.4306 98.216 61.5159 98.1093 61.6546 98.024C61.6972 97.992 61.7612 97.9547 61.8466 97.912C61.9426 97.8587 62.0332 97.8213 62.1186 97.8C62.2466 97.7573 62.4066 97.7253 62.5986 97.704C62.6839 97.6933 62.7692 97.688 62.8546 97.688C62.9399 97.688 63.0306 97.688 63.1266 97.688C63.4999 97.688 63.8519 97.688 64.1826 97.688C64.5239 97.688 64.8812 97.6827 65.2546 97.672C65.8732 97.6613 66.4866 97.6613 67.0946 97.672C67.7132 97.672 68.3266 97.6827 68.9346 97.704C69.0732 97.7147 69.2066 97.7307 69.3346 97.752C69.4626 97.7733 69.5906 97.8107 69.7186 97.864C69.8146 97.896 69.9052 97.9387 69.9906 97.992C70.0759 98.0347 70.1452 98.0933 70.1986 98.168ZM73.8398 99.592L73.8078 102.104H74.4478C74.8851 102.093 75.2745 102.088 75.6158 102.088C75.9571 102.088 76.3358 102.093 76.7518 102.104H76.8318C76.9598 102.104 77.0825 102.109 77.1998 102.12C77.3278 102.12 77.4505 102.12 77.5678 102.12C77.6958 102.131 77.8185 102.152 77.9358 102.184C78.0531 102.205 78.1705 102.232 78.2878 102.264C78.4691 102.328 78.6185 102.424 78.7358 102.552C78.8425 102.691 78.8958 102.845 78.8958 103.016C78.8958 103.069 78.8958 103.133 78.8958 103.208C78.8958 103.272 78.8851 103.331 78.8638 103.384C78.8425 103.501 78.7731 103.608 78.6558 103.704C78.6025 103.779 78.5011 103.832 78.3518 103.864C78.2131 103.907 78.0745 103.933 77.9358 103.944C77.7865 103.976 77.6371 103.992 77.4878 103.992H76.7358L73.7758 104.008L73.7438 107.144L76.9278 107.176H77.6798C77.7651 107.176 77.8451 107.176 77.9198 107.176C77.9945 107.176 78.0638 107.181 78.1278 107.192C78.2131 107.213 78.2878 107.229 78.3518 107.24C78.4265 107.24 78.4958 107.251 78.5598 107.272C78.6878 107.315 78.7945 107.373 78.8798 107.448C78.9865 107.555 79.0558 107.667 79.0878 107.784C79.0985 107.837 79.1038 107.896 79.1038 107.96C79.1145 108.013 79.1145 108.072 79.1038 108.136C79.1038 108.307 79.0505 108.461 78.9438 108.6C78.8158 108.749 78.6665 108.845 78.4958 108.888C78.2718 108.984 78.0265 109.032 77.7598 109.032C77.6425 109.043 77.5198 109.048 77.3918 109.048C77.2638 109.048 77.1411 109.053 77.0238 109.064H76.9278C76.0958 109.085 75.2318 109.085 74.3358 109.064C74.1225 109.064 73.9518 109.059 73.8238 109.048C73.6958 109.048 73.5785 109.048 73.4718 109.048C73.3758 109.048 73.2745 109.048 73.1678 109.048C73.0611 109.048 72.9225 109.048 72.7518 109.048C72.5065 109.069 72.3038 109.027 72.1438 108.92C72.0265 108.845 71.9358 108.744 71.8718 108.616C71.8398 108.584 71.8238 108.552 71.8238 108.52C71.8131 108.499 71.8025 108.483 71.7918 108.472C71.7811 108.461 71.7705 108.445 71.7598 108.424C71.7385 108.371 71.7225 108.317 71.7118 108.264C71.7011 108.2 71.6958 108.141 71.6958 108.088C71.6851 108.035 71.6745 107.981 71.6638 107.928C71.6638 107.875 71.6585 107.821 71.6478 107.768V107.512C71.6478 107.469 71.6478 107.427 71.6478 107.384C71.6585 107.341 71.6638 107.299 71.6638 107.256V106.008L71.6958 103.704V101.576C71.6958 101.192 71.6958 100.851 71.6958 100.552C71.7065 100.253 71.7171 99.928 71.7278 99.576V99.496C71.7385 99.3787 71.7438 99.272 71.7438 99.176C71.7545 99.0693 71.7598 98.9627 71.7598 98.856C71.7705 98.6427 71.8291 98.4347 71.9358 98.232C71.9785 98.1467 72.0211 98.072 72.0638 98.008C72.1171 97.944 72.1865 97.8907 72.2718 97.848C72.4318 97.752 72.5971 97.704 72.7678 97.704C72.8531 97.704 72.9171 97.7093 72.9598 97.72V97.704C73.1518 97.704 73.3065 97.704 73.4238 97.704C73.5411 97.704 73.6531 97.704 73.7598 97.704C73.8771 97.704 73.9998 97.704 74.1278 97.704C74.2558 97.6933 74.4318 97.688 74.6558 97.688C75.0825 97.6773 75.4878 97.672 75.8718 97.672C76.2558 97.672 76.6505 97.6773 77.0558 97.688H77.1198C77.2371 97.6987 77.3598 97.704 77.4878 97.704C77.6158 97.704 77.7385 97.7093 77.8558 97.72C77.9731 97.72 78.0905 97.736 78.2078 97.768C78.3251 97.7893 78.4425 97.8213 78.5598 97.864C78.7411 97.9173 78.8905 98.008 79.0078 98.136C79.1038 98.2853 79.1518 98.4347 79.1518 98.584C79.1518 98.648 79.1518 98.712 79.1518 98.776C79.1518 98.8293 79.1411 98.8827 79.1198 98.936C79.1091 99.0427 79.0451 99.1547 78.9278 99.272C78.8851 99.2933 78.8371 99.32 78.7838 99.352C78.7411 99.384 78.6878 99.4107 78.6238 99.432C78.5598 99.4533 78.4905 99.4693 78.4158 99.48C78.3518 99.48 78.2878 99.4853 78.2238 99.496C78.1385 99.5173 78.0585 99.528 77.9838 99.528C77.9198 99.528 77.8451 99.528 77.7598 99.528H77.0398L73.8398 99.544V99.592ZM88.7171 104.344C88.7704 104.493 88.8077 104.664 88.8291 104.856C88.8611 105.037 88.8771 105.224 88.8771 105.416C88.8771 105.608 88.8611 105.8 88.8291 105.992C88.8077 106.173 88.7757 106.333 88.7331 106.472C88.5624 107.069 88.2211 107.571 87.7091 107.976C87.1971 108.371 86.6104 108.659 85.9491 108.84C85.2984 109.021 84.6211 109.085 83.9171 109.032C83.2237 108.979 82.6051 108.803 82.0611 108.504C81.7197 108.312 81.4264 108.077 81.1811 107.8C80.9357 107.523 80.7277 107.213 80.5571 106.872C80.4931 106.755 80.4504 106.621 80.4291 106.472C80.4184 106.312 80.4344 106.163 80.4771 106.024C80.5197 105.875 80.5891 105.747 80.6851 105.64C80.7811 105.523 80.9144 105.443 81.0851 105.4C81.1917 105.379 81.3091 105.368 81.4371 105.368C81.5757 105.368 81.7091 105.389 81.8371 105.432C81.9651 105.464 82.0824 105.523 82.1891 105.608C82.2957 105.683 82.3811 105.789 82.4451 105.928C82.5624 106.152 82.7277 106.36 82.9411 106.552C83.1651 106.733 83.3997 106.883 83.6451 107C83.9971 107.117 84.3491 107.165 84.7011 107.144C85.0637 107.123 85.3891 107.043 85.6771 106.904C85.9757 106.765 86.2157 106.579 86.3971 106.344C86.5784 106.099 86.6691 105.821 86.6691 105.512C86.6691 105.256 86.6317 105.048 86.5571 104.888C86.4824 104.717 86.3757 104.579 86.2371 104.472C86.1091 104.355 85.9491 104.259 85.7571 104.184C85.5757 104.109 85.3731 104.045 85.1491 103.992C84.8931 103.939 84.6317 103.901 84.3651 103.88C84.1091 103.859 83.8477 103.832 83.5811 103.8C83.3144 103.768 83.0531 103.725 82.7971 103.672C82.5411 103.619 82.2904 103.539 82.0451 103.432C81.5544 103.229 81.1811 102.92 80.9251 102.504C80.6691 102.088 80.5144 101.64 80.4611 101.16C80.4184 100.68 80.4771 100.205 80.6371 99.736C80.7971 99.256 81.0531 98.8453 81.4051 98.504C81.7464 98.1947 82.1517 97.976 82.6211 97.848C83.1011 97.7093 83.6291 97.6293 84.2051 97.608C84.5251 97.5973 84.8451 97.608 85.1651 97.64C85.4957 97.672 85.8104 97.7253 86.1091 97.8C86.4184 97.8747 86.7011 97.9707 86.9571 98.088C87.2237 98.2053 87.4531 98.344 87.6451 98.504C87.7837 98.6107 87.9224 98.7547 88.0611 98.936C88.1997 99.1067 88.3064 99.2933 88.3811 99.496C88.4557 99.688 88.4771 99.8747 88.4451 100.056C88.4237 100.237 88.3117 100.392 88.1091 100.52C87.9384 100.627 87.7731 100.675 87.6131 100.664C87.4637 100.643 87.3197 100.595 87.1811 100.52C87.0424 100.435 86.9091 100.339 86.7811 100.232C86.6531 100.125 86.5357 100.029 86.4291 99.944C86.1411 99.7307 85.7837 99.5867 85.3571 99.512C84.9304 99.4373 84.5304 99.4213 84.1571 99.464C83.9224 99.496 83.7037 99.5493 83.5011 99.624C83.2984 99.6987 83.1224 99.8 82.9731 99.928C82.8344 100.056 82.7224 100.216 82.6371 100.408C82.5624 100.589 82.5357 100.797 82.5571 101.032C82.5677 101.203 82.6157 101.347 82.7011 101.464C82.7971 101.581 82.9091 101.677 83.0371 101.752C83.1757 101.827 83.3251 101.885 83.4851 101.928C83.6451 101.971 83.8051 102.003 83.9651 102.024C84.4451 102.088 84.9251 102.136 85.4051 102.168C85.8851 102.2 86.3544 102.307 86.8131 102.488C87.2824 102.669 87.6824 102.915 88.0131 103.224C88.3437 103.533 88.5784 103.907 88.7171 104.344Z" fill="white"/>
</g>
<defs>
<clipPath id="clip0">
<rect width="111" height="115" fill="white"/>
</clipPath>
</defs>
</svg>
