<svg width="85" height="118" viewBox="0 0 85 118" fill="none" xmlns="http://www.w3.org/2000/svg">
<g clip-path="url(#clip0)">
<path d="M26.4158 93.5707C26.531 94.3945 27.1522 95.0003 27.8807 95.0003H55.4453C56.1745 95.0003 56.7958 94.3945 56.9109 93.5707L62.1678 55.9615H21.1589L26.4158 93.5707Z" fill="#FAFAFA"/>
<path d="M69.9725 22.7102C63.0669 20.7468 56.0331 25.344 54.0013 33.1486L51.8949 34.609L43.5758 40.6681L45.8299 22.4392C51.3685 17.1889 52.2794 7.86179 47.8914 1.34096L46.987 0L45.8002 1.03514C40.2428 5.97466 38.9844 15.0017 42.9234 21.675L41.0104 37.2569C39.4369 33.8025 36.9511 31.0046 33.907 29.2625L29.3989 26.6825V26.6651C26.8602 19.2169 19.7402 15.2603 13.0569 17.5842L11.6333 18.0939L12.0786 19.7059C14.2024 27.6306 21.4636 32.1657 28.4351 29.9239L32.5878 32.3C35.7513 34.1009 38.1502 37.2818 39.2458 41.1265L40.1798 44.3512V45.7776H17.9358V52.5669H65.3898V45.7776H43.1457V45.0085L53.4524 37.4939L55.5436 36.0519C62.5173 37.634 69.3477 32.6638 71.0551 24.7639L71.4106 23.1179L69.9725 22.7102Z" fill="#FAFAFA"/>
</g>
<path d="M20.0446 103.68C20.4499 104.053 20.7486 104.501 20.9406 105.024C21.1326 105.536 21.2072 106.048 21.1646 106.56C21.1219 107.051 20.9672 107.504 20.7006 107.92C20.4339 108.325 20.0286 108.635 19.4846 108.848C19.0579 109.029 18.6366 109.157 18.2206 109.232C17.8046 109.307 17.3459 109.365 16.8446 109.408C16.6206 109.429 16.4286 109.445 16.2686 109.456C16.1192 109.456 15.9432 109.461 15.7406 109.472C15.6979 109.472 15.6232 109.472 15.5166 109.472C15.4206 109.472 15.3512 109.477 15.3086 109.488V112.8C15.2766 113.003 15.2339 113.211 15.1806 113.424C15.1379 113.637 15.0152 113.803 14.8126 113.92C14.6952 113.984 14.5512 114.021 14.3806 114.032C14.2099 114.043 14.0552 114.037 13.9166 114.016C13.7672 113.995 13.6392 113.957 13.5326 113.904C13.4366 113.84 13.3566 113.733 13.2926 113.584C13.2499 113.488 13.2072 113.381 13.1646 113.264C13.1326 113.136 13.1166 112.981 13.1166 112.8V103.952C13.1166 103.877 13.1219 103.808 13.1326 103.744C13.1432 103.68 13.1539 103.616 13.1646 103.552C13.1859 103.499 13.2019 103.44 13.2126 103.376C13.2232 103.312 13.2392 103.253 13.2606 103.2C13.2819 103.147 13.3032 103.099 13.3246 103.056C13.3566 103.013 13.3939 102.976 13.4366 102.944C13.4899 102.891 13.5699 102.843 13.6766 102.8C13.7939 102.757 13.9646 102.736 14.1886 102.736H14.2206C14.5512 102.715 14.9192 102.699 15.3246 102.688C15.7299 102.667 16.0659 102.672 16.3326 102.704C16.4819 102.725 16.6206 102.741 16.7486 102.752C16.8766 102.752 16.9992 102.757 17.1166 102.768C17.2446 102.779 17.3726 102.789 17.5006 102.8C17.6286 102.811 17.7566 102.827 17.8846 102.848C17.9912 102.869 18.0872 102.885 18.1726 102.896C18.2686 102.907 18.3646 102.923 18.4606 102.944C18.5459 102.965 18.6366 102.987 18.7326 103.008C18.8392 103.029 18.9352 103.067 19.0206 103.12C19.2446 103.184 19.4312 103.264 19.5806 103.36C19.7299 103.456 19.8846 103.563 20.0446 103.68ZM19.0846 106.32C19.0952 106.064 19.0419 105.84 18.9246 105.648C18.8179 105.456 18.6632 105.296 18.4606 105.168C18.2579 105.04 18.0286 104.939 17.7726 104.864C17.5166 104.789 17.2606 104.736 17.0046 104.704C16.9406 104.704 16.8499 104.704 16.7326 104.704C16.6259 104.693 16.5086 104.688 16.3806 104.688C16.2526 104.677 16.1299 104.672 16.0126 104.672C15.9059 104.661 15.8206 104.656 15.7566 104.656C15.7032 104.645 15.6392 104.64 15.5646 104.64C15.4899 104.64 15.4046 104.64 15.3086 104.64C15.3192 104.971 15.3246 105.291 15.3246 105.6C15.3246 105.899 15.3246 106.224 15.3246 106.576C15.3139 106.768 15.3086 106.96 15.3086 107.152C15.3086 107.344 15.3086 107.531 15.3086 107.712L16.3006 107.696C16.5566 107.696 16.8392 107.68 17.1486 107.648C17.4579 107.616 17.7512 107.552 18.0286 107.456C18.3059 107.36 18.5406 107.221 18.7326 107.04C18.9352 106.859 19.0526 106.619 19.0846 106.32ZM29.8679 112.784C29.8893 112.837 29.8999 112.917 29.8999 113.024C29.8999 113.12 29.8999 113.2 29.8999 113.264C29.8999 113.349 29.8839 113.429 29.8519 113.504C29.8199 113.579 29.7773 113.648 29.7239 113.712C29.6279 113.84 29.4893 113.936 29.3079 114C29.0519 114.085 28.8119 114.128 28.5879 114.128C28.4706 114.139 28.3479 114.144 28.2199 114.144C28.0919 114.144 27.9639 114.155 27.8359 114.176H27.7719C26.9506 114.187 26.1026 114.187 25.2279 114.176C25.0146 114.165 24.7746 114.165 24.5079 114.176C24.2413 114.197 23.9799 114.192 23.7239 114.16C23.4679 114.139 23.2333 114.08 23.0199 113.984C22.8173 113.877 22.6733 113.712 22.5879 113.488C22.5666 113.435 22.5506 113.387 22.5399 113.344C22.5293 113.291 22.5239 113.237 22.5239 113.184C22.4813 112.821 22.4653 112.464 22.4759 112.112C22.4866 111.76 22.4919 111.413 22.4919 111.072L22.5239 108.752V106.608C22.5239 106.224 22.5239 105.883 22.5239 105.584C22.5346 105.285 22.5453 104.955 22.5559 104.592V104.512C22.5666 104.405 22.5719 104.299 22.5719 104.192C22.5826 104.085 22.5879 103.979 22.5879 103.872C22.6093 103.627 22.6679 103.419 22.7639 103.248C22.8279 103.088 22.9399 102.96 23.0999 102.864C23.2386 102.768 23.4039 102.72 23.5959 102.72C23.6706 102.72 23.7399 102.725 23.8039 102.736C23.8786 102.736 23.9479 102.741 24.0119 102.752C24.0759 102.763 24.1346 102.784 24.1879 102.816C24.2519 102.848 24.3159 102.891 24.3799 102.944C24.4439 103.019 24.5026 103.109 24.5559 103.216C24.5986 103.333 24.6253 103.451 24.6359 103.568C24.6466 103.643 24.6573 103.712 24.6679 103.776C24.6786 103.84 24.6839 103.904 24.6839 103.968C24.6626 104.032 24.6519 104.096 24.6519 104.16C24.6519 104.224 24.6519 104.283 24.6519 104.336V104.624L24.5879 112.16L27.7559 112.192H28.5079C28.5719 112.192 28.6413 112.197 28.7159 112.208C28.7906 112.208 28.8653 112.213 28.9399 112.224C29.0253 112.235 29.0999 112.245 29.1639 112.256C29.2279 112.267 29.2919 112.283 29.3559 112.304C29.4733 112.336 29.5693 112.389 29.6439 112.464C29.7613 112.571 29.8359 112.677 29.8679 112.784ZM41.0511 112.912C41.0617 112.976 41.0671 113.04 41.0671 113.104C41.0777 113.157 41.0831 113.221 41.0831 113.296C41.0831 113.424 41.0457 113.541 40.9711 113.648C40.9391 113.701 40.8964 113.755 40.8431 113.808C40.7897 113.851 40.7257 113.888 40.6511 113.92C40.3844 114.069 40.1017 114.123 39.8031 114.08C39.6537 114.037 39.5204 113.968 39.4031 113.872C39.3817 113.851 39.3657 113.84 39.3551 113.84C39.3444 113.829 39.3337 113.813 39.3231 113.792C39.3124 113.781 39.3017 113.771 39.2911 113.76C39.2804 113.739 39.2644 113.723 39.2431 113.712C39.1897 113.659 39.1471 113.611 39.1151 113.568C39.0831 113.515 39.0511 113.461 39.0191 113.408C38.9977 113.355 38.9711 113.307 38.9391 113.264C38.9177 113.211 38.8911 113.157 38.8591 113.104C38.8377 113.061 38.8164 113.024 38.7951 112.992C38.7737 112.949 38.7577 112.907 38.7471 112.864C38.7044 112.768 38.6777 112.683 38.6671 112.608L38.3311 111.824C37.5951 111.824 36.8591 111.829 36.1231 111.84C35.3977 111.84 34.6671 111.835 33.9311 111.824L33.5951 112.608C33.5737 112.651 33.5577 112.693 33.5471 112.736C33.5471 112.779 33.5364 112.821 33.5151 112.864C33.4937 112.907 33.4724 112.949 33.4511 112.992C33.4404 113.024 33.4244 113.061 33.4031 113.104C33.3711 113.157 33.3391 113.211 33.3071 113.264C33.2857 113.307 33.2591 113.355 33.2271 113.408C33.2057 113.461 33.1791 113.515 33.1471 113.568C33.1151 113.611 33.0724 113.659 33.0191 113.712C32.9977 113.723 32.9817 113.739 32.9711 113.76C32.9604 113.771 32.9497 113.781 32.9391 113.792C32.9284 113.813 32.9177 113.829 32.9071 113.84C32.8964 113.84 32.8804 113.851 32.8591 113.872C32.7417 113.968 32.6084 114.037 32.4591 114.08C32.1604 114.123 31.8777 114.069 31.6111 113.92C31.5364 113.888 31.4724 113.851 31.4191 113.808C31.3657 113.755 31.3231 113.701 31.2911 113.648C31.2164 113.541 31.1791 113.424 31.1791 113.296C31.1791 113.221 31.1791 113.157 31.1791 113.104C31.1897 113.04 31.2004 112.976 31.2111 112.912C31.2324 112.816 31.2591 112.72 31.2911 112.624C31.3231 112.528 31.3391 112.48 31.3391 112.48L34.6671 104.288L34.7631 104.032C34.7844 103.968 34.8111 103.909 34.8431 103.856C34.8751 103.803 34.9017 103.739 34.9231 103.664C34.9764 103.525 35.0351 103.403 35.0991 103.296C35.1311 103.232 35.1684 103.173 35.2111 103.12C35.2537 103.067 35.2964 103.013 35.3391 102.96C35.4031 102.875 35.4937 102.805 35.6111 102.752C35.7604 102.699 35.9311 102.672 36.1231 102.672C36.3257 102.672 36.5017 102.699 36.6511 102.752C36.7684 102.805 36.8591 102.875 36.9231 102.96C36.9977 103.056 37.0777 103.168 37.1631 103.296C37.2271 103.403 37.2857 103.525 37.3391 103.664C37.3604 103.739 37.3871 103.803 37.4191 103.856C37.4511 103.909 37.4777 103.968 37.4991 104.032L37.5951 104.288L40.9231 112.48C40.9231 112.48 40.9391 112.528 40.9711 112.624C41.0031 112.72 41.0297 112.816 41.0511 112.912ZM37.2591 108.992C37.1204 108.683 36.9764 108.363 36.8271 108.032C36.6884 107.701 36.5391 107.365 36.3791 107.024C36.3364 106.928 36.2937 106.832 36.2511 106.736C36.2084 106.629 36.1657 106.528 36.1231 106.432C36.0911 106.528 36.0537 106.629 36.0111 106.736C35.9684 106.832 35.9257 106.928 35.8831 107.024C35.7231 107.365 35.5684 107.701 35.4191 108.032C35.2804 108.363 35.1417 108.683 35.0031 108.992L34.7151 109.696H37.5471L37.2591 108.992ZM51.0706 112.784C51.0599 112.965 51.0332 113.157 50.9906 113.36C50.9586 113.563 50.8572 113.728 50.6866 113.856C50.5586 113.963 50.4146 114.027 50.2546 114.048C50.0946 114.069 49.9346 114.059 49.7746 114.016C49.6252 113.984 49.4812 113.931 49.3426 113.856C49.2039 113.771 49.0919 113.669 49.0066 113.552C48.6439 113.104 48.3079 112.645 47.9986 112.176C47.6999 111.696 47.3959 111.216 47.0866 110.736L45.7426 108.704C45.5612 108.416 45.3692 108.096 45.1666 107.744C44.9639 107.381 44.7559 107.045 44.5426 106.736L44.4946 112.848V112.992C44.4946 113.163 44.4626 113.333 44.3986 113.504C44.3452 113.664 44.2492 113.803 44.1106 113.92C44.0039 114.005 43.8652 114.064 43.6946 114.096C43.4279 114.149 43.2039 114.133 43.0226 114.048C42.8519 113.963 42.7132 113.845 42.6066 113.696C42.5106 113.547 42.4412 113.376 42.3986 113.184C42.3666 112.981 42.3612 112.784 42.3826 112.592V112.32L42.4146 111.072L42.4306 108.752C42.4412 108.411 42.4466 108.064 42.4466 107.712C42.4466 107.349 42.4466 106.981 42.4466 106.608C42.4359 106.149 42.4359 105.664 42.4466 105.152C42.4679 104.64 42.4892 104.16 42.5106 103.712C42.5319 103.467 42.5906 103.259 42.6866 103.088C42.7292 102.939 42.8412 102.811 43.0226 102.704C43.1399 102.629 43.2892 102.581 43.4706 102.56C43.6626 102.539 43.8279 102.544 43.9666 102.576C44.0199 102.597 44.0732 102.624 44.1266 102.656C44.1799 102.677 44.2332 102.704 44.2866 102.736C44.3399 102.779 44.3879 102.821 44.4306 102.864C44.4839 102.907 44.5319 102.955 44.5746 103.008C44.6279 103.061 44.6759 103.12 44.7186 103.184C44.7612 103.237 44.8039 103.291 44.8466 103.344C44.8786 103.408 44.9106 103.467 44.9426 103.52C44.9746 103.573 45.0119 103.627 45.0546 103.68L45.2306 103.936L48.9266 109.76V108.704C48.9266 108.363 48.9212 108.016 48.9106 107.664C48.9106 107.301 48.9052 106.928 48.8946 106.544C48.8946 106.096 48.8946 105.616 48.8946 105.104C48.9052 104.592 48.9212 104.112 48.9426 103.664C48.9426 103.483 48.9959 103.275 49.1026 103.04C49.1559 102.901 49.2466 102.789 49.3746 102.704C49.5026 102.619 49.6466 102.56 49.8066 102.528C49.9666 102.496 50.1266 102.496 50.2866 102.528C50.4466 102.56 50.5852 102.624 50.7026 102.72C50.7346 102.752 50.7666 102.789 50.7986 102.832C50.8306 102.875 50.8572 102.923 50.8786 102.976C50.9319 103.115 50.9639 103.237 50.9746 103.344C51.0066 103.493 51.0226 103.627 51.0226 103.744C51.0226 105.077 51.0226 106.437 51.0226 107.824C51.0332 109.211 51.0439 110.571 51.0546 111.904C51.0546 112.053 51.0599 112.203 51.0706 112.352C51.0812 112.491 51.0812 112.635 51.0706 112.784ZM61.1986 103.168C61.3159 103.307 61.3746 103.451 61.3746 103.6C61.3746 103.664 61.3692 103.733 61.3586 103.808C61.3586 103.872 61.3532 103.931 61.3426 103.984C61.3106 104.101 61.2412 104.213 61.1346 104.32C61.0492 104.384 60.9319 104.432 60.7826 104.464C60.7079 104.485 60.6332 104.501 60.5586 104.512C60.4839 104.523 60.4039 104.539 60.3186 104.56C60.2439 104.571 60.1692 104.576 60.0946 104.576C60.0199 104.576 59.9399 104.576 59.8546 104.576H59.0386C58.8466 104.587 58.6546 104.592 58.4626 104.592C58.2812 104.592 58.0999 104.592 57.9186 104.592C57.9292 104.923 57.9346 105.28 57.9346 105.664C57.9346 106.037 57.9292 106.475 57.9186 106.976C57.9186 107.477 57.9132 108.059 57.9026 108.72C57.9026 109.381 57.9026 110.149 57.9026 111.024V112.24C57.9026 112.347 57.9079 112.427 57.9186 112.48C57.9186 112.523 57.9186 112.565 57.9186 112.608C57.9186 112.64 57.9132 112.683 57.9026 112.736C57.8812 112.832 57.8652 112.944 57.8546 113.072C57.8546 113.125 57.8492 113.179 57.8386 113.232C57.8279 113.275 57.8119 113.323 57.7906 113.376C57.7479 113.419 57.7266 113.451 57.7266 113.472L57.6786 113.568C57.6252 113.675 57.5239 113.776 57.3746 113.872C57.1399 113.989 56.8786 114.016 56.5906 113.952C56.4092 113.931 56.2706 113.883 56.1746 113.808C56.0786 113.712 56.0092 113.616 55.9666 113.52C55.9026 113.403 55.8652 113.291 55.8546 113.184C55.8226 113.088 55.8066 112.987 55.8066 112.88V104.656C55.7426 104.656 55.6092 104.656 55.4066 104.656C55.2039 104.656 54.9852 104.656 54.7506 104.656C54.5266 104.645 54.3132 104.635 54.1106 104.624C53.9079 104.613 53.7692 104.603 53.6946 104.592C53.6306 104.581 53.5292 104.565 53.3906 104.544C53.2626 104.523 53.1559 104.501 53.0706 104.48C52.8466 104.416 52.6706 104.315 52.5426 104.176C52.4252 104.037 52.3666 103.883 52.3666 103.712C52.3666 103.648 52.3666 103.584 52.3666 103.52C52.3666 103.456 52.3772 103.397 52.3986 103.344C52.4306 103.216 52.5159 103.109 52.6546 103.024C52.6972 102.992 52.7612 102.955 52.8466 102.912C52.9426 102.859 53.0332 102.821 53.1186 102.8C53.2466 102.757 53.4066 102.725 53.5986 102.704C53.6839 102.693 53.7692 102.688 53.8546 102.688C53.9399 102.688 54.0306 102.688 54.1266 102.688C54.4999 102.688 54.8519 102.688 55.1826 102.688C55.5239 102.688 55.8812 102.683 56.2546 102.672C56.8732 102.661 57.4866 102.661 58.0946 102.672C58.7132 102.672 59.3266 102.683 59.9346 102.704C60.0732 102.715 60.2066 102.731 60.3346 102.752C60.4626 102.773 60.5906 102.811 60.7186 102.864C60.8146 102.896 60.9052 102.939 60.9906 102.992C61.0759 103.035 61.1452 103.093 61.1986 103.168ZM64.8398 104.592L64.8078 107.104H65.4478C65.8851 107.093 66.2745 107.088 66.6158 107.088C66.9571 107.088 67.3358 107.093 67.7518 107.104H67.8318C67.9598 107.104 68.0825 107.109 68.1998 107.12C68.3278 107.12 68.4505 107.12 68.5678 107.12C68.6958 107.131 68.8185 107.152 68.9358 107.184C69.0531 107.205 69.1705 107.232 69.2878 107.264C69.4691 107.328 69.6185 107.424 69.7358 107.552C69.8425 107.691 69.8958 107.845 69.8958 108.016C69.8958 108.069 69.8958 108.133 69.8958 108.208C69.8958 108.272 69.8851 108.331 69.8638 108.384C69.8425 108.501 69.7731 108.608 69.6558 108.704C69.6025 108.779 69.5011 108.832 69.3518 108.864C69.2131 108.907 69.0745 108.933 68.9358 108.944C68.7865 108.976 68.6371 108.992 68.4878 108.992H67.7358L64.7758 109.008L64.7438 112.144L67.9278 112.176H68.6798C68.7651 112.176 68.8451 112.176 68.9198 112.176C68.9945 112.176 69.0638 112.181 69.1278 112.192C69.2131 112.213 69.2878 112.229 69.3518 112.24C69.4265 112.24 69.4958 112.251 69.5598 112.272C69.6878 112.315 69.7945 112.373 69.8798 112.448C69.9865 112.555 70.0558 112.667 70.0878 112.784C70.0985 112.837 70.1038 112.896 70.1038 112.96C70.1145 113.013 70.1145 113.072 70.1038 113.136C70.1038 113.307 70.0505 113.461 69.9438 113.6C69.8158 113.749 69.6665 113.845 69.4958 113.888C69.2718 113.984 69.0265 114.032 68.7598 114.032C68.6425 114.043 68.5198 114.048 68.3918 114.048C68.2638 114.048 68.1411 114.053 68.0238 114.064H67.9278C67.0958 114.085 66.2318 114.085 65.3358 114.064C65.1225 114.064 64.9518 114.059 64.8238 114.048C64.6958 114.048 64.5785 114.048 64.4718 114.048C64.3758 114.048 64.2745 114.048 64.1678 114.048C64.0611 114.048 63.9225 114.048 63.7518 114.048C63.5065 114.069 63.3038 114.027 63.1438 113.92C63.0265 113.845 62.9358 113.744 62.8718 113.616C62.8398 113.584 62.8238 113.552 62.8238 113.52C62.8131 113.499 62.8025 113.483 62.7918 113.472C62.7811 113.461 62.7705 113.445 62.7598 113.424C62.7385 113.371 62.7225 113.317 62.7118 113.264C62.7011 113.2 62.6958 113.141 62.6958 113.088C62.6851 113.035 62.6745 112.981 62.6638 112.928C62.6638 112.875 62.6585 112.821 62.6478 112.768V112.512C62.6478 112.469 62.6478 112.427 62.6478 112.384C62.6585 112.341 62.6638 112.299 62.6638 112.256V111.008L62.6958 108.704V106.576C62.6958 106.192 62.6958 105.851 62.6958 105.552C62.7065 105.253 62.7171 104.928 62.7278 104.576V104.496C62.7385 104.379 62.7438 104.272 62.7438 104.176C62.7545 104.069 62.7598 103.963 62.7598 103.856C62.7705 103.643 62.8291 103.435 62.9358 103.232C62.9785 103.147 63.0211 103.072 63.0638 103.008C63.1171 102.944 63.1865 102.891 63.2718 102.848C63.4318 102.752 63.5971 102.704 63.7678 102.704C63.8531 102.704 63.9171 102.709 63.9598 102.72V102.704C64.1518 102.704 64.3065 102.704 64.4238 102.704C64.5411 102.704 64.6531 102.704 64.7598 102.704C64.8771 102.704 64.9998 102.704 65.1278 102.704C65.2558 102.693 65.4318 102.688 65.6558 102.688C66.0825 102.677 66.4878 102.672 66.8718 102.672C67.2558 102.672 67.6505 102.677 68.0558 102.688H68.1198C68.2371 102.699 68.3598 102.704 68.4878 102.704C68.6158 102.704 68.7385 102.709 68.8558 102.72C68.9731 102.72 69.0905 102.736 69.2078 102.768C69.3251 102.789 69.4425 102.821 69.5598 102.864C69.7411 102.917 69.8905 103.008 70.0078 103.136C70.1038 103.285 70.1518 103.435 70.1518 103.584C70.1518 103.648 70.1518 103.712 70.1518 103.776C70.1518 103.829 70.1411 103.883 70.1198 103.936C70.1091 104.043 70.0451 104.155 69.9278 104.272C69.8851 104.293 69.8371 104.32 69.7838 104.352C69.7411 104.384 69.6878 104.411 69.6238 104.432C69.5598 104.453 69.4905 104.469 69.4158 104.48C69.3518 104.48 69.2878 104.485 69.2238 104.496C69.1385 104.517 69.0585 104.528 68.9838 104.528C68.9198 104.528 68.8451 104.528 68.7598 104.528H68.0398L64.8398 104.544V104.592ZM79.7171 109.344C79.7704 109.493 79.8077 109.664 79.8291 109.856C79.8611 110.037 79.8771 110.224 79.8771 110.416C79.8771 110.608 79.8611 110.8 79.8291 110.992C79.8077 111.173 79.7757 111.333 79.7331 111.472C79.5624 112.069 79.2211 112.571 78.7091 112.976C78.1971 113.371 77.6104 113.659 76.9491 113.84C76.2984 114.021 75.6211 114.085 74.9171 114.032C74.2237 113.979 73.6051 113.803 73.0611 113.504C72.7197 113.312 72.4264 113.077 72.1811 112.8C71.9357 112.523 71.7277 112.213 71.5571 111.872C71.4931 111.755 71.4504 111.621 71.4291 111.472C71.4184 111.312 71.4344 111.163 71.4771 111.024C71.5197 110.875 71.5891 110.747 71.6851 110.64C71.7811 110.523 71.9144 110.443 72.0851 110.4C72.1917 110.379 72.3091 110.368 72.4371 110.368C72.5757 110.368 72.7091 110.389 72.8371 110.432C72.9651 110.464 73.0824 110.523 73.1891 110.608C73.2957 110.683 73.3811 110.789 73.4451 110.928C73.5624 111.152 73.7277 111.36 73.9411 111.552C74.1651 111.733 74.3997 111.883 74.6451 112C74.9971 112.117 75.3491 112.165 75.7011 112.144C76.0637 112.123 76.3891 112.043 76.6771 111.904C76.9757 111.765 77.2157 111.579 77.3971 111.344C77.5784 111.099 77.6691 110.821 77.6691 110.512C77.6691 110.256 77.6317 110.048 77.5571 109.888C77.4824 109.717 77.3757 109.579 77.2371 109.472C77.1091 109.355 76.9491 109.259 76.7571 109.184C76.5757 109.109 76.3731 109.045 76.1491 108.992C75.8931 108.939 75.6317 108.901 75.3651 108.88C75.1091 108.859 74.8477 108.832 74.5811 108.8C74.3144 108.768 74.0531 108.725 73.7971 108.672C73.5411 108.619 73.2904 108.539 73.0451 108.432C72.5544 108.229 72.1811 107.92 71.9251 107.504C71.6691 107.088 71.5144 106.64 71.4611 106.16C71.4184 105.68 71.4771 105.205 71.6371 104.736C71.7971 104.256 72.0531 103.845 72.4051 103.504C72.7464 103.195 73.1517 102.976 73.6211 102.848C74.1011 102.709 74.6291 102.629 75.2051 102.608C75.5251 102.597 75.8451 102.608 76.1651 102.64C76.4957 102.672 76.8104 102.725 77.1091 102.8C77.4184 102.875 77.7011 102.971 77.9571 103.088C78.2237 103.205 78.4531 103.344 78.6451 103.504C78.7837 103.611 78.9224 103.755 79.0611 103.936C79.1997 104.107 79.3064 104.293 79.3811 104.496C79.4557 104.688 79.4771 104.875 79.4451 105.056C79.4237 105.237 79.3117 105.392 79.1091 105.52C78.9384 105.627 78.7731 105.675 78.6131 105.664C78.4637 105.643 78.3197 105.595 78.1811 105.52C78.0424 105.435 77.9091 105.339 77.7811 105.232C77.6531 105.125 77.5357 105.029 77.4291 104.944C77.1411 104.731 76.7837 104.587 76.3571 104.512C75.9304 104.437 75.5304 104.421 75.1571 104.464C74.9224 104.496 74.7037 104.549 74.5011 104.624C74.2984 104.699 74.1224 104.8 73.9731 104.928C73.8344 105.056 73.7224 105.216 73.6371 105.408C73.5624 105.589 73.5357 105.797 73.5571 106.032C73.5677 106.203 73.6157 106.347 73.7011 106.464C73.7971 106.581 73.9091 106.677 74.0371 106.752C74.1757 106.827 74.3251 106.885 74.4851 106.928C74.6451 106.971 74.8051 107.003 74.9651 107.024C75.4451 107.088 75.9251 107.136 76.4051 107.168C76.8851 107.2 77.3544 107.307 77.8131 107.488C78.2824 107.669 78.6824 107.915 79.0131 108.224C79.3437 108.533 79.5784 108.907 79.7171 109.344Z" fill="#FAFAFA"/>
<defs>
<clipPath id="clip0">
<rect width="83" height="95" fill="white"/>
</clipPath>
</defs>
</svg>
