<svg width="75" height="75" viewBox="0 0 75 75" fill="none" xmlns="http://www.w3.org/2000/svg">
<g clip-path="url(#clip0)">
<path fill-rule="evenodd" clip-rule="evenodd" d="M19.4113 51.2743C19.4113 51.2743 20.3497 54.2796 25.1799 54.2796H47.0199C51.8499 54.2796 52.7883 51.2743 52.7883 51.2743L57.0999 21.808H15.1L19.4113 51.2743ZM44.4999 26.236C44.4999 25.4208 45.44 24.76 46.5999 24.76C47.7599 24.76 48.7002 25.4208 48.7002 26.236L46.5999 48.3758C46.5999 49.1911 45.6597 49.8518 44.4999 49.8518C43.3403 49.8518 42.4 49.1909 42.4 48.3758L44.4999 26.236ZM34 26.236C34 25.4208 34.9403 24.76 36.0999 24.76C37.2599 24.76 38.1999 25.4208 38.1999 26.236V48.3758C38.1999 49.1911 37.2599 49.8518 36.0999 49.8518C34.9401 49.8518 34 49.1909 34 48.3758V26.236ZM25.5999 24.7599C26.7598 24.7599 27.6999 25.4206 27.6999 26.2359L29.8001 48.3757C29.8001 49.1909 28.8598 49.8517 27.6999 49.8517C26.5402 49.8517 25.5999 49.1908 25.5999 48.3757L23.5 26.236C23.5 25.4208 24.4403 24.7599 25.5999 24.7599ZM55.8398 15.9063H46.5999V12.9521C46.5999 10.7128 45.5696 10 42.4 10H29.7998C26.8927 10 25.5999 10.9897 25.5999 12.9521V15.9064H16.3601C14.503 15.9064 13 16.8972 13 18.1214C13 19.3459 14.503 20.3367 16.3601 20.3367H55.8398C57.697 20.3367 59.1999 19.3459 59.1999 18.1214C59.1999 16.8972 57.697 15.9063 55.8398 15.9063ZM42.4 15.9063H29.8001L29.8003 12.9519H42.4002V15.9063H42.4Z" fill="#FAFAFA"/>
<path d="M21.8075 58.0644C22.0375 58.2427 22.2071 58.457 22.316 58.7071C22.425 58.952 22.4674 59.1969 22.4432 59.4417C22.4189 59.6766 22.3312 59.8932 22.1798 60.0922C22.0285 60.2859 21.7984 60.4341 21.4897 60.536C21.2475 60.6226 21.0084 60.6838 20.7723 60.7197C20.5362 60.7555 20.2758 60.7833 19.9913 60.8038C19.8642 60.8139 19.7552 60.8215 19.6644 60.8268C19.5796 60.8268 19.4797 60.8292 19.3647 60.8344C19.3405 60.8344 19.2981 60.8344 19.2376 60.8344C19.1831 60.8344 19.1437 60.8368 19.1195 60.8421V62.4261C19.1013 62.5232 19.0771 62.6227 19.0469 62.7245C19.0226 62.8264 18.953 62.9058 18.838 62.9617C18.7714 62.9924 18.6897 63.01 18.5928 63.0153C18.4959 63.0206 18.4082 63.0177 18.3295 63.0077C18.2447 62.9976 18.1721 62.9794 18.1115 62.9541C18.057 62.9235 18.0116 62.8723 17.9753 62.801C17.9511 62.7551 17.9269 62.704 17.9026 62.648C17.8845 62.5868 17.8754 62.5127 17.8754 62.4261V58.1944C17.8754 58.1586 17.8784 58.1256 17.8845 58.095C17.8906 58.0644 17.8966 58.0337 17.9026 58.0031C17.9147 57.9778 17.9238 57.9496 17.9299 57.919C17.936 57.8884 17.945 57.8601 17.9571 57.8348C17.9692 57.8094 17.9814 57.7865 17.9935 57.7659C18.0116 57.7454 18.0328 57.7277 18.057 57.7124C18.0873 57.687 18.1327 57.6641 18.1932 57.6435C18.2598 57.6229 18.3567 57.6129 18.4838 57.6129H18.502C18.6897 57.6028 18.8986 57.5952 19.1286 57.5899C19.3586 57.5799 19.5493 57.5823 19.7007 57.5976C19.7854 57.6076 19.8642 57.6153 19.9368 57.6205C20.0095 57.6205 20.0791 57.6229 20.1457 57.6282C20.2183 57.6334 20.291 57.6382 20.3636 57.6435C20.4363 57.6487 20.5089 57.6564 20.5816 57.6664C20.6421 57.6765 20.6966 57.6841 20.745 57.6894C20.7995 57.6947 20.854 57.7023 20.9085 57.7124C20.9569 57.7224 21.0084 57.7329 21.0629 57.743C21.1234 57.753 21.1779 57.7712 21.2263 57.7965C21.3535 57.8271 21.4594 57.8654 21.5442 57.9113C21.6289 57.9572 21.7167 58.0084 21.8075 58.0644ZM21.2626 59.327C21.2687 59.2045 21.2384 59.0974 21.1718 59.0056C21.1113 58.9137 21.0235 58.8372 20.9085 58.776C20.7934 58.7148 20.6633 58.6665 20.518 58.6306C20.3727 58.5947 20.2274 58.5694 20.0821 58.5541C20.0458 58.5541 19.9943 58.5541 19.9277 58.5541C19.8672 58.5488 19.8006 58.5464 19.7279 58.5464C19.6553 58.5412 19.5856 58.5388 19.5191 58.5388C19.4585 58.5335 19.4101 58.5311 19.3738 58.5311C19.3435 58.5259 19.3072 58.5235 19.2648 58.5235C19.2224 58.5235 19.174 58.5235 19.1195 58.5235C19.1256 58.6818 19.1286 58.8348 19.1286 58.9826C19.1286 59.1256 19.1286 59.281 19.1286 59.4494C19.1225 59.5412 19.1195 59.633 19.1195 59.7249C19.1195 59.8167 19.1195 59.9061 19.1195 59.9927L19.6825 59.985C19.8278 59.985 19.9883 59.9774 20.1638 59.9621C20.3394 59.9468 20.5059 59.9162 20.6633 59.8703C20.8207 59.8244 20.9539 59.7579 21.0629 59.6713C21.1779 59.5847 21.2445 59.47 21.2626 59.327ZM24.7948 57.7659C25.2004 57.6382 25.5667 57.5823 25.8936 57.5976C26.2266 57.6129 26.5233 57.6841 26.7836 57.8118C27.0439 57.9343 27.2649 58.1002 27.4465 58.3092C27.6342 58.5182 27.7855 58.7531 27.9006 59.0132C27.9914 59.2069 28.061 59.4111 28.1094 59.6254C28.1578 59.8397 28.1851 60.0539 28.1912 60.2682C28.2033 60.4772 28.1942 60.6838 28.1639 60.888C28.1397 61.0922 28.0973 61.2807 28.0368 61.4543C28.0005 61.5714 27.9581 61.6786 27.9097 61.7757C27.8612 61.8727 27.8037 61.9694 27.7371 62.0664C27.5857 62.286 27.389 62.4644 27.1468 62.6021C26.9107 62.7398 26.6504 62.8369 26.3659 62.8929C26.1721 62.9335 25.9723 62.9541 25.7665 62.9541C25.5607 62.9488 25.3579 62.9259 25.1581 62.8852C24.9583 62.8393 24.7645 62.7757 24.5769 62.6939C24.3953 62.6074 24.2287 62.5002 24.0774 62.3725C23.8897 62.2195 23.7354 62.0435 23.6143 61.8445C23.4932 61.6403 23.3994 61.4289 23.3328 61.2094C23.2662 60.9851 23.2238 60.7603 23.2057 60.536C23.1875 60.3117 23.1875 60.0974 23.2057 59.8932C23.2238 59.7043 23.2662 59.503 23.3328 59.2887C23.4054 59.0744 23.5083 58.8678 23.6415 58.6689C23.7747 58.4699 23.9351 58.2915 24.1228 58.1332C24.3166 57.9701 24.5406 57.8477 24.7948 57.7659ZM26.9198 61.041C26.9925 60.8014 27.0227 60.5307 27.0106 60.2299C26.9985 59.9291 26.941 59.646 26.8381 59.3805C26.7715 59.2174 26.6867 59.0744 26.5838 58.952C26.4869 58.8243 26.3689 58.7277 26.2297 58.6612C26.0964 58.5947 25.9391 58.5617 25.7574 58.5617C25.5758 58.5617 25.373 58.6077 25.149 58.6995C25.0158 58.7554 24.9007 58.832 24.8039 58.929C24.7131 59.0261 24.6374 59.1357 24.5769 59.2581C24.5224 59.3805 24.477 59.5082 24.4407 59.6407C24.4104 59.7732 24.3922 59.9009 24.3862 60.0233C24.374 60.1558 24.371 60.2964 24.3771 60.4442C24.3831 60.5872 24.4013 60.7326 24.4316 60.8804C24.4679 61.0234 24.5163 61.1611 24.5769 61.2936C24.6374 61.4213 24.7191 61.536 24.8221 61.6379C24.9795 61.791 25.1611 61.8981 25.3669 61.9593C25.5788 62.0153 25.7877 62.0229 25.9935 61.9823C26.3265 61.921 26.5807 61.735 26.7564 61.4237C26.829 61.3113 26.8835 61.184 26.9198 61.041ZM33.8924 58.0031C33.9287 58.248 33.9499 58.5335 33.9559 58.8602C33.962 59.1816 33.9559 59.5082 33.9378 59.8397C33.9256 60.1663 33.8984 60.4772 33.8561 60.7732C33.8137 61.064 33.7622 61.2988 33.7017 61.4772C33.6593 61.5844 33.6078 61.6967 33.5473 61.8139C33.4928 61.9263 33.4323 62.0282 33.3657 62.12C33.2688 62.2577 33.1507 62.3802 33.0115 62.4873C32.8722 62.5892 32.7179 62.6786 32.5484 62.7551C32.3849 62.8264 32.2093 62.8828 32.0217 62.9235C31.8401 62.9641 31.6584 62.9871 31.4768 62.9924C31.1559 63.0024 30.8502 62.9641 30.5596 62.8776C30.275 62.7857 30.0117 62.6427 29.7696 62.449C29.5879 62.3013 29.4427 62.143 29.3337 61.9746C29.2247 61.8063 29.1399 61.6303 29.0794 61.4466C29.0188 61.2577 28.9795 61.064 28.9614 60.865C28.9492 60.6661 28.9432 60.4619 28.9432 60.2529C28.9432 60.1558 28.9401 60.0362 28.9341 59.8932C28.9341 59.7454 28.9341 59.5948 28.9341 59.4417C28.9341 59.2834 28.9341 59.1304 28.9341 58.9826C28.9341 58.8348 28.9371 58.7095 28.9432 58.6077C28.9432 58.5412 28.9432 58.4699 28.9432 58.3934C28.9432 58.3116 28.9462 58.2327 28.9523 58.1562C28.9644 58.0744 28.9825 57.9979 29.0068 57.9266C29.0309 57.8501 29.0673 57.7812 29.1157 57.72C29.1702 57.6535 29.2459 57.6052 29.3428 57.5746C29.4396 57.544 29.5395 57.5287 29.6424 57.5287C29.7514 57.5287 29.8543 57.5464 29.9512 57.5823C30.048 57.6181 30.1267 57.6688 30.1873 57.7353C30.2176 57.776 30.2387 57.8171 30.2509 57.8577C30.263 57.8984 30.272 57.9443 30.2781 57.9955C30.2902 58.1638 30.2963 58.3551 30.2963 58.5694C30.3023 58.7837 30.3023 58.9927 30.2963 59.1969C30.2963 59.3958 30.2932 59.5795 30.2872 59.7478C30.2811 59.9162 30.2781 60.041 30.2781 60.1228C30.2781 60.4289 30.2963 60.7067 30.3326 60.9569C30.3689 61.2017 30.4537 61.406 30.5869 61.569C30.7079 61.7168 30.8502 61.8115 31.0137 61.8522C31.1771 61.8928 31.3406 61.9057 31.5041 61.8904C31.6554 61.8751 31.8067 61.8292 31.9581 61.7527C32.1155 61.6709 32.2396 61.5537 32.3304 61.4007C32.3668 61.3447 32.397 61.2807 32.4212 61.2094C32.4454 61.1381 32.4636 61.0717 32.4757 61.0104C32.4999 60.8167 32.5211 60.592 32.5393 60.337C32.5575 60.0769 32.5726 59.8114 32.5847 59.5412C32.5968 59.271 32.6029 59.0056 32.6029 58.7454C32.6029 58.4852 32.5998 58.2504 32.5938 58.0414C32.6059 57.9496 32.6392 57.8654 32.6937 57.7889C32.7421 57.7224 32.8117 57.6641 32.9025 57.6129C32.9934 57.5617 33.1174 57.5364 33.2749 57.5364C33.402 57.5416 33.5049 57.5694 33.5836 57.6205C33.6623 57.6664 33.7259 57.7176 33.7743 57.7736C33.8288 57.84 33.8681 57.9166 33.8924 58.0031ZM38.2675 60.1764C38.4431 60.2734 38.5914 60.3882 38.7125 60.5207C38.8396 60.6484 38.9395 60.8062 39.0122 60.9951C39.0909 61.2041 39.1302 61.416 39.1302 61.6303C39.1363 61.8393 39.0909 62.0358 38.994 62.2195C38.9032 62.3979 38.7549 62.5562 38.549 62.6939C38.3493 62.8264 38.0859 62.9211 37.759 62.977C37.5834 63.0129 37.3776 63.0407 37.1415 63.0612C36.9054 63.0818 36.6935 63.0918 36.5058 63.0918C36.2697 63.0971 36.0245 63.0971 35.7702 63.0918C35.522 63.0918 35.2799 63.0713 35.0437 63.0306C34.9408 63.0053 34.8651 62.9617 34.8167 62.9005C34.7743 62.834 34.7441 62.7604 34.7259 62.6786C34.7017 62.6327 34.6896 62.5868 34.6896 62.5409V58.1944C34.6896 58.0514 34.7229 57.9419 34.7895 57.8654C34.8621 57.7836 34.9559 57.7253 35.071 57.6894C35.186 57.6487 35.3162 57.6258 35.4615 57.6205C35.6068 57.6105 35.7581 57.6052 35.9155 57.6052C36.0366 57.6052 36.1577 57.6052 36.2788 57.6052C36.4059 57.6 36.533 57.6 36.6602 57.6052C36.86 57.6105 37.0658 57.6258 37.2777 57.6511C37.4956 57.6717 37.7015 57.7124 37.8952 57.7736C37.986 57.7989 38.0829 57.8348 38.1858 57.8807C38.2887 57.9214 38.3704 57.9725 38.431 58.0337C38.6247 58.1815 38.767 58.3551 38.8578 58.5541C38.9547 58.7478 38.997 58.9467 38.9849 59.151C38.9728 59.3499 38.9062 59.5412 38.7852 59.7249C38.6701 59.9085 38.4976 60.0592 38.2675 60.1764ZM36.6783 62.2042C36.866 62.1941 37.0567 62.176 37.2504 62.1506C37.4442 62.1253 37.5774 62.0765 37.65 62.0052C37.7287 61.9234 37.7832 61.8292 37.8135 61.7221C37.8498 61.6097 37.8589 61.4978 37.8407 61.3854C37.8286 61.2682 37.7892 61.1582 37.7227 61.0564C37.6621 60.9492 37.5804 60.865 37.4775 60.8038C37.3383 60.712 37.1778 60.6532 36.9962 60.6278C36.8146 60.5972 36.6359 60.5819 36.4604 60.5819C36.3757 60.5819 36.2969 60.5843 36.2243 60.5896C36.1577 60.5896 36.0972 60.5972 36.0427 60.6125C35.9943 60.6226 35.9579 60.6455 35.9337 60.6814C35.9095 60.7173 35.8974 60.7708 35.8974 60.8421C35.9095 60.9746 35.9095 61.1075 35.8974 61.24C35.8853 61.3725 35.8792 61.5002 35.8792 61.6226C35.8792 61.6939 35.8762 61.7733 35.8701 61.8598C35.8701 61.9416 35.9034 62.0105 35.97 62.0664C36.0366 62.1224 36.1335 62.1607 36.2606 62.1812C36.3877 62.2018 36.527 62.2094 36.6783 62.2042ZM36.86 58.5311C36.6723 58.5259 36.5149 58.5235 36.3877 58.5235C36.2667 58.5182 36.1698 58.5259 36.0972 58.5464C36.0306 58.5617 35.9821 58.6 35.9519 58.6612C35.9276 58.7172 35.9185 58.8042 35.9246 58.9214C35.9246 59.0185 35.9216 59.1151 35.9155 59.2122C35.9155 59.304 35.9155 59.3958 35.9155 59.4877C35.9155 59.5895 35.9549 59.666 36.0336 59.7172C36.1123 59.7631 36.2091 59.7914 36.3242 59.8014C36.4452 59.8114 36.5694 59.8114 36.6965 59.8014C36.8297 59.7914 36.9447 59.7784 37.0416 59.7631C37.2595 59.7325 37.426 59.6713 37.541 59.5795C37.6621 59.4824 37.7317 59.3423 37.7499 59.1586C37.7741 58.9291 37.7015 58.7707 37.532 58.6842C37.3685 58.5924 37.1445 58.5412 36.86 58.5311ZM40.9886 58.5005L40.9705 59.7019H41.3337C41.5819 59.6967 41.8029 59.6943 41.9966 59.6943C42.1903 59.6943 42.4053 59.6967 42.6414 59.7019H42.6868C42.7594 59.7019 42.829 59.7043 42.8956 59.7096C42.9683 59.7096 43.0379 59.7096 43.1045 59.7096C43.1772 59.7148 43.2467 59.7249 43.3134 59.7402C43.38 59.7502 43.4465 59.7631 43.5132 59.7784C43.6161 59.809 43.7008 59.855 43.7674 59.9162C43.8279 59.9827 43.8582 60.0563 43.8582 60.1381C43.8582 60.1634 43.8582 60.194 43.8582 60.2299C43.8582 60.2605 43.8522 60.2887 43.8401 60.3141C43.8279 60.37 43.7886 60.4212 43.722 60.4671C43.6917 60.503 43.6342 60.5284 43.5495 60.5437C43.4708 60.5642 43.392 60.5767 43.3134 60.5819C43.2286 60.5972 43.1438 60.6049 43.0591 60.6049H42.6323L40.9523 60.6125L40.9341 62.1124L42.7413 62.1277H43.1681C43.2165 62.1277 43.2619 62.1277 43.3043 62.1277C43.3466 62.1277 43.386 62.13 43.4223 62.1353C43.4708 62.1454 43.5132 62.153 43.5495 62.1583C43.5918 62.1583 43.6312 62.1635 43.6675 62.1736C43.7402 62.1941 43.8007 62.2219 43.8492 62.2577C43.9097 62.3089 43.9491 62.3625 43.9672 62.4184C43.9732 62.4438 43.9763 62.472 43.9763 62.5026C43.9823 62.528 43.9823 62.5562 43.9763 62.5868C43.9763 62.6686 43.946 62.7422 43.8855 62.8087C43.8128 62.88 43.728 62.9259 43.6312 62.9464C43.5041 62.9924 43.3648 63.0153 43.2135 63.0153C43.1469 63.0206 43.0773 63.023 43.0046 63.023C42.932 63.023 42.8623 63.0254 42.7958 63.0306H42.7413C42.2691 63.0407 41.7787 63.0407 41.2701 63.0306C41.149 63.0306 41.0522 63.0282 40.9795 63.023C40.9069 63.023 40.8403 63.023 40.7798 63.023C40.7253 63.023 40.6677 63.023 40.6072 63.023C40.5467 63.023 40.4679 63.023 40.3711 63.023C40.2318 63.033 40.1168 63.0129 40.026 62.9617C39.9594 62.9259 39.908 62.8776 39.8716 62.8163C39.8535 62.801 39.8444 62.7857 39.8444 62.7704C39.8383 62.7604 39.8323 62.7527 39.8262 62.7475C39.8202 62.7422 39.8141 62.7346 39.8081 62.7245C39.7959 62.6992 39.7869 62.6734 39.7808 62.648C39.7748 62.6174 39.7718 62.5892 39.7718 62.5638C39.7657 62.5385 39.7596 62.5127 39.7536 62.4873C39.7536 62.462 39.7505 62.4361 39.7445 62.4108V62.2884C39.7445 62.2678 39.7445 62.2477 39.7445 62.2271C39.7505 62.2066 39.7536 62.1865 39.7536 62.1659V61.569L39.7718 60.4671V59.4494C39.7718 59.2657 39.7718 59.1027 39.7718 58.9597C39.7778 58.8167 39.7838 58.6612 39.7899 58.4929V58.4546C39.7959 58.3987 39.799 58.3475 39.799 58.3016C39.805 58.2504 39.8081 58.1997 39.8081 58.1485C39.8141 58.0467 39.8474 57.9472 39.908 57.8501C39.9322 57.8094 39.9564 57.7736 39.9806 57.743C40.0109 57.7124 40.0502 57.687 40.0987 57.6664C40.1895 57.6205 40.2833 57.5976 40.3802 57.5976C40.4286 57.5976 40.4649 57.6 40.4892 57.6052V57.5976C40.5981 57.5976 40.6859 57.5976 40.7525 57.5976C40.8191 57.5976 40.8827 57.5976 40.9432 57.5976C41.0098 57.5976 41.0794 57.5976 41.1521 57.5976C41.2247 57.5923 41.3246 57.5899 41.4518 57.5899C41.6939 57.5847 41.924 57.5823 42.1419 57.5823C42.3599 57.5823 42.5838 57.5847 42.8139 57.5899H42.8502C42.9168 57.5952 42.9865 57.5976 43.0591 57.5976C43.1318 57.5976 43.2013 57.6 43.268 57.6052C43.3345 57.6052 43.4011 57.6129 43.4678 57.6282C43.5343 57.6382 43.6009 57.6535 43.6675 57.6741C43.7704 57.6994 43.8552 57.743 43.9218 57.8042C43.9763 57.8754 44.0035 57.9472 44.0035 58.0184C44.0035 58.0491 44.0035 58.0797 44.0035 58.1103C44.0035 58.1356 43.9975 58.1614 43.9854 58.1868C43.9793 58.238 43.943 58.2915 43.8764 58.3475C43.8522 58.3575 43.8249 58.3704 43.7947 58.3857C43.7704 58.401 43.7402 58.414 43.7039 58.424C43.6675 58.434 43.6281 58.4417 43.5858 58.447C43.5495 58.447 43.5132 58.4494 43.4768 58.4546C43.4284 58.4647 43.383 58.4699 43.3406 58.4699C43.3043 58.4699 43.2619 58.4699 43.2135 58.4699H42.8048L40.9886 58.4776V58.5005ZM48.9239 62.4184C48.936 62.4438 48.9421 62.482 48.9421 62.5332C48.9421 62.5791 48.9421 62.6174 48.9421 62.648C48.9421 62.6887 48.933 62.7269 48.9148 62.7628C48.8967 62.7987 48.8724 62.8317 48.8422 62.8623C48.7877 62.9235 48.709 62.9694 48.6061 63C48.4608 63.0407 48.3245 63.0612 48.1974 63.0612C48.1308 63.0665 48.0612 63.0689 47.9885 63.0689C47.9159 63.0689 47.8432 63.0741 47.7706 63.0842H47.7343C47.2681 63.0894 46.7868 63.0894 46.2904 63.0842C46.1693 63.0789 46.0331 63.0789 45.8817 63.0842C45.7304 63.0942 45.5821 63.0918 45.4368 63.0765C45.2915 63.0665 45.1583 63.0383 45.0372 62.9924C44.9221 62.9412 44.8404 62.8623 44.792 62.7551C44.7799 62.7298 44.7708 62.7068 44.7648 62.6863C44.7587 62.6609 44.7557 62.6351 44.7557 62.6097C44.7314 62.4361 44.7224 62.2654 44.7284 62.097C44.7345 61.9287 44.7375 61.7627 44.7375 61.5997L44.7557 60.4901V59.4647C44.7557 59.2811 44.7557 59.118 44.7557 58.975C44.7618 58.832 44.7678 58.6741 44.7738 58.5005V58.4623C44.7799 58.4111 44.7829 58.3604 44.7829 58.3092C44.789 58.2581 44.792 58.2074 44.792 58.1562C44.8041 58.039 44.8374 57.9395 44.8919 57.8577C44.9282 57.7812 44.9918 57.72 45.0826 57.6741C45.1613 57.6282 45.2551 57.6052 45.3641 57.6052C45.4065 57.6052 45.4458 57.6076 45.4822 57.6129C45.5246 57.6129 45.5639 57.6153 45.6002 57.6205C45.6365 57.6258 45.6699 57.6358 45.7001 57.6511C45.7364 57.6664 45.7728 57.687 45.8091 57.7124C45.8454 57.7482 45.8787 57.7913 45.909 57.8424C45.9332 57.8984 45.9483 57.9548 45.9544 58.0108C45.9605 58.0467 45.9665 58.0797 45.9725 58.1103C45.9786 58.1409 45.9816 58.1715 45.9816 58.2021C45.9695 58.2327 45.9635 58.2633 45.9635 58.2939C45.9635 58.3245 45.9635 58.3527 45.9635 58.3781V58.5158L45.9271 62.12L47.7252 62.1353H48.152C48.1883 62.1353 48.2277 62.1377 48.2701 62.143C48.3125 62.143 48.3548 62.1454 48.3972 62.1506C48.4456 62.1559 48.488 62.1607 48.5243 62.1659C48.5607 62.1712 48.597 62.1788 48.6333 62.1889C48.6999 62.2042 48.7544 62.2295 48.7968 62.2654C48.8633 62.3166 48.9057 62.3673 48.9239 62.4184ZM53.8635 62.4184C53.8756 62.4438 53.8817 62.482 53.8817 62.5332C53.8817 62.5791 53.8817 62.6174 53.8817 62.648C53.8817 62.6887 53.8726 62.7269 53.8544 62.7628C53.8362 62.7987 53.8121 62.8317 53.7818 62.8623C53.7273 62.9235 53.6486 62.9694 53.5457 63C53.4004 63.0407 53.2641 63.0612 53.137 63.0612C53.0704 63.0665 53.0008 63.0689 52.9281 63.0689C52.8555 63.0689 52.7828 63.0741 52.7102 63.0842H52.6739C52.2077 63.0894 51.7264 63.0894 51.23 63.0842C51.1089 63.0789 50.9727 63.0789 50.8213 63.0842C50.67 63.0942 50.5217 63.0918 50.3764 63.0765C50.2311 63.0665 50.0979 63.0383 49.9768 62.9924C49.8618 62.9412 49.7801 62.8623 49.7316 62.7551C49.7195 62.7298 49.7104 62.7068 49.7044 62.6863C49.6983 62.6609 49.6953 62.6351 49.6953 62.6097C49.6711 62.4361 49.662 62.2654 49.668 62.097C49.6741 61.9287 49.6771 61.7627 49.6771 61.5997L49.6953 60.4901V59.4647C49.6953 59.2811 49.6953 59.118 49.6953 58.975C49.7013 58.832 49.7074 58.6741 49.7134 58.5005V58.4623C49.7195 58.4111 49.7225 58.3604 49.7225 58.3092C49.7286 58.2581 49.7316 58.2074 49.7316 58.1562C49.7437 58.039 49.777 57.9395 49.8315 57.8577C49.8678 57.7812 49.9314 57.72 50.0222 57.6741C50.1009 57.6282 50.1947 57.6052 50.3037 57.6052C50.3461 57.6052 50.3854 57.6076 50.4218 57.6129C50.4642 57.6129 50.5035 57.6153 50.5398 57.6205C50.5761 57.6258 50.6095 57.6358 50.6397 57.6511C50.676 57.6664 50.7124 57.687 50.7487 57.7124C50.785 57.7482 50.8183 57.7913 50.8486 57.8424C50.8728 57.8984 50.888 57.9548 50.894 58.0108C50.9001 58.0467 50.9061 58.0797 50.9121 58.1103C50.9182 58.1409 50.9212 58.1715 50.9212 58.2021C50.9091 58.2327 50.9031 58.2633 50.9031 58.2939C50.9031 58.3245 50.9031 58.3527 50.9031 58.3781V58.5158L50.8667 62.12L52.6648 62.1353H53.0916C53.1279 62.1353 53.1673 62.1377 53.2097 62.143C53.2521 62.143 53.2944 62.1454 53.3368 62.1506C53.3853 62.1559 53.4276 62.1607 53.4639 62.1659C53.5002 62.1712 53.5366 62.1788 53.5729 62.1889C53.6395 62.2042 53.694 62.2295 53.7364 62.2654C53.803 62.3166 53.8453 62.3673 53.8635 62.4184ZM55.8518 58.5005L55.8336 59.7019H56.1969C56.4451 59.6967 56.666 59.6943 56.8598 59.6943C57.0535 59.6943 57.2684 59.6967 57.5046 59.7019H57.55C57.6226 59.7019 57.6922 59.7043 57.7588 59.7096C57.8315 59.7096 57.9011 59.7096 57.9677 59.7096C58.0403 59.7148 58.1099 59.7249 58.1765 59.7402C58.2431 59.7502 58.3097 59.7631 58.3763 59.7784C58.4792 59.809 58.564 59.855 58.6306 59.9162C58.6911 59.9827 58.7214 60.0563 58.7214 60.1381C58.7214 60.1634 58.7214 60.194 58.7214 60.2299C58.7214 60.2605 58.7153 60.2887 58.7033 60.3141C58.6911 60.37 58.6518 60.4212 58.5852 60.4671C58.5549 60.503 58.4974 60.5284 58.4127 60.5437C58.3339 60.5642 58.2552 60.5767 58.1765 60.5819C58.0918 60.5972 58.007 60.6049 57.9223 60.6049H57.4955L55.8155 60.6125L55.7973 62.1124L57.6044 62.1277H58.0313C58.0797 62.1277 58.1251 62.1277 58.1675 62.1277C58.2098 62.1277 58.2492 62.13 58.2855 62.1353C58.3339 62.1454 58.3763 62.153 58.4127 62.1583C58.455 62.1583 58.4944 62.1635 58.5307 62.1736C58.6034 62.1941 58.6639 62.2219 58.7123 62.2577C58.7728 62.3089 58.8122 62.3625 58.8303 62.4184C58.8364 62.4438 58.8395 62.472 58.8395 62.5026C58.8455 62.528 58.8455 62.5562 58.8395 62.5868C58.8395 62.6686 58.8092 62.7422 58.7487 62.8087C58.676 62.88 58.5912 62.9259 58.4944 62.9464C58.3673 62.9924 58.228 63.0153 58.0767 63.0153C58.01 63.0206 57.9404 63.023 57.8678 63.023C57.7951 63.023 57.7255 63.0254 57.6589 63.0306H57.6044C57.1322 63.0407 56.6418 63.0407 56.1333 63.0306C56.0122 63.0306 55.9154 63.0282 55.8427 63.023C55.7701 63.023 55.7034 63.023 55.6429 63.023C55.5884 63.023 55.5309 63.023 55.4704 63.023C55.4098 63.023 55.3311 63.023 55.2343 63.023C55.095 63.033 54.98 63.0129 54.8892 62.9617C54.8226 62.9259 54.7711 62.8776 54.7348 62.8163C54.7167 62.801 54.7076 62.7857 54.7076 62.7704C54.7015 62.7604 54.6954 62.7527 54.6894 62.7475C54.6833 62.7422 54.6773 62.7346 54.6713 62.7245C54.6591 62.6992 54.65 62.6734 54.644 62.648C54.6379 62.6174 54.6349 62.5892 54.6349 62.5638C54.6289 62.5385 54.6228 62.5127 54.6168 62.4873C54.6168 62.462 54.6137 62.4361 54.6077 62.4108V62.2884C54.6077 62.2678 54.6077 62.2477 54.6077 62.2271C54.6137 62.2066 54.6168 62.1865 54.6168 62.1659V61.569L54.6349 60.4671V59.4494C54.6349 59.2657 54.6349 59.1027 54.6349 58.9597C54.6409 58.8167 54.647 58.6612 54.6531 58.4929V58.4546C54.6591 58.3987 54.6622 58.3475 54.6622 58.3016C54.6682 58.2504 54.6713 58.1997 54.6713 58.1485C54.6773 58.0467 54.7106 57.9472 54.7711 57.8501C54.7953 57.8094 54.8196 57.7736 54.8437 57.743C54.874 57.7124 54.9134 57.687 54.9619 57.6664C55.0527 57.6205 55.1465 57.5976 55.2434 57.5976C55.2918 57.5976 55.3281 57.6 55.3523 57.6052V57.5976C55.4613 57.5976 55.5491 57.5976 55.6157 57.5976C55.6823 57.5976 55.7458 57.5976 55.8064 57.5976C55.873 57.5976 55.9426 57.5976 56.0153 57.5976C56.0879 57.5923 56.1878 57.5899 56.3149 57.5899C56.5571 57.5847 56.7871 57.5823 57.0051 57.5823C57.223 57.5823 57.447 57.5847 57.6771 57.5899H57.7134C57.78 57.5952 57.8496 57.5976 57.9223 57.5976C57.9949 57.5976 58.0645 57.6 58.1311 57.6052C58.1977 57.6052 58.2643 57.6129 58.3309 57.6282C58.3975 57.6382 58.4641 57.6535 58.5307 57.6741C58.6336 57.6994 58.7184 57.743 58.785 57.8042C58.8395 57.8754 58.8667 57.9472 58.8667 58.0184C58.8667 58.0491 58.8667 58.0797 58.8667 58.1103C58.8667 58.1356 58.8606 58.1614 58.8486 58.1868C58.8425 58.238 58.8062 58.2915 58.7396 58.3475C58.7153 58.3575 58.6881 58.3704 58.6578 58.3857C58.6336 58.401 58.6034 58.414 58.567 58.424C58.5307 58.434 58.4913 58.4417 58.449 58.447C58.4127 58.447 58.3763 58.4494 58.34 58.4546C58.2915 58.4647 58.2461 58.4699 58.2038 58.4699C58.1675 58.4699 58.1251 58.4699 58.0767 58.4699H57.668L55.8518 58.4776V58.5005Z" fill="white"/>
</g>
<defs>
<clipPath id="clip0">
<rect width="63" height="55" fill="white" transform="translate(9 11)"/>
</clipPath>
</defs>
</svg>
