<svg width="83" height="118" viewBox="0 0 83 118" fill="none" xmlns="http://www.w3.org/2000/svg">
<path fill-rule="evenodd" clip-rule="evenodd" d="M19.5133 88.5522C19.5133 88.5522 20.7496 95 27.1132 95H55.8866C62.2499 95 63.4862 88.5522 63.4862 88.5522L69.1666 25.3335H13.8333L19.5133 88.5522ZM52.5666 34.8336C52.5666 33.0845 53.8051 31.667 55.3332 31.667C56.8614 31.667 58.1002 33.0845 58.1002 34.8336L55.3332 82.3336C55.3332 84.0827 54.0945 85.5002 52.5666 85.5002C51.0388 85.5002 49.8 84.0823 49.8 82.3336L52.5666 34.8336ZM38.7333 34.8336C38.7333 33.0845 39.9721 31.667 41.4999 31.667C43.0281 31.667 44.2665 33.0845 44.2665 34.8336V82.3336C44.2665 84.0827 43.0281 85.5002 41.4999 85.5002C39.9718 85.5002 38.7333 84.0823 38.7333 82.3336V34.8336ZM27.6666 31.6667C29.1947 31.6667 30.4332 33.0842 30.4332 34.8333L33.2001 82.3333C33.2001 84.0823 31.9613 85.4999 30.4332 85.4999C28.9054 85.4999 27.6666 84.082 27.6666 82.3333L24.9 34.8336C24.9 33.0845 26.1388 31.6667 27.6666 31.6667ZM67.5064 12.6717H55.3332V6.33355C55.3332 1.52934 53.9758 0 49.8 0H33.1998C29.3697 0 27.6666 2.12345 27.6666 6.33355V12.672H15.4934C13.0468 12.672 11.0667 14.7976 11.0667 17.4242C11.0667 20.0512 13.0468 22.1768 15.4934 22.1768H67.5064C69.9531 22.1768 71.9332 20.0512 71.9332 17.4242C71.9332 14.7976 69.9531 12.6717 67.5064 12.6717ZM49.8 12.6717H33.2001L33.2004 6.33319H49.8003V12.6717H49.8Z" fill="#FAFAFA"/>
<path d="M11.818 101.68C12.2233 102.053 12.522 102.501 12.714 103.024C12.906 103.536 12.9807 104.048 12.938 104.56C12.8953 105.051 12.7407 105.504 12.474 105.92C12.2073 106.325 11.802 106.635 11.258 106.848C10.8313 107.029 10.41 107.157 9.994 107.232C9.578 107.307 9.11933 107.365 8.618 107.408C8.394 107.429 8.202 107.445 8.042 107.456C7.89267 107.456 7.71667 107.461 7.514 107.472C7.47133 107.472 7.39667 107.472 7.29 107.472C7.194 107.472 7.12467 107.477 7.082 107.488V110.8C7.05 111.003 7.00733 111.211 6.954 111.424C6.91133 111.637 6.78867 111.803 6.586 111.92C6.46867 111.984 6.32467 112.021 6.154 112.032C5.98333 112.043 5.82867 112.037 5.69 112.016C5.54067 111.995 5.41267 111.957 5.306 111.904C5.21 111.84 5.13 111.733 5.066 111.584C5.02333 111.488 4.98067 111.381 4.938 111.264C4.906 111.136 4.89 110.981 4.89 110.8V101.952C4.89 101.877 4.89533 101.808 4.906 101.744C4.91667 101.68 4.92733 101.616 4.938 101.552C4.95933 101.499 4.97533 101.44 4.986 101.376C4.99667 101.312 5.01267 101.253 5.034 101.2C5.05533 101.147 5.07667 101.099 5.098 101.056C5.13 101.013 5.16733 100.976 5.21 100.944C5.26333 100.891 5.34333 100.843 5.45 100.8C5.56733 100.757 5.738 100.736 5.962 100.736H5.994C6.32467 100.715 6.69267 100.699 7.098 100.688C7.50333 100.667 7.83933 100.672 8.106 100.704C8.25533 100.725 8.394 100.741 8.522 100.752C8.65 100.752 8.77267 100.757 8.89 100.768C9.018 100.779 9.146 100.789 9.274 100.8C9.402 100.811 9.53 100.827 9.658 100.848C9.76467 100.869 9.86067 100.885 9.946 100.896C10.042 100.907 10.138 100.923 10.234 100.944C10.3193 100.965 10.41 100.987 10.506 101.008C10.6127 101.029 10.7087 101.067 10.794 101.12C11.018 101.184 11.2047 101.264 11.354 101.36C11.5033 101.456 11.658 101.563 11.818 101.68ZM10.858 104.32C10.8687 104.064 10.8153 103.84 10.698 103.648C10.5913 103.456 10.4367 103.296 10.234 103.168C10.0313 103.04 9.802 102.939 9.546 102.864C9.29 102.789 9.034 102.736 8.778 102.704C8.714 102.704 8.62333 102.704 8.506 102.704C8.39933 102.693 8.282 102.688 8.154 102.688C8.026 102.677 7.90333 102.672 7.786 102.672C7.67933 102.661 7.594 102.656 7.53 102.656C7.47667 102.645 7.41267 102.64 7.338 102.64C7.26333 102.64 7.178 102.64 7.082 102.64C7.09267 102.971 7.098 103.291 7.098 103.6C7.098 103.899 7.098 104.224 7.098 104.576C7.08733 104.768 7.082 104.96 7.082 105.152C7.082 105.344 7.082 105.531 7.082 105.712L8.074 105.696C8.33 105.696 8.61267 105.68 8.922 105.648C9.23133 105.616 9.52467 105.552 9.802 105.456C10.0793 105.36 10.314 105.221 10.506 105.04C10.7087 104.859 10.826 104.619 10.858 104.32ZM17.0814 101.056C17.796 100.789 18.4414 100.672 19.0174 100.704C19.604 100.736 20.1267 100.885 20.5854 101.152C21.044 101.408 21.4334 101.755 21.7534 102.192C22.084 102.629 22.3507 103.12 22.5534 103.664C22.7134 104.069 22.836 104.496 22.9214 104.944C23.0067 105.392 23.0547 105.84 23.0654 106.288C23.0867 106.725 23.0707 107.157 23.0174 107.584C22.9747 108.011 22.9 108.405 22.7934 108.768C22.7294 109.013 22.6547 109.237 22.5694 109.44C22.484 109.643 22.3827 109.845 22.2654 110.048C21.9987 110.507 21.652 110.88 21.2254 111.168C20.8094 111.456 20.3507 111.659 19.8494 111.776C19.508 111.861 19.156 111.904 18.7934 111.904C18.4307 111.893 18.0734 111.845 17.7214 111.76C17.3694 111.664 17.028 111.531 16.6974 111.36C16.3774 111.179 16.084 110.955 15.8174 110.688C15.4867 110.368 15.2147 110 15.0014 109.584C14.788 109.157 14.6227 108.715 14.5054 108.256C14.388 107.787 14.3134 107.317 14.2814 106.848C14.2494 106.379 14.2494 105.931 14.2814 105.504C14.3134 105.109 14.388 104.688 14.5054 104.24C14.6334 103.792 14.8147 103.36 15.0494 102.944C15.284 102.528 15.5667 102.155 15.8974 101.824C16.2387 101.483 16.6334 101.227 17.0814 101.056ZM20.8254 107.904C20.9534 107.403 21.0067 106.837 20.9854 106.208C20.964 105.579 20.8627 104.987 20.6814 104.432C20.564 104.091 20.4147 103.792 20.2334 103.536C20.0627 103.269 19.8547 103.067 19.6094 102.928C19.3747 102.789 19.0974 102.72 18.7774 102.72C18.4574 102.72 18.1 102.816 17.7054 103.008C17.4707 103.125 17.268 103.285 17.0974 103.488C16.9374 103.691 16.804 103.92 16.6974 104.176C16.6014 104.432 16.5214 104.699 16.4574 104.976C16.404 105.253 16.372 105.52 16.3614 105.776C16.34 106.053 16.3347 106.347 16.3454 106.656C16.356 106.955 16.388 107.259 16.4414 107.568C16.5054 107.867 16.5907 108.155 16.6974 108.432C16.804 108.699 16.948 108.939 17.1294 109.152C17.4067 109.472 17.7267 109.696 18.0894 109.824C18.4627 109.941 18.8307 109.957 19.1934 109.872C19.78 109.744 20.228 109.355 20.5374 108.704C20.6654 108.469 20.7614 108.203 20.8254 107.904ZM33.1104 101.552C33.1744 102.064 33.2117 102.661 33.2224 103.344C33.233 104.016 33.2224 104.699 33.1904 105.392C33.169 106.075 33.121 106.725 33.0464 107.344C32.9717 107.952 32.881 108.443 32.7744 108.816C32.6997 109.04 32.609 109.275 32.5024 109.52C32.4064 109.755 32.2997 109.968 32.1824 110.16C32.0117 110.448 31.8037 110.704 31.5584 110.928C31.313 111.141 31.041 111.328 30.7424 111.488C30.4544 111.637 30.145 111.755 29.8144 111.84C29.4944 111.925 29.1744 111.973 28.8544 111.984C28.289 112.005 27.7504 111.925 27.2384 111.744C26.737 111.552 26.273 111.253 25.8464 110.848C25.5264 110.539 25.2704 110.208 25.0784 109.856C24.8864 109.504 24.737 109.136 24.6304 108.752C24.5237 108.357 24.4544 107.952 24.4224 107.536C24.401 107.12 24.3904 106.693 24.3904 106.256C24.3904 106.053 24.385 105.803 24.3744 105.504C24.3744 105.195 24.3744 104.88 24.3744 104.56C24.3744 104.229 24.3744 103.909 24.3744 103.6C24.3744 103.291 24.3797 103.029 24.3904 102.816C24.3904 102.677 24.3904 102.528 24.3904 102.368C24.3904 102.197 24.3957 102.032 24.4064 101.872C24.4277 101.701 24.4597 101.541 24.5024 101.392C24.545 101.232 24.609 101.088 24.6944 100.96C24.7904 100.821 24.9237 100.72 25.0944 100.656C25.265 100.592 25.441 100.56 25.6224 100.56C25.8144 100.56 25.9957 100.597 26.1664 100.672C26.337 100.747 26.4757 100.853 26.5824 100.992C26.6357 101.077 26.673 101.163 26.6944 101.248C26.7157 101.333 26.7317 101.429 26.7424 101.536C26.7637 101.888 26.7744 102.288 26.7744 102.736C26.785 103.184 26.785 103.621 26.7744 104.048C26.7744 104.464 26.769 104.848 26.7584 105.2C26.7477 105.552 26.7424 105.813 26.7424 105.984C26.7424 106.624 26.7744 107.205 26.8384 107.728C26.9024 108.24 27.0517 108.667 27.2864 109.008C27.4997 109.317 27.7504 109.515 28.0384 109.6C28.3264 109.685 28.6144 109.712 28.9024 109.68C29.169 109.648 29.4357 109.552 29.7024 109.392C29.9797 109.221 30.1984 108.976 30.3584 108.656C30.4224 108.539 30.4757 108.405 30.5184 108.256C30.561 108.107 30.593 107.968 30.6144 107.84C30.657 107.435 30.6944 106.965 30.7264 106.432C30.7584 105.888 30.785 105.333 30.8064 104.768C30.8277 104.203 30.8384 103.648 30.8384 103.104C30.8384 102.56 30.833 102.069 30.8224 101.632C30.8437 101.44 30.9024 101.264 30.9984 101.104C31.0837 100.965 31.2064 100.843 31.3664 100.736C31.5264 100.629 31.745 100.576 32.0224 100.576C32.2464 100.587 32.4277 100.645 32.5664 100.752C32.705 100.848 32.817 100.955 32.9024 101.072C32.9984 101.211 33.0677 101.371 33.1104 101.552ZM40.819 106.096C41.1283 106.299 41.3897 106.539 41.603 106.816C41.827 107.083 42.003 107.413 42.131 107.808C42.2697 108.245 42.339 108.688 42.339 109.136C42.3497 109.573 42.2697 109.984 42.099 110.368C41.939 110.741 41.6777 111.072 41.315 111.36C40.963 111.637 40.499 111.835 39.923 111.952C39.6137 112.027 39.251 112.085 38.835 112.128C38.419 112.171 38.0457 112.192 37.715 112.192C37.299 112.203 36.867 112.203 36.419 112.192C35.9817 112.192 35.555 112.149 35.139 112.064C34.9577 112.011 34.8243 111.92 34.739 111.792C34.6643 111.653 34.611 111.499 34.579 111.328C34.5363 111.232 34.515 111.136 34.515 111.04V101.952C34.515 101.653 34.5737 101.424 34.691 101.264C34.819 101.093 34.9843 100.971 35.187 100.896C35.3897 100.811 35.619 100.763 35.875 100.752C36.131 100.731 36.3977 100.72 36.675 100.72C36.8883 100.72 37.1017 100.72 37.315 100.72C37.539 100.709 37.763 100.709 37.987 100.72C38.339 100.731 38.7017 100.763 39.075 100.816C39.459 100.859 39.8217 100.944 40.163 101.072C40.323 101.125 40.4937 101.2 40.675 101.296C40.8563 101.381 41.0003 101.488 41.107 101.616C41.4483 101.925 41.699 102.288 41.859 102.704C42.0297 103.109 42.1043 103.525 42.083 103.952C42.0617 104.368 41.9443 104.768 41.731 105.152C41.5283 105.536 41.2243 105.851 40.819 106.096ZM38.019 110.336C38.3497 110.315 38.6857 110.277 39.027 110.224C39.3683 110.171 39.603 110.069 39.731 109.92C39.8697 109.749 39.9657 109.552 40.019 109.328C40.083 109.093 40.099 108.859 40.067 108.624C40.0457 108.379 39.9763 108.149 39.859 107.936C39.7523 107.712 39.6083 107.536 39.427 107.408C39.1817 107.216 38.899 107.093 38.579 107.04C38.259 106.976 37.9443 106.944 37.635 106.944C37.4857 106.944 37.347 106.949 37.219 106.96C37.1017 106.96 36.995 106.976 36.899 107.008C36.8137 107.029 36.7497 107.077 36.707 107.152C36.6643 107.227 36.643 107.339 36.643 107.488C36.6643 107.765 36.6643 108.043 36.643 108.32C36.6217 108.597 36.611 108.864 36.611 109.12C36.611 109.269 36.6057 109.435 36.595 109.616C36.595 109.787 36.6537 109.931 36.771 110.048C36.8883 110.165 37.059 110.245 37.283 110.288C37.507 110.331 37.7523 110.347 38.019 110.336ZM38.339 102.656C38.0083 102.645 37.731 102.64 37.507 102.64C37.2937 102.629 37.123 102.645 36.995 102.688C36.8777 102.72 36.7923 102.8 36.739 102.928C36.6963 103.045 36.6803 103.227 36.691 103.472C36.691 103.675 36.6857 103.877 36.675 104.08C36.675 104.272 36.675 104.464 36.675 104.656C36.675 104.869 36.7443 105.029 36.883 105.136C37.0217 105.232 37.1923 105.291 37.395 105.312C37.6083 105.333 37.827 105.333 38.051 105.312C38.2857 105.291 38.4883 105.264 38.659 105.232C39.043 105.168 39.3363 105.04 39.539 104.848C39.7523 104.645 39.875 104.352 39.907 103.968C39.9497 103.488 39.8217 103.157 39.523 102.976C39.235 102.784 38.8403 102.677 38.339 102.656ZM45.6133 102.592L45.5813 105.104H46.2213C46.6586 105.093 47.0479 105.088 47.3893 105.088C47.7306 105.088 48.1093 105.093 48.5253 105.104H48.6053C48.7333 105.104 48.8559 105.109 48.9733 105.12C49.1013 105.12 49.2239 105.12 49.3413 105.12C49.4693 105.131 49.5919 105.152 49.7093 105.184C49.8266 105.205 49.9439 105.232 50.0613 105.264C50.2426 105.328 50.3919 105.424 50.5093 105.552C50.6159 105.691 50.6693 105.845 50.6693 106.016C50.6693 106.069 50.6693 106.133 50.6693 106.208C50.6693 106.272 50.6586 106.331 50.6373 106.384C50.6159 106.501 50.5466 106.608 50.4293 106.704C50.3759 106.779 50.2746 106.832 50.1253 106.864C49.9866 106.907 49.8479 106.933 49.7093 106.944C49.5599 106.976 49.4106 106.992 49.2613 106.992H48.5093L45.5493 107.008L45.5173 110.144L48.7013 110.176H49.4533C49.5386 110.176 49.6186 110.176 49.6933 110.176C49.7679 110.176 49.8373 110.181 49.9013 110.192C49.9866 110.213 50.0613 110.229 50.1253 110.24C50.1999 110.24 50.2693 110.251 50.3333 110.272C50.4613 110.315 50.5679 110.373 50.6533 110.448C50.7599 110.555 50.8293 110.667 50.8612 110.784C50.8719 110.837 50.8773 110.896 50.8773 110.96C50.8879 111.013 50.8879 111.072 50.8773 111.136C50.8773 111.307 50.8239 111.461 50.7173 111.6C50.5893 111.749 50.4399 111.845 50.2693 111.888C50.0453 111.984 49.7999 112.032 49.5333 112.032C49.4159 112.043 49.2933 112.048 49.1653 112.048C49.0373 112.048 48.9146 112.053 48.7973 112.064H48.7013C47.8693 112.085 47.0053 112.085 46.1093 112.064C45.8959 112.064 45.7253 112.059 45.5973 112.048C45.4693 112.048 45.3519 112.048 45.2453 112.048C45.1493 112.048 45.0479 112.048 44.9413 112.048C44.8346 112.048 44.6959 112.048 44.5253 112.048C44.2799 112.069 44.0773 112.027 43.9173 111.92C43.7999 111.845 43.7093 111.744 43.6453 111.616C43.6133 111.584 43.5973 111.552 43.5973 111.52C43.5866 111.499 43.5759 111.483 43.5653 111.472C43.5546 111.461 43.5439 111.445 43.5333 111.424C43.5119 111.371 43.4959 111.317 43.4853 111.264C43.4746 111.2 43.4693 111.141 43.4693 111.088C43.4586 111.035 43.4479 110.981 43.4373 110.928C43.4373 110.875 43.4319 110.821 43.4213 110.768V110.512C43.4213 110.469 43.4213 110.427 43.4213 110.384C43.4319 110.341 43.4373 110.299 43.4373 110.256V109.008L43.4693 106.704V104.576C43.4693 104.192 43.4693 103.851 43.4693 103.552C43.4799 103.253 43.4906 102.928 43.5013 102.576V102.496C43.5119 102.379 43.5173 102.272 43.5173 102.176C43.5279 102.069 43.5333 101.963 43.5333 101.856C43.5439 101.643 43.6026 101.435 43.7093 101.232C43.7519 101.147 43.7946 101.072 43.8372 101.008C43.8906 100.944 43.9599 100.891 44.0453 100.848C44.2053 100.752 44.3706 100.704 44.5413 100.704C44.6266 100.704 44.6906 100.709 44.7333 100.72V100.704C44.9253 100.704 45.0799 100.704 45.1973 100.704C45.3146 100.704 45.4266 100.704 45.5333 100.704C45.6506 100.704 45.7733 100.704 45.9013 100.704C46.0293 100.693 46.2053 100.688 46.4293 100.688C46.8559 100.677 47.2613 100.672 47.6453 100.672C48.0293 100.672 48.4239 100.677 48.8293 100.688H48.8933C49.0106 100.699 49.1333 100.704 49.2613 100.704C49.3893 100.704 49.5119 100.709 49.6293 100.72C49.7466 100.72 49.8639 100.736 49.9813 100.768C50.0986 100.789 50.2159 100.821 50.3333 100.864C50.5146 100.917 50.6639 101.008 50.7812 101.136C50.8773 101.285 50.9253 101.435 50.9253 101.584C50.9253 101.648 50.9253 101.712 50.9253 101.776C50.9253 101.829 50.9146 101.883 50.8933 101.936C50.8826 102.043 50.8186 102.155 50.7013 102.272C50.6586 102.293 50.6106 102.32 50.5573 102.352C50.5146 102.384 50.4613 102.411 50.3973 102.432C50.3333 102.453 50.2639 102.469 50.1893 102.48C50.1253 102.48 50.0613 102.485 49.9973 102.496C49.9119 102.517 49.8319 102.528 49.7573 102.528C49.6933 102.528 49.6186 102.528 49.5333 102.528H48.8133L45.6133 102.544V102.592ZM59.5945 110.784C59.6158 110.837 59.6265 110.917 59.6265 111.024C59.6265 111.12 59.6265 111.2 59.6265 111.264C59.6265 111.349 59.6105 111.429 59.5785 111.504C59.5465 111.579 59.5038 111.648 59.4505 111.712C59.3545 111.84 59.2158 111.936 59.0345 112C58.7785 112.085 58.5385 112.128 58.3145 112.128C58.1972 112.139 58.0745 112.144 57.9465 112.144C57.8185 112.144 57.6905 112.155 57.5625 112.176H57.4985C56.6772 112.187 55.8292 112.187 54.9545 112.176C54.7412 112.165 54.5012 112.165 54.2345 112.176C53.9678 112.197 53.7065 112.192 53.4505 112.16C53.1945 112.139 52.9598 112.08 52.7465 111.984C52.5438 111.877 52.3998 111.712 52.3145 111.488C52.2932 111.435 52.2772 111.387 52.2665 111.344C52.2558 111.291 52.2505 111.237 52.2505 111.184C52.2078 110.821 52.1918 110.464 52.2025 110.112C52.2132 109.76 52.2185 109.413 52.2185 109.072L52.2505 106.752V104.608C52.2505 104.224 52.2505 103.883 52.2505 103.584C52.2612 103.285 52.2718 102.955 52.2825 102.592V102.512C52.2932 102.405 52.2985 102.299 52.2985 102.192C52.3092 102.085 52.3145 101.979 52.3145 101.872C52.3358 101.627 52.3945 101.419 52.4905 101.248C52.5545 101.088 52.6665 100.96 52.8265 100.864C52.9652 100.768 53.1305 100.72 53.3225 100.72C53.3972 100.72 53.4665 100.725 53.5305 100.736C53.6052 100.736 53.6745 100.741 53.7385 100.752C53.8025 100.763 53.8612 100.784 53.9145 100.816C53.9785 100.848 54.0425 100.891 54.1065 100.944C54.1705 101.019 54.2292 101.109 54.2825 101.216C54.3252 101.333 54.3518 101.451 54.3625 101.568C54.3732 101.643 54.3838 101.712 54.3945 101.776C54.4052 101.84 54.4105 101.904 54.4105 101.968C54.3892 102.032 54.3785 102.096 54.3785 102.16C54.3785 102.224 54.3785 102.283 54.3785 102.336V102.624L54.3145 110.16L57.4825 110.192H58.2345C58.2985 110.192 58.3678 110.197 58.4425 110.208C58.5172 110.208 58.5918 110.213 58.6665 110.224C58.7518 110.235 58.8265 110.245 58.8905 110.256C58.9545 110.267 59.0185 110.283 59.0825 110.304C59.1998 110.336 59.2958 110.389 59.3705 110.464C59.4878 110.571 59.5625 110.677 59.5945 110.784ZM68.2976 110.784C68.319 110.837 68.3296 110.917 68.3296 111.024C68.3296 111.12 68.3296 111.2 68.3296 111.264C68.3296 111.349 68.3136 111.429 68.2816 111.504C68.2496 111.579 68.207 111.648 68.1536 111.712C68.0576 111.84 67.919 111.936 67.7376 112C67.4816 112.085 67.2416 112.128 67.0176 112.128C66.9003 112.139 66.7776 112.144 66.6496 112.144C66.5216 112.144 66.3936 112.155 66.2656 112.176H66.2016C65.3803 112.187 64.5323 112.187 63.6576 112.176C63.4443 112.165 63.2043 112.165 62.9376 112.176C62.671 112.197 62.4096 112.192 62.1536 112.16C61.8976 112.139 61.663 112.08 61.4496 111.984C61.247 111.877 61.103 111.712 61.0176 111.488C60.9963 111.435 60.9803 111.387 60.9696 111.344C60.959 111.291 60.9536 111.237 60.9536 111.184C60.911 110.821 60.895 110.464 60.9056 110.112C60.9163 109.76 60.9216 109.413 60.9216 109.072L60.9536 106.752V104.608C60.9536 104.224 60.9536 103.883 60.9536 103.584C60.9643 103.285 60.975 102.955 60.9856 102.592V102.512C60.9963 102.405 61.0016 102.299 61.0016 102.192C61.0123 102.085 61.0176 101.979 61.0176 101.872C61.039 101.627 61.0976 101.419 61.1936 101.248C61.2576 101.088 61.3696 100.96 61.5296 100.864C61.6683 100.768 61.8336 100.72 62.0256 100.72C62.1003 100.72 62.1696 100.725 62.2336 100.736C62.3083 100.736 62.3776 100.741 62.4416 100.752C62.5056 100.763 62.5643 100.784 62.6176 100.816C62.6816 100.848 62.7456 100.891 62.8096 100.944C62.8736 101.019 62.9323 101.109 62.9856 101.216C63.0283 101.333 63.055 101.451 63.0656 101.568C63.0763 101.643 63.087 101.712 63.0976 101.776C63.1083 101.84 63.1136 101.904 63.1136 101.968C63.0923 102.032 63.0816 102.096 63.0816 102.16C63.0816 102.224 63.0816 102.283 63.0816 102.336V102.624L63.0176 110.16L66.1856 110.192H66.9376C67.0016 110.192 67.071 110.197 67.1456 110.208C67.2203 110.208 67.295 110.213 67.3696 110.224C67.455 110.235 67.5296 110.245 67.5936 110.256C67.6576 110.267 67.7216 110.283 67.7856 110.304C67.903 110.336 67.999 110.389 68.0736 110.464C68.191 110.571 68.2656 110.677 68.2976 110.784ZM71.8008 102.592L71.7688 105.104H72.4088C72.8461 105.093 73.2354 105.088 73.5768 105.088C73.9181 105.088 74.2968 105.093 74.7128 105.104H74.7928C74.9208 105.104 75.0434 105.109 75.1608 105.12C75.2888 105.12 75.4114 105.12 75.5288 105.12C75.6568 105.131 75.7794 105.152 75.8968 105.184C76.0141 105.205 76.1314 105.232 76.2488 105.264C76.4301 105.328 76.5794 105.424 76.6968 105.552C76.8034 105.691 76.8568 105.845 76.8568 106.016C76.8568 106.069 76.8568 106.133 76.8568 106.208C76.8568 106.272 76.8461 106.331 76.8248 106.384C76.8034 106.501 76.7341 106.608 76.6168 106.704C76.5634 106.779 76.4621 106.832 76.3128 106.864C76.1741 106.907 76.0354 106.933 75.8968 106.944C75.7474 106.976 75.5981 106.992 75.4488 106.992H74.6968L71.7368 107.008L71.7048 110.144L74.8888 110.176H75.6408C75.7261 110.176 75.8061 110.176 75.8808 110.176C75.9554 110.176 76.0248 110.181 76.0888 110.192C76.1741 110.213 76.2488 110.229 76.3128 110.24C76.3874 110.24 76.4568 110.251 76.5208 110.272C76.6488 110.315 76.7554 110.373 76.8408 110.448C76.9474 110.555 77.0168 110.667 77.0487 110.784C77.0594 110.837 77.0648 110.896 77.0648 110.96C77.0754 111.013 77.0754 111.072 77.0648 111.136C77.0648 111.307 77.0114 111.461 76.9048 111.6C76.7768 111.749 76.6274 111.845 76.4568 111.888C76.2328 111.984 75.9874 112.032 75.7208 112.032C75.6034 112.043 75.4808 112.048 75.3528 112.048C75.2248 112.048 75.1021 112.053 74.9848 112.064H74.8888C74.0568 112.085 73.1928 112.085 72.2968 112.064C72.0834 112.064 71.9128 112.059 71.7848 112.048C71.6568 112.048 71.5394 112.048 71.4328 112.048C71.3368 112.048 71.2354 112.048 71.1288 112.048C71.0221 112.048 70.8834 112.048 70.7128 112.048C70.4674 112.069 70.2648 112.027 70.1048 111.92C69.9874 111.845 69.8968 111.744 69.8328 111.616C69.8008 111.584 69.7848 111.552 69.7848 111.52C69.7741 111.499 69.7634 111.483 69.7528 111.472C69.7421 111.461 69.7314 111.445 69.7208 111.424C69.6994 111.371 69.6834 111.317 69.6728 111.264C69.6621 111.2 69.6568 111.141 69.6568 111.088C69.6461 111.035 69.6354 110.981 69.6248 110.928C69.6248 110.875 69.6194 110.821 69.6088 110.768V110.512C69.6088 110.469 69.6088 110.427 69.6088 110.384C69.6194 110.341 69.6248 110.299 69.6248 110.256V109.008L69.6568 106.704V104.576C69.6568 104.192 69.6568 103.851 69.6568 103.552C69.6674 103.253 69.6781 102.928 69.6888 102.576V102.496C69.6994 102.379 69.7048 102.272 69.7048 102.176C69.7154 102.069 69.7208 101.963 69.7208 101.856C69.7314 101.643 69.7901 101.435 69.8968 101.232C69.9394 101.147 69.9821 101.072 70.0247 101.008C70.0781 100.944 70.1474 100.891 70.2328 100.848C70.3928 100.752 70.5581 100.704 70.7288 100.704C70.8141 100.704 70.8781 100.709 70.9208 100.72V100.704C71.1128 100.704 71.2674 100.704 71.3848 100.704C71.5021 100.704 71.6141 100.704 71.7208 100.704C71.8381 100.704 71.9608 100.704 72.0888 100.704C72.2168 100.693 72.3928 100.688 72.6168 100.688C73.0434 100.677 73.4488 100.672 73.8328 100.672C74.2168 100.672 74.6114 100.677 75.0168 100.688H75.0808C75.1981 100.699 75.3208 100.704 75.4488 100.704C75.5768 100.704 75.6994 100.709 75.8168 100.72C75.9341 100.72 76.0514 100.736 76.1688 100.768C76.2861 100.789 76.4034 100.821 76.5208 100.864C76.7021 100.917 76.8514 101.008 76.9688 101.136C77.0648 101.285 77.1128 101.435 77.1128 101.584C77.1128 101.648 77.1128 101.712 77.1128 101.776C77.1128 101.829 77.1021 101.883 77.0808 101.936C77.0701 102.043 77.0061 102.155 76.8888 102.272C76.8461 102.293 76.7981 102.32 76.7448 102.352C76.7021 102.384 76.6488 102.411 76.5848 102.432C76.5208 102.453 76.4514 102.469 76.3768 102.48C76.3128 102.48 76.2488 102.485 76.1848 102.496C76.0994 102.517 76.0194 102.528 75.9448 102.528C75.8808 102.528 75.8061 102.528 75.7208 102.528H75.0008L71.8008 102.544V102.592Z" fill="#FAFAFA"/>
</svg>
