<svg width="111" height="115" viewBox="0 0 111 115" fill="none" xmlns="http://www.w3.org/2000/svg">
<g clip-path="url(#clip0)">
<path fill-rule="evenodd" clip-rule="evenodd" d="M26.0961 86.3009C26.0961 86.3009 27.7495 92.5847 36.2598 92.5847H74.7399C83.2499 92.5847 84.9032 86.3009 84.9032 86.3009L92.4999 24.6894H18.5L26.0961 86.3009ZM70.2999 33.948C70.2999 32.2434 71.9562 30.8619 73.9998 30.8619C76.0436 30.8619 77.7003 32.2434 77.7003 33.948L73.9998 80.2404C73.9998 81.945 72.3433 83.3265 70.2999 83.3265C68.2567 83.3265 66.6 81.9446 66.6 80.2404L70.2999 33.948ZM51.8 33.948C51.8 32.2434 53.4567 30.8619 55.4999 30.8619C57.5436 30.8619 59.1998 32.2434 59.1998 33.948V80.2404C59.1998 81.945 57.5436 83.3265 55.4999 83.3265C53.4563 83.3265 51.8 81.9446 51.8 80.2404V33.948ZM36.9999 30.8616C39.0435 30.8616 40.6998 32.2431 40.6998 33.9477L44.4001 80.2401C44.4001 81.9446 42.7434 83.3262 40.6998 83.3262C38.6566 83.3262 36.9999 81.9443 36.9999 80.2401L33.3 33.948C33.3 32.2434 34.9567 30.8616 36.9999 30.8616ZM90.2797 12.3495H73.9998V6.17253C73.9998 1.49046 72.1845 0 66.6 0H44.3997C39.2776 0 36.9999 2.06946 36.9999 6.17253V12.3498H20.7201C17.4481 12.3498 14.8 14.4214 14.8 16.9812C14.8 19.5414 17.4481 21.613 20.7201 21.613H90.2797C93.5518 21.613 96.1998 19.5414 96.1998 16.9812C96.1998 14.4214 93.5518 12.3495 90.2797 12.3495ZM66.6 12.3495H44.4001L44.4005 6.17218H66.6004V12.3495H66.6Z" fill="#FAFAFA"/>
<path d="M30.318 104.68C30.7233 105.053 31.022 105.501 31.214 106.024C31.406 106.536 31.4807 107.048 31.438 107.56C31.3953 108.051 31.2407 108.504 30.974 108.92C30.7073 109.325 30.302 109.635 29.758 109.848C29.3313 110.029 28.91 110.157 28.494 110.232C28.078 110.307 27.6193 110.365 27.118 110.408C26.894 110.429 26.702 110.445 26.542 110.456C26.3927 110.456 26.2167 110.461 26.014 110.472C25.9713 110.472 25.8967 110.472 25.79 110.472C25.694 110.472 25.6247 110.477 25.582 110.488V113.8C25.55 114.003 25.5073 114.211 25.454 114.424C25.4113 114.637 25.2887 114.803 25.086 114.92C24.9687 114.984 24.8247 115.021 24.654 115.032C24.4833 115.043 24.3287 115.037 24.19 115.016C24.0407 114.995 23.9127 114.957 23.806 114.904C23.71 114.84 23.63 114.733 23.566 114.584C23.5233 114.488 23.4807 114.381 23.438 114.264C23.406 114.136 23.39 113.981 23.39 113.8V104.952C23.39 104.877 23.3953 104.808 23.406 104.744C23.4167 104.68 23.4273 104.616 23.438 104.552C23.4593 104.499 23.4753 104.44 23.486 104.376C23.4967 104.312 23.5127 104.253 23.534 104.2C23.5553 104.147 23.5767 104.099 23.598 104.056C23.63 104.013 23.6673 103.976 23.71 103.944C23.7633 103.891 23.8433 103.843 23.95 103.8C24.0673 103.757 24.238 103.736 24.462 103.736H24.494C24.8247 103.715 25.1927 103.699 25.598 103.688C26.0033 103.667 26.3393 103.672 26.606 103.704C26.7553 103.725 26.894 103.741 27.022 103.752C27.15 103.752 27.2727 103.757 27.39 103.768C27.518 103.779 27.646 103.789 27.774 103.8C27.902 103.811 28.03 103.827 28.158 103.848C28.2647 103.869 28.3607 103.885 28.446 103.896C28.542 103.907 28.638 103.923 28.734 103.944C28.8193 103.965 28.91 103.987 29.006 104.008C29.1127 104.029 29.2087 104.067 29.294 104.12C29.518 104.184 29.7047 104.264 29.854 104.36C30.0033 104.456 30.158 104.563 30.318 104.68ZM29.358 107.32C29.3687 107.064 29.3153 106.84 29.198 106.648C29.0913 106.456 28.9367 106.296 28.734 106.168C28.5313 106.04 28.302 105.939 28.046 105.864C27.79 105.789 27.534 105.736 27.278 105.704C27.214 105.704 27.1233 105.704 27.006 105.704C26.8993 105.693 26.782 105.688 26.654 105.688C26.526 105.677 26.4033 105.672 26.286 105.672C26.1793 105.661 26.094 105.656 26.03 105.656C25.9767 105.645 25.9127 105.64 25.838 105.64C25.7633 105.64 25.678 105.64 25.582 105.64C25.5927 105.971 25.598 106.291 25.598 106.6C25.598 106.899 25.598 107.224 25.598 107.576C25.5873 107.768 25.582 107.96 25.582 108.152C25.582 108.344 25.582 108.531 25.582 108.712L26.574 108.696C26.83 108.696 27.1127 108.68 27.422 108.648C27.7313 108.616 28.0247 108.552 28.302 108.456C28.5793 108.36 28.814 108.221 29.006 108.04C29.2087 107.859 29.326 107.619 29.358 107.32ZM35.5814 104.056C36.296 103.789 36.9414 103.672 37.5174 103.704C38.104 103.736 38.6267 103.885 39.0854 104.152C39.544 104.408 39.9334 104.755 40.2534 105.192C40.584 105.629 40.8507 106.12 41.0534 106.664C41.2134 107.069 41.336 107.496 41.4214 107.944C41.5067 108.392 41.5547 108.84 41.5654 109.288C41.5867 109.725 41.5707 110.157 41.5174 110.584C41.4747 111.011 41.4 111.405 41.2934 111.768C41.2294 112.013 41.1547 112.237 41.0694 112.44C40.984 112.643 40.8827 112.845 40.7654 113.048C40.4987 113.507 40.152 113.88 39.7254 114.168C39.3094 114.456 38.8507 114.659 38.3494 114.776C38.008 114.861 37.656 114.904 37.2934 114.904C36.9307 114.893 36.5734 114.845 36.2214 114.76C35.8694 114.664 35.528 114.531 35.1974 114.36C34.8774 114.179 34.584 113.955 34.3174 113.688C33.9867 113.368 33.7147 113 33.5014 112.584C33.288 112.157 33.1227 111.715 33.0054 111.256C32.888 110.787 32.8134 110.317 32.7814 109.848C32.7494 109.379 32.7494 108.931 32.7814 108.504C32.8134 108.109 32.888 107.688 33.0054 107.24C33.1334 106.792 33.3147 106.36 33.5494 105.944C33.784 105.528 34.0667 105.155 34.3974 104.824C34.7387 104.483 35.1334 104.227 35.5814 104.056ZM39.3254 110.904C39.4534 110.403 39.5067 109.837 39.4854 109.208C39.464 108.579 39.3627 107.987 39.1814 107.432C39.064 107.091 38.9147 106.792 38.7334 106.536C38.5627 106.269 38.3547 106.067 38.1094 105.928C37.8747 105.789 37.5974 105.72 37.2774 105.72C36.9574 105.72 36.6 105.816 36.2054 106.008C35.9707 106.125 35.768 106.285 35.5974 106.488C35.4374 106.691 35.304 106.92 35.1974 107.176C35.1014 107.432 35.0214 107.699 34.9574 107.976C34.904 108.253 34.872 108.52 34.8614 108.776C34.84 109.053 34.8347 109.347 34.8454 109.656C34.856 109.955 34.888 110.259 34.9414 110.568C35.0054 110.867 35.0907 111.155 35.1974 111.432C35.304 111.699 35.448 111.939 35.6294 112.152C35.9067 112.472 36.2267 112.696 36.5894 112.824C36.9627 112.941 37.3307 112.957 37.6934 112.872C38.28 112.744 38.728 112.355 39.0374 111.704C39.1654 111.469 39.2614 111.203 39.3254 110.904ZM51.6104 104.552C51.6744 105.064 51.7117 105.661 51.7224 106.344C51.733 107.016 51.7224 107.699 51.6904 108.392C51.669 109.075 51.621 109.725 51.5464 110.344C51.4717 110.952 51.381 111.443 51.2744 111.816C51.1997 112.04 51.109 112.275 51.0024 112.52C50.9064 112.755 50.7997 112.968 50.6824 113.16C50.5117 113.448 50.3037 113.704 50.0584 113.928C49.813 114.141 49.541 114.328 49.2424 114.488C48.9544 114.637 48.645 114.755 48.3144 114.84C47.9944 114.925 47.6744 114.973 47.3544 114.984C46.789 115.005 46.2504 114.925 45.7384 114.744C45.237 114.552 44.773 114.253 44.3464 113.848C44.0264 113.539 43.7704 113.208 43.5784 112.856C43.3864 112.504 43.237 112.136 43.1304 111.752C43.0237 111.357 42.9544 110.952 42.9224 110.536C42.901 110.12 42.8904 109.693 42.8904 109.256C42.8904 109.053 42.885 108.803 42.8744 108.504C42.8744 108.195 42.8744 107.88 42.8744 107.56C42.8744 107.229 42.8744 106.909 42.8744 106.6C42.8744 106.291 42.8797 106.029 42.8904 105.816C42.8904 105.677 42.8904 105.528 42.8904 105.368C42.8904 105.197 42.8957 105.032 42.9064 104.872C42.9277 104.701 42.9597 104.541 43.0024 104.392C43.045 104.232 43.109 104.088 43.1944 103.96C43.2904 103.821 43.4237 103.72 43.5944 103.656C43.765 103.592 43.941 103.56 44.1224 103.56C44.3144 103.56 44.4957 103.597 44.6664 103.672C44.837 103.747 44.9757 103.853 45.0824 103.992C45.1357 104.077 45.173 104.163 45.1944 104.248C45.2157 104.333 45.2317 104.429 45.2424 104.536C45.2637 104.888 45.2744 105.288 45.2744 105.736C45.285 106.184 45.285 106.621 45.2744 107.048C45.2744 107.464 45.269 107.848 45.2584 108.2C45.2477 108.552 45.2424 108.813 45.2424 108.984C45.2424 109.624 45.2744 110.205 45.3384 110.728C45.4024 111.24 45.5517 111.667 45.7864 112.008C45.9997 112.317 46.2504 112.515 46.5384 112.6C46.8264 112.685 47.1144 112.712 47.4024 112.68C47.669 112.648 47.9357 112.552 48.2024 112.392C48.4797 112.221 48.6984 111.976 48.8584 111.656C48.9224 111.539 48.9757 111.405 49.0184 111.256C49.061 111.107 49.093 110.968 49.1144 110.84C49.157 110.435 49.1944 109.965 49.2264 109.432C49.2584 108.888 49.285 108.333 49.3064 107.768C49.3277 107.203 49.3384 106.648 49.3384 106.104C49.3384 105.56 49.333 105.069 49.3224 104.632C49.3437 104.44 49.4024 104.264 49.4984 104.104C49.5837 103.965 49.7064 103.843 49.8664 103.736C50.0264 103.629 50.245 103.576 50.5224 103.576C50.7464 103.587 50.9277 103.645 51.0664 103.752C51.205 103.848 51.317 103.955 51.4024 104.072C51.4984 104.211 51.5677 104.371 51.6104 104.552ZM59.319 109.096C59.6283 109.299 59.8897 109.539 60.103 109.816C60.327 110.083 60.503 110.413 60.631 110.808C60.7697 111.245 60.839 111.688 60.839 112.136C60.8497 112.573 60.7697 112.984 60.599 113.368C60.439 113.741 60.1777 114.072 59.815 114.36C59.463 114.637 58.999 114.835 58.423 114.952C58.1137 115.027 57.751 115.085 57.335 115.128C56.919 115.171 56.5457 115.192 56.215 115.192C55.799 115.203 55.367 115.203 54.919 115.192C54.4817 115.192 54.055 115.149 53.639 115.064C53.4577 115.011 53.3243 114.92 53.239 114.792C53.1643 114.653 53.111 114.499 53.079 114.328C53.0363 114.232 53.015 114.136 53.015 114.04V104.952C53.015 104.653 53.0737 104.424 53.191 104.264C53.319 104.093 53.4843 103.971 53.687 103.896C53.8897 103.811 54.119 103.763 54.375 103.752C54.631 103.731 54.8977 103.72 55.175 103.72C55.3883 103.72 55.6017 103.72 55.815 103.72C56.039 103.709 56.263 103.709 56.487 103.72C56.839 103.731 57.2017 103.763 57.575 103.816C57.959 103.859 58.3217 103.944 58.663 104.072C58.823 104.125 58.9937 104.2 59.175 104.296C59.3563 104.381 59.5003 104.488 59.607 104.616C59.9483 104.925 60.199 105.288 60.359 105.704C60.5297 106.109 60.6043 106.525 60.583 106.952C60.5617 107.368 60.4443 107.768 60.231 108.152C60.0283 108.536 59.7243 108.851 59.319 109.096ZM56.519 113.336C56.8497 113.315 57.1857 113.277 57.527 113.224C57.8683 113.171 58.103 113.069 58.231 112.92C58.3697 112.749 58.4657 112.552 58.519 112.328C58.583 112.093 58.599 111.859 58.567 111.624C58.5457 111.379 58.4763 111.149 58.359 110.936C58.2523 110.712 58.1083 110.536 57.927 110.408C57.6817 110.216 57.399 110.093 57.079 110.04C56.759 109.976 56.4443 109.944 56.135 109.944C55.9857 109.944 55.847 109.949 55.719 109.96C55.6017 109.96 55.495 109.976 55.399 110.008C55.3137 110.029 55.2497 110.077 55.207 110.152C55.1643 110.227 55.143 110.339 55.143 110.488C55.1643 110.765 55.1643 111.043 55.143 111.32C55.1217 111.597 55.111 111.864 55.111 112.12C55.111 112.269 55.1057 112.435 55.095 112.616C55.095 112.787 55.1537 112.931 55.271 113.048C55.3883 113.165 55.559 113.245 55.783 113.288C56.007 113.331 56.2523 113.347 56.519 113.336ZM56.839 105.656C56.5083 105.645 56.231 105.64 56.007 105.64C55.7937 105.629 55.623 105.645 55.495 105.688C55.3777 105.72 55.2923 105.8 55.239 105.928C55.1963 106.045 55.1803 106.227 55.191 106.472C55.191 106.675 55.1857 106.877 55.175 107.08C55.175 107.272 55.175 107.464 55.175 107.656C55.175 107.869 55.2443 108.029 55.383 108.136C55.5217 108.232 55.6923 108.291 55.895 108.312C56.1083 108.333 56.327 108.333 56.551 108.312C56.7857 108.291 56.9883 108.264 57.159 108.232C57.543 108.168 57.8363 108.04 58.039 107.848C58.2523 107.645 58.375 107.352 58.407 106.968C58.4497 106.488 58.3217 106.157 58.023 105.976C57.735 105.784 57.3403 105.677 56.839 105.656ZM64.1133 105.592L64.0813 108.104H64.7213C65.1586 108.093 65.5479 108.088 65.8893 108.088C66.2306 108.088 66.6093 108.093 67.0253 108.104H67.1053C67.2333 108.104 67.3559 108.109 67.4733 108.12C67.6013 108.12 67.7239 108.12 67.8413 108.12C67.9693 108.131 68.0919 108.152 68.2093 108.184C68.3266 108.205 68.4439 108.232 68.5613 108.264C68.7426 108.328 68.8919 108.424 69.0093 108.552C69.1159 108.691 69.1693 108.845 69.1693 109.016C69.1693 109.069 69.1693 109.133 69.1693 109.208C69.1693 109.272 69.1586 109.331 69.1373 109.384C69.1159 109.501 69.0466 109.608 68.9293 109.704C68.8759 109.779 68.7746 109.832 68.6253 109.864C68.4866 109.907 68.3479 109.933 68.2093 109.944C68.0599 109.976 67.9106 109.992 67.7613 109.992H67.0093L64.0493 110.008L64.0173 113.144L67.2013 113.176H67.9533C68.0386 113.176 68.1186 113.176 68.1933 113.176C68.2679 113.176 68.3373 113.181 68.4013 113.192C68.4866 113.213 68.5613 113.229 68.6253 113.24C68.6999 113.24 68.7693 113.251 68.8333 113.272C68.9613 113.315 69.0679 113.373 69.1533 113.448C69.2599 113.555 69.3293 113.667 69.3612 113.784C69.3719 113.837 69.3773 113.896 69.3773 113.96C69.3879 114.013 69.3879 114.072 69.3773 114.136C69.3773 114.307 69.3239 114.461 69.2173 114.6C69.0893 114.749 68.9399 114.845 68.7693 114.888C68.5453 114.984 68.2999 115.032 68.0333 115.032C67.9159 115.043 67.7933 115.048 67.6653 115.048C67.5373 115.048 67.4146 115.053 67.2973 115.064H67.2013C66.3693 115.085 65.5053 115.085 64.6093 115.064C64.3959 115.064 64.2253 115.059 64.0973 115.048C63.9693 115.048 63.8519 115.048 63.7453 115.048C63.6493 115.048 63.5479 115.048 63.4413 115.048C63.3346 115.048 63.1959 115.048 63.0253 115.048C62.7799 115.069 62.5773 115.027 62.4173 114.92C62.2999 114.845 62.2093 114.744 62.1453 114.616C62.1133 114.584 62.0973 114.552 62.0973 114.52C62.0866 114.499 62.0759 114.483 62.0653 114.472C62.0546 114.461 62.0439 114.445 62.0333 114.424C62.0119 114.371 61.9959 114.317 61.9853 114.264C61.9746 114.2 61.9693 114.141 61.9693 114.088C61.9586 114.035 61.9479 113.981 61.9373 113.928C61.9373 113.875 61.9319 113.821 61.9213 113.768V113.512C61.9213 113.469 61.9213 113.427 61.9213 113.384C61.9319 113.341 61.9373 113.299 61.9373 113.256V112.008L61.9693 109.704V107.576C61.9693 107.192 61.9693 106.851 61.9693 106.552C61.9799 106.253 61.9906 105.928 62.0013 105.576V105.496C62.0119 105.379 62.0173 105.272 62.0173 105.176C62.0279 105.069 62.0333 104.963 62.0333 104.856C62.0439 104.643 62.1026 104.435 62.2093 104.232C62.2519 104.147 62.2946 104.072 62.3372 104.008C62.3906 103.944 62.4599 103.891 62.5453 103.848C62.7053 103.752 62.8706 103.704 63.0413 103.704C63.1266 103.704 63.1906 103.709 63.2333 103.72V103.704C63.4253 103.704 63.5799 103.704 63.6973 103.704C63.8146 103.704 63.9266 103.704 64.0333 103.704C64.1506 103.704 64.2733 103.704 64.4013 103.704C64.5293 103.693 64.7053 103.688 64.9293 103.688C65.3559 103.677 65.7613 103.672 66.1453 103.672C66.5293 103.672 66.9239 103.677 67.3293 103.688H67.3933C67.5106 103.699 67.6333 103.704 67.7613 103.704C67.8893 103.704 68.0119 103.709 68.1293 103.72C68.2466 103.72 68.3639 103.736 68.4813 103.768C68.5986 103.789 68.7159 103.821 68.8333 103.864C69.0146 103.917 69.1639 104.008 69.2812 104.136C69.3773 104.285 69.4253 104.435 69.4253 104.584C69.4253 104.648 69.4253 104.712 69.4253 104.776C69.4253 104.829 69.4146 104.883 69.3933 104.936C69.3826 105.043 69.3186 105.155 69.2013 105.272C69.1586 105.293 69.1106 105.32 69.0573 105.352C69.0146 105.384 68.9613 105.411 68.8973 105.432C68.8333 105.453 68.7639 105.469 68.6893 105.48C68.6253 105.48 68.5613 105.485 68.4973 105.496C68.4119 105.517 68.3319 105.528 68.2573 105.528C68.1933 105.528 68.1186 105.528 68.0333 105.528H67.3133L64.1133 105.544V105.592ZM78.0945 113.784C78.1158 113.837 78.1265 113.917 78.1265 114.024C78.1265 114.12 78.1265 114.2 78.1265 114.264C78.1265 114.349 78.1105 114.429 78.0785 114.504C78.0465 114.579 78.0038 114.648 77.9505 114.712C77.8545 114.84 77.7158 114.936 77.5345 115C77.2785 115.085 77.0385 115.128 76.8145 115.128C76.6972 115.139 76.5745 115.144 76.4465 115.144C76.3185 115.144 76.1905 115.155 76.0625 115.176H75.9985C75.1772 115.187 74.3292 115.187 73.4545 115.176C73.2412 115.165 73.0012 115.165 72.7345 115.176C72.4678 115.197 72.2065 115.192 71.9505 115.16C71.6945 115.139 71.4598 115.08 71.2465 114.984C71.0438 114.877 70.8998 114.712 70.8145 114.488C70.7932 114.435 70.7772 114.387 70.7665 114.344C70.7558 114.291 70.7505 114.237 70.7505 114.184C70.7078 113.821 70.6918 113.464 70.7025 113.112C70.7132 112.76 70.7185 112.413 70.7185 112.072L70.7505 109.752V107.608C70.7505 107.224 70.7505 106.883 70.7505 106.584C70.7612 106.285 70.7718 105.955 70.7825 105.592V105.512C70.7932 105.405 70.7985 105.299 70.7985 105.192C70.8092 105.085 70.8145 104.979 70.8145 104.872C70.8358 104.627 70.8945 104.419 70.9905 104.248C71.0545 104.088 71.1665 103.96 71.3265 103.864C71.4652 103.768 71.6305 103.72 71.8225 103.72C71.8972 103.72 71.9665 103.725 72.0305 103.736C72.1052 103.736 72.1745 103.741 72.2385 103.752C72.3025 103.763 72.3612 103.784 72.4145 103.816C72.4785 103.848 72.5425 103.891 72.6065 103.944C72.6705 104.019 72.7292 104.109 72.7825 104.216C72.8252 104.333 72.8518 104.451 72.8625 104.568C72.8732 104.643 72.8838 104.712 72.8945 104.776C72.9052 104.84 72.9105 104.904 72.9105 104.968C72.8892 105.032 72.8785 105.096 72.8785 105.16C72.8785 105.224 72.8785 105.283 72.8785 105.336V105.624L72.8145 113.16L75.9825 113.192H76.7345C76.7985 113.192 76.8678 113.197 76.9425 113.208C77.0172 113.208 77.0918 113.213 77.1665 113.224C77.2518 113.235 77.3265 113.245 77.3905 113.256C77.4545 113.267 77.5185 113.283 77.5825 113.304C77.6998 113.336 77.7958 113.389 77.8705 113.464C77.9878 113.571 78.0625 113.677 78.0945 113.784ZM86.7976 113.784C86.819 113.837 86.8296 113.917 86.8296 114.024C86.8296 114.12 86.8296 114.2 86.8296 114.264C86.8296 114.349 86.8136 114.429 86.7816 114.504C86.7496 114.579 86.707 114.648 86.6536 114.712C86.5576 114.84 86.419 114.936 86.2376 115C85.9816 115.085 85.7416 115.128 85.5176 115.128C85.4003 115.139 85.2776 115.144 85.1496 115.144C85.0216 115.144 84.8936 115.155 84.7656 115.176H84.7016C83.8803 115.187 83.0323 115.187 82.1576 115.176C81.9443 115.165 81.7043 115.165 81.4376 115.176C81.171 115.197 80.9096 115.192 80.6536 115.16C80.3976 115.139 80.163 115.08 79.9496 114.984C79.747 114.877 79.603 114.712 79.5176 114.488C79.4963 114.435 79.4803 114.387 79.4696 114.344C79.459 114.291 79.4536 114.237 79.4536 114.184C79.411 113.821 79.395 113.464 79.4056 113.112C79.4163 112.76 79.4216 112.413 79.4216 112.072L79.4536 109.752V107.608C79.4536 107.224 79.4536 106.883 79.4536 106.584C79.4643 106.285 79.475 105.955 79.4856 105.592V105.512C79.4963 105.405 79.5016 105.299 79.5016 105.192C79.5123 105.085 79.5176 104.979 79.5176 104.872C79.539 104.627 79.5976 104.419 79.6936 104.248C79.7576 104.088 79.8696 103.96 80.0296 103.864C80.1683 103.768 80.3336 103.72 80.5256 103.72C80.6003 103.72 80.6696 103.725 80.7336 103.736C80.8083 103.736 80.8776 103.741 80.9416 103.752C81.0056 103.763 81.0643 103.784 81.1176 103.816C81.1816 103.848 81.2456 103.891 81.3096 103.944C81.3736 104.019 81.4323 104.109 81.4856 104.216C81.5283 104.333 81.555 104.451 81.5656 104.568C81.5763 104.643 81.587 104.712 81.5976 104.776C81.6083 104.84 81.6136 104.904 81.6136 104.968C81.5923 105.032 81.5816 105.096 81.5816 105.16C81.5816 105.224 81.5816 105.283 81.5816 105.336V105.624L81.5176 113.16L84.6856 113.192H85.4376C85.5016 113.192 85.571 113.197 85.6456 113.208C85.7203 113.208 85.795 113.213 85.8696 113.224C85.955 113.235 86.0296 113.245 86.0936 113.256C86.1576 113.267 86.2216 113.283 86.2856 113.304C86.403 113.336 86.499 113.389 86.5736 113.464C86.691 113.571 86.7656 113.677 86.7976 113.784ZM90.3008 105.592L90.2688 108.104H90.9088C91.3461 108.093 91.7354 108.088 92.0768 108.088C92.4181 108.088 92.7968 108.093 93.2128 108.104H93.2928C93.4208 108.104 93.5434 108.109 93.6608 108.12C93.7888 108.12 93.9114 108.12 94.0288 108.12C94.1568 108.131 94.2794 108.152 94.3968 108.184C94.5141 108.205 94.6314 108.232 94.7488 108.264C94.9301 108.328 95.0794 108.424 95.1968 108.552C95.3034 108.691 95.3568 108.845 95.3568 109.016C95.3568 109.069 95.3568 109.133 95.3568 109.208C95.3568 109.272 95.3461 109.331 95.3248 109.384C95.3034 109.501 95.2341 109.608 95.1168 109.704C95.0634 109.779 94.9621 109.832 94.8128 109.864C94.6741 109.907 94.5354 109.933 94.3968 109.944C94.2474 109.976 94.0981 109.992 93.9488 109.992H93.1968L90.2368 110.008L90.2048 113.144L93.3888 113.176H94.1408C94.2261 113.176 94.3061 113.176 94.3808 113.176C94.4554 113.176 94.5248 113.181 94.5888 113.192C94.6741 113.213 94.7488 113.229 94.8128 113.24C94.8874 113.24 94.9568 113.251 95.0208 113.272C95.1488 113.315 95.2554 113.373 95.3408 113.448C95.4474 113.555 95.5168 113.667 95.5487 113.784C95.5594 113.837 95.5648 113.896 95.5648 113.96C95.5754 114.013 95.5754 114.072 95.5648 114.136C95.5648 114.307 95.5114 114.461 95.4048 114.6C95.2768 114.749 95.1274 114.845 94.9568 114.888C94.7328 114.984 94.4874 115.032 94.2208 115.032C94.1034 115.043 93.9808 115.048 93.8528 115.048C93.7248 115.048 93.6021 115.053 93.4848 115.064H93.3888C92.5568 115.085 91.6928 115.085 90.7968 115.064C90.5834 115.064 90.4128 115.059 90.2848 115.048C90.1568 115.048 90.0394 115.048 89.9328 115.048C89.8368 115.048 89.7354 115.048 89.6288 115.048C89.5221 115.048 89.3834 115.048 89.2128 115.048C88.9674 115.069 88.7648 115.027 88.6048 114.92C88.4874 114.845 88.3968 114.744 88.3328 114.616C88.3008 114.584 88.2848 114.552 88.2848 114.52C88.2741 114.499 88.2634 114.483 88.2528 114.472C88.2421 114.461 88.2314 114.445 88.2208 114.424C88.1994 114.371 88.1834 114.317 88.1728 114.264C88.1621 114.2 88.1568 114.141 88.1568 114.088C88.1461 114.035 88.1354 113.981 88.1248 113.928C88.1248 113.875 88.1194 113.821 88.1088 113.768V113.512C88.1088 113.469 88.1088 113.427 88.1088 113.384C88.1194 113.341 88.1248 113.299 88.1248 113.256V112.008L88.1568 109.704V107.576C88.1568 107.192 88.1568 106.851 88.1568 106.552C88.1674 106.253 88.1781 105.928 88.1888 105.576V105.496C88.1994 105.379 88.2048 105.272 88.2048 105.176C88.2154 105.069 88.2208 104.963 88.2208 104.856C88.2314 104.643 88.2901 104.435 88.3968 104.232C88.4394 104.147 88.4821 104.072 88.5247 104.008C88.5781 103.944 88.6474 103.891 88.7328 103.848C88.8928 103.752 89.0581 103.704 89.2288 103.704C89.3141 103.704 89.3781 103.709 89.4208 103.72V103.704C89.6128 103.704 89.7674 103.704 89.8848 103.704C90.0021 103.704 90.1141 103.704 90.2208 103.704C90.3381 103.704 90.4608 103.704 90.5888 103.704C90.7168 103.693 90.8928 103.688 91.1168 103.688C91.5434 103.677 91.9488 103.672 92.3328 103.672C92.7168 103.672 93.1114 103.677 93.5168 103.688H93.5808C93.6981 103.699 93.8208 103.704 93.9488 103.704C94.0768 103.704 94.1994 103.709 94.3168 103.72C94.4341 103.72 94.5514 103.736 94.6688 103.768C94.7861 103.789 94.9034 103.821 95.0208 103.864C95.2021 103.917 95.3514 104.008 95.4688 104.136C95.5648 104.285 95.6128 104.435 95.6128 104.584C95.6128 104.648 95.6128 104.712 95.6128 104.776C95.6128 104.829 95.6021 104.883 95.5808 104.936C95.5701 105.043 95.5061 105.155 95.3888 105.272C95.3461 105.293 95.2981 105.32 95.2448 105.352C95.2021 105.384 95.1488 105.411 95.0848 105.432C95.0208 105.453 94.9514 105.469 94.8768 105.48C94.8128 105.48 94.7488 105.485 94.6848 105.496C94.5994 105.517 94.5194 105.528 94.4448 105.528C94.3808 105.528 94.3061 105.528 94.2208 105.528H93.5008L90.3008 105.544V105.592Z" fill="white"/>
</g>
<defs>
<clipPath id="clip0">
<rect width="111" height="115" fill="white"/>
</clipPath>
</defs>
</svg>
