<svg width="111" height="115" viewBox="0 0 111 115" fill="none" xmlns="http://www.w3.org/2000/svg">
<g clip-path="url(#clip0)">
<path d="M22.3018 88.0128L41.2667 67.5522L34.3884 60.1318L15.4248 80.5925C13.5251 82.6414 13.5251 85.9632 15.4248 88.0128C17.3239 90.0617 20.4027 90.0617 22.3018 88.0128Z" fill="#FAFAFA"/>
<path d="M37.8275 56.4211L44.7052 63.8415C49.445 68.9559 57.1591 68.9559 61.8995 63.8415L63.6188 61.9866L39.5468 36.0151L37.8275 37.87C33.0871 42.9845 33.0871 51.3073 37.8275 56.4211Z" fill="#FAFAFA"/>
<path d="M78.79 44.4118C77.5267 44.9597 76.112 44.2731 75.6301 42.9518C75.1292 41.6073 75.7359 40.0803 76.9833 39.5426C82.2304 37.2723 85.4479 36.8036 93.4273 34.5463C91.1616 28.377 87.8789 22.7767 83.8078 17.9437L71.8604 30.8338C70.9099 31.8592 69.3718 31.8592 68.4213 30.8338C67.4714 29.8089 67.4714 28.1488 68.4213 27.1233L80.3686 14.2332C75.8891 9.84089 70.6991 6.29984 64.9803 3.85465C62.9039 12.4002 62.4575 15.9249 60.35 21.5962C59.851 22.9428 58.4357 23.5966 57.1902 23.0568C55.9655 22.5369 55.3284 21.0113 55.8363 19.647C57.7791 14.4088 58.154 11.275 60.3608 2.15551C55.9275 0.780221 51.2624 0 46.4251 0C45.6424 0 44.9085 0.403774 44.4519 1.08903C43.9947 1.7736 43.8706 2.65426 44.1176 3.45292C44.1771 3.64627 49.6394 21.7335 42.834 32.1415L67.2106 58.4414C76.8383 51.1257 93.6205 56.991 93.8016 57.0573C94.5437 57.3217 95.3581 57.1857 95.9926 56.6931C96.6239 56.2005 97.002 55.4087 97.0001 54.5663C97.0001 49.3466 96.2769 44.3135 95.0022 39.5303C86.727 41.8621 83.6773 42.3021 78.79 44.4118Z" fill="#FAFAFA"/>
<path d="M23.7243 101.68C24.1296 102.053 24.4283 102.501 24.6203 103.024C24.8123 103.536 24.8869 104.048 24.8443 104.56C24.8016 105.051 24.6469 105.504 24.3802 105.92C24.1136 106.325 23.7083 106.635 23.1643 106.848C22.7376 107.029 22.3163 107.157 21.9003 107.232C21.4843 107.307 21.0256 107.365 20.5243 107.408C20.3003 107.429 20.1083 107.445 19.9483 107.456C19.7989 107.456 19.6229 107.461 19.4203 107.472C19.3776 107.472 19.3029 107.472 19.1963 107.472C19.1003 107.472 19.0309 107.477 18.9883 107.488V110.8C18.9563 111.003 18.9136 111.211 18.8603 111.424C18.8176 111.637 18.6949 111.803 18.4923 111.92C18.3749 111.984 18.2309 112.021 18.0603 112.032C17.8896 112.043 17.7349 112.037 17.5963 112.016C17.4469 111.995 17.3189 111.957 17.2122 111.904C17.1163 111.84 17.0363 111.733 16.9723 111.584C16.9296 111.488 16.8869 111.381 16.8443 111.264C16.8123 111.136 16.7963 110.981 16.7963 110.8V101.952C16.7963 101.877 16.8016 101.808 16.8123 101.744C16.8229 101.68 16.8336 101.616 16.8443 101.552C16.8656 101.499 16.8816 101.44 16.8923 101.376C16.9029 101.312 16.9189 101.253 16.9403 101.2C16.9616 101.147 16.9829 101.099 17.0043 101.056C17.0363 101.013 17.0736 100.976 17.1163 100.944C17.1696 100.891 17.2496 100.843 17.3563 100.8C17.4736 100.757 17.6443 100.736 17.8683 100.736H17.9003C18.2309 100.715 18.5989 100.699 19.0043 100.688C19.4096 100.667 19.7456 100.672 20.0123 100.704C20.1616 100.725 20.3003 100.741 20.4283 100.752C20.5563 100.752 20.6789 100.757 20.7963 100.768C20.9243 100.779 21.0523 100.789 21.1803 100.8C21.3083 100.811 21.4363 100.827 21.5643 100.848C21.6709 100.869 21.7669 100.885 21.8523 100.896C21.9483 100.907 22.0443 100.923 22.1403 100.944C22.2256 100.965 22.3163 100.987 22.4123 101.008C22.5189 101.029 22.6149 101.067 22.7003 101.12C22.9243 101.184 23.1109 101.264 23.2603 101.36C23.4096 101.456 23.5643 101.563 23.7243 101.68ZM22.7643 104.32C22.7749 104.064 22.7216 103.84 22.6043 103.648C22.4976 103.456 22.3429 103.296 22.1403 103.168C21.9376 103.04 21.7083 102.939 21.4523 102.864C21.1963 102.789 20.9403 102.736 20.6843 102.704C20.6203 102.704 20.5296 102.704 20.4123 102.704C20.3056 102.693 20.1883 102.688 20.0603 102.688C19.9323 102.677 19.8096 102.672 19.6923 102.672C19.5856 102.661 19.5003 102.656 19.4363 102.656C19.3829 102.645 19.3189 102.64 19.2443 102.64C19.1696 102.64 19.0843 102.64 18.9883 102.64C18.9989 102.971 19.0043 103.291 19.0043 103.6C19.0043 103.899 19.0043 104.224 19.0043 104.576C18.9936 104.768 18.9883 104.96 18.9883 105.152C18.9883 105.344 18.9883 105.531 18.9883 105.712L19.9803 105.696C20.2363 105.696 20.5189 105.68 20.8283 105.648C21.1376 105.616 21.4309 105.552 21.7083 105.456C21.9856 105.36 22.2203 105.221 22.4123 105.04C22.6149 104.859 22.7323 104.619 22.7643 104.32ZM28.9876 101.056C29.7023 100.789 30.3476 100.672 30.9236 100.704C31.5103 100.736 32.033 100.885 32.4916 101.152C32.9503 101.408 33.3396 101.755 33.6596 102.192C33.9903 102.629 34.257 103.12 34.4596 103.664C34.6196 104.069 34.7423 104.496 34.8276 104.944C34.913 105.392 34.961 105.84 34.9716 106.288C34.993 106.725 34.977 107.157 34.9236 107.584C34.881 108.011 34.8063 108.405 34.6996 108.768C34.6356 109.013 34.561 109.237 34.4756 109.44C34.3903 109.643 34.289 109.845 34.1716 110.048C33.905 110.507 33.5583 110.88 33.1316 111.168C32.7156 111.456 32.257 111.659 31.7556 111.776C31.4143 111.861 31.0623 111.904 30.6996 111.904C30.337 111.893 29.9796 111.845 29.6276 111.76C29.2756 111.664 28.9343 111.531 28.6036 111.36C28.2836 111.179 27.9903 110.955 27.7236 110.688C27.393 110.368 27.121 110 26.9076 109.584C26.6943 109.157 26.529 108.715 26.4116 108.256C26.2943 107.787 26.2196 107.317 26.1876 106.848C26.1556 106.379 26.1556 105.931 26.1876 105.504C26.2196 105.109 26.2943 104.688 26.4116 104.24C26.5396 103.792 26.721 103.36 26.9556 102.944C27.1903 102.528 27.473 102.155 27.8036 101.824C28.145 101.483 28.5396 101.227 28.9876 101.056ZM32.7316 107.904C32.8596 107.403 32.913 106.837 32.8916 106.208C32.8703 105.579 32.769 104.987 32.5876 104.432C32.4703 104.091 32.321 103.792 32.1396 103.536C31.969 103.269 31.761 103.067 31.5156 102.928C31.281 102.789 31.0036 102.72 30.6836 102.72C30.3636 102.72 30.0063 102.816 29.6116 103.008C29.377 103.125 29.1743 103.285 29.0036 103.488C28.8436 103.691 28.7103 103.92 28.6036 104.176C28.5076 104.432 28.4276 104.699 28.3636 104.976C28.3103 105.253 28.2783 105.52 28.2676 105.776C28.2463 106.053 28.241 106.347 28.2516 106.656C28.2623 106.955 28.2943 107.259 28.3476 107.568C28.4116 107.867 28.497 108.155 28.6036 108.432C28.7103 108.699 28.8543 108.939 29.0356 109.152C29.313 109.472 29.633 109.696 29.9956 109.824C30.369 109.941 30.737 109.957 31.0996 109.872C31.6863 109.744 32.1343 109.355 32.4436 108.704C32.5716 108.469 32.6676 108.203 32.7316 107.904ZM45.0166 101.552C45.0806 102.064 45.118 102.661 45.1286 103.344C45.1393 104.016 45.1286 104.699 45.0966 105.392C45.0753 106.075 45.0273 106.725 44.9526 107.344C44.878 107.952 44.7873 108.443 44.6806 108.816C44.606 109.04 44.5153 109.275 44.4086 109.52C44.3126 109.755 44.206 109.968 44.0886 110.16C43.918 110.448 43.71 110.704 43.4646 110.928C43.2193 111.141 42.9473 111.328 42.6486 111.488C42.3606 111.637 42.0513 111.755 41.7206 111.84C41.4006 111.925 41.0806 111.973 40.7606 111.984C40.1953 112.005 39.6566 111.925 39.1446 111.744C38.6433 111.552 38.1793 111.253 37.7526 110.848C37.4326 110.539 37.1766 110.208 36.9846 109.856C36.7926 109.504 36.6433 109.136 36.5366 108.752C36.43 108.357 36.3606 107.952 36.3286 107.536C36.3073 107.12 36.2966 106.693 36.2966 106.256C36.2966 106.053 36.2913 105.803 36.2806 105.504C36.2806 105.195 36.2806 104.88 36.2806 104.56C36.2806 104.229 36.2806 103.909 36.2806 103.6C36.2806 103.291 36.286 103.029 36.2966 102.816C36.2966 102.677 36.2966 102.528 36.2966 102.368C36.2966 102.197 36.302 102.032 36.3126 101.872C36.334 101.701 36.366 101.541 36.4086 101.392C36.4513 101.232 36.5153 101.088 36.6006 100.96C36.6966 100.821 36.83 100.72 37.0006 100.656C37.1713 100.592 37.3473 100.56 37.5286 100.56C37.7206 100.56 37.902 100.597 38.0726 100.672C38.2433 100.747 38.382 100.853 38.4886 100.992C38.542 101.077 38.5793 101.163 38.6006 101.248C38.622 101.333 38.638 101.429 38.6486 101.536C38.67 101.888 38.6806 102.288 38.6806 102.736C38.6913 103.184 38.6913 103.621 38.6806 104.048C38.6806 104.464 38.6753 104.848 38.6646 105.2C38.654 105.552 38.6486 105.813 38.6486 105.984C38.6486 106.624 38.6806 107.205 38.7446 107.728C38.8086 108.24 38.958 108.667 39.1926 109.008C39.406 109.317 39.6566 109.515 39.9446 109.6C40.2326 109.685 40.5206 109.712 40.8086 109.68C41.0753 109.648 41.342 109.552 41.6086 109.392C41.886 109.221 42.1046 108.976 42.2646 108.656C42.3286 108.539 42.382 108.405 42.4246 108.256C42.4673 108.107 42.4993 107.968 42.5206 107.84C42.5633 107.435 42.6006 106.965 42.6326 106.432C42.6646 105.888 42.6913 105.333 42.7126 104.768C42.734 104.203 42.7446 103.648 42.7446 103.104C42.7446 102.56 42.7393 102.069 42.7286 101.632C42.75 101.44 42.8086 101.264 42.9046 101.104C42.99 100.965 43.1126 100.843 43.2726 100.736C43.4326 100.629 43.6513 100.576 43.9286 100.576C44.1526 100.587 44.334 100.645 44.4726 100.752C44.6113 100.848 44.7233 100.955 44.8086 101.072C44.9046 101.211 44.974 101.371 45.0166 101.552ZM54.7093 107.344C54.7626 107.493 54.7999 107.664 54.8212 107.856C54.8533 108.037 54.8693 108.224 54.8693 108.416C54.8693 108.608 54.8533 108.8 54.8212 108.992C54.7999 109.173 54.7679 109.333 54.7253 109.472C54.5546 110.069 54.2133 110.571 53.7013 110.976C53.1893 111.371 52.6026 111.659 51.9413 111.84C51.2906 112.021 50.6133 112.085 49.9093 112.032C49.2159 111.979 48.5973 111.803 48.0533 111.504C47.7119 111.312 47.4186 111.077 47.1733 110.8C46.9279 110.523 46.7199 110.213 46.5493 109.872C46.4853 109.755 46.4426 109.621 46.4213 109.472C46.4106 109.312 46.4266 109.163 46.4693 109.024C46.5119 108.875 46.5813 108.747 46.6773 108.64C46.7733 108.523 46.9066 108.443 47.0773 108.4C47.1839 108.379 47.3013 108.368 47.4293 108.368C47.5679 108.368 47.7013 108.389 47.8293 108.432C47.9573 108.464 48.0746 108.523 48.1813 108.608C48.2879 108.683 48.3733 108.789 48.4373 108.928C48.5546 109.152 48.7199 109.36 48.9333 109.552C49.1573 109.733 49.3919 109.883 49.6373 110C49.9893 110.117 50.3413 110.165 50.6933 110.144C51.0559 110.123 51.3813 110.043 51.6693 109.904C51.9679 109.765 52.2079 109.579 52.3893 109.344C52.5706 109.099 52.6613 108.821 52.6613 108.512C52.6613 108.256 52.6239 108.048 52.5493 107.888C52.4746 107.717 52.3679 107.579 52.2293 107.472C52.1013 107.355 51.9413 107.259 51.7493 107.184C51.5679 107.109 51.3653 107.045 51.1413 106.992C50.8853 106.939 50.6239 106.901 50.3573 106.88C50.1013 106.859 49.8399 106.832 49.5733 106.8C49.3066 106.768 49.0453 106.725 48.7893 106.672C48.5333 106.619 48.2826 106.539 48.0373 106.432C47.5466 106.229 47.1733 105.92 46.9173 105.504C46.6613 105.088 46.5066 104.64 46.4533 104.16C46.4106 103.68 46.4693 103.205 46.6293 102.736C46.7893 102.256 47.0453 101.845 47.3973 101.504C47.7386 101.195 48.1439 100.976 48.6133 100.848C49.0933 100.709 49.6213 100.629 50.1973 100.608C50.5173 100.597 50.8373 100.608 51.1573 100.64C51.4879 100.672 51.8026 100.725 52.1013 100.8C52.4106 100.875 52.6933 100.971 52.9493 101.088C53.2159 101.205 53.4453 101.344 53.6373 101.504C53.7759 101.611 53.9146 101.755 54.0533 101.936C54.1919 102.107 54.2986 102.293 54.3733 102.496C54.4479 102.688 54.4693 102.875 54.4373 103.056C54.4159 103.237 54.3039 103.392 54.1013 103.52C53.9306 103.627 53.7653 103.675 53.6053 103.664C53.4559 103.643 53.3119 103.595 53.1733 103.52C53.0346 103.435 52.9013 103.339 52.7733 103.232C52.6453 103.125 52.5279 103.029 52.4213 102.944C52.1333 102.731 51.7759 102.587 51.3493 102.512C50.9226 102.437 50.5226 102.421 50.1493 102.464C49.9146 102.496 49.6959 102.549 49.4933 102.624C49.2906 102.699 49.1146 102.8 48.9653 102.928C48.8266 103.056 48.7146 103.216 48.6293 103.408C48.5546 103.589 48.5279 103.797 48.5493 104.032C48.5599 104.203 48.6079 104.347 48.6933 104.464C48.7893 104.581 48.9013 104.677 49.0293 104.752C49.1679 104.827 49.3173 104.885 49.4773 104.928C49.6373 104.971 49.7973 105.003 49.9573 105.024C50.4373 105.088 50.9173 105.136 51.3973 105.168C51.8773 105.2 52.3466 105.307 52.8053 105.488C53.2746 105.669 53.6746 105.915 54.0052 106.224C54.3359 106.533 54.5706 106.907 54.7093 107.344ZM64.4436 107.344C64.497 107.493 64.5343 107.664 64.5556 107.856C64.5876 108.037 64.6036 108.224 64.6036 108.416C64.6036 108.608 64.5876 108.8 64.5556 108.992C64.5343 109.173 64.5023 109.333 64.4596 109.472C64.289 110.069 63.9476 110.571 63.4356 110.976C62.9236 111.371 62.337 111.659 61.6756 111.84C61.025 112.021 60.3476 112.085 59.6436 112.032C58.9503 111.979 58.3316 111.803 57.7876 111.504C57.4463 111.312 57.153 111.077 56.9076 110.8C56.6623 110.523 56.4543 110.213 56.2836 109.872C56.2196 109.755 56.177 109.621 56.1556 109.472C56.145 109.312 56.161 109.163 56.2036 109.024C56.2463 108.875 56.3156 108.747 56.4116 108.64C56.5076 108.523 56.641 108.443 56.8116 108.4C56.9183 108.379 57.0356 108.368 57.1636 108.368C57.3023 108.368 57.4356 108.389 57.5636 108.432C57.6916 108.464 57.809 108.523 57.9156 108.608C58.0223 108.683 58.1076 108.789 58.1716 108.928C58.289 109.152 58.4543 109.36 58.6676 109.552C58.8916 109.733 59.1263 109.883 59.3716 110C59.7236 110.117 60.0756 110.165 60.4276 110.144C60.7903 110.123 61.1156 110.043 61.4036 109.904C61.7023 109.765 61.9423 109.579 62.1236 109.344C62.305 109.099 62.3956 108.821 62.3956 108.512C62.3956 108.256 62.3583 108.048 62.2836 107.888C62.209 107.717 62.1023 107.579 61.9636 107.472C61.8356 107.355 61.6756 107.259 61.4836 107.184C61.3023 107.109 61.0996 107.045 60.8756 106.992C60.6196 106.939 60.3583 106.901 60.0916 106.88C59.8356 106.859 59.5743 106.832 59.3076 106.8C59.041 106.768 58.7796 106.725 58.5236 106.672C58.2676 106.619 58.017 106.539 57.7716 106.432C57.281 106.229 56.9076 105.92 56.6516 105.504C56.3956 105.088 56.241 104.64 56.1876 104.16C56.145 103.68 56.2036 103.205 56.3636 102.736C56.5236 102.256 56.7796 101.845 57.1316 101.504C57.473 101.195 57.8783 100.976 58.3476 100.848C58.8276 100.709 59.3556 100.629 59.9316 100.608C60.2516 100.597 60.5716 100.608 60.8916 100.64C61.2223 100.672 61.537 100.725 61.8356 100.8C62.145 100.875 62.4276 100.971 62.6836 101.088C62.9503 101.205 63.1796 101.344 63.3716 101.504C63.5103 101.611 63.649 101.755 63.7876 101.936C63.9263 102.107 64.033 102.293 64.1076 102.496C64.1823 102.688 64.2036 102.875 64.1716 103.056C64.1503 103.237 64.0383 103.392 63.8356 103.52C63.665 103.627 63.4996 103.675 63.3396 103.664C63.1903 103.643 63.0463 103.595 62.9076 103.52C62.769 103.435 62.6356 103.339 62.5076 103.232C62.3796 103.125 62.2623 103.029 62.1556 102.944C61.8676 102.731 61.5103 102.587 61.0836 102.512C60.657 102.437 60.257 102.421 59.8836 102.464C59.649 102.496 59.4303 102.549 59.2276 102.624C59.025 102.699 58.849 102.8 58.6996 102.928C58.561 103.056 58.449 103.216 58.3636 103.408C58.289 103.589 58.2623 103.797 58.2836 104.032C58.2943 104.203 58.3423 104.347 58.4276 104.464C58.5236 104.581 58.6356 104.677 58.7636 104.752C58.9023 104.827 59.0516 104.885 59.2116 104.928C59.3716 104.971 59.5316 105.003 59.6916 105.024C60.1716 105.088 60.6516 105.136 61.1316 105.168C61.6116 105.2 62.081 105.307 62.5396 105.488C63.009 105.669 63.409 105.915 63.7396 106.224C64.0703 106.533 64.305 106.907 64.4436 107.344ZM66.386 110.304L66.402 109.04L66.418 106.688C66.4287 106.347 66.434 105.995 66.434 105.632C66.434 105.269 66.434 104.896 66.434 104.512C66.434 104.128 66.434 103.787 66.434 103.488C66.434 103.189 66.4447 102.853 66.466 102.48V102.416C66.4767 102.309 66.482 102.203 66.482 102.096C66.4927 101.979 66.498 101.861 66.498 101.744C66.5087 101.552 66.5673 101.344 66.674 101.12C66.7487 100.971 66.8607 100.843 67.01 100.736C67.1807 100.651 67.346 100.608 67.506 100.608C67.5913 100.608 67.666 100.613 67.73 100.624C67.8047 100.624 67.874 100.629 67.938 100.64C68.0767 100.661 68.1993 100.725 68.306 100.832C68.37 100.885 68.4287 100.971 68.482 101.088C68.5033 101.152 68.5193 101.216 68.53 101.28C68.5513 101.333 68.5673 101.392 68.578 101.456C68.5887 101.531 68.594 101.6 68.594 101.664C68.6047 101.728 68.61 101.792 68.61 101.856C68.61 101.931 68.6047 102 68.594 102.064C68.594 102.117 68.594 102.176 68.594 102.24V102.512L68.498 110.816V110.976C68.498 111.008 68.4927 111.051 68.482 111.104C68.482 111.147 68.4767 111.2 68.466 111.264C68.4447 111.317 68.4233 111.376 68.402 111.44C68.3913 111.493 68.3753 111.552 68.354 111.616C68.322 111.669 68.2847 111.723 68.242 111.776C68.21 111.819 68.1673 111.861 68.114 111.904C68.0287 111.989 67.89 112.048 67.698 112.08C67.41 112.144 67.138 112.117 66.882 112C66.754 111.915 66.6633 111.808 66.61 111.68C66.578 111.648 66.562 111.616 66.562 111.584C66.5513 111.563 66.5407 111.547 66.53 111.536C66.5193 111.525 66.5087 111.509 66.498 111.488C66.4767 111.435 66.4607 111.381 66.45 111.328C66.4393 111.264 66.434 111.2 66.434 111.136C66.4233 111.083 66.4127 111.029 66.402 110.976C66.402 110.923 66.3967 110.869 66.386 110.816C66.3753 110.731 66.3753 110.64 66.386 110.544V110.304ZM72.5664 102.592L72.5344 105.104H73.1744C73.6117 105.093 74.001 105.088 74.3424 105.088C74.6837 105.088 75.0624 105.093 75.4784 105.104H75.5584C75.6864 105.104 75.809 105.109 75.9264 105.12C76.0544 105.12 76.177 105.12 76.2944 105.12C76.4224 105.131 76.545 105.152 76.6624 105.184C76.7797 105.205 76.897 105.232 77.0144 105.264C77.1957 105.328 77.345 105.424 77.4624 105.552C77.569 105.691 77.6224 105.845 77.6224 106.016C77.6224 106.069 77.6224 106.133 77.6224 106.208C77.6224 106.272 77.6117 106.331 77.5904 106.384C77.569 106.501 77.4997 106.608 77.3824 106.704C77.329 106.779 77.2277 106.832 77.0784 106.864C76.9397 106.907 76.801 106.933 76.6624 106.944C76.513 106.976 76.3637 106.992 76.2144 106.992H75.4624L72.5024 107.008L72.4704 110.144L75.6544 110.176H76.4064C76.4917 110.176 76.5717 110.176 76.6464 110.176C76.721 110.176 76.7904 110.181 76.8544 110.192C76.9397 110.213 77.0144 110.229 77.0784 110.24C77.153 110.24 77.2224 110.251 77.2864 110.272C77.4144 110.315 77.521 110.373 77.6064 110.448C77.713 110.555 77.7824 110.667 77.8144 110.784C77.825 110.837 77.8304 110.896 77.8304 110.96C77.841 111.013 77.841 111.072 77.8304 111.136C77.8304 111.307 77.777 111.461 77.6704 111.6C77.5424 111.749 77.393 111.845 77.2224 111.888C76.9984 111.984 76.753 112.032 76.4864 112.032C76.369 112.043 76.2464 112.048 76.1184 112.048C75.9904 112.048 75.8677 112.053 75.7504 112.064H75.6544C74.8224 112.085 73.9584 112.085 73.0624 112.064C72.849 112.064 72.6784 112.059 72.5504 112.048C72.4224 112.048 72.305 112.048 72.1984 112.048C72.1024 112.048 72.001 112.048 71.8944 112.048C71.7877 112.048 71.649 112.048 71.4784 112.048C71.233 112.069 71.0304 112.027 70.8704 111.92C70.753 111.845 70.6624 111.744 70.5984 111.616C70.5664 111.584 70.5504 111.552 70.5504 111.52C70.5397 111.499 70.529 111.483 70.5184 111.472C70.5077 111.461 70.497 111.445 70.4864 111.424C70.465 111.371 70.449 111.317 70.4384 111.264C70.4277 111.2 70.4224 111.141 70.4224 111.088C70.4117 111.035 70.401 110.981 70.3904 110.928C70.3904 110.875 70.385 110.821 70.3744 110.768V110.512C70.3744 110.469 70.3744 110.427 70.3744 110.384C70.385 110.341 70.3904 110.299 70.3904 110.256V109.008L70.4224 106.704V104.576C70.4224 104.192 70.4224 103.851 70.4224 103.552C70.433 103.253 70.4437 102.928 70.4544 102.576V102.496C70.465 102.379 70.4704 102.272 70.4704 102.176C70.481 102.069 70.4864 101.963 70.4864 101.856C70.497 101.643 70.5557 101.435 70.6624 101.232C70.705 101.147 70.7477 101.072 70.7904 101.008C70.8437 100.944 70.913 100.891 70.9984 100.848C71.1584 100.752 71.3237 100.704 71.4944 100.704C71.5797 100.704 71.6437 100.709 71.6864 100.72V100.704C71.8784 100.704 72.033 100.704 72.1504 100.704C72.2677 100.704 72.3797 100.704 72.4864 100.704C72.6037 100.704 72.7264 100.704 72.8544 100.704C72.9824 100.693 73.1584 100.688 73.3824 100.688C73.809 100.677 74.2144 100.672 74.5984 100.672C74.9824 100.672 75.377 100.677 75.7824 100.688H75.8464C75.9637 100.699 76.0864 100.704 76.2144 100.704C76.3424 100.704 76.465 100.709 76.5824 100.72C76.6997 100.72 76.817 100.736 76.9344 100.768C77.0517 100.789 77.169 100.821 77.2864 100.864C77.4677 100.917 77.617 101.008 77.7344 101.136C77.8304 101.285 77.8784 101.435 77.8784 101.584C77.8784 101.648 77.8784 101.712 77.8784 101.776C77.8784 101.829 77.8677 101.883 77.8464 101.936C77.8357 102.043 77.7717 102.155 77.6544 102.272C77.6117 102.293 77.5637 102.32 77.5104 102.352C77.4677 102.384 77.4144 102.411 77.3504 102.432C77.2864 102.453 77.217 102.469 77.1424 102.48C77.0784 102.48 77.0144 102.485 76.9504 102.496C76.865 102.517 76.785 102.528 76.7104 102.528C76.6464 102.528 76.5717 102.528 76.4864 102.528H75.7664L72.5664 102.544V102.592ZM87.4116 111.296C87.4223 111.403 87.4116 111.504 87.3796 111.6C87.3583 111.664 87.3263 111.717 87.2836 111.76C87.2516 111.803 87.209 111.845 87.1556 111.888C87.0596 111.952 86.9423 112.011 86.8036 112.064C86.7183 112.085 86.633 112.101 86.5476 112.112C86.473 112.133 86.393 112.133 86.3076 112.112C86.137 112.101 85.9876 112.037 85.8596 111.92C85.6783 111.771 85.529 111.605 85.4116 111.424C85.3583 111.339 85.2996 111.243 85.2356 111.136C85.1716 111.029 85.113 110.917 85.0596 110.8L83.2836 107.424C83.1983 107.424 83.113 107.429 83.0276 107.44C82.9423 107.44 82.857 107.445 82.7716 107.456C82.5476 107.477 82.3343 107.483 82.1316 107.472C81.9396 107.461 81.737 107.461 81.5236 107.472H81.2196V110.368C81.2196 110.453 81.2143 110.533 81.2036 110.608C81.2036 110.683 81.2036 110.763 81.2036 110.848C81.2036 110.901 81.1983 110.971 81.1876 111.056C81.1876 111.141 81.1823 111.221 81.1716 111.296C81.1503 111.413 81.1023 111.536 81.0276 111.664C80.953 111.781 80.8516 111.883 80.7236 111.968C80.4996 112.107 80.2276 112.144 79.9076 112.08C79.769 112.048 79.6356 111.995 79.5076 111.92C79.465 111.888 79.4276 111.851 79.3956 111.808C79.3636 111.755 79.337 111.701 79.3156 111.648C79.2943 111.595 79.273 111.541 79.2516 111.488C79.241 111.424 79.225 111.365 79.2036 111.312C79.1716 111.205 79.1556 111.104 79.1556 111.008V101.92C79.1556 101.856 79.1556 101.792 79.1556 101.728C79.1663 101.653 79.177 101.589 79.1876 101.536C79.1983 101.419 79.2356 101.301 79.2996 101.184C79.3316 101.056 79.385 100.965 79.4596 100.912C79.5236 100.848 79.6196 100.795 79.7476 100.752C79.8863 100.699 80.0836 100.677 80.3396 100.688C80.8196 100.699 81.2943 100.704 81.7636 100.704C82.233 100.704 82.7023 100.715 83.1716 100.736C83.481 100.757 83.8063 100.795 84.1476 100.848C84.4996 100.891 84.825 100.971 85.1236 101.088C85.3156 101.163 85.4916 101.237 85.6516 101.312C85.8543 101.429 86.0143 101.541 86.1316 101.648C86.505 101.989 86.7876 102.4 86.9796 102.88C87.1716 103.36 87.2676 103.845 87.2676 104.336C87.2676 104.912 87.129 105.44 86.8516 105.92C86.585 106.4 86.153 106.757 85.5556 106.992C85.5343 107.013 85.5023 107.029 85.4596 107.04C85.4276 107.04 85.401 107.045 85.3796 107.056L86.8516 110.016L86.9956 110.272C87.017 110.315 87.0436 110.363 87.0756 110.416C87.1076 110.469 87.1343 110.523 87.1556 110.576C87.1876 110.629 87.2143 110.688 87.2356 110.752C87.2676 110.816 87.2996 110.875 87.3316 110.928C87.3636 111.077 87.3903 111.2 87.4116 111.296ZM83.4116 105.6C83.6036 105.6 83.785 105.568 83.9556 105.504C84.137 105.429 84.297 105.333 84.4356 105.216C84.585 105.099 84.7076 104.965 84.8036 104.816C84.8996 104.656 84.953 104.485 84.9636 104.304C85.0063 103.771 84.8676 103.376 84.5476 103.12C84.2276 102.853 83.8063 102.709 83.2836 102.688C82.9743 102.667 82.633 102.656 82.2596 102.656C81.897 102.656 81.5503 102.656 81.2196 102.656C81.2303 103.093 81.2303 103.541 81.2196 104C81.2196 104.448 81.2196 104.981 81.2196 105.6H83.4116ZM90.8945 102.592L90.8625 105.104H91.5025C91.9398 105.093 92.3292 105.088 92.6705 105.088C93.0118 105.088 93.3905 105.093 93.8065 105.104H93.8865C94.0145 105.104 94.1372 105.109 94.2545 105.12C94.3825 105.12 94.5052 105.12 94.6225 105.12C94.7505 105.131 94.8732 105.152 94.9905 105.184C95.1078 105.205 95.2252 105.232 95.3425 105.264C95.5238 105.328 95.6732 105.424 95.7905 105.552C95.8972 105.691 95.9505 105.845 95.9505 106.016C95.9505 106.069 95.9505 106.133 95.9505 106.208C95.9505 106.272 95.9398 106.331 95.9185 106.384C95.8972 106.501 95.8278 106.608 95.7105 106.704C95.6572 106.779 95.5558 106.832 95.4065 106.864C95.2678 106.907 95.1292 106.933 94.9905 106.944C94.8412 106.976 94.6918 106.992 94.5425 106.992H93.7905L90.8305 107.008L90.7985 110.144L93.9825 110.176H94.7345C94.8198 110.176 94.8998 110.176 94.9745 110.176C95.0492 110.176 95.1185 110.181 95.1825 110.192C95.2678 110.213 95.3425 110.229 95.4065 110.24C95.4812 110.24 95.5505 110.251 95.6145 110.272C95.7425 110.315 95.8492 110.373 95.9345 110.448C96.0412 110.555 96.1105 110.667 96.1425 110.784C96.1532 110.837 96.1585 110.896 96.1585 110.96C96.1692 111.013 96.1692 111.072 96.1585 111.136C96.1585 111.307 96.1052 111.461 95.9985 111.6C95.8705 111.749 95.7212 111.845 95.5505 111.888C95.3265 111.984 95.0812 112.032 94.8145 112.032C94.6972 112.043 94.5745 112.048 94.4465 112.048C94.3185 112.048 94.1958 112.053 94.0785 112.064H93.9825C93.1505 112.085 92.2865 112.085 91.3905 112.064C91.1772 112.064 91.0065 112.059 90.8785 112.048C90.7505 112.048 90.6332 112.048 90.5265 112.048C90.4305 112.048 90.3292 112.048 90.2225 112.048C90.1158 112.048 89.9772 112.048 89.8065 112.048C89.5612 112.069 89.3585 112.027 89.1985 111.92C89.0812 111.845 88.9905 111.744 88.9265 111.616C88.8945 111.584 88.8785 111.552 88.8785 111.52C88.8678 111.499 88.8572 111.483 88.8465 111.472C88.8358 111.461 88.8252 111.445 88.8145 111.424C88.7932 111.371 88.7772 111.317 88.7665 111.264C88.7558 111.2 88.7505 111.141 88.7505 111.088C88.7398 111.035 88.7292 110.981 88.7185 110.928C88.7185 110.875 88.7132 110.821 88.7025 110.768V110.512C88.7025 110.469 88.7025 110.427 88.7025 110.384C88.7132 110.341 88.7185 110.299 88.7185 110.256V109.008L88.7505 106.704V104.576C88.7505 104.192 88.7505 103.851 88.7505 103.552C88.7612 103.253 88.7718 102.928 88.7825 102.576V102.496C88.7932 102.379 88.7985 102.272 88.7985 102.176C88.8092 102.069 88.8145 101.963 88.8145 101.856C88.8252 101.643 88.8838 101.435 88.9905 101.232C89.0332 101.147 89.0758 101.072 89.1185 101.008C89.1718 100.944 89.2412 100.891 89.3265 100.848C89.4865 100.752 89.6518 100.704 89.8225 100.704C89.9078 100.704 89.9718 100.709 90.0145 100.72V100.704C90.2065 100.704 90.3612 100.704 90.4785 100.704C90.5958 100.704 90.7078 100.704 90.8145 100.704C90.9318 100.704 91.0545 100.704 91.1825 100.704C91.3105 100.693 91.4865 100.688 91.7105 100.688C92.1372 100.677 92.5425 100.672 92.9265 100.672C93.3105 100.672 93.7052 100.677 94.1105 100.688H94.1745C94.2918 100.699 94.4145 100.704 94.5425 100.704C94.6705 100.704 94.7932 100.709 94.9105 100.72C95.0278 100.72 95.1452 100.736 95.2625 100.768C95.3798 100.789 95.4972 100.821 95.6145 100.864C95.7958 100.917 95.9452 101.008 96.0625 101.136C96.1585 101.285 96.2065 101.435 96.2065 101.584C96.2065 101.648 96.2065 101.712 96.2065 101.776C96.2065 101.829 96.1958 101.883 96.1745 101.936C96.1638 102.043 96.0998 102.155 95.9825 102.272C95.9398 102.293 95.8918 102.32 95.8385 102.352C95.7958 102.384 95.7425 102.411 95.6785 102.432C95.6145 102.453 95.5452 102.469 95.4705 102.48C95.4065 102.48 95.3425 102.485 95.2785 102.496C95.1932 102.517 95.1132 102.528 95.0385 102.528C94.9745 102.528 94.8998 102.528 94.8145 102.528H94.0945L90.8945 102.544V102.592Z" fill="white"/>
</g>
<defs>
<clipPath id="clip0">
<rect width="111" height="115" fill="white"/>
</clipPath>
</defs>
</svg>
