<svg width="75" height="75" viewBox="0 0 75 75" fill="none" xmlns="http://www.w3.org/2000/svg">
<path d="M18.6578 51.0931L29.4216 41.3076L25.5177 37.7587L14.7546 47.5442C13.6764 48.5242 13.6764 50.1128 14.7546 51.0931C15.8325 52.073 17.5799 52.073 18.6578 51.0931Z" fill="#FAFAFA"/>
<path d="M27.4697 35.984L31.3732 39.5329C34.0634 41.9789 38.4417 41.9789 41.1321 39.5329L42.108 38.6458L28.4455 26.2246L27.4697 27.1117C24.7792 29.5578 24.7792 33.5383 27.4697 35.984Z" fill="#FAFAFA"/>
<path d="M50.7187 30.2404C50.0016 30.5025 49.1987 30.1741 48.9252 29.5422C48.6409 28.8991 48.9852 28.1688 49.6932 27.9117C52.6713 26.8259 54.4975 26.6017 59.0263 25.5221C57.7404 22.5716 55.8772 19.8932 53.5666 17.5818L46.7856 23.7466C46.2462 24.237 45.3732 24.237 44.8337 23.7466C44.2946 23.2564 44.2946 22.4625 44.8337 21.972L51.6146 15.8072C49.0722 13.7065 46.1265 12.013 42.8807 10.8435C41.7022 14.9305 41.4489 16.6163 40.2527 19.3286C39.9695 19.9726 39.1662 20.2853 38.4593 20.0272C37.7642 19.7785 37.4026 19.0489 37.6909 18.3964C38.7935 15.8912 39.0063 14.3924 40.2588 10.0309C37.7426 9.37315 35.0949 9 32.3494 9C31.9051 9 31.4886 9.19311 31.2295 9.52084C30.97 9.84824 30.8995 10.2694 31.0397 10.6514C31.0735 10.7439 34.1737 19.3943 30.3112 24.372L44.1466 36.9502C49.6109 33.4514 59.136 36.2566 59.2387 36.2883C59.6599 36.4147 60.1222 36.3497 60.4823 36.1141C60.8406 35.8785 61.0552 35.4998 61.0541 35.0969C61.0541 32.6005 60.6436 30.1934 59.9202 27.9058C55.2234 29.021 53.4925 29.2314 50.7187 30.2404Z" fill="#FAFAFA"/>
<path d="M19.4651 57.6296C19.6952 57.808 19.8647 58.0222 19.9737 58.2724C20.0827 58.5172 20.125 58.7621 20.1008 59.007C20.0766 59.2418 19.9888 59.4584 19.8374 59.6574C19.6861 59.8511 19.4561 59.9994 19.1473 60.1012C18.9051 60.1878 18.666 60.249 18.4299 60.2849C18.1938 60.3207 17.9334 60.3485 17.6489 60.369C17.5218 60.3791 17.4128 60.3867 17.322 60.392C17.2372 60.392 17.1373 60.3944 17.0223 60.3997C16.9981 60.3997 16.9557 60.3997 16.8952 60.3997C16.8407 60.3997 16.8013 60.402 16.7771 60.4073V61.9913C16.759 62.0884 16.7347 62.1879 16.7045 62.2897C16.6803 62.3916 16.6106 62.471 16.4956 62.527C16.429 62.5576 16.3473 62.5753 16.2504 62.5805C16.1536 62.5858 16.0658 62.5829 15.9871 62.5729C15.9023 62.5628 15.8296 62.5447 15.7691 62.5193C15.7147 62.4887 15.6693 62.4375 15.6329 62.3663C15.6087 62.3203 15.5845 62.2692 15.5603 62.2132C15.5421 62.152 15.533 62.0779 15.533 61.9913V57.7597C15.533 57.7238 15.536 57.6908 15.5421 57.6602C15.5481 57.6296 15.5542 57.599 15.5603 57.5684C15.5724 57.543 15.5814 57.5148 15.5875 57.4842C15.5935 57.4536 15.6026 57.4254 15.6148 57.4C15.6269 57.3747 15.6389 57.3517 15.6511 57.3311C15.6693 57.3106 15.6904 57.2929 15.7147 57.2776C15.7449 57.2522 15.7903 57.2293 15.8509 57.2087C15.9174 57.1881 16.0143 57.1781 16.1415 57.1781H16.1596C16.3473 57.168 16.5561 57.1604 16.7862 57.1551C17.0163 57.1451 17.207 57.1475 17.3583 57.1628C17.4431 57.1728 17.5218 57.1805 17.5944 57.1857C17.6671 57.1857 17.7367 57.1881 17.8033 57.1934C17.876 57.1987 17.9486 57.2034 18.0213 57.2087C18.0939 57.214 18.1665 57.2216 18.2392 57.2317C18.2997 57.2417 18.3542 57.2494 18.4027 57.2546C18.4571 57.2599 18.5116 57.2675 18.5661 57.2776C18.6145 57.2876 18.666 57.2981 18.7205 57.3082C18.781 57.3182 18.8355 57.3364 18.884 57.3617C19.0111 57.3924 19.117 57.4306 19.2018 57.4765C19.2865 57.5224 19.3743 57.5736 19.4651 57.6296ZM18.9203 58.8922C18.9263 58.7697 18.896 58.6626 18.8295 58.5708C18.7689 58.479 18.6811 58.4024 18.5661 58.3412C18.4511 58.28 18.3209 58.2317 18.1756 58.1958C18.0303 58.16 17.885 58.1346 17.7397 58.1193C17.7034 58.1193 17.6519 58.1193 17.5854 58.1193C17.5248 58.114 17.4582 58.1117 17.3856 58.1117C17.3129 58.1064 17.2433 58.104 17.1767 58.104C17.1162 58.0987 17.0677 58.0964 17.0314 58.0964C17.0011 58.0911 16.9648 58.0887 16.9224 58.0887C16.88 58.0887 16.8316 58.0887 16.7771 58.0887C16.7832 58.247 16.7862 58.4 16.7862 58.5478C16.7862 58.6908 16.7862 58.8463 16.7862 59.0146C16.7802 59.1064 16.7771 59.1983 16.7771 59.2901C16.7771 59.3819 16.7771 59.4714 16.7771 59.5579L17.3402 59.5503C17.4855 59.5503 17.6459 59.5426 17.8215 59.5273C17.997 59.512 18.1635 59.4814 18.3209 59.4355C18.4783 59.3896 18.6115 59.3231 18.7205 59.2365C18.8355 59.15 18.9021 59.0352 18.9203 58.8922ZM22.4524 57.3311C22.8581 57.2034 23.2243 57.1475 23.5512 57.1628C23.8842 57.1781 24.1809 57.2494 24.4412 57.377C24.7015 57.4995 24.9225 57.6654 25.1041 57.8744C25.2918 58.0834 25.4432 58.3183 25.5582 58.5784C25.649 58.7721 25.7186 58.9764 25.767 59.1906C25.8155 59.4049 25.8427 59.6191 25.8487 59.8334C25.8609 60.0424 25.8518 60.249 25.8215 60.4532C25.7973 60.6574 25.7549 60.8459 25.6944 61.0195C25.658 61.1367 25.6157 61.2438 25.5672 61.3409C25.5188 61.438 25.4613 61.5346 25.3947 61.6317C25.2434 61.8512 25.0466 62.0296 24.8044 62.1673C24.5683 62.305 24.308 62.4021 24.0234 62.4581C23.8297 62.4987 23.63 62.5193 23.4241 62.5193C23.2183 62.514 23.0154 62.4911 22.8157 62.4504C22.6159 62.4045 22.4222 62.3409 22.2345 62.2591C22.0529 62.1726 21.8864 62.0654 21.735 61.9377C21.5474 61.7847 21.393 61.6087 21.2719 61.4097C21.1508 61.2055 21.057 60.9941 20.9904 60.7746C20.9238 60.5503 20.8814 60.3255 20.8632 60.1012C20.8451 59.8769 20.8451 59.6627 20.8632 59.4584C20.8814 59.2695 20.9238 59.0682 20.9904 58.8539C21.063 58.6397 21.166 58.433 21.2991 58.2341C21.4323 58.0351 21.5928 57.8567 21.7804 57.6984C21.9742 57.5354 22.1982 57.4129 22.4524 57.3311ZM24.5774 60.6063C24.65 60.3667 24.6804 60.096 24.6682 59.7951C24.6561 59.4943 24.5986 59.2112 24.4957 58.9457C24.4291 58.7827 24.3444 58.6397 24.2414 58.5172C24.1446 58.3895 24.0265 58.2929 23.8872 58.2264C23.7541 58.16 23.5966 58.127 23.415 58.127C23.2334 58.127 23.0306 58.1729 22.8066 58.2647C22.6734 58.3207 22.5584 58.3972 22.4615 58.4943C22.3707 58.5914 22.295 58.7009 22.2345 58.8233C22.18 58.9457 22.1346 59.0734 22.0983 59.2059C22.068 59.3384 22.0498 59.4661 22.0438 59.5885C22.0317 59.721 22.0287 59.8616 22.0347 60.0094C22.0408 60.1524 22.0589 60.2978 22.0892 60.4456C22.1255 60.5886 22.174 60.7263 22.2345 60.8588C22.295 60.9865 22.3768 61.1013 22.4797 61.2031C22.6371 61.3562 22.8187 61.4633 23.0245 61.5245C23.2365 61.5805 23.4453 61.5881 23.6511 61.5475C23.9841 61.4863 24.2384 61.3002 24.4139 60.9889C24.4866 60.8765 24.5411 60.7493 24.5774 60.6063ZM31.55 57.5684C31.5863 57.8132 31.6075 58.0987 31.6135 58.4254C31.6196 58.7468 31.6135 59.0734 31.5954 59.4049C31.5833 59.7315 31.556 60.0424 31.5136 60.3384C31.4713 60.6292 31.4198 60.864 31.3593 61.0424C31.3169 61.1496 31.2654 61.262 31.2049 61.3791C31.1504 61.4915 31.0899 61.5934 31.0233 61.6852C30.9264 61.823 30.8084 61.9454 30.6691 62.0525C30.5299 62.1544 30.3755 62.2438 30.206 62.3203C30.0425 62.3916 29.867 62.448 29.6793 62.4887C29.4976 62.5293 29.316 62.5523 29.1344 62.5576C28.8136 62.5676 28.5078 62.5294 28.2172 62.4428C27.9327 62.351 27.6693 62.208 27.4272 62.0143C27.2455 61.8665 27.1002 61.7082 26.9913 61.5398C26.8823 61.3715 26.7975 61.1955 26.737 61.0118C26.6765 60.8229 26.6371 60.6292 26.6189 60.4303C26.6068 60.2313 26.6008 60.0271 26.6008 59.8181C26.6008 59.721 26.5978 59.6014 26.5917 59.4584C26.5917 59.3107 26.5917 59.16 26.5917 59.007C26.5917 58.8487 26.5917 58.6956 26.5917 58.5478C26.5917 58.4 26.5948 58.2747 26.6008 58.1729C26.6008 58.1064 26.6008 58.0351 26.6008 57.9586C26.6008 57.8768 26.6038 57.7979 26.6099 57.7214C26.622 57.6396 26.6402 57.5631 26.6643 57.4918C26.6886 57.4153 26.7249 57.3464 26.7733 57.2852C26.8278 57.2187 26.9035 57.1704 27.0003 57.1398C27.0972 57.1092 27.1971 57.0939 27.3 57.0939C27.409 57.0939 27.5119 57.1116 27.6088 57.1475C27.7057 57.1834 27.7844 57.234 27.8449 57.3005C27.8752 57.3412 27.8964 57.3823 27.9085 57.423C27.9206 57.4636 27.9297 57.5095 27.9357 57.5607C27.9478 57.7291 27.9539 57.9204 27.9539 58.1346C27.9599 58.3489 27.9599 58.5579 27.9539 58.7621C27.9539 58.961 27.9508 59.1447 27.9448 59.313C27.9388 59.4814 27.9357 59.6062 27.9357 59.688C27.9357 59.9941 27.9539 60.272 27.9902 60.5221C28.0265 60.767 28.1113 60.9712 28.2445 61.1343C28.3656 61.282 28.5078 61.3767 28.6713 61.4174C28.8347 61.458 28.9982 61.471 29.1616 61.4557C29.313 61.4404 29.4644 61.3944 29.6157 61.3179C29.7731 61.2361 29.8972 61.119 29.988 60.9659C30.0243 60.91 30.0546 60.8459 30.0788 60.7746C30.1031 60.7033 30.1212 60.6369 30.1333 60.5757C30.1575 60.382 30.1787 60.1572 30.1969 59.9023C30.215 59.6421 30.2302 59.3767 30.2423 59.1064C30.2544 58.8362 30.2604 58.5708 30.2604 58.3106C30.2604 58.0504 30.2574 57.8156 30.2514 57.6066C30.2635 57.5148 30.2968 57.4306 30.3513 57.3541C30.3997 57.2876 30.4693 57.2293 30.5601 57.1781C30.6509 57.1269 30.7751 57.1016 30.9325 57.1016C31.0596 57.1068 31.1625 57.1346 31.2412 57.1857C31.3199 57.2317 31.3835 57.2828 31.4319 57.3388C31.4864 57.4053 31.5258 57.4818 31.55 57.5684ZM37.0512 60.3384C37.0815 60.4097 37.1027 60.4915 37.1147 60.5833C37.133 60.6699 37.142 60.7593 37.142 60.8511C37.142 60.943 37.133 61.0348 37.1147 61.1266C37.1027 61.2132 37.0845 61.2897 37.0603 61.3562C36.9634 61.6417 36.7697 61.8818 36.4791 62.0755C36.1885 62.2644 35.8555 62.4021 35.4802 62.4887C35.1109 62.5753 34.7265 62.6059 34.3269 62.5805C33.9334 62.5552 33.5823 62.471 33.2735 62.328C33.0797 62.2362 32.9133 62.1238 32.774 61.9913C32.6348 61.8588 32.5167 61.7106 32.4199 61.5475C32.3836 61.4915 32.3593 61.4274 32.3472 61.3562C32.3412 61.2797 32.3502 61.2084 32.3745 61.1419C32.3986 61.0707 32.438 61.0094 32.4925 60.9583C32.547 60.9023 32.6227 60.864 32.7196 60.8435C32.7801 60.8334 32.8467 60.8282 32.9193 60.8282C32.998 60.8282 33.0737 60.8382 33.1464 60.8588C33.219 60.8741 33.2856 60.9023 33.3461 60.943C33.4066 60.9788 33.4551 61.0295 33.4914 61.096C33.558 61.2031 33.6518 61.3026 33.773 61.3944C33.9001 61.481 34.0332 61.5527 34.1725 61.6087C34.3723 61.6647 34.5721 61.6876 34.7719 61.6776C34.9777 61.6675 35.1624 61.6293 35.3258 61.5628C35.4953 61.4963 35.6315 61.4074 35.7345 61.295C35.8374 61.1778 35.8888 61.0448 35.8888 60.897C35.8888 60.7746 35.8676 60.6751 35.8253 60.5986C35.7829 60.5168 35.7223 60.4508 35.6437 60.3997C35.571 60.3437 35.4802 60.2978 35.3712 60.2619C35.2683 60.226 35.1533 60.1954 35.0261 60.1701C34.8808 60.1447 34.7325 60.1266 34.5812 60.1165C34.4359 60.1065 34.2875 60.0936 34.1362 60.0783C33.9848 60.063 33.8365 60.0424 33.6912 60.017C33.5459 59.9917 33.4036 59.9534 33.2644 59.9023C32.9859 59.8052 32.774 59.6574 32.6287 59.4584C32.4834 59.2595 32.3956 59.0452 32.3654 58.8157C32.3412 58.5861 32.3745 58.3589 32.4653 58.1346C32.5561 57.905 32.7014 57.7085 32.9012 57.5454C33.0949 57.3976 33.3249 57.2929 33.5913 57.2317C33.8638 57.1652 34.1634 57.1269 34.4904 57.1169C34.672 57.1116 34.8536 57.1169 35.0352 57.1322C35.2229 57.1475 35.4015 57.1728 35.571 57.2087C35.7466 57.2446 35.907 57.2905 36.0523 57.3464C36.2036 57.4024 36.3338 57.4689 36.4428 57.5454C36.5215 57.5966 36.6002 57.6654 36.6789 57.752C36.7576 57.8338 36.8181 57.9227 36.8605 58.0198C36.9029 58.1117 36.915 58.2011 36.8968 58.2877C36.8847 58.3742 36.8211 58.4484 36.7061 58.5096C36.6093 58.5607 36.5154 58.5837 36.4246 58.5784C36.3398 58.5684 36.2581 58.5454 36.1794 58.5096C36.1007 58.4689 36.0251 58.423 35.9524 58.3718C35.8798 58.3207 35.8131 58.2747 35.7526 58.2341C35.5892 58.1322 35.3863 58.0634 35.1442 58.0275C34.902 57.9916 34.675 57.984 34.4631 58.0045C34.3299 58.0198 34.2058 58.0452 34.0908 58.081C33.9757 58.1169 33.8759 58.1652 33.7911 58.2264C33.7124 58.2877 33.6488 58.3642 33.6004 58.456C33.558 58.5426 33.5429 58.642 33.555 58.7544C33.561 58.8362 33.5883 58.9051 33.6367 58.961C33.6912 59.017 33.7548 59.0629 33.8274 59.0988C33.9061 59.1347 33.9909 59.1624 34.0817 59.183C34.1725 59.2035 34.2633 59.2188 34.3541 59.2289C34.6266 59.2595 34.899 59.2824 35.1714 59.2977C35.4439 59.313 35.7102 59.3642 35.9706 59.4508C36.2369 59.5374 36.464 59.655 36.6516 59.8028C36.8393 59.9506 36.9725 60.1294 37.0512 60.3384ZM42.5761 60.3384C42.6064 60.4097 42.6276 60.4915 42.6397 60.5833C42.6578 60.6699 42.6669 60.7593 42.6669 60.8511C42.6669 60.943 42.6578 61.0348 42.6397 61.1266C42.6276 61.2132 42.6094 61.2897 42.5852 61.3562C42.4884 61.6417 42.2946 61.8818 42.004 62.0755C41.7134 62.2644 41.3805 62.4021 41.0051 62.4887C40.6358 62.5753 40.2513 62.6059 39.8518 62.5805C39.4583 62.5552 39.1071 62.471 38.7984 62.328C38.6047 62.2362 38.4382 62.1238 38.2989 61.9913C38.1597 61.8588 38.0416 61.7106 37.9447 61.5475C37.9084 61.4915 37.8842 61.4274 37.8721 61.3562C37.8661 61.2797 37.8752 61.2084 37.8993 61.1419C37.9236 61.0707 37.9629 61.0094 38.0174 60.9583C38.0719 60.9023 38.1476 60.864 38.2444 60.8435C38.305 60.8334 38.3716 60.8282 38.4442 60.8282C38.5229 60.8282 38.5986 60.8382 38.6712 60.8588C38.7439 60.8741 38.8105 60.9023 38.871 60.943C38.9316 60.9788 38.98 61.0295 39.0163 61.096C39.0829 61.2031 39.1768 61.3026 39.2978 61.3944C39.425 61.481 39.5582 61.5527 39.6974 61.6087C39.8972 61.6647 40.097 61.6876 40.2968 61.6776C40.5026 61.6675 40.6872 61.6293 40.8507 61.5628C41.0202 61.4963 41.1564 61.4074 41.2593 61.295C41.3623 61.1778 41.4137 61.0448 41.4137 60.897C41.4137 60.7746 41.3926 60.6751 41.3502 60.5986C41.3078 60.5168 41.2473 60.4508 41.1685 60.3997C41.0959 60.3437 41.0051 60.2978 40.8961 60.2619C40.7932 60.226 40.6782 60.1954 40.551 60.1701C40.4057 60.1447 40.2574 60.1266 40.106 60.1165C39.9607 60.1065 39.8124 60.0936 39.6611 60.0783C39.5098 60.063 39.3614 60.0424 39.2161 60.017C39.0708 59.9917 38.9286 59.9534 38.7893 59.9023C38.5108 59.8052 38.2989 59.6574 38.1536 59.4584C38.0083 59.2595 37.9206 59.0452 37.8903 58.8157C37.8661 58.5861 37.8993 58.3589 37.9902 58.1346C38.081 57.905 38.2263 57.7085 38.426 57.5454C38.6198 57.3976 38.8498 57.2929 39.1162 57.2317C39.3886 57.1652 39.6883 57.1269 40.0152 57.1169C40.1969 57.1116 40.3785 57.1169 40.5601 57.1322C40.7478 57.1475 40.9264 57.1728 41.0959 57.2087C41.2715 57.2446 41.4319 57.2905 41.5772 57.3464C41.7286 57.4024 41.8587 57.4689 41.9677 57.5454C42.0464 57.5966 42.1251 57.6654 42.2038 57.752C42.2825 57.8338 42.3431 57.9227 42.3854 58.0198C42.4278 58.1117 42.4399 58.2011 42.4217 58.2877C42.4096 58.3742 42.3461 58.4484 42.231 58.5096C42.1342 58.5607 42.0403 58.5837 41.9495 58.5784C41.8648 58.5684 41.783 58.5454 41.7043 58.5096C41.6257 58.4689 41.5499 58.423 41.4773 58.3718C41.4046 58.3207 41.3381 58.2747 41.2775 58.2341C41.114 58.1322 40.9113 58.0634 40.6691 58.0275C40.4269 57.9916 40.1999 57.984 39.988 58.0045C39.8548 58.0198 39.7307 58.0452 39.6157 58.081C39.5007 58.1169 39.4008 58.1652 39.316 58.2264C39.2373 58.2877 39.1738 58.3642 39.1253 58.456C39.0829 58.5426 39.0678 58.642 39.0799 58.7544C39.086 58.8362 39.1132 58.9051 39.1616 58.961C39.2161 59.017 39.2797 59.0629 39.3523 59.0988C39.431 59.1347 39.5158 59.1624 39.6066 59.183C39.6974 59.2035 39.7882 59.2188 39.879 59.2289C40.1515 59.2595 40.4239 59.2824 40.6963 59.2977C40.9687 59.313 41.2352 59.3642 41.4955 59.4508C41.7619 59.5374 41.9889 59.655 42.1765 59.8028C42.3642 59.9506 42.4974 60.1294 42.5761 60.3384ZM43.6785 61.7541L43.6876 61.1496L43.6967 60.0247C43.7028 59.8616 43.7058 59.6933 43.7058 59.5197C43.7058 59.346 43.7058 59.1677 43.7058 58.984C43.7058 58.8004 43.7058 58.6373 43.7058 58.4943C43.7058 58.3513 43.7119 58.1906 43.724 58.0122V57.9816C43.73 57.9304 43.733 57.8797 43.733 57.8285C43.7391 57.7726 43.7421 57.7161 43.7421 57.6602C43.7482 57.5684 43.7814 57.4689 43.842 57.3617C43.8844 57.2905 43.948 57.2293 44.0327 57.1781C44.1296 57.1374 44.2234 57.1169 44.3142 57.1169C44.3626 57.1169 44.405 57.1193 44.4414 57.1245C44.4838 57.1245 44.5231 57.1269 44.5594 57.1322C44.6381 57.1422 44.7077 57.1728 44.7683 57.224C44.8046 57.2494 44.8379 57.2905 44.8682 57.3464C44.8803 57.377 44.8893 57.4077 44.8954 57.4383C44.9075 57.4636 44.9166 57.4918 44.9227 57.5224C44.9287 57.5583 44.9317 57.5913 44.9317 57.6219C44.9378 57.6525 44.9408 57.6831 44.9408 57.7137C44.9408 57.7496 44.9378 57.7826 44.9317 57.8132C44.9317 57.8386 44.9317 57.8668 44.9317 57.8974V58.0275L44.8772 61.999V62.0755C44.8772 62.0908 44.8742 62.1113 44.8682 62.1367C44.8682 62.1573 44.8652 62.1826 44.8591 62.2132C44.847 62.2386 44.8348 62.2668 44.8228 62.2974C44.8167 62.3227 44.8076 62.351 44.7955 62.3816C44.7774 62.4069 44.7562 62.4327 44.7319 62.4581C44.7138 62.4787 44.6896 62.4987 44.6593 62.5193C44.6109 62.56 44.5322 62.5882 44.4232 62.6035C44.2597 62.6341 44.1054 62.6212 43.9601 62.5652C43.8874 62.5246 43.8359 62.4734 43.8057 62.4122C43.7875 62.3969 43.7784 62.3816 43.7784 62.3663C43.7724 62.3562 43.7663 62.3486 43.7603 62.3433C43.7542 62.338 43.7482 62.3304 43.7421 62.3203C43.73 62.295 43.7209 62.2692 43.7149 62.2438C43.7088 62.2132 43.7058 62.1826 43.7058 62.152C43.6997 62.1267 43.6937 62.1008 43.6876 62.0755C43.6876 62.0501 43.6846 62.0243 43.6785 61.999C43.6725 61.9583 43.6725 61.9148 43.6785 61.8689V61.7541ZM47.1863 58.0657L47.1682 59.2671H47.5314C47.7796 59.2619 48.0006 59.2595 48.1943 59.2595C48.388 59.2595 48.603 59.2619 48.8391 59.2671H48.8845C48.9572 59.2671 49.0267 59.2695 49.0934 59.2748C49.166 59.2748 49.2356 59.2748 49.3022 59.2748C49.3749 59.28 49.4445 59.2901 49.5111 59.3054C49.5777 59.3154 49.6442 59.3284 49.7109 59.3437C49.8138 59.3743 49.8985 59.4202 49.9652 59.4814C50.0257 59.5479 50.056 59.6215 50.056 59.7033C50.056 59.7287 50.056 59.7593 50.056 59.7951C50.056 59.8257 50.0499 59.854 50.0378 59.8793C50.0257 59.9353 49.9863 59.9864 49.9197 60.0324C49.8894 60.0682 49.8319 60.0936 49.7472 60.1089C49.6685 60.1294 49.5898 60.1419 49.5111 60.1471C49.4263 60.1624 49.3416 60.1701 49.2568 60.1701H48.83L47.15 60.1777L47.1319 61.6776L48.939 61.6929H49.3658C49.4142 61.6929 49.4596 61.6929 49.502 61.6929C49.5444 61.6929 49.5837 61.6953 49.6201 61.7005C49.6685 61.7106 49.7109 61.7182 49.7472 61.7235C49.7895 61.7235 49.8289 61.7287 49.8653 61.7388C49.9379 61.7594 49.9984 61.7871 50.0469 61.823C50.1074 61.8741 50.1468 61.9277 50.1649 61.9837C50.1709 62.009 50.174 62.0372 50.174 62.0678C50.18 62.0932 50.18 62.1214 50.174 62.152C50.174 62.2338 50.1437 62.3074 50.0832 62.3739C50.0106 62.4452 49.9258 62.4911 49.8289 62.5117C49.7018 62.5576 49.5625 62.5805 49.4112 62.5805C49.3446 62.5858 49.275 62.5882 49.2023 62.5882C49.1297 62.5882 49.06 62.5906 48.9935 62.5958H48.939C48.4668 62.6059 47.9764 62.6059 47.4679 62.5958C47.3467 62.5958 47.2499 62.5934 47.1773 62.5882C47.1046 62.5882 47.038 62.5882 46.9775 62.5882C46.923 62.5882 46.8654 62.5882 46.8049 62.5882C46.7444 62.5882 46.6657 62.5882 46.5688 62.5882C46.4295 62.5982 46.3146 62.5781 46.2237 62.527C46.1571 62.4911 46.1057 62.4428 46.0694 62.3816C46.0512 62.3663 46.0421 62.351 46.0421 62.3357C46.036 62.3256 46.03 62.318 46.024 62.3127C46.0179 62.3074 46.0118 62.2998 46.0058 62.2897C45.9936 62.2644 45.9846 62.2386 45.9786 62.2132C45.9725 62.1826 45.9695 62.1544 45.9695 62.129C45.9634 62.1037 45.9573 62.0779 45.9513 62.0525C45.9513 62.0272 45.9482 62.0013 45.9422 61.976V61.8536C45.9422 61.833 45.9422 61.8129 45.9422 61.7924C45.9482 61.7718 45.9513 61.7517 45.9513 61.7311V61.1343L45.9695 60.0324V59.0146C45.9695 58.831 45.9695 58.6679 45.9695 58.5249C45.9755 58.3819 45.9816 58.2264 45.9876 58.0581V58.0198C45.9937 57.9639 45.9967 57.9127 45.9967 57.8668C46.0027 57.8156 46.0058 57.7649 46.0058 57.7137C46.0118 57.6119 46.0451 57.5124 46.1057 57.4153C46.1299 57.3747 46.1541 57.3388 46.1783 57.3082C46.2086 57.2776 46.2479 57.2522 46.2964 57.2317C46.3872 57.1857 46.481 57.1628 46.5779 57.1628C46.6263 57.1628 46.6626 57.1652 46.6869 57.1704V57.1628C46.7959 57.1628 46.8836 57.1628 46.9502 57.1628C47.0168 57.1628 47.0804 57.1628 47.1409 57.1628C47.2075 57.1628 47.2771 57.1628 47.3498 57.1628C47.4224 57.1575 47.5223 57.1551 47.6495 57.1551C47.8916 57.1499 48.1217 57.1475 48.3396 57.1475C48.5576 57.1475 48.7815 57.1499 49.0116 57.1551H49.048C49.1145 57.1604 49.1842 57.1628 49.2568 57.1628C49.3295 57.1628 49.3991 57.1652 49.4657 57.1704C49.5323 57.1704 49.5988 57.1781 49.6655 57.1934C49.7321 57.2034 49.7986 57.2187 49.8653 57.2393C49.9682 57.2647 50.0529 57.3082 50.1195 57.3694C50.174 57.4407 50.2013 57.5124 50.2013 57.5837C50.2013 57.6143 50.2013 57.6449 50.2013 57.6755C50.2013 57.7008 50.1952 57.7267 50.1831 57.752C50.177 57.8032 50.1407 57.8567 50.0741 57.9127C50.0499 57.9227 50.0226 57.9357 49.9924 57.951C49.9682 57.9663 49.9379 57.9792 49.9016 57.9892C49.8653 57.9993 49.8259 58.0069 49.7835 58.0122C49.7472 58.0122 49.7109 58.0146 49.6746 58.0198C49.6261 58.0299 49.5807 58.0351 49.5383 58.0351C49.502 58.0351 49.4596 58.0351 49.4112 58.0351H49.0026L47.1863 58.0428V58.0657ZM55.612 62.2285C55.6181 62.2797 55.612 62.328 55.5938 62.3739C55.5817 62.4045 55.5636 62.4299 55.5393 62.4504C55.5212 62.471 55.497 62.4911 55.4667 62.5117C55.4122 62.5423 55.3456 62.5705 55.2669 62.5958C55.2185 62.6059 55.1701 62.6135 55.1216 62.6188C55.0793 62.6288 55.0339 62.6288 54.9854 62.6188C54.8886 62.6135 54.8038 62.5829 54.7311 62.527C54.6282 62.4557 54.5435 62.3763 54.4769 62.2897C54.4466 62.2491 54.4133 62.2032 54.377 62.152C54.3406 62.1008 54.3074 62.0473 54.2771 61.9913L53.2691 60.3767C53.2207 60.3767 53.1722 60.3791 53.1238 60.3844C53.0754 60.3844 53.0269 60.3867 52.9785 60.392C52.8513 60.402 52.7303 60.4049 52.6152 60.3997C52.5063 60.3944 52.3913 60.3944 52.2702 60.3997H52.0976V61.7847C52.0976 61.8253 52.0946 61.8636 52.0885 61.8995C52.0885 61.9354 52.0885 61.9736 52.0885 62.0143C52.0885 62.0396 52.0855 62.0731 52.0795 62.1137C52.0795 62.1544 52.0764 62.1927 52.0704 62.2285C52.0583 62.2845 52.031 62.3433 51.9886 62.4045C51.9463 62.4605 51.8888 62.5093 51.8161 62.5499C51.689 62.6164 51.5346 62.6341 51.353 62.6035C51.2743 62.5882 51.1986 62.5628 51.1259 62.527C51.1018 62.5117 51.0805 62.494 51.0624 62.4734C51.0442 62.448 51.0291 62.4222 51.017 62.3969C51.0049 62.3715 50.9928 62.3457 50.9806 62.3203C50.9746 62.2897 50.9655 62.2615 50.9534 62.2362C50.9352 62.185 50.9262 62.1367 50.9262 62.0908V57.7444C50.9262 57.7137 50.9262 57.6831 50.9262 57.6525C50.9322 57.6167 50.9383 57.5861 50.9443 57.5607C50.9504 57.5047 50.9716 57.4483 51.0079 57.3924C51.026 57.3311 51.0564 57.2876 51.0987 57.2623C51.135 57.2317 51.1895 57.2063 51.2622 57.1857C51.3409 57.1604 51.4529 57.1499 51.5982 57.1551C51.8706 57.1604 52.14 57.1628 52.4064 57.1628C52.6728 57.1628 52.9391 57.168 53.2055 57.1781C53.3811 57.1881 53.5657 57.2063 53.7595 57.2317C53.9592 57.2522 54.1439 57.2905 54.3134 57.3464C54.4224 57.3823 54.5223 57.4177 54.6131 57.4536C54.7281 57.5095 54.8189 57.5631 54.8855 57.6143C55.0974 57.7774 55.2578 57.9739 55.3668 58.2035C55.4758 58.433 55.5303 58.665 55.5303 58.8998C55.5303 59.1753 55.4516 59.4278 55.2942 59.6574C55.1428 59.887 54.8977 60.0577 54.5586 60.1701C54.5465 60.1801 54.5283 60.1878 54.5041 60.193C54.4859 60.193 54.4708 60.1954 54.4587 60.2007L55.2942 61.6163L55.3759 61.7388C55.388 61.7594 55.4031 61.7823 55.4213 61.8077C55.4395 61.833 55.4546 61.8588 55.4667 61.8842C55.4849 61.9095 55.5 61.9377 55.5121 61.9683C55.5303 61.999 55.5484 62.0272 55.5666 62.0525C55.5847 62.1238 55.5999 62.1826 55.612 62.2285ZM53.3417 59.5044C53.4507 59.5044 53.5537 59.489 53.6505 59.4584C53.7534 59.4226 53.8442 59.3767 53.9229 59.3207C54.0077 59.2647 54.0773 59.2007 54.1318 59.1294C54.1863 59.0529 54.2166 58.9711 54.2226 58.8845C54.2468 58.6296 54.1681 58.4407 53.9865 58.3183C53.8049 58.1906 53.5657 58.1217 53.2691 58.1117C53.0935 58.1016 52.8998 58.0964 52.6879 58.0964C52.4821 58.0964 52.2853 58.0964 52.0976 58.0964C52.1037 58.3054 52.1037 58.5196 52.0976 58.7391C52.0976 58.9534 52.0976 59.2083 52.0976 59.5044H53.3417ZM57.5888 58.0657L57.5706 59.2671H57.9339C58.1821 59.2619 58.4031 59.2595 58.5968 59.2595C58.7905 59.2595 59.0054 59.2619 59.2415 59.2671H59.2869C59.3596 59.2671 59.4292 59.2695 59.4958 59.2748C59.5685 59.2748 59.6381 59.2748 59.7047 59.2748C59.7773 59.28 59.847 59.2901 59.9135 59.3054C59.9801 59.3154 60.0467 59.3284 60.1133 59.3437C60.2162 59.3743 60.301 59.4202 60.3676 59.4814C60.4281 59.5479 60.4584 59.6215 60.4584 59.7033C60.4584 59.7287 60.4584 59.7593 60.4584 59.7951C60.4584 59.8257 60.4523 59.854 60.4402 59.8793C60.4281 59.9353 60.3888 59.9864 60.3222 60.0324C60.2919 60.0682 60.2344 60.0936 60.1496 60.1089C60.0709 60.1294 59.9923 60.1419 59.9135 60.1471C59.8288 60.1624 59.744 60.1701 59.6593 60.1701H59.2324L57.5524 60.1777L57.5343 61.6776L59.3414 61.6929H59.7682C59.8166 61.6929 59.8621 61.6929 59.9045 61.6929C59.9468 61.6929 59.9862 61.6953 60.0225 61.7005C60.0709 61.7106 60.1133 61.7182 60.1496 61.7235C60.192 61.7235 60.2314 61.7287 60.2677 61.7388C60.3403 61.7594 60.4009 61.7871 60.4493 61.823C60.5099 61.8741 60.5492 61.9277 60.5674 61.9837C60.5734 62.009 60.5765 62.0372 60.5765 62.0678C60.5825 62.0932 60.5825 62.1214 60.5765 62.152C60.5765 62.2338 60.5462 62.3074 60.4856 62.3739C60.413 62.4452 60.3283 62.4911 60.2314 62.5117C60.1042 62.5576 59.965 62.5805 59.8136 62.5805C59.7471 62.5858 59.6774 62.5882 59.6048 62.5882C59.5321 62.5882 59.4625 62.5906 59.3959 62.5958H59.3414C58.8692 62.6059 58.3788 62.6059 57.8703 62.5958C57.7492 62.5958 57.6523 62.5934 57.5797 62.5882C57.507 62.5882 57.4405 62.5882 57.3799 62.5882C57.3254 62.5882 57.2679 62.5882 57.2074 62.5882C57.1468 62.5882 57.0681 62.5882 56.9713 62.5882C56.832 62.5982 56.717 62.5781 56.6262 62.527C56.5596 62.4911 56.5081 62.4428 56.4718 62.3816C56.4536 62.3663 56.4446 62.351 56.4446 62.3357C56.4385 62.3256 56.4325 62.318 56.4264 62.3127C56.4203 62.3074 56.4143 62.2998 56.4082 62.2897C56.3961 62.2644 56.3871 62.2386 56.381 62.2132C56.3749 62.1826 56.3719 62.1544 56.3719 62.129C56.3658 62.1037 56.3598 62.0779 56.3537 62.0525C56.3537 62.0272 56.3507 62.0013 56.3447 61.976V61.8536C56.3447 61.833 56.3447 61.8129 56.3447 61.7924C56.3507 61.7718 56.3537 61.7517 56.3537 61.7311V61.1343L56.3719 60.0324V59.0146C56.3719 58.831 56.3719 58.6679 56.3719 58.5249C56.378 58.3819 56.384 58.2264 56.3901 58.0581V58.0198C56.3961 57.9639 56.3992 57.9127 56.3992 57.8668C56.4052 57.8156 56.4082 57.7649 56.4082 57.7137C56.4143 57.6119 56.4476 57.5124 56.5081 57.4153C56.5324 57.3747 56.5565 57.3388 56.5808 57.3082C56.611 57.2776 56.6504 57.2522 56.6988 57.2317C56.7896 57.1857 56.8835 57.1628 56.9803 57.1628C57.0288 57.1628 57.0651 57.1652 57.0893 57.1704V57.1628C57.1983 57.1628 57.2861 57.1628 57.3527 57.1628C57.4192 57.1628 57.4828 57.1628 57.5434 57.1628C57.6099 57.1628 57.6796 57.1628 57.7522 57.1628C57.8249 57.1575 57.9248 57.1551 58.0519 57.1551C58.2941 57.1499 58.5241 57.1475 58.7421 57.1475C58.96 57.1475 59.184 57.1499 59.4141 57.1551H59.4504C59.517 57.1604 59.5866 57.1628 59.6593 57.1628C59.7319 57.1628 59.8016 57.1652 59.8681 57.1704C59.9347 57.1704 60.0013 57.1781 60.0679 57.1934C60.1345 57.2034 60.2011 57.2187 60.2677 57.2393C60.3706 57.2647 60.4554 57.3082 60.522 57.3694C60.5765 57.4407 60.6037 57.5124 60.6037 57.5837C60.6037 57.6143 60.6037 57.6449 60.6037 57.6755C60.6037 57.7008 60.5976 57.7267 60.5855 57.752C60.5795 57.8032 60.5431 57.8567 60.4766 57.9127C60.4523 57.9227 60.4251 57.9357 60.3948 57.951C60.3706 57.9663 60.3403 57.9792 60.304 57.9892C60.2677 57.9993 60.2284 58.0069 60.186 58.0122C60.1496 58.0122 60.1133 58.0146 60.077 58.0198C60.0286 58.0299 59.9832 58.0351 59.9408 58.0351C59.9044 58.0351 59.8621 58.0351 59.8136 58.0351H59.405L57.5888 58.0428V58.0657Z" fill="white"/>
</svg>
