<svg width="111" height="122" viewBox="0 0 111 122" fill="none" xmlns="http://www.w3.org/2000/svg">
<g clip-path="url(#clip0)">
<path d="M22.3018 93.3701L41.2667 71.664L34.3884 63.792L15.4248 85.4981C13.5251 87.6717 13.5251 91.1957 15.4248 93.3701C17.3239 95.5437 20.4027 95.5437 22.3018 93.3701V93.3701Z" fill="#FAFAFA"/>
<path d="M37.8275 59.8555L44.7052 67.7275C49.445 73.1533 57.1591 73.1533 61.8995 67.7275L63.6188 65.7597L39.5468 38.2074L37.8275 40.1752C33.0871 45.601 33.0871 54.4304 37.8275 59.8555V59.8555Z" fill="#FAFAFA"/>
<path d="M78.79 47.1151C77.5267 47.6964 76.112 46.968 75.6301 45.5663C75.1292 44.1399 75.7359 42.52 76.9833 41.9495C82.2304 39.5411 85.4479 39.0438 93.4273 36.6491C91.1616 30.1043 87.8789 24.1631 83.8078 19.0359L71.8604 32.7106C70.9099 33.7985 69.3718 33.7985 68.4213 32.7106C67.4714 31.6234 67.4714 29.8622 68.4213 28.7743L80.3686 15.0996C75.8891 10.4399 70.6991 6.68331 64.9803 4.08928C62.9039 13.155 62.4575 16.8942 60.35 22.9107C59.851 24.3393 58.4357 25.0329 57.1902 24.4603C55.9655 23.9087 55.3284 22.2903 55.8363 20.8429C57.7791 15.2859 58.154 11.9613 60.3608 2.28672C55.9275 0.827713 51.2624 0 46.4251 0C45.6424 0 44.9085 0.428352 44.4519 1.15532C43.9947 1.88156 43.8706 2.81582 44.1176 3.6631C44.1771 3.86822 49.6394 23.0564 42.834 34.0979L67.2106 61.9987C76.8383 54.2377 93.6205 60.46 93.8016 60.5303C94.5437 60.8108 95.3581 60.6666 95.9926 60.144C96.6239 59.6214 97.002 58.7814 97.0001 57.8877C97.0001 52.3503 96.2769 47.0108 95.0022 41.9365C86.727 44.4102 83.6773 44.877 78.79 47.1151V47.1151Z" fill="#FAFAFA"/>
</g>
<path d="M22.7243 100.957C23.1296 101.33 23.4283 101.778 23.6203 102.301C23.8123 102.813 23.8869 103.325 23.8443 103.837C23.8016 104.327 23.6469 104.781 23.3802 105.197C23.1136 105.602 22.7083 105.911 22.1643 106.125C21.7376 106.306 21.3163 106.434 20.9003 106.509C20.4843 106.583 20.0256 106.642 19.5243 106.685C19.3003 106.706 19.1083 106.722 18.9483 106.733C18.7989 106.733 18.6229 106.738 18.4203 106.749C18.3776 106.749 18.3029 106.749 18.1963 106.749C18.1003 106.749 18.0309 106.754 17.9883 106.765V110.077C17.9563 110.279 17.9136 110.487 17.8603 110.701C17.8176 110.914 17.6949 111.079 17.4923 111.197C17.3749 111.261 17.2309 111.298 17.0603 111.309C16.8896 111.319 16.7349 111.314 16.5963 111.293C16.4469 111.271 16.3189 111.234 16.2122 111.181C16.1163 111.117 16.0363 111.01 15.9723 110.861C15.9296 110.765 15.8869 110.658 15.8443 110.541C15.8123 110.413 15.7963 110.258 15.7963 110.077V101.229C15.7963 101.154 15.8016 101.085 15.8123 101.021C15.8229 100.957 15.8336 100.893 15.8443 100.829C15.8656 100.775 15.8816 100.717 15.8923 100.653C15.9029 100.589 15.9189 100.53 15.9403 100.477C15.9616 100.423 15.9829 100.375 16.0043 100.333C16.0363 100.29 16.0736 100.253 16.1163 100.221C16.1696 100.167 16.2496 100.119 16.3563 100.077C16.4736 100.034 16.6443 100.013 16.8683 100.013H16.9003C17.2309 99.9914 17.5989 99.9754 18.0043 99.9647C18.4096 99.9434 18.7456 99.9487 19.0123 99.9807C19.1616 100.002 19.3003 100.018 19.4283 100.029C19.5563 100.029 19.6789 100.034 19.7963 100.045C19.9243 100.055 20.0523 100.066 20.1803 100.077C20.3083 100.087 20.4363 100.103 20.5643 100.125C20.6709 100.146 20.7669 100.162 20.8523 100.173C20.9483 100.183 21.0443 100.199 21.1403 100.221C21.2256 100.242 21.3163 100.263 21.4123 100.285C21.5189 100.306 21.6149 100.343 21.7003 100.397C21.9243 100.461 22.1109 100.541 22.2603 100.637C22.4096 100.733 22.5643 100.839 22.7243 100.957ZM21.7643 103.597C21.7749 103.341 21.7216 103.117 21.6043 102.925C21.4976 102.733 21.3429 102.573 21.1403 102.445C20.9376 102.317 20.7083 102.215 20.4523 102.141C20.1963 102.066 19.9403 102.013 19.6843 101.981C19.6203 101.981 19.5296 101.981 19.4123 101.981C19.3056 101.97 19.1883 101.965 19.0603 101.965C18.9323 101.954 18.8096 101.949 18.6923 101.949C18.5856 101.938 18.5003 101.933 18.4363 101.933C18.3829 101.922 18.3189 101.917 18.2443 101.917C18.1696 101.917 18.0843 101.917 17.9883 101.917C17.9989 102.247 18.0043 102.567 18.0043 102.877C18.0043 103.175 18.0043 103.501 18.0043 103.853C17.9936 104.045 17.9883 104.237 17.9883 104.429C17.9883 104.621 17.9883 104.807 17.9883 104.989L18.9803 104.973C19.2363 104.973 19.5189 104.957 19.8283 104.925C20.1376 104.893 20.4309 104.829 20.7083 104.733C20.9856 104.637 21.2203 104.498 21.4123 104.317C21.6149 104.135 21.7323 103.895 21.7643 103.597ZM27.9876 100.333C28.7023 100.066 29.3476 99.9487 29.9236 99.9807C30.5103 100.013 31.033 100.162 31.4916 100.429C31.9503 100.685 32.3396 101.031 32.6596 101.469C32.9903 101.906 33.257 102.397 33.4596 102.941C33.6196 103.346 33.7423 103.773 33.8276 104.221C33.913 104.669 33.961 105.117 33.9716 105.565C33.993 106.002 33.977 106.434 33.9236 106.861C33.881 107.287 33.8063 107.682 33.6996 108.045C33.6356 108.29 33.561 108.514 33.4756 108.717C33.3903 108.919 33.289 109.122 33.1716 109.325C32.905 109.783 32.5583 110.157 32.1316 110.445C31.7156 110.733 31.257 110.935 30.7556 111.053C30.4143 111.138 30.0623 111.181 29.6996 111.181C29.337 111.17 28.9796 111.122 28.6276 111.037C28.2756 110.941 27.9343 110.807 27.6036 110.637C27.2836 110.455 26.9903 110.231 26.7236 109.965C26.393 109.645 26.121 109.277 25.9076 108.861C25.6943 108.434 25.529 107.991 25.4116 107.533C25.2943 107.063 25.2196 106.594 25.1876 106.125C25.1556 105.655 25.1556 105.207 25.1876 104.781C25.2196 104.386 25.2943 103.965 25.4116 103.517C25.5396 103.069 25.721 102.637 25.9556 102.221C26.1903 101.805 26.473 101.431 26.8036 101.101C27.145 100.759 27.5396 100.503 27.9876 100.333ZM31.7316 107.181C31.8596 106.679 31.913 106.114 31.8916 105.485C31.8703 104.855 31.769 104.263 31.5876 103.709C31.4703 103.367 31.321 103.069 31.1396 102.813C30.969 102.546 30.761 102.343 30.5156 102.205C30.281 102.066 30.0036 101.997 29.6836 101.997C29.3636 101.997 29.0063 102.093 28.6116 102.285C28.377 102.402 28.1743 102.562 28.0036 102.765C27.8436 102.967 27.7103 103.197 27.6036 103.453C27.5076 103.709 27.4276 103.975 27.3636 104.253C27.3103 104.53 27.2783 104.797 27.2676 105.053C27.2463 105.33 27.241 105.623 27.2516 105.933C27.2623 106.231 27.2943 106.535 27.3476 106.845C27.4116 107.143 27.497 107.431 27.6036 107.709C27.7103 107.975 27.8543 108.215 28.0356 108.429C28.313 108.749 28.633 108.973 28.9956 109.101C29.369 109.218 29.737 109.234 30.0996 109.149C30.6863 109.021 31.1343 108.631 31.4436 107.981C31.5716 107.746 31.6676 107.479 31.7316 107.181ZM44.0166 100.829C44.0806 101.341 44.118 101.938 44.1286 102.621C44.1393 103.293 44.1286 103.975 44.0966 104.669C44.0753 105.351 44.0273 106.002 43.9526 106.621C43.878 107.229 43.7873 107.719 43.6806 108.093C43.606 108.317 43.5153 108.551 43.4086 108.797C43.3126 109.031 43.206 109.245 43.0886 109.437C42.918 109.725 42.71 109.981 42.4646 110.205C42.2193 110.418 41.9473 110.605 41.6486 110.765C41.3606 110.914 41.0513 111.031 40.7206 111.117C40.4006 111.202 40.0806 111.25 39.7606 111.261C39.1953 111.282 38.6566 111.202 38.1446 111.021C37.6433 110.829 37.1793 110.53 36.7526 110.125C36.4326 109.815 36.1766 109.485 35.9846 109.133C35.7926 108.781 35.6433 108.413 35.5366 108.029C35.43 107.634 35.3606 107.229 35.3286 106.813C35.3073 106.397 35.2966 105.97 35.2966 105.533C35.2966 105.33 35.2913 105.079 35.2806 104.781C35.2806 104.471 35.2806 104.157 35.2806 103.837C35.2806 103.506 35.2806 103.186 35.2806 102.877C35.2806 102.567 35.286 102.306 35.2966 102.093C35.2966 101.954 35.2966 101.805 35.2966 101.645C35.2966 101.474 35.302 101.309 35.3126 101.149C35.334 100.978 35.366 100.818 35.4086 100.669C35.4513 100.509 35.5153 100.365 35.6006 100.237C35.6966 100.098 35.83 99.9967 36.0006 99.9327C36.1713 99.8687 36.3473 99.8367 36.5286 99.8367C36.7206 99.8367 36.902 99.8741 37.0726 99.9487C37.2433 100.023 37.382 100.13 37.4886 100.269C37.542 100.354 37.5793 100.439 37.6006 100.525C37.622 100.61 37.638 100.706 37.6486 100.813C37.67 101.165 37.6806 101.565 37.6806 102.013C37.6913 102.461 37.6913 102.898 37.6806 103.325C37.6806 103.741 37.6753 104.125 37.6646 104.477C37.654 104.829 37.6486 105.09 37.6486 105.261C37.6486 105.901 37.6806 106.482 37.7446 107.005C37.8086 107.517 37.958 107.943 38.1926 108.285C38.406 108.594 38.6566 108.791 38.9446 108.877C39.2326 108.962 39.5206 108.989 39.8086 108.957C40.0753 108.925 40.342 108.829 40.6086 108.669C40.886 108.498 41.1046 108.253 41.2646 107.933C41.3286 107.815 41.382 107.682 41.4246 107.533C41.4673 107.383 41.4993 107.245 41.5206 107.117C41.5633 106.711 41.6006 106.242 41.6326 105.709C41.6646 105.165 41.6913 104.61 41.7126 104.045C41.734 103.479 41.7446 102.925 41.7446 102.381C41.7446 101.837 41.7393 101.346 41.7286 100.909C41.75 100.717 41.8086 100.541 41.9046 100.381C41.99 100.242 42.1126 100.119 42.2726 100.013C42.4326 99.9061 42.6513 99.8527 42.9286 99.8527C43.1526 99.8634 43.334 99.9221 43.4726 100.029C43.6113 100.125 43.7233 100.231 43.8086 100.349C43.9046 100.487 43.974 100.647 44.0166 100.829ZM53.7093 106.621C53.7626 106.77 53.7999 106.941 53.8212 107.133C53.8533 107.314 53.8693 107.501 53.8693 107.693C53.8693 107.885 53.8533 108.077 53.8212 108.269C53.7999 108.45 53.7679 108.61 53.7253 108.749C53.5546 109.346 53.2133 109.847 52.7013 110.253C52.1893 110.647 51.6026 110.935 50.9413 111.117C50.2906 111.298 49.6133 111.362 48.9093 111.309C48.2159 111.255 47.5973 111.079 47.0533 110.781C46.7119 110.589 46.4186 110.354 46.1733 110.077C45.9279 109.799 45.7199 109.49 45.5493 109.149C45.4853 109.031 45.4426 108.898 45.4213 108.749C45.4106 108.589 45.4266 108.439 45.4693 108.301C45.5119 108.151 45.5813 108.023 45.6773 107.917C45.7733 107.799 45.9066 107.719 46.0773 107.677C46.1839 107.655 46.3013 107.645 46.4293 107.645C46.5679 107.645 46.7013 107.666 46.8293 107.709C46.9573 107.741 47.0746 107.799 47.1813 107.885C47.2879 107.959 47.3733 108.066 47.4373 108.205C47.5546 108.429 47.7199 108.637 47.9333 108.829C48.1573 109.01 48.3919 109.159 48.6373 109.277C48.9893 109.394 49.3413 109.442 49.6933 109.421C50.0559 109.399 50.3813 109.319 50.6693 109.181C50.9679 109.042 51.2079 108.855 51.3893 108.621C51.5706 108.375 51.6613 108.098 51.6613 107.789C51.6613 107.533 51.6239 107.325 51.5493 107.165C51.4746 106.994 51.3679 106.855 51.2293 106.749C51.1013 106.631 50.9413 106.535 50.7493 106.461C50.5679 106.386 50.3653 106.322 50.1413 106.269C49.8853 106.215 49.6239 106.178 49.3573 106.157C49.1013 106.135 48.8399 106.109 48.5733 106.077C48.3066 106.045 48.0453 106.002 47.7893 105.949C47.5333 105.895 47.2826 105.815 47.0373 105.709C46.5466 105.506 46.1733 105.197 45.9173 104.781C45.6613 104.365 45.5066 103.917 45.4533 103.437C45.4106 102.957 45.4693 102.482 45.6293 102.013C45.7893 101.533 46.0453 101.122 46.3973 100.781C46.7386 100.471 47.1439 100.253 47.6133 100.125C48.0933 99.9861 48.6213 99.9061 49.1973 99.8847C49.5173 99.8741 49.8373 99.8847 50.1573 99.9167C50.4879 99.9487 50.8026 100.002 51.1013 100.077C51.4106 100.151 51.6933 100.247 51.9493 100.365C52.2159 100.482 52.4453 100.621 52.6373 100.781C52.7759 100.887 52.9146 101.031 53.0533 101.213C53.1919 101.383 53.2986 101.57 53.3733 101.773C53.4479 101.965 53.4693 102.151 53.4373 102.333C53.4159 102.514 53.3039 102.669 53.1013 102.797C52.9306 102.903 52.7653 102.951 52.6053 102.941C52.4559 102.919 52.3119 102.871 52.1733 102.797C52.0346 102.711 51.9013 102.615 51.7733 102.509C51.6453 102.402 51.5279 102.306 51.4213 102.221C51.1333 102.007 50.7759 101.863 50.3493 101.789C49.9226 101.714 49.5226 101.698 49.1493 101.741C48.9146 101.773 48.6959 101.826 48.4933 101.901C48.2906 101.975 48.1146 102.077 47.9653 102.205C47.8266 102.333 47.7146 102.493 47.6293 102.685C47.5546 102.866 47.5279 103.074 47.5493 103.309C47.5599 103.479 47.6079 103.623 47.6933 103.741C47.7893 103.858 47.9013 103.954 48.0293 104.029C48.1679 104.103 48.3173 104.162 48.4773 104.205C48.6373 104.247 48.7973 104.279 48.9573 104.301C49.4373 104.365 49.9173 104.413 50.3973 104.445C50.8773 104.477 51.3466 104.583 51.8053 104.765C52.2746 104.946 52.6746 105.191 53.0052 105.501C53.3359 105.81 53.5706 106.183 53.7093 106.621ZM63.4436 106.621C63.497 106.77 63.5343 106.941 63.5556 107.133C63.5876 107.314 63.6036 107.501 63.6036 107.693C63.6036 107.885 63.5876 108.077 63.5556 108.269C63.5343 108.45 63.5023 108.61 63.4596 108.749C63.289 109.346 62.9476 109.847 62.4356 110.253C61.9236 110.647 61.337 110.935 60.6756 111.117C60.025 111.298 59.3476 111.362 58.6436 111.309C57.9503 111.255 57.3316 111.079 56.7876 110.781C56.4463 110.589 56.153 110.354 55.9076 110.077C55.6623 109.799 55.4543 109.49 55.2836 109.149C55.2196 109.031 55.177 108.898 55.1556 108.749C55.145 108.589 55.161 108.439 55.2036 108.301C55.2463 108.151 55.3156 108.023 55.4116 107.917C55.5076 107.799 55.641 107.719 55.8116 107.677C55.9183 107.655 56.0356 107.645 56.1636 107.645C56.3023 107.645 56.4356 107.666 56.5636 107.709C56.6916 107.741 56.809 107.799 56.9156 107.885C57.0223 107.959 57.1076 108.066 57.1716 108.205C57.289 108.429 57.4543 108.637 57.6676 108.829C57.8916 109.01 58.1263 109.159 58.3716 109.277C58.7236 109.394 59.0756 109.442 59.4276 109.421C59.7903 109.399 60.1156 109.319 60.4036 109.181C60.7023 109.042 60.9423 108.855 61.1236 108.621C61.305 108.375 61.3956 108.098 61.3956 107.789C61.3956 107.533 61.3583 107.325 61.2836 107.165C61.209 106.994 61.1023 106.855 60.9636 106.749C60.8356 106.631 60.6756 106.535 60.4836 106.461C60.3023 106.386 60.0996 106.322 59.8756 106.269C59.6196 106.215 59.3583 106.178 59.0916 106.157C58.8356 106.135 58.5743 106.109 58.3076 106.077C58.041 106.045 57.7796 106.002 57.5236 105.949C57.2676 105.895 57.017 105.815 56.7716 105.709C56.281 105.506 55.9076 105.197 55.6516 104.781C55.3956 104.365 55.241 103.917 55.1876 103.437C55.145 102.957 55.2036 102.482 55.3636 102.013C55.5236 101.533 55.7796 101.122 56.1316 100.781C56.473 100.471 56.8783 100.253 57.3476 100.125C57.8276 99.9861 58.3556 99.9061 58.9316 99.8847C59.2516 99.8741 59.5716 99.8847 59.8916 99.9167C60.2223 99.9487 60.537 100.002 60.8356 100.077C61.145 100.151 61.4276 100.247 61.6836 100.365C61.9503 100.482 62.1796 100.621 62.3716 100.781C62.5103 100.887 62.649 101.031 62.7876 101.213C62.9263 101.383 63.033 101.57 63.1076 101.773C63.1823 101.965 63.2036 102.151 63.1716 102.333C63.1503 102.514 63.0383 102.669 62.8356 102.797C62.665 102.903 62.4996 102.951 62.3396 102.941C62.1903 102.919 62.0463 102.871 61.9076 102.797C61.769 102.711 61.6356 102.615 61.5076 102.509C61.3796 102.402 61.2623 102.306 61.1556 102.221C60.8676 102.007 60.5103 101.863 60.0836 101.789C59.657 101.714 59.257 101.698 58.8836 101.741C58.649 101.773 58.4303 101.826 58.2276 101.901C58.025 101.975 57.849 102.077 57.6996 102.205C57.561 102.333 57.449 102.493 57.3636 102.685C57.289 102.866 57.2623 103.074 57.2836 103.309C57.2943 103.479 57.3423 103.623 57.4276 103.741C57.5236 103.858 57.6356 103.954 57.7636 104.029C57.9023 104.103 58.0516 104.162 58.2116 104.205C58.3716 104.247 58.5316 104.279 58.6916 104.301C59.1716 104.365 59.6516 104.413 60.1316 104.445C60.6116 104.477 61.081 104.583 61.5396 104.765C62.009 104.946 62.409 105.191 62.7396 105.501C63.0703 105.81 63.305 106.183 63.4436 106.621ZM65.386 109.581L65.402 108.317L65.418 105.965C65.4287 105.623 65.434 105.271 65.434 104.909C65.434 104.546 65.434 104.173 65.434 103.789C65.434 103.405 65.434 103.063 65.434 102.765C65.434 102.466 65.4447 102.13 65.466 101.757V101.693C65.4767 101.586 65.482 101.479 65.482 101.373C65.4927 101.255 65.498 101.138 65.498 101.021C65.5087 100.829 65.5673 100.621 65.674 100.397C65.7487 100.247 65.8607 100.119 66.01 100.013C66.1807 99.9274 66.346 99.8847 66.506 99.8847C66.5913 99.8847 66.666 99.8901 66.73 99.9007C66.8047 99.9007 66.874 99.9061 66.938 99.9167C67.0767 99.9381 67.1993 100.002 67.306 100.109C67.37 100.162 67.4287 100.247 67.482 100.365C67.5033 100.429 67.5193 100.493 67.53 100.557C67.5513 100.61 67.5673 100.669 67.578 100.733C67.5887 100.807 67.594 100.877 67.594 100.941C67.6047 101.005 67.61 101.069 67.61 101.133C67.61 101.207 67.6047 101.277 67.594 101.341C67.594 101.394 67.594 101.453 67.594 101.517V101.789L67.498 110.093V110.253C67.498 110.285 67.4927 110.327 67.482 110.381C67.482 110.423 67.4767 110.477 67.466 110.541C67.4447 110.594 67.4233 110.653 67.402 110.717C67.3913 110.77 67.3753 110.829 67.354 110.893C67.322 110.946 67.2847 110.999 67.242 111.053C67.21 111.095 67.1673 111.138 67.114 111.181C67.0287 111.266 66.89 111.325 66.698 111.357C66.41 111.421 66.138 111.394 65.882 111.277C65.754 111.191 65.6633 111.085 65.61 110.957C65.578 110.925 65.562 110.893 65.562 110.861C65.5513 110.839 65.5407 110.823 65.53 110.813C65.5193 110.802 65.5087 110.786 65.498 110.765C65.4767 110.711 65.4607 110.658 65.45 110.605C65.4393 110.541 65.434 110.477 65.434 110.413C65.4233 110.359 65.4127 110.306 65.402 110.253C65.402 110.199 65.3967 110.146 65.386 110.093C65.3753 110.007 65.3753 109.917 65.386 109.821V109.581ZM71.5664 101.869L71.5344 104.381H72.1744C72.6117 104.37 73.001 104.365 73.3424 104.365C73.6837 104.365 74.0624 104.37 74.4784 104.381H74.5584C74.6864 104.381 74.809 104.386 74.9264 104.397C75.0544 104.397 75.177 104.397 75.2944 104.397C75.4224 104.407 75.545 104.429 75.6624 104.461C75.7797 104.482 75.897 104.509 76.0144 104.541C76.1957 104.605 76.345 104.701 76.4624 104.829C76.569 104.967 76.6224 105.122 76.6224 105.293C76.6224 105.346 76.6224 105.41 76.6224 105.485C76.6224 105.549 76.6117 105.607 76.5904 105.661C76.569 105.778 76.4997 105.885 76.3824 105.981C76.329 106.055 76.2277 106.109 76.0784 106.141C75.9397 106.183 75.801 106.21 75.6624 106.221C75.513 106.253 75.3637 106.269 75.2144 106.269H74.4624L71.5024 106.285L71.4704 109.421L74.6544 109.453H75.4064C75.4917 109.453 75.5717 109.453 75.6464 109.453C75.721 109.453 75.7904 109.458 75.8544 109.469C75.9397 109.49 76.0144 109.506 76.0784 109.517C76.153 109.517 76.2224 109.527 76.2864 109.549C76.4144 109.591 76.521 109.65 76.6064 109.725C76.713 109.831 76.7824 109.943 76.8144 110.061C76.825 110.114 76.8304 110.173 76.8304 110.237C76.841 110.29 76.841 110.349 76.8304 110.413C76.8304 110.583 76.777 110.738 76.6704 110.877C76.5424 111.026 76.393 111.122 76.2224 111.165C75.9984 111.261 75.753 111.309 75.4864 111.309C75.369 111.319 75.2464 111.325 75.1184 111.325C74.9904 111.325 74.8677 111.33 74.7504 111.341H74.6544C73.8224 111.362 72.9584 111.362 72.0624 111.341C71.849 111.341 71.6784 111.335 71.5504 111.325C71.4224 111.325 71.305 111.325 71.1984 111.325C71.1024 111.325 71.001 111.325 70.8944 111.325C70.7877 111.325 70.649 111.325 70.4784 111.325C70.233 111.346 70.0304 111.303 69.8704 111.197C69.753 111.122 69.6624 111.021 69.5984 110.893C69.5664 110.861 69.5504 110.829 69.5504 110.797C69.5397 110.775 69.529 110.759 69.5184 110.749C69.5077 110.738 69.497 110.722 69.4864 110.701C69.465 110.647 69.449 110.594 69.4384 110.541C69.4277 110.477 69.4224 110.418 69.4224 110.365C69.4117 110.311 69.401 110.258 69.3904 110.205C69.3904 110.151 69.385 110.098 69.3744 110.045V109.789C69.3744 109.746 69.3744 109.703 69.3744 109.661C69.385 109.618 69.3904 109.575 69.3904 109.533V108.285L69.4224 105.981V103.853C69.4224 103.469 69.4224 103.127 69.4224 102.829C69.433 102.53 69.4437 102.205 69.4544 101.853V101.773C69.465 101.655 69.4704 101.549 69.4704 101.453C69.481 101.346 69.4864 101.239 69.4864 101.133C69.497 100.919 69.5557 100.711 69.6624 100.509C69.705 100.423 69.7477 100.349 69.7904 100.285C69.8437 100.221 69.913 100.167 69.9984 100.125C70.1584 100.029 70.3237 99.9807 70.4944 99.9807C70.5797 99.9807 70.6437 99.9861 70.6864 99.9967V99.9807C70.8784 99.9807 71.033 99.9807 71.1504 99.9807C71.2677 99.9807 71.3797 99.9807 71.4864 99.9807C71.6037 99.9807 71.7264 99.9807 71.8544 99.9807C71.9824 99.9701 72.1584 99.9647 72.3824 99.9647C72.809 99.9541 73.2144 99.9487 73.5984 99.9487C73.9824 99.9487 74.377 99.9541 74.7824 99.9647H74.8464C74.9637 99.9754 75.0864 99.9807 75.2144 99.9807C75.3424 99.9807 75.465 99.9861 75.5824 99.9967C75.6997 99.9967 75.817 100.013 75.9344 100.045C76.0517 100.066 76.169 100.098 76.2864 100.141C76.4677 100.194 76.617 100.285 76.7344 100.413C76.8304 100.562 76.8784 100.711 76.8784 100.861C76.8784 100.925 76.8784 100.989 76.8784 101.053C76.8784 101.106 76.8677 101.159 76.8464 101.213C76.8357 101.319 76.7717 101.431 76.6544 101.549C76.6117 101.57 76.5637 101.597 76.5104 101.629C76.4677 101.661 76.4144 101.687 76.3504 101.709C76.2864 101.73 76.217 101.746 76.1424 101.757C76.0784 101.757 76.0144 101.762 75.9504 101.773C75.865 101.794 75.785 101.805 75.7104 101.805C75.6464 101.805 75.5717 101.805 75.4864 101.805H74.7664L71.5664 101.821V101.869ZM86.4116 110.573C86.4223 110.679 86.4116 110.781 86.3796 110.877C86.3583 110.941 86.3263 110.994 86.2836 111.037C86.2516 111.079 86.209 111.122 86.1556 111.165C86.0596 111.229 85.9423 111.287 85.8036 111.341C85.7183 111.362 85.633 111.378 85.5476 111.389C85.473 111.41 85.393 111.41 85.3076 111.389C85.137 111.378 84.9876 111.314 84.8596 111.197C84.6783 111.047 84.529 110.882 84.4116 110.701C84.3583 110.615 84.2996 110.519 84.2356 110.413C84.1716 110.306 84.113 110.194 84.0596 110.077L82.2836 106.701C82.1983 106.701 82.113 106.706 82.0276 106.717C81.9423 106.717 81.857 106.722 81.7716 106.733C81.5476 106.754 81.3343 106.759 81.1316 106.749C80.9396 106.738 80.737 106.738 80.5236 106.749H80.2196V109.645C80.2196 109.73 80.2143 109.81 80.2036 109.885C80.2036 109.959 80.2036 110.039 80.2036 110.125C80.2036 110.178 80.1983 110.247 80.1876 110.333C80.1876 110.418 80.1823 110.498 80.1716 110.573C80.1503 110.69 80.1023 110.813 80.0276 110.941C79.953 111.058 79.8516 111.159 79.7236 111.245C79.4996 111.383 79.2276 111.421 78.9076 111.357C78.769 111.325 78.6356 111.271 78.5076 111.197C78.465 111.165 78.4276 111.127 78.3956 111.085C78.3636 111.031 78.337 110.978 78.3156 110.925C78.2943 110.871 78.273 110.818 78.2516 110.765C78.241 110.701 78.225 110.642 78.2036 110.589C78.1716 110.482 78.1556 110.381 78.1556 110.285V101.197C78.1556 101.133 78.1556 101.069 78.1556 101.005C78.1663 100.93 78.177 100.866 78.1876 100.813C78.1983 100.695 78.2356 100.578 78.2996 100.461C78.3316 100.333 78.385 100.242 78.4596 100.189C78.5236 100.125 78.6196 100.071 78.7476 100.029C78.8863 99.9754 79.0836 99.9541 79.3396 99.9647C79.8196 99.9754 80.2943 99.9807 80.7636 99.9807C81.233 99.9807 81.7023 99.9914 82.1716 100.013C82.481 100.034 82.8063 100.071 83.1476 100.125C83.4996 100.167 83.825 100.247 84.1236 100.365C84.3156 100.439 84.4916 100.514 84.6516 100.589C84.8543 100.706 85.0143 100.818 85.1316 100.925C85.505 101.266 85.7876 101.677 85.9796 102.157C86.1716 102.637 86.2676 103.122 86.2676 103.613C86.2676 104.189 86.129 104.717 85.8516 105.197C85.585 105.677 85.153 106.034 84.5556 106.269C84.5343 106.29 84.5023 106.306 84.4596 106.317C84.4276 106.317 84.401 106.322 84.3796 106.333L85.8516 109.293L85.9956 109.549C86.017 109.591 86.0436 109.639 86.0756 109.693C86.1076 109.746 86.1343 109.799 86.1556 109.853C86.1876 109.906 86.2143 109.965 86.2356 110.029C86.2676 110.093 86.2996 110.151 86.3316 110.205C86.3636 110.354 86.3903 110.477 86.4116 110.573ZM82.4116 104.877C82.6036 104.877 82.785 104.845 82.9556 104.781C83.137 104.706 83.297 104.61 83.4356 104.493C83.585 104.375 83.7076 104.242 83.8036 104.093C83.8996 103.933 83.953 103.762 83.9636 103.581C84.0063 103.047 83.8676 102.653 83.5476 102.397C83.2276 102.13 82.8063 101.986 82.2836 101.965C81.9743 101.943 81.633 101.933 81.2596 101.933C80.897 101.933 80.5503 101.933 80.2196 101.933C80.2303 102.37 80.2303 102.818 80.2196 103.277C80.2196 103.725 80.2196 104.258 80.2196 104.877H82.4116ZM89.8945 101.869L89.8625 104.381H90.5025C90.9398 104.37 91.3292 104.365 91.6705 104.365C92.0118 104.365 92.3905 104.37 92.8065 104.381H92.8865C93.0145 104.381 93.1372 104.386 93.2545 104.397C93.3825 104.397 93.5052 104.397 93.6225 104.397C93.7505 104.407 93.8732 104.429 93.9905 104.461C94.1078 104.482 94.2252 104.509 94.3425 104.541C94.5238 104.605 94.6732 104.701 94.7905 104.829C94.8972 104.967 94.9505 105.122 94.9505 105.293C94.9505 105.346 94.9505 105.41 94.9505 105.485C94.9505 105.549 94.9398 105.607 94.9185 105.661C94.8972 105.778 94.8278 105.885 94.7105 105.981C94.6572 106.055 94.5558 106.109 94.4065 106.141C94.2678 106.183 94.1292 106.21 93.9905 106.221C93.8412 106.253 93.6918 106.269 93.5425 106.269H92.7905L89.8305 106.285L89.7985 109.421L92.9825 109.453H93.7345C93.8198 109.453 93.8998 109.453 93.9745 109.453C94.0492 109.453 94.1185 109.458 94.1825 109.469C94.2678 109.49 94.3425 109.506 94.4065 109.517C94.4812 109.517 94.5505 109.527 94.6145 109.549C94.7425 109.591 94.8492 109.65 94.9345 109.725C95.0412 109.831 95.1105 109.943 95.1425 110.061C95.1532 110.114 95.1585 110.173 95.1585 110.237C95.1692 110.29 95.1692 110.349 95.1585 110.413C95.1585 110.583 95.1052 110.738 94.9985 110.877C94.8705 111.026 94.7212 111.122 94.5505 111.165C94.3265 111.261 94.0812 111.309 93.8145 111.309C93.6972 111.319 93.5745 111.325 93.4465 111.325C93.3185 111.325 93.1958 111.33 93.0785 111.341H92.9825C92.1505 111.362 91.2865 111.362 90.3905 111.341C90.1772 111.341 90.0065 111.335 89.8785 111.325C89.7505 111.325 89.6332 111.325 89.5265 111.325C89.4305 111.325 89.3292 111.325 89.2225 111.325C89.1158 111.325 88.9772 111.325 88.8065 111.325C88.5612 111.346 88.3585 111.303 88.1985 111.197C88.0812 111.122 87.9905 111.021 87.9265 110.893C87.8945 110.861 87.8785 110.829 87.8785 110.797C87.8678 110.775 87.8572 110.759 87.8465 110.749C87.8358 110.738 87.8252 110.722 87.8145 110.701C87.7932 110.647 87.7772 110.594 87.7665 110.541C87.7558 110.477 87.7505 110.418 87.7505 110.365C87.7398 110.311 87.7292 110.258 87.7185 110.205C87.7185 110.151 87.7132 110.098 87.7025 110.045V109.789C87.7025 109.746 87.7025 109.703 87.7025 109.661C87.7132 109.618 87.7185 109.575 87.7185 109.533V108.285L87.7505 105.981V103.853C87.7505 103.469 87.7505 103.127 87.7505 102.829C87.7612 102.53 87.7718 102.205 87.7825 101.853V101.773C87.7932 101.655 87.7985 101.549 87.7985 101.453C87.8092 101.346 87.8145 101.239 87.8145 101.133C87.8252 100.919 87.8838 100.711 87.9905 100.509C88.0332 100.423 88.0758 100.349 88.1185 100.285C88.1718 100.221 88.2412 100.167 88.3265 100.125C88.4865 100.029 88.6518 99.9807 88.8225 99.9807C88.9078 99.9807 88.9718 99.9861 89.0145 99.9967V99.9807C89.2065 99.9807 89.3612 99.9807 89.4785 99.9807C89.5958 99.9807 89.7078 99.9807 89.8145 99.9807C89.9318 99.9807 90.0545 99.9807 90.1825 99.9807C90.3105 99.9701 90.4865 99.9647 90.7105 99.9647C91.1372 99.9541 91.5425 99.9487 91.9265 99.9487C92.3105 99.9487 92.7052 99.9541 93.1105 99.9647H93.1745C93.2918 99.9754 93.4145 99.9807 93.5425 99.9807C93.6705 99.9807 93.7932 99.9861 93.9105 99.9967C94.0278 99.9967 94.1452 100.013 94.2625 100.045C94.3798 100.066 94.4972 100.098 94.6145 100.141C94.7958 100.194 94.9452 100.285 95.0625 100.413C95.1585 100.562 95.2065 100.711 95.2065 100.861C95.2065 100.925 95.2065 100.989 95.2065 101.053C95.2065 101.106 95.1958 101.159 95.1745 101.213C95.1638 101.319 95.0998 101.431 94.9825 101.549C94.9398 101.57 94.8918 101.597 94.8385 101.629C94.7958 101.661 94.7425 101.687 94.6785 101.709C94.6145 101.73 94.5452 101.746 94.4705 101.757C94.4065 101.757 94.3425 101.762 94.2785 101.773C94.1932 101.794 94.1132 101.805 94.0385 101.805C93.9745 101.805 93.8998 101.805 93.8145 101.805H93.0945L89.8945 101.821V101.869Z" fill="#FAFAFA"/>
<defs>
<clipPath id="clip0">
<rect width="83" height="95" fill="white" transform="translate(14)"/>
</clipPath>
</defs>
</svg>
