<svg width="95" height="126" viewBox="0 0 95 126" fill="none" xmlns="http://www.w3.org/2000/svg">
<g clip-path="url(#clip0)">
<path d="M21.2478 65.069C18.3204 65.069 10.9954 64.955 6.40885 63.9147H3.81763L4.93001 74.8121C9.13858 77.7152 15.6484 74.3959 19.1688 71.4664C19.1673 71.4301 19.1587 71.3937 19.1587 71.3574C19.1587 69.6433 20.3735 68.2528 21.8711 68.2528C23.3701 68.2528 24.5835 69.6433 24.5835 71.3574C24.5835 73.0715 23.3701 74.462 21.8711 74.462C21.633 74.462 21.4051 74.4174 21.1858 74.3497C21.0963 74.4719 21.0025 74.5908 20.877 74.6948C16.8069 78.1065 10.4703 80.8313 5.36573 79.0776L6.68442 91.9896H6.7479C7.38705 93.3784 13.5261 94.4667 21.0155 94.4667C28.505 94.4667 34.644 93.3784 35.2831 91.9896H35.3437L38.2105 63.9163H36.0839C31.5002 64.955 24.1737 65.069 21.2478 65.069Z" fill="#FAFAFA"/>
<path d="M34.5129 58.835L64.4866 3.7866C65.1185 2.62569 64.8083 1.09817 63.794 0.374869C62.7855 -0.34678 61.4495 0.00331045 60.8147 1.16587L29.7128 58.2851L29.3752 58.906C29.2049 59.2181 29.1083 59.56 29.0708 59.9034C26.8071 59.7383 24.1855 59.6392 21.248 59.6392C11.8267 59.6392 5.6473 60.6713 4.15259 61.53C5.6473 62.3871 11.8267 63.4209 21.248 63.4209C30.6694 63.4209 36.8473 62.3871 38.3435 61.53C37.6769 61.1486 36.0726 60.7324 33.6703 60.3856L34.5129 58.835Z" fill="#FAFAFA"/>
<path d="M78.1537 85.0289C76.4656 84.4889 74.8454 83.9621 73.1934 83.5492C73.5758 82.5716 72.7548 81.305 71.8213 81.2538C64.8902 80.8839 55.5165 80.3654 49.9489 86.056C49.7902 86.0279 49.6185 86.0164 49.4381 86.061C47.6289 86.492 45.9437 86.9874 44.2081 87.7123C43.1202 88.1665 42.6657 90.0177 43.8632 90.731C46.9508 92.5624 50.4755 93.5697 54.156 94.0074C55.1905 95.3813 57.2262 95.1881 59.5751 94.2732C65.0995 94.1741 70.6801 93.076 75.4543 91.7202C76.3185 91.4758 76.6417 90.4487 76.4094 89.6081C77.1178 89.1144 77.8161 88.6057 78.5043 88.0492C79.4868 87.2483 79.4334 85.4384 78.1537 85.0289Z" fill="#FAFAFA"/>
<path d="M44.6092 83.8797C44.6885 83.8583 44.7665 83.8632 44.8458 83.8451C44.8747 83.8616 44.8963 83.8781 44.9223 83.8864C46.5165 84.6113 48.6115 84.0779 50.0037 83.0937C51.2647 82.2003 50.6934 80.113 49.2751 80.0155C48.9693 79.9908 48.6648 80.0073 48.3604 80.004C47.9088 79.393 47.2004 79.2939 46.5627 79.6209C46.8296 79.4888 46.2597 79.682 46.1977 79.6985C45.938 79.7579 45.7447 79.7761 45.4792 79.8058C44.8732 79.8785 44.2557 79.9198 43.6613 80.075C43.354 80.1526 43.1303 80.3227 42.9644 80.539C42.6557 80.5902 42.3469 80.6414 42.0382 80.6943C40.203 81.0014 40.9864 84.177 42.8043 83.8797C43.0741 83.8368 43.3395 83.7939 43.605 83.7526C43.8835 83.9227 44.2168 83.9904 44.6092 83.8797Z" fill="#FAFAFA"/>
</g>
<path d="M11.9749 113.344C12.0282 113.493 12.0655 113.664 12.0869 113.856C12.1189 114.037 12.1349 114.224 12.1349 114.416C12.1349 114.608 12.1189 114.8 12.0869 114.992C12.0655 115.173 12.0335 115.333 11.9909 115.472C11.8202 116.069 11.4789 116.571 10.9669 116.976C10.4549 117.371 9.86821 117.659 9.20688 117.84C8.55621 118.021 7.87888 118.085 7.17488 118.032C6.48154 117.979 5.86288 117.803 5.31888 117.504C4.97754 117.312 4.68421 117.077 4.43888 116.8C4.19354 116.523 3.98554 116.213 3.81488 115.872C3.75088 115.755 3.70821 115.621 3.68688 115.472C3.67621 115.312 3.69221 115.163 3.73488 115.024C3.77754 114.875 3.84688 114.747 3.94288 114.64C4.03888 114.523 4.17221 114.443 4.34288 114.4C4.44954 114.379 4.56688 114.368 4.69488 114.368C4.83354 114.368 4.96688 114.389 5.09488 114.432C5.22288 114.464 5.34021 114.523 5.44688 114.608C5.55354 114.683 5.63888 114.789 5.70288 114.928C5.82021 115.152 5.98554 115.36 6.19888 115.552C6.42288 115.733 6.65754 115.883 6.90288 116C7.25488 116.117 7.60688 116.165 7.95888 116.144C8.32154 116.123 8.64688 116.043 8.93488 115.904C9.23354 115.765 9.47354 115.579 9.65488 115.344C9.83621 115.099 9.92688 114.821 9.92688 114.512C9.92688 114.256 9.88954 114.048 9.81488 113.888C9.74021 113.717 9.63354 113.579 9.49488 113.472C9.36688 113.355 9.20688 113.259 9.01488 113.184C8.83354 113.109 8.63088 113.045 8.40688 112.992C8.15088 112.939 7.88954 112.901 7.62288 112.88C7.36688 112.859 7.10554 112.832 6.83888 112.8C6.57221 112.768 6.31088 112.725 6.05488 112.672C5.79888 112.619 5.54821 112.539 5.30288 112.432C4.81221 112.229 4.43888 111.92 4.18288 111.504C3.92688 111.088 3.77221 110.64 3.71888 110.16C3.67621 109.68 3.73488 109.205 3.89488 108.736C4.05488 108.256 4.31088 107.845 4.66288 107.504C5.00421 107.195 5.40954 106.976 5.87888 106.848C6.35888 106.709 6.88688 106.629 7.46288 106.608C7.78288 106.597 8.10288 106.608 8.42288 106.64C8.75354 106.672 9.06821 106.725 9.36688 106.8C9.67621 106.875 9.95888 106.971 10.2149 107.088C10.4815 107.205 10.7109 107.344 10.9029 107.504C11.0415 107.611 11.1802 107.755 11.3189 107.936C11.4575 108.107 11.5642 108.293 11.6389 108.496C11.7135 108.688 11.7349 108.875 11.7029 109.056C11.6815 109.237 11.5695 109.392 11.3669 109.52C11.1962 109.627 11.0309 109.675 10.8709 109.664C10.7215 109.643 10.5775 109.595 10.4389 109.52C10.3002 109.435 10.1669 109.339 10.0389 109.232C9.91088 109.125 9.79354 109.029 9.68688 108.944C9.39888 108.731 9.04154 108.587 8.61488 108.512C8.18821 108.437 7.78821 108.421 7.41488 108.464C7.18021 108.496 6.96154 108.549 6.75888 108.624C6.55621 108.699 6.38021 108.8 6.23088 108.928C6.09221 109.056 5.98021 109.216 5.89488 109.408C5.82021 109.589 5.79354 109.797 5.81488 110.032C5.82554 110.203 5.87354 110.347 5.95888 110.464C6.05488 110.581 6.16688 110.677 6.29488 110.752C6.43354 110.827 6.58288 110.885 6.74288 110.928C6.90288 110.971 7.06288 111.003 7.22288 111.024C7.70288 111.088 8.18288 111.136 8.66288 111.168C9.14288 111.2 9.61221 111.307 10.0709 111.488C10.5402 111.669 10.9402 111.915 11.2709 112.224C11.6015 112.533 11.8362 112.907 11.9749 113.344ZM15.6133 108.592L15.5813 111.104H16.2213C16.6586 111.093 17.0479 111.088 17.3893 111.088C17.7306 111.088 18.1093 111.093 18.5253 111.104H18.6053C18.7333 111.104 18.8559 111.109 18.9733 111.12C19.1013 111.12 19.2239 111.12 19.3413 111.12C19.4693 111.131 19.5919 111.152 19.7093 111.184C19.8266 111.205 19.9439 111.232 20.0613 111.264C20.2426 111.328 20.3919 111.424 20.5093 111.552C20.6159 111.691 20.6693 111.845 20.6693 112.016C20.6693 112.069 20.6693 112.133 20.6693 112.208C20.6693 112.272 20.6586 112.331 20.6373 112.384C20.6159 112.501 20.5466 112.608 20.4293 112.704C20.3759 112.779 20.2746 112.832 20.1253 112.864C19.9866 112.907 19.8479 112.933 19.7093 112.944C19.5599 112.976 19.4106 112.992 19.2613 112.992H18.5093L15.5493 113.008L15.5173 116.144L18.7013 116.176H19.4533C19.5386 116.176 19.6186 116.176 19.6933 116.176C19.7679 116.176 19.8373 116.181 19.9013 116.192C19.9866 116.213 20.0613 116.229 20.1253 116.24C20.1999 116.24 20.2693 116.251 20.3333 116.272C20.4613 116.315 20.5679 116.373 20.6533 116.448C20.7599 116.555 20.8293 116.667 20.8612 116.784C20.8719 116.837 20.8773 116.896 20.8773 116.96C20.8879 117.013 20.8879 117.072 20.8773 117.136C20.8773 117.307 20.8239 117.461 20.7173 117.6C20.5893 117.749 20.4399 117.845 20.2693 117.888C20.0453 117.984 19.7999 118.032 19.5333 118.032C19.4159 118.043 19.2933 118.048 19.1653 118.048C19.0373 118.048 18.9146 118.053 18.7973 118.064H18.7013C17.8693 118.085 17.0053 118.085 16.1093 118.064C15.8959 118.064 15.7253 118.059 15.5973 118.048C15.4693 118.048 15.3519 118.048 15.2453 118.048C15.1493 118.048 15.0479 118.048 14.9413 118.048C14.8346 118.048 14.6959 118.048 14.5253 118.048C14.2799 118.069 14.0773 118.027 13.9173 117.92C13.7999 117.845 13.7093 117.744 13.6453 117.616C13.6133 117.584 13.5973 117.552 13.5973 117.52C13.5866 117.499 13.5759 117.483 13.5653 117.472C13.5546 117.461 13.5439 117.445 13.5333 117.424C13.5119 117.371 13.4959 117.317 13.4853 117.264C13.4746 117.2 13.4693 117.141 13.4693 117.088C13.4586 117.035 13.4479 116.981 13.4373 116.928C13.4373 116.875 13.4319 116.821 13.4213 116.768V116.512C13.4213 116.469 13.4213 116.427 13.4213 116.384C13.4319 116.341 13.4373 116.299 13.4373 116.256V115.008L13.4693 112.704V110.576C13.4693 110.192 13.4693 109.851 13.4693 109.552C13.4799 109.253 13.4906 108.928 13.5013 108.576V108.496C13.5119 108.379 13.5173 108.272 13.5173 108.176C13.5279 108.069 13.5333 107.963 13.5333 107.856C13.5439 107.643 13.6026 107.435 13.7093 107.232C13.7519 107.147 13.7946 107.072 13.8372 107.008C13.8906 106.944 13.9599 106.891 14.0453 106.848C14.2053 106.752 14.3706 106.704 14.5413 106.704C14.6266 106.704 14.6906 106.709 14.7333 106.72V106.704C14.9253 106.704 15.0799 106.704 15.1973 106.704C15.3146 106.704 15.4266 106.704 15.5333 106.704C15.6506 106.704 15.7733 106.704 15.9013 106.704C16.0293 106.693 16.2053 106.688 16.4293 106.688C16.8559 106.677 17.2613 106.672 17.6453 106.672C18.0293 106.672 18.4239 106.677 18.8293 106.688H18.8933C19.0106 106.699 19.1333 106.704 19.2613 106.704C19.3893 106.704 19.5119 106.709 19.6293 106.72C19.7466 106.72 19.8639 106.736 19.9813 106.768C20.0986 106.789 20.2159 106.821 20.3333 106.864C20.5146 106.917 20.6639 107.008 20.7812 107.136C20.8773 107.285 20.9253 107.435 20.9253 107.584C20.9253 107.648 20.9253 107.712 20.9253 107.776C20.9253 107.829 20.9146 107.883 20.8933 107.936C20.8826 108.043 20.8186 108.155 20.7013 108.272C20.6586 108.293 20.6106 108.32 20.5573 108.352C20.5146 108.384 20.4613 108.411 20.3973 108.432C20.3333 108.453 20.2639 108.469 20.1893 108.48C20.1253 108.48 20.0613 108.485 19.9973 108.496C19.9119 108.517 19.8319 108.528 19.7573 108.528C19.6933 108.528 19.6186 108.528 19.5333 108.528H18.8133L15.6133 108.544V108.592ZM30.4585 117.296C30.4692 117.403 30.4585 117.504 30.4265 117.6C30.4052 117.664 30.3732 117.717 30.3305 117.76C30.2985 117.803 30.2558 117.845 30.2025 117.888C30.1065 117.952 29.9892 118.011 29.8505 118.064C29.7652 118.085 29.6798 118.101 29.5945 118.112C29.5198 118.133 29.4398 118.133 29.3545 118.112C29.1838 118.101 29.0345 118.037 28.9065 117.92C28.7252 117.771 28.5758 117.605 28.4585 117.424C28.4052 117.339 28.3465 117.243 28.2825 117.136C28.2185 117.029 28.1598 116.917 28.1065 116.8L26.3305 113.424C26.2452 113.424 26.1598 113.429 26.0745 113.44C25.9892 113.44 25.9038 113.445 25.8185 113.456C25.5945 113.477 25.3812 113.483 25.1785 113.472C24.9865 113.461 24.7838 113.461 24.5705 113.472H24.2665V116.368C24.2665 116.453 24.2612 116.533 24.2505 116.608C24.2505 116.683 24.2505 116.763 24.2505 116.848C24.2505 116.901 24.2452 116.971 24.2345 117.056C24.2345 117.141 24.2292 117.221 24.2185 117.296C24.1972 117.413 24.1492 117.536 24.0745 117.664C23.9998 117.781 23.8985 117.883 23.7705 117.968C23.5465 118.107 23.2745 118.144 22.9545 118.08C22.8158 118.048 22.6825 117.995 22.5545 117.92C22.5118 117.888 22.4745 117.851 22.4425 117.808C22.4105 117.755 22.3838 117.701 22.3625 117.648C22.3412 117.595 22.3198 117.541 22.2985 117.488C22.2878 117.424 22.2718 117.365 22.2505 117.312C22.2185 117.205 22.2025 117.104 22.2025 117.008V107.92C22.2025 107.856 22.2025 107.792 22.2025 107.728C22.2132 107.653 22.2238 107.589 22.2345 107.536C22.2452 107.419 22.2825 107.301 22.3465 107.184C22.3785 107.056 22.4318 106.965 22.5065 106.912C22.5705 106.848 22.6665 106.795 22.7945 106.752C22.9332 106.699 23.1305 106.677 23.3865 106.688C23.8665 106.699 24.3412 106.704 24.8105 106.704C25.2798 106.704 25.7492 106.715 26.2185 106.736C26.5278 106.757 26.8532 106.795 27.1945 106.848C27.5465 106.891 27.8718 106.971 28.1705 107.088C28.3625 107.163 28.5385 107.237 28.6985 107.312C28.9012 107.429 29.0612 107.541 29.1785 107.648C29.5518 107.989 29.8345 108.4 30.0265 108.88C30.2185 109.36 30.3145 109.845 30.3145 110.336C30.3145 110.912 30.1758 111.44 29.8985 111.92C29.6318 112.4 29.1998 112.757 28.6025 112.992C28.5812 113.013 28.5492 113.029 28.5065 113.04C28.4745 113.04 28.4478 113.045 28.4265 113.056L29.8985 116.016L30.0425 116.272C30.0638 116.315 30.0905 116.363 30.1225 116.416C30.1545 116.469 30.1812 116.523 30.2025 116.576C30.2345 116.629 30.2612 116.688 30.2825 116.752C30.3145 116.816 30.3465 116.875 30.3785 116.928C30.4105 117.077 30.4372 117.2 30.4585 117.296ZM26.4585 111.6C26.6505 111.6 26.8318 111.568 27.0025 111.504C27.1838 111.429 27.3438 111.333 27.4825 111.216C27.6318 111.099 27.7545 110.965 27.8505 110.816C27.9465 110.656 27.9998 110.485 28.0105 110.304C28.0532 109.771 27.9145 109.376 27.5945 109.12C27.2745 108.853 26.8532 108.709 26.3305 108.688C26.0212 108.667 25.6798 108.656 25.3065 108.656C24.9438 108.656 24.5972 108.656 24.2665 108.656C24.2772 109.093 24.2772 109.541 24.2665 110C24.2665 110.448 24.2665 110.981 24.2665 111.6H26.4585ZM38.6774 107.68C39.0827 108.053 39.3814 108.501 39.5734 109.024C39.7654 109.536 39.84 110.048 39.7974 110.56C39.7547 111.051 39.6 111.504 39.3334 111.92C39.0667 112.325 38.6614 112.635 38.1174 112.848C37.6907 113.029 37.2694 113.157 36.8534 113.232C36.4374 113.307 35.9787 113.365 35.4774 113.408C35.2534 113.429 35.0614 113.445 34.9014 113.456C34.752 113.456 34.576 113.461 34.3734 113.472C34.3307 113.472 34.256 113.472 34.1494 113.472C34.0534 113.472 33.984 113.477 33.9414 113.488V116.8C33.9094 117.003 33.8667 117.211 33.8134 117.424C33.7707 117.637 33.648 117.803 33.4454 117.92C33.328 117.984 33.184 118.021 33.0134 118.032C32.8427 118.043 32.688 118.037 32.5494 118.016C32.4 117.995 32.272 117.957 32.1654 117.904C32.0694 117.84 31.9894 117.733 31.9254 117.584C31.8827 117.488 31.84 117.381 31.7974 117.264C31.7654 117.136 31.7494 116.981 31.7494 116.8V107.952C31.7494 107.877 31.7547 107.808 31.7654 107.744C31.776 107.68 31.7867 107.616 31.7974 107.552C31.8187 107.499 31.8347 107.44 31.8454 107.376C31.856 107.312 31.872 107.253 31.8934 107.2C31.9147 107.147 31.936 107.099 31.9574 107.056C31.9894 107.013 32.0267 106.976 32.0694 106.944C32.1227 106.891 32.2027 106.843 32.3094 106.8C32.4267 106.757 32.5974 106.736 32.8214 106.736H32.8534C33.184 106.715 33.552 106.699 33.9574 106.688C34.3627 106.667 34.6987 106.672 34.9654 106.704C35.1147 106.725 35.2534 106.741 35.3814 106.752C35.5094 106.752 35.632 106.757 35.7494 106.768C35.8774 106.779 36.0054 106.789 36.1334 106.8C36.2614 106.811 36.3894 106.827 36.5174 106.848C36.624 106.869 36.72 106.885 36.8054 106.896C36.9014 106.907 36.9974 106.923 37.0934 106.944C37.1787 106.965 37.2694 106.987 37.3654 107.008C37.472 107.029 37.568 107.067 37.6534 107.12C37.8774 107.184 38.064 107.264 38.2134 107.36C38.3627 107.456 38.5174 107.563 38.6774 107.68ZM37.7174 110.32C37.728 110.064 37.6747 109.84 37.5574 109.648C37.4507 109.456 37.296 109.296 37.0934 109.168C36.8907 109.04 36.6614 108.939 36.4054 108.864C36.1494 108.789 35.8934 108.736 35.6374 108.704C35.5734 108.704 35.4827 108.704 35.3654 108.704C35.2587 108.693 35.1414 108.688 35.0134 108.688C34.8854 108.677 34.7627 108.672 34.6454 108.672C34.5387 108.661 34.4534 108.656 34.3894 108.656C34.336 108.645 34.272 108.64 34.1974 108.64C34.1227 108.64 34.0374 108.64 33.9414 108.64C33.952 108.971 33.9574 109.291 33.9574 109.6C33.9574 109.899 33.9574 110.224 33.9574 110.576C33.9467 110.768 33.9414 110.96 33.9414 111.152C33.9414 111.344 33.9414 111.531 33.9414 111.712L34.9334 111.696C35.1894 111.696 35.472 111.68 35.7814 111.648C36.0907 111.616 36.384 111.552 36.6614 111.456C36.9387 111.36 37.1734 111.221 37.3654 111.04C37.568 110.859 37.6854 110.619 37.7174 110.32ZM41.6048 116.304L41.6208 115.04L41.6368 112.688C41.6474 112.347 41.6528 111.995 41.6528 111.632C41.6528 111.269 41.6528 110.896 41.6528 110.512C41.6528 110.128 41.6528 109.787 41.6528 109.488C41.6528 109.189 41.6634 108.853 41.6848 108.48V108.416C41.6954 108.309 41.7008 108.203 41.7008 108.096C41.7114 107.979 41.7168 107.861 41.7168 107.744C41.7274 107.552 41.7861 107.344 41.8928 107.12C41.9674 106.971 42.0794 106.843 42.2288 106.736C42.3994 106.651 42.5648 106.608 42.7248 106.608C42.8101 106.608 42.8848 106.613 42.9488 106.624C43.0234 106.624 43.0928 106.629 43.1568 106.64C43.2954 106.661 43.4181 106.725 43.5248 106.832C43.5888 106.885 43.6474 106.971 43.7008 107.088C43.7221 107.152 43.7381 107.216 43.7488 107.28C43.7701 107.333 43.7861 107.392 43.7968 107.456C43.8074 107.531 43.8128 107.6 43.8128 107.664C43.8234 107.728 43.8288 107.792 43.8288 107.856C43.8288 107.931 43.8234 108 43.8128 108.064C43.8128 108.117 43.8128 108.176 43.8128 108.24V108.512L43.7168 116.816V116.976C43.7168 117.008 43.7114 117.051 43.7008 117.104C43.7008 117.147 43.6954 117.2 43.6848 117.264C43.6634 117.317 43.6421 117.376 43.6208 117.44C43.6101 117.493 43.5941 117.552 43.5728 117.616C43.5408 117.669 43.5034 117.723 43.4608 117.776C43.4288 117.819 43.3861 117.861 43.3328 117.904C43.2474 117.989 43.1088 118.048 42.9168 118.08C42.6288 118.144 42.3568 118.117 42.1008 118C41.9728 117.915 41.8821 117.808 41.8288 117.68C41.7968 117.648 41.7808 117.616 41.7808 117.584C41.7701 117.563 41.7594 117.547 41.7488 117.536C41.7381 117.525 41.7274 117.509 41.7168 117.488C41.6954 117.435 41.6794 117.381 41.6688 117.328C41.6581 117.264 41.6528 117.2 41.6528 117.136C41.6421 117.083 41.6314 117.029 41.6208 116.976C41.6208 116.923 41.6154 116.869 41.6048 116.816C41.5941 116.731 41.5941 116.64 41.6048 116.544V116.304ZM52.9851 116.784C53.0065 116.837 53.0171 116.917 53.0171 117.024C53.0171 117.12 53.0171 117.2 53.0171 117.264C53.0171 117.349 53.0011 117.429 52.9691 117.504C52.9371 117.579 52.8945 117.648 52.8411 117.712C52.7451 117.84 52.6065 117.936 52.4251 118C52.1691 118.085 51.9291 118.128 51.7051 118.128C51.5878 118.139 51.4651 118.144 51.3371 118.144C51.2091 118.144 51.0811 118.155 50.9531 118.176H50.8891C50.0678 118.187 49.2198 118.187 48.3451 118.176C48.1318 118.165 47.8918 118.165 47.6251 118.176C47.3585 118.197 47.0971 118.192 46.8411 118.16C46.5851 118.139 46.3505 118.08 46.1371 117.984C45.9345 117.877 45.7905 117.712 45.7051 117.488C45.6838 117.435 45.6678 117.387 45.6571 117.344C45.6465 117.291 45.6411 117.237 45.6411 117.184C45.5985 116.821 45.5825 116.464 45.5931 116.112C45.6038 115.76 45.6091 115.413 45.6091 115.072L45.6411 112.752V110.608C45.6411 110.224 45.6411 109.883 45.6411 109.584C45.6518 109.285 45.6625 108.955 45.6731 108.592V108.512C45.6838 108.405 45.6891 108.299 45.6891 108.192C45.6998 108.085 45.7051 107.979 45.7051 107.872C45.7265 107.627 45.7851 107.419 45.8811 107.248C45.9451 107.088 46.0571 106.96 46.2171 106.864C46.3558 106.768 46.5211 106.72 46.7131 106.72C46.7878 106.72 46.8571 106.725 46.9211 106.736C46.9958 106.736 47.0651 106.741 47.1291 106.752C47.1931 106.763 47.2518 106.784 47.3051 106.816C47.3691 106.848 47.4331 106.891 47.4971 106.944C47.5611 107.019 47.6198 107.109 47.6731 107.216C47.7158 107.333 47.7425 107.451 47.7531 107.568C47.7638 107.643 47.7745 107.712 47.7851 107.776C47.7958 107.84 47.8011 107.904 47.8011 107.968C47.7798 108.032 47.7691 108.096 47.7691 108.16C47.7691 108.224 47.7691 108.283 47.7691 108.336V108.624L47.7051 116.16L50.8731 116.192H51.6251C51.6891 116.192 51.7585 116.197 51.8331 116.208C51.9078 116.208 51.9825 116.213 52.0571 116.224C52.1425 116.235 52.2171 116.245 52.2811 116.256C52.3451 116.267 52.4091 116.283 52.4731 116.304C52.5905 116.336 52.6865 116.389 52.7611 116.464C52.8785 116.571 52.9531 116.677 52.9851 116.784ZM61.6883 116.784C61.7096 116.837 61.7203 116.917 61.7203 117.024C61.7203 117.12 61.7203 117.2 61.7203 117.264C61.7203 117.349 61.7043 117.429 61.6723 117.504C61.6403 117.579 61.5976 117.648 61.5443 117.712C61.4483 117.84 61.3096 117.936 61.1283 118C60.8723 118.085 60.6323 118.128 60.4083 118.128C60.2909 118.139 60.1683 118.144 60.0403 118.144C59.9123 118.144 59.7843 118.155 59.6563 118.176H59.5923C58.7709 118.187 57.9229 118.187 57.0483 118.176C56.8349 118.165 56.5949 118.165 56.3283 118.176C56.0616 118.197 55.8003 118.192 55.5443 118.16C55.2883 118.139 55.0536 118.08 54.8403 117.984C54.6376 117.877 54.4936 117.712 54.4083 117.488C54.3869 117.435 54.3709 117.387 54.3603 117.344C54.3496 117.291 54.3443 117.237 54.3443 117.184C54.3016 116.821 54.2856 116.464 54.2963 116.112C54.3069 115.76 54.3123 115.413 54.3123 115.072L54.3443 112.752V110.608C54.3443 110.224 54.3443 109.883 54.3443 109.584C54.3549 109.285 54.3656 108.955 54.3763 108.592V108.512C54.3869 108.405 54.3923 108.299 54.3923 108.192C54.4029 108.085 54.4083 107.979 54.4083 107.872C54.4296 107.627 54.4883 107.419 54.5843 107.248C54.6483 107.088 54.7603 106.96 54.9203 106.864C55.0589 106.768 55.2243 106.72 55.4163 106.72C55.4909 106.72 55.5603 106.725 55.6243 106.736C55.6989 106.736 55.7683 106.741 55.8323 106.752C55.8963 106.763 55.9549 106.784 56.0082 106.816C56.0723 106.848 56.1363 106.891 56.2003 106.944C56.2643 107.019 56.3229 107.109 56.3763 107.216C56.4189 107.333 56.4456 107.451 56.4563 107.568C56.4669 107.643 56.4776 107.712 56.4883 107.776C56.4989 107.84 56.5043 107.904 56.5043 107.968C56.4829 108.032 56.4723 108.096 56.4723 108.16C56.4723 108.224 56.4723 108.283 56.4723 108.336V108.624L56.4083 116.16L59.5763 116.192H60.3283C60.3923 116.192 60.4616 116.197 60.5363 116.208C60.6109 116.208 60.6856 116.213 60.7603 116.224C60.8456 116.235 60.9203 116.245 60.9843 116.256C61.0483 116.267 61.1123 116.283 61.1763 116.304C61.2936 116.336 61.3896 116.389 61.4643 116.464C61.5816 116.571 61.6563 116.677 61.6883 116.784ZM63.4954 116.304L63.5114 115.04L63.5274 112.688C63.538 112.347 63.5434 111.995 63.5434 111.632C63.5434 111.269 63.5434 110.896 63.5434 110.512C63.5434 110.128 63.5434 109.787 63.5434 109.488C63.5434 109.189 63.554 108.853 63.5754 108.48V108.416C63.586 108.309 63.5914 108.203 63.5914 108.096C63.602 107.979 63.6074 107.861 63.6074 107.744C63.618 107.552 63.6767 107.344 63.7834 107.12C63.858 106.971 63.97 106.843 64.1194 106.736C64.29 106.651 64.4554 106.608 64.6154 106.608C64.7007 106.608 64.7754 106.613 64.8394 106.624C64.914 106.624 64.9834 106.629 65.0474 106.64C65.186 106.661 65.3087 106.725 65.4154 106.832C65.4794 106.885 65.538 106.971 65.5914 107.088C65.6127 107.152 65.6287 107.216 65.6394 107.28C65.6607 107.333 65.6767 107.392 65.6874 107.456C65.698 107.531 65.7034 107.6 65.7034 107.664C65.714 107.728 65.7194 107.792 65.7194 107.856C65.7194 107.931 65.714 108 65.7034 108.064C65.7034 108.117 65.7034 108.176 65.7034 108.24V108.512L65.6074 116.816V116.976C65.6074 117.008 65.602 117.051 65.5914 117.104C65.5914 117.147 65.586 117.2 65.5754 117.264C65.554 117.317 65.5327 117.376 65.5114 117.44C65.5007 117.493 65.4847 117.552 65.4634 117.616C65.4314 117.669 65.394 117.723 65.3514 117.776C65.3194 117.819 65.2767 117.861 65.2234 117.904C65.138 117.989 64.9994 118.048 64.8074 118.08C64.5194 118.144 64.2474 118.117 63.9914 118C63.8634 117.915 63.7727 117.808 63.7194 117.68C63.6874 117.648 63.6714 117.616 63.6714 117.584C63.6607 117.563 63.65 117.547 63.6394 117.536C63.6287 117.525 63.618 117.509 63.6074 117.488C63.586 117.435 63.57 117.381 63.5594 117.328C63.5487 117.264 63.5434 117.2 63.5434 117.136C63.5327 117.083 63.522 117.029 63.5114 116.976C63.5114 116.923 63.506 116.869 63.4954 116.816C63.4847 116.731 63.4847 116.64 63.4954 116.544V116.304ZM69.6758 108.592L69.6438 111.104H70.2838C70.7211 111.093 71.1104 111.088 71.4518 111.088C71.7931 111.088 72.1718 111.093 72.5878 111.104H72.6678C72.7958 111.104 72.9184 111.109 73.0358 111.12C73.1638 111.12 73.2864 111.12 73.4038 111.12C73.5318 111.131 73.6544 111.152 73.7718 111.184C73.8891 111.205 74.0064 111.232 74.1238 111.264C74.3051 111.328 74.4544 111.424 74.5718 111.552C74.6784 111.691 74.7318 111.845 74.7318 112.016C74.7318 112.069 74.7318 112.133 74.7318 112.208C74.7318 112.272 74.7211 112.331 74.6998 112.384C74.6784 112.501 74.6091 112.608 74.4918 112.704C74.4384 112.779 74.3371 112.832 74.1878 112.864C74.0491 112.907 73.9104 112.933 73.7718 112.944C73.6224 112.976 73.4731 112.992 73.3238 112.992H72.5718L69.6118 113.008L69.5798 116.144L72.7638 116.176H73.5158C73.6011 116.176 73.6811 116.176 73.7558 116.176C73.8304 116.176 73.8998 116.181 73.9638 116.192C74.0491 116.213 74.1238 116.229 74.1878 116.24C74.2624 116.24 74.3318 116.251 74.3958 116.272C74.5238 116.315 74.6304 116.373 74.7158 116.448C74.8224 116.555 74.8918 116.667 74.9237 116.784C74.9344 116.837 74.9398 116.896 74.9398 116.96C74.9504 117.013 74.9504 117.072 74.9398 117.136C74.9398 117.307 74.8864 117.461 74.7798 117.6C74.6518 117.749 74.5024 117.845 74.3318 117.888C74.1078 117.984 73.8624 118.032 73.5958 118.032C73.4784 118.043 73.3558 118.048 73.2278 118.048C73.0998 118.048 72.9771 118.053 72.8598 118.064H72.7638C71.9318 118.085 71.0678 118.085 70.1718 118.064C69.9584 118.064 69.7878 118.059 69.6598 118.048C69.5318 118.048 69.4144 118.048 69.3078 118.048C69.2118 118.048 69.1104 118.048 69.0038 118.048C68.8971 118.048 68.7584 118.048 68.5878 118.048C68.3424 118.069 68.1398 118.027 67.9798 117.92C67.8624 117.845 67.7718 117.744 67.7078 117.616C67.6758 117.584 67.6598 117.552 67.6598 117.52C67.6491 117.499 67.6384 117.483 67.6278 117.472C67.6171 117.461 67.6064 117.445 67.5958 117.424C67.5744 117.371 67.5584 117.317 67.5478 117.264C67.5371 117.2 67.5318 117.141 67.5318 117.088C67.5211 117.035 67.5104 116.981 67.4998 116.928C67.4998 116.875 67.4944 116.821 67.4838 116.768V116.512C67.4838 116.469 67.4838 116.427 67.4838 116.384C67.4944 116.341 67.4998 116.299 67.4998 116.256V115.008L67.5318 112.704V110.576C67.5318 110.192 67.5318 109.851 67.5318 109.552C67.5424 109.253 67.5531 108.928 67.5638 108.576V108.496C67.5744 108.379 67.5798 108.272 67.5798 108.176C67.5904 108.069 67.5958 107.963 67.5958 107.856C67.6064 107.643 67.6651 107.435 67.7718 107.232C67.8144 107.147 67.8571 107.072 67.8997 107.008C67.9531 106.944 68.0224 106.891 68.1078 106.848C68.2678 106.752 68.4331 106.704 68.6038 106.704C68.6891 106.704 68.7531 106.709 68.7958 106.72V106.704C68.9878 106.704 69.1424 106.704 69.2598 106.704C69.3771 106.704 69.4891 106.704 69.5958 106.704C69.7131 106.704 69.8358 106.704 69.9638 106.704C70.0918 106.693 70.2678 106.688 70.4918 106.688C70.9184 106.677 71.3238 106.672 71.7078 106.672C72.0918 106.672 72.4864 106.677 72.8918 106.688H72.9558C73.0731 106.699 73.1958 106.704 73.3238 106.704C73.4518 106.704 73.5744 106.709 73.6918 106.72C73.8091 106.72 73.9264 106.736 74.0438 106.768C74.1611 106.789 74.2784 106.821 74.3958 106.864C74.5771 106.917 74.7264 107.008 74.8438 107.136C74.9398 107.285 74.9878 107.435 74.9878 107.584C74.9878 107.648 74.9878 107.712 74.9878 107.776C74.9878 107.829 74.9771 107.883 74.9558 107.936C74.9451 108.043 74.8811 108.155 74.7638 108.272C74.7211 108.293 74.6731 108.32 74.6198 108.352C74.5771 108.384 74.5238 108.411 74.4598 108.432C74.3958 108.453 74.3264 108.469 74.2518 108.48C74.1878 108.48 74.1238 108.485 74.0598 108.496C73.9744 108.517 73.8944 108.528 73.8198 108.528C73.7558 108.528 73.6811 108.528 73.5958 108.528H72.8758L69.6758 108.544V108.592ZM84.521 117.296C84.5317 117.403 84.521 117.504 84.489 117.6C84.4677 117.664 84.4357 117.717 84.393 117.76C84.361 117.803 84.3183 117.845 84.265 117.888C84.169 117.952 84.0517 118.011 83.913 118.064C83.8277 118.085 83.7423 118.101 83.657 118.112C83.5823 118.133 83.5023 118.133 83.417 118.112C83.2463 118.101 83.097 118.037 82.969 117.92C82.7877 117.771 82.6383 117.605 82.521 117.424C82.4677 117.339 82.409 117.243 82.345 117.136C82.281 117.029 82.2223 116.917 82.169 116.8L80.393 113.424C80.3077 113.424 80.2223 113.429 80.137 113.44C80.0517 113.44 79.9663 113.445 79.881 113.456C79.657 113.477 79.4437 113.483 79.241 113.472C79.049 113.461 78.8463 113.461 78.633 113.472H78.329V116.368C78.329 116.453 78.3237 116.533 78.313 116.608C78.313 116.683 78.313 116.763 78.313 116.848C78.313 116.901 78.3077 116.971 78.297 117.056C78.297 117.141 78.2917 117.221 78.281 117.296C78.2597 117.413 78.2117 117.536 78.137 117.664C78.0623 117.781 77.961 117.883 77.833 117.968C77.609 118.107 77.337 118.144 77.017 118.08C76.8783 118.048 76.745 117.995 76.617 117.92C76.5743 117.888 76.537 117.851 76.505 117.808C76.473 117.755 76.4463 117.701 76.425 117.648C76.4037 117.595 76.3823 117.541 76.361 117.488C76.3503 117.424 76.3343 117.365 76.313 117.312C76.281 117.205 76.265 117.104 76.265 117.008V107.92C76.265 107.856 76.265 107.792 76.265 107.728C76.2757 107.653 76.2863 107.589 76.297 107.536C76.3077 107.419 76.345 107.301 76.409 107.184C76.441 107.056 76.4943 106.965 76.569 106.912C76.633 106.848 76.729 106.795 76.857 106.752C76.9957 106.699 77.193 106.677 77.449 106.688C77.929 106.699 78.4037 106.704 78.873 106.704C79.3423 106.704 79.8117 106.715 80.281 106.736C80.5903 106.757 80.9157 106.795 81.257 106.848C81.609 106.891 81.9343 106.971 82.233 107.088C82.425 107.163 82.601 107.237 82.761 107.312C82.9637 107.429 83.1237 107.541 83.241 107.648C83.6143 107.989 83.897 108.4 84.089 108.88C84.281 109.36 84.377 109.845 84.377 110.336C84.377 110.912 84.2383 111.44 83.961 111.92C83.6943 112.4 83.2623 112.757 82.665 112.992C82.6437 113.013 82.6117 113.029 82.569 113.04C82.537 113.04 82.5103 113.045 82.489 113.056L83.961 116.016L84.105 116.272C84.1263 116.315 84.153 116.363 84.185 116.416C84.217 116.469 84.2437 116.523 84.265 116.576C84.297 116.629 84.3237 116.688 84.345 116.752C84.377 116.816 84.409 116.875 84.441 116.928C84.473 117.077 84.4997 117.2 84.521 117.296ZM80.521 111.6C80.713 111.6 80.8943 111.568 81.065 111.504C81.2463 111.429 81.4063 111.333 81.545 111.216C81.6943 111.099 81.817 110.965 81.913 110.816C82.009 110.656 82.0623 110.485 82.073 110.304C82.1157 109.771 81.977 109.376 81.657 109.12C81.337 108.853 80.9157 108.709 80.393 108.688C80.0837 108.667 79.7423 108.656 79.369 108.656C79.0063 108.656 78.6597 108.656 78.329 108.656C78.3397 109.093 78.3397 109.541 78.329 110C78.329 110.448 78.329 110.981 78.329 111.6H80.521ZM88.0039 108.592L87.9719 111.104H88.6119C89.0492 111.093 89.4385 111.088 89.7799 111.088C90.1212 111.088 90.4999 111.093 90.9159 111.104H90.9959C91.1239 111.104 91.2465 111.109 91.3639 111.12C91.4919 111.12 91.6145 111.12 91.7319 111.12C91.8599 111.131 91.9825 111.152 92.0999 111.184C92.2172 111.205 92.3345 111.232 92.4519 111.264C92.6332 111.328 92.7825 111.424 92.8999 111.552C93.0065 111.691 93.0599 111.845 93.0599 112.016C93.0599 112.069 93.0599 112.133 93.0599 112.208C93.0599 112.272 93.0492 112.331 93.0279 112.384C93.0065 112.501 92.9372 112.608 92.8199 112.704C92.7665 112.779 92.6652 112.832 92.5159 112.864C92.3772 112.907 92.2385 112.933 92.0999 112.944C91.9505 112.976 91.8012 112.992 91.6519 112.992H90.8999L87.9399 113.008L87.9079 116.144L91.0919 116.176H91.8439C91.9292 116.176 92.0092 116.176 92.0839 116.176C92.1585 116.176 92.2279 116.181 92.2919 116.192C92.3772 116.213 92.4519 116.229 92.5159 116.24C92.5905 116.24 92.6599 116.251 92.7239 116.272C92.8519 116.315 92.9585 116.373 93.0439 116.448C93.1505 116.555 93.2199 116.667 93.2519 116.784C93.2625 116.837 93.2679 116.896 93.2679 116.96C93.2785 117.013 93.2785 117.072 93.2679 117.136C93.2679 117.307 93.2145 117.461 93.1079 117.6C92.9799 117.749 92.8305 117.845 92.6599 117.888C92.4359 117.984 92.1905 118.032 91.9239 118.032C91.8065 118.043 91.6839 118.048 91.5559 118.048C91.4279 118.048 91.3052 118.053 91.1879 118.064H91.0919C90.2599 118.085 89.3959 118.085 88.4999 118.064C88.2865 118.064 88.1159 118.059 87.9879 118.048C87.8599 118.048 87.7425 118.048 87.6359 118.048C87.5399 118.048 87.4385 118.048 87.3319 118.048C87.2252 118.048 87.0865 118.048 86.9159 118.048C86.6705 118.069 86.4679 118.027 86.3079 117.92C86.1905 117.845 86.0999 117.744 86.0359 117.616C86.0039 117.584 85.9879 117.552 85.9879 117.52C85.9772 117.499 85.9665 117.483 85.9559 117.472C85.9452 117.461 85.9345 117.445 85.9239 117.424C85.9025 117.371 85.8865 117.317 85.8759 117.264C85.8652 117.2 85.8599 117.141 85.8599 117.088C85.8492 117.035 85.8385 116.981 85.8279 116.928C85.8279 116.875 85.8225 116.821 85.8119 116.768V116.512C85.8119 116.469 85.8119 116.427 85.8119 116.384C85.8225 116.341 85.8279 116.299 85.8279 116.256V115.008L85.8599 112.704V110.576C85.8599 110.192 85.8599 109.851 85.8599 109.552C85.8705 109.253 85.8812 108.928 85.8919 108.576V108.496C85.9025 108.379 85.9079 108.272 85.9079 108.176C85.9185 108.069 85.9239 107.963 85.9239 107.856C85.9345 107.643 85.9932 107.435 86.0999 107.232C86.1425 107.147 86.1852 107.072 86.2279 107.008C86.2812 106.944 86.3505 106.891 86.4359 106.848C86.5959 106.752 86.7612 106.704 86.9319 106.704C87.0172 106.704 87.0812 106.709 87.1239 106.72V106.704C87.3159 106.704 87.4705 106.704 87.5879 106.704C87.7052 106.704 87.8172 106.704 87.9239 106.704C88.0412 106.704 88.1639 106.704 88.2919 106.704C88.4199 106.693 88.5959 106.688 88.8199 106.688C89.2465 106.677 89.6519 106.672 90.0359 106.672C90.4199 106.672 90.8145 106.677 91.2199 106.688H91.2839C91.4012 106.699 91.5239 106.704 91.6519 106.704C91.7799 106.704 91.9025 106.709 92.0199 106.72C92.1372 106.72 92.2545 106.736 92.3719 106.768C92.4892 106.789 92.6065 106.821 92.7239 106.864C92.9052 106.917 93.0545 107.008 93.1719 107.136C93.2679 107.285 93.3159 107.435 93.3159 107.584C93.3159 107.648 93.3159 107.712 93.3159 107.776C93.3159 107.829 93.3052 107.883 93.2839 107.936C93.2732 108.043 93.2092 108.155 93.0919 108.272C93.0492 108.293 93.0012 108.32 92.9479 108.352C92.9052 108.384 92.8519 108.411 92.7879 108.432C92.7239 108.453 92.6545 108.469 92.5799 108.48C92.5159 108.48 92.4519 108.485 92.3879 108.496C92.3025 108.517 92.2225 108.528 92.1479 108.528C92.0839 108.528 92.0092 108.528 91.9239 108.528H91.2039L88.0039 108.544V108.592Z" fill="#FAFAFA"/>
<defs>
<clipPath id="clip0">
<rect width="83" height="95" fill="white"/>
</clipPath>
</defs>
</svg>
