<svg width="111" height="115" viewBox="0 0 111 115" fill="none" xmlns="http://www.w3.org/2000/svg">
<g clip-path="url(#clip0)">
<path d="M24.8265 59.3884C21.406 59.3884 12.8474 59.2843 7.48833 58.3348H4.46069L5.76042 68.2809C10.6778 70.9305 18.284 67.901 22.3973 65.2273C22.3956 65.1941 22.3855 65.1609 22.3855 65.1278C22.3855 63.5633 23.8049 62.2942 25.5547 62.2942C27.3062 62.2942 28.724 63.5633 28.724 65.1278C28.724 66.6922 27.3062 67.9613 25.5547 67.9613C25.2765 67.9613 25.0103 67.9206 24.754 67.8588C24.6495 67.9704 24.5399 68.0789 24.3932 68.1738C19.6376 71.2877 12.2338 73.7746 6.26953 72.174L7.81031 83.9588H7.88448C8.63128 85.2263 15.8043 86.2196 24.555 86.2196C33.3059 86.2196 40.4789 85.2263 41.2256 83.9588H41.2964L44.646 58.3363H42.1613C36.8056 59.2843 28.2452 59.3884 24.8265 59.3884Z" fill="#FAFAFA"/>
<path d="M40.3257 53.6986L75.3476 3.45601C76.0859 2.39645 75.7235 1.00229 74.5383 0.342132C73.36 -0.316516 71.799 0.00301089 71.0572 1.06408L34.7171 53.1967L34.3227 53.7634C34.1237 54.0483 34.0108 54.3603 33.967 54.6737C31.3221 54.523 28.2589 54.4326 24.8267 54.4326C13.8186 54.4326 6.5985 55.3746 4.85205 56.1583C6.5985 56.9406 13.8186 57.8841 24.8267 57.8841C35.8348 57.8841 43.0532 56.9406 44.8014 56.1583C44.0226 55.8102 42.1481 55.4304 39.3412 55.1138L40.3257 53.6986Z" fill="#FAFAFA"/>
<path d="M91.3165 77.6057C89.3441 77.1129 87.451 76.632 85.5208 76.2552C85.9676 75.3629 85.0083 74.2069 83.9176 74.1602C75.8192 73.8226 64.8667 73.3493 58.3614 78.5431C58.176 78.5175 57.9754 78.507 57.7646 78.5477C55.6507 78.9411 53.6817 79.3932 51.6538 80.0548C50.3826 80.4694 49.8516 82.159 51.2508 82.81C54.8584 84.4815 58.9767 85.4009 63.2771 85.8004C64.4858 87.0543 66.8644 86.878 69.6089 86.043C76.0637 85.9525 82.5842 84.9503 88.1625 83.7128C89.1722 83.4898 89.5499 82.5524 89.2784 81.7851C90.1061 81.3345 90.922 80.8703 91.7262 80.3623C92.8741 79.6314 92.8117 77.9795 91.3165 77.6057Z" fill="#FAFAFA"/>
<path d="M52.1224 76.5569C52.215 76.5374 52.3062 76.5419 52.3988 76.5253C52.4326 76.5404 52.4578 76.5555 52.4882 76.563C54.3509 77.2246 56.7988 76.7378 58.4254 75.8395C59.8988 75.0241 59.2313 73.1191 57.5741 73.0301C57.2168 73.0075 56.861 73.0226 56.5054 73.0196C55.9777 72.4619 55.15 72.3715 54.4049 72.6699C54.7168 72.5493 54.0509 72.7257 53.9784 72.7407C53.675 72.795 53.4491 72.8116 53.1389 72.8387C52.4309 72.905 51.7094 72.9427 51.0148 73.0844C50.6558 73.1552 50.3944 73.3104 50.2006 73.5079C49.8399 73.5546 49.4791 73.6013 49.1184 73.6496C46.9741 73.9299 47.8894 76.8283 50.0135 76.5569C50.3287 76.5178 50.6388 76.4786 50.9491 76.4409C51.2745 76.5962 51.6639 76.658 52.1224 76.5569Z" fill="#FAFAFA"/>
<path d="M22.4202 101.344C22.4735 101.493 22.5109 101.664 22.5322 101.856C22.5642 102.037 22.5802 102.224 22.5802 102.416C22.5802 102.608 22.5642 102.8 22.5322 102.992C22.5109 103.173 22.4789 103.333 22.4362 103.472C22.2655 104.069 21.9242 104.571 21.4122 104.976C20.9002 105.371 20.3135 105.659 19.6522 105.84C19.0015 106.021 18.3242 106.085 17.6202 106.032C16.9269 105.979 16.3082 105.803 15.7642 105.504C15.4229 105.312 15.1295 105.077 14.8842 104.8C14.6389 104.523 14.4309 104.213 14.2602 103.872C14.1962 103.755 14.1535 103.621 14.1322 103.472C14.1215 103.312 14.1375 103.163 14.1802 103.024C14.2229 102.875 14.2922 102.747 14.3882 102.64C14.4842 102.523 14.6175 102.443 14.7882 102.4C14.8949 102.379 15.0122 102.368 15.1402 102.368C15.2789 102.368 15.4122 102.389 15.5402 102.432C15.6682 102.464 15.7855 102.523 15.8922 102.608C15.9989 102.683 16.0842 102.789 16.1482 102.928C16.2655 103.152 16.4309 103.36 16.6442 103.552C16.8682 103.733 17.1029 103.883 17.3482 104C17.7002 104.117 18.0522 104.165 18.4042 104.144C18.7669 104.123 19.0922 104.043 19.3802 103.904C19.6789 103.765 19.9189 103.579 20.1002 103.344C20.2815 103.099 20.3722 102.821 20.3722 102.512C20.3722 102.256 20.3349 102.048 20.2602 101.888C20.1855 101.717 20.0789 101.579 19.9402 101.472C19.8122 101.355 19.6522 101.259 19.4602 101.184C19.2789 101.109 19.0762 101.045 18.8522 100.992C18.5962 100.939 18.3349 100.901 18.0682 100.88C17.8122 100.859 17.5509 100.832 17.2842 100.8C17.0175 100.768 16.7562 100.725 16.5002 100.672C16.2442 100.619 15.9935 100.539 15.7482 100.432C15.2575 100.229 14.8842 99.92 14.6282 99.504C14.3722 99.088 14.2175 98.64 14.1642 98.16C14.1215 97.68 14.1802 97.2053 14.3402 96.736C14.5002 96.256 14.7562 95.8453 15.1082 95.504C15.4495 95.1947 15.8549 94.976 16.3242 94.848C16.8042 94.7093 17.3322 94.6293 17.9082 94.608C18.2282 94.5973 18.5482 94.608 18.8682 94.64C19.1989 94.672 19.5135 94.7253 19.8122 94.8C20.1215 94.8747 20.4042 94.9707 20.6602 95.088C20.9269 95.2053 21.1562 95.344 21.3482 95.504C21.4869 95.6107 21.6255 95.7547 21.7642 95.936C21.9029 96.1067 22.0095 96.2933 22.0842 96.496C22.1589 96.688 22.1802 96.8747 22.1482 97.056C22.1269 97.2373 22.0149 97.392 21.8122 97.52C21.6415 97.6267 21.4762 97.6747 21.3162 97.664C21.1669 97.6427 21.0229 97.5947 20.8842 97.52C20.7455 97.4347 20.6122 97.3387 20.4842 97.232C20.3562 97.1253 20.2389 97.0293 20.1322 96.944C19.8442 96.7307 19.4869 96.5867 19.0602 96.512C18.6335 96.4373 18.2335 96.4213 17.8602 96.464C17.6255 96.496 17.4069 96.5493 17.2042 96.624C17.0015 96.6987 16.8255 96.8 16.6762 96.928C16.5375 97.056 16.4255 97.216 16.3402 97.408C16.2655 97.5893 16.2389 97.7973 16.2602 98.032C16.2709 98.2027 16.3189 98.3467 16.4042 98.464C16.5002 98.5813 16.6122 98.6773 16.7402 98.752C16.8789 98.8267 17.0282 98.8853 17.1882 98.928C17.3482 98.9707 17.5082 99.0027 17.6682 99.024C18.1482 99.088 18.6282 99.136 19.1082 99.168C19.5882 99.2 20.0575 99.3067 20.5162 99.488C20.9855 99.6693 21.3855 99.9147 21.7162 100.224C22.0469 100.533 22.2815 100.907 22.4202 101.344ZM26.0586 96.592L26.0266 99.104H26.6666C27.1039 99.0933 27.4932 99.088 27.8346 99.088C28.1759 99.088 28.5546 99.0933 28.9706 99.104H29.0506C29.1786 99.104 29.3012 99.1093 29.4186 99.12C29.5466 99.12 29.6692 99.12 29.7866 99.12C29.9146 99.1307 30.0372 99.152 30.1546 99.184C30.2719 99.2053 30.3892 99.232 30.5066 99.264C30.6879 99.328 30.8372 99.424 30.9546 99.552C31.0612 99.6907 31.1146 99.8453 31.1146 100.016C31.1146 100.069 31.1146 100.133 31.1146 100.208C31.1146 100.272 31.1039 100.331 31.0826 100.384C31.0612 100.501 30.9919 100.608 30.8746 100.704C30.8212 100.779 30.7199 100.832 30.5706 100.864C30.4319 100.907 30.2932 100.933 30.1546 100.944C30.0052 100.976 29.8559 100.992 29.7066 100.992H28.9546L25.9946 101.008L25.9626 104.144L29.1466 104.176H29.8986C29.9839 104.176 30.0639 104.176 30.1386 104.176C30.2132 104.176 30.2826 104.181 30.3466 104.192C30.4319 104.213 30.5066 104.229 30.5706 104.24C30.6452 104.24 30.7146 104.251 30.7786 104.272C30.9066 104.315 31.0132 104.373 31.0986 104.448C31.2052 104.555 31.2746 104.667 31.3066 104.784C31.3172 104.837 31.3226 104.896 31.3226 104.96C31.3332 105.013 31.3332 105.072 31.3226 105.136C31.3226 105.307 31.2692 105.461 31.1626 105.6C31.0346 105.749 30.8852 105.845 30.7146 105.888C30.4906 105.984 30.2452 106.032 29.9786 106.032C29.8612 106.043 29.7386 106.048 29.6106 106.048C29.4826 106.048 29.3599 106.053 29.2426 106.064H29.1466C28.3146 106.085 27.4506 106.085 26.5546 106.064C26.3412 106.064 26.1706 106.059 26.0426 106.048C25.9146 106.048 25.7972 106.048 25.6906 106.048C25.5946 106.048 25.4932 106.048 25.3866 106.048C25.2799 106.048 25.1412 106.048 24.9706 106.048C24.7252 106.069 24.5226 106.027 24.3626 105.92C24.2452 105.845 24.1546 105.744 24.0906 105.616C24.0586 105.584 24.0426 105.552 24.0426 105.52C24.0319 105.499 24.0212 105.483 24.0106 105.472C23.9999 105.461 23.9892 105.445 23.9786 105.424C23.9572 105.371 23.9412 105.317 23.9306 105.264C23.9199 105.2 23.9146 105.141 23.9146 105.088C23.9039 105.035 23.8932 104.981 23.8826 104.928C23.8826 104.875 23.8772 104.821 23.8666 104.768V104.512C23.8666 104.469 23.8666 104.427 23.8666 104.384C23.8772 104.341 23.8826 104.299 23.8826 104.256V103.008L23.9146 100.704V98.576C23.9146 98.192 23.9146 97.8507 23.9146 97.552C23.9252 97.2533 23.9359 96.928 23.9466 96.576V96.496C23.9572 96.3787 23.9626 96.272 23.9626 96.176C23.9732 96.0693 23.9786 95.9627 23.9786 95.856C23.9892 95.6427 24.0479 95.4347 24.1546 95.232C24.1972 95.1467 24.2399 95.072 24.2826 95.008C24.3359 94.944 24.4052 94.8907 24.4906 94.848C24.6506 94.752 24.8159 94.704 24.9866 94.704C25.0719 94.704 25.1359 94.7093 25.1786 94.72V94.704C25.3706 94.704 25.5252 94.704 25.6426 94.704C25.7599 94.704 25.8719 94.704 25.9786 94.704C26.0959 94.704 26.2186 94.704 26.3466 94.704C26.4746 94.6933 26.6506 94.688 26.8746 94.688C27.3012 94.6773 27.7066 94.672 28.0906 94.672C28.4746 94.672 28.8692 94.6773 29.2746 94.688H29.3386C29.4559 94.6987 29.5786 94.704 29.7066 94.704C29.8346 94.704 29.9572 94.7093 30.0746 94.72C30.1919 94.72 30.3092 94.736 30.4266 94.768C30.5439 94.7893 30.6612 94.8213 30.7786 94.864C30.9599 94.9173 31.1092 95.008 31.2266 95.136C31.3226 95.2853 31.3706 95.4347 31.3706 95.584C31.3706 95.648 31.3706 95.712 31.3706 95.776C31.3706 95.8293 31.3599 95.8827 31.3386 95.936C31.3279 96.0427 31.2639 96.1547 31.1466 96.272C31.1039 96.2933 31.0559 96.32 31.0026 96.352C30.9599 96.384 30.9066 96.4107 30.8426 96.432C30.7786 96.4533 30.7092 96.4693 30.6346 96.48C30.5706 96.48 30.5066 96.4853 30.4426 96.496C30.3572 96.5173 30.2772 96.528 30.2026 96.528C30.1386 96.528 30.0639 96.528 29.9786 96.528H29.2586L26.0586 96.544V96.592ZM40.9038 105.296C40.9145 105.403 40.9038 105.504 40.8718 105.6C40.8505 105.664 40.8185 105.717 40.7758 105.76C40.7438 105.803 40.7011 105.845 40.6478 105.888C40.5518 105.952 40.4345 106.011 40.2958 106.064C40.2105 106.085 40.1251 106.101 40.0398 106.112C39.9651 106.133 39.8851 106.133 39.7998 106.112C39.6291 106.101 39.4798 106.037 39.3518 105.92C39.1705 105.771 39.0211 105.605 38.9038 105.424C38.8505 105.339 38.7918 105.243 38.7278 105.136C38.6638 105.029 38.6051 104.917 38.5518 104.8L36.7758 101.424C36.6905 101.424 36.6051 101.429 36.5198 101.44C36.4345 101.44 36.3491 101.445 36.2638 101.456C36.0398 101.477 35.8265 101.483 35.6238 101.472C35.4318 101.461 35.2291 101.461 35.0158 101.472H34.7118V104.368C34.7118 104.453 34.7065 104.533 34.6958 104.608C34.6958 104.683 34.6958 104.763 34.6958 104.848C34.6958 104.901 34.6905 104.971 34.6798 105.056C34.6798 105.141 34.6745 105.221 34.6638 105.296C34.6425 105.413 34.5945 105.536 34.5198 105.664C34.4451 105.781 34.3438 105.883 34.2158 105.968C33.9918 106.107 33.7198 106.144 33.3998 106.08C33.2611 106.048 33.1278 105.995 32.9998 105.92C32.9571 105.888 32.9198 105.851 32.8878 105.808C32.8558 105.755 32.8291 105.701 32.8078 105.648C32.7865 105.595 32.7651 105.541 32.7438 105.488C32.7331 105.424 32.7171 105.365 32.6958 105.312C32.6638 105.205 32.6478 105.104 32.6478 105.008V95.92C32.6478 95.856 32.6478 95.792 32.6478 95.728C32.6585 95.6533 32.6691 95.5893 32.6798 95.536C32.6905 95.4187 32.7278 95.3013 32.7918 95.184C32.8238 95.056 32.8771 94.9653 32.9518 94.912C33.0158 94.848 33.1118 94.7947 33.2398 94.752C33.3785 94.6987 33.5758 94.6773 33.8318 94.688C34.3118 94.6987 34.7865 94.704 35.2558 94.704C35.7251 94.704 36.1945 94.7147 36.6638 94.736C36.9731 94.7573 37.2985 94.7947 37.6398 94.848C37.9918 94.8907 38.3171 94.9707 38.6158 95.088C38.8078 95.1627 38.9838 95.2373 39.1438 95.312C39.3465 95.4293 39.5065 95.5413 39.6238 95.648C39.9971 95.9893 40.2798 96.4 40.4718 96.88C40.6638 97.36 40.7598 97.8453 40.7598 98.336C40.7598 98.912 40.6211 99.44 40.3438 99.92C40.0771 100.4 39.6451 100.757 39.0478 100.992C39.0265 101.013 38.9945 101.029 38.9518 101.04C38.9198 101.04 38.8931 101.045 38.8718 101.056L40.3438 104.016L40.4878 104.272C40.5091 104.315 40.5358 104.363 40.5678 104.416C40.5998 104.469 40.6265 104.523 40.6478 104.576C40.6798 104.629 40.7065 104.688 40.7278 104.752C40.7598 104.816 40.7918 104.875 40.8238 104.928C40.8558 105.077 40.8825 105.2 40.9038 105.296ZM36.9038 99.6C37.0958 99.6 37.2771 99.568 37.4478 99.504C37.6291 99.4293 37.7891 99.3333 37.9278 99.216C38.0771 99.0987 38.1998 98.9653 38.2958 98.816C38.3918 98.656 38.4451 98.4853 38.4558 98.304C38.4985 97.7707 38.3598 97.376 38.0398 97.12C37.7198 96.8533 37.2985 96.7093 36.7758 96.688C36.4665 96.6667 36.1251 96.656 35.7518 96.656C35.3891 96.656 35.0425 96.656 34.7118 96.656C34.7225 97.0933 34.7225 97.5413 34.7118 98C34.7118 98.448 34.7118 98.9813 34.7118 99.6H36.9038ZM49.1227 95.68C49.528 96.0533 49.8267 96.5013 50.0187 97.024C50.2107 97.536 50.2854 98.048 50.2427 98.56C50.2 99.0507 50.0454 99.504 49.7787 99.92C49.512 100.325 49.1067 100.635 48.5627 100.848C48.136 101.029 47.7147 101.157 47.2987 101.232C46.8827 101.307 46.424 101.365 45.9227 101.408C45.6987 101.429 45.5067 101.445 45.3467 101.456C45.1974 101.456 45.0214 101.461 44.8187 101.472C44.776 101.472 44.7014 101.472 44.5947 101.472C44.4987 101.472 44.4294 101.477 44.3867 101.488V104.8C44.3547 105.003 44.312 105.211 44.2587 105.424C44.216 105.637 44.0934 105.803 43.8907 105.92C43.7734 105.984 43.6294 106.021 43.4587 106.032C43.288 106.043 43.1334 106.037 42.9947 106.016C42.8454 105.995 42.7174 105.957 42.6107 105.904C42.5147 105.84 42.4347 105.733 42.3707 105.584C42.328 105.488 42.2854 105.381 42.2427 105.264C42.2107 105.136 42.1947 104.981 42.1947 104.8V95.952C42.1947 95.8773 42.2 95.808 42.2107 95.744C42.2214 95.68 42.232 95.616 42.2427 95.552C42.264 95.4987 42.28 95.44 42.2907 95.376C42.3014 95.312 42.3174 95.2533 42.3387 95.2C42.36 95.1467 42.3814 95.0987 42.4027 95.056C42.4347 95.0133 42.472 94.976 42.5147 94.944C42.568 94.8907 42.648 94.8427 42.7547 94.8C42.872 94.7573 43.0427 94.736 43.2667 94.736H43.2987C43.6294 94.7147 43.9974 94.6987 44.4027 94.688C44.808 94.6667 45.144 94.672 45.4107 94.704C45.56 94.7253 45.6987 94.7413 45.8267 94.752C45.9547 94.752 46.0774 94.7573 46.1947 94.768C46.3227 94.7787 46.4507 94.7893 46.5787 94.8C46.7067 94.8107 46.8347 94.8267 46.9627 94.848C47.0694 94.8693 47.1654 94.8853 47.2507 94.896C47.3467 94.9067 47.4427 94.9227 47.5387 94.944C47.624 94.9653 47.7147 94.9867 47.8107 95.008C47.9174 95.0293 48.0134 95.0667 48.0987 95.12C48.3227 95.184 48.5094 95.264 48.6587 95.36C48.808 95.456 48.9627 95.5627 49.1227 95.68ZM48.1627 98.32C48.1734 98.064 48.12 97.84 48.0027 97.648C47.896 97.456 47.7414 97.296 47.5387 97.168C47.336 97.04 47.1067 96.9387 46.8507 96.864C46.5947 96.7893 46.3387 96.736 46.0827 96.704C46.0187 96.704 45.928 96.704 45.8107 96.704C45.704 96.6933 45.5867 96.688 45.4587 96.688C45.3307 96.6773 45.208 96.672 45.0907 96.672C44.984 96.6613 44.8987 96.656 44.8347 96.656C44.7814 96.6453 44.7174 96.64 44.6427 96.64C44.568 96.64 44.4827 96.64 44.3867 96.64C44.3974 96.9707 44.4027 97.2907 44.4027 97.6C44.4027 97.8987 44.4027 98.224 44.4027 98.576C44.392 98.768 44.3867 98.96 44.3867 99.152C44.3867 99.344 44.3867 99.5307 44.3867 99.712L45.3787 99.696C45.6347 99.696 45.9174 99.68 46.2267 99.648C46.536 99.616 46.8294 99.552 47.1067 99.456C47.384 99.36 47.6187 99.2213 47.8107 99.04C48.0134 98.8587 48.1307 98.6187 48.1627 98.32ZM52.0501 104.304L52.0661 103.04L52.0821 100.688C52.0927 100.347 52.0981 99.9947 52.0981 99.632C52.0981 99.2693 52.0981 98.896 52.0981 98.512C52.0981 98.128 52.0981 97.7867 52.0981 97.488C52.0981 97.1893 52.1087 96.8533 52.1301 96.48V96.416C52.1407 96.3093 52.1461 96.2027 52.1461 96.096C52.1567 95.9787 52.1621 95.8613 52.1621 95.744C52.1727 95.552 52.2314 95.344 52.3381 95.12C52.4127 94.9707 52.5247 94.8427 52.6741 94.736C52.8447 94.6507 53.0101 94.608 53.1701 94.608C53.2554 94.608 53.3301 94.6133 53.3941 94.624C53.4687 94.624 53.5381 94.6293 53.6021 94.64C53.7407 94.6613 53.8634 94.7253 53.9701 94.832C54.0341 94.8853 54.0927 94.9707 54.1461 95.088C54.1674 95.152 54.1834 95.216 54.1941 95.28C54.2154 95.3333 54.2314 95.392 54.2421 95.456C54.2527 95.5307 54.2581 95.6 54.2581 95.664C54.2687 95.728 54.2741 95.792 54.2741 95.856C54.2741 95.9307 54.2687 96 54.2581 96.064C54.2581 96.1173 54.2581 96.176 54.2581 96.24V96.512L54.1621 104.816V104.976C54.1621 105.008 54.1567 105.051 54.1461 105.104C54.1461 105.147 54.1407 105.2 54.1301 105.264C54.1087 105.317 54.0874 105.376 54.0661 105.44C54.0554 105.493 54.0394 105.552 54.0181 105.616C53.9861 105.669 53.9487 105.723 53.9061 105.776C53.8741 105.819 53.8314 105.861 53.7781 105.904C53.6927 105.989 53.5541 106.048 53.3621 106.08C53.0741 106.144 52.8021 106.117 52.5461 106C52.4181 105.915 52.3274 105.808 52.2741 105.68C52.2421 105.648 52.2261 105.616 52.2261 105.584C52.2154 105.563 52.2047 105.547 52.1941 105.536C52.1834 105.525 52.1727 105.509 52.1621 105.488C52.1407 105.435 52.1247 105.381 52.1141 105.328C52.1034 105.264 52.0981 105.2 52.0981 105.136C52.0874 105.083 52.0767 105.029 52.0661 104.976C52.0661 104.923 52.0607 104.869 52.0501 104.816C52.0394 104.731 52.0394 104.64 52.0501 104.544V104.304ZM58.2304 96.592L58.1984 99.104H58.8384C59.2758 99.0933 59.6651 99.088 60.0064 99.088C60.3478 99.088 60.7264 99.0933 61.1424 99.104H61.2224C61.3504 99.104 61.4731 99.1093 61.5904 99.12C61.7184 99.12 61.8411 99.12 61.9584 99.12C62.0864 99.1307 62.2091 99.152 62.3264 99.184C62.4438 99.2053 62.5611 99.232 62.6784 99.264C62.8598 99.328 63.0091 99.424 63.1264 99.552C63.2331 99.6907 63.2864 99.8453 63.2864 100.016C63.2864 100.069 63.2864 100.133 63.2864 100.208C63.2864 100.272 63.2758 100.331 63.2544 100.384C63.2331 100.501 63.1638 100.608 63.0464 100.704C62.9931 100.779 62.8918 100.832 62.7424 100.864C62.6038 100.907 62.4651 100.933 62.3264 100.944C62.1771 100.976 62.0278 100.992 61.8784 100.992H61.1264L58.1664 101.008L58.1344 104.144L61.3184 104.176H62.0704C62.1558 104.176 62.2358 104.176 62.3104 104.176C62.3851 104.176 62.4544 104.181 62.5184 104.192C62.6038 104.213 62.6784 104.229 62.7424 104.24C62.8171 104.24 62.8864 104.251 62.9504 104.272C63.0784 104.315 63.1851 104.373 63.2704 104.448C63.3771 104.555 63.4464 104.667 63.4784 104.784C63.4891 104.837 63.4944 104.896 63.4944 104.96C63.5051 105.013 63.5051 105.072 63.4944 105.136C63.4944 105.307 63.4411 105.461 63.3344 105.6C63.2064 105.749 63.0571 105.845 62.8864 105.888C62.6624 105.984 62.4171 106.032 62.1504 106.032C62.0331 106.043 61.9104 106.048 61.7824 106.048C61.6544 106.048 61.5318 106.053 61.4144 106.064H61.3184C60.4864 106.085 59.6224 106.085 58.7264 106.064C58.5131 106.064 58.3424 106.059 58.2144 106.048C58.0864 106.048 57.9691 106.048 57.8624 106.048C57.7664 106.048 57.6651 106.048 57.5584 106.048C57.4518 106.048 57.3131 106.048 57.1424 106.048C56.8971 106.069 56.6944 106.027 56.5344 105.92C56.4171 105.845 56.3264 105.744 56.2624 105.616C56.2304 105.584 56.2144 105.552 56.2144 105.52C56.2038 105.499 56.1931 105.483 56.1824 105.472C56.1718 105.461 56.1611 105.445 56.1504 105.424C56.1291 105.371 56.1131 105.317 56.1024 105.264C56.0918 105.2 56.0864 105.141 56.0864 105.088C56.0758 105.035 56.0651 104.981 56.0544 104.928C56.0544 104.875 56.0491 104.821 56.0384 104.768V104.512C56.0384 104.469 56.0384 104.427 56.0384 104.384C56.0491 104.341 56.0544 104.299 56.0544 104.256V103.008L56.0864 100.704V98.576C56.0864 98.192 56.0864 97.8507 56.0864 97.552C56.0971 97.2533 56.1078 96.928 56.1184 96.576V96.496C56.1291 96.3787 56.1344 96.272 56.1344 96.176C56.1451 96.0693 56.1504 95.9627 56.1504 95.856C56.1611 95.6427 56.2198 95.4347 56.3264 95.232C56.3691 95.1467 56.4118 95.072 56.4544 95.008C56.5078 94.944 56.5771 94.8907 56.6624 94.848C56.8224 94.752 56.9878 94.704 57.1584 94.704C57.2438 94.704 57.3078 94.7093 57.3504 94.72V94.704C57.5424 94.704 57.6971 94.704 57.8144 94.704C57.9318 94.704 58.0438 94.704 58.1504 94.704C58.2678 94.704 58.3904 94.704 58.5184 94.704C58.6464 94.6933 58.8224 94.688 59.0464 94.688C59.4731 94.6773 59.8784 94.672 60.2624 94.672C60.6464 94.672 61.0411 94.6773 61.4464 94.688H61.5104C61.6278 94.6987 61.7504 94.704 61.8784 94.704C62.0064 94.704 62.1291 94.7093 62.2464 94.72C62.3638 94.72 62.4811 94.736 62.5984 94.768C62.7158 94.7893 62.8331 94.8213 62.9504 94.864C63.1318 94.9173 63.2811 95.008 63.3984 95.136C63.4944 95.2853 63.5424 95.4347 63.5424 95.584C63.5424 95.648 63.5424 95.712 63.5424 95.776C63.5424 95.8293 63.5318 95.8827 63.5104 95.936C63.4998 96.0427 63.4358 96.1547 63.3184 96.272C63.2758 96.2933 63.2278 96.32 63.1744 96.352C63.1318 96.384 63.0784 96.4107 63.0144 96.432C62.9504 96.4533 62.8811 96.4693 62.8064 96.48C62.7424 96.48 62.6784 96.4853 62.6144 96.496C62.5291 96.5173 62.4491 96.528 62.3744 96.528C62.3104 96.528 62.2358 96.528 62.1504 96.528H61.4304L58.2304 96.544V96.592ZM73.0757 105.296C73.0864 105.403 73.0757 105.504 73.0437 105.6C73.0224 105.664 72.9904 105.717 72.9477 105.76C72.9157 105.803 72.873 105.845 72.8197 105.888C72.7237 105.952 72.6064 106.011 72.4677 106.064C72.3824 106.085 72.297 106.101 72.2117 106.112C72.137 106.133 72.057 106.133 71.9717 106.112C71.801 106.101 71.6517 106.037 71.5237 105.92C71.3424 105.771 71.193 105.605 71.0757 105.424C71.0224 105.339 70.9637 105.243 70.8997 105.136C70.8357 105.029 70.777 104.917 70.7237 104.8L68.9477 101.424C68.8624 101.424 68.777 101.429 68.6917 101.44C68.6064 101.44 68.521 101.445 68.4357 101.456C68.2117 101.477 67.9984 101.483 67.7957 101.472C67.6037 101.461 67.401 101.461 67.1877 101.472H66.8837V104.368C66.8837 104.453 66.8784 104.533 66.8677 104.608C66.8677 104.683 66.8677 104.763 66.8677 104.848C66.8677 104.901 66.8624 104.971 66.8517 105.056C66.8517 105.141 66.8464 105.221 66.8357 105.296C66.8144 105.413 66.7664 105.536 66.6917 105.664C66.617 105.781 66.5157 105.883 66.3877 105.968C66.1637 106.107 65.8917 106.144 65.5717 106.08C65.433 106.048 65.2997 105.995 65.1717 105.92C65.129 105.888 65.0917 105.851 65.0597 105.808C65.0277 105.755 65.001 105.701 64.9797 105.648C64.9584 105.595 64.937 105.541 64.9157 105.488C64.905 105.424 64.889 105.365 64.8677 105.312C64.8357 105.205 64.8197 105.104 64.8197 105.008V95.92C64.8197 95.856 64.8197 95.792 64.8197 95.728C64.8304 95.6533 64.841 95.5893 64.8517 95.536C64.8624 95.4187 64.8997 95.3013 64.9637 95.184C64.9957 95.056 65.049 94.9653 65.1237 94.912C65.1877 94.848 65.2837 94.7947 65.4117 94.752C65.5504 94.6987 65.7477 94.6773 66.0037 94.688C66.4837 94.6987 66.9584 94.704 67.4277 94.704C67.897 94.704 68.3664 94.7147 68.8357 94.736C69.145 94.7573 69.4704 94.7947 69.8117 94.848C70.1637 94.8907 70.489 94.9707 70.7877 95.088C70.9797 95.1627 71.1557 95.2373 71.3157 95.312C71.5184 95.4293 71.6784 95.5413 71.7957 95.648C72.169 95.9893 72.4517 96.4 72.6437 96.88C72.8357 97.36 72.9317 97.8453 72.9317 98.336C72.9317 98.912 72.793 99.44 72.5157 99.92C72.249 100.4 71.817 100.757 71.2197 100.992C71.1984 101.013 71.1664 101.029 71.1237 101.04C71.0917 101.04 71.065 101.045 71.0437 101.056L72.5157 104.016L72.6597 104.272C72.681 104.315 72.7077 104.363 72.7397 104.416C72.7717 104.469 72.7984 104.523 72.8197 104.576C72.8517 104.629 72.8784 104.688 72.8997 104.752C72.9317 104.816 72.9637 104.875 72.9957 104.928C73.0277 105.077 73.0544 105.2 73.0757 105.296ZM69.0757 99.6C69.2677 99.6 69.449 99.568 69.6197 99.504C69.801 99.4293 69.961 99.3333 70.0997 99.216C70.249 99.0987 70.3717 98.9653 70.4677 98.816C70.5637 98.656 70.617 98.4853 70.6277 98.304C70.6704 97.7707 70.5317 97.376 70.2117 97.12C69.8917 96.8533 69.4704 96.7093 68.9477 96.688C68.6384 96.6667 68.297 96.656 67.9237 96.656C67.561 96.656 67.2144 96.656 66.8837 96.656C66.8944 97.0933 66.8944 97.5413 66.8837 98C66.8837 98.448 66.8837 98.9813 66.8837 99.6H69.0757ZM76.5586 96.592L76.5266 99.104H77.1666C77.6039 99.0933 77.9932 99.088 78.3346 99.088C78.6759 99.088 79.0546 99.0933 79.4706 99.104H79.5506C79.6786 99.104 79.8012 99.1093 79.9186 99.12C80.0466 99.12 80.1692 99.12 80.2866 99.12C80.4146 99.1307 80.5372 99.152 80.6546 99.184C80.7719 99.2053 80.8892 99.232 81.0066 99.264C81.1879 99.328 81.3372 99.424 81.4546 99.552C81.5612 99.6907 81.6146 99.8453 81.6146 100.016C81.6146 100.069 81.6146 100.133 81.6146 100.208C81.6146 100.272 81.6039 100.331 81.5826 100.384C81.5612 100.501 81.4919 100.608 81.3746 100.704C81.3212 100.779 81.2199 100.832 81.0706 100.864C80.9319 100.907 80.7932 100.933 80.6546 100.944C80.5052 100.976 80.3559 100.992 80.2066 100.992H79.4546L76.4946 101.008L76.4626 104.144L79.6466 104.176H80.3986C80.4839 104.176 80.5639 104.176 80.6386 104.176C80.7132 104.176 80.7826 104.181 80.8466 104.192C80.9319 104.213 81.0066 104.229 81.0706 104.24C81.1452 104.24 81.2146 104.251 81.2786 104.272C81.4066 104.315 81.5132 104.373 81.5986 104.448C81.7052 104.555 81.7746 104.667 81.8066 104.784C81.8172 104.837 81.8226 104.896 81.8226 104.96C81.8332 105.013 81.8332 105.072 81.8226 105.136C81.8226 105.307 81.7692 105.461 81.6626 105.6C81.5346 105.749 81.3852 105.845 81.2146 105.888C80.9906 105.984 80.7452 106.032 80.4786 106.032C80.3612 106.043 80.2386 106.048 80.1106 106.048C79.9826 106.048 79.8599 106.053 79.7426 106.064H79.6466C78.8146 106.085 77.9506 106.085 77.0546 106.064C76.8412 106.064 76.6706 106.059 76.5426 106.048C76.4146 106.048 76.2972 106.048 76.1906 106.048C76.0946 106.048 75.9932 106.048 75.8866 106.048C75.7799 106.048 75.6412 106.048 75.4706 106.048C75.2252 106.069 75.0226 106.027 74.8626 105.92C74.7452 105.845 74.6546 105.744 74.5906 105.616C74.5586 105.584 74.5426 105.552 74.5426 105.52C74.5319 105.499 74.5212 105.483 74.5106 105.472C74.4999 105.461 74.4892 105.445 74.4786 105.424C74.4572 105.371 74.4412 105.317 74.4306 105.264C74.4199 105.2 74.4146 105.141 74.4146 105.088C74.4039 105.035 74.3932 104.981 74.3826 104.928C74.3826 104.875 74.3772 104.821 74.3666 104.768V104.512C74.3666 104.469 74.3666 104.427 74.3666 104.384C74.3772 104.341 74.3826 104.299 74.3826 104.256V103.008L74.4146 100.704V98.576C74.4146 98.192 74.4146 97.8507 74.4146 97.552C74.4252 97.2533 74.4359 96.928 74.4466 96.576V96.496C74.4572 96.3787 74.4626 96.272 74.4626 96.176C74.4732 96.0693 74.4786 95.9627 74.4786 95.856C74.4892 95.6427 74.5479 95.4347 74.6546 95.232C74.6972 95.1467 74.7399 95.072 74.7826 95.008C74.8359 94.944 74.9052 94.8907 74.9906 94.848C75.1506 94.752 75.3159 94.704 75.4866 94.704C75.5719 94.704 75.6359 94.7093 75.6786 94.72V94.704C75.8706 94.704 76.0252 94.704 76.1426 94.704C76.2599 94.704 76.3719 94.704 76.4786 94.704C76.5959 94.704 76.7186 94.704 76.8466 94.704C76.9746 94.6933 77.1506 94.688 77.3746 94.688C77.8012 94.6773 78.2066 94.672 78.5906 94.672C78.9746 94.672 79.3692 94.6773 79.7746 94.688H79.8386C79.9559 94.6987 80.0786 94.704 80.2066 94.704C80.3346 94.704 80.4572 94.7093 80.5746 94.72C80.6919 94.72 80.8092 94.736 80.9266 94.768C81.0439 94.7893 81.1612 94.8213 81.2786 94.864C81.4599 94.9173 81.6092 95.008 81.7266 95.136C81.8226 95.2853 81.8706 95.4347 81.8706 95.584C81.8706 95.648 81.8706 95.712 81.8706 95.776C81.8706 95.8293 81.8599 95.8827 81.8386 95.936C81.8279 96.0427 81.7639 96.1547 81.6466 96.272C81.6039 96.2933 81.5559 96.32 81.5026 96.352C81.4599 96.384 81.4066 96.4107 81.3426 96.432C81.2786 96.4533 81.2092 96.4693 81.1346 96.48C81.0706 96.48 81.0066 96.4853 80.9426 96.496C80.8572 96.5173 80.7772 96.528 80.7026 96.528C80.6386 96.528 80.5639 96.528 80.4786 96.528H79.7586L76.5586 96.544V96.592Z" fill="white"/>
</g>
<defs>
<clipPath id="clip0">
<rect width="111" height="115" fill="white"/>
</clipPath>
</defs>
</svg>
