<svg width="75" height="75" viewBox="0 0 75 75" fill="none" xmlns="http://www.w3.org/2000/svg">
<path d="M28.2997 11.2242V9.74137C28.2997 9.33189 27.9796 9 27.5847 9H14.715C14.3201 9 14 9.33189 14 9.74137V11.2242C14 11.6337 14.3201 11.9656 14.715 11.9656H27.5846C27.9796 11.9656 28.2997 11.6337 28.2997 11.2242Z" fill="#FAFAFA"/>
<path d="M35.6925 41.4585C31.803 39.9386 28.9645 36.6171 28.4141 32.6433C28.3738 32.2659 28.0651 31.9811 27.6991 31.9834H17.6893C17.2945 31.9781 16.9702 32.3057 16.9651 32.7152C16.9646 32.7581 16.9676 32.8011 16.9742 32.8434C17.5748 36.2687 20.6421 37.7663 22.5796 39.3381C25.3037 41.5623 27.3199 45.2693 26.3048 52.624C26.2415 53.0282 26.5062 53.409 26.896 53.4745C26.9369 53.4813 26.9783 53.4846 27.0197 53.4839H33.619C33.8851 53.4859 34.1302 53.3346 34.2553 53.091C35.8068 49.9252 36.1643 46.0106 36.1643 42.1553C36.1643 41.8433 35.9755 41.5647 35.6925 41.4585Z" fill="#FAFAFA"/>
<path d="M26.8697 29.7592V18.6382H28.2997C28.6945 18.6382 29.0146 18.3063 29.0146 17.8968C29.0146 17.4873 28.6945 17.1554 28.2997 17.1554H26.8697V14.1898C26.8697 13.7803 26.5495 13.4484 26.1547 13.4484H16.145C15.7501 13.4484 15.43 13.7803 15.43 14.1898V29.7592C15.43 30.1687 15.7501 30.5006 16.145 30.5006H26.1547C26.5496 30.5007 26.8697 30.1687 26.8697 29.7592Z" fill="#FAFAFA"/>
<path d="M46.1742 42.9117C46.1775 42.5023 45.8601 42.1675 45.4653 42.1641C45.4322 42.1638 45.3991 42.166 45.3662 42.1704C44.6881 42.2896 44.002 42.3541 43.3142 42.3632H40.4543C39.7647 42.3618 39.0763 42.3049 38.3952 42.1926C38.0036 42.1393 37.6446 42.4253 37.5933 42.8313C37.589 42.8653 37.5869 42.8997 37.5872 42.934C37.5728 46.1954 37.0015 49.4283 35.8999 52.4832C35.7616 52.8667 35.9494 53.2939 36.3192 53.4372C36.3955 53.4668 36.4761 53.4827 36.5575 53.4841H47.2108C47.6057 53.4805 47.9229 53.1455 47.9193 52.736C47.9185 52.6443 47.9013 52.5536 47.8686 52.4683C46.764 49.4116 46.1903 46.176 46.1742 42.9117Z" fill="#FAFAFA"/>
<path d="M55.8264 28.2765H29.3721C28.7798 28.2765 28.2996 28.7744 28.2996 29.3885C28.2996 30.0028 28.7798 30.5007 29.3721 30.5007H55.8264C56.4186 30.5007 56.8989 30.0028 56.8989 29.3885C56.8989 28.7743 56.4186 28.2765 55.8264 28.2765Z" fill="#FAFAFA"/>
<path d="M53.317 31.9983C53.2676 31.9878 53.2171 31.9828 53.1667 31.9833H30.6018C30.207 31.9751 29.8805 32.3002 29.8725 32.7096C29.8714 32.7644 29.8763 32.8192 29.8869 32.873C30.7592 37.4104 35.1563 40.8802 40.4543 40.8802H43.3142C48.6122 40.8802 53.0093 37.4104 53.8744 32.873C53.9534 32.4718 53.7038 32.0802 53.317 31.9983Z" fill="#FAFAFA"/>
<path d="M20.0128 56.2697C20.0793 56.3361 20.1126 56.4049 20.1126 56.4764C20.1126 56.507 20.1096 56.5401 20.1036 56.5758C20.1036 56.6064 20.1005 56.6345 20.0945 56.66C20.0763 56.7161 20.0369 56.7697 19.9764 56.8207C19.928 56.8513 19.8614 56.8743 19.7766 56.8896C19.7343 56.8998 19.6919 56.9074 19.6495 56.9125C19.6071 56.9176 19.5617 56.9253 19.5133 56.9355C19.4709 56.9406 19.4285 56.9431 19.3862 56.9431C19.3438 56.9431 19.2984 56.9431 19.2499 56.9431H18.7868C18.6778 56.9483 18.5689 56.9508 18.4599 56.9508C18.3569 56.9508 18.254 56.9508 18.1511 56.9508C18.1572 57.109 18.1602 57.2798 18.1602 57.4635C18.1602 57.642 18.1572 57.8512 18.1511 58.091C18.1511 58.3307 18.1481 58.6088 18.1421 58.9251C18.1421 59.2413 18.1421 59.6086 18.1421 60.027V60.6085C18.1421 60.6597 18.1451 60.698 18.1511 60.7233C18.1511 60.7439 18.1511 60.764 18.1511 60.7845C18.1511 60.7998 18.1481 60.8204 18.1421 60.8457C18.1299 60.8917 18.1208 60.9452 18.1148 61.0064C18.1148 61.0318 18.1117 61.0576 18.1057 61.083C18.0997 61.1035 18.0906 61.1265 18.0785 61.1518C18.0543 61.1724 18.0422 61.1877 18.0422 61.1977L18.0149 61.2437C17.9846 61.2948 17.9271 61.3431 17.8424 61.3891C17.7092 61.445 17.5609 61.4579 17.3974 61.4273C17.2944 61.4173 17.2158 61.3943 17.1613 61.3584C17.1068 61.3125 17.0674 61.2666 17.0432 61.2207C17.0069 61.1647 16.9857 61.1112 16.9797 61.06C16.9615 61.0141 16.9524 60.9658 16.9524 60.9146V56.9814C16.9161 56.9814 16.8404 56.9814 16.7254 56.9814C16.6104 56.9814 16.4862 56.9814 16.3531 56.9814C16.2259 56.9763 16.1048 56.9712 15.9898 56.9661C15.8748 56.961 15.7961 56.9559 15.7537 56.9508C15.7174 56.9457 15.6599 56.938 15.5812 56.9278C15.5085 56.9176 15.448 56.9074 15.3996 56.8972C15.2724 56.8666 15.1725 56.8182 15.0999 56.7518C15.0333 56.6855 15 56.6116 15 56.5299C15 56.4993 15 56.4687 15 56.4381C15 56.4075 15.006 56.3794 15.0182 56.3539C15.0363 56.2927 15.0847 56.2417 15.1635 56.2009C15.1876 56.1856 15.224 56.1677 15.2724 56.1473C15.3269 56.1218 15.3783 56.1039 15.4268 56.0937C15.4995 56.0733 15.5903 56.058 15.6992 56.0478C15.7477 56.0427 15.7961 56.0402 15.8445 56.0402C15.893 56.0402 15.9444 56.0402 15.9989 56.0402C16.2108 56.0402 16.4106 56.0402 16.5983 56.0402C16.792 56.0402 16.9948 56.0376 17.2067 56.0325C17.5578 56.0274 17.9059 56.0274 18.251 56.0325C18.6021 56.0325 18.9503 56.0376 19.2954 56.0478C19.374 56.053 19.4497 56.0606 19.5224 56.0708C19.595 56.081 19.6677 56.0989 19.7403 56.1244C19.7948 56.1397 19.8462 56.1601 19.8947 56.1856C19.9431 56.206 19.9824 56.234 20.0128 56.2697ZM21.9017 56.2162C22.3073 56.0886 22.6736 56.0325 23.0005 56.0478C23.3334 56.0631 23.6301 56.1345 23.8904 56.2621C24.1507 56.3845 24.3717 56.5503 24.5534 56.7595C24.741 56.9686 24.8924 57.2033 25.0074 57.4635C25.0982 57.6573 25.1678 57.8614 25.2163 58.0757C25.2647 58.2899 25.2919 58.5042 25.298 58.7184C25.3101 58.9276 25.301 59.1342 25.2708 59.3383C25.2465 59.5423 25.2041 59.7311 25.1436 59.9045C25.1073 60.0218 25.0649 60.129 25.0165 60.2259C24.968 60.3229 24.9105 60.4198 24.8439 60.5167C24.6926 60.7362 24.4958 60.9146 24.2537 61.0524C24.0176 61.1901 23.7572 61.2872 23.4727 61.3431C23.2789 61.3838 23.0792 61.4044 22.8734 61.4044C22.6675 61.3991 22.4647 61.3761 22.2649 61.3355C22.0651 61.2896 21.8714 61.226 21.6837 61.1442C21.5021 61.0576 21.3356 60.9505 21.1843 60.8228C20.9966 60.6698 20.8422 60.4937 20.7211 60.2948C20.6 60.0907 20.5062 59.879 20.4396 59.6597C20.373 59.4352 20.3307 59.2107 20.3125 58.9863C20.2943 58.7618 20.2943 58.5476 20.3125 58.3435C20.3307 58.1547 20.373 57.9532 20.4396 57.739C20.5123 57.5247 20.6152 57.3181 20.7484 57.1191C20.8815 56.9202 21.042 56.7416 21.2297 56.5835C21.4234 56.4203 21.6474 56.2978 21.9017 56.2162ZM24.0267 59.4913C24.0993 59.2516 24.1295 58.9812 24.1175 58.6802C24.1053 58.3792 24.0478 58.0961 23.9449 57.8308C23.8783 57.6676 23.7936 57.5247 23.6907 57.4023C23.5938 57.2747 23.4757 57.1778 23.3365 57.1115C23.2033 57.0452 23.0459 57.012 22.8643 57.012C22.6827 57.012 22.4798 57.0579 22.2558 57.1497C22.1226 57.2058 22.0076 57.2824 21.9108 57.3793C21.8199 57.4763 21.7442 57.5859 21.6837 57.7084C21.6292 57.8308 21.5838 57.9583 21.5475 58.091C21.5172 58.2236 21.499 58.3511 21.493 58.4736C21.4809 58.6062 21.4779 58.7465 21.4839 58.8944C21.49 59.0373 21.5081 59.1827 21.5384 59.3306C21.5748 59.4735 21.6232 59.6112 21.6837 59.7438C21.7442 59.8714 21.826 59.9862 21.9289 60.0882C22.0863 60.2412 22.2679 60.3484 22.4738 60.4096C22.6857 60.4657 22.8945 60.4733 23.1004 60.4325C23.4333 60.3713 23.6876 60.1851 23.8632 59.8739C23.9358 59.7617 23.9903 59.6342 24.0267 59.4913ZM26.3225 60.6391L26.3315 60.0346L26.3406 58.9097C26.3466 58.7465 26.3497 58.5782 26.3497 58.4047C26.3497 58.2312 26.3497 58.0527 26.3497 57.8691C26.3497 57.6854 26.3497 57.5222 26.3497 57.3793C26.3497 57.2365 26.3557 57.0758 26.3679 56.8972V56.8666C26.3739 56.8156 26.3769 56.7646 26.3769 56.7136C26.383 56.6575 26.386 56.6013 26.386 56.5452C26.392 56.4534 26.4254 56.3539 26.4859 56.2468C26.5283 56.1754 26.5918 56.1142 26.6766 56.0631C26.7735 56.0223 26.8673 56.0019 26.9581 56.0019C27.0066 56.0019 27.0489 56.0045 27.0853 56.0096C27.1276 56.0096 27.167 56.0121 27.2033 56.0172C27.282 56.0274 27.3516 56.058 27.4122 56.1091C27.4485 56.1345 27.4818 56.1754 27.5121 56.2315C27.5242 56.2621 27.5333 56.2927 27.5393 56.3233C27.5514 56.3488 27.5605 56.3769 27.5666 56.4075C27.5726 56.4432 27.5757 56.4764 27.5757 56.507C27.5817 56.5376 27.5847 56.5682 27.5847 56.5988C27.5847 56.6345 27.5817 56.6677 27.5757 56.6983C27.5757 56.7238 27.5757 56.7518 27.5757 56.7824V56.9125L27.5212 60.884V60.9605C27.5212 60.9758 27.5181 60.9964 27.5121 61.0217C27.5121 61.0423 27.509 61.0677 27.503 61.0983C27.4909 61.1236 27.4788 61.1518 27.4667 61.1824C27.4606 61.2078 27.4515 61.236 27.4394 61.2666C27.4213 61.292 27.4 61.3178 27.3759 61.3431C27.3577 61.3637 27.3335 61.3838 27.3032 61.4044C27.2547 61.445 27.1761 61.4732 27.0671 61.4885C26.9037 61.5191 26.7493 61.5062 26.604 61.4503C26.5313 61.4096 26.4798 61.3584 26.4496 61.2972C26.4314 61.2819 26.4224 61.2666 26.4224 61.2513C26.4163 61.2413 26.4102 61.2336 26.4042 61.2284C26.3981 61.2231 26.392 61.2154 26.386 61.2054C26.3739 61.1801 26.3648 61.1542 26.3588 61.1289C26.3527 61.0983 26.3497 61.0677 26.3497 61.0371C26.3436 61.0117 26.3376 60.9859 26.3315 60.9605C26.3315 60.9352 26.3285 60.9094 26.3225 60.884C26.3164 60.8434 26.3164 60.7998 26.3225 60.7539V60.6391ZM32.7816 60.8687C32.7937 60.8941 32.7998 60.9323 32.7998 60.9835C32.7998 61.0294 32.7998 61.0677 32.7998 61.0983C32.7998 61.1389 32.7907 61.1772 32.7725 61.2131C32.7544 61.2489 32.7301 61.2819 32.6999 61.3125C32.6454 61.3737 32.5667 61.4197 32.4638 61.4503C32.3185 61.4909 32.1823 61.5115 32.0551 61.5115C31.9885 61.5167 31.9189 61.5191 31.8463 61.5191C31.7736 61.5191 31.701 61.5244 31.6283 61.5344H31.592C31.1258 61.5397 30.6445 61.5397 30.1481 61.5344C30.027 61.5292 29.8908 61.5292 29.7394 61.5344C29.5881 61.5445 29.4398 61.5421 29.2945 61.5268C29.1492 61.5168 29.016 61.4885 28.8949 61.4426C28.7799 61.3914 28.6981 61.3125 28.6497 61.2054C28.6376 61.1801 28.6285 61.1571 28.6225 61.1365C28.6164 61.1112 28.6134 61.0854 28.6134 61.06C28.5892 60.8864 28.5801 60.7157 28.5861 60.5473C28.5922 60.379 28.5952 60.2132 28.5952 60.0499L28.6134 58.9404V57.915C28.6134 57.7313 28.6134 57.5681 28.6134 57.4252C28.6194 57.2824 28.6255 57.1243 28.6316 56.9508V56.9125C28.6376 56.8615 28.6406 56.8105 28.6406 56.7595C28.6467 56.7085 28.6497 56.6575 28.6497 56.6064C28.6618 56.4891 28.6951 56.3896 28.7496 56.308C28.7859 56.2315 28.8495 56.1703 28.9403 56.1244C29.019 56.0784 29.1129 56.0555 29.2218 56.0555C29.2642 56.0555 29.3036 56.058 29.3399 56.0631C29.3822 56.0631 29.4216 56.0657 29.4579 56.0708C29.4943 56.0759 29.5275 56.0861 29.5578 56.1014C29.5941 56.1167 29.6305 56.1371 29.6668 56.1626C29.7031 56.1983 29.7364 56.2417 29.7667 56.2927C29.7909 56.3488 29.806 56.405 29.8121 56.4611C29.8181 56.4968 29.8242 56.5299 29.8303 56.5605C29.8363 56.5911 29.8393 56.6217 29.8393 56.6524C29.8272 56.683 29.8212 56.7136 29.8212 56.7442C29.8212 56.7748 29.8212 56.8029 29.8212 56.8284V56.9661L29.7849 60.5703L31.5829 60.5856H32.0097C32.046 60.5856 32.0854 60.588 32.1278 60.5932C32.1701 60.5932 32.2125 60.5956 32.2549 60.6009C32.3033 60.6061 32.3457 60.6109 32.382 60.6162C32.4184 60.6214 32.4547 60.6291 32.491 60.6391C32.5576 60.6544 32.6121 60.6798 32.6545 60.7157C32.721 60.7668 32.7634 60.8175 32.7816 60.8687ZM34.7699 56.9508L34.7517 58.1522H35.1149C35.3631 58.1471 35.5841 58.1445 35.7779 58.1445C35.9716 58.1445 36.1865 58.1471 36.4226 58.1522H36.468C36.5407 58.1522 36.6102 58.1547 36.6769 58.1598C36.7495 58.1598 36.8191 58.1598 36.8857 58.1598C36.9584 58.165 37.028 58.1751 37.0946 58.1904C37.1612 58.2006 37.2278 58.2134 37.2944 58.2287C37.3973 58.2593 37.482 58.3052 37.5487 58.3664C37.6092 58.4328 37.6395 58.5067 37.6395 58.5884C37.6395 58.6138 37.6395 58.6445 37.6395 58.6802C37.6395 58.7108 37.6334 58.7389 37.6213 58.7644C37.6092 58.8205 37.5698 58.8715 37.5033 58.9174C37.473 58.9531 37.4155 58.9786 37.3307 58.9939C37.252 59.0143 37.1733 59.0271 37.0946 59.0322C37.0098 59.0475 36.9251 59.0551 36.8403 59.0551H36.4135L34.7335 59.0628L34.7154 60.5626L36.5225 60.5779H36.9493C36.9977 60.5779 37.0431 60.5779 37.0855 60.5779C37.1279 60.5779 37.1673 60.5803 37.2036 60.5856C37.252 60.5956 37.2944 60.6033 37.3307 60.6085C37.3731 60.6085 37.4124 60.6138 37.4488 60.6238C37.5214 60.6444 37.5819 60.6721 37.6304 60.708C37.6909 60.7592 37.7303 60.8127 37.7484 60.8687C37.7545 60.8941 37.7575 60.9223 37.7575 60.9529C37.7635 60.9782 37.7635 61.0064 37.7575 61.0371C37.7575 61.1188 37.7272 61.1925 37.6667 61.259C37.5941 61.3302 37.5093 61.3761 37.4124 61.3967C37.2853 61.4426 37.146 61.4656 36.9947 61.4656C36.9281 61.4708 36.8585 61.4732 36.7859 61.4732C36.7132 61.4732 36.6436 61.4756 36.577 61.4809H36.5225C36.0503 61.4909 35.5599 61.4909 35.0514 61.4809C34.9302 61.4809 34.8334 61.4785 34.7608 61.4732C34.6881 61.4732 34.6215 61.4732 34.561 61.4732C34.5065 61.4732 34.449 61.4732 34.3884 61.4732C34.3279 61.4732 34.2492 61.4732 34.1523 61.4732C34.0131 61.4833 33.8981 61.4632 33.8073 61.412C33.7406 61.3761 33.6892 61.3278 33.6529 61.2666C33.6347 61.2513 33.6256 61.236 33.6256 61.2207C33.6196 61.2107 33.6135 61.203 33.6075 61.1977C33.6014 61.1925 33.5953 61.1848 33.5893 61.1748C33.5772 61.1494 33.5681 61.1236 33.5621 61.0983C33.556 61.0677 33.553 61.0394 33.553 61.0141C33.5469 60.9887 33.5408 60.9629 33.5348 60.9376C33.5348 60.9122 33.5318 60.8864 33.5257 60.8611V60.7386C33.5257 60.7181 33.5257 60.698 33.5257 60.6774C33.5318 60.6568 33.5348 60.6367 33.5348 60.6162V60.0193L33.553 58.9174V57.8997C33.553 57.716 33.553 57.5528 33.553 57.4099C33.559 57.2671 33.5651 57.1115 33.5712 56.9431V56.9049C33.5772 56.8488 33.5802 56.7977 33.5802 56.7518C33.5862 56.7008 33.5893 56.6498 33.5893 56.5988C33.5953 56.4968 33.6286 56.3973 33.6892 56.3004C33.7134 56.2596 33.7376 56.2238 33.7619 56.1932C33.7921 56.1626 33.8314 56.1371 33.8799 56.1167C33.9707 56.0708 34.0645 56.0478 34.1614 56.0478C34.2098 56.0478 34.2462 56.0504 34.2704 56.0555V56.0478C34.3794 56.0478 34.4671 56.0478 34.5337 56.0478C34.6003 56.0478 34.6639 56.0478 34.7244 56.0478C34.791 56.0478 34.8607 56.0478 34.9333 56.0478C35.006 56.0427 35.1059 56.0402 35.233 56.0402C35.4751 56.0351 35.7052 56.0325 35.9232 56.0325C36.1411 56.0325 36.3651 56.0351 36.5951 56.0402H36.6315C36.6981 56.0453 36.7677 56.0478 36.8403 56.0478C36.913 56.0478 36.9826 56.0504 37.0492 56.0555C37.1158 56.0555 37.1824 56.0631 37.249 56.0784C37.3156 56.0886 37.3821 56.1039 37.4488 56.1244C37.5517 56.1498 37.6364 56.1932 37.703 56.2544C37.7575 56.3258 37.7848 56.3973 37.7848 56.4687C37.7848 56.4993 37.7848 56.5299 37.7848 56.5605C37.7848 56.586 37.7787 56.6116 37.7666 56.637C37.7605 56.6881 37.7242 56.7416 37.6576 56.7977C37.6334 56.8079 37.6062 56.8207 37.5759 56.836C37.5517 56.8513 37.5214 56.8641 37.4851 56.8743C37.4488 56.8845 37.4094 56.8921 37.367 56.8972C37.3307 56.8972 37.2944 56.8998 37.2581 56.9049C37.2096 56.9151 37.1642 56.9202 37.1219 56.9202C37.0855 56.9202 37.0431 56.9202 36.9947 56.9202H36.5861L34.7699 56.9278V56.9508ZM43.3451 56.2697C43.4117 56.3361 43.445 56.4049 43.445 56.4764C43.445 56.507 43.4419 56.5401 43.4359 56.5758C43.4359 56.6064 43.4329 56.6345 43.4268 56.66C43.4086 56.7161 43.3693 56.7697 43.3087 56.8207C43.2603 56.8513 43.1937 56.8743 43.109 56.8896C43.0666 56.8998 43.0242 56.9074 42.9818 56.9125C42.9395 56.9176 42.8941 56.9253 42.8456 56.9355C42.8033 56.9406 42.7609 56.9431 42.7185 56.9431C42.6761 56.9431 42.6307 56.9431 42.5823 56.9431H42.1191C42.0101 56.9483 41.9012 56.9508 41.7922 56.9508C41.6893 56.9508 41.5864 56.9508 41.4834 56.9508C41.4895 57.109 41.4925 57.2798 41.4925 57.4635C41.4925 57.642 41.4895 57.8512 41.4834 58.091C41.4834 58.3307 41.4804 58.6088 41.4744 58.9251C41.4744 59.2413 41.4744 59.6086 41.4744 60.027V60.6085C41.4744 60.6597 41.4774 60.698 41.4834 60.7233C41.4834 60.7439 41.4834 60.764 41.4834 60.7845C41.4834 60.7998 41.4804 60.8204 41.4744 60.8457C41.4623 60.8917 41.4532 60.9452 41.4471 61.0064C41.4471 61.0318 41.4441 61.0576 41.438 61.083C41.432 61.1035 41.4229 61.1265 41.4108 61.1518C41.3866 61.1724 41.3745 61.1877 41.3745 61.1977L41.3472 61.2437C41.317 61.2948 41.2595 61.3431 41.1747 61.3891C41.0415 61.445 40.8932 61.4579 40.7297 61.4273C40.6268 61.4173 40.5481 61.3943 40.4936 61.3584C40.4391 61.3125 40.3998 61.2666 40.3755 61.2207C40.3392 61.1647 40.3181 61.1112 40.312 61.06C40.2938 61.0141 40.2847 60.9658 40.2847 60.9146V56.9814C40.2484 56.9814 40.1728 56.9814 40.0577 56.9814C39.9427 56.9814 39.8186 56.9814 39.6854 56.9814C39.5583 56.9763 39.4372 56.9712 39.3221 56.9661C39.2072 56.961 39.1284 56.9559 39.086 56.9508C39.0497 56.9457 38.9922 56.938 38.9135 56.9278C38.8408 56.9176 38.7803 56.9074 38.7319 56.8972C38.6047 56.8666 38.5048 56.8182 38.4322 56.7518C38.3656 56.6855 38.3323 56.6116 38.3323 56.5299C38.3323 56.4993 38.3323 56.4687 38.3323 56.4381C38.3323 56.4075 38.3384 56.3794 38.3505 56.3539C38.3686 56.2927 38.4171 56.2417 38.4958 56.2009C38.52 56.1856 38.5563 56.1677 38.6047 56.1473C38.6592 56.1218 38.7107 56.1039 38.7591 56.0937C38.8318 56.0733 38.9226 56.058 39.0315 56.0478C39.08 56.0427 39.1284 56.0402 39.1768 56.0402C39.2253 56.0402 39.2767 56.0402 39.3312 56.0402C39.5432 56.0402 39.7429 56.0402 39.9306 56.0402C40.1243 56.0402 40.3271 56.0376 40.539 56.0325C40.8902 56.0274 41.2382 56.0274 41.5833 56.0325C41.9345 56.0325 42.2826 56.0376 42.6277 56.0478C42.7064 56.053 42.782 56.0606 42.8547 56.0708C42.9273 56.081 43 56.0989 43.0726 56.1244C43.1271 56.1397 43.1786 56.1601 43.227 56.1856C43.2755 56.206 43.3148 56.234 43.3451 56.2697ZM49.1804 56.2697C49.247 56.3361 49.2803 56.4049 49.2803 56.4764C49.2803 56.507 49.2772 56.5401 49.2712 56.5758C49.2712 56.6064 49.2681 56.6345 49.2621 56.66C49.244 56.7161 49.2046 56.7697 49.1441 56.8207C49.0956 56.8513 49.029 56.8743 48.9443 56.8896C48.9019 56.8998 48.8595 56.9074 48.8171 56.9125C48.7748 56.9176 48.7293 56.9253 48.6809 56.9355C48.6385 56.9406 48.5961 56.9431 48.5538 56.9431C48.5114 56.9431 48.466 56.9431 48.4176 56.9431H47.9544C47.8455 56.9483 47.7365 56.9508 47.6275 56.9508C47.5246 56.9508 47.4217 56.9508 47.3188 56.9508C47.3248 57.109 47.3279 57.2798 47.3279 57.4635C47.3279 57.642 47.3248 57.8512 47.3188 58.091C47.3188 58.3307 47.3157 58.6088 47.3097 58.9251C47.3097 59.2413 47.3097 59.6086 47.3097 60.027V60.6085C47.3097 60.6597 47.3127 60.698 47.3188 60.7233C47.3188 60.7439 47.3188 60.764 47.3188 60.7845C47.3188 60.7998 47.3157 60.8204 47.3097 60.8457C47.2975 60.8917 47.2885 60.9452 47.2824 61.0064C47.2824 61.0318 47.2794 61.0576 47.2734 61.083C47.2673 61.1035 47.2582 61.1265 47.2461 61.1518C47.2219 61.1724 47.2098 61.1877 47.2098 61.1977L47.1826 61.2437C47.1522 61.2948 47.0948 61.3431 47.01 61.3891C46.8768 61.445 46.7285 61.4579 46.565 61.4273C46.4621 61.4173 46.3834 61.3943 46.3289 61.3584C46.2744 61.3125 46.2351 61.2666 46.2109 61.2207C46.1746 61.1647 46.1533 61.1112 46.1473 61.06C46.1291 61.0141 46.1201 60.9658 46.1201 60.9146V56.9814C46.0837 56.9814 46.008 56.9814 45.893 56.9814C45.778 56.9814 45.6539 56.9814 45.5207 56.9814C45.3936 56.9763 45.2725 56.9712 45.1575 56.9661C45.0424 56.961 44.9637 56.9559 44.9214 56.9508C44.885 56.9457 44.8275 56.938 44.7488 56.9278C44.6762 56.9176 44.6156 56.9074 44.5672 56.8972C44.4401 56.8666 44.3402 56.8182 44.2675 56.7518C44.2009 56.6855 44.1676 56.6116 44.1676 56.5299C44.1676 56.4993 44.1676 56.4687 44.1676 56.4381C44.1676 56.4075 44.1737 56.3794 44.1858 56.3539C44.204 56.2927 44.2524 56.2417 44.3311 56.2009C44.3553 56.1856 44.3916 56.1677 44.4401 56.1473C44.4946 56.1218 44.546 56.1039 44.5944 56.0937C44.6671 56.0733 44.7579 56.058 44.8669 56.0478C44.9153 56.0427 44.9637 56.0402 45.0122 56.0402C45.0606 56.0402 45.1121 56.0402 45.1666 56.0402C45.3784 56.0402 45.5782 56.0402 45.7659 56.0402C45.9596 56.0402 46.1624 56.0376 46.3743 56.0325C46.7254 56.0274 47.0736 56.0274 47.4187 56.0325C47.7698 56.0325 48.1179 56.0376 48.463 56.0478C48.5417 56.053 48.6174 56.0606 48.69 56.0708C48.7627 56.081 48.8353 56.0989 48.908 56.1244C48.9624 56.1397 49.0139 56.1601 49.0623 56.1856C49.1108 56.206 49.1501 56.234 49.1804 56.2697ZM51.247 56.9508L51.2289 58.1522H51.5921C51.8404 58.1471 52.0613 58.1445 52.255 58.1445C52.4488 58.1445 52.6637 58.1471 52.8998 58.1522H52.9452C53.0178 58.1522 53.0875 58.1547 53.154 58.1598C53.2267 58.1598 53.2963 58.1598 53.3629 58.1598C53.4356 58.165 53.5052 58.1751 53.5718 58.1904C53.6384 58.2006 53.705 58.2134 53.7716 58.2287C53.8745 58.2593 53.9593 58.3052 54.0258 58.3664C54.0864 58.4328 54.1166 58.5067 54.1166 58.5884C54.1166 58.6138 54.1166 58.6445 54.1166 58.6802C54.1166 58.7108 54.1106 58.7389 54.0985 58.7644C54.0864 58.8205 54.0471 58.8715 53.9804 58.9174C53.9502 58.9531 53.8927 58.9786 53.8079 58.9939C53.7292 59.0143 53.6505 59.0271 53.5718 59.0322C53.487 59.0475 53.4023 59.0551 53.3175 59.0551H52.8907L51.2107 59.0628L51.1925 60.5626L52.9997 60.5779H53.4265C53.4749 60.5779 53.5204 60.5779 53.5627 60.5779C53.6051 60.5779 53.6444 60.5803 53.6807 60.5856C53.7292 60.5956 53.7716 60.6033 53.8079 60.6085C53.8503 60.6085 53.8896 60.6138 53.9259 60.6238C53.9986 60.6444 54.0591 60.6721 54.1076 60.708C54.1681 60.7592 54.2074 60.8127 54.2256 60.8687C54.2317 60.8941 54.2347 60.9223 54.2347 60.9529C54.2408 60.9782 54.2408 61.0064 54.2347 61.0371C54.2347 61.1188 54.2044 61.1925 54.1439 61.259C54.0712 61.3302 53.9865 61.3761 53.8896 61.3967C53.7625 61.4426 53.6233 61.4656 53.4719 61.4656C53.4053 61.4708 53.3357 61.4732 53.263 61.4732C53.1904 61.4732 53.1208 61.4756 53.0542 61.4809H52.9997C52.5274 61.4909 52.0371 61.4909 51.5285 61.4809C51.4075 61.4809 51.3106 61.4785 51.2379 61.4732C51.1653 61.4732 51.0987 61.4732 51.0382 61.4732C50.9837 61.4732 50.9262 61.4732 50.8656 61.4732C50.8051 61.4732 50.7264 61.4732 50.6295 61.4732C50.4903 61.4833 50.3752 61.4632 50.2844 61.412C50.2179 61.3761 50.1664 61.3278 50.13 61.2666C50.1119 61.2513 50.1028 61.236 50.1028 61.2207C50.0968 61.2107 50.0907 61.203 50.0846 61.1977C50.0786 61.1925 50.0726 61.1848 50.0665 61.1748C50.0544 61.1494 50.0453 61.1236 50.0392 61.0983C50.0332 61.0677 50.0302 61.0394 50.0302 61.0141C50.0241 60.9887 50.0181 60.9629 50.012 60.9376C50.012 60.9122 50.009 60.8864 50.0029 60.8611V60.7386C50.0029 60.7181 50.0029 60.698 50.0029 60.6774C50.009 60.6568 50.012 60.6367 50.012 60.6162V60.0193L50.0302 58.9174V57.8997C50.0302 57.716 50.0302 57.5528 50.0302 57.4099C50.0362 57.2671 50.0423 57.1115 50.0483 56.9431V56.9049C50.0544 56.8488 50.0574 56.7977 50.0574 56.7518C50.0635 56.7008 50.0665 56.6498 50.0665 56.5988C50.0726 56.4968 50.1059 56.3973 50.1664 56.3004C50.1906 56.2596 50.2148 56.2238 50.239 56.1932C50.2693 56.1626 50.3087 56.1371 50.3571 56.1167C50.4479 56.0708 50.5418 56.0478 50.6386 56.0478C50.6871 56.0478 50.7234 56.0504 50.7476 56.0555V56.0478C50.8565 56.0478 50.9443 56.0478 51.0109 56.0478C51.0775 56.0478 51.1411 56.0478 51.2016 56.0478C51.2682 56.0478 51.3378 56.0478 51.4105 56.0478C51.4831 56.0427 51.583 56.0402 51.7102 56.0402C51.9523 56.0351 52.1824 56.0325 52.4003 56.0325C52.6183 56.0325 52.8423 56.0351 53.0723 56.0402H53.1086C53.1753 56.0453 53.2449 56.0478 53.3175 56.0478C53.3902 56.0478 53.4598 56.0504 53.5264 56.0555C53.593 56.0555 53.6596 56.0631 53.7262 56.0784C53.7928 56.0886 53.8594 56.1039 53.9259 56.1244C54.0289 56.1498 54.1136 56.1932 54.1802 56.2544C54.2347 56.3258 54.2619 56.3973 54.2619 56.4687C54.2619 56.4993 54.2619 56.5299 54.2619 56.5605C54.2619 56.586 54.2559 56.6116 54.2438 56.637C54.2378 56.6881 54.2014 56.7416 54.1348 56.7977C54.1106 56.8079 54.0834 56.8207 54.0531 56.836C54.0289 56.8513 53.9986 56.8641 53.9623 56.8743C53.9259 56.8845 53.8866 56.8921 53.8442 56.8972C53.8079 56.8972 53.7716 56.8998 53.7352 56.9049C53.6868 56.9151 53.6414 56.9202 53.599 56.9202C53.5627 56.9202 53.5204 56.9202 53.4719 56.9202H53.0632L51.247 56.9278V56.9508ZM59.6909 59.2235C59.7211 59.2949 59.7423 59.3765 59.7545 59.4684C59.7726 59.5551 59.7817 59.6444 59.7817 59.7362C59.7817 59.828 59.7726 59.9198 59.7545 60.0117C59.7423 60.0984 59.7241 60.1749 59.7 60.2412C59.6031 60.5267 59.4094 60.7668 59.1188 60.9605C58.8282 61.1494 58.4952 61.2872 58.1199 61.3737C57.7505 61.4603 57.3661 61.4909 56.9666 61.4656C56.573 61.4402 56.2219 61.3561 55.9132 61.2131C55.7194 61.1212 55.5529 61.0088 55.4137 60.8764C55.2744 60.7439 55.1564 60.5956 55.0595 60.4325C55.0232 60.3764 54.999 60.3126 54.9869 60.2412C54.9808 60.1647 54.9899 60.0933 55.0141 60.027C55.0383 59.9556 55.0777 59.8943 55.1322 59.8433C55.1867 59.7872 55.2623 59.749 55.3592 59.7285C55.4197 59.7183 55.4863 59.7132 55.559 59.7132C55.6377 59.7132 55.7134 59.7234 55.786 59.7438C55.8587 59.7591 55.9252 59.7872 55.9858 59.828C56.0463 59.8637 56.0948 59.9147 56.1311 59.9811C56.1977 60.0882 56.2915 60.1877 56.4126 60.2795C56.5398 60.3662 56.6729 60.4376 56.8122 60.4937C57.012 60.5497 57.2118 60.5727 57.4115 60.5626C57.6173 60.5526 57.802 60.5143 57.9655 60.4478C58.135 60.3815 58.2712 60.2923 58.3741 60.18C58.477 60.0627 58.5285 59.93 58.5285 59.7821C58.5285 59.6597 58.5073 59.5602 58.4649 59.4837C58.4225 59.402 58.362 59.3357 58.2833 59.2847C58.2107 59.2286 58.1199 59.1827 58.0109 59.147C57.9079 59.1112 57.7929 59.0806 57.6658 59.0551C57.5205 59.0296 57.3722 59.0118 57.2208 59.0016C57.0755 58.9914 56.9272 58.9786 56.7759 58.9633C56.6245 58.948 56.4762 58.9276 56.3309 58.9021C56.1856 58.8766 56.0433 58.8383 55.9041 58.7873C55.6256 58.6904 55.4137 58.5424 55.2684 58.3435C55.1231 58.1445 55.0353 57.9303 55.0051 57.7007C54.9808 57.4711 55.0141 57.2441 55.1049 57.0197C55.1958 56.7901 55.3411 56.5937 55.5408 56.4304C55.7345 56.2825 55.9646 56.1779 56.231 56.1167C56.5034 56.0504 56.8031 56.0121 57.13 56.0019C57.3116 55.9968 57.4933 56.0019 57.6749 56.0172C57.8625 56.0325 58.0411 56.058 58.2107 56.0937C58.3862 56.1295 58.5467 56.1754 58.692 56.2315C58.8433 56.2876 58.9735 56.3539 59.0825 56.4304C59.1611 56.4815 59.2398 56.5503 59.3186 56.637C59.3972 56.7187 59.4578 56.8079 59.5002 56.9049C59.5425 56.9967 59.5547 57.086 59.5365 57.1727C59.5244 57.2594 59.4608 57.3334 59.3458 57.3946C59.2489 57.4456 59.1551 57.4686 59.0643 57.4635C58.9795 57.4533 58.8978 57.4303 58.8191 57.3946C58.7404 57.3538 58.6647 57.3079 58.5921 57.2569C58.5194 57.2058 58.4528 57.1599 58.3923 57.1191C58.2288 57.0171 58.026 56.9483 57.7839 56.9125C57.5417 56.8768 57.3147 56.8691 57.1028 56.8896C56.9696 56.9049 56.8454 56.9304 56.7305 56.9661C56.6154 57.0018 56.5155 57.0503 56.4308 57.1115C56.3521 57.1727 56.2885 57.2492 56.2401 57.341C56.1977 57.4278 56.1825 57.5272 56.1947 57.6395C56.2007 57.7211 56.2279 57.79 56.2764 57.8461C56.3309 57.9022 56.3945 57.9481 56.4671 57.9838C56.5458 58.0196 56.6306 58.0476 56.7214 58.068C56.8122 58.0884 56.903 58.1037 56.9938 58.1139C57.2662 58.1445 57.5387 58.1675 57.8111 58.1828C58.0835 58.1981 58.3499 58.2491 58.6102 58.3358C58.8766 58.4225 59.1036 58.5399 59.2913 58.6878C59.479 58.8358 59.6122 59.0143 59.6909 59.2235Z" fill="white"/>
</svg>
