<svg width="89" height="126" viewBox="0 0 89 126" fill="none" xmlns="http://www.w3.org/2000/svg">
<path d="M27.6667 4.74999V1.58327C27.6667 0.708788 27.0474 0 26.2834 0H1.38344C0.619419 0 0 0.708788 0 1.58327V4.74999C0 5.62447 0.619257 6.33326 1.38328 6.33326H26.2832C27.0474 6.33326 27.6667 5.62447 27.6667 4.74999Z" fill="#FAFAFA"/>
<path d="M41.9704 69.3181C34.4451 66.0723 28.9532 58.9789 27.8882 50.4924C27.8102 49.6865 27.2131 49.0783 26.5049 49.0831H7.13803C6.37417 49.0718 5.74681 49.7715 5.73692 50.646C5.73595 50.7377 5.74178 50.8293 5.75459 50.9199C6.91659 58.2349 12.8511 61.4331 16.5998 64.7898C21.8703 69.5398 25.7713 77.4565 23.8071 93.1631C23.6848 94.0262 24.1969 94.8395 24.9511 94.9794C25.0302 94.994 25.1103 95.0009 25.1903 94.9996H37.9585C38.4734 95.0039 38.9477 94.6806 39.1897 94.1604C42.1915 87.3996 42.8832 79.0396 42.8832 70.8062C42.8831 70.1399 42.518 69.5448 41.9704 69.3181Z" fill="#FAFAFA"/>
<path d="M24.9001 44.3332V20.5833H27.6668C28.4308 20.5833 29.0501 19.8745 29.0501 19C29.0501 18.1255 28.4308 17.4167 27.6668 17.4167H24.9001V11.0833C24.9001 10.2088 24.2807 9.5 23.5168 9.5H4.15012C3.3861 9.5 2.76685 10.2088 2.76685 11.0833V44.3332C2.76685 45.2077 3.3861 45.9165 4.15012 45.9165H23.5168C24.2808 45.9167 24.9001 45.2077 24.9001 44.3332Z" fill="#FAFAFA"/>
<path d="M62.25 72.4216C62.2565 71.5471 61.6424 70.8324 60.8784 70.825C60.8144 70.8244 60.7503 70.8289 60.6868 70.8384C59.3747 71.0931 58.0473 71.2308 56.7166 71.2501H51.1833C49.849 71.2473 48.5171 71.1256 47.1993 70.8859C46.4418 70.7721 45.7471 71.3828 45.6478 72.2498C45.6395 72.3225 45.6354 72.3958 45.6361 72.4691C45.6082 79.4342 44.5029 86.3385 42.3714 92.8624C42.1039 93.6814 42.4672 94.5937 43.1827 94.8998C43.3304 94.9629 43.4864 94.9969 43.6439 94.9999H64.2556C65.0196 94.9921 65.6334 94.2768 65.6264 93.4023C65.6248 93.2064 65.5916 93.0127 65.5283 92.8306C63.3911 86.3027 62.2811 79.3928 62.25 72.4216Z" fill="#FAFAFA"/>
<path d="M80.9249 41.1667H29.7417C28.5958 41.1667 27.6667 42.2301 27.6667 43.5417C27.6667 44.8534 28.5958 45.9167 29.7417 45.9167H80.9249C82.0709 45.9167 82.9999 44.8534 82.9999 43.5417C82.9999 42.2299 82.071 41.1667 80.9249 41.1667Z" fill="#FAFAFA"/>
<path d="M76.0699 49.115C75.9743 49.0926 75.8767 49.082 75.7791 49.0831H32.121C31.3571 49.0655 30.7254 49.7598 30.71 50.6341C30.7079 50.7512 30.7173 50.8682 30.7377 50.9831C32.4254 60.6731 40.9329 68.0831 51.1834 68.0831H56.7167C66.9672 68.0831 75.4746 60.6731 77.1484 50.9831C77.3013 50.1264 76.8184 49.29 76.0699 49.115Z" fill="#FAFAFA"/>
<path d="M17.8783 104.168C17.9956 104.307 18.0543 104.451 18.0543 104.6C18.0543 104.664 18.0489 104.733 18.0383 104.808C18.0383 104.872 18.0329 104.931 18.0223 104.984C17.9903 105.101 17.9209 105.213 17.8142 105.32C17.7289 105.384 17.6116 105.432 17.4623 105.464C17.3876 105.485 17.3129 105.501 17.2383 105.512C17.1636 105.523 17.0836 105.539 16.9983 105.56C16.9236 105.571 16.8489 105.576 16.7743 105.576C16.6996 105.576 16.6196 105.576 16.5343 105.576H15.7183C15.5263 105.587 15.3343 105.592 15.1423 105.592C14.9609 105.592 14.7796 105.592 14.5983 105.592C14.6089 105.923 14.6143 106.28 14.6143 106.664C14.6143 107.037 14.6089 107.475 14.5983 107.976C14.5983 108.477 14.5929 109.059 14.5823 109.72C14.5823 110.381 14.5823 111.149 14.5823 112.024V113.24C14.5823 113.347 14.5876 113.427 14.5983 113.48C14.5983 113.523 14.5983 113.565 14.5983 113.608C14.5983 113.64 14.5929 113.683 14.5823 113.736C14.5609 113.832 14.5449 113.944 14.5343 114.072C14.5343 114.125 14.5289 114.179 14.5183 114.232C14.5076 114.275 14.4916 114.323 14.4703 114.376C14.4276 114.419 14.4063 114.451 14.4063 114.472L14.3583 114.568C14.3049 114.675 14.2036 114.776 14.0543 114.872C13.8196 114.989 13.5583 115.016 13.2703 114.952C13.0889 114.931 12.9503 114.883 12.8543 114.808C12.7583 114.712 12.6889 114.616 12.6463 114.52C12.5823 114.403 12.5449 114.291 12.5343 114.184C12.5023 114.088 12.4863 113.987 12.4863 113.88V105.656C12.4223 105.656 12.2889 105.656 12.0863 105.656C11.8836 105.656 11.6649 105.656 11.4303 105.656C11.2063 105.645 10.9929 105.635 10.7903 105.624C10.5876 105.613 10.4489 105.603 10.3743 105.592C10.3103 105.581 10.2089 105.565 10.0703 105.544C9.94225 105.523 9.83558 105.501 9.75025 105.48C9.52625 105.416 9.35025 105.315 9.22225 105.176C9.10492 105.037 9.04625 104.883 9.04625 104.712C9.04625 104.648 9.04625 104.584 9.04625 104.52C9.04625 104.456 9.05692 104.397 9.07825 104.344C9.11025 104.216 9.19558 104.109 9.33425 104.024C9.37692 103.992 9.44092 103.955 9.52625 103.912C9.62225 103.859 9.71292 103.821 9.79825 103.8C9.92625 103.757 10.0863 103.725 10.2783 103.704C10.3636 103.693 10.4489 103.688 10.5343 103.688C10.6196 103.688 10.7103 103.688 10.8063 103.688C11.1796 103.688 11.5316 103.688 11.8623 103.688C12.2036 103.688 12.5609 103.683 12.9343 103.672C13.5529 103.661 14.1663 103.661 14.7743 103.672C15.3929 103.672 16.0063 103.683 16.6143 103.704C16.7529 103.715 16.8863 103.731 17.0143 103.752C17.1423 103.773 17.2703 103.811 17.3983 103.864C17.4943 103.896 17.5849 103.939 17.6703 103.992C17.7556 104.035 17.8249 104.093 17.8783 104.168ZM21.2064 104.056C21.921 103.789 22.5664 103.672 23.1424 103.704C23.729 103.736 24.2517 103.885 24.7104 104.152C25.169 104.408 25.5584 104.755 25.8784 105.192C26.209 105.629 26.4757 106.12 26.6784 106.664C26.8384 107.069 26.961 107.496 27.0464 107.944C27.1317 108.392 27.1797 108.84 27.1904 109.288C27.2117 109.725 27.1957 110.157 27.1424 110.584C27.0997 111.011 27.025 111.405 26.9184 111.768C26.8544 112.013 26.7797 112.237 26.6944 112.44C26.609 112.643 26.5077 112.845 26.3904 113.048C26.1237 113.507 25.777 113.88 25.3504 114.168C24.9344 114.456 24.4757 114.659 23.9744 114.776C23.633 114.861 23.281 114.904 22.9184 114.904C22.5557 114.893 22.1984 114.845 21.8464 114.76C21.4944 114.664 21.153 114.531 20.8224 114.36C20.5024 114.179 20.209 113.955 19.9424 113.688C19.6117 113.368 19.3397 113 19.1264 112.584C18.913 112.157 18.7477 111.715 18.6304 111.256C18.513 110.787 18.4384 110.317 18.4064 109.848C18.3744 109.379 18.3744 108.931 18.4064 108.504C18.4384 108.109 18.513 107.688 18.6304 107.24C18.7584 106.792 18.9397 106.36 19.1744 105.944C19.409 105.528 19.6917 105.155 20.0224 104.824C20.3637 104.483 20.7584 104.227 21.2064 104.056ZM24.9504 110.904C25.0784 110.403 25.1317 109.837 25.1104 109.208C25.089 108.579 24.9877 107.987 24.8064 107.432C24.689 107.091 24.5397 106.792 24.3584 106.536C24.1877 106.269 23.9797 106.067 23.7344 105.928C23.4997 105.789 23.2224 105.72 22.9024 105.72C22.5824 105.72 22.225 105.816 21.8304 106.008C21.5957 106.125 21.393 106.285 21.2224 106.488C21.0624 106.691 20.929 106.92 20.8224 107.176C20.7264 107.432 20.6464 107.699 20.5824 107.976C20.529 108.253 20.497 108.52 20.4864 108.776C20.465 109.053 20.4597 109.347 20.4704 109.656C20.481 109.955 20.513 110.259 20.5664 110.568C20.6304 110.867 20.7157 111.155 20.8224 111.432C20.929 111.699 21.073 111.939 21.2544 112.152C21.5317 112.472 21.8517 112.696 22.2144 112.824C22.5877 112.941 22.9557 112.957 23.3184 112.872C23.905 112.744 24.353 112.355 24.6624 111.704C24.7904 111.469 24.8864 111.203 24.9504 110.904ZM28.9954 113.304L29.0114 112.04L29.0274 109.688C29.038 109.347 29.0434 108.995 29.0434 108.632C29.0434 108.269 29.0434 107.896 29.0434 107.512C29.0434 107.128 29.0434 106.787 29.0434 106.488C29.0434 106.189 29.054 105.853 29.0754 105.48V105.416C29.086 105.309 29.0914 105.203 29.0914 105.096C29.102 104.979 29.1074 104.861 29.1074 104.744C29.118 104.552 29.1767 104.344 29.2834 104.12C29.358 103.971 29.47 103.843 29.6194 103.736C29.79 103.651 29.9554 103.608 30.1154 103.608C30.2007 103.608 30.2754 103.613 30.3394 103.624C30.414 103.624 30.4834 103.629 30.5474 103.64C30.686 103.661 30.8087 103.725 30.9154 103.832C30.9794 103.885 31.038 103.971 31.0914 104.088C31.1127 104.152 31.1287 104.216 31.1394 104.28C31.1607 104.333 31.1767 104.392 31.1874 104.456C31.198 104.531 31.2034 104.6 31.2034 104.664C31.214 104.728 31.2194 104.792 31.2194 104.856C31.2194 104.931 31.214 105 31.2034 105.064C31.2034 105.117 31.2034 105.176 31.2034 105.24V105.512L31.1074 113.816V113.976C31.1074 114.008 31.102 114.051 31.0914 114.104C31.0914 114.147 31.086 114.2 31.0754 114.264C31.054 114.317 31.0327 114.376 31.0114 114.44C31.0007 114.493 30.9847 114.552 30.9634 114.616C30.9314 114.669 30.894 114.723 30.8514 114.776C30.8194 114.819 30.7767 114.861 30.7234 114.904C30.638 114.989 30.4994 115.048 30.3074 115.08C30.0194 115.144 29.7474 115.117 29.4914 115C29.3634 114.915 29.2727 114.808 29.2194 114.68C29.1874 114.648 29.1714 114.616 29.1714 114.584C29.1607 114.563 29.15 114.547 29.1394 114.536C29.1287 114.525 29.118 114.509 29.1074 114.488C29.086 114.435 29.07 114.381 29.0594 114.328C29.0487 114.264 29.0434 114.2 29.0434 114.136C29.0327 114.083 29.022 114.029 29.0114 113.976C29.0114 113.923 29.006 113.869 28.9954 113.816C28.9847 113.731 28.9847 113.64 28.9954 113.544V113.304ZM40.3758 113.784C40.3971 113.837 40.4078 113.917 40.4078 114.024C40.4078 114.12 40.4078 114.2 40.4078 114.264C40.4078 114.349 40.3918 114.429 40.3598 114.504C40.3278 114.579 40.2851 114.648 40.2318 114.712C40.1358 114.84 39.9971 114.936 39.8158 115C39.5598 115.085 39.3198 115.128 39.0958 115.128C38.9784 115.139 38.8558 115.144 38.7278 115.144C38.5998 115.144 38.4718 115.155 38.3438 115.176H38.2798C37.4584 115.187 36.6104 115.187 35.7358 115.176C35.5224 115.165 35.2824 115.165 35.0158 115.176C34.7491 115.197 34.4878 115.192 34.2318 115.16C33.9758 115.139 33.7411 115.08 33.5278 114.984C33.3251 114.877 33.1811 114.712 33.0958 114.488C33.0744 114.435 33.0584 114.387 33.0478 114.344C33.0371 114.291 33.0318 114.237 33.0318 114.184C32.9891 113.821 32.9731 113.464 32.9838 113.112C32.9944 112.76 32.9998 112.413 32.9998 112.072L33.0318 109.752V107.608C33.0318 107.224 33.0318 106.883 33.0318 106.584C33.0424 106.285 33.0531 105.955 33.0638 105.592V105.512C33.0744 105.405 33.0798 105.299 33.0798 105.192C33.0904 105.085 33.0958 104.979 33.0958 104.872C33.1171 104.627 33.1758 104.419 33.2718 104.248C33.3358 104.088 33.4478 103.96 33.6078 103.864C33.7464 103.768 33.9118 103.72 34.1038 103.72C34.1784 103.72 34.2478 103.725 34.3118 103.736C34.3864 103.736 34.4558 103.741 34.5198 103.752C34.5838 103.763 34.6424 103.784 34.6957 103.816C34.7598 103.848 34.8238 103.891 34.8878 103.944C34.9518 104.019 35.0104 104.109 35.0638 104.216C35.1064 104.333 35.1331 104.451 35.1438 104.568C35.1544 104.643 35.1651 104.712 35.1758 104.776C35.1864 104.84 35.1918 104.904 35.1918 104.968C35.1704 105.032 35.1598 105.096 35.1598 105.16C35.1598 105.224 35.1598 105.283 35.1598 105.336V105.624L35.0958 113.16L38.2638 113.192H39.0158C39.0798 113.192 39.1491 113.197 39.2238 113.208C39.2984 113.208 39.3731 113.213 39.4478 113.224C39.5331 113.235 39.6078 113.245 39.6718 113.256C39.7358 113.267 39.7998 113.283 39.8638 113.304C39.9811 113.336 40.0771 113.389 40.1518 113.464C40.2691 113.571 40.3438 113.677 40.3758 113.784ZM43.8789 105.592L43.8469 108.104H44.4869C44.9242 108.093 45.3135 108.088 45.6549 108.088C45.9962 108.088 46.3749 108.093 46.7909 108.104H46.8709C46.9989 108.104 47.1215 108.109 47.2389 108.12C47.3669 108.12 47.4895 108.12 47.6069 108.12C47.7349 108.131 47.8575 108.152 47.9749 108.184C48.0922 108.205 48.2095 108.232 48.3269 108.264C48.5082 108.328 48.6575 108.424 48.7749 108.552C48.8815 108.691 48.9349 108.845 48.9349 109.016C48.9349 109.069 48.9349 109.133 48.9349 109.208C48.9349 109.272 48.9242 109.331 48.9029 109.384C48.8815 109.501 48.8122 109.608 48.6949 109.704C48.6415 109.779 48.5402 109.832 48.3909 109.864C48.2522 109.907 48.1135 109.933 47.9749 109.944C47.8255 109.976 47.6762 109.992 47.5269 109.992H46.7749L43.8149 110.008L43.7829 113.144L46.9669 113.176H47.7189C47.8042 113.176 47.8842 113.176 47.9589 113.176C48.0335 113.176 48.1029 113.181 48.1669 113.192C48.2522 113.213 48.3269 113.229 48.3909 113.24C48.4655 113.24 48.5349 113.251 48.5989 113.272C48.7269 113.315 48.8335 113.373 48.9189 113.448C49.0255 113.555 49.0949 113.667 49.1269 113.784C49.1375 113.837 49.1429 113.896 49.1429 113.96C49.1535 114.013 49.1535 114.072 49.1429 114.136C49.1429 114.307 49.0895 114.461 48.9829 114.6C48.8549 114.749 48.7055 114.845 48.5349 114.888C48.3109 114.984 48.0655 115.032 47.7989 115.032C47.6815 115.043 47.5589 115.048 47.4309 115.048C47.3029 115.048 47.1802 115.053 47.0629 115.064H46.9669C46.1349 115.085 45.2709 115.085 44.3749 115.064C44.1615 115.064 43.9909 115.059 43.8629 115.048C43.7349 115.048 43.6175 115.048 43.5109 115.048C43.4149 115.048 43.3135 115.048 43.2069 115.048C43.1002 115.048 42.9615 115.048 42.7909 115.048C42.5455 115.069 42.3429 115.027 42.1829 114.92C42.0655 114.845 41.9749 114.744 41.9109 114.616C41.8789 114.584 41.8629 114.552 41.8629 114.52C41.8522 114.499 41.8415 114.483 41.8309 114.472C41.8202 114.461 41.8095 114.445 41.7989 114.424C41.7775 114.371 41.7615 114.317 41.7509 114.264C41.7402 114.2 41.7349 114.141 41.7349 114.088C41.7242 114.035 41.7135 113.981 41.7029 113.928C41.7029 113.875 41.6975 113.821 41.6869 113.768V113.512C41.6869 113.469 41.6869 113.427 41.6869 113.384C41.6975 113.341 41.7029 113.299 41.7029 113.256V112.008L41.7349 109.704V107.576C41.7349 107.192 41.7349 106.851 41.7349 106.552C41.7455 106.253 41.7562 105.928 41.7669 105.576V105.496C41.7775 105.379 41.7829 105.272 41.7829 105.176C41.7935 105.069 41.7989 104.963 41.7989 104.856C41.8095 104.643 41.8682 104.435 41.9749 104.232C42.0175 104.147 42.0602 104.072 42.1029 104.008C42.1562 103.944 42.2255 103.891 42.3109 103.848C42.4709 103.752 42.6362 103.704 42.8069 103.704C42.8922 103.704 42.9562 103.709 42.9989 103.72V103.704C43.1909 103.704 43.3455 103.704 43.4629 103.704C43.5802 103.704 43.6922 103.704 43.7989 103.704C43.9162 103.704 44.0389 103.704 44.1669 103.704C44.2949 103.693 44.4709 103.688 44.6949 103.688C45.1215 103.677 45.5269 103.672 45.9109 103.672C46.2949 103.672 46.6895 103.677 47.0949 103.688H47.1589C47.2762 103.699 47.3989 103.704 47.5269 103.704C47.6549 103.704 47.7775 103.709 47.8949 103.72C48.0122 103.72 48.1295 103.736 48.2469 103.768C48.3642 103.789 48.4815 103.821 48.5989 103.864C48.7802 103.917 48.9295 104.008 49.0469 104.136C49.1429 104.285 49.1909 104.435 49.1909 104.584C49.1909 104.648 49.1909 104.712 49.1909 104.776C49.1909 104.829 49.1802 104.883 49.1589 104.936C49.1482 105.043 49.0842 105.155 48.9669 105.272C48.9242 105.293 48.8762 105.32 48.8229 105.352C48.7802 105.384 48.7269 105.411 48.6629 105.432C48.5989 105.453 48.5295 105.469 48.4549 105.48C48.3909 105.48 48.3269 105.485 48.2629 105.496C48.1775 105.517 48.0975 105.528 48.0229 105.528C47.9589 105.528 47.8842 105.528 47.7989 105.528H47.0789L43.8789 105.544V105.592ZM58.9876 104.168C59.105 104.307 59.1636 104.451 59.1636 104.6C59.1636 104.664 59.1583 104.733 59.1476 104.808C59.1476 104.872 59.1423 104.931 59.1316 104.984C59.0996 105.101 59.0303 105.213 58.9236 105.32C58.8383 105.384 58.721 105.432 58.5716 105.464C58.497 105.485 58.4223 105.501 58.3476 105.512C58.273 105.523 58.193 105.539 58.1076 105.56C58.033 105.571 57.9583 105.576 57.8836 105.576C57.809 105.576 57.729 105.576 57.6436 105.576H56.8276C56.6356 105.587 56.4436 105.592 56.2516 105.592C56.0703 105.592 55.889 105.592 55.7076 105.592C55.7183 105.923 55.7236 106.28 55.7236 106.664C55.7236 107.037 55.7183 107.475 55.7076 107.976C55.7076 108.477 55.7023 109.059 55.6916 109.72C55.6916 110.381 55.6916 111.149 55.6916 112.024V113.24C55.6916 113.347 55.697 113.427 55.7076 113.48C55.7076 113.523 55.7076 113.565 55.7076 113.608C55.7076 113.64 55.7023 113.683 55.6916 113.736C55.6703 113.832 55.6543 113.944 55.6436 114.072C55.6436 114.125 55.6383 114.179 55.6276 114.232C55.617 114.275 55.601 114.323 55.5796 114.376C55.537 114.419 55.5156 114.451 55.5156 114.472L55.4676 114.568C55.4143 114.675 55.313 114.776 55.1636 114.872C54.929 114.989 54.6676 115.016 54.3796 114.952C54.1983 114.931 54.0596 114.883 53.9636 114.808C53.8676 114.712 53.7983 114.616 53.7556 114.52C53.6916 114.403 53.6543 114.291 53.6436 114.184C53.6116 114.088 53.5956 113.987 53.5956 113.88V105.656C53.5316 105.656 53.3983 105.656 53.1956 105.656C52.993 105.656 52.7743 105.656 52.5396 105.656C52.3156 105.645 52.1023 105.635 51.8996 105.624C51.697 105.613 51.5583 105.603 51.4836 105.592C51.4196 105.581 51.3183 105.565 51.1796 105.544C51.0516 105.523 50.945 105.501 50.8596 105.48C50.6356 105.416 50.4596 105.315 50.3316 105.176C50.2143 105.037 50.1556 104.883 50.1556 104.712C50.1556 104.648 50.1556 104.584 50.1556 104.52C50.1556 104.456 50.1663 104.397 50.1876 104.344C50.2196 104.216 50.305 104.109 50.4436 104.024C50.4863 103.992 50.5503 103.955 50.6356 103.912C50.7316 103.859 50.8223 103.821 50.9076 103.8C51.0356 103.757 51.1956 103.725 51.3876 103.704C51.473 103.693 51.5583 103.688 51.6436 103.688C51.729 103.688 51.8196 103.688 51.9156 103.688C52.289 103.688 52.641 103.688 52.9716 103.688C53.313 103.688 53.6703 103.683 54.0436 103.672C54.6623 103.661 55.2756 103.661 55.8836 103.672C56.5023 103.672 57.1156 103.683 57.7236 103.704C57.8623 103.715 57.9956 103.731 58.1236 103.752C58.2516 103.773 58.3796 103.811 58.5076 103.864C58.6036 103.896 58.6943 103.939 58.7796 103.992C58.865 104.035 58.9343 104.093 58.9876 104.168ZM69.2689 104.168C69.3862 104.307 69.4449 104.451 69.4449 104.6C69.4449 104.664 69.4395 104.733 69.4289 104.808C69.4289 104.872 69.4235 104.931 69.4129 104.984C69.3809 105.101 69.3115 105.213 69.2049 105.32C69.1195 105.384 69.0022 105.432 68.8529 105.464C68.7782 105.485 68.7035 105.501 68.6289 105.512C68.5542 105.523 68.4742 105.539 68.3889 105.56C68.3142 105.571 68.2395 105.576 68.1649 105.576C68.0902 105.576 68.0102 105.576 67.9249 105.576H67.1089C66.9169 105.587 66.7249 105.592 66.5329 105.592C66.3515 105.592 66.1702 105.592 65.9889 105.592C65.9995 105.923 66.0049 106.28 66.0049 106.664C66.0049 107.037 65.9995 107.475 65.9889 107.976C65.9889 108.477 65.9835 109.059 65.9729 109.72C65.9729 110.381 65.9729 111.149 65.9729 112.024V113.24C65.9729 113.347 65.9782 113.427 65.9889 113.48C65.9889 113.523 65.9889 113.565 65.9889 113.608C65.9889 113.64 65.9835 113.683 65.9729 113.736C65.9515 113.832 65.9355 113.944 65.9249 114.072C65.9249 114.125 65.9195 114.179 65.9089 114.232C65.8982 114.275 65.8822 114.323 65.8609 114.376C65.8182 114.419 65.7969 114.451 65.7969 114.472L65.7489 114.568C65.6955 114.675 65.5942 114.776 65.4449 114.872C65.2102 114.989 64.9489 115.016 64.6609 114.952C64.4795 114.931 64.3409 114.883 64.2449 114.808C64.1489 114.712 64.0795 114.616 64.0369 114.52C63.9729 114.403 63.9355 114.291 63.9249 114.184C63.8929 114.088 63.8769 113.987 63.8769 113.88V105.656C63.8129 105.656 63.6795 105.656 63.4769 105.656C63.2742 105.656 63.0555 105.656 62.8209 105.656C62.5969 105.645 62.3835 105.635 62.1809 105.624C61.9782 105.613 61.8395 105.603 61.7649 105.592C61.7009 105.581 61.5995 105.565 61.4609 105.544C61.3329 105.523 61.2262 105.501 61.1409 105.48C60.9169 105.416 60.7409 105.315 60.6129 105.176C60.4955 105.037 60.4369 104.883 60.4369 104.712C60.4369 104.648 60.4369 104.584 60.4369 104.52C60.4369 104.456 60.4475 104.397 60.4689 104.344C60.5009 104.216 60.5862 104.109 60.7249 104.024C60.7675 103.992 60.8315 103.955 60.9169 103.912C61.0129 103.859 61.1035 103.821 61.1889 103.8C61.3169 103.757 61.4769 103.725 61.6689 103.704C61.7542 103.693 61.8395 103.688 61.9249 103.688C62.0102 103.688 62.1009 103.688 62.1969 103.688C62.5702 103.688 62.9222 103.688 63.2529 103.688C63.5942 103.688 63.9515 103.683 64.3249 103.672C64.9435 103.661 65.5569 103.661 66.1649 103.672C66.7835 103.672 67.3969 103.683 68.0049 103.704C68.1435 103.715 68.2769 103.731 68.4049 103.752C68.5329 103.773 68.6609 103.811 68.7889 103.864C68.8849 103.896 68.9755 103.939 69.0609 103.992C69.1462 104.035 69.2155 104.093 69.2689 104.168ZM72.9101 105.592L72.8781 108.104H73.5181C73.9555 108.093 74.3448 108.088 74.6861 108.088C75.0275 108.088 75.4061 108.093 75.8221 108.104H75.9021C76.0301 108.104 76.1528 108.109 76.2701 108.12C76.3981 108.12 76.5208 108.12 76.6381 108.12C76.7661 108.131 76.8888 108.152 77.0061 108.184C77.1235 108.205 77.2408 108.232 77.3581 108.264C77.5395 108.328 77.6888 108.424 77.8061 108.552C77.9128 108.691 77.9661 108.845 77.9661 109.016C77.9661 109.069 77.9661 109.133 77.9661 109.208C77.9661 109.272 77.9555 109.331 77.9341 109.384C77.9128 109.501 77.8435 109.608 77.7261 109.704C77.6728 109.779 77.5715 109.832 77.4221 109.864C77.2835 109.907 77.1448 109.933 77.0061 109.944C76.8568 109.976 76.7075 109.992 76.5581 109.992H75.8061L72.8461 110.008L72.8141 113.144L75.9981 113.176H76.7501C76.8355 113.176 76.9155 113.176 76.9901 113.176C77.0648 113.176 77.1341 113.181 77.1981 113.192C77.2835 113.213 77.3581 113.229 77.4221 113.24C77.4968 113.24 77.5661 113.251 77.6301 113.272C77.7581 113.315 77.8648 113.373 77.9501 113.448C78.0568 113.555 78.1261 113.667 78.1581 113.784C78.1688 113.837 78.1741 113.896 78.1741 113.96C78.1848 114.013 78.1848 114.072 78.1741 114.136C78.1741 114.307 78.1208 114.461 78.0141 114.6C77.8861 114.749 77.7368 114.845 77.5661 114.888C77.3421 114.984 77.0968 115.032 76.8301 115.032C76.7128 115.043 76.5901 115.048 76.4621 115.048C76.3341 115.048 76.2115 115.053 76.0941 115.064H75.9981C75.1661 115.085 74.3021 115.085 73.4061 115.064C73.1928 115.064 73.0221 115.059 72.8941 115.048C72.7661 115.048 72.6488 115.048 72.5421 115.048C72.4461 115.048 72.3448 115.048 72.2381 115.048C72.1315 115.048 71.9928 115.048 71.8221 115.048C71.5768 115.069 71.3741 115.027 71.2141 114.92C71.0968 114.845 71.0061 114.744 70.9421 114.616C70.9101 114.584 70.8941 114.552 70.8941 114.52C70.8835 114.499 70.8728 114.483 70.8621 114.472C70.8515 114.461 70.8408 114.445 70.8301 114.424C70.8088 114.371 70.7928 114.317 70.7821 114.264C70.7715 114.2 70.7661 114.141 70.7661 114.088C70.7555 114.035 70.7448 113.981 70.7341 113.928C70.7341 113.875 70.7288 113.821 70.7181 113.768V113.512C70.7181 113.469 70.7181 113.427 70.7181 113.384C70.7288 113.341 70.7341 113.299 70.7341 113.256V112.008L70.7661 109.704V107.576C70.7661 107.192 70.7661 106.851 70.7661 106.552C70.7768 106.253 70.7875 105.928 70.7981 105.576V105.496C70.8088 105.379 70.8141 105.272 70.8141 105.176C70.8248 105.069 70.8301 104.963 70.8301 104.856C70.8408 104.643 70.8995 104.435 71.0061 104.232C71.0488 104.147 71.0915 104.072 71.1341 104.008C71.1875 103.944 71.2568 103.891 71.3421 103.848C71.5021 103.752 71.6675 103.704 71.8381 103.704C71.9235 103.704 71.9875 103.709 72.0301 103.72V103.704C72.2221 103.704 72.3768 103.704 72.4941 103.704C72.6115 103.704 72.7235 103.704 72.8301 103.704C72.9475 103.704 73.0701 103.704 73.1981 103.704C73.3261 103.693 73.5021 103.688 73.7261 103.688C74.1528 103.677 74.5581 103.672 74.9421 103.672C75.3261 103.672 75.7208 103.677 76.1261 103.688H76.1901C76.3075 103.699 76.4301 103.704 76.5581 103.704C76.6861 103.704 76.8088 103.709 76.9261 103.72C77.0435 103.72 77.1608 103.736 77.2781 103.768C77.3955 103.789 77.5128 103.821 77.6301 103.864C77.8115 103.917 77.9608 104.008 78.0781 104.136C78.1741 104.285 78.2221 104.435 78.2221 104.584C78.2221 104.648 78.2221 104.712 78.2221 104.776C78.2221 104.829 78.2115 104.883 78.1901 104.936C78.1795 105.043 78.1155 105.155 77.9981 105.272C77.9555 105.293 77.9075 105.32 77.8541 105.352C77.8115 105.384 77.7581 105.411 77.6941 105.432C77.6301 105.453 77.5608 105.469 77.4861 105.48C77.4221 105.48 77.3581 105.485 77.2941 105.496C77.2088 105.517 77.1288 105.528 77.0541 105.528C76.9901 105.528 76.9155 105.528 76.8301 105.528H76.1101L72.9101 105.544V105.592ZM87.7874 110.344C87.8407 110.493 87.878 110.664 87.8994 110.856C87.9314 111.037 87.9474 111.224 87.9474 111.416C87.9474 111.608 87.9314 111.8 87.8994 111.992C87.878 112.173 87.846 112.333 87.8034 112.472C87.6327 113.069 87.2914 113.571 86.7794 113.976C86.2674 114.371 85.6807 114.659 85.0194 114.84C84.3687 115.021 83.6914 115.085 82.9874 115.032C82.294 114.979 81.6754 114.803 81.1314 114.504C80.79 114.312 80.4967 114.077 80.2514 113.8C80.006 113.523 79.798 113.213 79.6274 112.872C79.5634 112.755 79.5207 112.621 79.4994 112.472C79.4887 112.312 79.5047 112.163 79.5474 112.024C79.59 111.875 79.6594 111.747 79.7554 111.64C79.8514 111.523 79.9847 111.443 80.1554 111.4C80.262 111.379 80.3794 111.368 80.5074 111.368C80.646 111.368 80.7794 111.389 80.9074 111.432C81.0354 111.464 81.1527 111.523 81.2594 111.608C81.366 111.683 81.4514 111.789 81.5154 111.928C81.6327 112.152 81.798 112.36 82.0114 112.552C82.2354 112.733 82.47 112.883 82.7154 113C83.0674 113.117 83.4194 113.165 83.7714 113.144C84.134 113.123 84.4594 113.043 84.7474 112.904C85.046 112.765 85.286 112.579 85.4674 112.344C85.6487 112.099 85.7394 111.821 85.7394 111.512C85.7394 111.256 85.702 111.048 85.6274 110.888C85.5527 110.717 85.446 110.579 85.3074 110.472C85.1794 110.355 85.0194 110.259 84.8274 110.184C84.646 110.109 84.4434 110.045 84.2194 109.992C83.9634 109.939 83.702 109.901 83.4354 109.88C83.1794 109.859 82.918 109.832 82.6514 109.8C82.3847 109.768 82.1234 109.725 81.8674 109.672C81.6114 109.619 81.3607 109.539 81.1154 109.432C80.6247 109.229 80.2514 108.92 79.9954 108.504C79.7394 108.088 79.5847 107.64 79.5314 107.16C79.4887 106.68 79.5474 106.205 79.7074 105.736C79.8674 105.256 80.1234 104.845 80.4754 104.504C80.8167 104.195 81.222 103.976 81.6914 103.848C82.1714 103.709 82.6994 103.629 83.2754 103.608C83.5954 103.597 83.9154 103.608 84.2354 103.64C84.566 103.672 84.8807 103.725 85.1794 103.8C85.4887 103.875 85.7714 103.971 86.0274 104.088C86.294 104.205 86.5234 104.344 86.7154 104.504C86.854 104.611 86.9927 104.755 87.1314 104.936C87.27 105.107 87.3767 105.293 87.4514 105.496C87.526 105.688 87.5474 105.875 87.5154 106.056C87.494 106.237 87.382 106.392 87.1794 106.52C87.0087 106.627 86.8434 106.675 86.6834 106.664C86.534 106.643 86.39 106.595 86.2514 106.52C86.1127 106.435 85.9794 106.339 85.8514 106.232C85.7234 106.125 85.606 106.029 85.4994 105.944C85.2114 105.731 84.854 105.587 84.4274 105.512C84.0007 105.437 83.6007 105.421 83.2274 105.464C82.9927 105.496 82.774 105.549 82.5714 105.624C82.3687 105.699 82.1927 105.8 82.0434 105.928C81.9047 106.056 81.7927 106.216 81.7074 106.408C81.6327 106.589 81.606 106.797 81.6274 107.032C81.638 107.203 81.686 107.347 81.7714 107.464C81.8674 107.581 81.9794 107.677 82.1074 107.752C82.246 107.827 82.3954 107.885 82.5554 107.928C82.7154 107.971 82.8754 108.003 83.0354 108.024C83.5154 108.088 83.9954 108.136 84.4754 108.168C84.9554 108.2 85.4247 108.307 85.8834 108.488C86.3527 108.669 86.7527 108.915 87.0834 109.224C87.414 109.533 87.6487 109.907 87.7874 110.344Z" fill="#FAFAFA"/>
</svg>
