<svg width="111" height="115" viewBox="0 0 111 115" fill="none" xmlns="http://www.w3.org/2000/svg">
<g clip-path="url(#clip0)">
<path d="M34.5057 4.33531V1.44505C34.5057 0.64691 33.7333 0 32.7804 0H1.72541C0.772534 0 0 0.64691 0 1.44505V4.33531C0 5.13344 0.772332 5.78036 1.72521 5.78036H32.7802C33.7333 5.78036 34.5057 5.13344 34.5057 4.33531Z" fill="#FAFAFA"/>
<path d="M52.345 63.2665C42.9595 60.3041 36.11 53.83 34.7818 46.0844C34.6845 45.3488 33.9398 44.7937 33.0566 44.7981H8.90237C7.94969 44.7878 7.16725 45.4264 7.15491 46.2246C7.1537 46.3082 7.16098 46.3919 7.17695 46.4745C8.62619 53.1509 16.0277 56.0699 20.703 59.1336C27.2763 63.4689 32.1416 70.6945 29.6919 85.0298C29.5393 85.8176 30.178 86.5599 31.1187 86.6876C31.2173 86.7009 31.3172 86.7072 31.417 86.706H47.3414C47.9836 86.7099 48.5751 86.4149 48.8769 85.9401C52.6207 79.7695 53.4834 72.1393 53.4834 64.6247C53.4833 64.0166 53.0279 63.4735 52.345 63.2665Z" fill="#FAFAFA"/>
<path d="M31.0551 40.4629V18.7864H34.5057C35.4585 18.7864 36.2309 18.1394 36.2309 17.3413C36.2309 16.5431 35.4585 15.8962 34.5057 15.8962H31.0551V10.1157C31.0551 9.31757 30.2826 8.67065 29.3298 8.67065H5.17589C4.22301 8.67065 3.45068 9.31757 3.45068 10.1157V40.4629C3.45068 41.261 4.22301 41.9079 5.17589 41.9079H29.3298C30.2827 41.9081 31.0551 41.261 31.0551 40.4629Z" fill="#FAFAFA"/>
<path d="M77.6377 66.0991C77.6458 65.301 76.8799 64.6486 75.927 64.6419C75.8472 64.6413 75.7673 64.6455 75.6881 64.6541C74.0516 64.8866 72.3961 65.0123 70.7365 65.0299H63.8354C62.1713 65.0273 60.5101 64.9163 58.8666 64.6975C57.9218 64.5936 57.0554 65.151 56.9316 65.9423C56.9212 66.0087 56.9161 66.0756 56.917 66.1425C56.8822 72.4995 55.5037 78.801 52.8453 84.7554C52.5116 85.5029 52.9648 86.3356 53.8571 86.6149C54.0413 86.6725 54.2359 86.7036 54.4323 86.7063H80.1391C81.0919 86.6992 81.8574 86.0463 81.8487 85.2482C81.8467 85.0694 81.8053 84.8926 81.7264 84.7264C79.0609 78.7684 77.6765 72.4617 77.6377 66.0991Z" fill="#FAFAFA"/>
<path d="M100.929 37.5728H37.0935C35.6644 37.5728 34.5056 38.5433 34.5056 39.7404C34.5056 40.9376 35.6644 41.9081 37.0935 41.9081H100.929C102.358 41.9081 103.517 40.9376 103.517 39.7404C103.517 38.5431 102.358 37.5728 100.929 37.5728Z" fill="#FAFAFA"/>
<path d="M94.8736 44.8271C94.7544 44.8067 94.6326 44.797 94.5109 44.798H40.0609C39.1082 44.782 38.3203 45.4157 38.3011 46.2136C38.2985 46.3205 38.3102 46.4273 38.3357 46.5322C40.4406 55.3762 51.0511 62.1393 63.8354 62.1393H70.7365C83.5208 62.1393 94.1312 55.3762 96.2187 46.5322C96.4094 45.7502 95.8071 44.9869 94.8736 44.8271Z" fill="#FAFAFA"/>
<path d="M23.8783 91.168C23.9956 91.3067 24.0543 91.4507 24.0543 91.6C24.0543 91.664 24.0489 91.7333 24.0383 91.808C24.0383 91.872 24.0329 91.9307 24.0223 91.984C23.9903 92.1013 23.9209 92.2133 23.8142 92.32C23.7289 92.384 23.6116 92.432 23.4623 92.464C23.3876 92.4853 23.3129 92.5013 23.2383 92.512C23.1636 92.5227 23.0836 92.5387 22.9983 92.56C22.9236 92.5707 22.8489 92.576 22.7743 92.576C22.6996 92.576 22.6196 92.576 22.5343 92.576H21.7183C21.5263 92.5867 21.3343 92.592 21.1423 92.592C20.9609 92.592 20.7796 92.592 20.5983 92.592C20.6089 92.9227 20.6143 93.28 20.6143 93.664C20.6143 94.0373 20.6089 94.4747 20.5983 94.976C20.5983 95.4773 20.5929 96.0587 20.5823 96.72C20.5823 97.3813 20.5823 98.1493 20.5823 99.024V100.24C20.5823 100.347 20.5876 100.427 20.5983 100.48C20.5983 100.523 20.5983 100.565 20.5983 100.608C20.5983 100.64 20.5929 100.683 20.5823 100.736C20.5609 100.832 20.5449 100.944 20.5343 101.072C20.5343 101.125 20.5289 101.179 20.5183 101.232C20.5076 101.275 20.4916 101.323 20.4703 101.376C20.4276 101.419 20.4063 101.451 20.4063 101.472L20.3583 101.568C20.3049 101.675 20.2036 101.776 20.0543 101.872C19.8196 101.989 19.5583 102.016 19.2703 101.952C19.0889 101.931 18.9503 101.883 18.8543 101.808C18.7583 101.712 18.6889 101.616 18.6463 101.52C18.5823 101.403 18.5449 101.291 18.5343 101.184C18.5023 101.088 18.4863 100.987 18.4863 100.88V92.656C18.4223 92.656 18.2889 92.656 18.0863 92.656C17.8836 92.656 17.6649 92.656 17.4303 92.656C17.2063 92.6453 16.9929 92.6347 16.7903 92.624C16.5876 92.6133 16.4489 92.6027 16.3743 92.592C16.3103 92.5813 16.2089 92.5653 16.0703 92.544C15.9423 92.5227 15.8356 92.5013 15.7503 92.48C15.5263 92.416 15.3503 92.3147 15.2223 92.176C15.1049 92.0373 15.0463 91.8827 15.0463 91.712C15.0463 91.648 15.0463 91.584 15.0463 91.52C15.0463 91.456 15.0569 91.3973 15.0783 91.344C15.1103 91.216 15.1956 91.1093 15.3343 91.024C15.3769 90.992 15.4409 90.9547 15.5263 90.912C15.6223 90.8587 15.7129 90.8213 15.7983 90.8C15.9263 90.7573 16.0863 90.7253 16.2783 90.704C16.3636 90.6933 16.4489 90.688 16.5343 90.688C16.6196 90.688 16.7103 90.688 16.8063 90.688C17.1796 90.688 17.5316 90.688 17.8623 90.688C18.2036 90.688 18.5609 90.6827 18.9343 90.672C19.5529 90.6613 20.1663 90.6613 20.7743 90.672C21.3929 90.672 22.0063 90.6827 22.6143 90.704C22.7529 90.7147 22.8863 90.7307 23.0143 90.752C23.1423 90.7733 23.2703 90.8107 23.3983 90.864C23.4943 90.896 23.5849 90.9387 23.6703 90.992C23.7556 91.0347 23.8249 91.0933 23.8783 91.168ZM27.2064 91.056C27.921 90.7893 28.5664 90.672 29.1424 90.704C29.729 90.736 30.2517 90.8853 30.7104 91.152C31.169 91.408 31.5584 91.7547 31.8784 92.192C32.209 92.6293 32.4757 93.12 32.6784 93.664C32.8384 94.0693 32.961 94.496 33.0464 94.944C33.1317 95.392 33.1797 95.84 33.1904 96.288C33.2117 96.7253 33.1957 97.1573 33.1424 97.584C33.0997 98.0107 33.025 98.4053 32.9184 98.768C32.8544 99.0133 32.7797 99.2373 32.6944 99.44C32.609 99.6427 32.5077 99.8453 32.3904 100.048C32.1237 100.507 31.777 100.88 31.3504 101.168C30.9344 101.456 30.4757 101.659 29.9744 101.776C29.633 101.861 29.281 101.904 28.9184 101.904C28.5557 101.893 28.1984 101.845 27.8464 101.76C27.4944 101.664 27.153 101.531 26.8224 101.36C26.5024 101.179 26.209 100.955 25.9424 100.688C25.6117 100.368 25.3397 100 25.1264 99.584C24.913 99.1573 24.7477 98.7147 24.6304 98.256C24.513 97.7867 24.4384 97.3173 24.4064 96.848C24.3744 96.3787 24.3744 95.9307 24.4064 95.504C24.4384 95.1093 24.513 94.688 24.6304 94.24C24.7584 93.792 24.9397 93.36 25.1744 92.944C25.409 92.528 25.6917 92.1547 26.0224 91.824C26.3637 91.4827 26.7584 91.2267 27.2064 91.056ZM30.9504 97.904C31.0784 97.4027 31.1317 96.8373 31.1104 96.208C31.089 95.5787 30.9877 94.9867 30.8064 94.432C30.689 94.0907 30.5397 93.792 30.3584 93.536C30.1877 93.2693 29.9797 93.0667 29.7344 92.928C29.4997 92.7893 29.2224 92.72 28.9024 92.72C28.5824 92.72 28.225 92.816 27.8304 93.008C27.5957 93.1253 27.393 93.2853 27.2224 93.488C27.0624 93.6907 26.929 93.92 26.8224 94.176C26.7264 94.432 26.6464 94.6987 26.5824 94.976C26.529 95.2533 26.497 95.52 26.4864 95.776C26.465 96.0533 26.4597 96.3467 26.4704 96.656C26.481 96.9547 26.513 97.2587 26.5664 97.568C26.6304 97.8667 26.7157 98.1547 26.8224 98.432C26.929 98.6987 27.073 98.9387 27.2544 99.152C27.5317 99.472 27.8517 99.696 28.2144 99.824C28.5877 99.9413 28.9557 99.9573 29.3184 99.872C29.905 99.744 30.353 99.3547 30.6624 98.704C30.7904 98.4693 30.8864 98.2027 30.9504 97.904ZM34.9954 100.304L35.0114 99.04L35.0274 96.688C35.038 96.3467 35.0434 95.9947 35.0434 95.632C35.0434 95.2693 35.0434 94.896 35.0434 94.512C35.0434 94.128 35.0434 93.7867 35.0434 93.488C35.0434 93.1893 35.054 92.8533 35.0754 92.48V92.416C35.086 92.3093 35.0914 92.2027 35.0914 92.096C35.102 91.9787 35.1074 91.8613 35.1074 91.744C35.118 91.552 35.1767 91.344 35.2834 91.12C35.358 90.9707 35.47 90.8427 35.6194 90.736C35.79 90.6507 35.9554 90.608 36.1154 90.608C36.2007 90.608 36.2754 90.6133 36.3394 90.624C36.414 90.624 36.4834 90.6293 36.5474 90.64C36.686 90.6613 36.8087 90.7253 36.9154 90.832C36.9794 90.8853 37.038 90.9707 37.0914 91.088C37.1127 91.152 37.1287 91.216 37.1394 91.28C37.1607 91.3333 37.1767 91.392 37.1874 91.456C37.198 91.5307 37.2034 91.6 37.2034 91.664C37.214 91.728 37.2194 91.792 37.2194 91.856C37.2194 91.9307 37.214 92 37.2034 92.064C37.2034 92.1173 37.2034 92.176 37.2034 92.24V92.512L37.1074 100.816V100.976C37.1074 101.008 37.102 101.051 37.0914 101.104C37.0914 101.147 37.086 101.2 37.0754 101.264C37.054 101.317 37.0327 101.376 37.0114 101.44C37.0007 101.493 36.9847 101.552 36.9634 101.616C36.9314 101.669 36.894 101.723 36.8514 101.776C36.8194 101.819 36.7767 101.861 36.7234 101.904C36.638 101.989 36.4994 102.048 36.3074 102.08C36.0194 102.144 35.7474 102.117 35.4914 102C35.3634 101.915 35.2727 101.808 35.2194 101.68C35.1874 101.648 35.1714 101.616 35.1714 101.584C35.1607 101.563 35.15 101.547 35.1394 101.536C35.1287 101.525 35.118 101.509 35.1074 101.488C35.086 101.435 35.07 101.381 35.0594 101.328C35.0487 101.264 35.0434 101.2 35.0434 101.136C35.0327 101.083 35.022 101.029 35.0114 100.976C35.0114 100.923 35.006 100.869 34.9954 100.816C34.9847 100.731 34.9847 100.64 34.9954 100.544V100.304ZM46.3758 100.784C46.3971 100.837 46.4078 100.917 46.4078 101.024C46.4078 101.12 46.4078 101.2 46.4078 101.264C46.4078 101.349 46.3918 101.429 46.3598 101.504C46.3278 101.579 46.2851 101.648 46.2318 101.712C46.1358 101.84 45.9971 101.936 45.8158 102C45.5598 102.085 45.3198 102.128 45.0958 102.128C44.9784 102.139 44.8558 102.144 44.7278 102.144C44.5998 102.144 44.4718 102.155 44.3438 102.176H44.2798C43.4584 102.187 42.6104 102.187 41.7358 102.176C41.5224 102.165 41.2824 102.165 41.0158 102.176C40.7491 102.197 40.4878 102.192 40.2318 102.16C39.9758 102.139 39.7411 102.08 39.5278 101.984C39.3251 101.877 39.1811 101.712 39.0958 101.488C39.0744 101.435 39.0584 101.387 39.0478 101.344C39.0371 101.291 39.0318 101.237 39.0318 101.184C38.9891 100.821 38.9731 100.464 38.9838 100.112C38.9944 99.76 38.9998 99.4133 38.9998 99.072L39.0318 96.752V94.608C39.0318 94.224 39.0318 93.8827 39.0318 93.584C39.0424 93.2853 39.0531 92.9547 39.0638 92.592V92.512C39.0744 92.4053 39.0798 92.2987 39.0798 92.192C39.0904 92.0853 39.0958 91.9787 39.0958 91.872C39.1171 91.6267 39.1758 91.4187 39.2718 91.248C39.3358 91.088 39.4478 90.96 39.6078 90.864C39.7464 90.768 39.9118 90.72 40.1038 90.72C40.1784 90.72 40.2478 90.7253 40.3118 90.736C40.3864 90.736 40.4558 90.7413 40.5198 90.752C40.5838 90.7627 40.6424 90.784 40.6957 90.816C40.7598 90.848 40.8238 90.8907 40.8878 90.944C40.9518 91.0187 41.0104 91.1093 41.0638 91.216C41.1064 91.3333 41.1331 91.4507 41.1438 91.568C41.1544 91.6427 41.1651 91.712 41.1758 91.776C41.1864 91.84 41.1918 91.904 41.1918 91.968C41.1704 92.032 41.1598 92.096 41.1598 92.16C41.1598 92.224 41.1598 92.2827 41.1598 92.336V92.624L41.0958 100.16L44.2638 100.192H45.0158C45.0798 100.192 45.1491 100.197 45.2238 100.208C45.2984 100.208 45.3731 100.213 45.4478 100.224C45.5331 100.235 45.6078 100.245 45.6718 100.256C45.7358 100.267 45.7998 100.283 45.8638 100.304C45.9811 100.336 46.0771 100.389 46.1518 100.464C46.2691 100.571 46.3438 100.677 46.3758 100.784ZM49.8789 92.592L49.8469 95.104H50.4869C50.9242 95.0933 51.3135 95.088 51.6549 95.088C51.9962 95.088 52.3749 95.0933 52.7909 95.104H52.8709C52.9989 95.104 53.1215 95.1093 53.2389 95.12C53.3669 95.12 53.4895 95.12 53.6069 95.12C53.7349 95.1307 53.8575 95.152 53.9749 95.184C54.0922 95.2053 54.2095 95.232 54.3269 95.264C54.5082 95.328 54.6575 95.424 54.7749 95.552C54.8815 95.6907 54.9349 95.8453 54.9349 96.016C54.9349 96.0693 54.9349 96.1333 54.9349 96.208C54.9349 96.272 54.9242 96.3307 54.9029 96.384C54.8815 96.5013 54.8122 96.608 54.6949 96.704C54.6415 96.7787 54.5402 96.832 54.3909 96.864C54.2522 96.9067 54.1135 96.9333 53.9749 96.944C53.8255 96.976 53.6762 96.992 53.5269 96.992H52.7749L49.8149 97.008L49.7829 100.144L52.9669 100.176H53.7189C53.8042 100.176 53.8842 100.176 53.9589 100.176C54.0335 100.176 54.1029 100.181 54.1669 100.192C54.2522 100.213 54.3269 100.229 54.3909 100.24C54.4655 100.24 54.5349 100.251 54.5989 100.272C54.7269 100.315 54.8335 100.373 54.9189 100.448C55.0255 100.555 55.0949 100.667 55.1269 100.784C55.1375 100.837 55.1429 100.896 55.1429 100.96C55.1535 101.013 55.1535 101.072 55.1429 101.136C55.1429 101.307 55.0895 101.461 54.9829 101.6C54.8549 101.749 54.7055 101.845 54.5349 101.888C54.3109 101.984 54.0655 102.032 53.7989 102.032C53.6815 102.043 53.5589 102.048 53.4309 102.048C53.3029 102.048 53.1802 102.053 53.0629 102.064H52.9669C52.1349 102.085 51.2709 102.085 50.3749 102.064C50.1615 102.064 49.9909 102.059 49.8629 102.048C49.7349 102.048 49.6175 102.048 49.5109 102.048C49.4149 102.048 49.3135 102.048 49.2069 102.048C49.1002 102.048 48.9615 102.048 48.7909 102.048C48.5455 102.069 48.3429 102.027 48.1829 101.92C48.0655 101.845 47.9749 101.744 47.9109 101.616C47.8789 101.584 47.8629 101.552 47.8629 101.52C47.8522 101.499 47.8415 101.483 47.8309 101.472C47.8202 101.461 47.8095 101.445 47.7989 101.424C47.7775 101.371 47.7615 101.317 47.7509 101.264C47.7402 101.2 47.7349 101.141 47.7349 101.088C47.7242 101.035 47.7135 100.981 47.7029 100.928C47.7029 100.875 47.6975 100.821 47.6869 100.768V100.512C47.6869 100.469 47.6869 100.427 47.6869 100.384C47.6975 100.341 47.7029 100.299 47.7029 100.256V99.008L47.7349 96.704V94.576C47.7349 94.192 47.7349 93.8507 47.7349 93.552C47.7455 93.2533 47.7562 92.928 47.7669 92.576V92.496C47.7775 92.3787 47.7829 92.272 47.7829 92.176C47.7935 92.0693 47.7989 91.9627 47.7989 91.856C47.8095 91.6427 47.8682 91.4347 47.9749 91.232C48.0175 91.1467 48.0602 91.072 48.1029 91.008C48.1562 90.944 48.2255 90.8907 48.3109 90.848C48.4709 90.752 48.6362 90.704 48.8069 90.704C48.8922 90.704 48.9562 90.7093 48.9989 90.72V90.704C49.1909 90.704 49.3455 90.704 49.4629 90.704C49.5802 90.704 49.6922 90.704 49.7989 90.704C49.9162 90.704 50.0389 90.704 50.1669 90.704C50.2949 90.6933 50.4709 90.688 50.6949 90.688C51.1215 90.6773 51.5269 90.672 51.9109 90.672C52.2949 90.672 52.6895 90.6773 53.0949 90.688H53.1589C53.2762 90.6987 53.3989 90.704 53.5269 90.704C53.6549 90.704 53.7775 90.7093 53.8949 90.72C54.0122 90.72 54.1295 90.736 54.2469 90.768C54.3642 90.7893 54.4815 90.8213 54.5989 90.864C54.7802 90.9173 54.9295 91.008 55.0469 91.136C55.1429 91.2853 55.1909 91.4347 55.1909 91.584C55.1909 91.648 55.1909 91.712 55.1909 91.776C55.1909 91.8293 55.1802 91.8827 55.1589 91.936C55.1482 92.0427 55.0842 92.1547 54.9669 92.272C54.9242 92.2933 54.8762 92.32 54.8229 92.352C54.7802 92.384 54.7269 92.4107 54.6629 92.432C54.5989 92.4533 54.5295 92.4693 54.4549 92.48C54.3909 92.48 54.3269 92.4853 54.2629 92.496C54.1775 92.5173 54.0975 92.528 54.0229 92.528C53.9589 92.528 53.8842 92.528 53.7989 92.528H53.0789L49.8789 92.544V92.592ZM64.9876 91.168C65.105 91.3067 65.1636 91.4507 65.1636 91.6C65.1636 91.664 65.1583 91.7333 65.1476 91.808C65.1476 91.872 65.1423 91.9307 65.1316 91.984C65.0996 92.1013 65.0303 92.2133 64.9236 92.32C64.8383 92.384 64.721 92.432 64.5716 92.464C64.497 92.4853 64.4223 92.5013 64.3476 92.512C64.273 92.5227 64.193 92.5387 64.1076 92.56C64.033 92.5707 63.9583 92.576 63.8836 92.576C63.809 92.576 63.729 92.576 63.6436 92.576H62.8276C62.6356 92.5867 62.4436 92.592 62.2516 92.592C62.0703 92.592 61.889 92.592 61.7076 92.592C61.7183 92.9227 61.7236 93.28 61.7236 93.664C61.7236 94.0373 61.7183 94.4747 61.7076 94.976C61.7076 95.4773 61.7023 96.0587 61.6916 96.72C61.6916 97.3813 61.6916 98.1493 61.6916 99.024V100.24C61.6916 100.347 61.697 100.427 61.7076 100.48C61.7076 100.523 61.7076 100.565 61.7076 100.608C61.7076 100.64 61.7023 100.683 61.6916 100.736C61.6703 100.832 61.6543 100.944 61.6436 101.072C61.6436 101.125 61.6383 101.179 61.6276 101.232C61.617 101.275 61.601 101.323 61.5796 101.376C61.537 101.419 61.5156 101.451 61.5156 101.472L61.4676 101.568C61.4143 101.675 61.313 101.776 61.1636 101.872C60.929 101.989 60.6676 102.016 60.3796 101.952C60.1983 101.931 60.0596 101.883 59.9636 101.808C59.8676 101.712 59.7983 101.616 59.7556 101.52C59.6916 101.403 59.6543 101.291 59.6436 101.184C59.6116 101.088 59.5956 100.987 59.5956 100.88V92.656C59.5316 92.656 59.3983 92.656 59.1956 92.656C58.993 92.656 58.7743 92.656 58.5396 92.656C58.3156 92.6453 58.1023 92.6347 57.8996 92.624C57.697 92.6133 57.5583 92.6027 57.4836 92.592C57.4196 92.5813 57.3183 92.5653 57.1796 92.544C57.0516 92.5227 56.945 92.5013 56.8596 92.48C56.6356 92.416 56.4596 92.3147 56.3316 92.176C56.2143 92.0373 56.1556 91.8827 56.1556 91.712C56.1556 91.648 56.1556 91.584 56.1556 91.52C56.1556 91.456 56.1663 91.3973 56.1876 91.344C56.2196 91.216 56.305 91.1093 56.4436 91.024C56.4863 90.992 56.5503 90.9547 56.6356 90.912C56.7316 90.8587 56.8223 90.8213 56.9076 90.8C57.0356 90.7573 57.1956 90.7253 57.3876 90.704C57.473 90.6933 57.5583 90.688 57.6436 90.688C57.729 90.688 57.8196 90.688 57.9156 90.688C58.289 90.688 58.641 90.688 58.9716 90.688C59.313 90.688 59.6703 90.6827 60.0436 90.672C60.6623 90.6613 61.2756 90.6613 61.8836 90.672C62.5023 90.672 63.1156 90.6827 63.7236 90.704C63.8623 90.7147 63.9956 90.7307 64.1236 90.752C64.2516 90.7733 64.3796 90.8107 64.5076 90.864C64.6036 90.896 64.6943 90.9387 64.7796 90.992C64.865 91.0347 64.9343 91.0933 64.9876 91.168ZM75.2689 91.168C75.3862 91.3067 75.4449 91.4507 75.4449 91.6C75.4449 91.664 75.4395 91.7333 75.4289 91.808C75.4289 91.872 75.4235 91.9307 75.4129 91.984C75.3809 92.1013 75.3115 92.2133 75.2049 92.32C75.1195 92.384 75.0022 92.432 74.8529 92.464C74.7782 92.4853 74.7035 92.5013 74.6289 92.512C74.5542 92.5227 74.4742 92.5387 74.3889 92.56C74.3142 92.5707 74.2395 92.576 74.1649 92.576C74.0902 92.576 74.0102 92.576 73.9249 92.576H73.1089C72.9169 92.5867 72.7249 92.592 72.5329 92.592C72.3515 92.592 72.1702 92.592 71.9889 92.592C71.9995 92.9227 72.0049 93.28 72.0049 93.664C72.0049 94.0373 71.9995 94.4747 71.9889 94.976C71.9889 95.4773 71.9835 96.0587 71.9729 96.72C71.9729 97.3813 71.9729 98.1493 71.9729 99.024V100.24C71.9729 100.347 71.9782 100.427 71.9889 100.48C71.9889 100.523 71.9889 100.565 71.9889 100.608C71.9889 100.64 71.9835 100.683 71.9729 100.736C71.9515 100.832 71.9355 100.944 71.9249 101.072C71.9249 101.125 71.9195 101.179 71.9089 101.232C71.8982 101.275 71.8822 101.323 71.8609 101.376C71.8182 101.419 71.7969 101.451 71.7969 101.472L71.7489 101.568C71.6955 101.675 71.5942 101.776 71.4449 101.872C71.2102 101.989 70.9489 102.016 70.6609 101.952C70.4795 101.931 70.3409 101.883 70.2449 101.808C70.1489 101.712 70.0795 101.616 70.0369 101.52C69.9729 101.403 69.9355 101.291 69.9249 101.184C69.8929 101.088 69.8769 100.987 69.8769 100.88V92.656C69.8129 92.656 69.6795 92.656 69.4769 92.656C69.2742 92.656 69.0555 92.656 68.8209 92.656C68.5969 92.6453 68.3835 92.6347 68.1809 92.624C67.9782 92.6133 67.8395 92.6027 67.7649 92.592C67.7009 92.5813 67.5995 92.5653 67.4609 92.544C67.3329 92.5227 67.2262 92.5013 67.1409 92.48C66.9169 92.416 66.7409 92.3147 66.6129 92.176C66.4955 92.0373 66.4369 91.8827 66.4369 91.712C66.4369 91.648 66.4369 91.584 66.4369 91.52C66.4369 91.456 66.4475 91.3973 66.4689 91.344C66.5009 91.216 66.5862 91.1093 66.7249 91.024C66.7675 90.992 66.8315 90.9547 66.9169 90.912C67.0129 90.8587 67.1035 90.8213 67.1889 90.8C67.3169 90.7573 67.4769 90.7253 67.6689 90.704C67.7542 90.6933 67.8395 90.688 67.9249 90.688C68.0102 90.688 68.1009 90.688 68.1969 90.688C68.5702 90.688 68.9222 90.688 69.2529 90.688C69.5942 90.688 69.9515 90.6827 70.3249 90.672C70.9435 90.6613 71.5569 90.6613 72.1649 90.672C72.7835 90.672 73.3969 90.6827 74.0049 90.704C74.1435 90.7147 74.2769 90.7307 74.4049 90.752C74.5329 90.7733 74.6609 90.8107 74.7889 90.864C74.8849 90.896 74.9755 90.9387 75.0609 90.992C75.1462 91.0347 75.2155 91.0933 75.2689 91.168ZM78.9101 92.592L78.8781 95.104H79.5181C79.9555 95.0933 80.3448 95.088 80.6861 95.088C81.0275 95.088 81.4061 95.0933 81.8221 95.104H81.9021C82.0301 95.104 82.1528 95.1093 82.2701 95.12C82.3981 95.12 82.5208 95.12 82.6381 95.12C82.7661 95.1307 82.8888 95.152 83.0061 95.184C83.1235 95.2053 83.2408 95.232 83.3581 95.264C83.5395 95.328 83.6888 95.424 83.8061 95.552C83.9128 95.6907 83.9661 95.8453 83.9661 96.016C83.9661 96.0693 83.9661 96.1333 83.9661 96.208C83.9661 96.272 83.9555 96.3307 83.9341 96.384C83.9128 96.5013 83.8435 96.608 83.7261 96.704C83.6728 96.7787 83.5715 96.832 83.4221 96.864C83.2835 96.9067 83.1448 96.9333 83.0061 96.944C82.8568 96.976 82.7075 96.992 82.5581 96.992H81.8061L78.8461 97.008L78.8141 100.144L81.9981 100.176H82.7501C82.8355 100.176 82.9155 100.176 82.9901 100.176C83.0648 100.176 83.1341 100.181 83.1981 100.192C83.2835 100.213 83.3581 100.229 83.4221 100.24C83.4968 100.24 83.5661 100.251 83.6301 100.272C83.7581 100.315 83.8648 100.373 83.9501 100.448C84.0568 100.555 84.1261 100.667 84.1581 100.784C84.1688 100.837 84.1741 100.896 84.1741 100.96C84.1848 101.013 84.1848 101.072 84.1741 101.136C84.1741 101.307 84.1208 101.461 84.0141 101.6C83.8861 101.749 83.7368 101.845 83.5661 101.888C83.3421 101.984 83.0968 102.032 82.8301 102.032C82.7128 102.043 82.5901 102.048 82.4621 102.048C82.3341 102.048 82.2115 102.053 82.0941 102.064H81.9981C81.1661 102.085 80.3021 102.085 79.4061 102.064C79.1928 102.064 79.0221 102.059 78.8941 102.048C78.7661 102.048 78.6488 102.048 78.5421 102.048C78.4461 102.048 78.3448 102.048 78.2381 102.048C78.1315 102.048 77.9928 102.048 77.8221 102.048C77.5768 102.069 77.3741 102.027 77.2141 101.92C77.0968 101.845 77.0061 101.744 76.9421 101.616C76.9101 101.584 76.8941 101.552 76.8941 101.52C76.8835 101.499 76.8728 101.483 76.8621 101.472C76.8515 101.461 76.8408 101.445 76.8301 101.424C76.8088 101.371 76.7928 101.317 76.7821 101.264C76.7715 101.2 76.7661 101.141 76.7661 101.088C76.7555 101.035 76.7448 100.981 76.7341 100.928C76.7341 100.875 76.7288 100.821 76.7181 100.768V100.512C76.7181 100.469 76.7181 100.427 76.7181 100.384C76.7288 100.341 76.7341 100.299 76.7341 100.256V99.008L76.7661 96.704V94.576C76.7661 94.192 76.7661 93.8507 76.7661 93.552C76.7768 93.2533 76.7875 92.928 76.7981 92.576V92.496C76.8088 92.3787 76.8141 92.272 76.8141 92.176C76.8248 92.0693 76.8301 91.9627 76.8301 91.856C76.8408 91.6427 76.8995 91.4347 77.0061 91.232C77.0488 91.1467 77.0915 91.072 77.1341 91.008C77.1875 90.944 77.2568 90.8907 77.3421 90.848C77.5021 90.752 77.6675 90.704 77.8381 90.704C77.9235 90.704 77.9875 90.7093 78.0301 90.72V90.704C78.2221 90.704 78.3768 90.704 78.4941 90.704C78.6115 90.704 78.7235 90.704 78.8301 90.704C78.9475 90.704 79.0701 90.704 79.1981 90.704C79.3261 90.6933 79.5021 90.688 79.7261 90.688C80.1528 90.6773 80.5581 90.672 80.9421 90.672C81.3261 90.672 81.7208 90.6773 82.1261 90.688H82.1901C82.3075 90.6987 82.4301 90.704 82.5581 90.704C82.6861 90.704 82.8088 90.7093 82.9261 90.72C83.0435 90.72 83.1608 90.736 83.2781 90.768C83.3955 90.7893 83.5128 90.8213 83.6301 90.864C83.8115 90.9173 83.9608 91.008 84.0781 91.136C84.1741 91.2853 84.2221 91.4347 84.2221 91.584C84.2221 91.648 84.2221 91.712 84.2221 91.776C84.2221 91.8293 84.2115 91.8827 84.1901 91.936C84.1795 92.0427 84.1155 92.1547 83.9981 92.272C83.9555 92.2933 83.9075 92.32 83.8541 92.352C83.8115 92.384 83.7581 92.4107 83.6941 92.432C83.6301 92.4533 83.5608 92.4693 83.4861 92.48C83.4221 92.48 83.3581 92.4853 83.2941 92.496C83.2088 92.5173 83.1288 92.528 83.0541 92.528C82.9901 92.528 82.9155 92.528 82.8301 92.528H82.1101L78.9101 92.544V92.592ZM93.7874 97.344C93.8407 97.4933 93.878 97.664 93.8994 97.856C93.9314 98.0373 93.9474 98.224 93.9474 98.416C93.9474 98.608 93.9314 98.8 93.8994 98.992C93.878 99.1733 93.846 99.3333 93.8034 99.472C93.6327 100.069 93.2914 100.571 92.7794 100.976C92.2674 101.371 91.6807 101.659 91.0194 101.84C90.3687 102.021 89.6914 102.085 88.9874 102.032C88.294 101.979 87.6754 101.803 87.1314 101.504C86.79 101.312 86.4967 101.077 86.2514 100.8C86.006 100.523 85.798 100.213 85.6274 99.872C85.5634 99.7547 85.5207 99.6213 85.4994 99.472C85.4887 99.312 85.5047 99.1627 85.5474 99.024C85.59 98.8747 85.6594 98.7467 85.7554 98.64C85.8514 98.5227 85.9847 98.4427 86.1554 98.4C86.262 98.3787 86.3794 98.368 86.5074 98.368C86.646 98.368 86.7794 98.3893 86.9074 98.432C87.0354 98.464 87.1527 98.5227 87.2594 98.608C87.366 98.6827 87.4514 98.7893 87.5154 98.928C87.6327 99.152 87.798 99.36 88.0114 99.552C88.2354 99.7333 88.47 99.8827 88.7154 100C89.0674 100.117 89.4194 100.165 89.7714 100.144C90.134 100.123 90.4594 100.043 90.7474 99.904C91.046 99.7653 91.286 99.5787 91.4674 99.344C91.6487 99.0987 91.7394 98.8213 91.7394 98.512C91.7394 98.256 91.702 98.048 91.6274 97.888C91.5527 97.7173 91.446 97.5787 91.3074 97.472C91.1794 97.3547 91.0194 97.2587 90.8274 97.184C90.646 97.1093 90.4434 97.0453 90.2194 96.992C89.9634 96.9387 89.702 96.9013 89.4354 96.88C89.1794 96.8587 88.918 96.832 88.6514 96.8C88.3847 96.768 88.1234 96.7253 87.8674 96.672C87.6114 96.6187 87.3607 96.5387 87.1154 96.432C86.6247 96.2293 86.2514 95.92 85.9954 95.504C85.7394 95.088 85.5847 94.64 85.5314 94.16C85.4887 93.68 85.5474 93.2053 85.7074 92.736C85.8674 92.256 86.1234 91.8453 86.4754 91.504C86.8167 91.1947 87.222 90.976 87.6914 90.848C88.1714 90.7093 88.6994 90.6293 89.2754 90.608C89.5954 90.5973 89.9154 90.608 90.2354 90.64C90.566 90.672 90.8807 90.7253 91.1794 90.8C91.4887 90.8747 91.7714 90.9707 92.0274 91.088C92.294 91.2053 92.5234 91.344 92.7154 91.504C92.854 91.6107 92.9927 91.7547 93.1314 91.936C93.27 92.1067 93.3767 92.2933 93.4514 92.496C93.526 92.688 93.5474 92.8747 93.5154 93.056C93.494 93.2373 93.382 93.392 93.1794 93.52C93.0087 93.6267 92.8434 93.6747 92.6834 93.664C92.534 93.6427 92.39 93.5947 92.2514 93.52C92.1127 93.4347 91.9794 93.3387 91.8514 93.232C91.7234 93.1253 91.606 93.0293 91.4994 92.944C91.2114 92.7307 90.854 92.5867 90.4274 92.512C90.0007 92.4373 89.6007 92.4213 89.2274 92.464C88.9927 92.496 88.774 92.5493 88.5714 92.624C88.3687 92.6987 88.1927 92.8 88.0434 92.928C87.9047 93.056 87.7927 93.216 87.7074 93.408C87.6327 93.5893 87.606 93.7973 87.6274 94.032C87.638 94.2027 87.686 94.3467 87.7714 94.464C87.8674 94.5813 87.9794 94.6773 88.1074 94.752C88.246 94.8267 88.3954 94.8853 88.5554 94.928C88.7154 94.9707 88.8754 95.0027 89.0354 95.024C89.5154 95.088 89.9954 95.136 90.4754 95.168C90.9554 95.2 91.4247 95.3067 91.8834 95.488C92.3527 95.6693 92.7527 95.9147 93.0834 96.224C93.414 96.5333 93.6487 96.9067 93.7874 97.344Z" fill="white"/>
</g>
<defs>
<clipPath id="clip0">
<rect width="111" height="115" fill="white"/>
</clipPath>
</defs>
</svg>
