<svg width="111" height="115" viewBox="0 0 111 115" fill="none" xmlns="http://www.w3.org/2000/svg">
<path d="M25.8694 97.44C25.9228 97.6853 25.9281 97.936 25.8854 98.192C25.8534 98.4373 25.8054 98.6613 25.7414 98.864C25.6134 99.28 25.4641 99.744 25.2934 100.256C25.1228 100.768 24.9521 101.28 24.7814 101.792C24.6108 102.304 24.4454 102.789 24.2854 103.248C24.1254 103.696 23.9921 104.069 23.8854 104.368C23.7788 104.645 23.6668 104.96 23.5494 105.312C23.4321 105.664 23.2881 106.011 23.1174 106.352C22.9574 106.683 22.7654 106.987 22.5414 107.264C22.3281 107.541 22.0668 107.744 21.7574 107.872C21.4481 108 21.1654 108.032 20.9094 107.968C20.6534 107.893 20.4241 107.765 20.2214 107.584C20.0188 107.392 19.8321 107.157 19.6614 106.88C19.5014 106.592 19.3574 106.299 19.2294 106C19.1014 105.701 18.9841 105.413 18.8774 105.136C18.7708 104.848 18.6748 104.603 18.5894 104.4C18.2588 103.675 17.9601 102.907 17.6934 102.096C17.4268 101.285 17.1548 100.512 16.8774 99.776C16.8028 99.5627 16.7174 99.3067 16.6214 99.008C16.5254 98.6987 16.4614 98.3947 16.4294 98.096C16.4081 97.7867 16.4454 97.5093 16.5414 97.264C16.6374 97.008 16.8401 96.832 17.1494 96.736C17.2134 96.7147 17.2774 96.6987 17.3414 96.688C17.4161 96.6667 17.4854 96.6507 17.5494 96.64C17.6241 96.64 17.6934 96.6453 17.7574 96.656C17.8214 96.6667 17.8908 96.6933 17.9654 96.736C18.0188 96.7573 18.0721 96.784 18.1254 96.816C18.1788 96.8373 18.2268 96.8693 18.2694 96.912C18.3121 96.9653 18.3494 97.0187 18.3814 97.072C18.4241 97.1253 18.4668 97.1787 18.5094 97.232C18.5414 97.3067 18.5681 97.376 18.5894 97.44C18.6214 97.4933 18.6481 97.5467 18.6694 97.6C18.6908 97.6747 18.7174 97.744 18.7494 97.808C18.7814 97.8613 18.8081 97.9147 18.8294 97.968L18.9254 98.24L21.2294 104.816L23.5014 98.256L23.6134 97.984C23.6348 97.9307 23.6561 97.8773 23.6774 97.824C23.6988 97.76 23.7201 97.6907 23.7414 97.616C23.7628 97.5627 23.7841 97.5093 23.8054 97.456C23.8374 97.392 23.8748 97.328 23.9174 97.264C23.9494 97.2107 23.9814 97.1573 24.0134 97.104C24.0561 97.04 24.0988 96.9813 24.1414 96.928C24.1734 96.8853 24.2108 96.848 24.2534 96.816C24.3068 96.784 24.3548 96.7573 24.3974 96.736C24.4828 96.6933 24.5574 96.6667 24.6214 96.656C24.6961 96.6453 24.7601 96.64 24.8134 96.64C24.8774 96.6507 24.9414 96.6667 25.0054 96.688C25.0801 96.6987 25.1494 96.7147 25.2134 96.736C25.4161 96.7893 25.5654 96.88 25.6614 97.008C25.7681 97.136 25.8374 97.28 25.8694 97.44ZM35.6292 106.912C35.6399 106.976 35.6452 107.04 35.6452 107.104C35.6559 107.157 35.6612 107.221 35.6612 107.296C35.6612 107.424 35.6239 107.541 35.5492 107.648C35.5172 107.701 35.4745 107.755 35.4212 107.808C35.3679 107.851 35.3039 107.888 35.2292 107.92C34.9625 108.069 34.6799 108.123 34.3812 108.08C34.2319 108.037 34.0985 107.968 33.9812 107.872C33.9599 107.851 33.9439 107.84 33.9332 107.84C33.9225 107.829 33.9119 107.813 33.9012 107.792C33.8905 107.781 33.8799 107.771 33.8692 107.76C33.8585 107.739 33.8425 107.723 33.8212 107.712C33.7679 107.659 33.7252 107.611 33.6932 107.568C33.6612 107.515 33.6292 107.461 33.5972 107.408C33.5759 107.355 33.5492 107.307 33.5172 107.264C33.4959 107.211 33.4692 107.157 33.4372 107.104C33.4159 107.061 33.3945 107.024 33.3732 106.992C33.3519 106.949 33.3359 106.907 33.3252 106.864C33.2825 106.768 33.2559 106.683 33.2452 106.608L32.9092 105.824C32.1732 105.824 31.4372 105.829 30.7012 105.84C29.9759 105.84 29.2452 105.835 28.5092 105.824L28.1732 106.608C28.1519 106.651 28.1359 106.693 28.1252 106.736C28.1252 106.779 28.1145 106.821 28.0932 106.864C28.0719 106.907 28.0505 106.949 28.0292 106.992C28.0185 107.024 28.0025 107.061 27.9812 107.104C27.9492 107.157 27.9172 107.211 27.8852 107.264C27.8639 107.307 27.8372 107.355 27.8052 107.408C27.7839 107.461 27.7572 107.515 27.7252 107.568C27.6932 107.611 27.6505 107.659 27.5972 107.712C27.5759 107.723 27.5599 107.739 27.5492 107.76C27.5385 107.771 27.5279 107.781 27.5172 107.792C27.5065 107.813 27.4959 107.829 27.4852 107.84C27.4745 107.84 27.4585 107.851 27.4372 107.872C27.3199 107.968 27.1865 108.037 27.0372 108.08C26.7385 108.123 26.4559 108.069 26.1892 107.92C26.1145 107.888 26.0505 107.851 25.9972 107.808C25.9439 107.755 25.9012 107.701 25.8692 107.648C25.7945 107.541 25.7572 107.424 25.7572 107.296C25.7572 107.221 25.7572 107.157 25.7572 107.104C25.7679 107.04 25.7785 106.976 25.7892 106.912C25.8105 106.816 25.8372 106.72 25.8692 106.624C25.9012 106.528 25.9172 106.48 25.9172 106.48L29.2452 98.288L29.3412 98.032C29.3625 97.968 29.3892 97.9093 29.4212 97.856C29.4532 97.8027 29.4799 97.7387 29.5012 97.664C29.5545 97.5253 29.6132 97.4027 29.6772 97.296C29.7092 97.232 29.7465 97.1733 29.7892 97.12C29.8319 97.0667 29.8745 97.0133 29.9172 96.96C29.9812 96.8747 30.0719 96.8053 30.1892 96.752C30.3385 96.6987 30.5092 96.672 30.7012 96.672C30.9039 96.672 31.0799 96.6987 31.2292 96.752C31.3465 96.8053 31.4372 96.8747 31.5012 96.96C31.5759 97.056 31.6559 97.168 31.7412 97.296C31.8052 97.4027 31.8639 97.5253 31.9172 97.664C31.9385 97.7387 31.9652 97.8027 31.9972 97.856C32.0292 97.9093 32.0559 97.968 32.0772 98.032L32.1732 98.288L35.5012 106.48C35.5012 106.48 35.5172 106.528 35.5492 106.624C35.5812 106.72 35.6079 106.816 35.6292 106.912ZM31.8372 102.992C31.6985 102.683 31.5545 102.363 31.4052 102.032C31.2665 101.701 31.1172 101.365 30.9572 101.024C30.9145 100.928 30.8719 100.832 30.8292 100.736C30.7865 100.629 30.7439 100.528 30.7012 100.432C30.6692 100.528 30.6319 100.629 30.5892 100.736C30.5465 100.832 30.5039 100.928 30.4612 101.024C30.3012 101.365 30.1465 101.701 29.9972 102.032C29.8585 102.363 29.7199 102.683 29.5812 102.992L29.2932 103.696H32.1252L31.8372 102.992ZM37.4407 106.304L37.4567 105.04L37.4727 102.688C37.4834 102.347 37.4887 101.995 37.4887 101.632C37.4887 101.269 37.4887 100.896 37.4887 100.512C37.4887 100.128 37.4887 99.7867 37.4887 99.488C37.4887 99.1893 37.4994 98.8533 37.5207 98.48V98.416C37.5314 98.3093 37.5367 98.2027 37.5367 98.096C37.5474 97.9787 37.5527 97.8613 37.5527 97.744C37.5634 97.552 37.622 97.344 37.7287 97.12C37.8034 96.9707 37.9154 96.8427 38.0647 96.736C38.2354 96.6507 38.4007 96.608 38.5607 96.608C38.646 96.608 38.7207 96.6133 38.7847 96.624C38.8594 96.624 38.9287 96.6293 38.9927 96.64C39.1314 96.6613 39.254 96.7253 39.3607 96.832C39.4247 96.8853 39.4834 96.9707 39.5367 97.088C39.558 97.152 39.574 97.216 39.5847 97.28C39.606 97.3333 39.622 97.392 39.6327 97.456C39.6434 97.5307 39.6487 97.6 39.6487 97.664C39.6594 97.728 39.6647 97.792 39.6647 97.856C39.6647 97.9307 39.6594 98 39.6487 98.064C39.6487 98.1173 39.6487 98.176 39.6487 98.24V98.512L39.5527 106.816V106.976C39.5527 107.008 39.5474 107.051 39.5367 107.104C39.5367 107.147 39.5314 107.2 39.5207 107.264C39.4994 107.317 39.478 107.376 39.4567 107.44C39.446 107.493 39.43 107.552 39.4087 107.616C39.3767 107.669 39.3394 107.723 39.2967 107.776C39.2647 107.819 39.222 107.861 39.1687 107.904C39.0834 107.989 38.9447 108.048 38.7527 108.08C38.4647 108.144 38.1927 108.117 37.9367 108C37.8087 107.915 37.718 107.808 37.6647 107.68C37.6327 107.648 37.6167 107.616 37.6167 107.584C37.606 107.563 37.5954 107.547 37.5847 107.536C37.574 107.525 37.5634 107.509 37.5527 107.488C37.5314 107.435 37.5154 107.381 37.5047 107.328C37.494 107.264 37.4887 107.2 37.4887 107.136C37.478 107.083 37.4674 107.029 37.4567 106.976C37.4567 106.923 37.4514 106.869 37.4407 106.816C37.43 106.731 37.43 106.64 37.4407 106.544V106.304ZM49.7171 103.344C49.7704 103.493 49.8077 103.664 49.8291 103.856C49.8611 104.037 49.8771 104.224 49.8771 104.416C49.8771 104.608 49.8611 104.8 49.8291 104.992C49.8077 105.173 49.7757 105.333 49.7331 105.472C49.5624 106.069 49.2211 106.571 48.7091 106.976C48.1971 107.371 47.6104 107.659 46.9491 107.84C46.2984 108.021 45.6211 108.085 44.9171 108.032C44.2237 107.979 43.6051 107.803 43.0611 107.504C42.7197 107.312 42.4264 107.077 42.1811 106.8C41.9357 106.523 41.7277 106.213 41.5571 105.872C41.4931 105.755 41.4504 105.621 41.4291 105.472C41.4184 105.312 41.4344 105.163 41.4771 105.024C41.5197 104.875 41.5891 104.747 41.6851 104.64C41.7811 104.523 41.9144 104.443 42.0851 104.4C42.1917 104.379 42.3091 104.368 42.4371 104.368C42.5757 104.368 42.7091 104.389 42.8371 104.432C42.9651 104.464 43.0824 104.523 43.1891 104.608C43.2957 104.683 43.3811 104.789 43.4451 104.928C43.5624 105.152 43.7277 105.36 43.9411 105.552C44.1651 105.733 44.3997 105.883 44.6451 106C44.9971 106.117 45.3491 106.165 45.7011 106.144C46.0637 106.123 46.3891 106.043 46.6771 105.904C46.9757 105.765 47.2157 105.579 47.3971 105.344C47.5784 105.099 47.6691 104.821 47.6691 104.512C47.6691 104.256 47.6317 104.048 47.5571 103.888C47.4824 103.717 47.3757 103.579 47.2371 103.472C47.1091 103.355 46.9491 103.259 46.7571 103.184C46.5757 103.109 46.3731 103.045 46.1491 102.992C45.8931 102.939 45.6317 102.901 45.3651 102.88C45.1091 102.859 44.8477 102.832 44.5811 102.8C44.3144 102.768 44.0531 102.725 43.7971 102.672C43.5411 102.619 43.2904 102.539 43.0451 102.432C42.5544 102.229 42.1811 101.92 41.9251 101.504C41.6691 101.088 41.5144 100.64 41.4611 100.16C41.4184 99.68 41.4771 99.2053 41.6371 98.736C41.7971 98.256 42.0531 97.8453 42.4051 97.504C42.7464 97.1947 43.1517 96.976 43.6211 96.848C44.1011 96.7093 44.6291 96.6293 45.2051 96.608C45.5251 96.5973 45.8451 96.608 46.1651 96.64C46.4957 96.672 46.8104 96.7253 47.1091 96.8C47.4184 96.8747 47.7011 96.9707 47.9571 97.088C48.2237 97.2053 48.4531 97.344 48.6451 97.504C48.7837 97.6107 48.9224 97.7547 49.0611 97.936C49.1997 98.1067 49.3064 98.2933 49.3811 98.496C49.4557 98.688 49.4771 98.8747 49.4451 99.056C49.4237 99.2373 49.3117 99.392 49.1091 99.52C48.9384 99.6267 48.7731 99.6747 48.6131 99.664C48.4637 99.6427 48.3197 99.5947 48.1811 99.52C48.0424 99.4347 47.9091 99.3387 47.7811 99.232C47.6531 99.1253 47.5357 99.0293 47.4291 98.944C47.1411 98.7307 46.7837 98.5867 46.3571 98.512C45.9304 98.4373 45.5304 98.4213 45.1571 98.464C44.9224 98.496 44.7037 98.5493 44.5011 98.624C44.2984 98.6987 44.1224 98.8 43.9731 98.928C43.8344 99.056 43.7224 99.216 43.6371 99.408C43.5624 99.5893 43.5357 99.7973 43.5571 100.032C43.5677 100.203 43.6157 100.347 43.7011 100.464C43.7971 100.581 43.9091 100.677 44.0371 100.752C44.1757 100.827 44.3251 100.885 44.4851 100.928C44.6451 100.971 44.8051 101.003 44.9651 101.024C45.4451 101.088 45.9251 101.136 46.4051 101.168C46.8851 101.2 47.3544 101.307 47.8131 101.488C48.2824 101.669 48.6824 101.915 49.0131 102.224C49.3437 102.533 49.5784 102.907 49.7171 103.344ZM59.4514 103.344C59.5048 103.493 59.5421 103.664 59.5634 103.856C59.5954 104.037 59.6114 104.224 59.6114 104.416C59.6114 104.608 59.5954 104.8 59.5634 104.992C59.5421 105.173 59.5101 105.333 59.4674 105.472C59.2968 106.069 58.9554 106.571 58.4434 106.976C57.9314 107.371 57.3448 107.659 56.6834 107.84C56.0328 108.021 55.3554 108.085 54.6514 108.032C53.9581 107.979 53.3394 107.803 52.7954 107.504C52.4541 107.312 52.1608 107.077 51.9154 106.8C51.6701 106.523 51.4621 106.213 51.2914 105.872C51.2274 105.755 51.1848 105.621 51.1634 105.472C51.1528 105.312 51.1688 105.163 51.2114 105.024C51.2541 104.875 51.3234 104.747 51.4194 104.64C51.5154 104.523 51.6488 104.443 51.8194 104.4C51.9261 104.379 52.0434 104.368 52.1714 104.368C52.3101 104.368 52.4434 104.389 52.5714 104.432C52.6994 104.464 52.8168 104.523 52.9234 104.608C53.0301 104.683 53.1154 104.789 53.1794 104.928C53.2968 105.152 53.4621 105.36 53.6754 105.552C53.8994 105.733 54.1341 105.883 54.3794 106C54.7314 106.117 55.0834 106.165 55.4354 106.144C55.7981 106.123 56.1234 106.043 56.4114 105.904C56.7101 105.765 56.9501 105.579 57.1314 105.344C57.3128 105.099 57.4034 104.821 57.4034 104.512C57.4034 104.256 57.3661 104.048 57.2914 103.888C57.2168 103.717 57.1101 103.579 56.9714 103.472C56.8434 103.355 56.6834 103.259 56.4914 103.184C56.3101 103.109 56.1074 103.045 55.8834 102.992C55.6274 102.939 55.3661 102.901 55.0994 102.88C54.8434 102.859 54.5821 102.832 54.3154 102.8C54.0488 102.768 53.7874 102.725 53.5314 102.672C53.2754 102.619 53.0248 102.539 52.7794 102.432C52.2888 102.229 51.9154 101.92 51.6594 101.504C51.4034 101.088 51.2488 100.64 51.1954 100.16C51.1528 99.68 51.2114 99.2053 51.3714 98.736C51.5314 98.256 51.7874 97.8453 52.1394 97.504C52.4808 97.1947 52.8861 96.976 53.3554 96.848C53.8354 96.7093 54.3634 96.6293 54.9394 96.608C55.2594 96.5973 55.5794 96.608 55.8994 96.64C56.2301 96.672 56.5448 96.7253 56.8434 96.8C57.1528 96.8747 57.4354 96.9707 57.6914 97.088C57.9581 97.2053 58.1874 97.344 58.3794 97.504C58.5181 97.6107 58.6568 97.7547 58.7954 97.936C58.9341 98.1067 59.0408 98.2933 59.1154 98.496C59.1901 98.688 59.2114 98.8747 59.1794 99.056C59.1581 99.2373 59.0461 99.392 58.8434 99.52C58.6728 99.6267 58.5074 99.6747 58.3474 99.664C58.1981 99.6427 58.0541 99.5947 57.9154 99.52C57.7768 99.4347 57.6434 99.3387 57.5154 99.232C57.3874 99.1253 57.2701 99.0293 57.1634 98.944C56.8754 98.7307 56.5181 98.5867 56.0914 98.512C55.6648 98.4373 55.2648 98.4213 54.8914 98.464C54.6568 98.496 54.4381 98.5493 54.2354 98.624C54.0328 98.6987 53.8568 98.8 53.7074 98.928C53.5688 99.056 53.4568 99.216 53.3714 99.408C53.2968 99.5893 53.2701 99.7973 53.2914 100.032C53.3021 100.203 53.3501 100.347 53.4354 100.464C53.5314 100.581 53.6434 100.677 53.7714 100.752C53.9101 100.827 54.0594 100.885 54.2194 100.928C54.3794 100.971 54.5394 101.003 54.6994 101.024C55.1794 101.088 55.6594 101.136 56.1394 101.168C56.6194 101.2 57.0888 101.307 57.5474 101.488C58.0168 101.669 58.4168 101.915 58.7474 102.224C59.0781 102.533 59.3128 102.907 59.4514 103.344ZM63.0898 98.592L63.0578 101.104H63.6978C64.1351 101.093 64.5245 101.088 64.8658 101.088C65.2071 101.088 65.5858 101.093 66.0018 101.104H66.0818C66.2098 101.104 66.3325 101.109 66.4498 101.12C66.5778 101.12 66.7005 101.12 66.8178 101.12C66.9458 101.131 67.0685 101.152 67.1858 101.184C67.3031 101.205 67.4205 101.232 67.5378 101.264C67.7191 101.328 67.8685 101.424 67.9858 101.552C68.0925 101.691 68.1458 101.845 68.1458 102.016C68.1458 102.069 68.1458 102.133 68.1458 102.208C68.1458 102.272 68.1351 102.331 68.1138 102.384C68.0925 102.501 68.0231 102.608 67.9058 102.704C67.8525 102.779 67.7511 102.832 67.6018 102.864C67.4631 102.907 67.3245 102.933 67.1858 102.944C67.0365 102.976 66.8871 102.992 66.7378 102.992H65.9858L63.0258 103.008L62.9938 106.144L66.1778 106.176H66.9298C67.0151 106.176 67.0951 106.176 67.1698 106.176C67.2445 106.176 67.3138 106.181 67.3778 106.192C67.4631 106.213 67.5378 106.229 67.6018 106.24C67.6765 106.24 67.7458 106.251 67.8098 106.272C67.9378 106.315 68.0445 106.373 68.1298 106.448C68.2365 106.555 68.3058 106.667 68.3378 106.784C68.3485 106.837 68.3538 106.896 68.3538 106.96C68.3645 107.013 68.3645 107.072 68.3538 107.136C68.3538 107.307 68.3005 107.461 68.1938 107.6C68.0658 107.749 67.9165 107.845 67.7458 107.888C67.5218 107.984 67.2765 108.032 67.0098 108.032C66.8925 108.043 66.7698 108.048 66.6418 108.048C66.5138 108.048 66.3911 108.053 66.2738 108.064H66.1778C65.3458 108.085 64.4818 108.085 63.5858 108.064C63.3725 108.064 63.2018 108.059 63.0738 108.048C62.9458 108.048 62.8285 108.048 62.7218 108.048C62.6258 108.048 62.5245 108.048 62.4178 108.048C62.3111 108.048 62.1725 108.048 62.0018 108.048C61.7565 108.069 61.5538 108.027 61.3938 107.92C61.2765 107.845 61.1858 107.744 61.1218 107.616C61.0898 107.584 61.0738 107.552 61.0738 107.52C61.0631 107.499 61.0525 107.483 61.0418 107.472C61.0311 107.461 61.0205 107.445 61.0098 107.424C60.9885 107.371 60.9725 107.317 60.9618 107.264C60.9511 107.2 60.9458 107.141 60.9458 107.088C60.9351 107.035 60.9245 106.981 60.9138 106.928C60.9138 106.875 60.9085 106.821 60.8978 106.768V106.512C60.8978 106.469 60.8978 106.427 60.8978 106.384C60.9085 106.341 60.9138 106.299 60.9138 106.256V105.008L60.9458 102.704V100.576C60.9458 100.192 60.9458 99.8507 60.9458 99.552C60.9565 99.2533 60.9671 98.928 60.9778 98.576V98.496C60.9885 98.3787 60.9938 98.272 60.9938 98.176C61.0045 98.0693 61.0098 97.9627 61.0098 97.856C61.0205 97.6427 61.0791 97.4347 61.1858 97.232C61.2285 97.1467 61.2711 97.072 61.3138 97.008C61.3671 96.944 61.4365 96.8907 61.5218 96.848C61.6818 96.752 61.8471 96.704 62.0178 96.704C62.1031 96.704 62.1671 96.7093 62.2098 96.72V96.704C62.4018 96.704 62.5565 96.704 62.6738 96.704C62.7911 96.704 62.9031 96.704 63.0098 96.704C63.1271 96.704 63.2498 96.704 63.3778 96.704C63.5058 96.6933 63.6818 96.688 63.9058 96.688C64.3325 96.6773 64.7378 96.672 65.1218 96.672C65.5058 96.672 65.9005 96.6773 66.3058 96.688H66.3698C66.4871 96.6987 66.6098 96.704 66.7378 96.704C66.8658 96.704 66.9885 96.7093 67.1058 96.72C67.2231 96.72 67.3405 96.736 67.4578 96.768C67.5751 96.7893 67.6925 96.8213 67.8098 96.864C67.9911 96.9173 68.1405 97.008 68.2578 97.136C68.3538 97.2853 68.4018 97.4347 68.4018 97.584C68.4018 97.648 68.4018 97.712 68.4018 97.776C68.4018 97.8293 68.3911 97.8827 68.3698 97.936C68.3591 98.0427 68.2951 98.1547 68.1778 98.272C68.1351 98.2933 68.0871 98.32 68.0338 98.352C67.9911 98.384 67.9378 98.4107 67.8738 98.432C67.8098 98.4533 67.7405 98.4693 67.6658 98.48C67.6018 98.48 67.5378 98.4853 67.4738 98.496C67.3885 98.5173 67.3085 98.528 67.2338 98.528C67.1698 98.528 67.0951 98.528 67.0098 98.528H66.2898L63.0898 98.544V98.592ZM77.0711 106.784C77.0924 106.837 77.1031 106.917 77.1031 107.024C77.1031 107.12 77.1031 107.2 77.1031 107.264C77.1031 107.349 77.0871 107.429 77.0551 107.504C77.0231 107.579 76.9804 107.648 76.9271 107.712C76.8311 107.84 76.6924 107.936 76.5111 108C76.2551 108.085 76.0151 108.128 75.7911 108.128C75.6737 108.139 75.5511 108.144 75.4231 108.144C75.2951 108.144 75.1671 108.155 75.0391 108.176H74.9751C74.1537 108.187 73.3057 108.187 72.4311 108.176C72.2177 108.165 71.9777 108.165 71.7111 108.176C71.4444 108.197 71.1831 108.192 70.9271 108.16C70.6711 108.139 70.4364 108.08 70.2231 107.984C70.0204 107.877 69.8764 107.712 69.7911 107.488C69.7697 107.435 69.7537 107.387 69.7431 107.344C69.7324 107.291 69.7271 107.237 69.7271 107.184C69.6844 106.821 69.6684 106.464 69.6791 106.112C69.6897 105.76 69.6951 105.413 69.6951 105.072L69.7271 102.752V100.608C69.7271 100.224 69.7271 99.8827 69.7271 99.584C69.7377 99.2853 69.7484 98.9547 69.7591 98.592V98.512C69.7697 98.4053 69.7751 98.2987 69.7751 98.192C69.7857 98.0853 69.7911 97.9787 69.7911 97.872C69.8124 97.6267 69.8711 97.4187 69.9671 97.248C70.0311 97.088 70.1431 96.96 70.3031 96.864C70.4417 96.768 70.6071 96.72 70.7991 96.72C70.8737 96.72 70.9431 96.7253 71.0071 96.736C71.0817 96.736 71.1511 96.7413 71.2151 96.752C71.2791 96.7627 71.3377 96.784 71.3911 96.816C71.4551 96.848 71.5191 96.8907 71.5831 96.944C71.6471 97.0187 71.7057 97.1093 71.7591 97.216C71.8017 97.3333 71.8284 97.4507 71.8391 97.568C71.8497 97.6427 71.8604 97.712 71.8711 97.776C71.8817 97.84 71.8871 97.904 71.8871 97.968C71.8657 98.032 71.8551 98.096 71.8551 98.16C71.8551 98.224 71.8551 98.2827 71.8551 98.336V98.624L71.7911 106.16L74.9591 106.192H75.7111C75.7751 106.192 75.8444 106.197 75.9191 106.208C75.9937 106.208 76.0684 106.213 76.1431 106.224C76.2284 106.235 76.3031 106.245 76.3671 106.256C76.4311 106.267 76.4951 106.283 76.5591 106.304C76.6764 106.336 76.7724 106.389 76.8471 106.464C76.9644 106.571 77.0391 106.677 77.0711 106.784ZM85.7742 106.784C85.7955 106.837 85.8062 106.917 85.8062 107.024C85.8062 107.12 85.8062 107.2 85.8062 107.264C85.8062 107.349 85.7902 107.429 85.7582 107.504C85.7262 107.579 85.6835 107.648 85.6302 107.712C85.5342 107.84 85.3955 107.936 85.2142 108C84.9582 108.085 84.7182 108.128 84.4942 108.128C84.3769 108.139 84.2542 108.144 84.1262 108.144C83.9982 108.144 83.8702 108.155 83.7422 108.176H83.6782C82.8569 108.187 82.0089 108.187 81.1342 108.176C80.9209 108.165 80.6809 108.165 80.4142 108.176C80.1475 108.197 79.8862 108.192 79.6302 108.16C79.3742 108.139 79.1395 108.08 78.9262 107.984C78.7235 107.877 78.5795 107.712 78.4942 107.488C78.4729 107.435 78.4569 107.387 78.4462 107.344C78.4355 107.291 78.4302 107.237 78.4302 107.184C78.3875 106.821 78.3715 106.464 78.3822 106.112C78.3929 105.76 78.3982 105.413 78.3982 105.072L78.4302 102.752V100.608C78.4302 100.224 78.4302 99.8827 78.4302 99.584C78.4409 99.2853 78.4515 98.9547 78.4622 98.592V98.512C78.4729 98.4053 78.4782 98.2987 78.4782 98.192C78.4889 98.0853 78.4942 97.9787 78.4942 97.872C78.5155 97.6267 78.5742 97.4187 78.6702 97.248C78.7342 97.088 78.8462 96.96 79.0062 96.864C79.1449 96.768 79.3102 96.72 79.5022 96.72C79.5769 96.72 79.6462 96.7253 79.7102 96.736C79.7849 96.736 79.8542 96.7413 79.9182 96.752C79.9822 96.7627 80.0409 96.784 80.0942 96.816C80.1582 96.848 80.2222 96.8907 80.2862 96.944C80.3502 97.0187 80.4089 97.1093 80.4622 97.216C80.5049 97.3333 80.5315 97.4507 80.5422 97.568C80.5529 97.6427 80.5635 97.712 80.5742 97.776C80.5849 97.84 80.5902 97.904 80.5902 97.968C80.5689 98.032 80.5582 98.096 80.5582 98.16C80.5582 98.224 80.5582 98.2827 80.5582 98.336V98.624L80.4942 106.16L83.6622 106.192H84.4142C84.4782 106.192 84.5475 106.197 84.6222 106.208C84.6969 106.208 84.7715 106.213 84.8462 106.224C84.9315 106.235 85.0062 106.245 85.0702 106.256C85.1342 106.267 85.1982 106.283 85.2622 106.304C85.3795 106.336 85.4755 106.389 85.5502 106.464C85.6675 106.571 85.7422 106.677 85.7742 106.784ZM89.2773 98.592L89.2453 101.104H89.8853C90.3226 101.093 90.712 101.088 91.0533 101.088C91.3946 101.088 91.7733 101.093 92.1893 101.104H92.2693C92.3973 101.104 92.52 101.109 92.6373 101.12C92.7653 101.12 92.888 101.12 93.0053 101.12C93.1333 101.131 93.256 101.152 93.3733 101.184C93.4906 101.205 93.608 101.232 93.7253 101.264C93.9066 101.328 94.056 101.424 94.1733 101.552C94.28 101.691 94.3333 101.845 94.3333 102.016C94.3333 102.069 94.3333 102.133 94.3333 102.208C94.3333 102.272 94.3226 102.331 94.3013 102.384C94.28 102.501 94.2106 102.608 94.0933 102.704C94.04 102.779 93.9386 102.832 93.7893 102.864C93.6506 102.907 93.512 102.933 93.3733 102.944C93.224 102.976 93.0746 102.992 92.9253 102.992H92.1733L89.2133 103.008L89.1813 106.144L92.3653 106.176H93.1173C93.2026 106.176 93.2826 106.176 93.3573 106.176C93.432 106.176 93.5013 106.181 93.5653 106.192C93.6506 106.213 93.7253 106.229 93.7893 106.24C93.864 106.24 93.9333 106.251 93.9973 106.272C94.1253 106.315 94.232 106.373 94.3173 106.448C94.424 106.555 94.4933 106.667 94.5253 106.784C94.536 106.837 94.5413 106.896 94.5413 106.96C94.552 107.013 94.552 107.072 94.5413 107.136C94.5413 107.307 94.488 107.461 94.3813 107.6C94.2533 107.749 94.104 107.845 93.9333 107.888C93.7093 107.984 93.464 108.032 93.1973 108.032C93.08 108.043 92.9573 108.048 92.8293 108.048C92.7013 108.048 92.5786 108.053 92.4613 108.064H92.3653C91.5333 108.085 90.6693 108.085 89.7733 108.064C89.56 108.064 89.3893 108.059 89.2613 108.048C89.1333 108.048 89.016 108.048 88.9093 108.048C88.8133 108.048 88.712 108.048 88.6053 108.048C88.4986 108.048 88.36 108.048 88.1893 108.048C87.944 108.069 87.7413 108.027 87.5813 107.92C87.464 107.845 87.3733 107.744 87.3093 107.616C87.2773 107.584 87.2613 107.552 87.2613 107.52C87.2506 107.499 87.24 107.483 87.2293 107.472C87.2186 107.461 87.208 107.445 87.1973 107.424C87.176 107.371 87.16 107.317 87.1493 107.264C87.1386 107.2 87.1333 107.141 87.1333 107.088C87.1226 107.035 87.112 106.981 87.1013 106.928C87.1013 106.875 87.096 106.821 87.0853 106.768V106.512C87.0853 106.469 87.0853 106.427 87.0853 106.384C87.096 106.341 87.1013 106.299 87.1013 106.256V105.008L87.1333 102.704V100.576C87.1333 100.192 87.1333 99.8507 87.1333 99.552C87.144 99.2533 87.1546 98.928 87.1653 98.576V98.496C87.176 98.3787 87.1813 98.272 87.1813 98.176C87.192 98.0693 87.1973 97.9627 87.1973 97.856C87.208 97.6427 87.2666 97.4347 87.3733 97.232C87.416 97.1467 87.4586 97.072 87.5013 97.008C87.5546 96.944 87.624 96.8907 87.7093 96.848C87.8693 96.752 88.0346 96.704 88.2053 96.704C88.2906 96.704 88.3546 96.7093 88.3973 96.72V96.704C88.5893 96.704 88.744 96.704 88.8613 96.704C88.9786 96.704 89.0906 96.704 89.1973 96.704C89.3146 96.704 89.4373 96.704 89.5653 96.704C89.6933 96.6933 89.8693 96.688 90.0933 96.688C90.52 96.6773 90.9253 96.672 91.3093 96.672C91.6933 96.672 92.088 96.6773 92.4933 96.688H92.5573C92.6746 96.6987 92.7973 96.704 92.9253 96.704C93.0533 96.704 93.176 96.7093 93.2933 96.72C93.4106 96.72 93.528 96.736 93.6453 96.768C93.7626 96.7893 93.88 96.8213 93.9973 96.864C94.1786 96.9173 94.328 97.008 94.4453 97.136C94.5413 97.2853 94.5893 97.4347 94.5893 97.584C94.5893 97.648 94.5893 97.712 94.5893 97.776C94.5893 97.8293 94.5786 97.8827 94.5573 97.936C94.5466 98.0427 94.4826 98.1547 94.3653 98.272C94.3226 98.2933 94.2746 98.32 94.2213 98.352C94.1786 98.384 94.1253 98.4107 94.0613 98.432C93.9973 98.4533 93.928 98.4693 93.8533 98.48C93.7893 98.48 93.7253 98.4853 93.6613 98.496C93.576 98.5173 93.496 98.528 93.4213 98.528C93.3573 98.528 93.2826 98.528 93.1973 98.528H92.4773L89.2773 98.544V98.592Z" fill="#FAFAFA"/>
<path d="M68.0574 9.55056H75.0162V16.3536H77.3937V9.55056H83.0322L87.5386 11.9619C87.6916 12.0524 87.8588 12.1053 88.0298 12.1168C88.5883 12.1253 89.0741 11.6835 89.1935 11.0601C89.3125 10.436 89.0321 9.80214 88.5225 9.54205L83.7802 7.01287C83.6289 6.91381 83.4622 6.85061 83.2881 6.82935H68.0574C67.4006 6.82935 66.8687 7.43825 66.8687 8.18995C66.8687 8.94105 67.4006 9.55056 68.0574 9.55056V9.55056Z" fill="#FAFAFA"/>
<path d="M91.0001 14.1957C90.7797 13.8159 90.4086 13.5886 90.0104 13.5886C89.6122 13.5886 89.2411 13.8159 89.0197 14.1957L86.3587 18.7807C85.1419 20.8766 85.4689 23.6774 87.1222 25.334C88.776 26.9905 91.2448 26.9905 92.8987 25.334C94.5514 23.6774 94.878 20.8766 93.6621 18.7807L91.0001 14.1957Z" fill="#FAFAFA"/>
<path d="M53.3554 81.6136C54.9567 81.613 56.5553 81.4653 58.1364 81.1724C57.7005 78.1972 57.3867 74.9783 57.1961 72.2115C55.9267 72.4697 54.6402 72.6004 53.3506 72.6004C41.3071 72.6004 31.5105 61.3855 31.5105 47.5996C31.5105 33.8136 41.3151 22.5988 53.3586 22.5988C58.6678 22.5909 63.7982 24.7925 67.7918 28.7953C69.0522 28.4386 70.3307 28.1713 71.6198 27.9944V24.5172H70.3567C70.0583 24.5355 69.7668 24.4085 69.5545 24.1678C69.3421 23.9266 69.229 23.5942 69.2423 23.252V18.8105C64.491 15.3892 58.9906 13.5771 53.3772 13.5838C36.9912 13.5838 23.6443 28.8427 23.6443 47.599C23.6443 66.354 36.9695 81.6136 53.3554 81.6136V81.6136Z" fill="#FAFAFA"/>
<path d="M76.2049 27.6658C76.9524 27.6658 77.5635 27.6907 78.4125 27.7387V24.5173H73.9973V27.7435C74.6764 27.6937 75.4664 27.6658 76.2049 27.6658Z" fill="#FAFAFA"/>
<path d="M48.5966 37.7829C48.5966 39.2341 47.5682 40.4099 46.3003 40.4099C45.033 40.4099 44.0051 39.2341 44.0051 37.7829C44.0051 36.3318 45.033 35.1553 46.3003 35.1553C47.5682 35.1553 48.5966 36.3318 48.5966 37.7829Z" fill="#FAFAFA"/>
<path d="M71.6196 18.2976H80.7898V21.7961H71.6196V18.2976Z" fill="#FAFAFA"/>
<path d="M64.9905 29.7423C58.2079 23.9486 48.9305 23.8356 42.0418 29.4621C35.1525 35.0893 32.2287 45.1672 34.81 54.3925C37.3909 63.6183 44.8843 69.8787 53.3478 69.8787C54.5859 69.8781 55.8209 69.7432 57.0367 69.477C56.982 68.2562 56.9533 67.1277 56.9533 66.1676C56.9533 59.5171 58.2891 53.0665 60.7319 47.838C57.0462 45.09 56.235 42.1336 56.235 40.0644C56.235 35.8343 59.5373 32.0041 64.9905 29.7423V29.7423ZM51.6016 39.0739C49.634 39.8299 48.0895 41.5982 47.428 43.8503C47.2666 44.4051 46.8127 44.7807 46.3003 44.7807C45.789 44.7807 45.3346 44.4051 45.1726 43.8503C44.5122 41.5976 42.9677 39.8299 40.9996 39.0739C40.5148 38.8886 40.1872 38.3684 40.1872 37.7832C40.1872 37.1968 40.5148 36.6778 40.9996 36.4925C42.9677 35.7353 44.5122 33.9675 45.1726 31.7161C45.3346 31.16 45.789 30.7857 46.3003 30.7857C46.8127 30.7857 47.2666 31.16 47.428 31.7161C48.0895 33.9675 49.634 35.7353 51.6016 36.4925C52.0869 36.6778 52.4145 37.1968 52.4145 37.7832C52.4145 38.3684 52.0869 38.8886 51.6016 39.0739Z" fill="#FAFAFA"/>
<path d="M89.2926 46.3362C92.0672 44.5478 93.5952 42.3219 93.5952 40.0655C93.5952 34.8194 85.5851 30.3875 76.1039 30.3875C73.2772 30.3742 70.4612 30.7825 67.7275 31.6041C62.1905 33.3263 58.6125 36.6479 58.6125 40.0661C58.6125 42.822 60.9529 44.9088 62.9157 46.1728C63.1944 46.3533 63.3983 46.6547 63.4806 47.0096C63.564 47.3638 63.5178 47.7412 63.3548 48.0572C60.7607 53.0621 59.3309 59.5012 59.3309 66.1778C59.3309 67.381 59.3787 68.8808 59.4684 70.4942C59.6707 74.2065 60.0487 77.9025 60.6019 81.5674C60.7421 81.8379 60.7941 82.1563 60.7506 82.4668C60.9391 83.5655 61.1472 84.5767 61.3744 85.5016C61.5841 86.3329 62.2478 86.9072 63.0038 86.9102H89.2045C89.9605 86.9072 90.6242 86.3329 90.8333 85.5016C92.167 80.0707 92.8769 70.764 92.8769 66.1553C92.8769 59.585 91.4476 53.2159 88.853 48.2097C88.6895 47.8962 88.6443 47.52 88.7272 47.1676C88.8094 46.8145 89.0139 46.5143 89.2926 46.3362V46.3362ZM89.2682 67.5566C89.2682 70.6959 88.8121 77.1885 87.8331 81.2514C87.4545 82.7792 86.2254 83.8244 84.8381 83.8001H67.3702C65.9823 83.8244 64.7538 82.7792 64.3741 81.2514C63.3962 77.1885 62.9401 70.7069 62.9401 67.5676C62.9401 62.0206 64.2611 56.7951 66.6587 52.8409C69.1493 48.736 72.5037 46.4778 76.1033 46.4778C79.703 46.4778 83.0569 48.7293 85.548 52.8348C87.9472 56.7872 89.2682 62.0097 89.2682 67.5566Z" fill="#FAFAFA"/>
<path d="M76.1039 49.1899C70.1559 49.1899 65.3176 57.4235 65.3176 67.5566C65.3176 70.6668 65.7859 76.8737 66.6662 80.5277C66.7596 80.8771 67.0516 81.1056 67.3702 81.0788H84.8382C85.1562 81.1056 85.4487 80.8771 85.5411 80.5277C86.4214 76.8737 86.8907 70.6485 86.8907 67.5384C86.8907 57.4046 82.0519 49.1899 76.1039 49.1899V49.1899Z" fill="#FAFAFA"/>
<path d="M23.2661 86.7085C23.428 87.2639 23.8825 87.6382 24.3938 87.6382C24.9061 87.6382 25.3595 87.2639 25.5215 86.7085C26.4516 83.54 28.6247 81.0534 31.393 79.9887C31.8788 79.8033 32.2063 79.2832 32.2063 78.698C32.2063 78.1122 31.8788 77.5926 31.393 77.4072C28.6247 76.3426 26.4516 73.8553 25.5215 70.6868C25.3595 70.132 24.9061 69.7571 24.3938 69.7571C23.8825 69.7571 23.428 70.132 23.2661 70.6868C22.3364 73.8553 20.1639 76.3426 17.3951 77.4072C16.9099 77.5926 16.5823 78.1122 16.5823 78.698C16.5823 79.2832 16.9099 79.8033 17.3951 79.9887C20.1639 81.0534 22.3364 83.54 23.2661 86.7085V86.7085Z" fill="#FAFAFA"/>
</svg>
