<svg width="111" height="115" viewBox="0 0 111 115" fill="none" xmlns="http://www.w3.org/2000/svg">
<g clip-path="url(#clip0)">
<path d="M68.0574 9.55056H75.0162V16.3536H77.3937V9.55056H83.0322L87.5386 11.9619C87.6916 12.0524 87.8588 12.1053 88.0298 12.1168C88.5883 12.1253 89.0741 11.6835 89.1935 11.0601C89.3125 10.436 89.0321 9.80214 88.5225 9.54205L83.7802 7.01287C83.6289 6.91381 83.4622 6.85061 83.2881 6.82935H68.0574C67.4006 6.82935 66.8687 7.43825 66.8687 8.18995C66.8687 8.94105 67.4006 9.55056 68.0574 9.55056Z" fill="#FAFAFA"/>
<path d="M91.0001 14.1957C90.7797 13.8159 90.4086 13.5886 90.0104 13.5886C89.6122 13.5886 89.2411 13.8159 89.0197 14.1957L86.3587 18.7807C85.1419 20.8766 85.4689 23.6774 87.1222 25.334C88.776 26.9905 91.2448 26.9905 92.8987 25.334C94.5514 23.6774 94.878 20.8766 93.6621 18.7807L91.0001 14.1957Z" fill="#FAFAFA"/>
<path d="M53.3554 81.6136C54.9567 81.613 56.5553 81.4653 58.1364 81.1724C57.7005 78.1972 57.3867 74.9783 57.1961 72.2115C55.9267 72.4697 54.6402 72.6004 53.3506 72.6004C41.3071 72.6004 31.5105 61.3855 31.5105 47.5996C31.5105 33.8136 41.3151 22.5988 53.3586 22.5988C58.6678 22.5909 63.7982 24.7925 67.7918 28.7953C69.0522 28.4386 70.3307 28.1713 71.6198 27.9944V24.5172H70.3567C70.0583 24.5355 69.7668 24.4085 69.5545 24.1678C69.3421 23.9266 69.229 23.5942 69.2423 23.252V18.8105C64.491 15.3892 58.9906 13.5771 53.3772 13.5838C36.9912 13.5838 23.6443 28.8427 23.6443 47.599C23.6443 66.354 36.9695 81.6136 53.3554 81.6136Z" fill="#FAFAFA"/>
<path d="M76.2049 27.6658C76.9524 27.6658 77.5635 27.6907 78.4125 27.7387V24.5173H73.9973V27.7435C74.6764 27.6937 75.4664 27.6658 76.2049 27.6658Z" fill="#FAFAFA"/>
<path d="M48.5966 37.7829C48.5966 39.2341 47.5682 40.4099 46.3003 40.4099C45.033 40.4099 44.0051 39.2341 44.0051 37.7829C44.0051 36.3318 45.033 35.1553 46.3003 35.1553C47.5682 35.1553 48.5966 36.3318 48.5966 37.7829Z" fill="#FAFAFA"/>
<path d="M71.6196 18.2976H80.7898V21.7961H71.6196V18.2976Z" fill="#FAFAFA"/>
<path d="M64.9905 29.7423C58.2079 23.9486 48.9305 23.8356 42.0418 29.4621C35.1525 35.0893 32.2287 45.1672 34.81 54.3925C37.3909 63.6183 44.8843 69.8787 53.3478 69.8787C54.5859 69.8781 55.8209 69.7432 57.0367 69.477C56.982 68.2562 56.9533 67.1277 56.9533 66.1676C56.9533 59.5171 58.2891 53.0665 60.7319 47.838C57.0462 45.09 56.235 42.1336 56.235 40.0644C56.235 35.8343 59.5373 32.0041 64.9905 29.7423ZM51.6016 39.0739C49.634 39.8299 48.0895 41.5982 47.428 43.8503C47.2666 44.4051 46.8127 44.7807 46.3003 44.7807C45.789 44.7807 45.3346 44.4051 45.1726 43.8503C44.5122 41.5976 42.9677 39.8299 40.9996 39.0739C40.5148 38.8886 40.1872 38.3684 40.1872 37.7832C40.1872 37.1968 40.5148 36.6778 40.9996 36.4925C42.9677 35.7353 44.5122 33.9675 45.1726 31.7161C45.3346 31.16 45.789 30.7857 46.3003 30.7857C46.8127 30.7857 47.2666 31.16 47.428 31.7161C48.0895 33.9675 49.634 35.7353 51.6016 36.4925C52.0869 36.6778 52.4145 37.1968 52.4145 37.7832C52.4145 38.3684 52.0869 38.8886 51.6016 39.0739Z" fill="#FAFAFA"/>
<path d="M89.2927 46.3362C92.0673 44.5478 93.5952 42.3219 93.5952 40.0655C93.5952 34.8194 85.5851 30.3875 76.1039 30.3875C73.2772 30.3742 70.4613 30.7825 67.7276 31.6041C62.1906 33.3263 58.6125 36.6479 58.6125 40.0661C58.6125 42.822 60.9529 44.9088 62.9157 46.1728C63.1944 46.3533 63.3983 46.6547 63.4806 47.0096C63.564 47.3638 63.5179 47.7412 63.3549 48.0572C60.7608 53.0621 59.3309 59.5012 59.3309 66.1778C59.3309 67.381 59.3787 68.8808 59.4684 70.4942C59.6707 74.2065 60.0487 77.9025 60.6019 81.5674C60.7421 81.8379 60.7941 82.1563 60.7506 82.4668C60.9391 83.5655 61.1473 84.5767 61.3745 85.5016C61.5842 86.3329 62.2478 86.9072 63.0038 86.9102H89.2045C89.9605 86.9072 90.6242 86.3329 90.8333 85.5016C92.167 80.0707 92.8769 70.764 92.8769 66.1553C92.8769 59.585 91.4476 53.2159 88.853 48.2097C88.6895 47.8962 88.6444 47.52 88.7273 47.1676C88.8095 46.8145 89.014 46.5143 89.2927 46.3362ZM89.2683 67.5566C89.2683 70.6959 88.8121 77.1885 87.8331 81.2514C87.4545 82.7792 86.2254 83.8244 84.8381 83.8001H67.3703C65.9824 83.8244 64.7538 82.7792 64.3741 81.2514C63.3962 77.1885 62.9402 70.7069 62.9402 67.5676C62.9402 62.0206 64.2611 56.7951 66.6587 52.8409C69.1493 48.736 72.5038 46.4778 76.1034 46.4778C79.7031 46.4778 83.0569 48.7293 85.548 52.8348C87.9472 56.7872 89.2683 62.0097 89.2683 67.5566Z" fill="#FAFAFA"/>
<path d="M76.1039 49.1899C70.1559 49.1899 65.3176 57.4235 65.3176 67.5566C65.3176 70.6668 65.7859 76.8737 66.6662 80.5277C66.7596 80.8771 67.0516 81.1056 67.3702 81.0788H84.8382C85.1562 81.1056 85.4487 80.8771 85.5411 80.5277C86.4214 76.8737 86.8907 70.6485 86.8907 67.5384C86.8907 57.4046 82.0519 49.1899 76.1039 49.1899Z" fill="#FAFAFA"/>
<path d="M23.2661 86.7085C23.428 87.2639 23.8825 87.6382 24.3938 87.6382C24.9061 87.6382 25.3595 87.2639 25.5215 86.7085C26.4516 83.54 28.6247 81.0534 31.393 79.9887C31.8788 79.8033 32.2063 79.2832 32.2063 78.698C32.2063 78.1122 31.8788 77.5926 31.393 77.4072C28.6247 76.3426 26.4516 73.8553 25.5215 70.6868C25.3595 70.132 24.9061 69.7571 24.3938 69.7571C23.8825 69.7571 23.428 70.132 23.2661 70.6868C22.3364 73.8553 20.1639 76.3426 17.3951 77.4072C16.9099 77.5926 16.5823 78.1122 16.5823 78.698C16.5823 79.2832 16.9099 79.8033 17.3951 79.9887C20.1639 81.0534 22.3364 83.54 23.2661 86.7085Z" fill="#FAFAFA"/>
<path d="M27.3694 94.44C27.4228 94.6853 27.4281 94.936 27.3854 95.192C27.3534 95.4373 27.3054 95.6613 27.2414 95.864C27.1134 96.28 26.9641 96.744 26.7934 97.256C26.6228 97.768 26.4521 98.28 26.2814 98.792C26.1108 99.304 25.9454 99.7893 25.7854 100.248C25.6254 100.696 25.4921 101.069 25.3854 101.368C25.2788 101.645 25.1668 101.96 25.0494 102.312C24.9321 102.664 24.7881 103.011 24.6174 103.352C24.4574 103.683 24.2654 103.987 24.0414 104.264C23.8281 104.541 23.5668 104.744 23.2574 104.872C22.9481 105 22.6654 105.032 22.4094 104.968C22.1534 104.893 21.9241 104.765 21.7214 104.584C21.5188 104.392 21.3321 104.157 21.1614 103.88C21.0014 103.592 20.8574 103.299 20.7294 103C20.6014 102.701 20.4841 102.413 20.3774 102.136C20.2708 101.848 20.1748 101.603 20.0894 101.4C19.7588 100.675 19.4601 99.9067 19.1934 99.096C18.9268 98.2853 18.6548 97.512 18.3774 96.776C18.3028 96.5627 18.2174 96.3067 18.1214 96.008C18.0254 95.6987 17.9614 95.3947 17.9294 95.096C17.9081 94.7867 17.9454 94.5093 18.0414 94.264C18.1374 94.008 18.3401 93.832 18.6494 93.736C18.7134 93.7147 18.7774 93.6987 18.8414 93.688C18.9161 93.6667 18.9854 93.6507 19.0494 93.64C19.1241 93.64 19.1934 93.6453 19.2574 93.656C19.3214 93.6667 19.3908 93.6933 19.4654 93.736C19.5188 93.7573 19.5721 93.784 19.6254 93.816C19.6788 93.8373 19.7268 93.8693 19.7694 93.912C19.8121 93.9653 19.8494 94.0187 19.8814 94.072C19.9241 94.1253 19.9668 94.1787 20.0094 94.232C20.0414 94.3067 20.0681 94.376 20.0894 94.44C20.1214 94.4933 20.1481 94.5467 20.1694 94.6C20.1908 94.6747 20.2174 94.744 20.2494 94.808C20.2814 94.8613 20.3081 94.9147 20.3294 94.968L20.4254 95.24L22.7294 101.816L25.0014 95.256L25.1134 94.984C25.1348 94.9307 25.1561 94.8773 25.1774 94.824C25.1988 94.76 25.2201 94.6907 25.2414 94.616C25.2628 94.5627 25.2841 94.5093 25.3054 94.456C25.3374 94.392 25.3748 94.328 25.4174 94.264C25.4494 94.2107 25.4814 94.1573 25.5134 94.104C25.5561 94.04 25.5988 93.9813 25.6414 93.928C25.6734 93.8853 25.7108 93.848 25.7534 93.816C25.8068 93.784 25.8548 93.7573 25.8974 93.736C25.9828 93.6933 26.0574 93.6667 26.1214 93.656C26.1961 93.6453 26.2601 93.64 26.3134 93.64C26.3774 93.6507 26.4414 93.6667 26.5054 93.688C26.5801 93.6987 26.6494 93.7147 26.7134 93.736C26.9161 93.7893 27.0654 93.88 27.1614 94.008C27.2681 94.136 27.3374 94.28 27.3694 94.44ZM37.1292 103.912C37.1399 103.976 37.1452 104.04 37.1452 104.104C37.1559 104.157 37.1612 104.221 37.1612 104.296C37.1612 104.424 37.1239 104.541 37.0492 104.648C37.0172 104.701 36.9745 104.755 36.9212 104.808C36.8679 104.851 36.8039 104.888 36.7292 104.92C36.4625 105.069 36.1799 105.123 35.8812 105.08C35.7319 105.037 35.5985 104.968 35.4812 104.872C35.4599 104.851 35.4439 104.84 35.4332 104.84C35.4225 104.829 35.4119 104.813 35.4012 104.792C35.3905 104.781 35.3799 104.771 35.3692 104.76C35.3585 104.739 35.3425 104.723 35.3212 104.712C35.2679 104.659 35.2252 104.611 35.1932 104.568C35.1612 104.515 35.1292 104.461 35.0972 104.408C35.0759 104.355 35.0492 104.307 35.0172 104.264C34.9959 104.211 34.9692 104.157 34.9372 104.104C34.9159 104.061 34.8945 104.024 34.8732 103.992C34.8519 103.949 34.8359 103.907 34.8252 103.864C34.7825 103.768 34.7559 103.683 34.7452 103.608L34.4092 102.824C33.6732 102.824 32.9372 102.829 32.2012 102.84C31.4759 102.84 30.7452 102.835 30.0092 102.824L29.6732 103.608C29.6519 103.651 29.6359 103.693 29.6252 103.736C29.6252 103.779 29.6145 103.821 29.5932 103.864C29.5719 103.907 29.5505 103.949 29.5292 103.992C29.5185 104.024 29.5025 104.061 29.4812 104.104C29.4492 104.157 29.4172 104.211 29.3852 104.264C29.3639 104.307 29.3372 104.355 29.3052 104.408C29.2839 104.461 29.2572 104.515 29.2252 104.568C29.1932 104.611 29.1505 104.659 29.0972 104.712C29.0759 104.723 29.0599 104.739 29.0492 104.76C29.0385 104.771 29.0279 104.781 29.0172 104.792C29.0065 104.813 28.9959 104.829 28.9852 104.84C28.9745 104.84 28.9585 104.851 28.9372 104.872C28.8199 104.968 28.6865 105.037 28.5372 105.08C28.2385 105.123 27.9559 105.069 27.6892 104.92C27.6145 104.888 27.5505 104.851 27.4972 104.808C27.4439 104.755 27.4012 104.701 27.3692 104.648C27.2945 104.541 27.2572 104.424 27.2572 104.296C27.2572 104.221 27.2572 104.157 27.2572 104.104C27.2679 104.04 27.2785 103.976 27.2892 103.912C27.3105 103.816 27.3372 103.72 27.3692 103.624C27.4012 103.528 27.4172 103.48 27.4172 103.48L30.7452 95.288L30.8412 95.032C30.8625 94.968 30.8892 94.9093 30.9212 94.856C30.9532 94.8027 30.9799 94.7387 31.0012 94.664C31.0545 94.5253 31.1132 94.4027 31.1772 94.296C31.2092 94.232 31.2465 94.1733 31.2892 94.12C31.3319 94.0667 31.3745 94.0133 31.4172 93.96C31.4812 93.8747 31.5719 93.8053 31.6892 93.752C31.8385 93.6987 32.0092 93.672 32.2012 93.672C32.4039 93.672 32.5799 93.6987 32.7292 93.752C32.8465 93.8053 32.9372 93.8747 33.0012 93.96C33.0759 94.056 33.1559 94.168 33.2412 94.296C33.3052 94.4027 33.3639 94.5253 33.4172 94.664C33.4385 94.7387 33.4652 94.8027 33.4972 94.856C33.5292 94.9093 33.5559 94.968 33.5772 95.032L33.6732 95.288L37.0012 103.48C37.0012 103.48 37.0172 103.528 37.0492 103.624C37.0812 103.72 37.1079 103.816 37.1292 103.912ZM33.3372 99.992C33.1985 99.6827 33.0545 99.3627 32.9052 99.032C32.7665 98.7013 32.6172 98.3653 32.4572 98.024C32.4145 97.928 32.3719 97.832 32.3292 97.736C32.2865 97.6293 32.2439 97.528 32.2012 97.432C32.1692 97.528 32.1319 97.6293 32.0892 97.736C32.0465 97.832 32.0039 97.928 31.9612 98.024C31.8012 98.3653 31.6465 98.7013 31.4972 99.032C31.3585 99.3627 31.2199 99.6827 31.0812 99.992L30.7932 100.696H33.6252L33.3372 99.992ZM38.9407 103.304L38.9567 102.04L38.9727 99.688C38.9834 99.3467 38.9887 98.9947 38.9887 98.632C38.9887 98.2693 38.9887 97.896 38.9887 97.512C38.9887 97.128 38.9887 96.7867 38.9887 96.488C38.9887 96.1893 38.9994 95.8533 39.0207 95.48V95.416C39.0314 95.3093 39.0367 95.2027 39.0367 95.096C39.0474 94.9787 39.0527 94.8613 39.0527 94.744C39.0634 94.552 39.122 94.344 39.2287 94.12C39.3034 93.9707 39.4154 93.8427 39.5647 93.736C39.7354 93.6507 39.9007 93.608 40.0607 93.608C40.146 93.608 40.2207 93.6133 40.2847 93.624C40.3594 93.624 40.4287 93.6293 40.4927 93.64C40.6314 93.6613 40.754 93.7253 40.8607 93.832C40.9247 93.8853 40.9834 93.9707 41.0367 94.088C41.058 94.152 41.074 94.216 41.0847 94.28C41.106 94.3333 41.122 94.392 41.1327 94.456C41.1434 94.5307 41.1487 94.6 41.1487 94.664C41.1594 94.728 41.1647 94.792 41.1647 94.856C41.1647 94.9307 41.1594 95 41.1487 95.064C41.1487 95.1173 41.1487 95.176 41.1487 95.24V95.512L41.0527 103.816V103.976C41.0527 104.008 41.0474 104.051 41.0367 104.104C41.0367 104.147 41.0314 104.2 41.0207 104.264C40.9994 104.317 40.978 104.376 40.9567 104.44C40.946 104.493 40.93 104.552 40.9087 104.616C40.8767 104.669 40.8394 104.723 40.7967 104.776C40.7647 104.819 40.722 104.861 40.6687 104.904C40.5834 104.989 40.4447 105.048 40.2527 105.08C39.9647 105.144 39.6927 105.117 39.4367 105C39.3087 104.915 39.218 104.808 39.1647 104.68C39.1327 104.648 39.1167 104.616 39.1167 104.584C39.106 104.563 39.0954 104.547 39.0847 104.536C39.074 104.525 39.0634 104.509 39.0527 104.488C39.0314 104.435 39.0154 104.381 39.0047 104.328C38.994 104.264 38.9887 104.2 38.9887 104.136C38.978 104.083 38.9674 104.029 38.9567 103.976C38.9567 103.923 38.9514 103.869 38.9407 103.816C38.93 103.731 38.93 103.64 38.9407 103.544V103.304ZM51.2171 100.344C51.2704 100.493 51.3077 100.664 51.3291 100.856C51.3611 101.037 51.3771 101.224 51.3771 101.416C51.3771 101.608 51.3611 101.8 51.3291 101.992C51.3077 102.173 51.2757 102.333 51.2331 102.472C51.0624 103.069 50.7211 103.571 50.2091 103.976C49.6971 104.371 49.1104 104.659 48.4491 104.84C47.7984 105.021 47.1211 105.085 46.4171 105.032C45.7237 104.979 45.1051 104.803 44.5611 104.504C44.2197 104.312 43.9264 104.077 43.6811 103.8C43.4357 103.523 43.2277 103.213 43.0571 102.872C42.9931 102.755 42.9504 102.621 42.9291 102.472C42.9184 102.312 42.9344 102.163 42.9771 102.024C43.0197 101.875 43.0891 101.747 43.1851 101.64C43.2811 101.523 43.4144 101.443 43.5851 101.4C43.6917 101.379 43.8091 101.368 43.9371 101.368C44.0757 101.368 44.2091 101.389 44.3371 101.432C44.4651 101.464 44.5824 101.523 44.6891 101.608C44.7957 101.683 44.8811 101.789 44.9451 101.928C45.0624 102.152 45.2277 102.36 45.4411 102.552C45.6651 102.733 45.8997 102.883 46.1451 103C46.4971 103.117 46.8491 103.165 47.2011 103.144C47.5637 103.123 47.8891 103.043 48.1771 102.904C48.4757 102.765 48.7157 102.579 48.8971 102.344C49.0784 102.099 49.1691 101.821 49.1691 101.512C49.1691 101.256 49.1317 101.048 49.0571 100.888C48.9824 100.717 48.8757 100.579 48.7371 100.472C48.6091 100.355 48.4491 100.259 48.2571 100.184C48.0757 100.109 47.8731 100.045 47.6491 99.992C47.3931 99.9387 47.1317 99.9013 46.8651 99.88C46.6091 99.8587 46.3477 99.832 46.0811 99.8C45.8144 99.768 45.5531 99.7253 45.2971 99.672C45.0411 99.6187 44.7904 99.5387 44.5451 99.432C44.0544 99.2293 43.6811 98.92 43.4251 98.504C43.1691 98.088 43.0144 97.64 42.9611 97.16C42.9184 96.68 42.9771 96.2053 43.1371 95.736C43.2971 95.256 43.5531 94.8453 43.9051 94.504C44.2464 94.1947 44.6517 93.976 45.1211 93.848C45.6011 93.7093 46.1291 93.6293 46.7051 93.608C47.0251 93.5973 47.3451 93.608 47.6651 93.64C47.9957 93.672 48.3104 93.7253 48.6091 93.8C48.9184 93.8747 49.2011 93.9707 49.4571 94.088C49.7237 94.2053 49.9531 94.344 50.1451 94.504C50.2837 94.6107 50.4224 94.7547 50.5611 94.936C50.6997 95.1067 50.8064 95.2933 50.8811 95.496C50.9557 95.688 50.9771 95.8747 50.9451 96.056C50.9237 96.2373 50.8117 96.392 50.6091 96.52C50.4384 96.6267 50.2731 96.6747 50.1131 96.664C49.9637 96.6427 49.8197 96.5947 49.6811 96.52C49.5424 96.4347 49.4091 96.3387 49.2811 96.232C49.1531 96.1253 49.0357 96.0293 48.9291 95.944C48.6411 95.7307 48.2837 95.5867 47.8571 95.512C47.4304 95.4373 47.0304 95.4213 46.6571 95.464C46.4224 95.496 46.2037 95.5493 46.0011 95.624C45.7984 95.6987 45.6224 95.8 45.4731 95.928C45.3344 96.056 45.2224 96.216 45.1371 96.408C45.0624 96.5893 45.0357 96.7973 45.0571 97.032C45.0677 97.2027 45.1157 97.3467 45.2011 97.464C45.2971 97.5813 45.4091 97.6773 45.5371 97.752C45.6757 97.8267 45.8251 97.8853 45.9851 97.928C46.1451 97.9707 46.3051 98.0027 46.4651 98.024C46.9451 98.088 47.4251 98.136 47.9051 98.168C48.3851 98.2 48.8544 98.3067 49.3131 98.488C49.7824 98.6693 50.1824 98.9147 50.5131 99.224C50.8437 99.5333 51.0784 99.9067 51.2171 100.344ZM60.9514 100.344C61.0048 100.493 61.0421 100.664 61.0634 100.856C61.0954 101.037 61.1114 101.224 61.1114 101.416C61.1114 101.608 61.0954 101.8 61.0634 101.992C61.0421 102.173 61.0101 102.333 60.9674 102.472C60.7968 103.069 60.4554 103.571 59.9434 103.976C59.4314 104.371 58.8448 104.659 58.1834 104.84C57.5328 105.021 56.8554 105.085 56.1514 105.032C55.4581 104.979 54.8394 104.803 54.2954 104.504C53.9541 104.312 53.6608 104.077 53.4154 103.8C53.1701 103.523 52.9621 103.213 52.7914 102.872C52.7274 102.755 52.6848 102.621 52.6634 102.472C52.6528 102.312 52.6688 102.163 52.7114 102.024C52.7541 101.875 52.8234 101.747 52.9194 101.64C53.0154 101.523 53.1488 101.443 53.3194 101.4C53.4261 101.379 53.5434 101.368 53.6714 101.368C53.8101 101.368 53.9434 101.389 54.0714 101.432C54.1994 101.464 54.3168 101.523 54.4234 101.608C54.5301 101.683 54.6154 101.789 54.6794 101.928C54.7968 102.152 54.9621 102.36 55.1754 102.552C55.3994 102.733 55.6341 102.883 55.8794 103C56.2314 103.117 56.5834 103.165 56.9354 103.144C57.2981 103.123 57.6234 103.043 57.9114 102.904C58.2101 102.765 58.4501 102.579 58.6314 102.344C58.8128 102.099 58.9034 101.821 58.9034 101.512C58.9034 101.256 58.8661 101.048 58.7914 100.888C58.7168 100.717 58.6101 100.579 58.4714 100.472C58.3434 100.355 58.1834 100.259 57.9914 100.184C57.8101 100.109 57.6074 100.045 57.3834 99.992C57.1274 99.9387 56.8661 99.9013 56.5994 99.88C56.3434 99.8587 56.0821 99.832 55.8154 99.8C55.5488 99.768 55.2874 99.7253 55.0314 99.672C54.7754 99.6187 54.5248 99.5387 54.2794 99.432C53.7888 99.2293 53.4154 98.92 53.1594 98.504C52.9034 98.088 52.7488 97.64 52.6954 97.16C52.6528 96.68 52.7114 96.2053 52.8714 95.736C53.0314 95.256 53.2874 94.8453 53.6394 94.504C53.9808 94.1947 54.3861 93.976 54.8554 93.848C55.3354 93.7093 55.8634 93.6293 56.4394 93.608C56.7594 93.5973 57.0794 93.608 57.3994 93.64C57.7301 93.672 58.0448 93.7253 58.3434 93.8C58.6528 93.8747 58.9354 93.9707 59.1914 94.088C59.4581 94.2053 59.6874 94.344 59.8794 94.504C60.0181 94.6107 60.1568 94.7547 60.2954 94.936C60.4341 95.1067 60.5408 95.2933 60.6154 95.496C60.6901 95.688 60.7114 95.8747 60.6794 96.056C60.6581 96.2373 60.5461 96.392 60.3434 96.52C60.1728 96.6267 60.0074 96.6747 59.8474 96.664C59.6981 96.6427 59.5541 96.5947 59.4154 96.52C59.2768 96.4347 59.1434 96.3387 59.0154 96.232C58.8874 96.1253 58.7701 96.0293 58.6634 95.944C58.3754 95.7307 58.0181 95.5867 57.5914 95.512C57.1648 95.4373 56.7648 95.4213 56.3914 95.464C56.1568 95.496 55.9381 95.5493 55.7354 95.624C55.5328 95.6987 55.3568 95.8 55.2074 95.928C55.0688 96.056 54.9568 96.216 54.8714 96.408C54.7968 96.5893 54.7701 96.7973 54.7914 97.032C54.8021 97.2027 54.8501 97.3467 54.9354 97.464C55.0314 97.5813 55.1434 97.6773 55.2714 97.752C55.4101 97.8267 55.5594 97.8853 55.7194 97.928C55.8794 97.9707 56.0394 98.0027 56.1994 98.024C56.6794 98.088 57.1594 98.136 57.6394 98.168C58.1194 98.2 58.5888 98.3067 59.0474 98.488C59.5168 98.6693 59.9168 98.9147 60.2474 99.224C60.5781 99.5333 60.8128 99.9067 60.9514 100.344ZM64.5898 95.592L64.5578 98.104H65.1978C65.6351 98.0933 66.0245 98.088 66.3658 98.088C66.7071 98.088 67.0858 98.0933 67.5018 98.104H67.5818C67.7098 98.104 67.8325 98.1093 67.9498 98.12C68.0778 98.12 68.2005 98.12 68.3178 98.12C68.4458 98.1307 68.5685 98.152 68.6858 98.184C68.8031 98.2053 68.9205 98.232 69.0378 98.264C69.2191 98.328 69.3685 98.424 69.4858 98.552C69.5925 98.6907 69.6458 98.8453 69.6458 99.016C69.6458 99.0693 69.6458 99.1333 69.6458 99.208C69.6458 99.272 69.6351 99.3307 69.6138 99.384C69.5925 99.5013 69.5231 99.608 69.4058 99.704C69.3525 99.7787 69.2511 99.832 69.1018 99.864C68.9631 99.9067 68.8245 99.9333 68.6858 99.944C68.5365 99.976 68.3871 99.992 68.2378 99.992H67.4858L64.5258 100.008L64.4938 103.144L67.6778 103.176H68.4298C68.5151 103.176 68.5951 103.176 68.6698 103.176C68.7445 103.176 68.8138 103.181 68.8778 103.192C68.9631 103.213 69.0378 103.229 69.1018 103.24C69.1765 103.24 69.2458 103.251 69.3098 103.272C69.4378 103.315 69.5445 103.373 69.6298 103.448C69.7365 103.555 69.8058 103.667 69.8378 103.784C69.8485 103.837 69.8538 103.896 69.8538 103.96C69.8645 104.013 69.8645 104.072 69.8538 104.136C69.8538 104.307 69.8005 104.461 69.6938 104.6C69.5658 104.749 69.4165 104.845 69.2458 104.888C69.0218 104.984 68.7765 105.032 68.5098 105.032C68.3925 105.043 68.2698 105.048 68.1418 105.048C68.0138 105.048 67.8911 105.053 67.7738 105.064H67.6778C66.8458 105.085 65.9818 105.085 65.0858 105.064C64.8725 105.064 64.7018 105.059 64.5738 105.048C64.4458 105.048 64.3285 105.048 64.2218 105.048C64.1258 105.048 64.0245 105.048 63.9178 105.048C63.8111 105.048 63.6725 105.048 63.5018 105.048C63.2565 105.069 63.0538 105.027 62.8938 104.92C62.7765 104.845 62.6858 104.744 62.6218 104.616C62.5898 104.584 62.5738 104.552 62.5738 104.52C62.5631 104.499 62.5525 104.483 62.5418 104.472C62.5311 104.461 62.5205 104.445 62.5098 104.424C62.4885 104.371 62.4725 104.317 62.4618 104.264C62.4511 104.2 62.4458 104.141 62.4458 104.088C62.4351 104.035 62.4245 103.981 62.4138 103.928C62.4138 103.875 62.4085 103.821 62.3978 103.768V103.512C62.3978 103.469 62.3978 103.427 62.3978 103.384C62.4085 103.341 62.4138 103.299 62.4138 103.256V102.008L62.4458 99.704V97.576C62.4458 97.192 62.4458 96.8507 62.4458 96.552C62.4565 96.2533 62.4671 95.928 62.4778 95.576V95.496C62.4885 95.3787 62.4938 95.272 62.4938 95.176C62.5045 95.0693 62.5098 94.9627 62.5098 94.856C62.5205 94.6427 62.5791 94.4347 62.6858 94.232C62.7285 94.1467 62.7711 94.072 62.8138 94.008C62.8671 93.944 62.9365 93.8907 63.0218 93.848C63.1818 93.752 63.3471 93.704 63.5178 93.704C63.6031 93.704 63.6671 93.7093 63.7098 93.72V93.704C63.9018 93.704 64.0565 93.704 64.1738 93.704C64.2911 93.704 64.4031 93.704 64.5098 93.704C64.6271 93.704 64.7498 93.704 64.8778 93.704C65.0058 93.6933 65.1818 93.688 65.4058 93.688C65.8325 93.6773 66.2378 93.672 66.6218 93.672C67.0058 93.672 67.4005 93.6773 67.8058 93.688H67.8698C67.9871 93.6987 68.1098 93.704 68.2378 93.704C68.3658 93.704 68.4885 93.7093 68.6058 93.72C68.7231 93.72 68.8405 93.736 68.9578 93.768C69.0751 93.7893 69.1925 93.8213 69.3098 93.864C69.4911 93.9173 69.6405 94.008 69.7578 94.136C69.8538 94.2853 69.9018 94.4347 69.9018 94.584C69.9018 94.648 69.9018 94.712 69.9018 94.776C69.9018 94.8293 69.8911 94.8827 69.8698 94.936C69.8591 95.0427 69.7951 95.1547 69.6778 95.272C69.6351 95.2933 69.5871 95.32 69.5338 95.352C69.4911 95.384 69.4378 95.4107 69.3738 95.432C69.3098 95.4533 69.2405 95.4693 69.1658 95.48C69.1018 95.48 69.0378 95.4853 68.9738 95.496C68.8885 95.5173 68.8085 95.528 68.7338 95.528C68.6698 95.528 68.5951 95.528 68.5098 95.528H67.7898L64.5898 95.544V95.592ZM78.5711 103.784C78.5924 103.837 78.6031 103.917 78.6031 104.024C78.6031 104.12 78.6031 104.2 78.6031 104.264C78.6031 104.349 78.5871 104.429 78.5551 104.504C78.5231 104.579 78.4804 104.648 78.4271 104.712C78.3311 104.84 78.1924 104.936 78.0111 105C77.7551 105.085 77.5151 105.128 77.2911 105.128C77.1737 105.139 77.0511 105.144 76.9231 105.144C76.7951 105.144 76.6671 105.155 76.5391 105.176H76.4751C75.6537 105.187 74.8057 105.187 73.9311 105.176C73.7177 105.165 73.4777 105.165 73.2111 105.176C72.9444 105.197 72.6831 105.192 72.4271 105.16C72.1711 105.139 71.9364 105.08 71.7231 104.984C71.5204 104.877 71.3764 104.712 71.2911 104.488C71.2697 104.435 71.2537 104.387 71.2431 104.344C71.2324 104.291 71.2271 104.237 71.2271 104.184C71.1844 103.821 71.1684 103.464 71.1791 103.112C71.1897 102.76 71.1951 102.413 71.1951 102.072L71.2271 99.752V97.608C71.2271 97.224 71.2271 96.8827 71.2271 96.584C71.2377 96.2853 71.2484 95.9547 71.2591 95.592V95.512C71.2697 95.4053 71.2751 95.2987 71.2751 95.192C71.2857 95.0853 71.2911 94.9787 71.2911 94.872C71.3124 94.6267 71.3711 94.4187 71.4671 94.248C71.5311 94.088 71.6431 93.96 71.8031 93.864C71.9417 93.768 72.1071 93.72 72.2991 93.72C72.3737 93.72 72.4431 93.7253 72.5071 93.736C72.5817 93.736 72.6511 93.7413 72.7151 93.752C72.7791 93.7627 72.8377 93.784 72.8911 93.816C72.9551 93.848 73.0191 93.8907 73.0831 93.944C73.1471 94.0187 73.2057 94.1093 73.2591 94.216C73.3017 94.3333 73.3284 94.4507 73.3391 94.568C73.3497 94.6427 73.3604 94.712 73.3711 94.776C73.3817 94.84 73.3871 94.904 73.3871 94.968C73.3657 95.032 73.3551 95.096 73.3551 95.16C73.3551 95.224 73.3551 95.2827 73.3551 95.336V95.624L73.2911 103.16L76.4591 103.192H77.2111C77.2751 103.192 77.3444 103.197 77.4191 103.208C77.4937 103.208 77.5684 103.213 77.6431 103.224C77.7284 103.235 77.8031 103.245 77.8671 103.256C77.9311 103.267 77.9951 103.283 78.0591 103.304C78.1764 103.336 78.2724 103.389 78.3471 103.464C78.4644 103.571 78.5391 103.677 78.5711 103.784ZM87.2742 103.784C87.2955 103.837 87.3062 103.917 87.3062 104.024C87.3062 104.12 87.3062 104.2 87.3062 104.264C87.3062 104.349 87.2902 104.429 87.2582 104.504C87.2262 104.579 87.1835 104.648 87.1302 104.712C87.0342 104.84 86.8955 104.936 86.7142 105C86.4582 105.085 86.2182 105.128 85.9942 105.128C85.8769 105.139 85.7542 105.144 85.6262 105.144C85.4982 105.144 85.3702 105.155 85.2422 105.176H85.1782C84.3569 105.187 83.5089 105.187 82.6342 105.176C82.4209 105.165 82.1809 105.165 81.9142 105.176C81.6475 105.197 81.3862 105.192 81.1302 105.16C80.8742 105.139 80.6395 105.08 80.4262 104.984C80.2235 104.877 80.0795 104.712 79.9942 104.488C79.9729 104.435 79.9569 104.387 79.9462 104.344C79.9355 104.291 79.9302 104.237 79.9302 104.184C79.8875 103.821 79.8715 103.464 79.8822 103.112C79.8929 102.76 79.8982 102.413 79.8982 102.072L79.9302 99.752V97.608C79.9302 97.224 79.9302 96.8827 79.9302 96.584C79.9409 96.2853 79.9515 95.9547 79.9622 95.592V95.512C79.9729 95.4053 79.9782 95.2987 79.9782 95.192C79.9889 95.0853 79.9942 94.9787 79.9942 94.872C80.0155 94.6267 80.0742 94.4187 80.1702 94.248C80.2342 94.088 80.3462 93.96 80.5062 93.864C80.6449 93.768 80.8102 93.72 81.0022 93.72C81.0769 93.72 81.1462 93.7253 81.2102 93.736C81.2849 93.736 81.3542 93.7413 81.4182 93.752C81.4822 93.7627 81.5409 93.784 81.5942 93.816C81.6582 93.848 81.7222 93.8907 81.7862 93.944C81.8502 94.0187 81.9089 94.1093 81.9622 94.216C82.0049 94.3333 82.0315 94.4507 82.0422 94.568C82.0529 94.6427 82.0635 94.712 82.0742 94.776C82.0849 94.84 82.0902 94.904 82.0902 94.968C82.0689 95.032 82.0582 95.096 82.0582 95.16C82.0582 95.224 82.0582 95.2827 82.0582 95.336V95.624L81.9942 103.16L85.1622 103.192H85.9142C85.9782 103.192 86.0475 103.197 86.1222 103.208C86.1969 103.208 86.2715 103.213 86.3462 103.224C86.4315 103.235 86.5062 103.245 86.5702 103.256C86.6342 103.267 86.6982 103.283 86.7622 103.304C86.8795 103.336 86.9755 103.389 87.0502 103.464C87.1675 103.571 87.2422 103.677 87.2742 103.784ZM90.7773 95.592L90.7453 98.104H91.3853C91.8226 98.0933 92.212 98.088 92.5533 98.088C92.8946 98.088 93.2733 98.0933 93.6893 98.104H93.7693C93.8973 98.104 94.02 98.1093 94.1373 98.12C94.2653 98.12 94.388 98.12 94.5053 98.12C94.6333 98.1307 94.756 98.152 94.8733 98.184C94.9906 98.2053 95.108 98.232 95.2253 98.264C95.4066 98.328 95.556 98.424 95.6733 98.552C95.78 98.6907 95.8333 98.8453 95.8333 99.016C95.8333 99.0693 95.8333 99.1333 95.8333 99.208C95.8333 99.272 95.8226 99.3307 95.8013 99.384C95.78 99.5013 95.7106 99.608 95.5933 99.704C95.54 99.7787 95.4386 99.832 95.2893 99.864C95.1506 99.9067 95.012 99.9333 94.8733 99.944C94.724 99.976 94.5746 99.992 94.4253 99.992H93.6733L90.7133 100.008L90.6813 103.144L93.8653 103.176H94.6173C94.7026 103.176 94.7826 103.176 94.8573 103.176C94.932 103.176 95.0013 103.181 95.0653 103.192C95.1506 103.213 95.2253 103.229 95.2893 103.24C95.364 103.24 95.4333 103.251 95.4973 103.272C95.6253 103.315 95.732 103.373 95.8173 103.448C95.924 103.555 95.9933 103.667 96.0253 103.784C96.036 103.837 96.0413 103.896 96.0413 103.96C96.052 104.013 96.052 104.072 96.0413 104.136C96.0413 104.307 95.988 104.461 95.8813 104.6C95.7533 104.749 95.604 104.845 95.4333 104.888C95.2093 104.984 94.964 105.032 94.6973 105.032C94.58 105.043 94.4573 105.048 94.3293 105.048C94.2013 105.048 94.0786 105.053 93.9613 105.064H93.8653C93.0333 105.085 92.1693 105.085 91.2733 105.064C91.06 105.064 90.8893 105.059 90.7613 105.048C90.6333 105.048 90.516 105.048 90.4093 105.048C90.3133 105.048 90.212 105.048 90.1053 105.048C89.9986 105.048 89.86 105.048 89.6893 105.048C89.444 105.069 89.2413 105.027 89.0813 104.92C88.964 104.845 88.8733 104.744 88.8093 104.616C88.7773 104.584 88.7613 104.552 88.7613 104.52C88.7506 104.499 88.74 104.483 88.7293 104.472C88.7186 104.461 88.708 104.445 88.6973 104.424C88.676 104.371 88.66 104.317 88.6493 104.264C88.6386 104.2 88.6333 104.141 88.6333 104.088C88.6226 104.035 88.612 103.981 88.6013 103.928C88.6013 103.875 88.596 103.821 88.5853 103.768V103.512C88.5853 103.469 88.5853 103.427 88.5853 103.384C88.596 103.341 88.6013 103.299 88.6013 103.256V102.008L88.6333 99.704V97.576C88.6333 97.192 88.6333 96.8507 88.6333 96.552C88.644 96.2533 88.6546 95.928 88.6653 95.576V95.496C88.676 95.3787 88.6813 95.272 88.6813 95.176C88.692 95.0693 88.6973 94.9627 88.6973 94.856C88.708 94.6427 88.7666 94.4347 88.8733 94.232C88.916 94.1467 88.9586 94.072 89.0013 94.008C89.0546 93.944 89.124 93.8907 89.2093 93.848C89.3693 93.752 89.5346 93.704 89.7053 93.704C89.7906 93.704 89.8546 93.7093 89.8973 93.72V93.704C90.0893 93.704 90.244 93.704 90.3613 93.704C90.4786 93.704 90.5906 93.704 90.6973 93.704C90.8146 93.704 90.9373 93.704 91.0653 93.704C91.1933 93.6933 91.3693 93.688 91.5933 93.688C92.02 93.6773 92.4253 93.672 92.8093 93.672C93.1933 93.672 93.588 93.6773 93.9933 93.688H94.0573C94.1746 93.6987 94.2973 93.704 94.4253 93.704C94.5533 93.704 94.676 93.7093 94.7933 93.72C94.9106 93.72 95.028 93.736 95.1453 93.768C95.2626 93.7893 95.38 93.8213 95.4973 93.864C95.6786 93.9173 95.828 94.008 95.9453 94.136C96.0413 94.2853 96.0893 94.4347 96.0893 94.584C96.0893 94.648 96.0893 94.712 96.0893 94.776C96.0893 94.8293 96.0786 94.8827 96.0573 94.936C96.0466 95.0427 95.9826 95.1547 95.8653 95.272C95.8226 95.2933 95.7746 95.32 95.7213 95.352C95.6786 95.384 95.6253 95.4107 95.5613 95.432C95.4973 95.4533 95.428 95.4693 95.3533 95.48C95.2893 95.48 95.2253 95.4853 95.1613 95.496C95.076 95.5173 94.996 95.528 94.9213 95.528C94.8573 95.528 94.7826 95.528 94.6973 95.528H93.9773L90.7773 95.544V95.592Z" fill="white"/>
</g>
<defs>
<clipPath id="clip0">
<rect width="111" height="115" fill="white"/>
</clipPath>
</defs>
</svg>
