<svg width="75" height="75" viewBox="0 0 75 75" fill="none" xmlns="http://www.w3.org/2000/svg">
<path d="M31.189 51.3168C33.7492 51.3168 35.8247 49.7572 35.8247 47.8334C35.8247 45.9096 33.7492 44.35 31.189 44.35C28.6288 44.35 26.5533 45.9096 26.5533 47.8334C26.5533 49.7572 28.6288 51.3168 31.189 51.3168Z" fill="#FAFAFA"/>
<path d="M59.0026 49.575V47.8334C59.0026 46.8733 57.9626 46.0917 56.6849 46.0917V23.45C56.6849 17.6875 50.4467 13 42.7779 13C35.1092 13 28.871 17.6875 28.871 23.45V32.1584H27.7121C19.4051 32.1584 12.6462 37.2371 12.6462 43.4792V46.0917H9.1695C8.52903 46.0916 8.01067 46.4811 8.01067 46.9625V50.4459C8.01067 50.9272 8.52903 51.3167 9.16961 51.3167H12.6463C12.6463 53.2378 14.7253 54.8001 17.282 54.8001H31.1889C36.301 54.8001 40.4602 51.6748 40.4602 47.8334C40.4602 45.2666 38.5822 43.0445 35.8245 41.836V23.45C35.8245 20.5688 38.9436 18.225 42.7779 18.225C46.6124 18.225 49.7314 20.5688 49.7314 23.45V46.0916C48.4537 46.0916 47.4136 46.8732 47.4136 47.8333V49.575C44.8569 49.575 42.7779 51.1372 42.7779 53.0584V53.9292C42.7779 54.4106 43.2963 54.8001 43.9369 54.8001H62.4794C63.12 54.8001 63.6382 54.4106 63.6382 53.9292V53.0584C63.6382 51.1372 61.5593 49.575 59.0026 49.575ZM38.1423 47.8334C38.1423 50.7146 35.0232 53.0584 31.1888 53.0584C27.3544 53.0584 24.2354 50.7146 24.2354 47.8334C24.2354 44.9521 27.3544 42.6084 31.1888 42.6084C35.0232 42.6084 38.1423 44.9521 38.1423 47.8334Z" fill="#FAFAFA"/>
<path d="M16.6531 62.697C16.6592 62.7277 16.6622 62.7583 16.6622 62.7889C16.6683 62.8142 16.6713 62.8448 16.6713 62.8807C16.6713 62.9419 16.6501 62.9979 16.6077 63.049C16.5896 63.0744 16.5653 63.1002 16.5351 63.1256C16.5048 63.1461 16.4685 63.1638 16.4261 63.1791C16.2747 63.2504 16.1143 63.2762 15.9448 63.2557C15.8601 63.2351 15.7844 63.2021 15.7178 63.1562C15.7057 63.1461 15.6966 63.1409 15.6905 63.1409C15.6845 63.1356 15.6784 63.128 15.6724 63.1179C15.6663 63.1127 15.6603 63.1079 15.6542 63.1026C15.6481 63.0926 15.6391 63.0849 15.627 63.0797C15.5967 63.0543 15.5725 63.0314 15.5543 63.0108C15.5362 62.9854 15.518 62.9596 15.4998 62.9343C15.4877 62.9089 15.4726 62.886 15.4544 62.8654C15.4423 62.84 15.4272 62.8142 15.409 62.7889C15.3969 62.7683 15.3848 62.7506 15.3727 62.7353C15.3606 62.7147 15.3515 62.6947 15.3455 62.6741C15.3212 62.6282 15.3061 62.5875 15.3001 62.5517L15.1093 62.1767C14.6916 62.1767 14.2739 62.1791 13.8562 62.1843C13.4445 62.1843 13.0298 62.182 12.6121 62.1767L12.4213 62.5517C12.4093 62.5722 12.4002 62.5923 12.3941 62.6129C12.3941 62.6334 12.388 62.6535 12.3759 62.6741C12.3639 62.6947 12.3517 62.7147 12.3396 62.7353C12.3335 62.7506 12.3245 62.7683 12.3124 62.7889C12.2942 62.8142 12.2761 62.84 12.2579 62.8654C12.2458 62.886 12.2306 62.9089 12.2125 62.9343C12.2004 62.9596 12.1852 62.9854 12.1671 63.0108C12.1489 63.0314 12.1247 63.0543 12.0944 63.0797C12.0823 63.0849 12.0733 63.0926 12.0672 63.1026C12.0611 63.1079 12.0551 63.1127 12.049 63.1179C12.043 63.128 12.0369 63.1356 12.0309 63.1409C12.0248 63.1409 12.0157 63.1461 12.0036 63.1562C11.937 63.2021 11.8613 63.2351 11.7766 63.2557C11.6071 63.2762 11.4467 63.2504 11.2953 63.1791C11.2529 63.1638 11.2166 63.1461 11.1863 63.1256C11.1561 63.1002 11.1318 63.0744 11.1137 63.049C11.0713 62.9979 11.0501 62.9419 11.0501 62.8807C11.0501 62.8448 11.0501 62.8142 11.0501 62.7889C11.0562 62.7583 11.0622 62.7277 11.0683 62.697C11.0804 62.6511 11.0955 62.6052 11.1137 62.5593C11.1318 62.5134 11.1409 62.4904 11.1409 62.4904L13.0298 58.5725L13.0843 58.4501C13.0964 58.4195 13.1115 58.3914 13.1297 58.3659C13.1478 58.3404 13.163 58.3098 13.1751 58.2741C13.2053 58.2077 13.2386 58.1491 13.275 58.0981C13.2931 58.0675 13.3143 58.0394 13.3385 58.0139C13.3628 57.9884 13.387 57.9629 13.4112 57.9374C13.4475 57.8966 13.499 57.8634 13.5656 57.8379C13.6503 57.8124 13.7472 57.7996 13.8562 57.7996C13.9712 57.7996 14.0711 57.8124 14.1558 57.8379C14.2224 57.8634 14.2739 57.8966 14.3102 57.9374C14.3526 57.9833 14.398 58.0369 14.4464 58.0981C14.4828 58.1491 14.5161 58.2077 14.5463 58.2741C14.5584 58.3098 14.5736 58.3404 14.5917 58.3659C14.6099 58.3914 14.625 58.4195 14.6371 58.4501L14.6916 58.5725L16.5805 62.4904C16.5805 62.4904 16.5896 62.5134 16.6077 62.5593C16.6259 62.6052 16.641 62.6511 16.6531 62.697ZM14.5009 60.8223C14.4222 60.6743 14.3405 60.5213 14.2557 60.3631C14.177 60.205 14.0923 60.0443 14.0015 59.881C13.9772 59.8351 13.953 59.7892 13.9288 59.7433C13.9046 59.6923 13.8804 59.6438 13.8562 59.5979C13.838 59.6438 13.8168 59.6923 13.7926 59.7433C13.7684 59.7892 13.7442 59.8351 13.7199 59.881C13.6291 60.0443 13.5413 60.205 13.4566 60.3631C13.3779 60.5213 13.2992 60.6743 13.2205 60.8223L13.057 61.159H14.6644L14.5009 60.8223ZM22.1038 60.9906C22.134 61.0619 22.1552 61.1437 22.1673 61.2355C22.1855 61.322 22.1946 61.4115 22.1946 61.5033C22.1946 61.5951 22.1855 61.687 22.1673 61.7788C22.1552 61.8653 22.1371 61.9419 22.1128 62.0083C22.016 62.2939 21.8223 62.534 21.5317 62.7277C21.2411 62.9166 20.9081 63.0543 20.5327 63.1409C20.1634 63.2274 19.779 63.258 19.3794 63.2327C18.9859 63.2073 18.6348 63.1232 18.326 62.9802C18.1323 62.8883 17.9658 62.776 17.8266 62.6435C17.6874 62.511 17.5693 62.3627 17.4724 62.1997C17.4361 62.1437 17.4119 62.0796 17.3998 62.0083C17.3937 61.9318 17.4028 61.8606 17.427 61.7941C17.4512 61.7228 17.4906 61.6616 17.5451 61.6104C17.5996 61.5545 17.6752 61.5162 17.7721 61.4957C17.8327 61.4856 17.8992 61.4803 17.9719 61.4803C18.0506 61.4803 18.1263 61.4904 18.1989 61.511C18.2716 61.5263 18.3381 61.5545 18.3987 61.5951C18.4592 61.631 18.5077 61.6817 18.544 61.7482C18.6106 61.8553 18.7044 61.9548 18.8255 62.0466C18.9526 62.1332 19.0858 62.2049 19.2251 62.2609C19.4248 62.3168 19.6246 62.3398 19.8244 62.3297C20.0303 62.3197 20.2149 62.2814 20.3784 62.215C20.5479 62.1485 20.6841 62.0595 20.787 61.9471C20.8899 61.83 20.9414 61.697 20.9414 61.5492C20.9414 61.4268 20.9202 61.3273 20.8778 61.2508C20.8354 61.169 20.7749 61.103 20.6962 61.0518C20.6236 60.9959 20.5327 60.95 20.4238 60.9141C20.3209 60.8782 20.2058 60.8476 20.0787 60.8223C19.9334 60.7968 19.7851 60.7789 19.6337 60.7687C19.4884 60.7585 19.3401 60.7457 19.1887 60.7304C19.0374 60.7151 18.8891 60.6947 18.7438 60.6692C18.5985 60.6437 18.4562 60.6055 18.317 60.5544C18.0385 60.4575 17.8266 60.3096 17.6813 60.1106C17.536 59.9116 17.4482 59.6974 17.4179 59.4678C17.3937 59.2383 17.427 59.0112 17.5178 58.7868C17.6086 58.5572 17.7539 58.3608 17.9537 58.1976C18.1474 58.0496 18.3775 57.945 18.6439 57.8838C18.9163 57.8175 19.216 57.7792 19.5429 57.769C19.7245 57.7639 19.9061 57.769 20.0878 57.7843C20.2755 57.7996 20.454 57.8251 20.6236 57.8609C20.7991 57.8966 20.9596 57.9425 21.1048 57.9986C21.2562 58.0547 21.3864 58.121 21.4953 58.1976C21.5741 58.2486 21.6527 58.3175 21.7314 58.4042C21.8102 58.4858 21.8707 58.5751 21.9131 58.672C21.9555 58.7638 21.9676 58.8531 21.9494 58.9398C21.9373 59.0265 21.8737 59.1005 21.7587 59.1617C21.6618 59.2128 21.568 59.2357 21.4772 59.2306C21.3924 59.2204 21.3107 59.1975 21.232 59.1617C21.1533 59.1209 21.0776 59.075 21.005 59.024C20.9323 58.973 20.8657 58.9271 20.8052 58.8863C20.6417 58.7842 20.4389 58.7154 20.1967 58.6796C19.9546 58.6439 19.7275 58.6363 19.5157 58.6567C19.3825 58.672 19.2584 58.6975 19.1433 58.7332C19.0283 58.7689 18.9284 58.8174 18.8437 58.8786C18.7649 58.9398 18.7014 59.0163 18.653 59.1082C18.6106 59.1949 18.5955 59.2944 18.6076 59.4066C18.6136 59.4882 18.6409 59.5571 18.6893 59.6132C18.7438 59.6693 18.8073 59.7152 18.88 59.751C18.9587 59.7867 19.0434 59.8147 19.1343 59.8351C19.2251 59.8555 19.3159 59.8709 19.4067 59.881C19.6791 59.9116 19.9516 59.9346 20.224 59.9499C20.4964 59.9652 20.7628 60.0162 21.0231 60.103C21.2895 60.1897 21.5165 60.307 21.7042 60.455C21.8919 60.6029 22.025 60.7815 22.1038 60.9906ZM27.0342 58.2817C27.2642 58.4603 27.4337 58.6745 27.5427 58.9245C27.6517 59.1694 27.6941 59.4143 27.6698 59.6591C27.6456 59.8938 27.5579 60.1106 27.4065 60.3096C27.2551 60.5034 27.0251 60.6514 26.7163 60.7534C26.4742 60.84 26.235 60.9012 25.9989 60.937C25.7628 60.9729 25.5025 61.0006 25.218 61.0212C25.0908 61.0313 24.9818 61.0389 24.891 61.0442C24.8063 61.0442 24.7064 61.0466 24.5914 61.0518C24.5671 61.0518 24.5248 61.0518 24.4642 61.0518C24.4097 61.0518 24.3704 61.0542 24.3462 61.0595V62.6435C24.328 62.7406 24.3038 62.84 24.2735 62.9419C24.2493 63.0438 24.1797 63.1232 24.0647 63.1791C23.9981 63.2097 23.9164 63.2274 23.8195 63.2327C23.7226 63.238 23.6348 63.2351 23.5561 63.225C23.4714 63.215 23.3987 63.1968 23.3382 63.1715C23.2837 63.1409 23.2383 63.0897 23.202 63.0184C23.1777 62.9725 23.1535 62.9214 23.1293 62.8654C23.1111 62.8042 23.1021 62.73 23.1021 62.6435V58.4118C23.1021 58.3761 23.1051 58.343 23.1111 58.3123C23.1172 58.2817 23.1232 58.2511 23.1293 58.2205C23.1414 58.195 23.1505 58.1669 23.1565 58.1363C23.1626 58.1057 23.1717 58.0777 23.1838 58.0522C23.1959 58.0267 23.208 58.0037 23.2201 57.9833C23.2383 57.9629 23.2594 57.945 23.2837 57.9297C23.3139 57.9042 23.3593 57.8813 23.4199 57.8609C23.4865 57.8404 23.5834 57.8303 23.7105 57.8303H23.7287C23.9164 57.8201 24.1252 57.8124 24.3553 57.8073C24.5853 57.7971 24.776 57.7996 24.9274 57.815C25.0121 57.8251 25.0908 57.8328 25.1635 57.8379C25.2361 57.8379 25.3058 57.8404 25.3723 57.8456C25.445 57.8507 25.5176 57.8557 25.5903 57.8609C25.6629 57.866 25.7356 57.8736 25.8082 57.8838C25.8688 57.894 25.9233 57.9017 25.9717 57.9068C26.0262 57.9119 26.0807 57.9195 26.1351 57.9297C26.1836 57.9399 26.235 57.9502 26.2895 57.9603C26.3501 57.9705 26.4046 57.9884 26.453 58.0139C26.5801 58.0445 26.6861 58.0828 26.7708 58.1287C26.8556 58.1746 26.9434 58.2256 27.0342 58.2817ZM26.4893 59.5443C26.4954 59.4219 26.4651 59.3148 26.3985 59.223C26.3379 59.1311 26.2502 59.0546 26.1351 58.9934C26.0201 58.9322 25.89 58.8837 25.7447 58.848C25.5994 58.8123 25.4541 58.7868 25.3088 58.7715C25.2724 58.7715 25.221 58.7715 25.1544 58.7715C25.0938 58.7664 25.0273 58.7638 24.9546 58.7638C24.882 58.7587 24.8123 58.7562 24.7457 58.7562C24.6852 58.751 24.6368 58.7485 24.6004 58.7485C24.5702 58.7434 24.5339 58.7409 24.4915 58.7409C24.4491 58.7409 24.4007 58.7409 24.3462 58.7409C24.3522 58.899 24.3553 59.0521 24.3553 59.2C24.3553 59.3429 24.3553 59.4984 24.3553 59.6668C24.3492 59.7586 24.3462 59.8504 24.3462 59.9423C24.3462 60.0341 24.3462 60.1234 24.3462 60.2101L24.9092 60.2024C25.0545 60.2024 25.2149 60.1948 25.3905 60.1795C25.566 60.1642 25.7326 60.1336 25.89 60.0876C26.0473 60.0417 26.1805 59.9754 26.2895 59.8887C26.4046 59.802 26.4711 59.6872 26.4893 59.5443ZM28.6957 62.4063L28.7048 61.8017L28.7138 60.6769C28.7198 60.5136 28.7229 60.3453 28.7229 60.1718C28.7229 59.9984 28.7229 59.8198 28.7229 59.6362C28.7229 59.4525 28.7229 59.2893 28.7229 59.1464C28.7229 59.0036 28.7289 58.8429 28.7411 58.6643V58.6337C28.7471 58.5827 28.7502 58.5317 28.7502 58.4807C28.7562 58.4246 28.7592 58.3684 28.7592 58.3123C28.7653 58.2205 28.7986 58.121 28.8591 58.0139C28.9015 57.9425 28.965 57.8813 29.0498 57.8303C29.1467 57.7895 29.2405 57.769 29.3313 57.769C29.3798 57.769 29.4222 57.7716 29.4585 57.7767C29.5008 57.7767 29.5402 57.7792 29.5765 57.7843C29.6552 57.7945 29.7248 57.8251 29.7854 57.8762C29.8217 57.9017 29.855 57.9425 29.8853 57.9986C29.8974 58.0292 29.9065 58.0598 29.9125 58.0904C29.9246 58.1159 29.9337 58.144 29.9398 58.1746C29.9458 58.2103 29.9489 58.2435 29.9489 58.2741C29.9549 58.3047 29.9579 58.3353 29.9579 58.3659C29.9579 58.4016 29.9549 58.4348 29.9489 58.4654C29.9489 58.4909 29.9489 58.5189 29.9489 58.5496V58.6796L29.8944 62.6511V62.7277C29.8944 62.743 29.8913 62.7635 29.8853 62.7889C29.8853 62.8094 29.8822 62.8348 29.8762 62.8654C29.8641 62.8907 29.852 62.919 29.8399 62.9496C29.8338 62.9749 29.8247 63.0031 29.8126 63.0337C29.7945 63.0591 29.7733 63.0849 29.7491 63.1103C29.7309 63.1308 29.7067 63.1509 29.6764 63.1715C29.628 63.2121 29.5493 63.2404 29.4403 63.2557C29.2769 63.2863 29.1225 63.2734 28.9772 63.2174C28.9045 63.1767 28.8531 63.1256 28.8228 63.0644C28.8046 63.049 28.7956 63.0337 28.7956 63.0184C28.7895 63.0084 28.7834 63.0007 28.7774 62.9955C28.7713 62.9902 28.7653 62.9826 28.7592 62.9725C28.7471 62.9472 28.738 62.9214 28.732 62.896C28.7259 62.8654 28.7229 62.8348 28.7229 62.8042C28.7168 62.7788 28.7108 62.753 28.7048 62.7277C28.7048 62.7023 28.7017 62.6765 28.6957 62.6511C28.6896 62.6105 28.6896 62.567 28.6957 62.521V62.4063ZM35.6451 62.8807C35.6512 62.9319 35.6451 62.9802 35.627 63.0261C35.6149 63.0567 35.5967 63.082 35.5725 63.1026C35.5543 63.1232 35.5301 63.1433 35.4998 63.1638C35.4454 63.1944 35.3788 63.2227 35.3001 63.248C35.2516 63.258 35.2032 63.2657 35.1548 63.271C35.1124 63.281 35.067 63.281 35.0185 63.271C34.9217 63.2657 34.8369 63.2351 34.7643 63.1791C34.6614 63.1079 34.5766 63.0285 34.51 62.9419C34.4798 62.9013 34.4464 62.8554 34.4101 62.8042C34.3738 62.753 34.3405 62.6994 34.3102 62.6435L33.3022 61.0289C33.2538 61.0289 33.2054 61.0313 33.1569 61.0365C33.1085 61.0365 33.0601 61.0389 33.0116 61.0442C32.8845 61.0542 32.7634 61.0571 32.6484 61.0518C32.5394 61.0466 32.4244 61.0466 32.3033 61.0518H32.1308V62.4369C32.1308 62.4775 32.1278 62.5158 32.1217 62.5517C32.1217 62.5875 32.1217 62.6258 32.1217 62.6664C32.1217 62.6918 32.1187 62.7253 32.1126 62.7659C32.1126 62.8066 32.1096 62.8448 32.1035 62.8807C32.0914 62.9367 32.0642 62.9955 32.0218 63.0567C31.9794 63.1127 31.9219 63.1614 31.8492 63.2021C31.7221 63.2686 31.5677 63.2863 31.3861 63.2557C31.3074 63.2404 31.2317 63.215 31.1591 63.1791C31.1349 63.1638 31.1137 63.1461 31.0955 63.1256C31.0774 63.1002 31.0623 63.0744 31.0501 63.049C31.038 63.0237 31.0259 62.9979 31.0138 62.9725C31.0078 62.9419 30.9987 62.9137 30.9865 62.8883C30.9684 62.8372 30.9593 62.7889 30.9593 62.743V58.3965C30.9593 58.3659 30.9593 58.3353 30.9593 58.3047C30.9654 58.269 30.9714 58.2384 30.9775 58.2129C30.9835 58.1568 31.0047 58.1006 31.041 58.0445C31.0592 57.9833 31.0895 57.9399 31.1318 57.9144C31.1682 57.8838 31.2227 57.8583 31.2953 57.8379C31.374 57.8124 31.486 57.8022 31.6313 57.8073C31.9037 57.8124 32.1732 57.815 32.4395 57.815C32.7059 57.815 32.9723 57.8201 33.2387 57.8303C33.4143 57.8404 33.5989 57.8583 33.7926 57.8838C33.9924 57.9042 34.1771 57.9425 34.3465 57.9986C34.4555 58.0343 34.5554 58.07 34.6462 58.1057C34.7613 58.1618 34.8521 58.2154 34.9187 58.2664C35.1306 58.4297 35.291 58.6261 35.3999 58.8556C35.5089 59.0852 35.5634 59.3173 35.5634 59.552C35.5634 59.8275 35.4847 60.08 35.3273 60.3096C35.176 60.5391 34.9308 60.71 34.5917 60.8223C34.5796 60.8323 34.5615 60.84 34.5372 60.8452C34.5191 60.8452 34.504 60.8476 34.4918 60.8529L35.3273 62.2685L35.409 62.391C35.4212 62.4115 35.4363 62.4345 35.4544 62.4598C35.4726 62.4852 35.4877 62.511 35.4998 62.5363C35.518 62.5617 35.5332 62.5899 35.5452 62.6205C35.5634 62.6511 35.5816 62.6794 35.5997 62.7047C35.6179 62.776 35.633 62.8348 35.6451 62.8807ZM33.3749 60.1565C33.4838 60.1565 33.5868 60.1412 33.6836 60.1106C33.7866 60.0749 33.8774 60.029 33.9561 59.9729C34.0409 59.9168 34.1104 59.853 34.1649 59.7816C34.2194 59.705 34.2497 59.6234 34.2557 59.5367C34.28 59.2816 34.2012 59.0929 34.0196 58.9704C33.838 58.8429 33.5989 58.774 33.3022 58.7638C33.1267 58.7536 32.933 58.7485 32.721 58.7485C32.5152 58.7485 32.3185 58.7485 32.1308 58.7485C32.1368 58.9577 32.1368 59.1719 32.1308 59.3913C32.1308 59.6056 32.1308 59.8606 32.1308 60.1565H33.3749ZM41.9808 62.697C41.9869 62.7277 41.9899 62.7583 41.9899 62.7889C41.996 62.8142 41.999 62.8448 41.999 62.8807C41.999 62.9419 41.9778 62.9979 41.9354 63.049C41.9173 63.0744 41.893 63.1002 41.8628 63.1256C41.8325 63.1461 41.7962 63.1638 41.7538 63.1791C41.6024 63.2504 41.442 63.2762 41.2725 63.2557C41.1878 63.2351 41.1121 63.2021 41.0455 63.1562C41.0334 63.1461 41.0243 63.1409 41.0182 63.1409C41.0122 63.1356 41.0062 63.128 41.0001 63.1179C40.994 63.1127 40.988 63.1079 40.9819 63.1026C40.9758 63.0926 40.9668 63.0849 40.9547 63.0797C40.9244 63.0543 40.9002 63.0314 40.882 63.0108C40.8639 62.9854 40.8457 62.9596 40.8275 62.9343C40.8155 62.9089 40.8003 62.886 40.7821 62.8654C40.77 62.84 40.7549 62.8142 40.7367 62.7889C40.7246 62.7683 40.7125 62.7506 40.7004 62.7353C40.6883 62.7147 40.6792 62.6947 40.6732 62.6741C40.6489 62.6282 40.6338 62.5875 40.6278 62.5517L40.4371 62.1767C40.0193 62.1767 39.6016 62.1791 39.1839 62.1843C38.7722 62.1843 38.3575 62.182 37.9398 62.1767L37.7491 62.5517C37.737 62.5722 37.7279 62.5923 37.7218 62.6129C37.7218 62.6334 37.7157 62.6535 37.7036 62.6741C37.6916 62.6947 37.6794 62.7147 37.6673 62.7353C37.6612 62.7506 37.6522 62.7683 37.6401 62.7889C37.6219 62.8142 37.6038 62.84 37.5856 62.8654C37.5735 62.886 37.5584 62.9089 37.5402 62.9343C37.5281 62.9596 37.5129 62.9854 37.4948 63.0108C37.4766 63.0314 37.4524 63.0543 37.4221 63.0797C37.41 63.0849 37.401 63.0926 37.3949 63.1026C37.3888 63.1079 37.3828 63.1127 37.3767 63.1179C37.3707 63.128 37.3646 63.1356 37.3586 63.1409C37.3525 63.1409 37.3434 63.1461 37.3313 63.1562C37.2647 63.2021 37.189 63.2351 37.1043 63.2557C36.9348 63.2762 36.7744 63.2504 36.623 63.1791C36.5806 63.1638 36.5443 63.1461 36.514 63.1256C36.4838 63.1002 36.4595 63.0744 36.4414 63.049C36.399 62.9979 36.3778 62.9419 36.3778 62.8807C36.3778 62.8448 36.3778 62.8142 36.3778 62.7889C36.3839 62.7583 36.3899 62.7277 36.396 62.697C36.4081 62.6511 36.4232 62.6052 36.4414 62.5593C36.4595 62.5134 36.4686 62.4904 36.4686 62.4904L38.3575 58.5725L38.412 58.4501C38.4241 58.4195 38.4392 58.3914 38.4574 58.3659C38.4755 58.3404 38.4907 58.3098 38.5028 58.2741C38.533 58.2077 38.5664 58.1491 38.6027 58.0981C38.6208 58.0675 38.642 58.0394 38.6662 58.0139C38.6905 57.9884 38.7147 57.9629 38.7389 57.9374C38.7752 57.8966 38.8267 57.8634 38.8933 57.8379C38.978 57.8124 39.0749 57.7996 39.1839 57.7996C39.2989 57.7996 39.3988 57.8124 39.4835 57.8379C39.5501 57.8634 39.6016 57.8966 39.6379 57.9374C39.6803 57.9833 39.7257 58.0369 39.7741 58.0981C39.8105 58.1491 39.8438 58.2077 39.874 58.2741C39.8861 58.3098 39.9013 58.3404 39.9194 58.3659C39.9376 58.3914 39.9527 58.4195 39.9648 58.4501L40.0193 58.5725L41.9082 62.4904C41.9082 62.4904 41.9173 62.5134 41.9354 62.5593C41.9536 62.6052 41.9687 62.6511 41.9808 62.697ZM39.8286 60.8223C39.7499 60.6743 39.6682 60.5213 39.5834 60.3631C39.5047 60.205 39.42 60.0443 39.3292 59.881C39.3049 59.8351 39.2807 59.7892 39.2565 59.7433C39.2323 59.6923 39.2081 59.6438 39.1839 59.5979C39.1657 59.6438 39.1445 59.6923 39.1203 59.7433C39.0961 59.7892 39.0719 59.8351 39.0476 59.881C38.9568 60.0443 38.869 60.205 38.7843 60.3631C38.7056 60.5213 38.6269 60.6743 38.5482 60.8223L38.3847 61.159H39.9921L39.8286 60.8223ZM46.5608 58.0369C46.6273 58.1032 46.6607 58.1721 46.6607 58.2435C46.6607 58.2741 46.6577 58.3072 46.6516 58.3429C46.6516 58.3736 46.6486 58.4016 46.6425 58.4271C46.6243 58.4832 46.585 58.5368 46.5244 58.5878C46.476 58.6184 46.4094 58.6414 46.3247 58.6567C46.2823 58.6669 46.2399 58.6745 46.1975 58.6796C46.1551 58.6848 46.1097 58.6924 46.0613 58.7026C46.0189 58.7077 45.9766 58.7103 45.9342 58.7103C45.8918 58.7103 45.8464 58.7103 45.798 58.7103H45.3348C45.2258 58.7154 45.1169 58.7179 45.0079 58.7179C44.905 58.7179 44.802 58.7179 44.6991 58.7179C44.7052 58.8761 44.7082 59.047 44.7082 59.2306C44.7082 59.4091 44.7052 59.6183 44.6991 59.8581C44.6991 60.0978 44.6961 60.3759 44.6901 60.6922C44.6901 61.0083 44.6901 61.3756 44.6901 61.7941V62.3757C44.6901 62.4268 44.6931 62.4651 44.6991 62.4904C44.6991 62.511 44.6991 62.5311 44.6991 62.5517C44.6991 62.567 44.6961 62.5875 44.6901 62.6129C44.678 62.6588 44.6689 62.7123 44.6628 62.7736C44.6628 62.7989 44.6598 62.8247 44.6537 62.8501C44.6477 62.8707 44.6386 62.8936 44.6265 62.919C44.6023 62.9395 44.5902 62.9548 44.5902 62.9649L44.5629 63.0108C44.5327 63.062 44.4751 63.1103 44.3904 63.1562C44.2572 63.2121 44.1089 63.225 43.9454 63.1944C43.8425 63.1844 43.7638 63.1614 43.7093 63.1256C43.6548 63.0797 43.6155 63.0337 43.5913 62.9878C43.5549 62.9319 43.5338 62.8783 43.5277 62.8271C43.5095 62.7812 43.5004 62.7329 43.5004 62.6817V58.7485C43.4641 58.7485 43.3885 58.7485 43.2734 58.7485C43.1584 58.7485 43.0343 58.7485 42.9011 58.7485C42.774 58.7434 42.6529 58.7383 42.5378 58.7332C42.4228 58.7281 42.3441 58.723 42.3017 58.7179C42.2654 58.7128 42.2079 58.7051 42.1292 58.695C42.0566 58.6848 41.996 58.6745 41.9476 58.6643C41.8204 58.6337 41.7206 58.5853 41.6479 58.519C41.5813 58.4526 41.548 58.3787 41.548 58.297C41.548 58.2664 41.548 58.2358 41.548 58.2052C41.548 58.1746 41.5541 58.1465 41.5662 58.121C41.5843 58.0598 41.6328 58.0088 41.7115 57.968C41.7357 57.9527 41.772 57.9349 41.8204 57.9144C41.8749 57.8889 41.9264 57.8711 41.9748 57.8609C42.0475 57.8404 42.1383 57.8251 42.2473 57.815C42.2957 57.8098 42.3441 57.8073 42.3926 57.8073C42.441 57.8073 42.4924 57.8073 42.5469 57.8073C42.7588 57.8073 42.9586 57.8073 43.1463 57.8073C43.34 57.8073 43.5428 57.8048 43.7547 57.7996C44.1059 57.7945 44.454 57.7945 44.799 57.7996C45.1502 57.7996 45.4983 57.8048 45.8434 57.815C45.9221 57.8201 45.9977 57.8277 46.0704 57.8379C46.143 57.8481 46.2157 57.866 46.2883 57.8915C46.3428 57.9068 46.3943 57.9272 46.4427 57.9527C46.4911 57.9731 46.5305 58.0011 46.5608 58.0369ZM48.6274 58.7179L48.6092 59.9193H48.9725C49.2207 59.9142 49.4417 59.9116 49.6354 59.9116C49.8292 59.9116 50.044 59.9142 50.2802 59.9193H50.3256C50.3982 59.9193 50.4678 59.9218 50.5344 59.927C50.6071 59.927 50.6767 59.927 50.7433 59.927C50.8159 59.9321 50.8856 59.9423 50.9522 59.9576C51.0188 59.9677 51.0854 59.9805 51.1519 59.9958C51.2549 60.0264 51.3396 60.0723 51.4062 60.1336C51.4668 60.1999 51.497 60.2738 51.497 60.3555C51.497 60.381 51.497 60.4116 51.497 60.4473C51.497 60.4779 51.491 60.506 51.4789 60.5315C51.4668 60.5876 51.4274 60.6386 51.3608 60.6845C51.3306 60.7202 51.2731 60.7457 51.1883 60.761C51.1096 60.7815 51.0309 60.7942 50.9522 60.7993C50.8674 60.8146 50.7827 60.8223 50.6979 60.8223H50.2711L48.5911 60.8299L48.5729 62.3297L50.38 62.345H50.8069C50.8553 62.345 50.9007 62.345 50.9431 62.345C50.9855 62.345 51.0248 62.3474 51.0611 62.3527C51.1096 62.3627 51.1519 62.3704 51.1883 62.3757C51.2307 62.3757 51.27 62.3809 51.3063 62.391C51.379 62.4115 51.4395 62.4393 51.4879 62.4751C51.5485 62.5263 51.5878 62.5799 51.606 62.6358C51.6121 62.6612 51.6151 62.6894 51.6151 62.72C51.6211 62.7453 51.6211 62.7736 51.6151 62.8042C51.6151 62.886 51.5848 62.9596 51.5243 63.0261C51.4516 63.0973 51.3669 63.1433 51.27 63.1638C51.1429 63.2097 51.0036 63.2327 50.8523 63.2327C50.7857 63.238 50.716 63.2403 50.6434 63.2403C50.5707 63.2403 50.5012 63.2427 50.4345 63.248H50.38C49.9078 63.258 49.4175 63.258 48.9089 63.248C48.7878 63.248 48.691 63.2456 48.6183 63.2403C48.5457 63.2403 48.4791 63.2403 48.4185 63.2403C48.364 63.2403 48.3066 63.2403 48.246 63.2403C48.1855 63.2403 48.1068 63.2403 48.0099 63.2403C47.8707 63.2504 47.7556 63.2303 47.6648 63.1791C47.5982 63.1433 47.5467 63.095 47.5104 63.0337C47.4923 63.0184 47.4832 63.0031 47.4832 62.9878C47.4772 62.9778 47.4711 62.9701 47.465 62.9649C47.459 62.9596 47.4529 62.952 47.4469 62.9419C47.4348 62.9166 47.4257 62.8907 47.4196 62.8654C47.4136 62.8348 47.4105 62.8066 47.4105 62.7812C47.4045 62.7559 47.3984 62.73 47.3924 62.7047C47.3924 62.6794 47.3894 62.6535 47.3833 62.6282V62.5057C47.3833 62.4852 47.3833 62.4651 47.3833 62.4445C47.3894 62.424 47.3924 62.4039 47.3924 62.3833V61.7864L47.4105 60.6845V59.6668C47.4105 59.4831 47.4105 59.3199 47.4105 59.177C47.4166 59.0342 47.4227 58.8786 47.4287 58.7103V58.672C47.4348 58.6159 47.4378 58.5649 47.4378 58.519C47.4438 58.4679 47.4469 58.4169 47.4469 58.3659C47.4529 58.2639 47.4862 58.1644 47.5467 58.0675C47.571 58.0267 47.5952 57.991 47.6194 57.9603C47.6497 57.9297 47.689 57.9042 47.7374 57.8838C47.8283 57.8379 47.9221 57.815 48.019 57.815C48.0674 57.815 48.1038 57.8175 48.1279 57.8226V57.815C48.2369 57.815 48.3247 57.815 48.3913 57.815C48.4579 57.815 48.5215 57.815 48.582 57.815C48.6486 57.815 48.7182 57.815 48.7909 57.815C48.8635 57.8098 48.9634 57.8073 49.0905 57.8073C49.3327 57.8022 49.5627 57.7996 49.7807 57.7996C49.9986 57.7996 50.2227 57.8022 50.4527 57.8073H50.489C50.5556 57.8124 50.6252 57.815 50.6979 57.815C50.7705 57.815 50.8402 57.8175 50.9067 57.8226C50.9734 57.8226 51.04 57.8303 51.1065 57.8456C51.1732 57.8557 51.2397 57.871 51.3063 57.8915C51.4093 57.917 51.494 57.9603 51.5606 58.0216C51.6151 58.093 51.6423 58.1644 51.6423 58.2358C51.6423 58.2664 51.6423 58.297 51.6423 58.3276C51.6423 58.3531 51.6363 58.3787 51.6242 58.4042C51.6181 58.4552 51.5818 58.5088 51.5152 58.5649C51.491 58.5751 51.4638 58.5878 51.4334 58.6031C51.4093 58.6184 51.379 58.6312 51.3426 58.6414C51.3063 58.6516 51.267 58.6592 51.2246 58.6643C51.1883 58.6643 51.1519 58.6669 51.1156 58.672C51.0672 58.6822 51.0218 58.6873 50.9794 58.6873C50.9431 58.6873 50.9007 58.6873 50.8523 58.6873H50.4436L48.6274 58.695V58.7179ZM57.3255 58.2205C57.3619 58.4654 57.383 58.7511 57.3891 59.0776C57.3952 59.399 57.3891 59.7255 57.3709 60.057C57.3589 60.3835 57.3316 60.6947 57.2892 60.9906C57.2468 61.2814 57.1954 61.5162 57.1348 61.6946C57.0924 61.8017 57.041 61.9141 56.9805 62.0313C56.926 62.1437 56.8654 62.2456 56.7988 62.3374C56.702 62.4751 56.5839 62.5976 56.4447 62.7047C56.3055 62.8066 56.1511 62.896 55.9815 62.9725C55.8181 63.0438 55.6425 63.1002 55.4548 63.1409C55.2732 63.1815 55.0916 63.2045 54.91 63.2097C54.5891 63.2198 54.2834 63.1815 53.9928 63.095C53.7083 63.0031 53.4449 62.8601 53.2027 62.6664C53.0211 62.5187 52.8758 62.3604 52.7668 62.192C52.6579 62.0237 52.5731 61.8477 52.5126 61.664C52.452 61.4751 52.4127 61.2814 52.3945 61.0824C52.3824 60.8835 52.3763 60.6794 52.3763 60.4703C52.3763 60.3733 52.3733 60.2535 52.3673 60.1106C52.3673 59.9627 52.3673 59.8122 52.3673 59.6591C52.3673 59.501 52.3673 59.3479 52.3673 59.2C52.3673 59.0521 52.3703 58.9271 52.3763 58.825C52.3763 58.7587 52.3763 58.6873 52.3763 58.6108C52.3763 58.5291 52.3794 58.4501 52.3854 58.3736C52.3975 58.2919 52.4157 58.2154 52.4399 58.144C52.4642 58.0675 52.5005 57.9986 52.5489 57.9374C52.6034 57.871 52.679 57.8226 52.7759 57.792C52.8728 57.7614 52.9727 57.7461 53.0756 57.7461C53.1846 57.7461 53.2875 57.7639 53.3844 57.7996C53.4812 57.8354 53.5599 57.8864 53.6205 57.9527C53.6507 57.9935 53.6719 58.0343 53.684 58.0751C53.6961 58.1159 53.7052 58.1618 53.7113 58.2129C53.7234 58.3812 53.7294 58.5725 53.7294 58.7868C53.7355 59.001 53.7355 59.2102 53.7294 59.4143C53.7294 59.6132 53.7264 59.7969 53.7203 59.9652C53.7143 60.1336 53.7113 60.2585 53.7113 60.3402C53.7113 60.6463 53.7294 60.9241 53.7658 61.1743C53.8021 61.4191 53.8868 61.6233 54.02 61.7864C54.1411 61.9342 54.2834 62.0289 54.4468 62.0696C54.6103 62.1102 54.7738 62.1231 54.9372 62.1078C55.0886 62.0925 55.2399 62.0466 55.3913 61.9701C55.5487 61.8883 55.6728 61.7711 55.7636 61.6181C55.7999 61.5621 55.8302 61.498 55.8544 61.4268C55.8786 61.3555 55.8968 61.289 55.9089 61.2278C55.9331 61.0341 55.9543 60.8095 55.9725 60.5544C55.9906 60.2943 56.0058 60.029 56.0179 59.7586C56.03 59.4882 56.036 59.223 56.036 58.9628C56.036 58.7026 56.033 58.4679 56.0269 58.2588C56.039 58.167 56.0724 58.0828 56.1268 58.0063C56.1753 57.9399 56.2449 57.8813 56.3357 57.8303C56.4265 57.7792 56.5506 57.7537 56.708 57.7537C56.8352 57.7588 56.9381 57.7869 57.0168 57.8379C57.0955 57.8838 57.1591 57.9348 57.2075 57.9909C57.262 58.0573 57.3013 58.1338 57.3255 58.2205ZM62.8084 62.8807C62.8147 62.9319 62.8084 62.9802 62.7902 63.0261C62.7783 63.0567 62.7602 63.082 62.7359 63.1026C62.7178 63.1232 62.6935 63.1433 62.6633 63.1638C62.6088 63.1944 62.5422 63.2227 62.4635 63.248C62.4151 63.258 62.3666 63.2657 62.3182 63.271C62.2758 63.281 62.2304 63.281 62.182 63.271C62.0851 63.2657 62.0004 63.2351 61.9277 63.1791C61.8248 63.1079 61.74 63.0285 61.6734 62.9419C61.6432 62.9013 61.6099 62.8554 61.5736 62.8042C61.5372 62.753 61.5039 62.6994 61.4737 62.6435L60.4657 61.0289C60.4173 61.0289 60.3688 61.0313 60.3204 61.0365C60.272 61.0365 60.2235 61.0389 60.1751 61.0442C60.0479 61.0542 59.9269 61.0571 59.8118 61.0518C59.7029 61.0466 59.5878 61.0466 59.4667 61.0518H59.2942V62.4369C59.2942 62.4775 59.2912 62.5158 59.2851 62.5517C59.2851 62.5875 59.2851 62.6258 59.2851 62.6664C59.2851 62.6918 59.2821 62.7253 59.276 62.7659C59.276 62.8066 59.273 62.8448 59.267 62.8807C59.2549 62.9367 59.2276 62.9955 59.1852 63.0567C59.1428 63.1127 59.0853 63.1614 59.0127 63.2021C58.8856 63.2686 58.7312 63.2863 58.5496 63.2557C58.4708 63.2404 58.3952 63.215 58.3225 63.1791C58.2983 63.1638 58.2771 63.1461 58.259 63.1256C58.2408 63.1002 58.2256 63.0744 58.2136 63.049C58.2015 63.0237 58.1893 62.9979 58.1772 62.9725C58.1712 62.9419 58.1621 62.9137 58.15 62.8883C58.1318 62.8372 58.1227 62.7889 58.1227 62.743V58.3965C58.1227 58.3659 58.1227 58.3353 58.1227 58.3047C58.1288 58.269 58.1348 58.2384 58.1409 58.2129C58.147 58.1568 58.1682 58.1006 58.2045 58.0445C58.2226 57.9833 58.2529 57.9399 58.2953 57.9144C58.3316 57.8838 58.3861 57.8583 58.4587 57.8379C58.5375 57.8124 58.6494 57.8022 58.7947 57.8073C59.0672 57.8124 59.3366 57.815 59.603 57.815C59.8693 57.815 60.1357 57.8201 60.4021 57.8303C60.5776 57.8404 60.7623 57.8583 60.956 57.8838C61.1558 57.9042 61.3405 57.9425 61.51 57.9986C61.619 58.0343 61.7189 58.07 61.8097 58.1057C61.9247 58.1618 62.0155 58.2154 62.0821 58.2664C62.294 58.4297 62.4544 58.6261 62.5634 58.8556C62.6724 59.0852 62.7269 59.3173 62.7269 59.552C62.7269 59.8275 62.6481 60.08 62.4907 60.3096C62.3394 60.5391 62.0942 60.71 61.7552 60.8223C61.7431 60.8323 61.7249 60.84 61.7007 60.8452C61.6825 60.8452 61.6674 60.8476 61.6553 60.8529L62.4907 62.2685L62.5725 62.391C62.5846 62.4115 62.5997 62.4345 62.6179 62.4598C62.636 62.4852 62.6512 62.511 62.6633 62.5363C62.6814 62.5617 62.6966 62.5899 62.7087 62.6205C62.7269 62.6511 62.745 62.6794 62.763 62.7047C62.7812 62.776 62.7965 62.8348 62.8084 62.8807ZM60.5383 60.1565C60.6473 60.1565 60.7502 60.1412 60.8471 60.1106C60.95 60.0749 61.0408 60.029 61.1195 59.9729C61.2042 59.9168 61.2739 59.853 61.3284 59.7816C61.3829 59.705 61.4131 59.6234 61.4192 59.5367C61.4434 59.2816 61.3647 59.0929 61.1831 58.9704C61.0014 58.8429 60.7623 58.774 60.4657 58.7638C60.2901 58.7536 60.0963 58.7485 59.8845 58.7485C59.6786 58.7485 59.4819 58.7485 59.2942 58.7485C59.3003 58.9577 59.3003 59.1719 59.2942 59.3913C59.2942 59.6056 59.2942 59.8606 59.2942 60.1565H60.5383Z" fill="white"/>
</svg>
