<svg width="71" height="75" viewBox="0 0 71 75" fill="none" xmlns="http://www.w3.org/2000/svg">
<path d="M15.5352 36.9666L15.5357 37.006L15.537 39.4181H51.4628L51.4648 36.9703C51.555 34.184 53.6101 31.8702 56.4843 30.9798C54.9708 26.3809 50.0443 23.0087 44.1945 23.0087H22.8054C16.9558 23.0087 12.0291 26.3807 10.5157 30.9798C13.3899 31.8699 15.445 34.1832 15.5352 36.9666Z" fill="#FAFAFA"/>
<path d="M59.1166 32.3217C55.923 32.3217 53.3259 34.5033 53.238 37.2226L53.2357 41.1527H13.7639L13.7619 37.2226C13.674 34.5033 11.0767 32.3217 7.88295 32.3217C4.63387 32.3217 2 34.5794 2 37.3645C2 40.1494 4.63387 42.4069 7.88295 42.4069C7.98699 42.4069 8.08194 42.4044 8.1845 42.3998C8.1845 42.3998 8.18791 45.2016 8.18791 45.2526C8.18791 47.5171 10.3296 49.3526 12.9712 49.3526H14.0247V50.5359C14.0247 50.7875 14.2629 50.9916 14.5564 50.9916H18.0946C18.3881 50.9916 18.6263 50.7875 18.6263 50.5359V49.3526H48.3732V50.5359C48.3732 50.7875 48.6114 50.9916 48.9049 50.9916H52.4431C52.7366 50.9916 52.9748 50.7875 52.9748 50.5359V49.3526H54.0256C56.6675 49.3526 58.809 47.5171 58.809 45.2526C58.809 45.2321 58.8073 45.2119 58.8067 45.1914V42.4C58.9094 42.4046 59.0127 42.407 59.1166 42.407C62.3654 42.407 64.9994 40.1496 64.9994 37.3646C65 34.5794 62.3659 32.3217 59.1166 32.3217Z" fill="#FAFAFA"/>
<path d="M22.6781 57.5726C22.7568 57.7177 22.7599 57.8604 22.6872 58.0008C22.6146 58.1361 22.4995 58.2615 22.3421 58.3765C22.1847 58.4915 22.0031 58.592 21.7973 58.677C21.5975 58.762 21.4068 58.8221 21.2252 58.8573C21.0254 58.8925 20.8135 58.9076 20.5895 58.9024C20.3716 58.9024 20.1505 58.8799 19.9266 58.8348C19.7086 58.7949 19.4937 58.7348 19.2818 58.6545C19.076 58.5695 18.8853 58.4667 18.7097 58.3464C18.4978 58.2013 18.3313 58.0285 18.2103 57.828C18.0952 57.6228 18.0105 57.405 17.956 57.1744C17.9015 56.944 17.8712 56.7136 17.8652 56.4832C17.8652 56.2478 17.8743 56.0274 17.8924 55.8221C17.9106 55.6367 17.956 55.4439 18.0286 55.2436C18.1013 55.0432 18.2012 54.8478 18.3283 54.6575C18.4615 54.4622 18.6189 54.2819 18.8005 54.1166C18.9882 53.9513 19.2061 53.811 19.4544 53.6959C19.642 53.6057 19.8509 53.5456 20.081 53.5155C20.3171 53.4805 20.5532 53.473 20.7893 53.493C21.0314 53.508 21.2584 53.5506 21.4704 53.6207C21.6883 53.6859 21.8729 53.776 22.0243 53.8912C22.1211 53.9613 22.221 54.059 22.324 54.1842C22.433 54.3094 22.5116 54.4372 22.5601 54.5674C22.6085 54.6976 22.6085 54.8203 22.5601 54.9355C22.5177 55.0457 22.3966 55.1209 22.1968 55.1609C22.1121 55.181 22.0364 55.1859 21.9698 55.1759C21.9032 55.1609 21.8427 55.1384 21.7882 55.1083C21.7337 55.0732 21.6822 55.0332 21.6338 54.9881C21.5854 54.943 21.5399 54.8979 21.4976 54.8529C21.3523 54.7076 21.1828 54.61 20.9891 54.5599C20.7953 54.5048 20.6016 54.4922 20.4079 54.5223C20.2202 54.5473 20.0416 54.6125 19.8721 54.7176C19.7086 54.8178 19.5815 54.9481 19.4907 55.1083C19.3938 55.2786 19.3151 55.4665 19.2546 55.6718C19.2001 55.8722 19.1698 56.0775 19.1638 56.2879C19.1577 56.4932 19.1789 56.6936 19.2273 56.8889C19.2818 57.0843 19.3726 57.2571 19.4998 57.4073C19.5966 57.5275 19.7146 57.6252 19.8539 57.7003C19.9992 57.7755 20.1536 57.828 20.3171 57.8581C20.4805 57.8881 20.644 57.8933 20.8074 57.8731C20.9769 57.8529 21.1404 57.8079 21.2978 57.7379C21.3462 57.7177 21.3977 57.6905 21.4522 57.6552C21.5127 57.6153 21.5733 57.5749 21.6338 57.535C21.6943 57.4951 21.7549 57.4576 21.8154 57.4223C21.882 57.3871 21.9517 57.3622 22.0243 57.3472C22.1333 57.3172 22.2513 57.3195 22.3785 57.3547C22.5116 57.3899 22.6115 57.4622 22.6781 57.5726ZM29.0727 58.3239C29.0788 58.354 29.0818 58.384 29.0818 58.4141C29.0879 58.4389 29.0909 58.469 29.0909 58.5042C29.0909 58.5643 29.0697 58.6193 29.0273 58.6695C29.0091 58.6944 28.9849 58.7197 28.9546 58.7446C28.9244 58.7648 28.8881 58.7822 28.8457 58.7972C28.6943 58.8672 28.5339 58.8926 28.3644 58.8724C28.2796 58.8522 28.2039 58.8198 28.1374 58.7747C28.1253 58.7648 28.1162 58.7597 28.1101 58.7597C28.104 58.7545 28.098 58.747 28.0919 58.7371C28.0859 58.732 28.0799 58.7273 28.0738 58.7221C28.0677 58.7122 28.0586 58.7047 28.0465 58.6996C28.0163 58.6747 27.9921 58.6521 27.9739 58.6319C27.9557 58.6071 27.9376 58.5817 27.9194 58.5568C27.9073 58.5319 27.8922 58.5094 27.874 58.4892C27.8619 58.4643 27.8468 58.4389 27.8286 58.4141C27.8165 58.3939 27.8044 58.3765 27.7923 58.3615C27.7802 58.3413 27.7711 58.3216 27.765 58.3014C27.7408 58.2563 27.7257 58.2164 27.7196 58.1812L27.5289 57.813C27.1112 57.813 26.6935 57.8154 26.2757 57.8205C25.8641 57.8205 25.4494 57.8182 25.0316 57.813L24.8409 58.1812C24.8288 58.2013 24.8197 58.2211 24.8137 58.2413C24.8137 58.2615 24.8076 58.2812 24.7955 58.3014C24.7834 58.3216 24.7713 58.3413 24.7592 58.3615C24.7531 58.3765 24.744 58.3939 24.7319 58.4141C24.7138 58.4389 24.6956 58.4643 24.6775 58.4892C24.6654 58.5094 24.6502 58.5319 24.6321 58.5568C24.62 58.5817 24.6048 58.6071 24.5867 58.6319C24.5685 58.6521 24.5443 58.6747 24.514 58.6996C24.5019 58.7047 24.4928 58.7122 24.4868 58.7221C24.4807 58.7273 24.4747 58.732 24.4686 58.7371C24.4625 58.747 24.4565 58.7545 24.4504 58.7597C24.4444 58.7597 24.4353 58.7648 24.4232 58.7747C24.3566 58.8198 24.2809 58.8522 24.1962 58.8724C24.0266 58.8926 23.8662 58.8672 23.7149 58.7972C23.6725 58.7822 23.6361 58.7648 23.6059 58.7446C23.5756 58.7197 23.5514 58.6944 23.5332 58.6695C23.4908 58.6193 23.4697 58.5643 23.4697 58.5042C23.4697 58.469 23.4697 58.4389 23.4697 58.4141C23.4757 58.384 23.4818 58.354 23.4878 58.3239C23.4999 58.2788 23.5151 58.2337 23.5332 58.1887C23.5514 58.1436 23.5605 58.1211 23.5605 58.1211L25.4494 54.2744L25.5038 54.1542C25.5159 54.1241 25.5311 54.0965 25.5492 54.0715C25.5674 54.0465 25.5826 54.0164 25.5946 53.9814C25.6249 53.9162 25.6582 53.8587 25.6945 53.8086C25.7127 53.7785 25.7339 53.7509 25.7581 53.7259C25.7823 53.7009 25.8065 53.6758 25.8308 53.6508C25.8671 53.6107 25.9186 53.5781 25.9851 53.5531C26.0699 53.5281 26.1668 53.5155 26.2757 53.5155C26.3908 53.5155 26.4907 53.5281 26.5754 53.5531C26.642 53.5781 26.6935 53.6107 26.7298 53.6508C26.7722 53.6959 26.8176 53.7485 26.866 53.8086C26.9023 53.8587 26.9356 53.9162 26.9659 53.9814C26.978 54.0164 26.9931 54.0465 27.0113 54.0715C27.0295 54.0965 27.0446 54.1241 27.0567 54.1542L27.1112 54.2744L29.0001 58.1211C29.0001 58.1211 29.0091 58.1436 29.0273 58.1887C29.0455 58.2337 29.0606 58.2788 29.0727 58.3239ZM26.9205 56.4832C26.8418 56.338 26.76 56.1877 26.6753 56.0324C26.5966 55.8771 26.5118 55.7194 26.421 55.5591C26.3968 55.514 26.3726 55.4689 26.3484 55.4239C26.3241 55.3738 26.3 55.3262 26.2757 55.2811C26.2576 55.3262 26.2364 55.3738 26.2122 55.4239C26.1879 55.4689 26.1638 55.514 26.1395 55.5591C26.0487 55.7194 25.9609 55.8771 25.8762 56.0324C25.7974 56.1877 25.7188 56.338 25.6401 56.4832L25.4766 56.8138H27.0839L26.9205 56.4832ZM34.7594 58.2638C34.7534 58.3488 34.7383 58.4389 34.714 58.5343C34.6959 58.6296 34.6384 58.7071 34.5415 58.7672C34.4689 58.8174 34.3871 58.8475 34.2963 58.8573C34.2055 58.8672 34.1147 58.8625 34.0239 58.8423C33.9391 58.8273 33.8574 58.8024 33.7787 58.7672C33.7 58.7273 33.6364 58.6794 33.588 58.6244C33.3821 58.4141 33.1914 58.1985 33.0159 57.9783C32.8463 57.7529 32.6738 57.5275 32.4983 57.3021L31.7354 56.348C31.6325 56.2127 31.5236 56.0625 31.4085 55.8972C31.2935 55.7269 31.1754 55.5691 31.0544 55.4239L31.0271 58.2939V58.3615C31.0271 58.4418 31.009 58.5216 30.9726 58.6019C30.9424 58.677 30.8879 58.7423 30.8092 58.7972C30.7486 58.8371 30.67 58.8648 30.5731 58.8799C30.4217 58.9048 30.2946 58.8972 30.1917 58.8573C30.0948 58.8174 30.0161 58.762 29.9556 58.692C29.9011 58.6221 29.8617 58.5418 29.8375 58.4516C29.8193 58.3563 29.8163 58.2638 29.8284 58.1736V58.0459L29.8466 57.4599L29.8557 56.3705C29.8617 56.2102 29.8647 56.0474 29.8647 55.8822C29.8647 55.7118 29.8647 55.5391 29.8647 55.3638C29.8587 55.1484 29.8587 54.9205 29.8647 54.6801C29.8768 54.4397 29.889 54.2143 29.9011 54.0039C29.9132 53.8887 29.9465 53.791 30.001 53.7109C30.0252 53.6408 30.0888 53.5807 30.1917 53.5306C30.2582 53.4955 30.343 53.473 30.4459 53.463C30.5549 53.453 30.6487 53.4554 30.7274 53.4705C30.7577 53.4805 30.788 53.493 30.8183 53.508C30.8485 53.518 30.8788 53.5306 30.9091 53.5456C30.9393 53.5657 30.9666 53.5857 30.9908 53.6057C31.021 53.6258 31.0483 53.6483 31.0725 53.6733C31.1028 53.6984 31.13 53.7259 31.1543 53.756C31.1785 53.781 31.2027 53.8061 31.2269 53.8311C31.2451 53.8611 31.2632 53.8887 31.2814 53.9137C31.2996 53.9388 31.3207 53.9638 31.345 53.9889L31.4449 54.1091L33.5426 56.8438V56.348C33.5426 56.1877 33.5396 56.0249 33.5335 55.8596C33.5335 55.6893 33.5305 55.514 33.5244 55.3337C33.5244 55.1233 33.5244 54.8979 33.5244 54.6575C33.5305 54.4171 33.5396 54.1917 33.5517 53.9814C33.5517 53.8962 33.5819 53.7986 33.6425 53.6883C33.6727 53.6232 33.7242 53.5706 33.7969 53.5306C33.8695 53.4905 33.9512 53.463 34.042 53.4479C34.1329 53.4329 34.2237 53.4329 34.3145 53.4479C34.4053 53.463 34.484 53.493 34.5506 53.5381C34.5687 53.5531 34.5869 53.5706 34.6051 53.5907C34.6232 53.6107 34.6384 53.6333 34.6505 53.6583C34.6807 53.7234 34.6989 53.781 34.705 53.8311C34.7231 53.9012 34.7322 53.9638 34.7322 54.0189C34.7322 54.645 34.7322 55.2836 34.7322 55.9348C34.7383 56.5859 34.7443 57.2247 34.7504 57.8506C34.7504 57.9205 34.7534 57.991 34.7594 58.0609C34.7655 58.1262 34.7655 58.1938 34.7594 58.2638ZM41.098 58.3239C41.1041 58.354 41.1071 58.384 41.1071 58.4141C41.1132 58.4389 41.1162 58.469 41.1162 58.5042C41.1162 58.5643 41.095 58.6193 41.0526 58.6695C41.0345 58.6944 41.0102 58.7197 40.98 58.7446C40.9497 58.7648 40.9134 58.7822 40.871 58.7972C40.7196 58.8672 40.5592 58.8926 40.3897 58.8724C40.305 58.8522 40.2293 58.8198 40.1627 58.7747C40.1506 58.7648 40.1415 58.7597 40.1354 58.7597C40.1294 58.7545 40.1234 58.747 40.1173 58.7371C40.1112 58.732 40.1052 58.7273 40.0991 58.7221C40.093 58.7122 40.084 58.7047 40.0719 58.6996C40.0416 58.6747 40.0174 58.6521 39.9992 58.6319C39.9811 58.6071 39.9629 58.5817 39.9447 58.5568C39.9327 58.5319 39.9175 58.5094 39.8993 58.4892C39.8873 58.4643 39.8721 58.4389 39.8539 58.4141C39.8418 58.3939 39.8297 58.3765 39.8176 58.3615C39.8055 58.3413 39.7964 58.3216 39.7904 58.3014C39.7661 58.2563 39.751 58.2164 39.745 58.1812L39.5543 57.813C39.1365 57.813 38.7188 57.8154 38.3011 57.8205C37.8894 57.8205 37.4747 57.8182 37.057 57.813L36.8663 58.1812C36.8542 58.2013 36.8451 58.2211 36.839 58.2413C36.839 58.2615 36.8329 58.2812 36.8209 58.3014C36.8088 58.3216 36.7966 58.3413 36.7845 58.3615C36.7785 58.3765 36.7694 58.3939 36.7573 58.4141C36.7391 58.4389 36.721 58.4643 36.7028 58.4892C36.6907 58.5094 36.6756 58.5319 36.6574 58.5568C36.6453 58.5817 36.6302 58.6071 36.612 58.6319C36.5938 58.6521 36.5696 58.6747 36.5393 58.6996C36.5272 58.7047 36.5182 58.7122 36.5121 58.7221C36.506 58.7273 36.5 58.732 36.4939 58.7371C36.4879 58.747 36.4818 58.7545 36.4758 58.7597C36.4697 58.7597 36.4606 58.7648 36.4485 58.7747C36.382 58.8198 36.3062 58.8522 36.2215 58.8724C36.052 58.8926 35.8916 58.8672 35.7402 58.7972C35.6978 58.7822 35.6615 58.7648 35.6312 58.7446C35.601 58.7197 35.5767 58.6944 35.5586 58.6695C35.5162 58.6193 35.495 58.5643 35.495 58.5042C35.495 58.469 35.495 58.4389 35.495 58.4141C35.5011 58.384 35.5071 58.354 35.5132 58.3239C35.5253 58.2788 35.5404 58.2337 35.5586 58.1887C35.5767 58.1436 35.5858 58.1211 35.5858 58.1211L37.4747 54.2744L37.5292 54.1542C37.5413 54.1241 37.5564 54.0965 37.5746 54.0715C37.5927 54.0465 37.6079 54.0164 37.62 53.9814C37.6502 53.9162 37.6836 53.8587 37.7199 53.8086C37.738 53.7785 37.7592 53.7509 37.7834 53.7259C37.8077 53.7009 37.8319 53.6758 37.8561 53.6508C37.8924 53.6107 37.9439 53.5781 38.0105 53.5531C38.0952 53.5281 38.1921 53.5155 38.3011 53.5155C38.4161 53.5155 38.516 53.5281 38.6007 53.5531C38.6673 53.5781 38.7188 53.6107 38.7551 53.6508C38.7975 53.6959 38.8429 53.7485 38.8913 53.8086C38.9277 53.8587 38.961 53.9162 38.9912 53.9814C39.0033 54.0164 39.0185 54.0465 39.0366 54.0715C39.0548 54.0965 39.07 54.1241 39.082 54.1542L39.1365 54.2744L41.0254 58.1211C41.0254 58.1211 41.0345 58.1436 41.0526 58.1887C41.0708 58.2337 41.086 58.2788 41.098 58.3239ZM38.9458 56.4832C38.8671 56.338 38.7854 56.1877 38.7006 56.0324C38.6219 55.8771 38.5372 55.7194 38.4464 55.5591C38.4221 55.514 38.398 55.4689 38.3737 55.4239C38.3495 55.3738 38.3253 55.3262 38.3011 55.2811C38.2829 55.3262 38.2617 55.3738 38.2375 55.4239C38.2133 55.4689 38.1891 55.514 38.1649 55.5591C38.074 55.7194 37.9862 55.8771 37.9015 56.0324C37.8228 56.1877 37.7441 56.338 37.6654 56.4832L37.5019 56.8138H39.1093L38.9458 56.4832ZM45.7768 53.9889C46.0068 54.1642 46.1764 54.3745 46.2853 54.62C46.3943 54.8604 46.4367 55.1008 46.4125 55.3412C46.3882 55.5716 46.3005 55.7845 46.1491 55.9798C45.9977 56.1701 45.7677 56.3154 45.4589 56.4156C45.2168 56.5007 44.9777 56.5608 44.7415 56.5959C44.5054 56.631 44.2451 56.6585 43.9606 56.6785C43.8334 56.6885 43.7245 56.6961 43.6336 56.7011C43.5489 56.7011 43.449 56.7036 43.334 56.7086C43.3097 56.7086 43.2674 56.7086 43.2068 56.7086C43.1524 56.7086 43.113 56.7111 43.0888 56.7161V58.2713C43.0706 58.3666 43.0464 58.4643 43.0161 58.5643C42.9919 58.6643 42.9223 58.7423 42.8073 58.7972C42.7407 58.8273 42.659 58.8447 42.5621 58.8498C42.4652 58.855 42.3775 58.8522 42.2987 58.8423C42.214 58.8324 42.1413 58.8146 42.0808 58.7897C42.0263 58.7597 41.9809 58.7094 41.9446 58.6395C41.9203 58.5944 41.8962 58.5441 41.8719 58.4892C41.8538 58.4291 41.8447 58.3563 41.8447 58.2713V54.1166C41.8447 54.0815 41.8477 54.049 41.8538 54.0189C41.8598 53.9889 41.8658 53.9588 41.8719 53.9288C41.884 53.9037 41.8931 53.8762 41.8992 53.8461C41.9052 53.8161 41.9143 53.7885 41.9264 53.7635C41.9385 53.7384 41.9506 53.7159 41.9627 53.6959C41.9809 53.6758 42.0021 53.6583 42.0263 53.6433C42.0565 53.6182 42.102 53.5957 42.1625 53.5757C42.2291 53.5556 42.326 53.5456 42.4531 53.5456H42.4713C42.659 53.5356 42.8678 53.5281 43.0979 53.5231C43.3279 53.5131 43.5186 53.5155 43.67 53.5306C43.7547 53.5406 43.8334 53.5481 43.9061 53.5531C43.9787 53.5531 44.0484 53.5556 44.1149 53.5606C44.1876 53.5656 44.2602 53.5706 44.3329 53.5757C44.4055 53.5807 44.4782 53.5882 44.5508 53.5982C44.6114 53.6082 44.6659 53.6157 44.7143 53.6207C44.7688 53.6258 44.8233 53.6333 44.8778 53.6433C44.9262 53.6533 44.9776 53.6633 45.0321 53.6733C45.0927 53.6833 45.1472 53.7009 45.1956 53.7259C45.3227 53.756 45.4287 53.7935 45.5134 53.8386C45.5982 53.8837 45.686 53.9338 45.7768 53.9889ZM45.2319 55.2285C45.238 55.1083 45.2077 55.0031 45.1411 54.913C45.0805 54.8228 44.9928 54.7477 44.8778 54.6876C44.7627 54.6275 44.6326 54.5799 44.4873 54.5448C44.342 54.5098 44.1967 54.4847 44.0514 54.4697C44.0151 54.4697 43.9636 54.4697 43.897 54.4697C43.8364 54.4647 43.7699 54.4622 43.6972 54.4622C43.6246 54.4572 43.5549 54.4547 43.4884 54.4547C43.4278 54.4497 43.3794 54.4472 43.3431 54.4472C43.3128 54.4421 43.2765 54.4397 43.2341 54.4397C43.1917 54.4397 43.1433 54.4397 43.0888 54.4397C43.0949 54.5949 43.0979 54.7452 43.0979 54.8904C43.0979 55.0307 43.0979 55.1834 43.0979 55.3487C43.0918 55.4389 43.0888 55.529 43.0888 55.6192C43.0888 55.7094 43.0888 55.797 43.0888 55.8822L43.6518 55.8746C43.7971 55.8746 43.9576 55.8671 44.1331 55.8521C44.3087 55.8371 44.4752 55.807 44.6326 55.762C44.79 55.7169 44.9232 55.6517 45.0321 55.5666C45.1472 55.4815 45.2138 55.3688 45.2319 55.2285ZM48.4009 54.4171L48.3827 55.5967H48.746C48.9942 55.5916 49.2151 55.5892 49.4089 55.5892C49.6026 55.5892 49.8175 55.5916 50.0536 55.5967H50.099C50.1717 55.5967 50.2413 55.5992 50.3079 55.6042C50.3806 55.6042 50.4501 55.6042 50.5168 55.6042C50.5894 55.6092 50.659 55.6192 50.7256 55.6342C50.7922 55.6442 50.8588 55.6568 50.9254 55.6718C51.0283 55.7018 51.1131 55.7469 51.1797 55.807C51.2402 55.8722 51.2705 55.9448 51.2705 56.0249C51.2705 56.0499 51.2705 56.08 51.2705 56.1151C51.2705 56.1451 51.2644 56.1727 51.2523 56.1977C51.2402 56.2528 51.2009 56.3029 51.1343 56.348C51.104 56.383 51.0465 56.4081 50.9617 56.4231C50.883 56.4432 50.8043 56.4556 50.7256 56.4607C50.6408 56.4757 50.5561 56.4832 50.4714 56.4832H50.0446L48.3646 56.4907L48.3464 57.9633L50.1535 57.9783H50.5803C50.6288 57.9783 50.6742 57.9783 50.7166 57.9783C50.7589 57.9783 50.7983 57.9807 50.8346 57.9858C50.883 57.9957 50.9254 58.0032 50.9617 58.0084C51.0041 58.0084 51.0435 58.0135 51.0798 58.0234C51.1524 58.0436 51.2129 58.0708 51.2614 58.106C51.3219 58.1563 51.3613 58.2089 51.3795 58.2638C51.3855 58.2887 51.3886 58.3164 51.3886 58.3464C51.3946 58.3713 51.3946 58.399 51.3886 58.4291C51.3886 58.5094 51.3582 58.5817 51.2977 58.647C51.2251 58.7169 51.1403 58.762 51.0435 58.7822C50.9163 58.8273 50.7771 58.8498 50.6257 58.8498C50.5591 58.855 50.4895 58.8573 50.4169 58.8573C50.3442 58.8573 50.2746 58.8597 50.208 58.8648H50.1535C49.6813 58.8747 49.1909 58.8747 48.6824 58.8648C48.5613 58.8648 48.4644 58.8625 48.3918 58.8573C48.3191 58.8573 48.2525 58.8573 48.192 58.8573C48.1375 58.8573 48.08 58.8573 48.0195 58.8573C47.9589 58.8573 47.8802 58.8573 47.7834 58.8573C47.6441 58.8672 47.5291 58.8475 47.4383 58.7972C47.3716 58.762 47.3202 58.7146 47.2839 58.6545C47.2657 58.6395 47.2567 58.6244 47.2567 58.6094C47.2506 58.5995 47.2445 58.592 47.2385 58.5869C47.2324 58.5817 47.2264 58.5742 47.2203 58.5643C47.2082 58.5394 47.1991 58.5141 47.1931 58.4892C47.187 58.4591 47.184 58.4314 47.184 58.4065C47.1779 58.3817 47.1719 58.3563 47.1659 58.3314C47.1659 58.3065 47.1628 58.2812 47.1568 58.2563V58.1361C47.1568 58.1159 47.1568 58.0962 47.1568 58.076C47.1628 58.0558 47.1659 58.0361 47.1659 58.0159V57.4299L47.184 56.348V55.3487C47.184 55.1684 47.184 55.0082 47.184 54.8679C47.19 54.7276 47.1961 54.5749 47.2022 54.4096V54.372C47.2082 54.317 47.2113 54.2669 47.2113 54.2218C47.2173 54.1717 47.2203 54.1216 47.2203 54.0715C47.2264 53.9714 47.2597 53.8737 47.3202 53.7785C47.3444 53.7385 47.3686 53.7034 47.3929 53.6733C47.4231 53.6433 47.4625 53.6182 47.5109 53.5982C47.6017 53.5531 47.6956 53.5306 47.7924 53.5306C47.8409 53.5306 47.8772 53.5331 47.9014 53.5381V53.5306C48.0104 53.5306 48.0981 53.5306 48.1648 53.5306C48.2313 53.5306 48.2949 53.5306 48.3555 53.5306C48.422 53.5306 48.4917 53.5306 48.5643 53.5306C48.637 53.5256 48.7369 53.5231 48.864 53.5231C49.1061 53.518 49.3362 53.5155 49.5542 53.5155C49.7721 53.5155 49.9961 53.518 50.2262 53.5231H50.2625C50.3291 53.5281 50.3987 53.5306 50.4714 53.5306C50.544 53.5306 50.6136 53.5331 50.6802 53.5381C50.7468 53.5381 50.8134 53.5456 50.88 53.5606C50.9466 53.5706 51.0132 53.5857 51.0798 53.6057C51.1827 53.6307 51.2674 53.6733 51.3341 53.7334C51.3886 53.8035 51.4158 53.8737 51.4158 53.9438C51.4158 53.9738 51.4158 54.0039 51.4158 54.0339C51.4158 54.059 51.4097 54.0841 51.3976 54.1091C51.3916 54.1592 51.3552 54.2118 51.2887 54.2669C51.2644 54.2769 51.2372 54.2894 51.2069 54.3044C51.1827 54.3194 51.1524 54.332 51.1161 54.342C51.0798 54.352 51.0404 54.3595 50.9981 54.3645C50.9617 54.3645 50.9254 54.367 50.8891 54.372C50.8406 54.382 50.7952 54.3871 50.7529 54.3871C50.7166 54.3871 50.6742 54.3871 50.6257 54.3871H50.2171L48.4009 54.3946V54.4171Z" fill="white"/>
</svg>
