<svg width="75" height="75" viewBox="0 0 75 75" fill="none" xmlns="http://www.w3.org/2000/svg">
<path d="M54.375 10H20.6251V22.8695H54.375V10ZM25.125 18.8477C25.125 19.292 24.6214 19.6521 24.0001 19.6521C23.3788 19.6521 22.8751 19.292 22.8751 18.8477V14.0217C22.8751 13.5775 23.3788 13.2174 24.0001 13.2174C24.6214 13.2174 25.125 13.5775 25.125 14.0217V18.8477Z" fill="#FAFAFA"/>
<path d="M20.6251 24.4781V53.4344H24.0001V55.043H28.5001V53.4344H46.5V55.043H51V53.4344H54.375V24.4781H20.6251ZM22.8751 31.7172V26.8911C22.8751 26.4469 23.3788 26.0868 24.0001 26.0868C24.6214 26.0868 25.125 26.4469 25.125 26.8911V31.7172C25.125 32.1613 24.6214 32.5215 24.0001 32.5215C23.3788 32.5215 22.8751 32.1613 22.8751 31.7172Z" fill="#FAFAFA"/>
<path d="M30.0122 56.8118C30.0667 56.873 30.1 56.9443 30.1121 57.0261C30.1121 57.0567 30.1091 57.0873 30.103 57.1179C30.103 57.1433 30.1 57.1691 30.0939 57.1944C30.0879 57.2504 30.0485 57.304 29.9759 57.3551C29.9335 57.3805 29.879 57.4063 29.8124 57.4316C29.7761 57.4417 29.7368 57.4493 29.6944 57.4546C29.6581 57.4546 29.6157 57.457 29.5672 57.4623C29.5309 57.4723 29.4916 57.4776 29.4492 57.4776C29.4068 57.4776 29.3645 57.4776 29.3221 57.4776H28.9134L27.0155 57.4852V57.5082L27.0064 58.7555C27.0548 58.7555 27.1063 58.7555 27.1608 58.7555C27.2213 58.7555 27.294 58.7531 27.3787 58.7478C27.6209 58.7478 27.8358 58.7478 28.0235 58.7478C28.2172 58.7478 28.4291 58.7502 28.6591 58.7555H28.7136C28.7802 58.7555 28.8468 58.7579 28.9134 58.7631C28.9861 58.7631 29.0587 58.7631 29.1314 58.7631C29.1979 58.7684 29.2646 58.776 29.3311 58.7861C29.3977 58.7913 29.4643 58.8038 29.5309 58.8243C29.6399 58.855 29.7186 58.9033 29.767 58.9697C29.8336 59.0362 29.8669 59.1051 29.8669 59.1763C29.8669 59.207 29.8669 59.2376 29.8669 59.2682C29.8669 59.2935 29.8608 59.3217 29.8488 59.3523C29.8427 59.393 29.8034 59.4442 29.7307 59.5054C29.6823 59.5413 29.6247 59.5642 29.5582 59.5743C29.5279 59.5843 29.4916 59.5948 29.4492 59.6049C29.4129 59.6101 29.3735 59.6149 29.3311 59.6202C29.2887 59.6254 29.2464 59.6302 29.204 59.6355C29.1677 59.6355 29.1253 59.6355 29.0769 59.6355H28.6591L26.9882 59.6431L26.961 61.4184V61.4797C26.961 61.505 26.958 61.5308 26.9519 61.5562C26.9519 61.5767 26.9489 61.5997 26.9428 61.625C26.9307 61.6504 26.9186 61.6786 26.9065 61.7092C26.9004 61.7346 26.8913 61.7604 26.8792 61.7857C26.8368 61.857 26.7975 61.9058 26.7612 61.9311C26.6946 61.9718 26.6129 62 26.516 62.0153C26.3525 62.0459 26.1982 62.0306 26.0529 61.9694C26.0226 61.9541 25.9923 61.9364 25.9621 61.9158C25.9378 61.8905 25.9166 61.8599 25.8985 61.824C25.8864 61.8034 25.8803 61.7881 25.8803 61.7781L25.8531 61.7322C25.8349 61.7068 25.8228 61.681 25.8168 61.6556C25.8107 61.625 25.8047 61.5968 25.7986 61.5715C25.7986 61.5461 25.7956 61.5203 25.7895 61.495C25.7895 61.4696 25.7865 61.4438 25.7804 61.4184C25.7744 61.3778 25.7744 61.3367 25.7804 61.296V61.1736L25.7895 60.5767L25.7986 59.4748C25.8047 59.3117 25.8077 59.1457 25.8077 58.9774C25.8077 58.809 25.8077 58.6354 25.8077 58.457C25.8016 58.2734 25.7986 58.1103 25.7986 57.9673C25.8047 57.8243 25.8138 57.6689 25.8258 57.5005V57.4623C25.8319 57.4063 25.8349 57.3551 25.8349 57.3092C25.8349 57.258 25.841 57.2073 25.8531 57.1562C25.8652 57.0438 25.8955 56.9443 25.9439 56.8577C25.9863 56.7712 26.0468 56.71 26.1255 56.6741C26.2163 56.6282 26.3132 56.6052 26.4161 56.6052C26.4645 56.6052 26.5039 56.6076 26.5342 56.6129V56.6052C26.6431 56.6052 26.7309 56.6052 26.7975 56.6052C26.8641 56.6052 26.9277 56.6052 26.9882 56.6052C27.0488 56.6052 27.1154 56.6052 27.188 56.6052C27.2606 56.6 27.3575 56.5976 27.4786 56.5976C27.9629 56.5923 28.4412 56.5923 28.9134 56.5976H28.9588C29.0254 56.6028 29.092 56.6052 29.1586 56.6052C29.2312 56.6052 29.3039 56.6076 29.3765 56.6129C29.4431 56.6129 29.5098 56.6205 29.5763 56.6358C29.6429 56.6459 29.7095 56.6612 29.7761 56.6817C29.879 56.7071 29.9577 56.7506 30.0122 56.8118ZM35.3968 61.6633C35.4029 61.7145 35.3968 61.7628 35.3786 61.8087C35.3665 61.8393 35.3484 61.8647 35.3241 61.8852C35.306 61.9058 35.2818 61.9259 35.2515 61.9464C35.197 61.977 35.1304 62.0053 35.0517 62.0306C35.0033 62.0407 34.9549 62.0483 34.9064 62.0536C34.8641 62.0636 34.8187 62.0636 34.7702 62.0536C34.6734 62.0483 34.5886 62.0177 34.5159 61.9617C34.413 61.8905 34.3283 61.8111 34.2617 61.7245C34.2314 61.6839 34.1981 61.638 34.1618 61.5868C34.1254 61.5356 34.0922 61.482 34.0619 61.4261L33.0539 59.8115C33.0055 59.8115 32.957 59.8139 32.9086 59.8191C32.8602 59.8191 32.8117 59.8215 32.7633 59.8268C32.6361 59.8368 32.5151 59.8397 32.4 59.8344C32.2911 59.8292 32.1761 59.8292 32.055 59.8344H31.8824V61.2195C31.8824 61.2601 31.8794 61.2984 31.8733 61.3343C31.8733 61.3701 31.8733 61.4084 31.8733 61.449C31.8733 61.4744 31.8703 61.5079 31.8642 61.5485C31.8642 61.5892 31.8612 61.6274 31.8552 61.6633C31.8431 61.7193 31.8158 61.7781 31.7734 61.8393C31.7311 61.8953 31.6735 61.944 31.6009 61.9847C31.4738 62.0512 31.3194 62.0689 31.1378 62.0383C31.0591 62.023 30.9834 61.9976 30.9107 61.9617C30.8866 61.9464 30.8653 61.9287 30.8472 61.9082C30.829 61.8828 30.8139 61.857 30.8018 61.8317C30.7897 61.8063 30.7776 61.7805 30.7654 61.7551C30.7594 61.7245 30.7503 61.6963 30.7382 61.671C30.72 61.6198 30.711 61.5715 30.711 61.5256V57.1791C30.711 57.1485 30.711 57.1179 30.711 57.0873C30.717 57.0514 30.7231 57.0208 30.7291 56.9955C30.7352 56.9395 30.7564 56.8831 30.7927 56.8271C30.8108 56.7659 30.8412 56.7224 30.8835 56.697C30.9198 56.6664 30.9743 56.6411 31.047 56.6205C31.1257 56.5952 31.2377 56.5847 31.383 56.5899C31.6554 56.5952 31.9248 56.5976 32.1912 56.5976C32.4576 56.5976 32.7239 56.6028 32.9903 56.6129C33.1659 56.6229 33.3505 56.6411 33.5442 56.6664C33.744 56.687 33.9287 56.7253 34.0982 56.7812C34.2072 56.8171 34.3071 56.8525 34.3979 56.8883C34.5129 56.9443 34.6037 56.9979 34.6703 57.049C34.8822 57.2121 35.0426 57.4087 35.1516 57.6383C35.2606 57.8678 35.3151 58.0998 35.3151 58.3346C35.3151 58.6101 35.2364 58.8626 35.079 59.0922C34.9276 59.3217 34.6824 59.4925 34.3434 59.6049C34.3313 59.6149 34.3131 59.6226 34.2889 59.6278C34.2707 59.6278 34.2556 59.6302 34.2435 59.6355L35.079 61.0511L35.1607 61.1736C35.1728 61.1941 35.1879 61.2171 35.2061 61.2424C35.2242 61.2678 35.2394 61.2936 35.2515 61.319C35.2697 61.3443 35.2848 61.3725 35.2969 61.4031C35.3151 61.4337 35.3332 61.462 35.3514 61.4873C35.3695 61.5586 35.3847 61.6174 35.3968 61.6633ZM33.1265 58.9391C33.2355 58.9391 33.3385 58.9238 33.4353 58.8932C33.5382 58.8573 33.629 58.8114 33.7077 58.7555C33.7925 58.6995 33.8621 58.6354 33.9166 58.5642C33.9711 58.4877 34.0014 58.4059 34.0074 58.3193C34.0316 58.0644 33.9529 57.8755 33.7713 57.753C33.5897 57.6253 33.3505 57.5565 33.0539 57.5464C32.8783 57.5364 32.6846 57.5311 32.4727 57.5311C32.2669 57.5311 32.0701 57.5311 31.8824 57.5311C31.8885 57.7401 31.8885 57.9544 31.8824 58.1739C31.8824 58.3882 31.8824 58.6431 31.8824 58.9391H33.1265ZM36.411 61.1889L36.4201 60.5843L36.4291 59.4595C36.4352 59.2964 36.4382 59.128 36.4382 58.9544C36.4382 58.7808 36.4382 58.6024 36.4382 58.4188C36.4382 58.2351 36.4382 58.072 36.4382 57.929C36.4382 57.786 36.4443 57.6253 36.4564 57.447V57.4163C36.4625 57.3652 36.4655 57.3145 36.4655 57.2633C36.4715 57.2073 36.4745 57.1509 36.4745 57.095C36.4806 57.0031 36.5139 56.9037 36.5744 56.7965C36.6168 56.7253 36.6804 56.664 36.7651 56.6129C36.862 56.5722 36.9558 56.5517 37.0467 56.5517C37.0951 56.5517 37.1375 56.554 37.1738 56.5593C37.2162 56.5593 37.2555 56.5617 37.2918 56.567C37.3706 56.577 37.4401 56.6076 37.5007 56.6588C37.537 56.6841 37.5703 56.7253 37.6006 56.7812C37.6127 56.8118 37.6218 56.8424 37.6278 56.873C37.6399 56.8984 37.649 56.9266 37.6551 56.9572C37.6612 56.9931 37.6642 57.0261 37.6642 57.0567C37.6702 57.0873 37.6732 57.1179 37.6732 57.1485C37.6732 57.1844 37.6702 57.2174 37.6642 57.248C37.6642 57.2733 37.6642 57.3016 37.6642 57.3322V57.4623L37.6097 61.4337V61.5103C37.6097 61.5256 37.6067 61.5461 37.6006 61.5715C37.6006 61.592 37.5976 61.6174 37.5915 61.648C37.5794 61.6733 37.5673 61.7016 37.5552 61.7322C37.5491 61.7575 37.54 61.7857 37.528 61.8163C37.5098 61.8417 37.4886 61.8675 37.4644 61.8929C37.4462 61.9134 37.422 61.9335 37.3917 61.9541C37.3433 61.9947 37.2646 62.023 37.1556 62.0383C36.9922 62.0689 36.8378 62.056 36.6925 62C36.6198 61.9593 36.5684 61.9082 36.5381 61.847C36.52 61.8317 36.5109 61.8163 36.5109 61.801C36.5048 61.791 36.4988 61.7833 36.4927 61.7781C36.4866 61.7728 36.4806 61.7652 36.4745 61.7551C36.4625 61.7298 36.4534 61.704 36.4473 61.6786C36.4412 61.648 36.4382 61.6174 36.4382 61.5868C36.4321 61.5614 36.4261 61.5356 36.4201 61.5103C36.4201 61.4849 36.417 61.4591 36.411 61.4337C36.4049 61.3931 36.4049 61.3496 36.411 61.3036V61.1889ZM43.4786 60.1788C43.4786 60.3318 43.4695 60.4873 43.4513 60.6456C43.4332 60.7986 43.3968 60.9493 43.3423 61.097C43.2879 61.24 43.2061 61.3778 43.0972 61.5103C42.9882 61.638 42.8399 61.7499 42.6522 61.847C42.5614 61.8981 42.4524 61.9412 42.3253 61.977C42.2042 62.0077 42.074 62.033 41.9348 62.0536C41.8016 62.0789 41.6684 62.0942 41.5352 62.0995C41.402 62.1095 41.2779 62.1124 41.1629 62.1071C40.618 62.0918 40.176 61.9823 39.837 61.7781C39.504 61.5691 39.2468 61.3113 39.0652 61.0052C38.8896 60.6991 38.7746 60.3677 38.7201 60.0104C38.6717 59.6484 38.6626 59.304 38.6928 58.9774C38.711 58.7837 38.7503 58.5742 38.8109 58.3499C38.8775 58.1256 38.9713 57.9085 39.0924 57.6995C39.2195 57.4905 39.3739 57.3016 39.5555 57.1332C39.7432 56.9649 39.9642 56.8372 40.2184 56.7506C40.4546 56.6688 40.7118 56.6181 40.9903 56.5976C41.2749 56.5722 41.5534 56.5799 41.8258 56.6205C42.1043 56.6612 42.3616 56.7353 42.5977 56.8424C42.8399 56.9496 43.0306 57.0926 43.1698 57.271C43.2667 57.4034 43.3423 57.5641 43.3968 57.753C43.4513 57.942 43.4604 58.1227 43.4241 58.2963C43.3938 58.4494 43.3303 58.5565 43.2334 58.6177C43.1365 58.6737 43.0306 58.6966 42.9155 58.6866C42.8005 58.6713 42.6885 58.6307 42.5795 58.5642C42.4766 58.4929 42.407 58.4035 42.3707 58.2963C42.3283 58.1792 42.2768 58.072 42.2163 57.975C42.1557 57.8731 42.0619 57.7889 41.9348 57.7224C41.7895 57.6459 41.6351 57.6024 41.4716 57.5923C41.3143 57.5823 41.1599 57.5976 41.0085 57.6383C40.8632 57.6789 40.724 57.743 40.5908 57.8296C40.4636 57.9161 40.3577 58.0156 40.2729 58.128C40.17 58.2557 40.0913 58.3958 40.0368 58.5489C39.9823 58.6966 39.943 58.8526 39.9188 59.0157C39.8945 59.174 39.8855 59.3346 39.8915 59.4977C39.9036 59.656 39.9279 59.8091 39.9642 59.9569C40.0308 60.207 40.1337 60.4413 40.2729 60.6609C40.3274 60.7426 40.4001 60.8163 40.4909 60.8828C40.5878 60.944 40.6937 60.9952 40.8087 61.0358C40.9238 61.0717 41.0448 61.0946 41.172 61.1047C41.2991 61.1147 41.4202 61.1071 41.5352 61.0817C41.6987 61.0459 41.8319 61 41.9348 60.944C42.0377 60.8828 42.1194 60.8115 42.18 60.7297C42.2405 60.648 42.2799 60.559 42.298 60.4619C42.3223 60.3648 42.3343 60.263 42.3343 60.1558V60.1482C42.2556 60.1482 42.186 60.1482 42.1255 60.1482C42.0649 60.1429 42.0195 60.1405 41.9893 60.1405C41.8561 60.1405 41.7259 60.12 41.5988 60.0793C41.4898 60.0487 41.4081 60.0004 41.3536 59.9339C41.293 59.878 41.2628 59.8091 41.2628 59.7273C41.2628 59.6967 41.2628 59.6685 41.2628 59.6431C41.2688 59.6125 41.2749 59.5819 41.2809 59.5513C41.2991 59.5106 41.3384 59.4595 41.399 59.3983C41.4353 59.3729 41.4928 59.3523 41.5715 59.337C41.6079 59.327 41.6442 59.3193 41.6805 59.3141C41.7168 59.304 41.7592 59.2964 41.8076 59.2911C41.844 59.2859 41.8833 59.2835 41.9257 59.2835C41.9681 59.2835 42.0104 59.2835 42.0528 59.2835H42.8792C42.9458 59.2782 43.0215 59.2859 43.1062 59.3064C43.197 59.3217 43.2667 59.3471 43.3151 59.383C43.3333 59.4035 43.3514 59.4236 43.3696 59.4442C43.3877 59.4647 43.4029 59.4877 43.415 59.513C43.4392 59.569 43.4543 59.6254 43.4604 59.6814C43.4665 59.712 43.4695 59.745 43.4695 59.7809C43.4755 59.8115 43.4786 59.8397 43.4786 59.865V60.1788ZM45.8158 56.7659C46.2214 56.6382 46.5877 56.5823 46.9146 56.5976C47.2476 56.6129 47.5442 56.6841 47.8046 56.8118C48.0649 56.9343 48.2859 57.1002 48.4675 57.3092C48.6552 57.5182 48.8065 57.753 48.9215 58.0132C49.0123 58.2069 49.082 58.4111 49.1304 58.6254C49.1788 58.8397 49.2061 59.0539 49.2121 59.2682C49.2242 59.4772 49.2151 59.6838 49.1849 59.888C49.1606 60.0922 49.1183 60.2806 49.0577 60.4543C49.0214 60.5714 48.979 60.6786 48.9306 60.7757C48.8822 60.8727 48.8246 60.9693 48.7581 61.0664C48.6067 61.286 48.41 61.4643 48.1678 61.6021C47.9317 61.7398 47.6714 61.8369 47.3868 61.8929C47.1931 61.9335 46.9933 61.9541 46.7875 61.9541C46.5816 61.9488 46.3788 61.9259 46.179 61.8852C45.9793 61.8393 45.7856 61.7757 45.5979 61.6939C45.4162 61.6073 45.2498 61.5002 45.0984 61.3725C44.9107 61.2195 44.7563 61.0435 44.6353 60.8445C44.5142 60.6403 44.4203 60.4289 44.3537 60.2094C44.2872 59.9851 44.2448 59.7603 44.2266 59.536C44.2084 59.3117 44.2084 59.0974 44.2266 58.8932C44.2448 58.7043 44.2872 58.503 44.3537 58.2887C44.4264 58.0744 44.5293 57.8678 44.6625 57.6689C44.7957 57.4699 44.9561 57.2915 45.1438 57.1332C45.3375 56.9701 45.5615 56.8477 45.8158 56.7659ZM47.9408 60.041C48.0134 59.8014 48.0437 59.5307 48.0316 59.2299C48.0195 58.9291 47.9619 58.646 47.859 58.3805C47.7925 58.2174 47.7077 58.0744 47.6048 57.952C47.5079 57.8243 47.3898 57.7277 47.2506 57.6612C47.1174 57.5947 46.96 57.5617 46.7784 57.5617C46.5968 57.5617 46.394 57.6077 46.17 57.6995C46.0368 57.7554 45.9218 57.832 45.8249 57.929C45.7341 58.0261 45.6584 58.1357 45.5979 58.2581C45.5434 58.3805 45.498 58.5082 45.4616 58.6407C45.4314 58.7732 45.4132 58.9009 45.4072 59.0233C45.3951 59.1558 45.392 59.2964 45.3981 59.4442C45.4041 59.5872 45.4223 59.7326 45.4526 59.8803C45.4889 60.0233 45.5373 60.1611 45.5979 60.2936C45.6584 60.4213 45.7401 60.536 45.843 60.6379C46.0004 60.791 46.1821 60.8981 46.3879 60.9593C46.5998 61.0153 46.8086 61.0229 47.0145 60.9823C47.3475 60.921 47.6018 60.735 47.7773 60.4237C47.85 60.3113 47.9045 60.184 47.9408 60.041Z" fill="white"/>
</svg>
