<svg width="75" height="75" viewBox="0 0 75 75" fill="none" xmlns="http://www.w3.org/2000/svg">
<g clip-path="url(#clip0)">
<path d="M66.8723 40.4881L61.1673 38.6451H66.183C67.1867 38.6451 67.9994 38.0047 67.9994 37.2145C67.9994 36.4247 67.1867 35.7838 66.183 35.7838H61.1683L66.8723 33.9415C67.8006 33.6417 68.2441 32.806 67.8637 32.075C67.4833 31.3441 66.4221 30.995 65.4938 31.2941L58.2682 33.6286C58.2696 33.547 58.2719 33.4658 58.2719 33.3838V18.0606C58.2719 17.533 57.903 17.0483 57.3126 16.7991C56.7218 16.5502 56.0052 16.5774 55.448 16.8703L49.6497 19.9148C46.0027 17.7898 41.5619 16.63 37.0002 16.63C32.4383 16.63 27.9975 17.7898 24.3506 19.9148L18.5523 16.8703C17.995 16.5774 17.2784 16.5502 16.6876 16.7995C16.0973 17.048 15.7283 17.533 15.7283 18.0606V33.3838C15.7283 33.4654 15.7306 33.5466 15.7326 33.6282L8.50619 31.2941C7.57812 30.9939 6.51713 31.3437 6.13635 32.0747C5.75556 32.8056 6.19973 33.6412 7.1278 33.9412L12.8329 35.7838H7.817C6.81371 35.7838 6.00059 36.4242 6.00059 37.2145C6.00059 38.0043 6.81371 38.6451 7.817 38.6451H12.8329L7.1278 40.4881C6.19973 40.7877 5.75556 41.6233 6.13635 42.3543C6.42489 42.9079 7.10273 43.2428 7.81795 43.2428C8.04736 43.2428 8.28056 43.2082 8.50619 43.1351L17.5736 40.2065C20.897 46.0534 28.3542 50.1377 37.0002 50.1377C45.646 50.1377 53.1032 46.0537 56.4267 40.2065L65.4938 43.1351C65.7194 43.2082 65.9529 43.2428 66.1825 43.2428C66.8974 43.2428 67.5761 42.9079 67.8637 42.3543C68.2441 41.6233 67.8006 40.788 66.8723 40.4881ZM43.4985 28.5413C43.8362 28.275 44.3045 28.1223 44.7818 28.1223C45.2605 28.1223 45.7288 28.275 46.0666 28.5413C46.4043 28.8073 46.5982 29.1762 46.5982 29.5529C46.5982 29.9298 46.4043 30.2987 46.0666 30.5647C45.7288 30.8311 45.2605 30.9834 44.7818 30.9834C44.3045 30.9834 43.8362 30.8311 43.4985 30.5647C43.1608 30.2979 42.9654 29.9298 42.9654 29.5529C42.9654 29.1762 43.1608 28.8081 43.4985 28.5413ZM27.9332 28.5413C28.2709 28.275 28.7398 28.1223 29.2179 28.1223C29.6962 28.1223 30.164 28.275 30.5027 28.5413C30.8404 28.8081 31.0343 29.1762 31.0343 29.5529C31.0343 29.9298 30.8404 30.2979 30.5027 30.5647C30.1635 30.8311 29.6962 30.9834 29.2179 30.9834C28.7398 30.9834 28.2709 30.8311 27.9332 30.5647C27.5955 30.2987 27.4016 29.9298 27.4016 29.5529C27.4016 29.1762 27.5955 28.8073 27.9332 28.5413ZM41.8643 42.4761C39.949 42.4761 38.2196 41.8382 37.0002 40.8178C35.7811 41.8379 34.0518 42.4761 32.1365 42.4761C28.4531 42.4761 25.456 40.1159 25.456 37.2145C25.456 36.4247 26.2691 35.7838 27.2724 35.7838C28.2757 35.7838 29.0888 36.4247 29.0888 37.2145C29.0888 38.5382 30.4559 39.6149 32.1365 39.6149C33.5239 39.6149 34.697 38.8805 35.064 37.8791C34.9117 37.7431 34.7717 37.5911 34.6482 37.4231L33.6748 36.0953C33.1053 35.3185 33.0665 34.4803 33.5679 33.7962C34.0692 33.1119 35.0105 32.7192 36.1497 32.7192H38.0956C39.2347 32.7192 40.1755 33.1119 40.6769 33.7959C41.1788 34.4803 41.1395 35.3181 40.57 36.0949L39.597 37.4228C39.4258 37.6567 39.2233 37.8597 38.9982 38.0307C39.4229 38.9535 40.5473 39.6149 41.8637 39.6149C43.5444 39.6149 44.9114 38.5382 44.9114 37.2145C44.9114 36.4242 45.7245 35.7838 46.7278 35.7838C47.7311 35.7838 48.5442 36.4242 48.5442 37.2145C48.5442 40.1159 45.5476 42.4761 41.8643 42.4761Z" fill="#FAFAFA"/>
<path d="M27.0249 59.5923C27.0368 59.6177 27.0428 59.6559 27.0428 59.7071C27.0428 59.753 27.0428 59.7913 27.0428 59.8219C27.0428 59.8626 27.0339 59.9008 27.016 59.9367C26.9981 59.9726 26.9743 60.0056 26.9445 60.0362C26.8909 60.0974 26.8134 60.1433 26.7121 60.1739C26.5691 60.2146 26.4351 60.2351 26.31 60.2351C26.2444 60.2404 26.1759 60.2428 26.1044 60.2428C26.0329 60.2428 25.9614 60.248 25.8899 60.2581H25.8542C25.3954 60.2633 24.9217 60.2633 24.4332 60.2581C24.314 60.2528 24.18 60.2528 24.0311 60.2581C23.8821 60.2681 23.7361 60.2657 23.5931 60.2504C23.4502 60.2404 23.3191 60.2122 23.1999 60.1662C23.0867 60.1151 23.0063 60.0362 22.9586 59.929C22.9467 59.9037 22.9377 59.8807 22.9318 59.8602C22.9258 59.8348 22.9229 59.809 22.9229 59.7836C22.899 59.61 22.8901 59.4393 22.8961 59.2709C22.902 59.1026 22.905 58.9366 22.905 58.7736L22.9229 57.664V56.6386C22.9229 56.4549 22.9229 56.2917 22.9229 56.1489C22.9288 56.006 22.9348 55.8479 22.9407 55.6744V55.6362C22.9467 55.5851 22.9497 55.5342 22.9497 55.4831C22.9556 55.4321 22.9586 55.3811 22.9586 55.3301C22.9705 55.2128 23.0033 55.1133 23.0569 55.0316C23.0927 54.9551 23.1552 54.8939 23.2446 54.848C23.322 54.8021 23.4144 54.7791 23.5216 54.7791C23.5633 54.7791 23.6021 54.7817 23.6378 54.7868C23.6795 54.7868 23.7183 54.7893 23.754 54.7944C23.7898 54.7995 23.8225 54.8097 23.8523 54.825C23.8881 54.8403 23.9238 54.8608 23.9596 54.8863C23.9953 54.922 24.028 54.9653 24.0579 55.0163C24.0817 55.0724 24.0966 55.1286 24.1025 55.1847C24.1085 55.2204 24.1144 55.2536 24.1204 55.2842C24.1263 55.3148 24.1294 55.3454 24.1294 55.376C24.1174 55.4066 24.1115 55.4372 24.1115 55.4678C24.1115 55.4984 24.1115 55.5265 24.1115 55.552V55.6897L24.0757 59.2939L25.8452 59.3092H26.2653C26.301 59.3092 26.3397 59.3116 26.3815 59.3169C26.4231 59.3169 26.4649 59.3192 26.5066 59.3245C26.5542 59.3298 26.596 59.3346 26.6317 59.3398C26.6674 59.3451 26.7032 59.3527 26.7389 59.3628C26.8045 59.3781 26.8581 59.4034 26.8998 59.4393C26.9653 59.4905 27.0071 59.5412 27.0249 59.5923ZM28.0343 59.3628L28.0432 58.7582L28.0522 57.6334C28.0581 57.4703 28.0611 57.3019 28.0611 57.1283C28.0611 56.9547 28.0611 56.7763 28.0611 56.5927C28.0611 56.409 28.0611 56.2458 28.0611 56.1029C28.0611 55.9601 28.0671 55.7994 28.079 55.6209V55.5903C28.085 55.5392 28.0879 55.4882 28.0879 55.4372C28.0939 55.3811 28.0969 55.325 28.0969 55.2689C28.1028 55.177 28.1356 55.0776 28.1952 54.9704C28.2369 54.899 28.2994 54.8378 28.3828 54.7868C28.4782 54.746 28.5705 54.7256 28.6599 54.7256C28.7075 54.7256 28.7493 54.7281 28.785 54.7332C28.8267 54.7332 28.8654 54.7357 28.9012 54.7409C28.9787 54.751 29.0471 54.7817 29.1067 54.8327C29.1425 54.8582 29.1753 54.899 29.205 54.9551C29.2169 54.9857 29.2259 55.0163 29.2318 55.0469C29.2437 55.0724 29.2527 55.1005 29.2587 55.1311C29.2646 55.1668 29.2676 55.2 29.2676 55.2306C29.2736 55.2612 29.2765 55.2918 29.2765 55.3224C29.2765 55.3582 29.2736 55.3913 29.2676 55.4219C29.2676 55.4474 29.2676 55.4755 29.2676 55.5061V55.6362L29.214 59.6076V59.6842C29.214 59.6995 29.211 59.72 29.205 59.7454C29.205 59.7659 29.2021 59.7913 29.1961 59.8219C29.1842 59.8472 29.1722 59.8755 29.1604 59.9061C29.1544 59.9314 29.1454 59.9596 29.1335 59.9902C29.1157 60.0156 29.0948 60.0414 29.071 60.0668C29.0531 60.0873 29.0293 60.1074 28.9995 60.128C28.9518 60.1686 28.8744 60.1969 28.7671 60.2122C28.6063 60.2428 28.4543 60.2299 28.3113 60.1739C28.2398 60.1332 28.1892 60.0821 28.1594 60.0209C28.1415 60.0056 28.1326 59.9902 28.1326 59.9749C28.1266 59.9649 28.1207 59.9573 28.1147 59.952C28.1088 59.9467 28.1028 59.9391 28.0969 59.929C28.085 59.9037 28.076 59.8779 28.07 59.8525C28.0641 59.8219 28.0611 59.7913 28.0611 59.7607C28.0551 59.7353 28.0492 59.7095 28.0432 59.6842C28.0432 59.6588 28.0403 59.633 28.0343 59.6076C28.0283 59.567 28.0283 59.5235 28.0343 59.4776V59.3628ZM34.8374 54.9934C34.9029 55.0597 34.9357 55.1286 34.9357 55.2C34.9357 55.2306 34.9327 55.2637 34.9268 55.2995C34.9268 55.3301 34.9238 55.3582 34.9179 55.3836C34.9 55.4397 34.8612 55.4933 34.8016 55.5443C34.754 55.5749 34.6885 55.5979 34.6051 55.6132C34.5633 55.6234 34.5216 55.631 34.4799 55.6362C34.4382 55.6413 34.3935 55.6489 34.3459 55.6591C34.3042 55.6642 34.2624 55.6668 34.2208 55.6668C34.1791 55.6668 34.1344 55.6668 34.0867 55.6668H33.6309C33.5237 55.6719 33.4165 55.6744 33.3092 55.6744C33.2079 55.6744 33.1066 55.6744 33.0054 55.6744C33.0113 55.8326 33.0143 56.0035 33.0143 56.1871C33.0143 56.3657 33.0113 56.5748 33.0054 56.8146C33.0054 57.0542 33.0023 57.3326 32.9964 57.6487C32.9964 57.9648 32.9964 58.3321 32.9964 58.7506V59.3322C32.9964 59.3833 32.9994 59.4216 33.0054 59.4469C33.0054 59.4675 33.0054 59.4876 33.0054 59.5082C33.0054 59.5235 33.0023 59.544 32.9964 59.5694C32.9845 59.6153 32.9755 59.6689 32.9696 59.7301C32.9696 59.7554 32.9666 59.7813 32.9607 59.8066C32.9547 59.8272 32.9458 59.8501 32.9339 59.8755C32.91 59.896 32.8981 59.9113 32.8981 59.9214L32.8713 59.9673C32.8415 60.0185 32.7849 60.0668 32.7015 60.1127C32.5704 60.1686 32.4245 60.1816 32.2636 60.1509C32.1623 60.1409 32.0849 60.1179 32.0312 60.0821C31.9776 60.0362 31.9388 59.9902 31.915 59.9443C31.8793 59.8884 31.8584 59.8348 31.8525 59.7836C31.8346 59.7377 31.8257 59.6894 31.8257 59.6382V55.705C31.7899 55.705 31.7154 55.705 31.6023 55.705C31.489 55.705 31.3669 55.705 31.2358 55.705C31.1107 55.6999 30.9915 55.6948 30.8784 55.6897C30.7651 55.6846 30.6877 55.6795 30.646 55.6744C30.6103 55.6693 30.5536 55.6617 30.4762 55.6515C30.4047 55.6413 30.3451 55.631 30.2975 55.6209C30.1723 55.5903 30.074 55.5418 30.0025 55.4755C29.937 55.4091 29.9042 55.3352 29.9042 55.2536C29.9042 55.2229 29.9042 55.1923 29.9042 55.1617C29.9042 55.1311 29.9102 55.103 29.9221 55.0776C29.94 55.0163 29.9876 54.9653 30.0651 54.9245C30.0889 54.9092 30.1246 54.8914 30.1723 54.8709C30.226 54.8455 30.2766 54.8276 30.3243 54.8174C30.3958 54.797 30.4851 54.7817 30.5924 54.7715C30.64 54.7664 30.6877 54.7638 30.7354 54.7638C30.783 54.7638 30.8337 54.7638 30.8873 54.7638C31.0958 54.7638 31.2924 54.7638 31.4771 54.7638C31.6678 54.7638 31.8673 54.7613 32.0759 54.7562C32.4214 54.751 32.7641 54.751 33.1037 54.7562C33.4492 54.7562 33.7918 54.7613 34.1314 54.7715C34.2088 54.7766 34.2833 54.7842 34.3548 54.7944C34.4263 54.8046 34.4978 54.8225 34.5693 54.848C34.6229 54.8633 34.6735 54.8837 34.7212 54.9092C34.7689 54.9296 34.8076 54.9577 34.8374 54.9934ZM35.5661 59.3628L35.5751 58.7582L35.584 57.6334C35.5899 57.4703 35.5929 57.3019 35.5929 57.1283C35.5929 56.9547 35.5929 56.7763 35.5929 56.5927C35.5929 56.409 35.5929 56.2458 35.5929 56.1029C35.5929 55.9601 35.5989 55.7994 35.6108 55.6209V55.5903C35.6167 55.5392 35.6197 55.4882 35.6197 55.4372C35.6257 55.3811 35.6287 55.325 35.6287 55.2689C35.6346 55.177 35.6674 55.0776 35.727 54.9704C35.7687 54.899 35.8312 54.8378 35.9147 54.7868C36.01 54.746 36.1023 54.7256 36.1917 54.7256C36.2394 54.7256 36.2811 54.7281 36.3168 54.7332C36.3585 54.7332 36.3973 54.7357 36.433 54.7409C36.5104 54.751 36.579 54.7817 36.6386 54.8327C36.6743 54.8582 36.707 54.899 36.7369 54.9551C36.7488 54.9857 36.7577 55.0163 36.7637 55.0469C36.7756 55.0724 36.7845 55.1005 36.7905 55.1311C36.7964 55.1668 36.7994 55.2 36.7994 55.2306C36.8053 55.2612 36.8084 55.2918 36.8084 55.3224C36.8084 55.3582 36.8053 55.3913 36.7994 55.4219C36.7994 55.4474 36.7994 55.4755 36.7994 55.5061V55.6362L36.7458 59.6076V59.6842C36.7458 59.6995 36.7428 59.72 36.7369 59.7454C36.7369 59.7659 36.7338 59.7913 36.7279 59.8219C36.716 59.8472 36.7041 59.8755 36.6922 59.9061C36.6862 59.9314 36.6773 59.9596 36.6654 59.9902C36.6475 60.0156 36.6266 60.0414 36.6028 60.0668C36.5849 60.0873 36.5611 60.1074 36.5313 60.128C36.4836 60.1686 36.4062 60.1969 36.299 60.2122C36.1381 60.2428 35.9862 60.2299 35.8432 60.1739C35.7717 60.1332 35.721 60.0821 35.6912 60.0209C35.6734 60.0056 35.6644 59.9902 35.6644 59.9749C35.6585 59.9649 35.6525 59.9573 35.6466 59.952C35.6406 59.9467 35.6346 59.9391 35.6287 59.929C35.6167 59.9037 35.6078 59.8779 35.6019 59.8525C35.5959 59.8219 35.5929 59.7913 35.5929 59.7607C35.587 59.7353 35.581 59.7095 35.5751 59.6842C35.5751 59.6588 35.572 59.633 35.5661 59.6076C35.5601 59.567 35.5601 59.5235 35.5661 59.4776V59.3628ZM39.0182 55.6744L39.0004 56.8758H39.3578C39.6021 56.8706 39.8195 56.8682 40.0102 56.8682C40.2009 56.8682 40.4124 56.8706 40.6448 56.8758H40.6894C40.7609 56.8758 40.8294 56.8782 40.895 56.8835C40.9665 56.8835 41.035 56.8835 41.1005 56.8835C41.172 56.8887 41.2405 56.8988 41.3061 56.9141C41.3716 56.9241 41.4371 56.937 41.5027 56.9523C41.604 56.9829 41.6874 57.0289 41.7529 57.0901C41.8125 57.1566 41.8423 57.2302 41.8423 57.312C41.8423 57.3373 41.8423 57.3679 41.8423 57.4038C41.8423 57.4344 41.8363 57.4626 41.8244 57.488C41.8125 57.5439 41.7738 57.5951 41.7083 57.641C41.6784 57.6769 41.6218 57.7022 41.5385 57.7176C41.461 57.7381 41.3835 57.7506 41.3061 57.7558C41.2226 57.7711 41.1393 57.7788 41.0559 57.7788H40.6358L38.9825 57.7864L38.9646 59.2862L40.7431 59.3016H41.1631C41.2107 59.3016 41.2554 59.3016 41.2972 59.3016C41.3388 59.3016 41.3776 59.3039 41.4133 59.3092C41.461 59.3193 41.5027 59.3269 41.5385 59.3322C41.5801 59.3322 41.6189 59.3374 41.6546 59.3475C41.7261 59.368 41.7857 59.3958 41.8334 59.4316C41.8929 59.4828 41.9317 59.5364 41.9495 59.5923C41.9555 59.6177 41.9585 59.6459 41.9585 59.6765C41.9644 59.7019 41.9644 59.7301 41.9585 59.7607C41.9585 59.8425 41.9287 59.9161 41.8691 59.9826C41.7976 60.0539 41.7142 60.0998 41.6189 60.1203C41.4938 60.1662 41.3567 60.1892 41.2078 60.1892C41.1422 60.1945 41.0737 60.1969 41.0022 60.1969C40.9307 60.1969 40.8622 60.1993 40.7967 60.2045H40.7431C40.2783 60.2146 39.7957 60.2146 39.2953 60.2045C39.1761 60.2045 39.0808 60.2021 39.0093 60.1969C38.9378 60.1969 38.8722 60.1969 38.8127 60.1969C38.7591 60.1969 38.7024 60.1969 38.6429 60.1969C38.5833 60.1969 38.5058 60.1969 38.4105 60.1969C38.2735 60.2069 38.1603 60.1868 38.0709 60.1356C38.0053 60.0998 37.9547 60.0515 37.919 59.9902C37.9011 59.9749 37.8922 59.9596 37.8922 59.9443C37.8862 59.9343 37.8802 59.9266 37.8743 59.9214C37.8683 59.9161 37.8624 59.9085 37.8564 59.8984C37.8445 59.8731 37.8355 59.8472 37.8296 59.8219C37.8236 59.7913 37.8207 59.7631 37.8207 59.7377C37.8147 59.7124 37.8087 59.6866 37.8028 59.6612C37.8028 59.6359 37.7998 59.61 37.7939 59.5847V59.4622C37.7939 59.4417 37.7939 59.4216 37.7939 59.401C37.7998 59.3805 37.8028 59.3604 37.8028 59.3398V58.7429L37.8207 57.641V56.6233C37.8207 56.4396 37.8207 56.2764 37.8207 56.1336C37.8266 55.9907 37.8326 55.8351 37.8386 55.6668V55.6285C37.8445 55.5724 37.8475 55.5214 37.8475 55.4755C37.8534 55.4244 37.8564 55.3735 37.8564 55.3224C37.8624 55.2204 37.8951 55.1209 37.9547 55.024C37.9785 54.9832 38.0024 54.9475 38.0262 54.9169C38.056 54.8863 38.0947 54.8608 38.1424 54.8403C38.2318 54.7944 38.3241 54.7715 38.4195 54.7715C38.4671 54.7715 38.5029 54.774 38.5267 54.7791V54.7715C38.6339 54.7715 38.7203 54.7715 38.7859 54.7715C38.8514 54.7715 38.914 54.7715 38.9736 54.7715C39.0391 54.7715 39.1076 54.7715 39.1791 54.7715C39.2506 54.7664 39.3489 54.7638 39.474 54.7638C39.7123 54.7587 39.9387 54.7562 40.1532 54.7562C40.3677 54.7562 40.5881 54.7587 40.8146 54.7638H40.8503C40.9158 54.7689 40.9844 54.7715 41.0559 54.7715C41.1274 54.7715 41.1958 54.774 41.2614 54.7791C41.3269 54.7791 41.3924 54.7868 41.458 54.8021C41.5235 54.8123 41.5891 54.8276 41.6546 54.848C41.7559 54.8735 41.8393 54.9169 41.9048 54.9781C41.9585 55.0495 41.9853 55.1209 41.9853 55.1923C41.9853 55.2229 41.9853 55.2536 41.9853 55.2842C41.9853 55.3097 41.9793 55.3352 41.9674 55.3607C41.9615 55.4117 41.9257 55.4653 41.8602 55.5214C41.8363 55.5316 41.8095 55.5443 41.7797 55.5596C41.7559 55.5749 41.7261 55.5877 41.6904 55.5979C41.6546 55.6081 41.6159 55.6157 41.5742 55.6209C41.5385 55.6209 41.5027 55.6234 41.467 55.6285C41.4193 55.6387 41.3746 55.6438 41.3329 55.6438C41.2972 55.6438 41.2554 55.6438 41.2078 55.6438H40.8056L39.0182 55.6515V55.6744ZM47.3102 59.8372C47.3161 59.8884 47.3101 59.9367 47.2923 59.9826C47.2804 60.0132 47.2625 60.0386 47.2387 60.0591C47.2208 60.0797 47.1969 60.0998 47.1672 60.1203C47.1135 60.1509 47.048 60.1792 46.9705 60.2045C46.9229 60.2146 46.8752 60.2222 46.8276 60.2275C46.7858 60.2375 46.7411 60.2375 46.6935 60.2275C46.5982 60.2222 46.5148 60.1916 46.4433 60.1356C46.342 60.0644 46.2586 59.985 46.193 59.8984C46.1633 59.8578 46.1305 59.8119 46.0947 59.7607C46.059 59.7095 46.0262 59.6559 45.9964 59.6L45.0044 57.9854C44.9568 57.9854 44.9091 57.9878 44.8614 57.993C44.8138 57.993 44.7661 57.9954 44.7184 58.0007C44.5933 58.0107 44.4742 58.0136 44.361 58.0083C44.2537 58.0031 44.1405 58.0031 44.0214 58.0083H43.8516V59.3934C43.8516 59.434 43.8486 59.4723 43.8426 59.5082C43.8426 59.544 43.8426 59.5823 43.8426 59.6229C43.8426 59.6483 43.8397 59.6818 43.8337 59.7224C43.8337 59.7631 43.8307 59.8013 43.8247 59.8372C43.8128 59.8932 43.786 59.952 43.7443 60.0132C43.7026 60.0692 43.646 60.1179 43.5745 60.1586C43.4494 60.2251 43.2975 60.2428 43.1187 60.2122C43.0413 60.1969 42.9668 60.1715 42.8953 60.1356C42.8715 60.1203 42.8506 60.1026 42.8327 60.0821C42.8149 60.0567 42.8 60.0309 42.7881 60.0056C42.7762 59.9802 42.7642 59.9544 42.7523 59.929C42.7463 59.8984 42.7374 59.8702 42.7255 59.8449C42.7076 59.7937 42.6987 59.7454 42.6987 59.6995V55.353C42.6987 55.3224 42.6987 55.2918 42.6987 55.2612C42.7047 55.2255 42.7106 55.1949 42.7166 55.1694C42.7225 55.1133 42.7434 55.0571 42.7791 55.001C42.797 54.9398 42.8268 54.8964 42.8685 54.8709C42.9042 54.8403 42.9579 54.8148 43.0294 54.7944C43.1068 54.7689 43.217 54.7587 43.36 54.7638C43.6281 54.7689 43.8933 54.7715 44.1554 54.7715C44.4175 54.7715 44.6797 54.7766 44.9419 54.7868C45.1146 54.797 45.2964 54.8148 45.487 54.8403C45.6836 54.8608 45.8653 54.899 46.0322 54.9551C46.1394 54.9908 46.2377 55.0265 46.3271 55.0622C46.4403 55.1183 46.5297 55.1719 46.5952 55.2229C46.8037 55.3862 46.9616 55.5826 47.0689 55.8122C47.1761 56.0417 47.2297 56.2738 47.2297 56.5085C47.2297 56.784 47.1522 57.0365 46.9974 57.2661C46.8484 57.4956 46.6071 57.6664 46.2735 57.7788C46.2616 57.7888 46.2437 57.7965 46.2198 57.8017C46.202 57.8017 46.1871 57.8041 46.1752 57.8094L46.9974 59.225L47.0778 59.3475C47.0897 59.368 47.1046 59.391 47.1225 59.4163C47.1403 59.4417 47.1553 59.4675 47.1672 59.4929C47.185 59.5182 47.1999 59.5464 47.2118 59.577C47.2297 59.6076 47.2476 59.6359 47.2655 59.6612C47.2833 59.7325 47.2983 59.7913 47.3102 59.8372ZM45.0759 57.113C45.1832 57.113 45.2844 57.0977 45.3798 57.0671C45.481 57.0312 45.5704 56.9853 45.6479 56.9294C45.7313 56.8734 45.7998 56.8095 45.8534 56.7381C45.9071 56.6616 45.9368 56.5799 45.9428 56.4932C45.9666 56.2382 45.8892 56.0494 45.7104 55.9269C45.5317 55.7994 45.2964 55.7305 45.0044 55.7203C44.8317 55.7102 44.641 55.705 44.4325 55.705C44.2299 55.705 44.0363 55.705 43.8516 55.705C43.8575 55.9142 43.8575 56.1284 43.8516 56.3478C43.8516 56.5621 43.8516 56.8171 43.8516 57.113H45.0759ZM49.2556 55.6744L49.2377 56.8758H49.5952C49.8394 56.8706 50.0569 56.8682 50.2476 56.8682C50.4382 56.8682 50.6497 56.8706 50.8821 56.8758H50.9268C50.9983 56.8758 51.0667 56.8782 51.1323 56.8835C51.2038 56.8835 51.2723 56.8835 51.3379 56.8835C51.4094 56.8887 51.4778 56.8988 51.5434 56.9141C51.6089 56.9241 51.6744 56.937 51.74 56.9523C51.8413 56.9829 51.9247 57.0289 51.9903 57.0901C52.0498 57.1566 52.0796 57.2302 52.0796 57.312C52.0796 57.3373 52.0796 57.3679 52.0796 57.4038C52.0796 57.4344 52.0736 57.4626 52.0618 57.488C52.0498 57.5439 52.0111 57.5951 51.9456 57.641C51.9157 57.6769 51.8592 57.7022 51.7758 57.7176C51.6983 57.7381 51.6208 57.7506 51.5434 57.7558C51.46 57.7711 51.3766 57.7788 51.2932 57.7788H50.8731L49.2198 57.7864L49.2019 59.2862L50.9804 59.3016H51.4004C51.4481 59.3016 51.4927 59.3016 51.5345 59.3016C51.5761 59.3016 51.6149 59.3039 51.6507 59.3092C51.6983 59.3193 51.74 59.3269 51.7758 59.3322C51.8174 59.3322 51.8562 59.3374 51.8919 59.3475C51.9634 59.368 52.023 59.3958 52.0707 59.4316C52.1302 59.4828 52.169 59.5364 52.1869 59.5923C52.1928 59.6177 52.1958 59.6459 52.1958 59.6765C52.2017 59.7019 52.2017 59.7301 52.1958 59.7607C52.1958 59.8425 52.166 59.9161 52.1064 59.9826C52.0349 60.0539 51.9515 60.0998 51.8562 60.1203C51.7311 60.1662 51.594 60.1892 51.4451 60.1892C51.3795 60.1945 51.311 60.1969 51.2396 60.1969C51.1681 60.1969 51.0995 60.1993 51.034 60.2045H50.9804C50.5157 60.2146 50.0331 60.2146 49.5326 60.2045C49.4134 60.2045 49.3181 60.2021 49.2466 60.1969C49.1751 60.1969 49.1095 60.1969 49.05 60.1969C48.9964 60.1969 48.9397 60.1969 48.8802 60.1969C48.8206 60.1969 48.7431 60.1969 48.6478 60.1969C48.5108 60.2069 48.3976 60.1868 48.3082 60.1356C48.2427 60.0998 48.1921 60.0515 48.1563 59.9902C48.1384 59.9749 48.1295 59.9596 48.1295 59.9443C48.1235 59.9343 48.1175 59.9266 48.1116 59.9214C48.1056 59.9161 48.0997 59.9085 48.0937 59.8984C48.0818 59.8731 48.0729 59.8472 48.0669 59.8219C48.061 59.7913 48.058 59.7631 48.058 59.7377C48.052 59.7124 48.0461 59.6866 48.0401 59.6612C48.0401 59.6359 48.0371 59.61 48.0312 59.5847V59.4622C48.0312 59.4417 48.0312 59.4216 48.0312 59.401C48.0371 59.3805 48.0401 59.3604 48.0401 59.3398V58.7429L48.058 57.641V56.6233C48.058 56.4396 48.058 56.2764 48.058 56.1336C48.0639 55.9907 48.0699 55.8351 48.0759 55.6668V55.6285C48.0818 55.5724 48.0848 55.5214 48.0848 55.4755C48.0907 55.4244 48.0937 55.3735 48.0937 55.3224C48.0997 55.2204 48.1325 55.1209 48.1921 55.024C48.2159 54.9832 48.2397 54.9475 48.2636 54.9169C48.2933 54.8863 48.332 54.8608 48.3797 54.8403C48.4691 54.7944 48.5614 54.7715 48.6568 54.7715C48.7044 54.7715 48.7402 54.774 48.764 54.7791V54.7715C48.8713 54.7715 48.9576 54.7715 49.0232 54.7715C49.0887 54.7715 49.1513 54.7715 49.2109 54.7715C49.2764 54.7715 49.3449 54.7715 49.4164 54.7715C49.4879 54.7664 49.5862 54.7638 49.7113 54.7638C49.9496 54.7587 50.1761 54.7562 50.3905 54.7562C50.605 54.7562 50.8254 54.7587 51.0519 54.7638H51.0876C51.1531 54.7689 51.2217 54.7715 51.2932 54.7715C51.3647 54.7715 51.4331 54.774 51.4987 54.7791C51.5642 54.7791 51.6298 54.7868 51.6953 54.8021C51.7609 54.8123 51.8264 54.8276 51.8919 54.848C51.9932 54.8735 52.0766 54.9169 52.1422 54.9781C52.1958 55.0495 52.2226 55.1209 52.2226 55.1923C52.2226 55.2229 52.2226 55.2536 52.2226 55.2842C52.2226 55.3097 52.2166 55.3352 52.2047 55.3607C52.1988 55.4117 52.163 55.4653 52.0975 55.5214C52.0737 55.5316 52.0468 55.5443 52.0171 55.5596C51.9932 55.5749 51.9634 55.5877 51.9277 55.5979C51.892 55.6081 51.8532 55.6157 51.8115 55.6209C51.7758 55.6209 51.74 55.6234 51.7043 55.6285C51.6566 55.6387 51.6119 55.6438 51.5702 55.6438C51.5345 55.6438 51.4927 55.6438 51.4451 55.6438H51.0429L49.2556 55.6515V55.6744Z" fill="white"/>
</g>
<defs>
<clipPath id="clip0">
<rect width="62" height="55" fill="white" transform="translate(6 9)"/>
</clipPath>
</defs>
</svg>
