<svg width="75" height="75" viewBox="0 0 75 75" fill="none" xmlns="http://www.w3.org/2000/svg">
<path d="M26.1304 55.6134C26.2171 55.9974 26.6848 56.2798 27.2333 56.2798H47.9878C48.5369 56.2798 49.0047 55.9974 49.0914 55.6134L53.0495 38.0837H22.1722L26.1304 55.6134Z" fill="#FAFAFA"/>
<path d="M58.926 22.5853C53.7265 21.6701 48.4304 23.8129 46.9006 27.4506L45.3146 28.1313L39.0508 30.9555L40.748 22.4589C44.9183 20.0118 45.6041 15.6644 42.3002 12.625L41.6192 12L40.7256 12.4825C36.5412 14.7848 35.5938 18.9923 38.5596 22.1027L37.1192 29.3655C35.9345 27.7554 34.0628 26.4513 31.7708 25.6393L28.3765 24.4367V24.4287C26.4649 20.957 21.104 19.1128 16.0719 20.196L15 20.4336L15.3353 21.185C16.9344 24.8787 22.4016 26.9925 27.6507 25.9476L30.7775 27.0551C33.1594 27.8945 34.9656 29.3771 35.7905 31.1691L36.4938 32.6722V33.337H19.7454V36.5015H55.4754V33.337H38.727V32.9785L46.4873 29.476L48.0619 28.8038C53.3126 29.5413 58.4555 27.2247 59.7411 23.5425L60.0088 22.7753L58.926 22.5853Z" fill="#FAFAFA"/>
<path d="M22.9872 59.1948C23.2209 59.3733 23.3931 59.5876 23.5038 59.8376C23.6145 60.0824 23.6575 60.3273 23.633 60.5722C23.6083 60.807 23.5191 61.0236 23.3654 61.2226C23.2117 61.4163 22.978 61.5646 22.6643 61.6664C22.4183 61.753 22.1754 61.8142 21.9355 61.8501C21.6957 61.8859 21.4312 61.9137 21.1422 61.9343C21.013 61.9443 20.9023 61.9519 20.81 61.9572C20.7239 61.9572 20.6224 61.9596 20.5056 61.9649C20.481 61.9649 20.4379 61.9649 20.3765 61.9649C20.3211 61.9649 20.2811 61.9673 20.2565 61.9725V63.5565C20.2381 63.6536 20.2135 63.7531 20.1827 63.8549C20.1581 63.9568 20.0874 64.0362 19.9705 64.0922C19.9029 64.1228 19.8198 64.1405 19.7215 64.1457C19.623 64.151 19.5339 64.1481 19.4539 64.1381C19.3678 64.128 19.294 64.1099 19.2325 64.0845C19.1772 64.0539 19.1311 64.0027 19.0942 63.9315C19.0695 63.8856 19.0449 63.8344 19.0204 63.7784C19.0019 63.7172 18.9927 63.6431 18.9927 63.5565V59.3249C18.9927 59.2891 18.9957 59.256 19.0019 59.2254C19.008 59.1948 19.0142 59.1642 19.0204 59.1336C19.0326 59.1081 19.0419 59.08 19.048 59.0494C19.0541 59.0188 19.0634 58.9907 19.0757 58.9652C19.088 58.9397 19.1003 58.9168 19.1126 58.8963C19.1311 58.8759 19.1526 58.8581 19.1772 58.8428C19.2079 58.8173 19.254 58.7943 19.3156 58.7739C19.3832 58.7535 19.4816 58.7433 19.6108 58.7433H19.6292C19.8198 58.7331 20.032 58.7255 20.2658 58.7203C20.4994 58.7102 20.6932 58.7127 20.8469 58.728C20.933 58.7382 21.013 58.7458 21.0868 58.7509C21.1606 58.7509 21.2313 58.7535 21.299 58.7586C21.3728 58.7637 21.4466 58.7688 21.5204 58.7739C21.5942 58.779 21.668 58.7867 21.7418 58.7969C21.8033 58.807 21.8586 58.8147 21.9078 58.8198C21.9632 58.8249 22.0185 58.8326 22.0739 58.8428C22.1231 58.853 22.1754 58.8632 22.2307 58.8734C22.2922 58.8836 22.3475 58.9015 22.3968 58.9269C22.5259 58.9576 22.6335 58.9958 22.7197 59.0417C22.8058 59.0876 22.8949 59.1387 22.9872 59.1948ZM22.4337 60.4574C22.4398 60.3349 22.4091 60.2278 22.3414 60.136C22.2799 60.0442 22.1907 59.9676 22.0739 59.9064C21.957 59.8452 21.8248 59.7968 21.6772 59.761C21.5296 59.7253 21.382 59.6998 21.2344 59.6845C21.1975 59.6845 21.1452 59.6845 21.0776 59.6845C21.0161 59.6794 20.9484 59.6769 20.8746 59.6769C20.8008 59.6717 20.7301 59.6692 20.6624 59.6692C20.6009 59.6641 20.5517 59.6616 20.5148 59.6616C20.484 59.6564 20.4471 59.6539 20.4041 59.6539C20.3611 59.6539 20.3119 59.6539 20.2565 59.6539C20.2626 59.8121 20.2658 59.9653 20.2658 60.113C20.2658 60.256 20.2658 60.4115 20.2658 60.5798C20.2596 60.6716 20.2565 60.7635 20.2565 60.8553C20.2565 60.9471 20.2565 61.0366 20.2565 61.1231L20.8285 61.1155C20.9761 61.1155 21.139 61.1078 21.3174 61.0925C21.4958 61.0772 21.6649 61.0466 21.8248 61.0007C21.9847 60.9548 22.12 60.8883 22.2307 60.8017C22.3475 60.7152 22.4152 60.6004 22.4337 60.4574ZM28.6511 63.5489C28.6634 63.5742 28.6695 63.6125 28.6695 63.6636C28.6695 63.7096 28.6695 63.7478 28.6695 63.7784C28.6695 63.8191 28.6603 63.8573 28.6419 63.8932C28.6234 63.9291 28.5988 63.9621 28.5681 63.9927C28.5127 64.0539 28.4328 64.0998 28.3282 64.1304C28.1806 64.1711 28.0422 64.1916 27.9131 64.1916C27.8454 64.1969 27.7747 64.1993 27.7009 64.1993C27.6271 64.1993 27.5533 64.2046 27.4795 64.2146H27.4426C26.969 64.2199 26.4801 64.2199 25.9758 64.2146C25.8528 64.2093 25.7144 64.2093 25.5606 64.2146C25.4069 64.2246 25.2562 64.2223 25.1086 64.2069C24.961 64.1969 24.8257 64.1687 24.7027 64.1228C24.5859 64.0716 24.5028 63.9927 24.4536 63.8856C24.4413 63.8602 24.4321 63.8373 24.4259 63.8167C24.4198 63.7913 24.4167 63.7655 24.4167 63.7402C24.3921 63.5666 24.3829 63.3958 24.389 63.2275C24.3952 63.0591 24.3983 62.8932 24.3983 62.7301L24.4167 61.6205V60.5951C24.4167 60.4115 24.4167 60.2484 24.4167 60.1054C24.4229 59.9624 24.429 59.8044 24.4352 59.6309V59.5927C24.4413 59.5417 24.4444 59.4907 24.4444 59.4396C24.4505 59.3886 24.4536 59.3376 24.4536 59.2866C24.4659 59.1693 24.4997 59.0698 24.5551 58.9882C24.592 58.9116 24.6566 58.8504 24.7488 58.8045C24.8288 58.7586 24.9241 58.7356 25.0348 58.7356C25.0779 58.7356 25.1178 58.7382 25.1547 58.7433C25.1978 58.7433 25.2378 58.7458 25.2747 58.7509C25.3116 58.7561 25.3454 58.7663 25.3761 58.7816C25.413 58.7969 25.4499 58.8173 25.4868 58.8428C25.5237 58.8785 25.5576 58.9218 25.5883 58.9729C25.6129 59.029 25.6283 59.0851 25.6344 59.1412C25.6406 59.1769 25.6468 59.2101 25.6529 59.2407C25.6591 59.2713 25.6621 59.3019 25.6621 59.3325C25.6498 59.3631 25.6437 59.3937 25.6437 59.4243C25.6437 59.4549 25.6437 59.483 25.6437 59.5085V59.6463L25.6068 63.2504L27.4334 63.2657H27.8669C27.9038 63.2657 27.9439 63.2681 27.9869 63.2734C28.0299 63.2734 28.073 63.2758 28.116 63.281C28.1653 63.2863 28.2083 63.2911 28.2452 63.2963C28.2821 63.3016 28.319 63.3093 28.3559 63.3193C28.4236 63.3346 28.4789 63.3599 28.5219 63.3958C28.5896 63.447 28.6326 63.4977 28.6511 63.5489ZM35.0991 63.6101C35.1052 63.6407 35.1083 63.6713 35.1083 63.7019C35.1144 63.7272 35.1175 63.7579 35.1175 63.7937C35.1175 63.8549 35.0959 63.9109 35.0529 63.9621C35.0345 63.9874 35.0099 64.0133 34.9791 64.0386C34.9483 64.0592 34.9114 64.0769 34.8684 64.0922C34.7147 64.1634 34.5517 64.1893 34.3795 64.1687C34.2933 64.1481 34.2165 64.1151 34.1489 64.0692C34.1365 64.0592 34.1273 64.0539 34.1212 64.0539C34.115 64.0486 34.1088 64.041 34.1027 64.0309C34.0966 64.0257 34.0904 64.0209 34.0843 64.0156C34.0781 64.0056 34.0689 63.9979 34.0566 63.9927C34.0258 63.9673 34.0013 63.9444 33.9828 63.9238C33.9644 63.8985 33.9459 63.8726 33.9275 63.8473C33.9151 63.8219 33.8998 63.799 33.8813 63.7784C33.869 63.7531 33.8536 63.7272 33.8352 63.7019C33.8229 63.6813 33.8106 63.6636 33.7983 63.6483C33.786 63.6278 33.7767 63.6077 33.7706 63.5871C33.746 63.5412 33.7306 63.5006 33.7245 63.4647L33.5308 63.0897C33.1064 63.0897 32.682 63.0921 32.2577 63.0974C31.8394 63.0974 31.4182 63.095 30.9938 63.0897L30.8001 63.4647C30.7878 63.4853 30.7785 63.5053 30.7724 63.5259C30.7724 63.5465 30.7663 63.5666 30.754 63.5871C30.7416 63.6077 30.7294 63.6278 30.7171 63.6483C30.7109 63.6636 30.7017 63.6813 30.6894 63.7019C30.6709 63.7272 30.6525 63.7531 30.634 63.7784C30.6217 63.799 30.6064 63.8219 30.5879 63.8473C30.5756 63.8726 30.5602 63.8985 30.5418 63.9238C30.5233 63.9444 30.4987 63.9673 30.468 63.9927C30.4557 63.9979 30.4464 64.0056 30.4403 64.0156C30.4341 64.0209 30.428 64.0257 30.4219 64.0309C30.4157 64.041 30.4095 64.0486 30.4034 64.0539C30.3972 64.0539 30.388 64.0592 30.3757 64.0692C30.308 64.1151 30.2312 64.1481 30.1451 64.1687C29.9729 64.1893 29.8099 64.1634 29.6562 64.0922C29.6131 64.0769 29.5762 64.0592 29.5455 64.0386C29.5147 64.0133 29.4901 63.9874 29.4717 63.9621C29.4286 63.9109 29.4071 63.8549 29.4071 63.7937C29.4071 63.7579 29.4071 63.7272 29.4071 63.7019C29.4132 63.6713 29.4194 63.6407 29.4255 63.6101C29.4378 63.5642 29.4532 63.5183 29.4717 63.4723C29.4901 63.4264 29.4993 63.4035 29.4993 63.4035L31.4182 59.4856L31.4735 59.3631C31.4858 59.3325 31.5012 59.3044 31.5197 59.2789C31.5381 59.2535 31.5535 59.2228 31.5658 59.1871C31.5965 59.1208 31.6304 59.0622 31.6673 59.0111C31.6857 58.9805 31.7072 58.9524 31.7318 58.9269C31.7564 58.9015 31.781 58.8759 31.8056 58.8504C31.8425 58.8096 31.8948 58.7764 31.9625 58.7509C32.0486 58.7255 32.147 58.7127 32.2577 58.7127C32.3745 58.7127 32.476 58.7255 32.5621 58.7509C32.6298 58.7764 32.682 58.8096 32.7189 58.8504C32.762 58.8963 32.8081 58.9499 32.8573 59.0111C32.8942 59.0622 32.928 59.1208 32.9588 59.1871C32.9711 59.2228 32.9865 59.2535 33.0049 59.2789C33.0234 59.3044 33.0387 59.3325 33.0511 59.3631L33.1064 59.4856L35.0253 63.4035C35.0253 63.4035 35.0345 63.4264 35.0529 63.4723C35.0714 63.5183 35.0867 63.5642 35.0991 63.6101ZM32.9127 61.7353C32.8327 61.5875 32.7497 61.4345 32.6636 61.2762C32.5836 61.1179 32.4975 60.9572 32.4053 60.7941C32.3807 60.7482 32.356 60.7023 32.3315 60.6563C32.3069 60.6052 32.2822 60.5569 32.2577 60.5109C32.2392 60.5569 32.2177 60.6052 32.1931 60.6563C32.1685 60.7023 32.1439 60.7482 32.1193 60.7941C32.0271 60.9572 31.9379 61.1179 31.8518 61.2762C31.7718 61.4345 31.6918 61.5875 31.6119 61.7353L31.4459 62.072H33.0787L32.9127 61.7353ZM40.8761 63.5489C40.8699 63.6354 40.8545 63.7273 40.8299 63.8243C40.8115 63.9214 40.753 64.0003 40.6547 64.0616C40.5809 64.1127 40.4978 64.1433 40.4056 64.1534C40.3133 64.1634 40.2211 64.1586 40.1288 64.1381C40.0427 64.1228 39.9597 64.0974 39.8797 64.0616C39.7998 64.0209 39.7352 63.9721 39.686 63.9162C39.4769 63.7019 39.2832 63.4824 39.1048 63.2581C38.9326 63.0285 38.7573 62.7989 38.579 62.5694L37.8041 61.5976C37.6995 61.4598 37.5888 61.3068 37.472 61.1384C37.3551 60.9648 37.2352 60.8041 37.1122 60.6563L37.0845 63.5795V63.6483C37.0845 63.7301 37.066 63.8114 37.0291 63.8932C36.9984 63.9697 36.943 64.0362 36.8631 64.0922C36.8016 64.1328 36.7216 64.161 36.6232 64.1763C36.4695 64.2017 36.3403 64.194 36.2358 64.1534C36.1374 64.1127 36.0574 64.0563 35.9959 63.985C35.9406 63.9138 35.9006 63.832 35.876 63.7402C35.8575 63.6431 35.8544 63.5489 35.8668 63.457V63.3269L35.8852 62.7301L35.8944 61.6205C35.9006 61.4574 35.9037 61.2915 35.9037 61.1231C35.9037 60.9495 35.9037 60.7735 35.9037 60.5951C35.8975 60.3756 35.8975 60.1436 35.9037 59.8988C35.9159 59.6539 35.9282 59.4243 35.9406 59.2101C35.9528 59.0928 35.9867 58.9933 36.042 58.9116C36.0666 58.8402 36.1312 58.779 36.2358 58.728C36.3034 58.6923 36.3895 58.6693 36.4941 58.6591C36.6048 58.6489 36.7001 58.6515 36.7801 58.6668C36.8108 58.677 36.8415 58.6897 36.8723 58.705C36.903 58.7152 36.9338 58.728 36.9646 58.7433C36.9953 58.7637 37.023 58.7841 37.0476 58.8045C37.0783 58.8249 37.106 58.8479 37.1306 58.8734C37.1614 58.8989 37.189 58.9269 37.2136 58.9576C37.2382 58.983 37.2628 59.0086 37.2875 59.0341C37.3059 59.0647 37.3244 59.0928 37.3428 59.1183C37.3613 59.1437 37.3828 59.1693 37.4074 59.1948L37.5089 59.3172L39.6399 62.1026V61.5976C39.6399 61.4345 39.6368 61.2685 39.6307 61.1002C39.6307 60.9266 39.6275 60.7482 39.6214 60.5645C39.6214 60.3503 39.6214 60.1207 39.6214 59.8758C39.6275 59.6309 39.6368 59.4014 39.6491 59.1871C39.6491 59.1004 39.6798 59.0009 39.7414 58.8887C39.7721 58.8224 39.8244 58.7688 39.8982 58.728C39.972 58.6872 40.055 58.6591 40.1473 58.6438C40.2395 58.6285 40.3318 58.6285 40.424 58.6438C40.5163 58.6591 40.5962 58.6897 40.6639 58.7356C40.6823 58.7509 40.7008 58.7688 40.7192 58.7892C40.7377 58.8096 40.753 58.8326 40.7654 58.8581C40.7961 58.9244 40.8145 58.983 40.8207 59.0341C40.8392 59.1055 40.8484 59.1693 40.8484 59.2254C40.8484 59.8629 40.8484 60.5133 40.8484 61.1767C40.8545 61.84 40.8607 62.4905 40.8668 63.128C40.8668 63.1993 40.8699 63.271 40.8761 63.3423C40.8822 63.4087 40.8822 63.4776 40.8761 63.5489ZM46.7156 58.9499C46.7833 59.0162 46.8171 59.0851 46.8171 59.1565C46.8171 59.1871 46.814 59.2203 46.8079 59.256C46.8079 59.2866 46.8048 59.3147 46.7987 59.3402C46.7802 59.3963 46.7402 59.4498 46.6787 59.5009C46.6295 59.5315 46.5619 59.5544 46.4758 59.5697C46.4327 59.5799 46.3896 59.5876 46.3466 59.5927C46.3036 59.5978 46.2574 59.6055 46.2082 59.6156C46.1652 59.6208 46.1221 59.6233 46.0791 59.6233C46.036 59.6233 45.9899 59.6233 45.9407 59.6233H45.4702C45.3595 59.6284 45.2488 59.6309 45.1381 59.6309C45.0335 59.6309 44.929 59.6309 44.8245 59.6309C44.8306 59.7891 44.8337 59.96 44.8337 60.1436C44.8337 60.322 44.8306 60.5315 44.8245 60.7711C44.8245 61.0107 44.8213 61.2891 44.8152 61.6052C44.8152 61.9213 44.8152 62.2886 44.8152 62.7071V63.2887C44.8152 63.3399 44.8183 63.3781 44.8245 63.4035C44.8245 63.424 44.8245 63.4441 44.8245 63.4647C44.8245 63.48 44.8213 63.5006 44.8152 63.5259C44.8029 63.5718 44.7937 63.6254 44.7876 63.6866C44.7876 63.7119 44.7844 63.7378 44.7783 63.7631C44.7722 63.7837 44.7629 63.8066 44.7507 63.832C44.726 63.8526 44.7138 63.8679 44.7138 63.8779L44.6861 63.9238C44.6553 63.975 44.5969 64.0233 44.5108 64.0692C44.3755 64.1252 44.2248 64.1381 44.0588 64.1075C43.9542 64.0974 43.8743 64.0745 43.8189 64.0386C43.7636 63.9927 43.7235 63.9468 43.699 63.9009C43.6621 63.8449 43.6405 63.7913 43.6344 63.7402C43.616 63.6943 43.6067 63.6459 43.6067 63.5948V59.6616C43.5698 59.6616 43.4929 59.6616 43.3761 59.6616C43.2592 59.6616 43.1331 59.6616 42.9979 59.6616C42.8687 59.6564 42.7457 59.6514 42.6289 59.6463C42.512 59.6411 42.432 59.6361 42.389 59.6309C42.3521 59.6258 42.2936 59.6182 42.2137 59.608C42.1399 59.5978 42.0784 59.5876 42.0292 59.5774C41.9001 59.5468 41.7986 59.4983 41.7248 59.432C41.6571 59.3657 41.6233 59.2917 41.6233 59.2101C41.6233 59.1795 41.6233 59.1489 41.6233 59.1183C41.6233 59.0876 41.6294 59.0596 41.6418 59.0341C41.6602 58.9729 41.7094 58.9218 41.7894 58.881C41.8139 58.8657 41.8508 58.8479 41.9001 58.8275C41.9554 58.802 42.0077 58.7841 42.0569 58.7739C42.1307 58.7535 42.2229 58.7382 42.3336 58.728C42.3828 58.7229 42.432 58.7203 42.4813 58.7203C42.5304 58.7203 42.5827 58.7203 42.6381 58.7203C42.8533 58.7203 43.0563 58.7203 43.2469 58.7203C43.4437 58.7203 43.6497 58.7178 43.865 58.7127C44.2217 58.7076 44.5754 58.7076 44.9259 58.7127C45.2826 58.7127 45.6363 58.7178 45.9868 58.728C46.0668 58.7331 46.1437 58.7408 46.2175 58.7509C46.2913 58.7611 46.3651 58.779 46.4389 58.8045C46.4942 58.8198 46.5465 58.8402 46.5957 58.8657C46.6449 58.8862 46.6848 58.9142 46.7156 58.9499ZM48.8151 59.6309L48.7966 60.8323H49.1656C49.4178 60.8271 49.6423 60.8247 49.8391 60.8247C50.0358 60.8247 50.2542 60.8271 50.4941 60.8323H50.5402C50.614 60.8323 50.6847 60.8347 50.7524 60.84C50.8262 60.84 50.8969 60.84 50.9645 60.84C51.0383 60.8453 51.1091 60.8553 51.1767 60.8706C51.2444 60.8806 51.312 60.8936 51.3797 60.9089C51.4842 60.9395 51.5703 60.9854 51.638 61.0466C51.6995 61.1131 51.7302 61.1867 51.7302 61.2685C51.7302 61.2939 51.7302 61.3245 51.7302 61.3603C51.7302 61.3909 51.7241 61.4192 51.7118 61.4445C51.6995 61.5005 51.6595 61.5516 51.5919 61.5976C51.5611 61.6334 51.5027 61.6588 51.4166 61.6741C51.3366 61.6946 51.2567 61.7071 51.1767 61.7123C51.0906 61.7276 51.0045 61.7353 50.9184 61.7353H50.4848L48.7782 61.7429L48.7597 63.2428L50.5955 63.2581H51.0291C51.0783 63.2581 51.1244 63.2581 51.1675 63.2581C51.2106 63.2581 51.2505 63.2605 51.2874 63.2657C51.3366 63.2758 51.3797 63.2834 51.4166 63.2887C51.4596 63.2887 51.4996 63.2939 51.5365 63.304C51.6103 63.3246 51.6718 63.3523 51.721 63.3882C51.7825 63.4393 51.8225 63.4929 51.8409 63.5489C51.8471 63.5742 51.8502 63.6024 51.8502 63.633C51.8563 63.6584 51.8563 63.6866 51.8502 63.7172C51.8502 63.799 51.8194 63.8726 51.7579 63.9391C51.6841 64.0104 51.598 64.0563 51.4996 64.0769C51.3704 64.1228 51.229 64.1457 51.0752 64.1457C51.0076 64.151 50.9369 64.1534 50.8631 64.1534C50.7893 64.1534 50.7185 64.1558 50.6509 64.161H50.5955C50.1158 64.1711 49.6177 64.1711 49.101 64.161C48.9781 64.161 48.8796 64.1586 48.8058 64.1534C48.732 64.1534 48.6644 64.1534 48.6029 64.1534C48.5475 64.1534 48.4891 64.1534 48.4276 64.1534C48.3661 64.1534 48.2862 64.1534 48.1877 64.1534C48.0463 64.1634 47.9294 64.1433 47.8372 64.0922C47.7696 64.0563 47.7173 64.008 47.6804 63.9468C47.6619 63.9315 47.6527 63.9162 47.6527 63.9009C47.6465 63.8908 47.6404 63.8832 47.6342 63.8779C47.6281 63.8726 47.622 63.865 47.6158 63.8549C47.6035 63.8296 47.5943 63.8038 47.5881 63.7784C47.5819 63.7478 47.5789 63.7196 47.5789 63.6943C47.5727 63.6689 47.5666 63.6431 47.5604 63.6177C47.5604 63.5924 47.5574 63.5666 47.5512 63.5412V63.4188C47.5512 63.3982 47.5512 63.3781 47.5512 63.3576C47.5574 63.337 47.5604 63.3169 47.5604 63.2963V62.6995L47.5789 61.5976V60.5798C47.5789 60.3962 47.5789 60.2331 47.5789 60.0901C47.5851 59.9471 47.5912 59.7916 47.5973 59.6233V59.585C47.6035 59.5289 47.6066 59.4779 47.6066 59.432C47.6127 59.381 47.6158 59.33 47.6158 59.2789C47.622 59.1769 47.6557 59.0775 47.7173 58.9805C47.7419 58.9397 47.7664 58.904 47.7911 58.8734C47.8218 58.8428 47.8618 58.8173 47.911 58.7969C48.0032 58.7509 48.0985 58.728 48.197 58.728C48.2462 58.728 48.2831 58.7305 48.3077 58.7356V58.728C48.4184 58.728 48.5076 58.728 48.5752 58.728C48.6428 58.728 48.7074 58.728 48.7689 58.728C48.8366 58.728 48.9073 58.728 48.9811 58.728C49.0549 58.7229 49.1564 58.7203 49.2855 58.7203C49.5316 58.7152 49.7653 58.7127 49.9867 58.7127C50.2081 58.7127 50.4356 58.7152 50.6693 58.7203H50.7062C50.7739 58.7255 50.8446 58.728 50.9184 58.728C50.9922 58.728 51.063 58.7305 51.1306 58.7356C51.1982 58.7356 51.2659 58.7433 51.3335 58.7586C51.4012 58.7688 51.4689 58.7841 51.5365 58.8045C51.641 58.83 51.7272 58.8734 51.7948 58.9346C51.8502 59.006 51.8778 59.0775 51.8778 59.1489C51.8778 59.1795 51.8778 59.2101 51.8778 59.2407C51.8778 59.2662 51.8717 59.2917 51.8594 59.3172C51.8532 59.3682 51.8163 59.4218 51.7487 59.4779C51.7241 59.4881 51.6964 59.5009 51.6657 59.5162C51.641 59.5315 51.6103 59.5442 51.5734 59.5544C51.5365 59.5646 51.4965 59.5723 51.4535 59.5774C51.4166 59.5774 51.3797 59.5799 51.3428 59.585C51.2936 59.5952 51.2475 59.6003 51.2044 59.6003C51.1675 59.6003 51.1244 59.6003 51.0752 59.6003H50.6601L48.8151 59.608V59.6309ZM57.393 61.9036C57.4237 61.9749 57.4452 62.0567 57.4575 62.1485C57.476 62.2351 57.4852 62.3245 57.4852 62.4163C57.4852 62.5082 57.476 62.6 57.4575 62.6918C57.4452 62.7784 57.4268 62.8549 57.4022 62.9214C57.3038 63.2069 57.107 63.447 56.8118 63.6407C56.5166 63.8296 56.1783 63.9673 55.797 64.0539C55.4218 64.1405 55.0313 64.1711 54.6254 64.1457C54.2256 64.1204 53.8689 64.0362 53.5553 63.8932C53.3584 63.8014 53.1893 63.689 53.0479 63.5565C52.9064 63.424 52.7865 63.2758 52.6881 63.1127C52.6512 63.0567 52.6266 62.9926 52.6143 62.9214C52.6081 62.8449 52.6174 62.7736 52.642 62.7071C52.6665 62.6359 52.7065 62.5746 52.7619 62.5235C52.8173 62.4675 52.8941 62.4293 52.9925 62.4087C53.054 62.3986 53.1217 62.3934 53.1955 62.3934C53.2754 62.3934 53.3523 62.4034 53.4261 62.424C53.4999 62.4393 53.5676 62.4675 53.6291 62.5082C53.6905 62.544 53.7398 62.5947 53.7767 62.6612C53.8443 62.7683 53.9396 62.8678 54.0627 62.9596C54.1918 63.0462 54.3271 63.1179 54.4686 63.1739C54.6715 63.2299 54.8745 63.2528 55.0774 63.2428C55.2865 63.2327 55.4741 63.1945 55.6402 63.128C55.8123 63.0615 55.9507 62.9726 56.0553 62.8602C56.1598 62.743 56.2121 62.61 56.2121 62.4623C56.2121 62.3398 56.1906 62.2403 56.1476 62.1638C56.1045 62.082 56.043 62.016 55.9631 61.9649C55.8893 61.9089 55.797 61.863 55.6863 61.8271C55.5817 61.7913 55.4649 61.7606 55.3357 61.7353C55.1881 61.7099 55.0374 61.6918 54.8837 61.6817C54.7361 61.6717 54.5854 61.6588 54.4317 61.6435C54.2779 61.6282 54.1272 61.6076 53.9796 61.5823C53.832 61.5569 53.6875 61.5186 53.546 61.4675C53.2631 61.3704 53.0479 61.2226 52.9003 61.0236C52.7527 60.8247 52.6635 60.6104 52.6327 60.3809C52.6081 60.1513 52.642 59.9241 52.7342 59.6998C52.8265 59.4703 52.9741 59.2738 53.177 59.1106C53.3738 58.9627 53.6075 58.8581 53.8782 58.7969C54.1549 58.7305 54.4593 58.6923 54.7915 58.6821C54.976 58.677 55.1605 58.6821 55.345 58.6974C55.5356 58.7127 55.717 58.7382 55.8893 58.7739C56.0676 58.8096 56.2306 58.8555 56.3782 58.9116C56.5319 58.9677 56.6642 59.0341 56.7749 59.1106C56.8548 59.1616 56.9348 59.2305 57.0147 59.3172C57.0946 59.3988 57.1562 59.4881 57.1992 59.585C57.2422 59.6769 57.2546 59.7662 57.2361 59.8529C57.2238 59.9394 57.1592 60.0136 57.0424 60.0748C56.944 60.1259 56.8487 60.1489 56.7564 60.1436C56.6703 60.1336 56.5873 60.1106 56.5073 60.0748C56.4274 60.0341 56.3505 59.9882 56.2767 59.937C56.2029 59.8859 56.1352 59.8399 56.0738 59.7993C55.9077 59.6973 55.7016 59.6284 55.4557 59.5927C55.2096 59.557 54.979 59.5493 54.7638 59.5697C54.6285 59.585 54.5024 59.6105 54.3855 59.6463C54.2687 59.682 54.1672 59.7304 54.0811 59.7916C54.0011 59.8529 53.9366 59.9294 53.8874 60.0212C53.8443 60.1078 53.8289 60.2073 53.8413 60.3196C53.8474 60.4014 53.875 60.4703 53.9243 60.5263C53.9796 60.5822 54.0442 60.6281 54.118 60.664C54.1979 60.6999 54.2841 60.7276 54.3763 60.7482C54.4686 60.7687 54.5608 60.784 54.6531 60.7941C54.9298 60.8247 55.2066 60.8476 55.4833 60.8629C55.7601 60.8783 56.0307 60.9294 56.2952 61.016C56.5658 61.1026 56.7964 61.2202 56.9871 61.368C57.1777 61.5158 57.313 61.6946 57.393 61.9036Z" fill="white"/>
</svg>
