<svg width="75" height="75" viewBox="0 0 75 75" fill="none" xmlns="http://www.w3.org/2000/svg">
<g clip-path="url(#clip0)">
<path d="M26.5199 41.8221C24.9327 41.8221 20.9613 41.7681 18.4746 41.2753H17.0698L17.6729 46.4373C19.9546 47.8124 23.484 46.2401 25.3927 44.8525C25.3919 44.8353 25.3872 44.8181 25.3872 44.8008C25.3872 43.9889 26.0458 43.3303 26.8578 43.3303C27.6705 43.3303 28.3284 43.9889 28.3284 44.8008C28.3284 45.6128 27.6705 46.2714 26.8578 46.2714C26.7287 46.2714 26.6051 46.2503 26.4862 46.2182C26.4377 46.2761 26.3869 46.3324 26.3188 46.3817C24.1122 47.9978 20.6766 49.2885 17.9091 48.4578L18.624 54.574H18.6585C19.005 55.2319 22.3334 55.7473 26.3939 55.7473C30.4545 55.7473 33.7828 55.2319 34.1294 54.574H34.1622L35.7165 41.2761H34.5635C32.0784 41.7682 28.1062 41.8221 26.5199 41.8221Z" fill="#FAFAFA"/>
<path d="M33.7117 38.8692L49.9625 12.7936C50.3051 12.2437 50.1369 11.5202 49.587 11.1776C49.0402 10.8357 48.3159 11.0015 47.9717 11.5522L31.1092 38.6087L30.9262 38.9028C30.8339 39.0507 30.7814 39.2126 30.7611 39.3753C29.5338 39.2971 28.1125 39.2501 26.5199 39.2501C21.4119 39.2501 18.0616 39.739 17.2513 40.1458C18.0616 40.5518 21.4119 41.0414 26.5199 41.0414C31.6278 41.0414 34.9773 40.5518 35.7885 40.1458C35.4271 39.9651 34.5573 39.768 33.2548 39.6037L33.7117 38.8692Z" fill="#FAFAFA"/>
<path d="M57.3725 51.2769C56.4573 51.0211 55.5788 50.7716 54.6832 50.576C54.8905 50.1129 54.4454 49.513 53.9393 49.4887C50.1815 49.3135 45.0993 49.0679 42.0807 51.7634C41.9947 51.7502 41.9016 51.7447 41.8038 51.7658C40.8229 51.97 39.9092 52.2046 38.9682 52.548C38.3784 52.7631 38.132 53.64 38.7813 53.9779C40.4552 54.8454 42.3662 55.3226 44.3617 55.5299C44.9225 56.1807 46.0263 56.0892 47.2997 55.6558C50.2949 55.6089 53.3205 55.0887 55.9089 54.4465C56.3775 54.3307 56.5527 53.8442 56.4268 53.446C56.8108 53.2121 57.1894 52.9712 57.5626 52.7076C58.0953 52.3282 58.0663 51.4709 57.3725 51.2769Z" fill="#FAFAFA"/>
<path d="M39.1857 50.7325C39.2287 50.7223 39.271 50.7247 39.314 50.7161C39.3296 50.7239 39.3414 50.7317 39.3554 50.7356C40.2198 51.079 41.3556 50.8264 42.1104 50.3601C42.7941 49.937 42.4843 48.9482 41.7154 48.9021C41.5496 48.8903 41.3845 48.8982 41.2195 48.8966C40.9747 48.6072 40.5906 48.5602 40.2448 48.7151C40.3895 48.6525 40.0806 48.7441 40.0469 48.7519C39.9061 48.78 39.8013 48.7886 39.6574 48.8027C39.3288 48.8371 38.994 48.8567 38.6718 48.9302C38.5052 48.967 38.3839 49.0476 38.294 49.15C38.1266 49.1743 37.9592 49.1985 37.7918 49.2236C36.7968 49.3691 37.2215 50.8733 38.2071 50.7325C38.3534 50.7121 38.4973 50.6918 38.6413 50.6723C38.7922 50.7528 38.9729 50.7849 39.1857 50.7325Z" fill="#FAFAFA"/>
</g>
<path d="M18.2374 61.672C18.2641 61.7467 18.2828 61.832 18.2934 61.928C18.3094 62.0187 18.3174 62.112 18.3174 62.208C18.3174 62.304 18.3094 62.4 18.2934 62.496C18.2828 62.5867 18.2668 62.6667 18.2454 62.736C18.1601 63.0347 17.9894 63.2853 17.7334 63.488C17.4774 63.6853 17.1841 63.8293 16.8534 63.92C16.5281 64.0107 16.1894 64.0427 15.8374 64.016C15.4908 63.9893 15.1814 63.9013 14.9094 63.752C14.7388 63.656 14.5921 63.5387 14.4694 63.4C14.3468 63.2613 14.2428 63.1067 14.1574 62.936C14.1254 62.8773 14.1041 62.8107 14.0934 62.736C14.0881 62.656 14.0961 62.5813 14.1174 62.512C14.1388 62.4373 14.1734 62.3733 14.2214 62.32C14.2694 62.2613 14.3361 62.2213 14.4214 62.2C14.4748 62.1893 14.5334 62.184 14.5974 62.184C14.6668 62.184 14.7334 62.1947 14.7974 62.216C14.8614 62.232 14.9201 62.2613 14.9734 62.304C15.0268 62.3413 15.0694 62.3947 15.1014 62.464C15.1601 62.576 15.2428 62.68 15.3494 62.776C15.4614 62.8667 15.5788 62.9413 15.7014 63C15.8774 63.0587 16.0534 63.0827 16.2294 63.072C16.4108 63.0613 16.5734 63.0213 16.7174 62.952C16.8668 62.8827 16.9868 62.7893 17.0774 62.672C17.1681 62.5493 17.2134 62.4107 17.2134 62.256C17.2134 62.128 17.1948 62.024 17.1574 61.944C17.1201 61.8587 17.0668 61.7893 16.9974 61.736C16.9334 61.6773 16.8534 61.6293 16.7574 61.592C16.6668 61.5547 16.5654 61.5227 16.4534 61.496C16.3254 61.4693 16.1948 61.4507 16.0614 61.44C15.9334 61.4293 15.8028 61.416 15.6694 61.4C15.5361 61.384 15.4054 61.3627 15.2774 61.336C15.1494 61.3093 15.0241 61.2693 14.9014 61.216C14.6561 61.1147 14.4694 60.96 14.3414 60.752C14.2134 60.544 14.1361 60.32 14.1094 60.08C14.0881 59.84 14.1174 59.6027 14.1974 59.368C14.2774 59.128 14.4054 58.9227 14.5814 58.752C14.7521 58.5973 14.9548 58.488 15.1894 58.424C15.4294 58.3547 15.6934 58.3147 15.9814 58.304C16.1414 58.2987 16.3014 58.304 16.4614 58.32C16.6268 58.336 16.7841 58.3627 16.9334 58.4C17.0881 58.4373 17.2294 58.4853 17.3574 58.544C17.4908 58.6027 17.6054 58.672 17.7014 58.752C17.7708 58.8053 17.8401 58.8773 17.9094 58.968C17.9788 59.0533 18.0321 59.1467 18.0694 59.248C18.1068 59.344 18.1174 59.4373 18.1014 59.528C18.0908 59.6187 18.0348 59.696 17.9334 59.76C17.8481 59.8133 17.7654 59.8373 17.6854 59.832C17.6108 59.8213 17.5388 59.7973 17.4694 59.76C17.4001 59.7173 17.3334 59.6693 17.2694 59.616C17.2054 59.5627 17.1468 59.5147 17.0934 59.472C16.9494 59.3653 16.7708 59.2933 16.5574 59.256C16.3441 59.2187 16.1441 59.2107 15.9574 59.232C15.8401 59.248 15.7308 59.2747 15.6294 59.312C15.5281 59.3493 15.4401 59.4 15.3654 59.464C15.2961 59.528 15.2401 59.608 15.1974 59.704C15.1601 59.7947 15.1468 59.8987 15.1574 60.016C15.1628 60.1013 15.1868 60.1733 15.2294 60.232C15.2774 60.2907 15.3334 60.3387 15.3974 60.376C15.4668 60.4133 15.5414 60.4427 15.6214 60.464C15.7014 60.4853 15.7814 60.5013 15.8614 60.512C16.1014 60.544 16.3414 60.568 16.5814 60.584C16.8214 60.6 17.0561 60.6533 17.2854 60.744C17.5201 60.8347 17.7201 60.9573 17.8854 61.112C18.0508 61.2667 18.1681 61.4533 18.2374 61.672ZM20.0566 59.296L20.0406 60.552H20.3606C20.5793 60.5467 20.774 60.544 20.9446 60.544C21.1153 60.544 21.3046 60.5467 21.5126 60.552H21.5526C21.6166 60.552 21.678 60.5547 21.7366 60.56C21.8006 60.56 21.862 60.56 21.9206 60.56C21.9846 60.5653 22.046 60.576 22.1046 60.592C22.1633 60.6027 22.222 60.616 22.2806 60.632C22.3713 60.664 22.446 60.712 22.5046 60.776C22.558 60.8453 22.5846 60.9227 22.5846 61.008C22.5846 61.0347 22.5846 61.0667 22.5846 61.104C22.5846 61.136 22.5793 61.1653 22.5686 61.192C22.558 61.2507 22.5233 61.304 22.4646 61.352C22.438 61.3893 22.3873 61.416 22.3126 61.432C22.2433 61.4533 22.174 61.4667 22.1046 61.472C22.03 61.488 21.9553 61.496 21.8806 61.496H21.5046L20.0246 61.504L20.0086 63.072L21.6006 63.088H21.9766C22.0193 63.088 22.0593 63.088 22.0966 63.088C22.134 63.088 22.1686 63.0907 22.2006 63.096C22.2433 63.1067 22.2806 63.1147 22.3126 63.12C22.35 63.12 22.3846 63.1253 22.4166 63.136C22.4806 63.1573 22.534 63.1867 22.5766 63.224C22.63 63.2773 22.6646 63.3333 22.6806 63.392C22.686 63.4187 22.6886 63.448 22.6886 63.48C22.694 63.5067 22.694 63.536 22.6886 63.568C22.6886 63.6533 22.662 63.7307 22.6086 63.8C22.5446 63.8747 22.47 63.9227 22.3846 63.944C22.2726 63.992 22.15 64.016 22.0166 64.016C21.958 64.0213 21.8966 64.024 21.8326 64.024C21.7686 64.024 21.7073 64.0267 21.6486 64.032H21.6006C21.1846 64.0427 20.7526 64.0427 20.3046 64.032C20.198 64.032 20.1126 64.0293 20.0486 64.024C19.9846 64.024 19.926 64.024 19.8726 64.024C19.8246 64.024 19.774 64.024 19.7206 64.024C19.6673 64.024 19.598 64.024 19.5126 64.024C19.39 64.0347 19.2886 64.0133 19.2086 63.96C19.15 63.9227 19.1046 63.872 19.0726 63.808C19.0566 63.792 19.0486 63.776 19.0486 63.76C19.0433 63.7493 19.038 63.7413 19.0326 63.736C19.0273 63.7307 19.022 63.7227 19.0166 63.712C19.006 63.6853 18.998 63.6587 18.9926 63.632C18.9873 63.6 18.9846 63.5707 18.9846 63.544C18.9793 63.5173 18.974 63.4907 18.9686 63.464C18.9686 63.4373 18.966 63.4107 18.9606 63.384V63.256C18.9606 63.2347 18.9606 63.2133 18.9606 63.192C18.966 63.1707 18.9686 63.1493 18.9686 63.128V62.504L18.9846 61.352V60.288C18.9846 60.096 18.9846 59.9253 18.9846 59.776C18.99 59.6267 18.9953 59.464 19.0006 59.288V59.248C19.006 59.1893 19.0086 59.136 19.0086 59.088C19.014 59.0347 19.0166 58.9813 19.0166 58.928C19.022 58.8213 19.0513 58.7173 19.1046 58.616C19.126 58.5733 19.1473 58.536 19.1686 58.504C19.1953 58.472 19.23 58.4453 19.2726 58.424C19.3526 58.376 19.4353 58.352 19.5206 58.352C19.5633 58.352 19.5953 58.3547 19.6166 58.36V58.352C19.7126 58.352 19.79 58.352 19.8486 58.352C19.9073 58.352 19.9633 58.352 20.0166 58.352C20.0753 58.352 20.1366 58.352 20.2006 58.352C20.2646 58.3467 20.3526 58.344 20.4646 58.344C20.678 58.3387 20.8806 58.336 21.0726 58.336C21.2646 58.336 21.462 58.3387 21.6646 58.344H21.6966C21.7553 58.3493 21.8166 58.352 21.8806 58.352C21.9446 58.352 22.006 58.3547 22.0646 58.36C22.1233 58.36 22.182 58.368 22.2406 58.384C22.2993 58.3947 22.358 58.4107 22.4166 58.432C22.5073 58.4587 22.582 58.504 22.6406 58.568C22.6886 58.6427 22.7126 58.7173 22.7126 58.792C22.7126 58.824 22.7126 58.856 22.7126 58.888C22.7126 58.9147 22.7073 58.9413 22.6966 58.968C22.6913 59.0213 22.6593 59.0773 22.6006 59.136C22.5793 59.1467 22.5553 59.16 22.5286 59.176C22.5073 59.192 22.4806 59.2053 22.4486 59.216C22.4166 59.2267 22.382 59.2347 22.3446 59.24C22.3126 59.24 22.2806 59.2427 22.2486 59.248C22.206 59.2587 22.166 59.264 22.1286 59.264C22.0966 59.264 22.0593 59.264 22.0166 59.264H21.6566L20.0566 59.272V59.296ZM27.4793 63.648C27.4846 63.7013 27.4793 63.752 27.4633 63.8C27.4526 63.832 27.4366 63.8587 27.4153 63.88C27.3993 63.9013 27.3779 63.9227 27.3513 63.944C27.3033 63.976 27.2446 64.0053 27.1753 64.032C27.1326 64.0427 27.0899 64.0507 27.0473 64.056C27.0099 64.0667 26.9699 64.0667 26.9273 64.056C26.8419 64.0507 26.7673 64.0187 26.7033 63.96C26.6126 63.8853 26.5379 63.8027 26.4793 63.712C26.4526 63.6693 26.4233 63.6213 26.3913 63.568C26.3593 63.5147 26.3299 63.4587 26.3033 63.4L25.4153 61.712C25.3726 61.712 25.3299 61.7147 25.2873 61.72C25.2446 61.72 25.2019 61.7227 25.1593 61.728C25.0473 61.7387 24.9406 61.7413 24.8393 61.736C24.7433 61.7307 24.6419 61.7307 24.5353 61.736H24.3833V63.184C24.3833 63.2267 24.3806 63.2667 24.3753 63.304C24.3753 63.3413 24.3753 63.3813 24.3753 63.424C24.3753 63.4507 24.3726 63.4853 24.3673 63.528C24.3673 63.5707 24.3646 63.6107 24.3593 63.648C24.3486 63.7067 24.3246 63.768 24.2873 63.832C24.2499 63.8907 24.1993 63.9413 24.1353 63.984C24.0233 64.0533 23.8873 64.072 23.7273 64.04C23.6579 64.024 23.5913 63.9973 23.5273 63.96C23.5059 63.944 23.4873 63.9253 23.4713 63.904C23.4553 63.8773 23.4419 63.8507 23.4313 63.824C23.4206 63.7973 23.4099 63.7707 23.3993 63.744C23.3939 63.712 23.3859 63.6827 23.3753 63.656C23.3593 63.6027 23.3513 63.552 23.3513 63.504V58.96C23.3513 58.928 23.3513 58.896 23.3513 58.864C23.3566 58.8267 23.3619 58.7947 23.3673 58.768C23.3726 58.7093 23.3913 58.6507 23.4233 58.592C23.4393 58.528 23.4659 58.4827 23.5033 58.456C23.5353 58.424 23.5833 58.3973 23.6473 58.376C23.7166 58.3493 23.8153 58.3387 23.9433 58.344C24.1833 58.3493 24.4206 58.352 24.6553 58.352C24.8899 58.352 25.1246 58.3573 25.3593 58.368C25.5139 58.3787 25.6766 58.3973 25.8473 58.424C26.0233 58.4453 26.1859 58.4853 26.3353 58.544C26.4313 58.5813 26.5193 58.6187 26.5993 58.656C26.7006 58.7147 26.7806 58.7707 26.8393 58.824C27.0259 58.9947 27.1673 59.2 27.2633 59.44C27.3593 59.68 27.4073 59.9227 27.4073 60.168C27.4073 60.456 27.3379 60.72 27.1993 60.96C27.0659 61.2 26.8499 61.3787 26.5513 61.496C26.5406 61.5067 26.5246 61.5147 26.5033 61.52C26.4873 61.52 26.4739 61.5227 26.4633 61.528L27.1993 63.008L27.2713 63.136C27.2819 63.1573 27.2953 63.1813 27.3113 63.208C27.3273 63.2347 27.3406 63.2613 27.3513 63.288C27.3673 63.3147 27.3806 63.344 27.3913 63.376C27.4073 63.408 27.4233 63.4373 27.4392 63.464C27.4553 63.5387 27.4686 63.6 27.4793 63.648ZM25.4793 60.8C25.5753 60.8 25.6659 60.784 25.7513 60.752C25.8419 60.7147 25.9219 60.6667 25.9913 60.608C26.0659 60.5493 26.1273 60.4827 26.1753 60.408C26.2233 60.328 26.2499 60.2427 26.2553 60.152C26.2766 59.8853 26.2073 59.688 26.0473 59.56C25.8873 59.4267 25.6766 59.3547 25.4153 59.344C25.2606 59.3333 25.0899 59.328 24.9033 59.328C24.7219 59.328 24.5486 59.328 24.3833 59.328C24.3886 59.5467 24.3886 59.7707 24.3833 60C24.3833 60.224 24.3833 60.4907 24.3833 60.8H25.4793ZM31.5887 58.84C31.7914 59.0267 31.9407 59.2507 32.0367 59.512C32.1327 59.768 32.17 60.024 32.1487 60.28C32.1274 60.5253 32.05 60.752 31.9167 60.96C31.7834 61.1627 31.5807 61.3173 31.3087 61.424C31.0954 61.5147 30.8847 61.5787 30.6767 61.616C30.4687 61.6533 30.2394 61.6827 29.9887 61.704C29.8767 61.7147 29.7807 61.7227 29.7007 61.728C29.626 61.728 29.538 61.7307 29.4367 61.736C29.4154 61.736 29.378 61.736 29.3247 61.736C29.2767 61.736 29.242 61.7387 29.2207 61.744V63.4C29.2047 63.5013 29.1834 63.6053 29.1567 63.712C29.1354 63.8187 29.074 63.9013 28.9727 63.96C28.914 63.992 28.842 64.0107 28.7567 64.016C28.6714 64.0213 28.594 64.0187 28.5247 64.008C28.45 63.9973 28.386 63.9787 28.3327 63.952C28.2847 63.92 28.2447 63.8667 28.2127 63.792C28.1914 63.744 28.17 63.6907 28.1487 63.632C28.1327 63.568 28.1247 63.4907 28.1247 63.4V58.976C28.1247 58.9387 28.1274 58.904 28.1327 58.872C28.138 58.84 28.1434 58.808 28.1487 58.776C28.1594 58.7493 28.1674 58.72 28.1727 58.688C28.178 58.656 28.186 58.6267 28.1967 58.6C28.2074 58.5733 28.218 58.5493 28.2287 58.528C28.2447 58.5067 28.2634 58.488 28.2847 58.472C28.3114 58.4453 28.3514 58.4213 28.4047 58.4C28.4634 58.3787 28.5487 58.368 28.6607 58.368H28.6767C28.842 58.3573 29.026 58.3493 29.2287 58.344C29.4314 58.3333 29.5994 58.336 29.7327 58.352C29.8074 58.3627 29.8767 58.3707 29.9407 58.376C30.0047 58.376 30.066 58.3787 30.1247 58.384C30.1887 58.3893 30.2527 58.3947 30.3167 58.4C30.3807 58.4053 30.4447 58.4133 30.5087 58.424C30.562 58.4347 30.61 58.4427 30.6527 58.448C30.7007 58.4533 30.7487 58.4613 30.7967 58.472C30.8394 58.4827 30.8847 58.4933 30.9327 58.504C30.986 58.5147 31.034 58.5333 31.0767 58.56C31.1887 58.592 31.282 58.632 31.3567 58.68C31.4314 58.728 31.5087 58.7813 31.5887 58.84ZM31.1087 60.16C31.114 60.032 31.0874 59.92 31.0287 59.824C30.9754 59.728 30.898 59.648 30.7967 59.584C30.6954 59.52 30.5807 59.4693 30.4527 59.432C30.3247 59.3947 30.1967 59.368 30.0687 59.352C30.0367 59.352 29.9914 59.352 29.9327 59.352C29.8794 59.3467 29.8207 59.344 29.7567 59.344C29.6927 59.3387 29.6314 59.336 29.5727 59.336C29.5194 59.3307 29.4767 59.328 29.4447 59.328C29.418 59.3227 29.386 59.32 29.3487 59.32C29.3114 59.32 29.2687 59.32 29.2207 59.32C29.226 59.4853 29.2287 59.6453 29.2287 59.8C29.2287 59.9493 29.2287 60.112 29.2287 60.288C29.2234 60.384 29.2207 60.48 29.2207 60.576C29.2207 60.672 29.2207 60.7653 29.2207 60.856L29.7167 60.848C29.8447 60.848 29.986 60.84 30.1407 60.824C30.2954 60.808 30.442 60.776 30.5807 60.728C30.7194 60.68 30.8367 60.6107 30.9327 60.52C31.034 60.4293 31.0927 60.3093 31.1087 60.16ZM33.0524 63.152L33.0604 62.52L33.0684 61.344C33.0737 61.1733 33.0764 60.9973 33.0764 60.816C33.0764 60.6347 33.0764 60.448 33.0764 60.256C33.0764 60.064 33.0764 59.8933 33.0764 59.744C33.0764 59.5947 33.0817 59.4267 33.0924 59.24V59.208C33.0977 59.1547 33.1004 59.1013 33.1004 59.048C33.1057 58.9893 33.1084 58.9307 33.1084 58.872C33.1137 58.776 33.143 58.672 33.1964 58.56C33.2337 58.4853 33.2897 58.4213 33.3644 58.368C33.4497 58.3253 33.5324 58.304 33.6124 58.304C33.655 58.304 33.6924 58.3067 33.7244 58.312C33.7617 58.312 33.7964 58.3147 33.8284 58.32C33.8977 58.3307 33.959 58.3627 34.0124 58.416C34.0444 58.4427 34.0737 58.4853 34.1004 58.544C34.111 58.576 34.119 58.608 34.1244 58.64C34.135 58.6667 34.143 58.696 34.1484 58.728C34.1537 58.7653 34.1564 58.8 34.1564 58.832C34.1617 58.864 34.1644 58.896 34.1644 58.928C34.1644 58.9653 34.1617 59 34.1564 59.032C34.1564 59.0587 34.1564 59.088 34.1564 59.12V59.256L34.1084 63.408V63.488C34.1084 63.504 34.1057 63.5253 34.1004 63.552C34.1004 63.5733 34.0977 63.6 34.0924 63.632C34.0817 63.6587 34.071 63.688 34.0604 63.72C34.055 63.7467 34.047 63.776 34.0364 63.808C34.0204 63.8347 34.0017 63.8613 33.9804 63.888C33.9644 63.9093 33.943 63.9307 33.9164 63.952C33.8737 63.9947 33.8044 64.024 33.7084 64.04C33.5644 64.072 33.4284 64.0587 33.3004 64C33.2364 63.9573 33.191 63.904 33.1644 63.84C33.1484 63.824 33.1404 63.808 33.1404 63.792C33.135 63.7813 33.1297 63.7733 33.1244 63.768C33.119 63.7627 33.1137 63.7547 33.1084 63.744C33.0977 63.7173 33.0897 63.6907 33.0844 63.664C33.079 63.632 33.0764 63.6 33.0764 63.568C33.071 63.5413 33.0657 63.5147 33.0604 63.488C33.0604 63.4613 33.0577 63.4347 33.0524 63.408C33.047 63.3653 33.047 63.32 33.0524 63.272V63.152ZM38.7426 63.392C38.7532 63.4187 38.7586 63.4587 38.7586 63.512C38.7586 63.56 38.7586 63.6 38.7586 63.632C38.7586 63.6747 38.7506 63.7147 38.7346 63.752C38.7186 63.7893 38.6972 63.824 38.6706 63.856C38.6226 63.92 38.5532 63.968 38.4626 64C38.3346 64.0427 38.2146 64.064 38.1026 64.064C38.0439 64.0693 37.9826 64.072 37.9186 64.072C37.8546 64.072 37.7906 64.0773 37.7266 64.088H37.6946C37.2839 64.0933 36.8599 64.0933 36.4226 64.088C36.3159 64.0827 36.1959 64.0827 36.0626 64.088C35.9292 64.0987 35.7986 64.096 35.6706 64.08C35.5426 64.0693 35.4252 64.04 35.3186 63.992C35.2172 63.9387 35.1452 63.856 35.1026 63.744C35.0919 63.7173 35.0839 63.6933 35.0786 63.672C35.0732 63.6453 35.0706 63.6187 35.0706 63.592C35.0492 63.4107 35.0412 63.232 35.0466 63.056C35.0519 62.88 35.0546 62.7067 35.0546 62.536L35.0706 61.376V60.304C35.0706 60.112 35.0706 59.9413 35.0706 59.792C35.0759 59.6427 35.0812 59.4773 35.0866 59.296V59.256C35.0919 59.2027 35.0946 59.1493 35.0946 59.096C35.0999 59.0427 35.1026 58.9893 35.1026 58.936C35.1132 58.8133 35.1426 58.7093 35.1906 58.624C35.2226 58.544 35.2786 58.48 35.3586 58.432C35.4279 58.384 35.5106 58.36 35.6066 58.36C35.6439 58.36 35.6786 58.3627 35.7106 58.368C35.7479 58.368 35.7826 58.3707 35.8146 58.376C35.8466 58.3813 35.8759 58.392 35.9026 58.408C35.9346 58.424 35.9666 58.4453 35.9986 58.472C36.0306 58.5093 36.0599 58.5547 36.0866 58.608C36.1079 58.6667 36.1212 58.7253 36.1266 58.784C36.1319 58.8213 36.1372 58.856 36.1426 58.888C36.1479 58.92 36.1506 58.952 36.1506 58.984C36.1399 59.016 36.1346 59.048 36.1346 59.08C36.1346 59.112 36.1346 59.1413 36.1346 59.168V59.312L36.1026 63.08L37.6866 63.096H38.0626C38.0946 63.096 38.1292 63.0987 38.1666 63.104C38.2039 63.104 38.2412 63.1067 38.2786 63.112C38.3212 63.1173 38.3586 63.1227 38.3906 63.128C38.4226 63.1333 38.4546 63.1413 38.4866 63.152C38.5452 63.168 38.5932 63.1947 38.6306 63.232C38.6892 63.2853 38.7266 63.3387 38.7426 63.392ZM43.0941 63.392C43.1048 63.4187 43.1101 63.4587 43.1101 63.512C43.1101 63.56 43.1101 63.6 43.1101 63.632C43.1101 63.6747 43.1021 63.7147 43.0861 63.752C43.0701 63.7893 43.0488 63.824 43.0221 63.856C42.9741 63.92 42.9048 63.968 42.8141 64C42.6861 64.0427 42.5661 64.064 42.4541 64.064C42.3955 64.0693 42.3341 64.072 42.2701 64.072C42.2061 64.072 42.1421 64.0773 42.0781 64.088H42.0461C41.6355 64.0933 41.2115 64.0933 40.7741 64.088C40.6675 64.0827 40.5475 64.0827 40.4141 64.088C40.2808 64.0987 40.1501 64.096 40.0221 64.08C39.8941 64.0693 39.7768 64.04 39.6701 63.992C39.5688 63.9387 39.4968 63.856 39.4541 63.744C39.4435 63.7173 39.4355 63.6933 39.4301 63.672C39.4248 63.6453 39.4221 63.6187 39.4221 63.592C39.4008 63.4107 39.3928 63.232 39.3981 63.056C39.4035 62.88 39.4061 62.7067 39.4061 62.536L39.4221 61.376V60.304C39.4221 60.112 39.4221 59.9413 39.4221 59.792C39.4275 59.6427 39.4328 59.4773 39.4381 59.296V59.256C39.4435 59.2027 39.4461 59.1493 39.4461 59.096C39.4515 59.0427 39.4541 58.9893 39.4541 58.936C39.4648 58.8133 39.4941 58.7093 39.5421 58.624C39.5741 58.544 39.6301 58.48 39.7101 58.432C39.7795 58.384 39.8621 58.36 39.9581 58.36C39.9955 58.36 40.0301 58.3627 40.0621 58.368C40.0995 58.368 40.1341 58.3707 40.1661 58.376C40.1981 58.3813 40.2275 58.392 40.2541 58.408C40.2861 58.424 40.3181 58.4453 40.3501 58.472C40.3821 58.5093 40.4115 58.5547 40.4381 58.608C40.4595 58.6667 40.4728 58.7253 40.4781 58.784C40.4835 58.8213 40.4888 58.856 40.4941 58.888C40.4995 58.92 40.5021 58.952 40.5021 58.984C40.4915 59.016 40.4861 59.048 40.4861 59.08C40.4861 59.112 40.4861 59.1413 40.4861 59.168V59.312L40.4541 63.08L42.0381 63.096H42.4141C42.4461 63.096 42.4808 63.0987 42.5181 63.104C42.5555 63.104 42.5928 63.1067 42.6301 63.112C42.6728 63.1173 42.7101 63.1227 42.7421 63.128C42.7741 63.1333 42.8061 63.1413 42.8381 63.152C42.8968 63.168 42.9448 63.1947 42.9821 63.232C43.0408 63.2853 43.0781 63.3387 43.0941 63.392ZM43.9977 63.152L44.0057 62.52L44.0137 61.344C44.019 61.1733 44.0217 60.9973 44.0217 60.816C44.0217 60.6347 44.0217 60.448 44.0217 60.256C44.0217 60.064 44.0217 59.8933 44.0217 59.744C44.0217 59.5947 44.027 59.4267 44.0377 59.24V59.208C44.043 59.1547 44.0457 59.1013 44.0457 59.048C44.051 58.9893 44.0537 58.9307 44.0537 58.872C44.059 58.776 44.0884 58.672 44.1417 58.56C44.179 58.4853 44.235 58.4213 44.3097 58.368C44.395 58.3253 44.4777 58.304 44.5577 58.304C44.6004 58.304 44.6377 58.3067 44.6697 58.312C44.707 58.312 44.7417 58.3147 44.7737 58.32C44.843 58.3307 44.9044 58.3627 44.9577 58.416C44.9897 58.4427 45.019 58.4853 45.0457 58.544C45.0564 58.576 45.0644 58.608 45.0697 58.64C45.0804 58.6667 45.0884 58.696 45.0937 58.728C45.099 58.7653 45.1017 58.8 45.1017 58.832C45.107 58.864 45.1097 58.896 45.1097 58.928C45.1097 58.9653 45.107 59 45.1017 59.032C45.1017 59.0587 45.1017 59.088 45.1017 59.12V59.256L45.0537 63.408V63.488C45.0537 63.504 45.051 63.5253 45.0457 63.552C45.0457 63.5733 45.043 63.6 45.0377 63.632C45.027 63.6587 45.0164 63.688 45.0057 63.72C45.0004 63.7467 44.9924 63.776 44.9817 63.808C44.9657 63.8347 44.947 63.8613 44.9257 63.888C44.9097 63.9093 44.8884 63.9307 44.8617 63.952C44.819 63.9947 44.7497 64.024 44.6537 64.04C44.5097 64.072 44.3737 64.0587 44.2457 64C44.1817 63.9573 44.1364 63.904 44.1097 63.84C44.0937 63.824 44.0857 63.808 44.0857 63.792C44.0804 63.7813 44.075 63.7733 44.0697 63.768C44.0644 63.7627 44.059 63.7547 44.0537 63.744C44.043 63.7173 44.035 63.6907 44.0297 63.664C44.0244 63.632 44.0217 63.6 44.0217 63.568C44.0164 63.5413 44.011 63.5147 44.0057 63.488C44.0057 63.4613 44.003 63.4347 43.9977 63.408C43.9924 63.3653 43.9924 63.32 43.9977 63.272V63.152ZM47.0879 59.296L47.0719 60.552H47.3919C47.6105 60.5467 47.8052 60.544 47.9759 60.544C48.1465 60.544 48.3359 60.5467 48.5439 60.552H48.5839C48.6479 60.552 48.7092 60.5547 48.7679 60.56C48.8319 60.56 48.8932 60.56 48.9519 60.56C49.0159 60.5653 49.0772 60.576 49.1359 60.592C49.1945 60.6027 49.2532 60.616 49.3119 60.632C49.4025 60.664 49.4772 60.712 49.5359 60.776C49.5892 60.8453 49.6159 60.9227 49.6159 61.008C49.6159 61.0347 49.6159 61.0667 49.6159 61.104C49.6159 61.136 49.6105 61.1653 49.5999 61.192C49.5892 61.2507 49.5545 61.304 49.4959 61.352C49.4692 61.3893 49.4185 61.416 49.3439 61.432C49.2745 61.4533 49.2052 61.4667 49.1359 61.472C49.0612 61.488 48.9865 61.496 48.9119 61.496H48.5359L47.0559 61.504L47.0399 63.072L48.6319 63.088H49.0079C49.0505 63.088 49.0905 63.088 49.1279 63.088C49.1652 63.088 49.1999 63.0907 49.2319 63.096C49.2745 63.1067 49.3119 63.1147 49.3439 63.12C49.3812 63.12 49.4159 63.1253 49.4479 63.136C49.5119 63.1573 49.5652 63.1867 49.6079 63.224C49.6612 63.2773 49.6959 63.3333 49.7119 63.392C49.7172 63.4187 49.7199 63.448 49.7199 63.48C49.7252 63.5067 49.7252 63.536 49.7199 63.568C49.7199 63.6533 49.6932 63.7307 49.6399 63.8C49.5759 63.8747 49.5012 63.9227 49.4159 63.944C49.3039 63.992 49.1812 64.016 49.0479 64.016C48.9892 64.0213 48.9279 64.024 48.8639 64.024C48.7999 64.024 48.7385 64.0267 48.6799 64.032H48.6319C48.2159 64.0427 47.7839 64.0427 47.3359 64.032C47.2292 64.032 47.1439 64.0293 47.0799 64.024C47.0159 64.024 46.9572 64.024 46.9039 64.024C46.8559 64.024 46.8052 64.024 46.7519 64.024C46.6985 64.024 46.6292 64.024 46.5439 64.024C46.4212 64.0347 46.3199 64.0133 46.2399 63.96C46.1812 63.9227 46.1359 63.872 46.1039 63.808C46.0879 63.792 46.0799 63.776 46.0799 63.76C46.0745 63.7493 46.0692 63.7413 46.0639 63.736C46.0585 63.7307 46.0532 63.7227 46.0479 63.712C46.0372 63.6853 46.0292 63.6587 46.0239 63.632C46.0185 63.6 46.0159 63.5707 46.0159 63.544C46.0105 63.5173 46.0052 63.4907 45.9999 63.464C45.9999 63.4373 45.9972 63.4107 45.9919 63.384V63.256C45.9919 63.2347 45.9919 63.2133 45.9919 63.192C45.9972 63.1707 45.9999 63.1493 45.9999 63.128V62.504L46.0159 61.352V60.288C46.0159 60.096 46.0159 59.9253 46.0159 59.776C46.0212 59.6267 46.0265 59.464 46.0319 59.288V59.248C46.0372 59.1893 46.0399 59.136 46.0399 59.088C46.0452 59.0347 46.0479 58.9813 46.0479 58.928C46.0532 58.8213 46.0825 58.7173 46.1359 58.616C46.1572 58.5733 46.1785 58.536 46.1999 58.504C46.2265 58.472 46.2612 58.4453 46.3039 58.424C46.3839 58.376 46.4665 58.352 46.5519 58.352C46.5945 58.352 46.6265 58.3547 46.6479 58.36V58.352C46.7439 58.352 46.8212 58.352 46.8799 58.352C46.9385 58.352 46.9945 58.352 47.0479 58.352C47.1065 58.352 47.1679 58.352 47.2319 58.352C47.2959 58.3467 47.3839 58.344 47.4959 58.344C47.7092 58.3387 47.9119 58.336 48.1039 58.336C48.2959 58.336 48.4932 58.3387 48.6959 58.344H48.7279C48.7865 58.3493 48.8479 58.352 48.9119 58.352C48.9759 58.352 49.0372 58.3547 49.0959 58.36C49.1545 58.36 49.2132 58.368 49.2719 58.384C49.3305 58.3947 49.3892 58.4107 49.4479 58.432C49.5385 58.4587 49.6132 58.504 49.6719 58.568C49.7199 58.6427 49.7439 58.7173 49.7439 58.792C49.7439 58.824 49.7439 58.856 49.7439 58.888C49.7439 58.9147 49.7385 58.9413 49.7279 58.968C49.7225 59.0213 49.6905 59.0773 49.6319 59.136C49.6105 59.1467 49.5865 59.16 49.5599 59.176C49.5385 59.192 49.5119 59.2053 49.4799 59.216C49.4479 59.2267 49.4132 59.2347 49.3759 59.24C49.3439 59.24 49.3119 59.2427 49.2799 59.248C49.2372 59.2587 49.1972 59.264 49.1599 59.264C49.1279 59.264 49.0905 59.264 49.0479 59.264H48.6879L47.0879 59.272V59.296ZM54.5105 63.648C54.5158 63.7013 54.5105 63.752 54.4945 63.8C54.4838 63.832 54.4678 63.8587 54.4465 63.88C54.4305 63.9013 54.4092 63.9227 54.3825 63.944C54.3345 63.976 54.2758 64.0053 54.2065 64.032C54.1638 64.0427 54.1212 64.0507 54.0785 64.056C54.0412 64.0667 54.0012 64.0667 53.9585 64.056C53.8732 64.0507 53.7985 64.0187 53.7345 63.96C53.6438 63.8853 53.5692 63.8027 53.5105 63.712C53.4838 63.6693 53.4545 63.6213 53.4225 63.568C53.3905 63.5147 53.3612 63.4587 53.3345 63.4L52.4465 61.712C52.4038 61.712 52.3612 61.7147 52.3185 61.72C52.2758 61.72 52.2332 61.7227 52.1905 61.728C52.0785 61.7387 51.9718 61.7413 51.8705 61.736C51.7745 61.7307 51.6732 61.7307 51.5665 61.736H51.4145V63.184C51.4145 63.2267 51.4118 63.2667 51.4065 63.304C51.4065 63.3413 51.4065 63.3813 51.4065 63.424C51.4065 63.4507 51.4038 63.4853 51.3985 63.528C51.3985 63.5707 51.3958 63.6107 51.3905 63.648C51.3798 63.7067 51.3558 63.768 51.3185 63.832C51.2812 63.8907 51.2305 63.9413 51.1665 63.984C51.0545 64.0533 50.9185 64.072 50.7585 64.04C50.6892 64.024 50.6225 63.9973 50.5585 63.96C50.5372 63.944 50.5185 63.9253 50.5025 63.904C50.4865 63.8773 50.4732 63.8507 50.4625 63.824C50.4518 63.7973 50.4412 63.7707 50.4305 63.744C50.4252 63.712 50.4172 63.6827 50.4065 63.656C50.3905 63.6027 50.3825 63.552 50.3825 63.504V58.96C50.3825 58.928 50.3825 58.896 50.3825 58.864C50.3878 58.8267 50.3932 58.7947 50.3985 58.768C50.4038 58.7093 50.4225 58.6507 50.4545 58.592C50.4705 58.528 50.4972 58.4827 50.5345 58.456C50.5665 58.424 50.6145 58.3973 50.6785 58.376C50.7478 58.3493 50.8465 58.3387 50.9745 58.344C51.2145 58.3493 51.4518 58.352 51.6865 58.352C51.9212 58.352 52.1558 58.3573 52.3905 58.368C52.5452 58.3787 52.7078 58.3973 52.8785 58.424C53.0545 58.4453 53.2172 58.4853 53.3665 58.544C53.4625 58.5813 53.5505 58.6187 53.6305 58.656C53.7318 58.7147 53.8118 58.7707 53.8705 58.824C54.0572 58.9947 54.1985 59.2 54.2945 59.44C54.3905 59.68 54.4385 59.9227 54.4385 60.168C54.4385 60.456 54.3692 60.72 54.2305 60.96C54.0972 61.2 53.8812 61.3787 53.5825 61.496C53.5718 61.5067 53.5558 61.5147 53.5345 61.52C53.5185 61.52 53.5052 61.5227 53.4945 61.528L54.2305 63.008L54.3025 63.136C54.3132 63.1573 54.3265 63.1813 54.3425 63.208C54.3585 63.2347 54.3718 63.2613 54.3825 63.288C54.3985 63.3147 54.4118 63.344 54.4225 63.376C54.4385 63.408 54.4545 63.4373 54.4705 63.464C54.4865 63.5387 54.4998 63.6 54.5105 63.648ZM52.5105 60.8C52.6065 60.8 52.6972 60.784 52.7825 60.752C52.8732 60.7147 52.9532 60.6667 53.0225 60.608C53.0972 60.5493 53.1585 60.4827 53.2065 60.408C53.2545 60.328 53.2812 60.2427 53.2865 60.152C53.3078 59.8853 53.2385 59.688 53.0785 59.56C52.9185 59.4267 52.7078 59.3547 52.4465 59.344C52.2918 59.3333 52.1212 59.328 51.9345 59.328C51.7532 59.328 51.5798 59.328 51.4145 59.328C51.4198 59.5467 51.4198 59.7707 51.4145 60C51.4145 60.224 51.4145 60.4907 51.4145 60.8H52.5105ZM56.2519 59.296L56.2359 60.552H56.5559C56.7746 60.5467 56.9693 60.544 57.1399 60.544C57.3106 60.544 57.4999 60.5467 57.7079 60.552H57.7479C57.8119 60.552 57.8733 60.5547 57.9319 60.56C57.9959 60.56 58.0573 60.56 58.1159 60.56C58.1799 60.5653 58.2413 60.576 58.2999 60.592C58.3586 60.6027 58.4173 60.616 58.4759 60.632C58.5666 60.664 58.6413 60.712 58.6999 60.776C58.7533 60.8453 58.7799 60.9227 58.7799 61.008C58.7799 61.0347 58.7799 61.0667 58.7799 61.104C58.7799 61.136 58.7746 61.1653 58.7639 61.192C58.7533 61.2507 58.7186 61.304 58.6599 61.352C58.6333 61.3893 58.5826 61.416 58.5079 61.432C58.4386 61.4533 58.3693 61.4667 58.2999 61.472C58.2253 61.488 58.1506 61.496 58.0759 61.496H57.6999L56.2199 61.504L56.2039 63.072L57.7959 63.088H58.1719C58.2146 63.088 58.2546 63.088 58.2919 63.088C58.3293 63.088 58.3639 63.0907 58.3959 63.096C58.4386 63.1067 58.4759 63.1147 58.5079 63.12C58.5453 63.12 58.5799 63.1253 58.6119 63.136C58.6759 63.1573 58.7293 63.1867 58.7719 63.224C58.8253 63.2773 58.8599 63.3333 58.8759 63.392C58.8813 63.4187 58.8839 63.448 58.8839 63.48C58.8893 63.5067 58.8893 63.536 58.8839 63.568C58.8839 63.6533 58.8573 63.7307 58.8039 63.8C58.7399 63.8747 58.6653 63.9227 58.5799 63.944C58.4679 63.992 58.3453 64.016 58.2119 64.016C58.1533 64.0213 58.0919 64.024 58.0279 64.024C57.9639 64.024 57.9026 64.0267 57.8439 64.032H57.7959C57.3799 64.0427 56.9479 64.0427 56.4999 64.032C56.3933 64.032 56.3079 64.0293 56.2439 64.024C56.1799 64.024 56.1213 64.024 56.0679 64.024C56.0199 64.024 55.9693 64.024 55.9159 64.024C55.8626 64.024 55.7933 64.024 55.7079 64.024C55.5853 64.0347 55.4839 64.0133 55.4039 63.96C55.3453 63.9227 55.2999 63.872 55.2679 63.808C55.2519 63.792 55.2439 63.776 55.2439 63.76C55.2386 63.7493 55.2333 63.7413 55.2279 63.736C55.2226 63.7307 55.2173 63.7227 55.2119 63.712C55.2013 63.6853 55.1933 63.6587 55.1879 63.632C55.1826 63.6 55.1799 63.5707 55.1799 63.544C55.1746 63.5173 55.1693 63.4907 55.1639 63.464C55.1639 63.4373 55.1613 63.4107 55.1559 63.384V63.256C55.1559 63.2347 55.1559 63.2133 55.1559 63.192C55.1613 63.1707 55.1639 63.1493 55.1639 63.128V62.504L55.1799 61.352V60.288C55.1799 60.096 55.1799 59.9253 55.1799 59.776C55.1853 59.6267 55.1906 59.464 55.1959 59.288V59.248C55.2013 59.1893 55.2039 59.136 55.2039 59.088C55.2093 59.0347 55.2119 58.9813 55.2119 58.928C55.2173 58.8213 55.2466 58.7173 55.2999 58.616C55.3213 58.5733 55.3426 58.536 55.3639 58.504C55.3906 58.472 55.4253 58.4453 55.4679 58.424C55.5479 58.376 55.6306 58.352 55.7159 58.352C55.7586 58.352 55.7906 58.3547 55.8119 58.36V58.352C55.9079 58.352 55.9853 58.352 56.0439 58.352C56.1026 58.352 56.1586 58.352 56.2119 58.352C56.2706 58.352 56.3319 58.352 56.3959 58.352C56.4599 58.3467 56.5479 58.344 56.6599 58.344C56.8733 58.3387 57.0759 58.336 57.2679 58.336C57.4599 58.336 57.6573 58.3387 57.8599 58.344H57.8919C57.9506 58.3493 58.0119 58.352 58.0759 58.352C58.1399 58.352 58.2013 58.3547 58.2599 58.36C58.3186 58.36 58.3773 58.368 58.4359 58.384C58.4946 58.3947 58.5533 58.4107 58.6119 58.432C58.7026 58.4587 58.7773 58.504 58.8359 58.568C58.8839 58.6427 58.9079 58.7173 58.9079 58.792C58.9079 58.824 58.9079 58.856 58.9079 58.888C58.9079 58.9147 58.9026 58.9413 58.8919 58.968C58.8866 59.0213 58.8546 59.0773 58.7959 59.136C58.7746 59.1467 58.7506 59.16 58.7239 59.176C58.7026 59.192 58.6759 59.2053 58.6439 59.216C58.6119 59.2267 58.5773 59.2347 58.5399 59.24C58.5079 59.24 58.4759 59.2427 58.4439 59.248C58.4013 59.2587 58.3613 59.264 58.3239 59.264C58.2919 59.264 58.2546 59.264 58.2119 59.264H57.8519L56.2519 59.272V59.296Z" fill="#FAFAFA"/>
<defs>
<clipPath id="clip0">
<rect width="45" height="45" fill="white" transform="translate(15 11)"/>
</clipPath>
</defs>
</svg>
