<svg width="75" height="75" viewBox="0 0 75 75" fill="none" xmlns="http://www.w3.org/2000/svg">
<path d="M43.6272 15.4846H47.5768V18.6791H48.9262V15.4846H52.1264L54.6841 16.6169C54.7709 16.6594 54.8658 16.6842 54.9629 16.6896C55.2799 16.6936 55.5556 16.4862 55.6233 16.1934C55.6909 15.9004 55.5317 15.6027 55.2425 15.4806L52.5509 14.293C52.4651 14.2465 52.3704 14.2168 52.2716 14.2068H43.6272C43.2544 14.2068 42.9525 14.4927 42.9525 14.8457C42.9525 15.1984 43.2544 15.4846 43.6272 15.4846Z" fill="#FAFAFA"/>
<path d="M56.6487 17.6658C56.5236 17.4875 56.313 17.3807 56.087 17.3807C55.861 17.3807 55.6504 17.4875 55.5247 17.6658L54.0144 19.8188C53.3238 20.8029 53.5094 22.1181 54.4477 22.896C55.3864 23.6738 56.7876 23.6738 57.7263 22.896C58.6643 22.1181 58.8497 20.8029 58.1596 19.8188L56.6487 17.6658Z" fill="#FAFAFA"/>
<path d="M35.2828 49.3229C36.1916 49.3226 37.099 49.2533 37.9963 49.1157C37.7489 47.7187 37.5708 46.2072 37.4627 44.908C36.7422 45.0292 36.012 45.0906 35.2801 45.0906C28.4446 45.0906 22.8843 39.8245 22.8843 33.3511C22.8843 26.8777 28.4491 21.6116 35.2846 21.6116C38.2979 21.6079 41.2098 22.6417 43.4764 24.5213C44.1918 24.3538 44.9174 24.2283 45.6491 24.1452V22.5124H44.9322C44.7628 22.521 44.5974 22.4614 44.4769 22.3484C44.3563 22.2351 44.2921 22.079 44.2997 21.9183V19.8327C41.603 18.2262 38.4812 17.3753 35.2952 17.3785C25.995 17.3785 18.4197 24.5435 18.4197 33.3508C18.4197 42.1575 25.9827 49.3229 35.2828 49.3229Z" fill="#FAFAFA"/>
<path d="M48.2514 23.9909C48.6757 23.9909 49.0225 24.0026 49.5044 24.0251V22.5125H46.9985V24.0274C47.3839 24.004 47.8323 23.9909 48.2514 23.9909Z" fill="#FAFAFA"/>
<path d="M32.5819 28.7415C32.5819 29.423 31.9982 29.9751 31.2786 29.9751C30.5593 29.9751 29.9759 29.423 29.9759 28.7415C29.9759 28.0601 30.5593 27.5077 31.2786 27.5077C31.9982 27.5077 32.5819 28.0601 32.5819 28.7415Z" fill="#FAFAFA"/>
<path d="M45.649 19.5919H50.8537V21.2347H45.649V19.5919Z" fill="#FAFAFA"/>
<path d="M41.8865 24.9659C38.0369 22.2454 32.7714 22.1924 28.8616 24.8344C24.9514 27.4767 23.292 32.2089 24.7571 36.5408C26.2219 40.8729 30.4749 43.8126 35.2785 43.8126C35.9812 43.8123 36.6822 43.749 37.3722 43.624C37.3412 43.0507 37.3249 42.5208 37.3249 42.07C37.3249 38.9472 38.083 35.9182 39.4695 33.4631C37.3776 32.1727 36.9172 30.7845 36.9172 29.8128C36.9172 27.8265 38.7915 26.028 41.8865 24.9659ZM34.2874 29.3477C33.1707 29.7027 32.2941 30.5331 31.9186 31.5906C31.827 31.8511 31.5694 32.0274 31.2786 32.0274C30.9884 32.0274 30.7305 31.8511 30.6385 31.5906C30.2637 30.5328 29.3871 29.7027 28.2701 29.3477C27.9949 29.2607 27.809 29.0165 27.809 28.7417C27.809 28.4663 27.9949 28.2226 28.2701 28.1356C29.3871 27.78 30.2637 26.9499 30.6385 25.8928C30.7305 25.6316 30.9884 25.4559 31.2786 25.4559C31.5694 25.4559 31.827 25.6316 31.9186 25.8928C32.2941 26.9499 33.1707 27.78 34.2874 28.1356C34.5629 28.2226 34.7488 28.4663 34.7488 28.7417C34.7488 29.0165 34.5629 29.2607 34.2874 29.3477Z" fill="#FAFAFA"/>
<path d="M55.6797 32.7579C57.2544 31.9181 58.1216 30.8729 58.1216 29.8134C58.1216 27.35 53.5753 25.2689 48.1941 25.2689C46.5898 25.2627 44.9916 25.4544 43.44 25.8402C40.2974 26.6489 38.2666 28.2086 38.2666 29.8136C38.2666 31.1077 39.5949 32.0876 40.7089 32.6811C40.8671 32.7659 40.9828 32.9074 41.0295 33.0741C41.0769 33.2404 41.0507 33.4176 40.9582 33.566C39.4859 35.9161 38.6743 38.9397 38.6743 42.0748C38.6743 42.6398 38.7014 43.344 38.7524 44.1016C38.8672 45.8448 39.0817 47.5803 39.3957 49.3012C39.4753 49.4282 39.5048 49.5777 39.4801 49.7235C39.5871 50.2394 39.7052 50.7143 39.8342 51.1486C39.9532 51.5389 40.3298 51.8086 40.7589 51.81H55.6296C56.0587 51.8086 56.4354 51.5389 56.554 51.1486C57.311 48.5984 57.7139 44.2283 57.7139 42.0642C57.7139 38.979 56.9027 35.9883 55.4301 33.6376C55.3373 33.4904 55.3117 33.3137 55.3588 33.1483C55.4054 32.9824 55.5215 32.8415 55.6797 32.7579ZM55.6658 42.7222C55.6658 44.1963 55.4069 47.245 54.8512 49.1528C54.6364 49.8702 53.9388 50.361 53.1514 50.3496H43.2372C42.4495 50.361 41.7522 49.8702 41.5367 49.1528C40.9816 47.245 40.7228 44.2015 40.7228 42.7274C40.7228 40.1227 41.4725 37.669 42.8333 35.8122C44.2469 33.8847 46.1508 32.8243 48.1938 32.8243C50.2369 32.8243 52.1404 33.8816 53.5543 35.8094C54.916 37.6653 55.6658 40.1176 55.6658 42.7222Z" fill="#FAFAFA"/>
<path d="M48.1941 34.0979C44.8182 34.0979 42.0721 37.9641 42.0721 42.7222C42.0721 44.1827 42.3379 47.0972 42.8376 48.813C42.8906 48.9771 43.0563 49.0844 43.2371 49.0718H53.1514C53.3319 49.0844 53.4979 48.9771 53.5504 48.813C54.05 47.0972 54.3163 44.1741 54.3163 42.7137C54.3163 37.9552 51.57 34.0979 48.1941 34.0979Z" fill="#FAFAFA"/>
<path d="M18.2051 51.7153C18.297 51.9761 18.5549 52.1518 18.8451 52.1518C19.1359 52.1518 19.3932 51.9761 19.4852 51.7153C20.0131 50.2275 21.2465 49.0598 22.8177 48.5599C23.0934 48.4728 23.2793 48.2286 23.2793 47.9538C23.2793 47.6788 23.0934 47.4348 22.8177 47.3477C21.2465 46.8478 20.0131 45.6799 19.4852 44.192C19.3932 43.9315 19.1359 43.7555 18.8451 43.7555C18.5549 43.7555 18.297 43.9315 18.2051 44.192C17.6774 45.6799 16.4444 46.8478 14.8729 47.3477C14.5975 47.4348 14.4116 47.6788 14.4116 47.9538C14.4116 48.2286 14.5975 48.4728 14.8729 48.5599C16.4444 49.0598 17.6774 50.2275 18.2051 51.7153Z" fill="#FAFAFA"/>
<path d="M20.534 54.3457C20.5643 54.4609 20.5673 54.5786 20.5431 54.6988C20.5249 54.814 20.4977 54.9192 20.4614 55.0144C20.3887 55.2097 20.304 55.4276 20.2071 55.668C20.1103 55.9084 20.0134 56.1489 19.9165 56.3893C19.8197 56.6297 19.7258 56.8576 19.635 57.073C19.5442 57.2833 19.4685 57.4585 19.408 57.5989C19.3475 57.7289 19.2839 57.8769 19.2173 58.0421C19.1507 58.2074 19.069 58.3704 18.9721 58.5305C18.8813 58.6859 18.7723 58.8287 18.6452 58.9587C18.5241 59.0888 18.3758 59.1841 18.2002 59.2442C18.0246 59.3043 17.8642 59.3194 17.7189 59.2893C17.5736 59.2541 17.4434 59.194 17.3284 59.109C17.2134 59.0188 17.1074 58.9085 17.0106 58.7784C16.9197 58.6432 16.838 58.5056 16.7654 58.3652C16.6927 58.2248 16.6261 58.0896 16.5656 57.9595C16.5051 57.8243 16.4506 57.7092 16.4021 57.6139C16.2145 57.2735 16.045 56.9127 15.8936 56.532C15.7423 56.1513 15.5879 55.7882 15.4304 55.4426C15.3881 55.3425 15.3396 55.2223 15.2852 55.082C15.2307 54.9368 15.1943 54.794 15.1762 54.6538C15.1641 54.5085 15.1853 54.3783 15.2397 54.2631C15.2942 54.1429 15.4093 54.0602 15.5848 54.0152C15.6212 54.0052 15.6575 53.9976 15.6938 53.9926C15.7362 53.9826 15.7755 53.9751 15.8119 53.9701C15.8543 53.9701 15.8936 53.9726 15.9299 53.9776C15.9662 53.9826 16.0056 53.9951 16.048 54.0152C16.0783 54.0252 16.1085 54.0377 16.1388 54.0527C16.1691 54.0627 16.1963 54.0778 16.2205 54.0978C16.2447 54.1228 16.2659 54.1479 16.2841 54.1729C16.3083 54.198 16.3325 54.223 16.3567 54.2481C16.3749 54.2831 16.39 54.3157 16.4021 54.3457C16.4203 54.3708 16.4354 54.3958 16.4475 54.4209C16.4597 54.4559 16.4748 54.4885 16.4929 54.5185C16.5111 54.5436 16.5263 54.5686 16.5383 54.5937L16.5928 54.7214L17.9005 57.8092L19.19 54.7289L19.2536 54.6012C19.2657 54.5761 19.2778 54.5511 19.2899 54.526C19.3021 54.496 19.3141 54.4635 19.3262 54.4284C19.3384 54.4033 19.3505 54.3783 19.3626 54.3532C19.3807 54.3232 19.4019 54.2931 19.4261 54.2631C19.4443 54.2381 19.4624 54.213 19.4806 54.188C19.5048 54.1579 19.5291 54.1303 19.5533 54.1053C19.5714 54.0853 19.5926 54.0678 19.6168 54.0527C19.6471 54.0377 19.6744 54.0252 19.6986 54.0152C19.747 53.9951 19.7894 53.9826 19.8257 53.9776C19.8681 53.9726 19.9044 53.9701 19.9347 53.9701C19.971 53.9751 20.0073 53.9826 20.0436 53.9926C20.086 53.9976 20.1254 54.0052 20.1617 54.0152C20.2767 54.0402 20.3615 54.0828 20.416 54.1429C20.4765 54.203 20.5159 54.2706 20.534 54.3457ZM26.0734 58.7934C26.0794 58.8235 26.0824 58.8535 26.0824 58.8836C26.0885 58.9085 26.0915 58.9385 26.0915 58.9738C26.0915 59.0339 26.0704 59.0888 26.028 59.139C26.0098 59.1639 25.9856 59.1893 25.9553 59.2142C25.9251 59.2344 25.8887 59.2517 25.8463 59.2668C25.695 59.3367 25.5346 59.3621 25.365 59.3419C25.2803 59.3217 25.2046 59.2893 25.138 59.2442C25.1259 59.2344 25.1168 59.2292 25.1108 59.2292C25.1047 59.224 25.0987 59.2165 25.0926 59.2067C25.0865 59.2015 25.0805 59.1968 25.0744 59.1916C25.0684 59.1818 25.0593 59.1743 25.0472 59.1691C25.0169 59.1442 24.9927 59.1217 24.9746 59.1015C24.9564 59.0766 24.9382 59.0512 24.9201 59.0264C24.908 59.0015 24.8928 58.9789 24.8747 58.9587C24.8626 58.9338 24.8474 58.9085 24.8293 58.8836C24.8172 58.8634 24.805 58.846 24.7929 58.831C24.7808 58.8108 24.7718 58.7911 24.7657 58.7709C24.7415 58.7258 24.7264 58.6859 24.7203 58.6507L24.5296 58.2826C24.1118 58.2826 23.6941 58.2849 23.2764 58.2901C22.8647 58.2901 22.45 58.2877 22.0323 58.2826L21.8416 58.6507C21.8295 58.6709 21.8204 58.6906 21.8143 58.7108C21.8143 58.731 21.8083 58.7507 21.7962 58.7709C21.7841 58.7911 21.7719 58.8108 21.7598 58.831C21.7538 58.846 21.7447 58.8634 21.7326 58.8836C21.7144 58.9085 21.6963 58.9338 21.6781 58.9587C21.666 58.9789 21.6509 59.0015 21.6327 59.0264C21.6206 59.0512 21.6055 59.0766 21.5873 59.1015C21.5691 59.1217 21.5449 59.1442 21.5147 59.1691C21.5026 59.1743 21.4935 59.1818 21.4874 59.1916C21.4813 59.1968 21.4753 59.2015 21.4693 59.2067C21.4632 59.2165 21.4572 59.224 21.4511 59.2292C21.445 59.2292 21.4359 59.2344 21.4238 59.2442C21.3573 59.2893 21.2816 59.3217 21.1968 59.3419C21.0273 59.3621 20.8669 59.3367 20.7155 59.2668C20.6731 59.2517 20.6368 59.2344 20.6066 59.2142C20.5763 59.1893 20.5521 59.1639 20.5339 59.139C20.4915 59.0888 20.4703 59.0339 20.4703 58.9738C20.4703 58.9385 20.4703 58.9085 20.4703 58.8836C20.4764 58.8535 20.4824 58.8235 20.4885 58.7934C20.5006 58.7484 20.5157 58.7033 20.5339 58.6582C20.5521 58.6131 20.5611 58.5906 20.5611 58.5906L22.45 54.7439L22.5045 54.6237C22.5166 54.5937 22.5317 54.5661 22.5499 54.5411C22.5681 54.516 22.5832 54.486 22.5953 54.4509C22.6256 54.3858 22.6589 54.3282 22.6952 54.2781C22.7134 54.2481 22.7345 54.2205 22.7588 54.1955C22.783 54.1704 22.8072 54.1454 22.8314 54.1203C22.8677 54.0803 22.9192 54.0477 22.9858 54.0227C23.0705 53.9976 23.1674 53.9851 23.2764 53.9851C23.3914 53.9851 23.4913 53.9976 23.5761 54.0227C23.6426 54.0477 23.6941 54.0803 23.7304 54.1203C23.7728 54.1654 23.8182 54.218 23.8667 54.2781C23.903 54.3282 23.9363 54.3858 23.9665 54.4509C23.9786 54.486 23.9938 54.516 24.012 54.5411C24.0301 54.5661 24.0453 54.5937 24.0574 54.6237L24.1118 54.7439L26.0007 58.5906C26.0007 58.5906 26.0098 58.6131 26.028 58.6582C26.0461 58.7033 26.0613 58.7484 26.0734 58.7934ZM23.9211 56.9528C23.8424 56.8075 23.7607 56.6573 23.676 56.502C23.5972 56.3467 23.5125 56.1889 23.4217 56.0287C23.3975 55.9836 23.3733 55.9385 23.349 55.8934C23.3248 55.8433 23.3006 55.7957 23.2764 55.7507C23.2582 55.7957 23.2371 55.8433 23.2128 55.8934C23.1886 55.9385 23.1644 55.9836 23.1402 56.0287C23.0494 56.1889 22.9616 56.3467 22.8768 56.502C22.7981 56.6573 22.7194 56.8075 22.6407 56.9528L22.4773 57.2833H24.0846L23.9211 56.9528ZM27.1015 58.508L27.1106 57.9144L27.1197 56.81C27.1257 56.6497 27.1288 56.4845 27.1288 56.3141C27.1288 56.1438 27.1288 55.9685 27.1288 55.7882C27.1288 55.6079 27.1288 55.4477 27.1288 55.3074C27.1288 55.1671 27.1348 55.0094 27.1469 54.8341V54.804C27.153 54.7539 27.156 54.7039 27.156 54.6538C27.1621 54.5987 27.1651 54.5436 27.1651 54.4885C27.1712 54.3983 27.2044 54.3007 27.265 54.1955C27.3074 54.1254 27.3709 54.0653 27.4557 54.0152C27.5526 53.9751 27.6464 53.9551 27.7372 53.9551C27.7856 53.9551 27.828 53.9575 27.8643 53.9626C27.9067 53.9626 27.9461 53.9651 27.9824 53.9701C28.0611 53.9801 28.1307 54.0101 28.1912 54.0602C28.2276 54.0853 28.2609 54.1254 28.2911 54.1804C28.3032 54.2105 28.3123 54.2405 28.3184 54.2706C28.3305 54.2956 28.3395 54.3232 28.3456 54.3532C28.3517 54.3883 28.3547 54.4209 28.3547 54.4509C28.3608 54.481 28.3638 54.511 28.3638 54.5411C28.3638 54.5761 28.3608 54.6087 28.3547 54.6387C28.3547 54.6638 28.3547 54.6913 28.3547 54.7214V54.8491L28.3002 58.7484V58.8235C28.3002 58.8385 28.2972 58.8587 28.2911 58.8836C28.2911 58.9038 28.2881 58.9287 28.2821 58.9587C28.27 58.9836 28.2578 59.0113 28.2457 59.0414C28.2397 59.0663 28.2306 59.094 28.2185 59.124C28.2003 59.1489 28.1792 59.1743 28.1549 59.1992C28.1368 59.2193 28.1125 59.2391 28.0823 59.2593C28.0339 59.2992 27.9551 59.3269 27.8462 59.3419C27.6827 59.372 27.5283 59.3593 27.383 59.3043C27.3104 59.2644 27.2589 59.2142 27.2286 59.1541C27.2105 59.139 27.2014 59.124 27.2014 59.109C27.1953 59.0991 27.1893 59.0916 27.1832 59.0865C27.1772 59.0813 27.1712 59.0738 27.1651 59.0639C27.153 59.039 27.1439 59.0137 27.1378 58.9888C27.1318 58.9587 27.1288 58.9287 27.1288 58.8986C27.1227 58.8737 27.1167 58.8484 27.1106 58.8235C27.1106 58.7986 27.1076 58.7733 27.1015 58.7484C27.0954 58.7085 27.0954 58.6657 27.1015 58.6206V58.508ZM34.0692 57.118C34.0994 57.188 34.1206 57.2683 34.1328 57.3585C34.1509 57.4435 34.16 57.5313 34.16 57.6214C34.16 57.7116 34.1509 57.8017 34.1328 57.8919C34.1206 57.9769 34.1025 58.052 34.0783 58.1173C33.9814 58.3976 33.7877 58.6333 33.4971 58.8235C33.2065 59.009 32.8735 59.1442 32.4982 59.2292C32.1289 59.3142 31.7444 59.3442 31.3449 59.3194C30.9513 59.2945 30.6002 59.2118 30.2915 59.0714C30.0977 58.9813 29.9312 58.8709 29.792 58.7409C29.6527 58.6108 29.5347 58.4652 29.4378 58.3051C29.4015 58.2502 29.3773 58.1872 29.3652 58.1173C29.3591 58.0421 29.3682 57.9722 29.3924 57.9069C29.4166 57.8369 29.456 57.7768 29.5105 57.7266C29.565 57.6717 29.6406 57.6341 29.7375 57.6139C29.798 57.604 29.8647 57.5989 29.9373 57.5989C30.016 57.5989 30.0917 57.6087 30.1643 57.6289C30.237 57.644 30.3036 57.6717 30.3641 57.7116C30.4246 57.7468 30.4731 57.7966 30.5094 57.8618C30.576 57.967 30.6698 58.0647 30.7909 58.1548C30.9181 58.2398 31.0512 58.3103 31.1905 58.3652C31.3903 58.4201 31.5901 58.4427 31.7898 58.4328C31.9956 58.423 32.1803 58.3854 32.3438 58.3201C32.5133 58.2549 32.6495 58.1675 32.7524 58.0572C32.8553 57.9421 32.9068 57.8116 32.9068 57.6665C32.9068 57.5463 32.8856 57.4486 32.8433 57.3735C32.8009 57.2932 32.7403 57.2284 32.6616 57.1781C32.589 57.1232 32.4982 57.0781 32.3892 57.0429C32.2862 57.0077 32.1713 56.9776 32.0441 56.9528C31.8988 56.9277 31.7505 56.9102 31.5991 56.9002C31.4538 56.8902 31.3055 56.8776 31.1542 56.8626C31.0028 56.8476 30.8545 56.8275 30.7092 56.8025C30.5639 56.7775 30.4216 56.7399 30.2824 56.6898C30.0039 56.5946 29.792 56.4494 29.6467 56.254C29.5014 56.0587 29.4136 55.8483 29.3834 55.6229C29.3591 55.3976 29.3924 55.1747 29.4833 54.9543C29.5741 54.7289 29.7194 54.536 29.9191 54.3758C30.1129 54.2305 30.3429 54.1279 30.6093 54.0678C30.8817 54.0026 31.1814 53.9651 31.5083 53.9551C31.69 53.95 31.8716 53.9551 32.0532 53.9701C32.2408 53.9851 32.4194 54.0101 32.589 54.0452C32.7645 54.0803 32.925 54.1254 33.0703 54.1804C33.2216 54.2355 33.3518 54.3007 33.4608 54.3758C33.5394 54.4259 33.6182 54.4935 33.6969 54.5786C33.7755 54.6588 33.8361 54.7464 33.8785 54.8416C33.9208 54.9318 33.933 55.0194 33.9148 55.1045C33.9027 55.1897 33.8391 55.2623 33.7241 55.3224C33.6272 55.3725 33.5334 55.3951 33.4426 55.39C33.3578 55.38 33.2761 55.3575 33.1974 55.3224C33.1187 55.2824 33.043 55.2373 32.9704 55.1872C32.8977 55.1371 32.8311 55.092 32.7706 55.052C32.6071 54.9518 32.4043 54.8842 32.1622 54.8491C31.92 54.814 31.693 54.8065 31.4811 54.8266C31.3479 54.8416 31.2238 54.8666 31.1088 54.9017C30.9937 54.9368 30.8938 54.9843 30.8091 55.0444C30.7304 55.1045 30.6668 55.1797 30.6184 55.2698C30.576 55.355 30.5608 55.4526 30.573 55.5628C30.579 55.643 30.6062 55.7106 30.6547 55.7657C30.7092 55.8208 30.7728 55.8659 30.8454 55.9009C30.9241 55.936 31.0089 55.9635 31.0997 55.9836C31.1905 56.0036 31.2813 56.0187 31.3721 56.0287C31.6445 56.0587 31.917 56.0812 32.1894 56.0963C32.4618 56.1113 32.7282 56.1614 32.9885 56.2465C33.2549 56.3317 33.4819 56.4469 33.6696 56.5921C33.8573 56.7374 33.9905 56.9127 34.0692 57.118ZM39.5941 57.118C39.6244 57.188 39.6455 57.2683 39.6576 57.3585C39.6758 57.4435 39.6849 57.5313 39.6849 57.6214C39.6849 57.7116 39.6758 57.8017 39.6576 57.8919C39.6455 57.9769 39.6274 58.052 39.6032 58.1173C39.5063 58.3976 39.3126 58.6333 39.022 58.8235C38.7314 59.009 38.3984 59.1442 38.023 59.2292C37.6538 59.3142 37.2693 59.3442 36.8697 59.3194C36.4763 59.2945 36.1251 59.2118 35.8163 59.0714C35.6226 58.9813 35.4562 58.8709 35.3169 58.7409C35.1777 58.6108 35.0596 58.4652 34.9627 58.3051C34.9264 58.2502 34.9022 58.1872 34.8901 58.1173C34.8841 58.0421 34.8931 57.9722 34.9173 57.9069C34.9415 57.8369 34.9809 57.7768 35.0354 57.7266C35.0899 57.6717 35.1656 57.6341 35.2624 57.6139C35.323 57.604 35.3895 57.5989 35.4622 57.5989C35.5409 57.5989 35.6166 57.6087 35.6892 57.6289C35.7619 57.644 35.8285 57.6717 35.889 57.7116C35.9495 57.7468 35.998 57.7966 36.0343 57.8618C36.1009 57.967 36.1947 58.0647 36.3158 58.1548C36.4429 58.2398 36.5761 58.3103 36.7154 58.3652C36.9151 58.4201 37.1149 58.4427 37.3147 58.4328C37.5206 58.423 37.7052 58.3854 37.8687 58.3201C38.0382 58.2549 38.1744 58.1675 38.2773 58.0572C38.3803 57.9421 38.4317 57.8116 38.4317 57.6665C38.4317 57.5463 38.4105 57.4486 38.3681 57.3735C38.3258 57.2932 38.2652 57.2284 38.1865 57.1781C38.1139 57.1232 38.023 57.0781 37.9141 57.0429C37.8112 57.0077 37.6961 56.9776 37.569 56.9528C37.4237 56.9277 37.2754 56.9102 37.124 56.9002C36.9787 56.8902 36.8304 56.8776 36.679 56.8626C36.5277 56.8476 36.3794 56.8275 36.2341 56.8025C36.0888 56.7775 35.9465 56.7399 35.8073 56.6898C35.5288 56.5946 35.3169 56.4494 35.1716 56.254C35.0263 56.0587 34.9385 55.8483 34.9082 55.6229C34.8841 55.3976 34.9173 55.1747 35.0081 54.9543C35.0989 54.7289 35.2442 54.536 35.444 54.3758C35.6378 54.2305 35.8678 54.1279 36.1342 54.0678C36.4066 54.0026 36.7063 53.9651 37.0332 53.9551C37.2148 53.95 37.3964 53.9551 37.5781 53.9701C37.7658 53.9851 37.9444 54.0101 38.1139 54.0452C38.2895 54.0803 38.4499 54.1254 38.5951 54.1804C38.7465 54.2355 38.8767 54.3007 38.9856 54.3758C39.0644 54.4259 39.1431 54.4935 39.2217 54.5786C39.3005 54.6588 39.361 54.7464 39.4034 54.8416C39.4458 54.9318 39.4579 55.0194 39.4397 55.1045C39.4276 55.1897 39.364 55.2623 39.249 55.3224C39.1522 55.3725 39.0583 55.3951 38.9675 55.39C38.8827 55.38 38.801 55.3575 38.7223 55.3224C38.6436 55.2824 38.5679 55.2373 38.4953 55.1872C38.4226 55.1371 38.356 55.092 38.2955 55.052C38.132 54.9518 37.9292 54.8842 37.687 54.8491C37.4449 54.814 37.2179 54.8065 37.006 54.8266C36.8728 54.8416 36.7487 54.8666 36.6336 54.9017C36.5186 54.9368 36.4188 54.9843 36.334 55.0444C36.2553 55.1045 36.1917 55.1797 36.1433 55.2698C36.1009 55.355 36.0858 55.4526 36.0979 55.5628C36.1039 55.643 36.1312 55.7106 36.1796 55.7657C36.2341 55.8208 36.2976 55.8659 36.3703 55.9009C36.449 55.936 36.5337 55.9635 36.6246 55.9836C36.7154 56.0036 36.8062 56.0187 36.897 56.0287C37.1694 56.0587 37.4419 56.0812 37.7143 56.0963C37.9867 56.1113 38.2531 56.1614 38.5134 56.2465C38.7798 56.3317 39.0069 56.4469 39.1945 56.5921C39.3822 56.7374 39.5154 56.9127 39.5941 57.118ZM41.6591 54.8867L41.6409 56.0662H42.0042C42.2524 56.0612 42.4734 56.0587 42.6671 56.0587C42.8608 56.0587 43.0758 56.0612 43.3119 56.0662H43.3573C43.4299 56.0662 43.4996 56.0687 43.5661 56.0737C43.6388 56.0737 43.7084 56.0737 43.775 56.0737C43.8476 56.0788 43.9173 56.0888 43.9839 56.1038C44.0504 56.1138 44.1171 56.1263 44.1836 56.1413C44.2865 56.1714 44.3713 56.2165 44.4379 56.2766C44.4985 56.3417 44.5287 56.4143 44.5287 56.4945C44.5287 56.5195 44.5287 56.5495 44.5287 56.5846C44.5287 56.6147 44.5227 56.6422 44.5106 56.6673C44.4985 56.7223 44.4591 56.7724 44.3925 56.8175C44.3623 56.8526 44.3047 56.8776 44.22 56.8926C44.1412 56.9127 44.0626 56.9252 43.9839 56.9302C43.8991 56.9452 43.8143 56.9528 43.7296 56.9528H43.3028L41.6228 56.9603L41.6046 58.4328L43.4118 58.4478H43.8386C43.887 58.4478 43.9324 58.4478 43.9748 58.4478C44.0172 58.4478 44.0565 58.4502 44.0928 58.4554C44.1413 58.4652 44.1836 58.4727 44.22 58.4779C44.2624 58.4779 44.3017 58.4831 44.338 58.4929C44.4107 58.5131 44.4712 58.5404 44.5196 58.5756C44.5802 58.6258 44.6195 58.6784 44.6377 58.7333C44.6438 58.7582 44.6468 58.7859 44.6468 58.816C44.6529 58.8409 44.6529 58.8686 44.6468 58.8986C44.6468 58.9789 44.6165 59.0512 44.556 59.1165C44.4833 59.1865 44.3986 59.2316 44.3017 59.2517C44.1746 59.2968 44.0353 59.3194 43.884 59.3194C43.8174 59.3245 43.7478 59.3269 43.6751 59.3269C43.6025 59.3269 43.5328 59.3292 43.4662 59.3344H43.4118C42.9395 59.3442 42.4492 59.3442 41.9406 59.3344C41.8196 59.3344 41.7227 59.332 41.65 59.3269C41.5774 59.3269 41.5108 59.3269 41.4502 59.3269C41.3958 59.3269 41.3383 59.3269 41.2777 59.3269C41.2171 59.3269 41.1385 59.3269 41.0416 59.3269C40.9024 59.3367 40.7873 59.317 40.6965 59.2668C40.6299 59.2316 40.5785 59.1841 40.5421 59.124C40.524 59.109 40.5149 59.094 40.5149 59.0789C40.5088 59.0691 40.5028 59.0616 40.4967 59.0564C40.4907 59.0512 40.4846 59.0437 40.4786 59.0339C40.4665 59.009 40.4574 58.9836 40.4513 58.9587C40.4453 58.9287 40.4422 58.901 40.4422 58.8761C40.4362 58.8512 40.4302 58.8258 40.4241 58.801C40.4241 58.7761 40.4211 58.7507 40.415 58.7258V58.6056C40.415 58.5854 40.415 58.5657 40.415 58.5455C40.4211 58.5253 40.4241 58.5056 40.4241 58.4854V57.8994L40.4422 56.8175V55.8183C40.4422 55.638 40.4422 55.4777 40.4422 55.3375C40.4483 55.1972 40.4543 55.0444 40.4604 54.8792V54.8416C40.4665 54.7865 40.4695 54.7364 40.4695 54.6913C40.4756 54.6412 40.4786 54.5912 40.4786 54.5411C40.4846 54.4409 40.5179 54.3432 40.5785 54.2481C40.6027 54.208 40.6269 54.1729 40.6511 54.1429C40.6814 54.1128 40.7207 54.0878 40.7692 54.0678C40.86 54.0227 40.9538 54.0001 41.0507 54.0001C41.0991 54.0001 41.1354 54.0026 41.1596 54.0076V54.0001C41.2686 54.0001 41.3564 54.0001 41.423 54.0001C41.4896 54.0001 41.5531 54.0001 41.6137 54.0001C41.6803 54.0001 41.7499 54.0001 41.8226 54.0001C41.8952 53.9951 41.9951 53.9926 42.1222 53.9926C42.3644 53.9876 42.5945 53.9851 42.8124 53.9851C43.0304 53.9851 43.2544 53.9876 43.4844 53.9926H43.5207C43.5873 53.9976 43.6569 54.0001 43.7296 54.0001C43.8022 54.0001 43.8719 54.0026 43.9385 54.0076C44.005 54.0076 44.0717 54.0152 44.1382 54.0302C44.2048 54.0402 44.2715 54.0552 44.338 54.0753C44.4409 54.1003 44.5257 54.1429 44.5923 54.203C44.6468 54.2731 44.674 54.3432 44.674 54.4133C44.674 54.4434 44.674 54.4735 44.674 54.5035C44.674 54.5285 44.668 54.5536 44.6559 54.5786C44.6498 54.6287 44.6135 54.6813 44.5469 54.7364C44.5227 54.7464 44.4954 54.7589 44.4652 54.774C44.4409 54.789 44.4107 54.8015 44.3744 54.8115C44.338 54.8215 44.2987 54.8291 44.2563 54.8341C44.22 54.8341 44.1836 54.8366 44.1473 54.8416C44.0989 54.8516 44.0535 54.8566 44.0111 54.8566C43.9748 54.8566 43.9324 54.8566 43.884 54.8566H43.4753L41.6591 54.8641V54.8867ZM49.5944 58.7333C49.6065 58.7582 49.6126 58.7958 49.6126 58.846C49.6126 58.8911 49.6126 58.9287 49.6126 58.9587C49.6126 58.9986 49.6035 59.0362 49.5854 59.0714C49.5672 59.1066 49.543 59.139 49.5127 59.1691C49.4582 59.2292 49.3795 59.2743 49.2766 59.3043C49.1313 59.3442 48.9951 59.3644 48.868 59.3644C48.8013 59.3696 48.7317 59.3719 48.6591 59.3719C48.5864 59.3719 48.5138 59.3771 48.4411 59.387H48.4048C47.9386 59.3921 47.4573 59.3921 46.9609 59.387C46.8398 59.3818 46.7036 59.3818 46.5523 59.387C46.4009 59.3968 46.2526 59.3945 46.1073 59.3795C45.962 59.3696 45.8288 59.3419 45.7077 59.2968C45.5927 59.2466 45.511 59.1691 45.4625 59.0639C45.4504 59.039 45.4413 59.0165 45.4353 58.9963C45.4292 58.9714 45.4262 58.9461 45.4262 58.9212C45.402 58.7507 45.3929 58.5831 45.399 58.4178C45.405 58.2525 45.4081 58.0896 45.4081 57.9294L45.4262 56.8401V55.8333C45.4262 55.653 45.4262 55.4927 45.4262 55.3525C45.4322 55.2122 45.4383 55.057 45.4444 54.8867V54.8491C45.4504 54.799 45.4535 54.7489 45.4535 54.6988C45.4595 54.6487 45.4625 54.5987 45.4625 54.5486C45.4746 54.4334 45.508 54.3357 45.5624 54.2556C45.5988 54.1804 45.6623 54.1203 45.7531 54.0753C45.8318 54.0302 45.9257 54.0076 46.0347 54.0076C46.077 54.0076 46.1164 54.0101 46.1527 54.0152C46.1951 54.0152 46.2344 54.0176 46.2708 54.0227C46.3071 54.0277 46.3403 54.0377 46.3707 54.0527C46.407 54.0678 46.4433 54.0878 46.4796 54.1128C46.516 54.1479 46.5492 54.1904 46.5795 54.2406C46.6037 54.2956 46.6189 54.3508 46.6249 54.4058C46.6309 54.4409 46.637 54.4735 46.6431 54.5035C46.6491 54.5336 46.6522 54.5636 46.6522 54.5937C46.64 54.6237 46.634 54.6538 46.634 54.6838C46.634 54.7139 46.634 54.7414 46.634 54.7665V54.9017L46.5977 58.4403L48.3957 58.4554H48.8225C48.8589 58.4554 48.8982 58.4577 48.9406 58.4629C48.9829 58.4629 49.0253 58.4652 49.0677 58.4704C49.1161 58.4756 49.1586 58.4802 49.1949 58.4854C49.2312 58.4906 49.2675 58.4981 49.3038 58.508C49.3704 58.523 49.4249 58.5479 49.4673 58.5831C49.5339 58.6333 49.5763 58.6831 49.5944 58.7333ZM54.534 58.7333C54.5461 58.7582 54.5522 58.7958 54.5522 58.846C54.5522 58.8911 54.5522 58.9287 54.5522 58.9587C54.5522 58.9986 54.5431 59.0362 54.525 59.0714C54.5068 59.1066 54.4826 59.139 54.4523 59.1691C54.3978 59.2292 54.3191 59.2743 54.2162 59.3043C54.0709 59.3442 53.9347 59.3644 53.8076 59.3644C53.741 59.3696 53.6713 59.3719 53.5987 59.3719C53.526 59.3719 53.4534 59.3771 53.3807 59.387H53.3444C52.8783 59.3921 52.397 59.3921 51.9005 59.387C51.7795 59.3818 51.6432 59.3818 51.4919 59.387C51.3405 59.3968 51.1922 59.3945 51.0469 59.3795C50.9016 59.3696 50.7684 59.3419 50.6473 59.2968C50.5323 59.2466 50.4506 59.1691 50.4021 59.0639C50.3901 59.039 50.381 59.0165 50.3749 58.9963C50.3688 58.9714 50.3658 58.9461 50.3658 58.9212C50.3416 58.7507 50.3325 58.5831 50.3386 58.4178C50.3447 58.2525 50.3477 58.0896 50.3477 57.9294L50.3658 56.8401V55.8333C50.3658 55.653 50.3658 55.4927 50.3658 55.3525C50.3719 55.2122 50.3779 55.057 50.384 54.8867V54.8491C50.3901 54.799 50.3931 54.7489 50.3931 54.6988C50.3991 54.6487 50.4021 54.5987 50.4021 54.5486C50.4142 54.4334 50.4475 54.3357 50.502 54.2556C50.5384 54.1804 50.6019 54.1203 50.6927 54.0753C50.7715 54.0302 50.8653 54.0076 50.9743 54.0076C51.0166 54.0076 51.056 54.0101 51.0923 54.0152C51.1347 54.0152 51.174 54.0176 51.2104 54.0227C51.2467 54.0277 51.28 54.0377 51.3103 54.0527C51.3466 54.0678 51.3829 54.0878 51.4192 54.1128C51.4556 54.1479 51.4889 54.1904 51.5191 54.2406C51.5434 54.2956 51.5585 54.3508 51.5645 54.4058C51.5706 54.4409 51.5766 54.4735 51.5827 54.5035C51.5888 54.5336 51.5918 54.5636 51.5918 54.5937C51.5797 54.6237 51.5736 54.6538 51.5736 54.6838C51.5736 54.7139 51.5736 54.7414 51.5736 54.7665V54.9017L51.5373 58.4403L53.3353 58.4554H53.7621C53.7985 58.4554 53.8378 58.4577 53.8802 58.4629C53.9226 58.4629 53.9649 58.4652 54.0073 58.4704C54.0557 58.4756 54.0981 58.4802 54.1345 58.4854C54.1708 58.4906 54.2071 58.4981 54.2434 58.508C54.31 58.523 54.3645 58.5479 54.4069 58.5831C54.4735 58.6333 54.5159 58.6831 54.534 58.7333ZM56.5223 54.8867L56.5041 56.0662H56.8674C57.1156 56.0612 57.3366 56.0587 57.5303 56.0587C57.724 56.0587 57.9389 56.0612 58.175 56.0662H58.2204C58.2931 56.0662 58.3627 56.0687 58.4293 56.0737C58.502 56.0737 58.5716 56.0737 58.6382 56.0737C58.7108 56.0788 58.7805 56.0888 58.847 56.1038C58.9136 56.1138 58.9803 56.1263 59.0468 56.1413C59.1497 56.1714 59.2345 56.2165 59.3011 56.2766C59.3617 56.3417 59.3919 56.4143 59.3919 56.4945C59.3919 56.5195 59.3919 56.5495 59.3919 56.5846C59.3919 56.6147 59.3858 56.6422 59.3737 56.6673C59.3617 56.7223 59.3223 56.7724 59.2557 56.8175C59.2254 56.8526 59.1679 56.8776 59.0831 56.8926C59.0044 56.9127 58.9258 56.9252 58.847 56.9302C58.7623 56.9452 58.6775 56.9528 58.5928 56.9528H58.166L56.486 56.9603L56.4678 58.4328L58.2749 58.4478H58.7017C58.7502 58.4478 58.7956 58.4478 58.838 58.4478C58.8804 58.4478 58.9197 58.4502 58.956 58.4554C59.0044 58.4652 59.0468 58.4727 59.0831 58.4779C59.1255 58.4779 59.1649 58.4831 59.2012 58.4929C59.2739 58.5131 59.3344 58.5404 59.3828 58.5756C59.4434 58.6258 59.4827 58.6784 59.5009 58.7333C59.507 58.7582 59.51 58.7859 59.51 58.816C59.516 58.8409 59.516 58.8686 59.51 58.8986C59.51 58.9789 59.4797 59.0512 59.4192 59.1165C59.3465 59.1865 59.2618 59.2316 59.1649 59.2517C59.0377 59.2968 58.8985 59.3194 58.7472 59.3194C58.6806 59.3245 58.6109 59.3269 58.5383 59.3269C58.4656 59.3269 58.396 59.3292 58.3294 59.3344H58.2749C57.8027 59.3442 57.3123 59.3442 56.8038 59.3344C56.6827 59.3344 56.5859 59.332 56.5132 59.3269C56.4406 59.3269 56.374 59.3269 56.3134 59.3269C56.2589 59.3269 56.2014 59.3269 56.1409 59.3269C56.0803 59.3269 56.0017 59.3269 55.9048 59.3269C55.7655 59.3367 55.6505 59.317 55.5597 59.2668C55.4931 59.2316 55.4416 59.1841 55.4053 59.124C55.3872 59.109 55.3781 59.094 55.3781 59.0789C55.372 59.0691 55.366 59.0616 55.3599 59.0564C55.3538 59.0512 55.3478 59.0437 55.3417 59.0339C55.3297 59.009 55.3206 58.9836 55.3145 58.9587C55.3084 58.9287 55.3054 58.901 55.3054 58.8761C55.2993 58.8512 55.2933 58.8258 55.2873 58.801C55.2873 58.7761 55.2842 58.7507 55.2782 58.7258V58.6056C55.2782 58.5854 55.2782 58.5657 55.2782 58.5455C55.2842 58.5253 55.2873 58.5056 55.2873 58.4854V57.8994L55.3054 56.8175V55.8183C55.3054 55.638 55.3054 55.4777 55.3054 55.3375C55.3115 55.1972 55.3175 55.0444 55.3236 54.8792V54.8416C55.3297 54.7865 55.3327 54.7364 55.3327 54.6913C55.3387 54.6412 55.3417 54.5912 55.3417 54.5411C55.3478 54.4409 55.3811 54.3432 55.4416 54.2481C55.4659 54.208 55.49 54.1729 55.5143 54.1429C55.5445 54.1128 55.5839 54.0878 55.6323 54.0678C55.7231 54.0227 55.817 54.0001 55.9139 54.0001C55.9623 54.0001 55.9986 54.0026 56.0228 54.0076V54.0001C56.1318 54.0001 56.2196 54.0001 56.2862 54.0001C56.3528 54.0001 56.4163 54.0001 56.4769 54.0001C56.5435 54.0001 56.6131 54.0001 56.6857 54.0001C56.7584 53.9951 56.8583 53.9926 56.9854 53.9926C57.2276 53.9876 57.4576 53.9851 57.6756 53.9851C57.8935 53.9851 58.1175 53.9876 58.3476 53.9926H58.3839C58.4505 53.9976 58.5201 54.0001 58.5928 54.0001C58.6654 54.0001 58.7351 54.0026 58.8016 54.0076C58.8682 54.0076 58.9348 54.0152 59.0014 54.0302C59.068 54.0402 59.1346 54.0552 59.2012 54.0753C59.3041 54.1003 59.3889 54.1429 59.4555 54.203C59.51 54.2731 59.5372 54.3432 59.5372 54.4133C59.5372 54.4434 59.5372 54.4735 59.5372 54.5035C59.5372 54.5285 59.5311 54.5536 59.519 54.5786C59.513 54.6287 59.4766 54.6813 59.4101 54.7364C59.3858 54.7464 59.3586 54.7589 59.3283 54.774C59.3041 54.789 59.2739 54.8015 59.2375 54.8115C59.2012 54.8215 59.1619 54.8291 59.1195 54.8341C59.0832 54.8341 59.0468 54.8366 59.0105 54.8416C58.9621 54.8516 58.9167 54.8566 58.8743 54.8566C58.838 54.8566 58.7956 54.8566 58.7472 54.8566H58.3385L56.5223 54.8641V54.8867Z" fill="white"/>
</svg>
